<svg width="40" height="40" viewBox="0 0 40 40" fill="none" xmlns="http://www.w3.org/2000/svg">
<path d="M20 0C8.95423 0 0 8.95423 0 20C0 31.0458 8.95423 40 20 40C31.0458 40 40 31.0458 40 20C40 8.95423 31.0458 0 20 0ZM20 6.18557C21.2536 6.18557 22.479 6.55729 23.5213 7.25374C24.5636 7.95018 25.376 8.94006 25.8557 10.0982C26.3354 11.2564 26.4609 12.5307 26.2164 13.7602C25.9718 14.9897 25.3682 16.1191 24.4817 17.0055C23.5953 17.8919 22.466 18.4955 21.2365 18.7401C20.007 18.9846 18.7326 18.8591 17.5745 18.3794C16.4164 17.8997 15.4265 17.0873 14.73 16.045C14.0336 15.0027 13.6619 13.7773 13.6619 12.5237C13.6619 10.8427 14.3296 9.2306 15.5183 8.04197C16.7069 6.85333 18.319 6.18557 20 6.18557ZM28.4647 32.6334C25.9182 34.197 22.9883 35.0247 20 35.0247C17.0117 35.0247 14.0818 34.197 11.5353 32.6334C8.84206 30.974 8.31876 27.2664 10.4573 24.9361C11.6703 23.6135 13.145 22.5576 14.7877 21.8352C16.4305 21.1128 18.2054 20.7398 20 20.7398C21.7946 20.7398 23.5695 21.1128 25.2123 21.8352C26.855 22.5576 28.3297 23.6135 29.5427 24.9361C31.6817 27.2664 31.1579 30.974 28.4647 32.6334Z" fill="#F09D22"/>
</svg>
