<svg width="36" height="36" viewBox="0 0 36 36" fill="none" xmlns="http://www.w3.org/2000/svg">
<path d="M4.5 10.5H24C24.3978 10.5 24.7794 10.342 25.0607 10.0607C25.342 9.77936 25.5 9.39782 25.5 9C25.5 8.60218 25.342 8.22064 25.0607 7.93934C24.7794 7.65804 24.3978 7.5 24 7.5H4.5C4.10217 7.5 3.72064 7.65804 3.43934 7.93934C3.15803 8.22064 3 8.60218 3 9C3 9.39782 3.15803 9.77936 3.43934 10.0607C3.72064 10.342 4.10217 10.5 4.5 10.5ZM3 18C3 17.6022 3.15803 17.2206 3.43934 16.9393C3.72064 16.658 4.10217 16.5 4.5 16.5H31.5C31.8978 16.5 32.2794 16.658 32.5607 16.9393C32.842 17.2206 33 17.6022 33 18C33 18.3978 32.842 18.7794 32.5607 19.0607C32.2794 19.342 31.8978 19.5 31.5 19.5H4.5C4.10217 19.5 3.72064 19.342 3.43934 19.0607C3.15803 18.7794 3 18.3978 3 18ZM3 27C3 26.6022 3.15803 26.2206 3.43934 25.9393C3.72064 25.658 4.10217 25.5 4.5 25.5H18C18.3978 25.5 18.7794 25.658 19.0607 25.9393C19.342 26.2206 19.5 26.6022 19.5 27C19.5 27.3978 19.342 27.7794 19.0607 28.0607C18.7794 28.342 18.3978 28.5 18 28.5H4.5C4.10217 28.5 3.72064 28.342 3.43934 28.0607C3.15803 27.7794 3 27.3978 3 27Z" fill="#FFA827"/>
</svg>
