<svg width="50" height="50" viewBox="0 0 50 50" fill="none" xmlns="http://www.w3.org/2000/svg">
<path d="M30.1466 23.1418L23.5817 22.5806L23.2656 26.5895L29.0394 27.07C28.5653 26.5089 28.3277 25.7875 28.4858 25.0661C28.5653 24.1039 29.2769 23.3826 30.1466 23.1418Z" fill="white"/>
<path d="M17.2554 35.2479L12.8264 34.3664C12.906 33.9654 12.9845 32.3624 13.1425 29.8769C10.612 29.6361 8.55551 29.2351 8.15992 29.1555C6.89465 28.9147 6.02395 27.6322 6.2615 26.3496C6.49906 25.0671 7.76433 24.1845 9.0296 24.4253C9.82078 24.5854 11.086 24.7456 12.6674 24.9058C11.9557 23.7028 10.6905 22.8213 9.10811 22.6611C6.49804 22.3407 4.12553 24.2651 3.88798 26.9108C3.65042 29.076 3.41388 31.8819 3.41388 32.9236V33.244C3.33436 34.7674 3.9675 36.3703 5.3123 37.4131C5.47033 37.4131 12.2728 37.4131 11.7977 37.4131C12.5093 37.4131 13.1425 38.1345 13.1425 39.0171V39.2579L14.1702 39.4181L12.9049 46.3135C12.6674 47.5961 13.5381 48.8786 14.8034 49.1194C15.9901 49.3602 17.3339 48.5583 17.5714 47.1951L19.3118 37.9753C19.3914 37.3335 19.3118 36.6928 18.9162 36.1316C18.5207 35.5704 17.8885 35.4102 17.2554 35.25V35.2479Z" fill="white"/>
<path d="M19.865 25.707C17.0174 26.509 11.5608 25.9478 8.87117 25.3866C8.00149 25.2264 7.21031 25.7876 7.05228 26.6692C6.89425 27.5508 7.44787 28.3527 8.31755 28.5129C11.7188 29.1547 17.255 29.7955 20.7347 28.8333C21.6044 28.5925 22.0795 27.7109 21.842 26.8294C21.6044 25.9478 20.7347 25.4662 19.865 25.707Z" fill="white"/>
<path d="M42.1692 18.892C44.6152 18.892 46.5981 16.882 46.5981 14.4026C46.5981 11.9231 44.6152 9.91309 42.1692 9.91309C39.7231 9.91309 37.7402 11.9231 37.7402 14.4026C37.7402 16.882 39.7231 18.892 42.1692 18.892Z" fill="white"/>
<path d="M9.42505 22.0195C11.8711 22.0195 13.854 20.0095 13.854 17.53C13.854 15.0505 11.8711 13.0405 9.42505 13.0405C6.979 13.0405 4.99609 15.0505 4.99609 17.53C4.99609 20.0095 6.979 22.0195 9.42505 22.0195Z" fill="white"/>
<path d="M37.6608 38.8558V35.9693H44.7793C45.9661 35.9693 46.3617 35.0071 46.2026 33.8848C46.2026 31.8002 46.1231 23.6222 46.6767 21.5377C45.8071 20.2551 44.3827 19.4531 42.7219 19.4531C40.3494 19.4531 38.451 21.1367 38.0554 23.462C40.2698 23.1416 41.061 22.3397 41.2191 22.1795C41.9307 21.0571 43.355 20.7367 44.3827 21.4581C45.49 22.1795 45.8856 23.6233 45.1739 24.7456C44.8579 25.3068 43.1175 27.7923 37.8973 28.3535V32.442C37.8973 32.7624 37.8973 33.0838 37.9769 33.4042L35.8409 34.046C35.2873 34.2062 34.7337 34.6072 34.4961 35.0877V45.5105C35.1292 45.2697 35.6829 44.7891 35.9194 44.1473L38.0554 38.8558H37.6598H37.6608Z" fill="white"/>
<path d="M31.0167 23.944C30.147 23.7838 29.3558 24.345 29.1978 25.2265C29.0398 26.1081 29.5934 26.9101 30.4631 27.0703C34.8135 27.7917 42.3266 28.112 44.5411 24.2644C45.0152 23.543 44.7787 22.5002 43.9875 22.0196C43.1963 21.5391 42.3266 21.7788 41.8515 22.5808C39.5575 24.9857 34.2589 24.5052 31.0157 23.944H31.0167Z" fill="white"/>
<path d="M34.9726 31.7209C34.9726 31.3199 34.6565 30.9189 34.1814 30.9189H17.4933C17.0977 30.9189 16.7021 31.2393 16.7021 31.7209C16.7021 32.1219 17.0182 32.5229 17.4933 32.5229H20.2614V49.8401H33.7858V32.5229H34.1814C34.6555 32.5229 34.9726 32.2025 34.9726 31.7209Z" fill="white"/>
<path d="M49.2874 47.6746V46.2318C49.2874 45.5104 48.7338 44.8686 47.9426 44.8686H44.1458C44.1458 44.6278 44.1458 37.6528 44.1458 38.0538H46.5978C47.8631 38.0538 48.4167 35.5683 48.2587 34.1255L47.8631 20.3357C47.8631 20.3357 47.389 20.9775 47.1514 22.661L47.0719 24.665C47.0719 24.7456 46.9924 34.6061 46.9924 34.6867C46.9128 35.5683 46.4387 36.7713 44.7779 36.7713H38.371V38.1344H42.5634C42.5634 38.2946 42.5634 45.1095 42.5634 44.9493H38.7666C38.0549 44.9493 37.4218 45.5104 37.4218 46.3124V47.7552C37.1057 47.996 36.8682 48.3164 36.8682 48.7969C36.8682 49.4387 37.4218 49.9999 38.0549 49.9999C38.6881 49.9999 39.2417 49.4387 39.2417 48.7969C39.2417 48.3959 39.0041 47.995 38.6881 47.7552V46.3124C38.6881 46.2318 38.7676 46.1522 38.8461 46.1522H42.6429V47.8358C42.4054 48.0766 42.2473 48.397 42.2473 48.7174C42.2473 49.3592 42.801 49.9203 43.4341 49.9203C44.0673 49.9203 44.6209 49.3592 44.6209 48.7174C44.6209 48.397 44.4628 48.0756 44.2253 47.8358V46.0716H48.0221C48.1016 46.0716 48.1801 46.1522 48.1801 46.2318V47.6746C47.8641 47.9154 47.6265 48.2358 47.6265 48.7163C47.6265 49.3581 48.1801 49.9193 48.8133 49.9193C49.4464 49.9193 50.0001 49.3581 50.0001 48.7163C49.842 48.2358 49.6045 47.8348 49.2884 47.6746H49.2874Z" fill="white"/>
<path d="M11.7179 38.2948H3.01799C2.85995 35.1685 1.99027 24.1846 0.012333 25.307C0.24989 27.8721 -0.699318 18.4115 1.43563 39.1774C1.43563 39.658 1.67319 40.059 1.98925 40.059H3.33405L2.54287 49.8399H3.72964L4.52081 39.9784H9.26685L10.058 49.8399H11.2448L10.4536 39.9784H11.7984C12.1145 39.9784 12.352 39.658 12.352 39.1764V39.0958C12.2725 38.6948 12.036 38.2938 11.7189 38.2938L11.7179 38.2948Z" fill="white"/>
<path d="M22.9586 2.84086H22.4722V2.33755C22.4722 2.15462 22.3254 2.00684 22.146 2.00684H21.7004C21.521 2.00684 21.3742 2.15462 21.3742 2.33755V2.84086H20.9561C20.7757 2.84086 20.6299 2.98968 20.6299 3.17261V3.62321C20.6299 3.80614 20.7757 3.95393 20.9561 3.95393H21.3742V4.50788C21.3742 4.69081 21.521 4.8386 21.7004 4.83963H22.146C22.3254 4.8386 22.4722 4.69081 22.4722 4.50788V3.95393H22.9586C23.139 3.95393 23.2858 3.80614 23.2858 3.62321V3.17261C23.2858 2.98968 23.139 2.84086 22.9586 2.84086ZM23.0758 3.62321C23.0758 3.68832 23.0238 3.74103 22.9596 3.74103H22.3672C22.3091 3.74103 22.2622 3.78857 22.2622 3.84748V4.50788C22.2622 4.57402 22.2102 4.62673 22.146 4.62673H21.7004C21.6362 4.62673 21.5842 4.57402 21.5842 4.50788V3.84748C21.5842 3.7896 21.5373 3.74103 21.4792 3.74103H20.9561C20.8919 3.74103 20.8399 3.68832 20.8389 3.62321V3.17261C20.8399 3.10647 20.8919 3.05376 20.9561 3.05376H21.4792C21.5373 3.05376 21.5842 3.00622 21.5842 2.94731V2.33755C21.5842 2.27244 21.6362 2.21973 21.7004 2.21973H22.146C22.2102 2.21973 22.2622 2.27244 22.2622 2.33755V2.94731C22.2622 3.00622 22.3091 3.05376 22.3672 3.05376H22.9596C23.0238 3.05376 23.0758 3.10647 23.0758 3.17261V3.62321Z" fill="white"/>
<path d="M33.0726 0H15.9889C15.2773 0 14.7236 0.561184 14.7236 1.28256V12.2665C14.7236 12.9879 15.2773 13.549 15.9889 13.549H28.1695C28.7232 14.5112 30.7001 16.1948 32.1234 17.3171C32.519 17.6386 33.0726 17.1569 32.9146 16.6764L31.4117 13.549H33.0726C33.7842 13.549 34.3389 12.9879 34.3389 12.2665V1.28256C34.3389 0.561184 33.7842 0 33.0726 0ZM21.9574 1.5523H21.9839C22.9912 1.56677 23.8069 2.40906 23.8038 3.43118C23.8038 4.0089 23.5367 4.55355 23.084 4.90494C23.0157 4.95868 22.981 5.04549 22.9953 5.13231C23.0045 5.18501 23.031 5.23359 23.0697 5.26976L23.3379 5.53123C23.3562 5.5488 23.3572 5.57981 23.3379 5.59841C23.3267 5.61081 23.3093 5.61598 23.293 5.61184L21.9808 5.29663C21.9727 5.29456 21.9645 5.29353 21.9564 5.29353C20.9378 5.2925 20.112 4.4564 20.111 3.42291C20.111 2.39046 20.9368 1.5523 21.9564 1.5523H21.9574ZM27.8137 8.24621C27.3743 8.24621 27.1276 8.03848 26.9073 7.69536H26.0285L24.6602 9.0823H25.3729C25.6054 8.72885 25.8704 8.51698 26.3313 8.51698C26.8319 8.51698 27.4966 8.77639 27.7842 9.21252C27.4966 9.64762 26.8319 9.90702 26.3313 9.90702C25.8307 9.90702 25.5829 9.67656 25.3423 9.2952H24.4502L22.8831 10.8837H23.6305C23.8793 10.5095 24.1627 10.2853 24.6541 10.2853C25.1914 10.2853 25.9051 10.5633 26.212 11.0325C25.9051 11.5027 25.1914 11.7807 24.6541 11.7807C24.1168 11.7807 23.8385 11.5224 23.5754 11.0966H22.6731L22.2541 11.5213C21.9146 11.8541 21.6026 11.9978 21.2998 11.9978C20.8481 11.9978 20.4148 11.6784 19.9315 11.1896C19.9315 11.1896 19.9312 11.1892 19.9305 11.1885C19.8897 11.1472 19.8907 11.08 19.9315 11.0387C19.9723 10.9974 20.0386 10.9974 20.0794 11.0387C20.5249 11.4903 20.8573 11.7156 21.1591 11.7725C21.467 11.8293 21.7678 11.7012 22.1073 11.3704L22.5803 10.8899C22.5803 10.8899 22.5803 10.8806 22.5803 10.8764V9.968C22.1215 9.67139 21.8442 9.34067 21.8442 8.74435C21.8442 8.14803 22.1593 7.2985 22.6894 6.94814C23.2196 7.2985 23.5346 8.12426 23.5346 8.74435C23.5346 9.36444 23.2532 9.67552 22.7904 9.97317V10.678L24.5022 8.94278V8.04778C24.0781 7.77184 23.8211 7.46282 23.8211 6.90991C23.8211 6.35699 24.1138 5.56224 24.6072 5.23359C25.1007 5.56224 25.3933 6.33115 25.3933 6.90991C25.3933 7.48866 25.1364 7.7708 24.7122 8.04674V8.72988L26.2813 7.13934V6.25571C25.8939 6.00147 25.6594 5.71623 25.6594 5.20775C25.6594 4.67034 25.9306 3.95723 26.3863 3.65028C26.8421 3.95723 27.1133 4.67034 27.1133 5.20775C27.1133 5.71623 26.8788 6.00147 26.4903 6.25674V6.92747L27.7189 5.68212C27.6761 5.41651 27.7118 5.19535 27.9228 4.98142C28.194 4.70651 28.6447 4.54115 28.9597 4.59179C29.0107 4.91217 28.8465 5.36794 28.5753 5.64285C28.3571 5.86505 28.1308 5.89605 27.8555 5.84438L26.2395 7.48246H26.9287C27.1439 7.15794 27.3896 6.96365 27.8137 6.96365H27.8147C28.3317 6.96365 28.9189 7.24682 29.1626 7.60441C28.9189 7.96303 28.3317 8.24621 27.8147 8.24621H27.8137Z" fill="white"/>
</svg>
