<svg width="22" height="20" viewBox="0 0 22 20" fill="none" xmlns="http://www.w3.org/2000/svg">
<path fill-rule="evenodd" clip-rule="evenodd" d="M5.93734 3.69402C6.4755 3.1582 7.20539 2.85718 7.96646 2.85718H11.4785C12.0068 2.85718 12.435 3.28358 12.435 3.80956C12.435 4.33554 12.0068 4.76194 11.4785 4.76194H7.96646C7.71277 4.76194 7.46947 4.86228 7.29008 5.04088L6.49766 5.82986C5.9595 6.36568 5.22961 6.6667 4.46854 6.6667H2.86962C2.34134 6.6667 1.91308 7.0931 1.91308 7.61908V17.1429C1.91308 17.6689 2.34134 18.0953 2.86962 18.0953H16.2612C16.7894 18.0953 17.2177 17.6689 17.2177 17.1429V10.4762C17.2177 9.95022 17.6459 9.52384 18.1742 9.52384C18.7025 9.52384 19.1308 9.95022 19.1308 10.4762V17.1429C19.1308 18.7209 17.846 20 16.2612 20H2.86962C1.28477 20 0 18.7209 0 17.1429V7.61908C0 6.04113 1.28477 4.76194 2.86962 4.76194H4.46854C4.72223 4.76194 4.96552 4.6616 5.14491 4.483L5.93734 3.69402Z" fill="#9F2C2C"/>
<path fill-rule="evenodd" clip-rule="evenodd" d="M4.78125 12.3809C4.78125 9.75102 6.92254 7.61902 9.56394 7.61902C12.2053 7.61902 14.3466 9.75102 14.3466 12.3809C14.3466 15.0108 12.2053 17.1428 9.56394 17.1428C6.92254 17.1428 4.78125 15.0108 4.78125 12.3809ZM9.56394 9.52378C7.9791 9.52378 6.69433 10.8029 6.69433 12.3809C6.69433 13.9589 7.9791 15.2381 9.56394 15.2381C11.1488 15.2381 12.4336 13.9589 12.4336 12.3809C12.4336 10.8029 11.1488 9.52378 9.56394 9.52378Z" fill="#9F2C2C"/>
<path fill-rule="evenodd" clip-rule="evenodd" d="M14.3477 3.80956C14.3477 3.28358 14.7759 2.85718 15.3042 2.85718H21.0434C21.5717 2.85718 22 3.28358 22 3.80956C22 4.33554 21.5717 4.76194 21.0434 4.76194H15.3042C14.7759 4.76194 14.3477 4.33554 14.3477 3.80956Z" fill="#9F2C2C"/>
<path fill-rule="evenodd" clip-rule="evenodd" d="M18.1753 0C18.7036 0 19.1318 0.4264 19.1318 0.952381V6.66667C19.1318 7.19265 18.7036 7.61905 18.1753 7.61905C17.647 7.61905 17.2188 7.19265 17.2188 6.66667V0.952381C17.2188 0.4264 17.647 0 18.1753 0Z" fill="#9F2C2C"/>
</svg>
