<svg width="24" height="24" viewBox="0 0 24 24" fill="none" xmlns="http://www.w3.org/2000/svg">
<path d="M21.5696 18.4875C21.1046 18.27 20.6546 17.55 20.3396 16.53C22.1996 14.9475 23.2496 12.765 23.2496 10.485C23.2496 5.835 18.9296 2.0475 13.6121 2.0475C8.93211 2.0475 4.96461 4.95 4.13961 8.97C4.13961 8.985 4.13211 9 4.12461 9.0075C4.10961 9.06 4.10211 9.12 4.10211 9.1425C4.01961 9.5625 3.97461 10.0125 3.97461 10.485C3.97461 15.0825 8.23461 18.8625 13.4846 18.915C13.6346 18.93 13.7846 18.915 13.9796 18.915C14.7596 18.8925 15.5396 18.78 16.3046 18.585C17.9396 19.56 20.8271 19.875 21.1721 19.9125H21.2471C21.5846 19.9125 21.8771 19.6875 21.9671 19.365C22.0646 19.0125 21.8921 18.6375 21.5621 18.4875H21.5696ZM9.79461 11.6925C9.13461 11.6925 8.59461 11.1525 8.59461 10.4925C8.59461 9.8325 9.13461 9.2925 9.79461 9.2925C10.4546 9.2925 10.9946 9.8325 10.9946 10.4925C10.9946 11.1525 10.4546 11.6925 9.79461 11.6925ZM13.6121 11.6925C12.9521 11.6925 12.4121 11.1525 12.4121 10.4925C12.4121 9.8325 12.9521 9.2925 13.6121 9.2925C14.2721 9.2925 14.8121 9.8325 14.8121 10.4925C14.8121 11.1525 14.2721 11.6925 13.6121 11.6925ZM17.4221 11.6925C16.7621 11.6925 16.2221 11.1525 16.2221 10.4925C16.2221 9.8325 16.7621 9.2925 17.4221 9.2925C18.0821 9.2925 18.6221 9.8325 18.6221 10.4925C18.6221 11.1525 18.0821 11.6925 17.4221 11.6925Z" fill="#FFA827"/>
<path d="M12.2175 20.3325C11.0925 20.88 9.8175 21.165 8.4975 21.165C7.7925 21.165 7.0875 21.0825 6.3975 20.9175C5.07 21.6675 2.8275 21.915 2.5575 21.945H2.4825C2.1525 21.945 1.8525 21.7275 1.7625 21.3975C1.665 21.045 1.8375 20.67 2.1675 20.52C2.4675 20.3775 2.79 19.875 3.015 19.185C1.5675 17.925 0.75 16.2075 0.75 14.415C0.75 12.81 1.3725 11.3175 2.49 10.1325C2.4825 10.2525 2.4825 10.365 2.4825 10.485C2.4825 15.5175 6.7425 19.725 12.2175 20.3325Z" fill="#FFA827"/>
</svg>
