<svg width="16" height="16" viewBox="0 0 16 16" fill="none" xmlns="http://www.w3.org/2000/svg">
<path d="M15.9676 10.2497C15.9009 10.4809 15.7542 10.6676 15.5452 10.7877L14.1136 11.588V13.2241C14.1136 13.7132 13.7135 14.1133 13.2244 14.1133H11.5838L10.788 15.5449C10.6679 15.7539 10.4812 15.9006 10.25 15.9673C10.0233 16.0296 9.78316 16.0029 9.5742 15.8873L8.0003 15.007L6.4264 15.8873C6.28857 15.9629 6.14185 15.9984 5.99068 15.9984C5.91061 15.9984 5.83063 15.9896 5.7506 15.9673C5.5194 15.9006 5.33267 15.7539 5.21262 15.5449L4.41678 14.1133H2.77619C2.28712 14.1133 1.88698 13.7132 1.88698 13.2241V11.588L0.45535 10.7877C0.246386 10.6676 0.099666 10.4809 0.0329753 10.2497C-0.0292694 10.023 -0.002593 9.78287 0.113004 9.5739L0.993322 8L0.113004 6.4261C-0.127082 5.99483 0.0285294 5.45241 0.45535 5.21233L1.88698 4.41204V2.77589C1.88698 2.28682 2.28712 1.88668 2.77619 1.88668H4.41678L5.21262 0.455052C5.33267 0.246087 5.5194 0.0993673 5.7506 0.0326766C5.97734 -0.0295681 6.21743 -0.00289186 6.4264 0.11275L8.0003 0.993068L9.5742 0.11275C9.78316 -0.00284739 10.0232 -0.0295237 10.25 0.0326766C10.4812 0.0993673 10.6679 0.246087 10.788 0.455052L11.5838 1.88668H13.2244C13.7135 1.88668 14.1136 2.28682 14.1136 2.77589V4.41204L15.5452 5.21233C15.9721 5.45241 16.1277 5.99483 15.8876 6.4261L15.0073 8L15.8876 9.5739C16.0032 9.78287 16.0298 10.023 15.9676 10.2497Z" fill="#0064E1"/>
<path d="M7.11097 10.6676C6.99719 10.6676 6.88346 10.6241 6.79663 10.5373L4.57361 8.31426C4.39994 8.1406 4.39994 7.85926 4.57361 7.68555C4.74727 7.51184 5.02862 7.51189 5.20232 7.68555L7.11101 9.59424L11.2427 5.46252C11.4164 5.28886 11.6977 5.28886 11.8714 5.46252C12.0451 5.63619 12.0451 5.91753 11.8714 6.09124L7.42539 10.5373C7.33856 10.6241 7.2247 10.6676 7.11097 10.6676Z" fill="white"/>
</svg>
