<svg width="18" height="16" viewBox="0 0 18 16" fill="none" xmlns="http://www.w3.org/2000/svg">
<path d="M11.3853 2.80446H3.52584L4.3229 1.62306C4.42921 1.46678 4.49083 1.28455 4.50112 1.09597C4.51142 0.907387 4.47001 0.719569 4.38134 0.552694C4.29267 0.385818 4.1601 0.246192 3.99786 0.148815C3.83562 0.0514386 3.64985 -8.85782e-06 3.4605 2.75654e-09H3.45832C3.288 -1.18485e-05 3.11986 0.0381905 2.96636 0.111778C2.81285 0.185366 2.6779 0.292453 2.57151 0.425111L0.119199 3.48309C0.0420376 3.5793 0 3.69883 0 3.82203C0 3.94524 0.0420376 4.06477 0.119199 4.16098L2.57178 7.21875C2.67816 7.35142 2.81311 7.45852 2.96662 7.53212C3.12013 7.60572 3.28827 7.64394 3.45859 7.64393H3.4605C3.64984 7.64393 3.8356 7.59248 3.99782 7.49511C4.16005 7.39774 4.29262 7.25812 4.38129 7.09125C4.46995 6.92439 4.51137 6.73658 4.50108 6.54801C4.49079 6.35944 4.4292 6.17722 4.3229 6.02094L3.52564 4.83913H11.3853C12.5986 4.83913 13.7622 5.31989 14.6202 6.17563C15.4781 7.03138 15.9601 8.19202 15.9601 9.40223C15.9601 10.6124 15.4781 11.7731 14.6202 12.6288C13.7622 13.4846 12.5986 13.9653 11.3853 13.9653H9.16074C8.89024 13.9653 8.63081 14.0725 8.43953 14.2633C8.24825 14.4541 8.14079 14.7128 8.14079 14.9827C8.14079 15.2525 8.24825 15.5112 8.43953 15.702C8.63081 15.8928 8.89024 16 9.16074 16H11.3853C13.1396 16 14.8221 15.3049 16.0626 14.0676C17.3031 12.8302 18 11.1521 18 9.40223C18 7.65239 17.3031 5.97422 16.0626 4.7369C14.8221 3.49958 13.1396 2.80446 11.3853 2.80446Z" fill="#9F2C2C"/>
</svg>
