<svg width="60" height="60" viewBox="0 0 60 60" fill="none" xmlns="http://www.w3.org/2000/svg">
<g clip-path="url(#clip0_1064_3605)">
<path d="M54.4699 7.40922H24.9609L30.7866 15.5657H55.9995V8.93773C55.9995 8.09375 55.3139 7.4082 54.4699 7.4082V7.40922Z" fill="#FFA827"/>
<path d="M23.5533 39.9102C18.0567 39.9102 13.5859 44.3809 13.5859 49.8775V56.1459H33.5216V49.8775C33.5216 44.3698 29.0671 39.9102 23.5543 39.9102H23.5533Z" fill="#FFA827"/>
<path d="M26.5278 35.618C28.1754 33.9704 28.1754 31.2991 26.5278 29.6515C24.8802 28.004 22.2089 28.004 20.5613 29.6515C18.9138 31.2991 18.9138 33.9704 20.5613 35.618C22.2089 37.2656 24.8802 37.2656 26.5278 35.618Z" fill="#FFA827"/>
<path d="M28.7548 17.9844L18.8708 4.14648H5.52953C4.68555 4.14648 4 4.83203 4 5.67602V54.617C4 55.4609 4.68555 56.1465 5.52953 56.1465H10.5254V49.878C10.5254 44.4841 13.8211 39.8447 18.5041 37.8703C13.7998 33.3376 17.0376 25.3548 23.5518 25.3548C30.066 25.3548 33.2906 33.3457 28.6045 37.8642C33.251 39.8173 36.5782 44.4272 36.5782 49.878V56.1465H54.4705C55.3145 56.1465 56 55.4609 56 54.617V18.6252H30C29.5064 18.6252 29.0423 18.3866 28.7548 17.9854V17.9844ZM18.5803 18.6252H16.8466V20.3589C16.8466 21.2029 16.1611 21.8884 15.3171 21.8884C14.4731 21.8884 13.7876 21.2029 13.7876 20.3589V18.6252H12.0539C11.2099 18.6252 10.5244 17.9397 10.5244 17.0957C10.5244 16.2517 11.2099 15.5662 12.0539 15.5662H13.7876V13.8325C13.7876 12.9885 14.4731 12.303 15.3171 12.303C16.1611 12.303 16.8466 12.9885 16.8466 13.8325V15.5662H18.5803C19.4243 15.5662 20.1098 16.2517 20.1098 17.0957C20.1098 17.9397 19.4243 18.6252 18.5803 18.6252ZM36.5254 22.9071H47.9451C48.7891 22.9071 49.4746 23.5927 49.4746 24.4366C49.4746 25.2806 48.7891 25.9662 47.9451 25.9662H36.5254C35.6814 25.9662 34.9959 25.2806 34.9959 24.4366C34.9959 23.5927 35.6814 22.9071 36.5254 22.9071ZM36.5254 29.4325H47.9451C48.7891 29.4325 49.4746 30.118 49.4746 30.962C49.4746 31.806 48.7891 32.4916 47.9451 32.4916H36.5254C35.6814 32.4916 34.9959 31.806 34.9959 30.962C34.9959 30.118 35.6814 29.4325 36.5254 29.4325Z" fill="#FFA827"/>
</g>
<defs>
<clipPath id="clip0_1064_3605">
<rect width="52" height="52" fill="white" transform="translate(4 4.14648)"/>
</clipPath>
</defs>
</svg>
