<svg width="60" height="60" viewBox="0 0 60 60" fill="none" xmlns="http://www.w3.org/2000/svg">
<g clip-path="url(#clip0_1064_3606)">
<path d="M30 16.2871C33.6244 16.2871 36.5625 13.4014 36.5625 9.8418C36.5625 6.28215 33.6244 3.39648 30 3.39648C26.3756 3.39648 23.4375 6.28215 23.4375 9.8418C23.4375 13.4014 26.3756 16.2871 30 16.2871Z" fill="#FFA827"/>
<path d="M41.4844 27.6738C41.4844 21.4552 36.3317 16.2871 30 16.2871C23.6683 16.2871 18.5156 21.4552 18.5156 27.6738V32.5078H41.4844V27.6738Z" fill="#FFA827"/>
<path d="M51.18 27.8908C50.2733 41.8256 44.1877 45.0676 43.8606 45.2287L42.3644 42.3605C42.418 42.3315 45.8064 40.3292 47.3202 32.568C39.537 33.205 33.167 39.1766 32.233 46.9582C31.8425 50.226 31.6445 53.6033 31.6445 56.7852V58.3965H44.7684V56.7852C44.7684 55.234 45.9409 54.1641 48.1886 52.252C52.0528 48.9659 58.0028 43.8913 58.0028 30.8965V22.8398C58.0028 22.8398 56.325 22.8398 56.3064 22.8398C53.5863 22.8581 51.3539 25.2246 51.1811 27.8908H51.18Z" fill="#FFA827"/>
<path d="M11.8131 52.252C14.0608 54.1641 15.2333 55.234 15.2333 56.7852V58.3965H28.3583V56.7852C28.3583 53.6033 28.1592 50.226 27.7688 46.9582C26.8347 39.1766 20.4647 33.205 12.6816 32.568C14.1953 40.3292 17.5837 42.3315 17.6373 42.3605L16.1411 45.2287C15.813 45.0676 9.72734 41.8256 8.82172 27.8908C8.64781 25.2246 6.41547 22.8581 3.69641 22.8398C3.67781 22.8398 2 22.8398 2 22.8398V30.8965C2 43.8913 7.94891 48.9659 11.8142 52.252H11.8131Z" fill="#FFA827"/>
</g>
<defs>
<clipPath id="clip0_1064_3606">
<rect width="56" height="55" fill="white" transform="translate(2 3.39648)"/>
</clipPath>
</defs>
</svg>
