<svg width="60" height="60" viewBox="0 0 60 60" fill="none" xmlns="http://www.w3.org/2000/svg">
<g clip-path="url(#clip0_1064_3603)">
<g clip-path="url(#clip1_1064_3603)">
<path fill-rule="evenodd" clip-rule="evenodd" d="M27.8675 30.937V30.3637C27.8675 26.6044 25.6244 23.3517 22.4258 21.9035C20.985 23.1216 19.126 23.8535 17.1079 23.8535C15.0898 23.8535 13.2295 23.1216 11.7899 21.9035C8.5913 23.3517 6.34818 26.6056 6.34818 30.3637V30.937H27.8675ZM28.863 0.396484H52.2744C53.145 0.396484 53.8566 1.1176 53.8566 1.99723V17.5744C53.8566 18.4553 53.145 19.1752 52.2744 19.1752H36.84L31.813 25.3898C31.6481 25.5937 31.4148 25.7128 31.1639 25.6401C30.9129 25.5662 30.7468 25.3434 30.7468 25.0787V19.1764H28.863C27.9924 19.1764 27.2808 18.4564 27.2808 17.5756V1.99723C27.2808 1.1176 27.9924 0.396484 28.863 0.396484ZM38.7603 3.32384C38.5659 3.32384 38.4069 3.48475 38.4069 3.68141V7.60044H34.5333C34.3389 7.60044 34.1798 7.76135 34.1798 7.95802V11.6148C34.1798 11.8115 34.3389 11.9724 34.5333 11.9724H38.4069V15.8914C38.4069 16.0881 38.5659 16.249 38.7603 16.249H42.3747C42.5691 16.249 42.7282 16.0881 42.7282 15.8914V11.9724H46.6018C46.7962 11.9724 46.9552 11.8115 46.9552 11.6148V7.95802C46.9552 7.76135 46.7962 7.60044 46.6018 7.60044H42.7282V3.68141C42.7282 3.48475 42.5691 3.32384 42.3747 3.32384H38.7603ZM56.4178 4.58966H55.6238V17.5744C55.6238 19.4422 54.1193 20.9631 52.2744 20.9631H37.6776L35.7326 23.3683H48.442L53.469 29.583C53.6339 29.7868 53.8672 29.906 54.1181 29.8333C54.3691 29.7594 54.5352 29.5365 54.5352 29.2719V23.3695H56.419C57.2896 23.3695 58.0012 22.6496 58.0012 21.7688V6.1904C58.0012 5.30958 57.2896 4.58966 56.419 4.58966H56.4178ZM3.68212 32.7249H30.5312C30.907 32.7249 31.2145 33.036 31.2145 33.4162V35.6225C31.2145 36.0027 30.907 36.3138 30.5312 36.3138H29.306V42.6607C29.306 43.041 28.9985 43.3521 28.6239 43.3521H5.59066C5.21484 43.3521 4.90736 43.041 4.90736 42.6607V36.3138H3.6833C3.30749 36.3126 3 36.0015 3 35.6213V33.415C3 33.0348 3.30749 32.7237 3.6833 32.7237L3.68212 32.7249ZM17.1067 9.11418C20.6858 9.11418 23.5863 12.0129 23.5863 15.5899C23.5863 19.1668 20.6846 22.0656 17.1067 22.0656C13.5288 22.0656 10.6271 19.1668 10.6271 15.5899C10.6271 12.0141 13.5288 9.11418 17.1067 9.11418ZM45.73 32.9299C49.3091 32.9299 52.2096 35.8287 52.2096 39.4056C52.2096 42.9826 49.3079 45.8813 45.73 45.8813C42.1521 45.8813 39.2504 42.9826 39.2504 39.4056C39.2504 35.8287 42.1521 32.9299 45.73 32.9299ZM35.5252 59.3965H55.9348C56.2399 59.3965 56.4897 59.1438 56.4897 58.8351V54.1795C56.4897 50.4213 54.2466 47.1674 51.0492 45.7192C49.613 46.935 47.7575 47.668 45.73 47.668C43.7025 47.668 41.847 46.935 40.4108 45.7192C37.2135 47.1674 34.9703 50.4213 34.9703 54.1795V58.8351C34.9703 59.1438 35.2201 59.3965 35.5252 59.3965Z" fill="#FFA827"/>
</g>
</g>
<defs>
<clipPath id="clip0_1064_3603">
<rect width="60" height="60" fill="white"/>
</clipPath>
<clipPath id="clip1_1064_3603">
<rect width="55" height="59" fill="white" transform="translate(3 0.396484)"/>
</clipPath>
</defs>
</svg>
