<svg width="60" height="60" viewBox="0 0 60 60" fill="none" xmlns="http://www.w3.org/2000/svg">
<g clip-path="url(#clip0_1064_3604)">
<g clip-path="url(#clip1_1064_3604)">
<path d="M20.7079 36.7324L15.3931 35.6768C15.4885 35.1966 15.5827 33.2773 15.7724 30.3011C12.7357 30.0128 10.2679 29.5326 9.79318 29.4373C8.27483 29.149 7.22997 27.6132 7.51504 26.0775C7.80012 24.5418 9.31847 23.485 10.8368 23.7733C11.7862 23.9651 13.3046 24.1569 15.2022 24.3487C14.3482 22.9083 12.8299 21.8527 10.931 21.6609C7.79889 21.2773 4.95183 23.5815 4.66675 26.7495C4.38168 29.342 4.09783 32.7018 4.09783 33.9492V34.3329C4.0024 36.1569 4.76219 38.0763 6.37597 39.3249H14.1586C15.0126 39.3249 15.7724 40.1887 15.7724 41.2455V41.5338L17.0057 41.7257L15.4873 49.9822C15.2022 51.518 16.2471 53.0537 17.7655 53.342C19.1896 53.6304 20.8022 52.6701 21.0872 51.0378L23.1757 39.9981C23.2712 39.2296 23.1757 38.4624 22.701 37.7904C22.2263 37.1185 21.4677 36.9266 20.7079 36.7348V36.7324Z" fill="#FFA827"/>
<path d="M23.8376 25.3088C20.4204 26.2691 13.8722 25.5972 10.6447 24.9252C9.60102 24.7334 8.65159 25.4054 8.46195 26.4609C8.27231 27.5165 8.93667 28.4768 9.98031 28.6686C14.0619 29.4371 20.7054 30.2044 24.8812 29.0523C25.9248 28.7639 26.495 27.7083 26.2099 26.6528C25.9248 25.5972 24.8812 25.0205 23.8376 25.3088Z" fill="#FFA827"/>
<path d="M51.4532 17.0754C54.3506 16.5997 56.3182 13.8384 55.8478 10.9078C55.3775 7.97725 52.6475 5.9872 49.7501 6.4629C46.8527 6.93859 44.8852 9.6999 45.3555 12.6304C45.8258 15.561 48.5559 17.5511 51.4532 17.0754Z" fill="#FFA827"/>
<path d="M15.0675 19.3188C17.143 17.2194 17.143 13.8157 15.0675 11.7164C12.9919 9.61706 9.62671 9.61706 7.55113 11.7164C5.47556 13.8157 5.47556 17.2194 7.55113 19.3188C9.62671 21.4181 12.9919 21.4181 15.0675 19.3188Z" fill="#FFA827"/>
<path d="M45.1922 41.0531V37.5967H53.7347C55.1588 37.5967 55.6335 36.4446 55.4427 35.1007C55.4427 32.6047 55.3472 22.8124 56.0116 20.3163C54.9679 18.7806 53.2587 17.8203 51.2657 17.8203C48.4186 17.8203 46.1405 19.8362 45.6657 22.6206C48.3232 22.2369 49.2726 21.2766 49.4622 21.0848C50.3162 19.7409 52.0254 19.3573 53.2587 20.2211C54.5874 21.0848 55.0622 22.8136 54.2082 24.1575C53.8289 24.8295 51.7404 27.8057 45.4761 28.4776V33.3732C45.4761 33.7568 45.4761 34.1416 45.5715 34.5253L43.0083 35.2938C42.344 35.4856 41.6796 35.9657 41.3945 36.5412V49.0213C42.1543 48.733 42.8187 48.1575 43.1025 47.389L45.6657 41.0531H45.191H45.1922Z" fill="#FFA827"/>
<path d="M35.0362 24.733C34.8465 25.7886 35.5109 26.7489 36.5545 26.9407C41.7752 27.8044 50.7911 28.1881 53.4485 23.5809C54.0174 22.7171 53.7336 21.4685 52.7841 20.893C51.8347 20.3176 50.7911 20.6047 50.2209 21.565C47.4681 24.4446 41.1096 23.8692 37.2177 23.1972C36.174 23.0054 35.2246 23.6774 35.0349 24.733H35.0362Z" fill="#FFA827"/>
<path d="M41.9679 32.5091C41.9679 32.029 41.5886 31.5488 41.0185 31.5488H20.9924C20.5177 31.5488 20.043 31.9325 20.043 32.5091C20.043 32.9893 20.4223 33.4694 20.9924 33.4694H24.3142V54.2049H40.5438V33.4694H41.0185C41.5874 33.4694 41.9679 33.0858 41.9679 32.5091Z" fill="#FFA827"/>
<path d="M59.1455 51.6124V49.8849C59.1455 49.0211 58.4812 48.2526 57.5318 48.2526H52.9755V40.0728V40.0926H55.918C57.4363 40.0926 58.1007 37.1164 57.911 35.3889L57.4363 18.877C57.4363 18.877 56.8674 19.6454 56.5823 21.6613L56.4869 24.0608C56.4869 24.1574 56.3915 35.9643 56.3915 36.0608C56.296 37.1164 55.7271 38.5569 53.734 38.5569H46.0456V40.1891H51.0766V48.3516V48.3492H46.5203C45.6663 48.3492 44.9065 49.0211 44.9065 49.9814V51.709C44.5273 51.9973 44.2422 52.3809 44.2422 52.9564C44.2422 53.7248 44.9065 54.3968 45.6663 54.3968C46.4261 54.3968 47.0905 53.7248 47.0905 52.9564C47.0905 52.4762 46.8054 51.9961 46.4261 51.709V49.9814C46.4261 49.8849 46.5216 49.7896 46.6158 49.7896H51.172V51.8055C50.887 52.0938 50.6973 52.4774 50.6973 52.8611C50.6973 53.6296 51.3617 54.3015 52.1215 54.3015C52.8813 54.3015 53.5456 53.6296 53.5456 52.8611C53.5456 52.4774 53.356 52.0926 53.0709 51.8055V49.6931H57.6272C57.7226 49.6931 57.8168 49.7896 57.8168 49.8849V51.6124C57.4375 51.9008 57.1525 52.2844 57.1525 52.8598C57.1525 53.6283 57.8168 54.3003 58.5766 54.3003C59.3364 54.3003 60.0008 53.6283 60.0008 52.8598C59.8111 52.2844 59.526 51.8042 59.1468 51.6124H59.1455Z" fill="#FFA827"/>
<path d="M0.0577355 25.3684C-0.0577621 24.262 0.0312673 25.1567 0.0577355 25.3684V25.3684Z" fill="#FFA827"/>
<path d="M14.0625 40.38H3.62248C3.43284 36.6366 2.3892 23.4845 0.015625 24.8284C0.0694586 25.4088 0.0719056 25.4756 0.0596707 25.3679C0.195478 26.6488 0.609018 30.6149 1.72484 41.4356C1.72484 42.011 2.00992 42.4912 2.3892 42.4912H4.00298L3.05355 54.2028H4.4777L5.42713 42.3947H11.1225L12.0719 54.2028H13.496L12.5466 42.3947H14.1604C14.5397 42.3947 14.8248 42.011 14.8248 41.4344V41.3378C14.7293 40.8577 14.4455 40.3775 14.065 40.3775L14.0625 40.38Z" fill="#FFA827"/>
</g>
</g>
<defs>
<clipPath id="clip0_1064_3604">
<rect width="60" height="60" fill="white"/>
</clipPath>
<clipPath id="clip1_1064_3604">
<rect width="60" height="48" fill="white" transform="translate(0 6.39648)"/>
</clipPath>
</defs>
</svg>
