<svg width="24" height="24" viewBox="0 0 24 24" fill="none" xmlns="http://www.w3.org/2000/svg">
<path d="M11.7786 5.46392C11.9027 5.63114 11.9718 5.82616 11.9817 6.02838L13.4875 6.47666C12.9799 5.70247 12.3488 5.49396 12.0411 5.43866C12.0293 5.43612 12.0179 5.43298 12.0059 5.43095L11.7109 5.38184C11.7347 5.40791 11.7573 5.43521 11.7786 5.46392Z" fill="#FFA827"/>
<path d="M9.49422 5.28997C9.69411 5.21529 9.8873 5.15401 10.0718 5.11038L8.07344 4.77787C8.05767 4.77523 8.04201 4.77412 8.02625 4.77239C7.94207 4.76042 7.83254 4.7519 7.70312 4.75677L9.49422 5.28997Z" fill="#FFA827"/>
<path d="M5.96875 15.7278H8.51675V21.3719H5.96875V15.7278Z" fill="#FFA827"/>
<path d="M5.96875 22.7455C5.96875 23.4385 6.53927 23.9999 7.2426 23.9999C7.94613 23.9999 8.51665 23.4385 8.51665 22.7455V22.6401H5.96875V22.7455Z" fill="#FFA827"/>
<path d="M7.28129 13.5468H11.1859V13.7153H11.5395V12.8317L12.3727 7.97604C12.5068 8.42483 12.6005 9.0664 12.5836 9.96722C12.5771 10.3168 12.7096 10.6351 12.9566 10.8634C13.2937 11.1749 13.7542 11.2577 14.2923 11.257L14.9095 9.60184C14.6809 9.61919 14.4256 9.63552 14.2334 9.63481C14.2207 8.48155 14.038 7.64516 13.7796 7.03636L15.5259 7.55627L15.6236 7.58529V7.94895L14.0808 12.0861C14.0242 12.1138 13.9923 12.1435 13.9923 12.1743C13.9923 12.3269 14.7426 12.8218 15.6681 12.8218C16.5937 12.8218 17.3439 12.3269 17.3439 12.1743C17.3439 12.1466 17.3185 12.1199 17.2727 12.0948L17.1655 11.8073L16.9419 11.2077C17.0548 11.2364 17.1417 11.2765 17.1859 11.3338C17.3481 11.5434 17.5938 11.6536 17.8422 11.6535C18.0163 11.6535 18.192 11.5994 18.3412 11.4874C18.7034 11.2157 18.7731 10.7064 18.4973 10.3497C17.988 9.69153 17.1595 9.53081 16.3144 9.52482L15.7266 7.94844V7.61604L16.138 7.73851C16.1998 7.75687 16.2654 7.72217 16.284 7.6615C16.3027 7.60082 16.2675 7.53608 16.2058 7.51772L16.1744 7.50838C16.1589 7.51021 16.1428 7.5093 16.1269 7.50453L11.9612 6.2644C11.8706 6.76463 11.4363 7.12555 10.9185 7.12555C10.8639 7.12555 10.8087 7.12129 10.7543 7.11297C10.6648 7.11327 10.1785 7.15406 8.85549 7.96052C7.96 8.5062 7.03751 9.18674 6.43526 9.63583L6.00642 12.1348C5.98086 12.2339 5.96582 12.3371 5.96582 12.4439V13.2377L5.94212 13.2417L5.50287 13.1264L5.1612 13.1167C5.1612 13.1167 4.80974 13.2225 4.74143 13.2513C4.67312 13.2801 4.46807 13.1167 4.40955 13.059C4.35102 13.0013 4.17524 12.9629 4.17524 12.9629C4.17524 12.9629 3.80431 13.1552 3.74578 13.1359C3.68726 13.1166 3.55053 13.1263 3.55053 13.1263L3.26419 13.4435H2.86719V13.6357H5.96572V13.7151H7.28129V13.5468ZM15.1231 9.58499L15.5258 8.50499L15.6235 8.2432V11.8983C15.0156 11.901 14.4887 11.9568 14.2082 12.0389L14.3077 11.7721L14.5012 11.2531C14.7377 11.2448 14.9868 11.225 15.246 11.204C15.3302 11.1972 15.4252 11.1896 15.5258 11.1822V9.55415C15.389 9.56369 15.2543 9.57444 15.1231 9.58499ZM15.7264 11.6651V11.1687C16.0615 11.1481 16.4313 11.1375 16.72 11.1695L16.1072 9.52625C15.9798 9.52878 15.8525 9.53416 15.7264 9.54136V8.50499V8.2432L17.1435 12.0433C16.8691 11.9595 16.3395 11.902 15.7264 11.8985V11.6651ZM15.6679 12.2902C14.879 12.2902 14.2396 12.2358 14.2396 12.1688C14.2396 12.1019 14.879 12.0475 15.6679 12.0475C16.4567 12.0475 17.0962 12.1019 17.0962 12.1688C17.0962 12.2358 16.4567 12.2902 15.6679 12.2902ZM7.71559 13.2466C7.71559 13.1431 7.80081 13.0592 7.9059 13.0592C8.011 13.0592 8.09621 13.1431 8.09621 13.2466C8.09621 13.3501 8.011 13.434 7.9059 13.434C7.80081 13.434 7.71559 13.3502 7.71559 13.2466ZM9.16522 13.4341C9.06012 13.4341 8.97491 13.3502 8.97491 13.2467C8.97491 13.1432 9.06012 13.0593 9.16522 13.0593C9.27032 13.0593 9.35553 13.1432 9.35553 13.2467C9.35553 13.3502 9.27032 13.4341 9.16522 13.4341ZM9.72162 13.4341C9.61652 13.4341 9.53131 13.3502 9.53131 13.2467C9.53131 13.1432 9.61652 13.0593 9.72162 13.0593C9.82672 13.0593 9.91193 13.1432 9.91193 13.2467C9.91193 13.3502 9.82672 13.4341 9.72162 13.4341ZM10.4439 13.4341C10.2579 13.4341 10.1072 13.2857 10.1072 13.1025C10.1072 12.9194 10.2579 12.7709 10.4439 12.7709C10.6299 12.7709 10.7806 12.9194 10.7806 13.1025C10.7807 13.2856 10.6299 13.4341 10.4439 13.4341ZM9.55099 8.06087C9.57212 7.9388 9.68989 7.85662 9.81384 7.87752C9.93779 7.89832 10.0212 8.01429 10 8.13636C9.9788 8.25842 9.86114 8.34061 9.73718 8.31971C9.61312 8.29891 9.52977 8.18303 9.55099 8.06087ZM9.2187 9.29226C9.23982 9.1702 9.35759 9.08801 9.48155 9.10891C9.6055 9.12971 9.68886 9.24569 9.66773 9.36775C9.64661 9.48982 9.52884 9.57201 9.40489 9.55111C9.28093 9.5302 9.19758 9.41433 9.2187 9.29226ZM8.81871 13.1746C8.81871 13.3179 8.70073 13.4341 8.55514 13.4341C8.40955 13.4341 8.29157 13.3179 8.29157 13.1746C8.29157 13.0312 8.40955 12.915 8.55514 12.915C8.70063 12.915 8.81871 13.0312 8.81871 13.1746Z" fill="#FFA827"/>
<path d="M8.99219 15.7278H11.5402V21.3719H8.99219V15.7278Z" fill="#FFA827"/>
<path d="M8.99219 22.7455C8.99219 23.4385 9.5627 23.9999 10.266 23.9999C10.9696 23.9999 11.5401 23.4385 11.5401 22.7455V22.6401H8.99219V22.7455Z" fill="#FFA827"/>
<path d="M11.9744 3.3698C11.5491 3.25454 11.2994 2.82158 11.4165 2.40293C11.4188 2.39471 11.4221 2.3869 11.4247 2.37878L11.0993 2.2905C11.0972 2.29872 11.096 2.30704 11.0937 2.31526C10.9767 2.73401 10.537 2.97997 10.1118 2.8646C9.68654 2.74933 9.43678 2.31638 9.55393 1.89773C9.5562 1.88951 9.5595 1.8817 9.56197 1.87358L8.33016 1.53955C8.28946 1.65614 8.25752 1.77739 8.23588 1.9029C8.0226 3.14617 8.87317 4.3243 10.1356 4.53433C11.1761 4.70743 12.1712 4.16865 12.6085 3.27797C12.4258 3.3903 12.1983 3.43058 11.9744 3.3698Z" fill="#FFA827"/>
<path d="M8.42188 1.31462L9.6712 1.65342C9.85986 1.39032 10.2015 1.2578 10.5351 1.34831C10.8686 1.43872 11.0932 1.72475 11.1185 2.04589L11.5338 2.15852C11.7225 1.89542 12.0641 1.7629 12.3977 1.85341C12.5818 1.90333 12.7328 2.01302 12.8357 2.15517C12.7771 1.11382 11.9958 0.21341 10.9074 0.0322922C9.85687 -0.142636 8.85247 0.408428 8.42188 1.31462Z" fill="#FFA827"/>
<path d="M0 14.02V14.5274H0.75557V15.4236H1.31372V23.9721H1.98346V22.336H22.0165V23.9721H22.6863V15.4236H23.2444V14.5274H24V14.02H0ZM22.0165 21.6765H1.98346V15.4236H22.0165V21.6765Z" fill="#FFA827"/>
<path d="M8.7366 7.7623C10.2599 6.83378 10.7458 6.87487 10.7965 6.88269C11.2466 6.95158 11.6677 6.6483 11.7378 6.2054C11.8077 5.76239 11.4997 5.3474 11.0499 5.2786C9.93379 5.10702 8.31714 5.99384 6.25547 7.46175L6.25578 7.17349C7.34962 6.40092 8.31724 5.79781 9.1606 5.42918L6.02642 4.49609C5.9816 4.50137 5.94183 4.53191 5.92792 4.57696C5.90927 4.63774 5.9445 4.70238 6.00612 4.72074L6.85113 4.97228C6.80445 4.99409 6.75716 5.01794 6.70924 5.04401C5.67228 5.60756 4.8519 6.92449 4.27077 8.95869C4.22904 9.1046 4.22018 9.23387 4.23048 9.34731C4.23481 9.55957 4.32146 9.76677 4.48632 9.92079C4.6178 10.0437 4.81965 10.1442 5.05519 10.1442C5.20655 10.1442 5.37162 10.1027 5.54101 9.99902C5.58738 9.97061 5.64075 9.93459 5.71422 9.88224C5.82374 9.80401 5.97871 9.68844 6.16851 9.54679C6.19561 9.5266 6.22435 9.50509 6.2531 9.48368C6.857 9.03276 7.80896 8.32757 8.7366 7.7623Z" fill="#FFA827"/>
<path d="M12.7751 2.76965C12.8638 2.45227 12.6744 2.12402 12.3521 2.03666C12.0298 1.9493 11.6965 2.13579 11.6078 2.45308C11.5191 2.77057 11.7085 3.09871 12.0307 3.18607C12.353 3.27353 12.6863 3.08714 12.7751 2.76965Z" fill="#FFA827"/>
<path d="M10.4849 1.53178C10.1626 1.44441 9.82932 1.63091 9.74061 1.94819C9.65189 2.26568 9.84127 2.59383 10.1635 2.68119C10.4858 2.76855 10.819 2.58216 10.9078 2.26477C10.9966 1.94748 10.8072 1.61924 10.4849 1.53178Z" fill="#FFA827"/>
<path d="M15.5455 13.3768L15.4088 13.2038L15.1843 13.2422L14.7451 13.1268L14.4034 13.1172C14.4034 13.1172 14.052 13.2229 13.9836 13.2517C13.9153 13.2806 13.7103 13.1172 13.6517 13.0595C13.5932 13.0017 13.4174 12.9634 13.4174 12.9634C13.4174 12.9634 13.0465 13.1557 12.988 13.1364C12.9294 13.1171 12.7927 13.1267 12.7927 13.1267L12.5064 13.4439H12.1094V13.6362H16.014V13.4439H15.6138L15.5455 13.3768Z" fill="#FFA827"/>
<path d="M17.8548 13.0215C17.8314 13.012 17.809 13.0033 17.7853 12.9935C17.6128 12.9215 17.4558 12.919 17.3184 12.9857C17.0859 13.0989 16.9894 13.3742 16.9683 13.4439H16.6328V13.6362H20.5374V13.4439H20.1042C19.894 13.166 19.7327 12.9698 19.349 13.063C19.2694 13.0822 19.1981 13.0968 19.1291 13.1063C19.0785 13.0583 19.0202 13.0096 18.9482 12.9676C18.8349 12.9013 18.6686 12.9549 18.504 13.0488C18.4374 13.0312 18.3655 13.0104 18.285 12.9854C18.1223 12.9345 17.9783 12.9604 17.8548 13.0215ZM17.3641 13.0766C17.4733 13.0235 17.6016 13.0271 17.745 13.0868C17.7453 13.0869 17.7456 13.087 17.7459 13.0872C17.5965 13.1956 17.4885 13.3468 17.4293 13.4439H17.0768C17.1073 13.3578 17.1935 13.1597 17.3641 13.0766ZM18.5196 13.1582C18.7447 13.215 18.9111 13.2313 19.0921 13.2126C19.1116 13.2322 19.1301 13.2516 19.1478 13.2705C19.2417 13.3699 19.3229 13.4553 19.4447 13.4311C19.4777 13.4244 19.5148 13.4306 19.5521 13.4439H19.2089C18.9655 13.3998 18.6999 13.3291 18.4092 13.2306C18.4463 13.2044 18.4833 13.1805 18.5196 13.1582ZM18.7585 13.4438H18.1423C18.1951 13.397 18.2516 13.3494 18.3103 13.304C18.4665 13.3585 18.6153 13.4045 18.7585 13.4438ZM17.9909 13.4438H17.5521C17.6195 13.3446 17.7257 13.2147 17.8625 13.1343C17.9767 13.1805 18.0888 13.2244 18.1967 13.2637C18.1077 13.3357 18.0347 13.4025 17.9909 13.4438ZM19.3734 13.1614C19.6677 13.0904 19.7954 13.211 19.9751 13.4438H19.7591C19.6766 13.3819 19.5466 13.3064 19.4239 13.3317C19.3619 13.3442 19.3123 13.2958 19.2233 13.2014C19.2212 13.1993 19.2188 13.1968 19.2168 13.1947C19.2665 13.1858 19.3182 13.1748 19.3734 13.1614ZM18.8956 13.0549C18.9293 13.0746 18.9591 13.0963 18.9873 13.1185C18.8865 13.1212 18.782 13.1109 18.6562 13.0849C18.7553 13.0403 18.8413 13.0231 18.8956 13.0549ZM18.2914 13.1898C18.1956 13.1557 18.0961 13.1178 17.995 13.078C18.0745 13.056 18.1611 13.0531 18.254 13.0822C18.3009 13.0968 18.3446 13.1098 18.3869 13.122C18.3544 13.144 18.3223 13.1667 18.2914 13.1898Z" fill="#FFA827"/>
</svg>
