<svg width="100" height="100" viewBox="0 0 100 100" fill="none" xmlns="http://www.w3.org/2000/svg">
<path d="M67.9516 29.497C64.4347 12.746 56.9343 2.14844 49.9973 2.14844C43.0602 2.14844 35.5598 12.746 32.043 29.497H67.9516Z" fill="#4A4A4A"/>
<path d="M29.999 50.0024C29.9982 54.5758 30.2955 59.1441 30.8891 63.6767H69.1112C69.7047 59.1441 70.002 54.5758 70.0012 50.0024C70.002 45.4291 69.7047 40.8608 69.1112 36.3281H30.8891C30.2955 40.8608 29.9982 45.4291 29.999 50.0024Z" fill="#4A4A4A"/>
<path d="M32.043 70.5195C35.5598 87.2706 43.0602 97.8681 49.9973 97.8681C56.9343 97.8681 64.4347 87.2706 67.9516 70.5195H32.043Z" fill="#4A4A4A"/>
<path d="M74.78 29.4886H95.7811C92.6256 22.1242 87.8311 15.6207 81.7821 10.4996C75.7332 5.37854 68.5981 1.78253 60.9492 0C67.2729 5.7056 72.2332 16.2553 74.78 29.4886Z" fill="#4A4A4A"/>
<path d="M98.1797 36.3281H75.8451C76.3951 40.8644 76.67 45.4313 76.6685 50.0024C76.6689 54.5737 76.3928 59.1405 75.8418 63.6767H98.1763C100.607 54.731 100.611 45.2739 98.1797 36.3281Z" fill="#4A4A4A"/>
<path d="M60.9492 100.008C68.5993 98.2266 75.7357 94.631 81.7859 89.5099C87.8361 84.3888 92.6316 77.8847 95.7878 70.5195H74.7866C72.2332 83.7528 67.2729 94.3026 60.9492 100.008Z" fill="#4A4A4A"/>
<path d="M25.2189 70.5195H4.21777C7.37392 77.8847 12.1695 84.3888 18.2197 89.5099C24.2698 94.631 31.4063 98.2266 39.0563 100.008C32.726 94.3026 27.7657 83.7528 25.2189 70.5195Z" fill="#4A4A4A"/>
<path d="M39.0436 0C31.3936 1.78157 24.2572 5.37714 18.207 10.4982C12.1568 15.6193 7.36122 22.1234 4.20508 29.4886H25.2062C27.7597 16.2553 32.72 5.7056 39.0436 0Z" fill="#4A4A4A"/>
<path d="M23.3311 50.0024C23.3307 45.4312 23.6068 40.8643 24.1578 36.3281H1.82327C-0.607757 45.2739 -0.607757 54.731 1.82327 63.6767H24.1578C23.6068 59.1405 23.3307 54.5737 23.3311 50.0024Z" fill="#4A4A4A"/>
</svg>
