<svg width="100" height="78" viewBox="0 0 100 78" fill="none" xmlns="http://www.w3.org/2000/svg">
<path d="M97.9103 12.1451C96.7604 7.36449 93.3719 3.59966 89.0693 2.32172C81.2709 -4.1125e-07 50 0 50 0C50 0 18.7291 -4.1125e-07 10.9307 2.32172C6.62813 3.59945 3.23965 7.36449 2.08965 12.1451C0 20.8101 0 38.8889 0 38.8889C0 38.8889 0 56.9676 2.08965 65.6327C3.23965 70.4133 6.62813 74.1781 10.9307 75.4561C18.7291 77.7778 50 77.7778 50 77.7778C50 77.7778 81.2709 77.7778 89.0693 75.4561C93.3719 74.1781 96.7604 70.4133 97.9103 65.6327C100 56.9676 100 38.8889 100 38.8889C100 38.8889 100 20.8101 97.9103 12.1451Z" fill="#9F2C2C"/>
<path d="M39.7676 55.3108L65.9039 38.8971L39.7676 22.4824V55.3108Z" fill="white"/>
</svg>
