<svg width="72" height="72" viewBox="0 0 72 72" fill="none" xmlns="http://www.w3.org/2000/svg">
<path d="M72 36C72 16.1178 55.8823 3.05176e-05 36 3.05176e-05C16.1177 3.05176e-05 0 16.1178 0 36C0 55.8823 16.1177 72 36 72C55.8823 72 72 55.8823 72 36Z" fill="#9F2C2C"/>
<path opacity="0.5" d="M36.5542 66.4614C53.0717 66.4614 66.4619 53.0713 66.4619 36.5537C66.4619 20.0362 53.0717 6.64603 36.5542 6.64603C20.0366 6.64603 6.64648 20.0362 6.64648 36.5537C6.64648 53.0713 20.0366 66.4614 36.5542 66.4614Z" fill="white"/>
<path d="M36.5531 62.0305C50.6236 62.0305 62.03 50.6241 62.03 36.5536C62.03 22.4831 50.6236 11.0767 36.5531 11.0767C22.4826 11.0767 11.0762 22.4831 11.0762 36.5536C11.0762 50.6241 22.4826 62.0305 36.5531 62.0305Z" fill="white"/>
<path d="M34.2272 39.6408C32.4613 37.9787 31.2933 35.7804 30.9041 33.3868C30.8859 33.2443 30.9007 33.0996 30.9474 32.9638C30.9941 32.828 31.0714 32.7048 31.1733 32.6036L33.2779 30.499C33.4284 30.3486 33.5234 30.1515 33.5476 29.9401C33.5717 29.7287 33.5235 29.5154 33.4108 29.3348L30.0556 24.1187C29.9316 23.9203 29.738 23.7752 29.5127 23.7117C29.2875 23.6482 29.0466 23.6709 28.8372 23.7753L23.4472 26.3131C23.2754 26.3974 23.1337 26.5323 23.041 26.6997C22.9483 26.867 22.9092 27.0588 22.9288 27.2491C23.66 33.2642 26.4654 38.8363 30.862 43.006C35.0317 47.4023 40.6039 50.2071 46.619 50.9371C46.809 50.9565 47.0004 50.9174 47.1675 50.8249C47.3346 50.7325 47.4694 50.5911 47.5539 50.4198L50.0916 45.0308C50.1962 44.8217 50.2193 44.581 50.1562 44.3558C50.0931 44.1305 49.9485 43.9368 49.7504 43.8124L44.5376 40.4561C44.3572 40.3433 44.1439 40.2949 43.9325 40.3188C43.7211 40.3428 43.524 40.4376 43.3734 40.5879L41.2688 42.6925C41.1677 42.7944 41.0444 42.8717 40.9086 42.9184C40.7728 42.9651 40.6281 42.9799 40.4857 42.9617C38.0921 42.5726 35.8937 41.4045 34.2316 39.6386L34.2272 39.6408Z" fill="#9F2C2C"/>
<path d="M44.5741 38.2363C44.4505 38.2363 44.328 38.212 44.2138 38.1647C44.0996 38.1174 43.9958 38.048 43.9083 37.9606C43.8209 37.8731 43.7516 37.7694 43.7042 37.6551C43.6569 37.5409 43.6326 37.4185 43.6326 37.2948C43.6302 35.4236 42.8858 33.6297 41.5627 32.3065C40.2395 30.9833 38.4456 30.2389 36.5744 30.2366C36.4507 30.2366 36.3283 30.2122 36.214 30.1649C36.0998 30.1176 35.996 30.0483 35.9086 29.9608C35.8212 29.8734 35.7518 29.7696 35.7045 29.6554C35.6572 29.5411 35.6328 29.4187 35.6328 29.2951C35.6328 29.1714 35.6572 29.049 35.7045 28.9347C35.7518 28.8205 35.8212 28.7167 35.9086 28.6293C35.996 28.5419 36.0998 28.4725 36.214 28.4252C36.3283 28.3779 36.4507 28.3535 36.5744 28.3535C38.9449 28.3562 41.2176 29.299 42.8939 30.9753C44.5701 32.6515 45.513 34.9242 45.5156 37.2948C45.5156 37.5445 45.4164 37.784 45.2399 37.9606C45.0633 38.1371 44.8238 38.2363 44.5741 38.2363Z" fill="#9F2C2C"/>
<path d="M49.2796 38.2363C49.0299 38.2363 48.7904 38.1371 48.6138 37.9605C48.4372 37.7839 48.338 37.5444 48.338 37.2947C48.3342 34.176 47.0936 31.186 44.8883 28.9807C42.683 26.7754 39.6931 25.5348 36.5744 25.531C36.3246 25.531 36.0852 25.4318 35.9086 25.2553C35.732 25.0787 35.6328 24.8392 35.6328 24.5895C35.6328 24.3398 35.732 24.1003 35.9086 23.9237C36.0852 23.7471 36.3246 23.6479 36.5744 23.6479C40.1924 23.6521 43.6612 25.0912 46.2195 27.6495C48.7779 30.2079 50.217 33.6766 50.2211 37.2947C50.2211 37.5444 50.1219 37.7839 49.9453 37.9605C49.7688 38.1371 49.5293 38.2363 49.2796 38.2363Z" fill="#9F2C2C"/>
</svg>
