<svg width="72" height="72" viewBox="0 0 72 72" fill="none" xmlns="http://www.w3.org/2000/svg">
<path opacity="0.5" d="M36 72C55.8823 72 72 55.8823 72 36C72 16.1177 55.8823 0 36 0C16.1177 0 0 16.1177 0 36C0 55.8823 16.1177 72 36 72Z" fill="#FFA827"/>
<path d="M36 66C52.5685 66 66 52.5685 66 36C66 19.4315 52.5685 6 36 6C19.4315 6 6 19.4315 6 36C6 52.5685 19.4315 66 36 66Z" fill="#FFA827"/>
<path d="M24.5265 54.358C24.3242 54.3578 24.1303 54.2773 23.9873 54.1343C23.8442 53.9912 23.7637 53.7973 23.7635 53.595V48.333C21.8582 46.7233 20.3247 44.7195 19.2686 42.4598C18.2126 40.2001 17.6592 37.7383 17.6465 35.244C17.751 30.5419 19.6918 26.0674 23.0536 22.7781C26.4154 19.4888 30.9312 17.646 35.6345 17.644C35.7555 17.644 35.8765 17.644 35.9995 17.644C36.1225 17.644 36.2435 17.644 36.3645 17.644C41.0681 17.6455 45.5844 19.4881 48.9466 22.7774C52.3089 26.0668 54.25 30.5415 54.3545 35.244C54.2474 39.9444 52.3054 44.4164 48.9439 47.7035C45.5824 50.9907 41.0681 52.8321 36.3665 52.834C36.2395 52.834 36.1185 52.834 35.9975 52.834H35.9515C33.6413 52.8346 31.3506 52.4123 29.1925 51.588L24.9335 54.244C24.8111 54.3192 24.6701 54.3586 24.5265 54.358ZM33.6995 29.884C33.5991 29.8841 33.4998 29.9041 33.4073 29.9429C33.3148 29.9817 33.2309 30.0385 33.1605 30.11L23.9875 39.287C23.8811 39.3938 23.8087 39.5297 23.7795 39.6776C23.7503 39.8254 23.7657 39.9787 23.8236 40.1178C23.8815 40.257 23.9794 40.3758 24.1049 40.4594C24.2303 40.5429 24.3778 40.5873 24.5285 40.587C24.6567 40.5855 24.7824 40.551 24.8935 40.487L32.8465 36.162L37.7985 40.407C37.9455 40.5321 38.1343 40.597 38.3271 40.5888C38.5199 40.5807 38.7026 40.5 38.8385 40.363L48.0155 31.186C48.1432 31.0551 48.2198 30.8828 48.2313 30.7002C48.2429 30.5177 48.1887 30.337 48.0785 30.191C47.9704 30.0421 47.8114 29.9381 47.6317 29.8986C47.452 29.8592 47.264 29.8871 47.1035 29.977L39.1465 34.311L34.2025 30.071C34.0629 29.9501 33.8842 29.8837 33.6995 29.884Z" fill="white"/>
</svg>
