<svg width="64" height="60" viewBox="0 0 64 60" fill="none" xmlns="http://www.w3.org/2000/svg">
<path d="M51.4124 35.1641C48.972 35.164 46.5864 35.8923 44.5572 37.2568C42.528 38.6213 40.9465 40.5607 40.0126 42.8298C39.0786 45.0989 38.8342 47.5957 39.3103 50.0046C39.7864 52.4135 40.9616 54.6262 42.6872 56.3629C44.4128 58.0996 46.6114 59.2823 49.005 59.7615C51.3985 60.2407 53.8795 59.9948 56.1341 59.0549C58.3888 58.115 60.3159 56.5234 61.6717 54.4812C63.0276 52.4391 63.7512 50.0382 63.7512 47.5821C63.7487 44.2895 62.4479 41.1324 60.1345 38.8042C57.821 36.4759 54.6841 35.1667 51.4124 35.1641ZM57.5817 48.41C57.5802 48.9584 57.363 49.4839 56.9777 49.8717C56.5924 50.2595 56.0703 50.4781 55.5254 50.4797H54.2914V51.7214C54.2898 52.2698 54.0727 52.7953 53.6874 53.1831C53.3021 53.5709 52.7799 53.7895 52.235 53.7911H50.5897C50.0447 53.7895 49.5226 53.5709 49.1373 53.1831C48.752 52.7953 48.5349 52.2698 48.5333 51.7214V50.4797H47.2993C46.7545 50.4779 46.2325 50.2592 45.8474 49.8714C45.4622 49.4837 45.2451 48.9583 45.2435 48.41V46.7542C45.2451 46.2058 45.4623 45.6803 45.8476 45.2925C46.2329 44.9047 46.755 44.6861 47.2999 44.6845H48.5339V43.4434C48.5355 42.895 48.7526 42.3695 49.1379 41.9817C49.5232 41.5939 50.0453 41.3753 50.5903 41.3737H52.2356C52.7804 41.3755 53.3024 41.5941 53.6876 41.9819C54.0728 42.3697 54.2898 42.8951 54.2914 43.4434V44.6851H55.5254C56.0703 44.6867 56.5924 44.9053 56.9777 45.2931C57.363 45.6809 57.5802 46.2064 57.5817 46.7548V48.41Z" fill="#F09D22"/>
<path d="M47.299 4.11911H45.2433V2.04937C45.2379 1.504 45.0189 0.982782 44.6338 0.599028C44.2488 0.215274 43.7287 0 43.1868 0C42.6449 0 42.1248 0.215274 41.7398 0.599028C41.3547 0.982782 41.1357 1.504 41.1303 2.04937V4.11911H28.7907V2.04937C28.7854 1.504 28.5664 0.982782 28.1813 0.599028C27.7962 0.215274 27.2762 0 26.7343 0C26.1923 0 25.6723 0.215274 25.2872 0.599028C24.9021 0.982782 24.6831 1.504 24.6778 2.04937V4.11911H12.3388V2.04937C12.3335 1.504 12.1145 0.982782 11.7294 0.599028C11.3443 0.215274 10.8243 0 10.2823 0C9.74041 0 9.22038 0.215274 8.8353 0.599028C8.45021 0.982782 8.2312 1.504 8.22587 2.04937V4.11911H6.1695C4.53474 4.12387 2.96828 4.77953 1.8123 5.94288C0.656324 7.10622 0.00478304 8.68269 0 10.3279L0 12.3977H53.4685V10.3279C53.4638 8.68269 52.8122 7.10622 51.6562 5.94288C50.5003 4.77953 48.9338 4.12387 47.299 4.11911Z" fill="#F09D22"/>
<path d="M0 16.5361V47.5816C0.00478278 49.2269 0.656318 50.8034 1.81229 51.9668C2.96826 53.1301 4.53472 53.7858 6.1695 53.7907H36.1735C34.8782 50.5977 34.6121 47.0758 35.4128 43.7224C36.2135 40.369 38.0406 37.3535 40.6361 35.1014C40.1485 34.9802 39.7218 34.6836 39.4367 34.2675C39.1516 33.8513 39.0277 33.3446 39.0885 32.8428C39.1492 32.3411 39.3904 31.8791 39.7665 31.544C40.1425 31.209 40.6275 31.0241 41.1297 31.0243H43.1861C43.5924 31.0254 43.9892 31.1479 44.3262 31.3764C44.6632 31.6049 44.9251 31.9289 45.0787 32.3075C47.0837 31.4581 49.2374 31.0218 51.4128 31.0243C52.1001 31.0238 52.7868 31.0654 53.4691 31.1486V16.5361H0ZM12.3388 43.443H10.2824C10.0107 43.4456 9.74107 43.3941 9.48922 43.2913C9.23738 43.1885 9.00827 43.0365 8.81515 42.844C8.62204 42.6516 8.46874 42.4225 8.36411 42.1701C8.25949 41.9176 8.20562 41.6468 8.20562 41.3733C8.20562 41.0998 8.25949 40.829 8.36411 40.5766C8.46874 40.3241 8.62204 40.0951 8.81515 39.9026C9.00827 39.7101 9.23738 39.5581 9.48922 39.4553C9.74107 39.3525 10.0107 39.301 10.2824 39.3037H12.3388C12.6106 39.301 12.8802 39.3525 13.132 39.4553C13.3839 39.5581 13.613 39.7101 13.8061 39.9026C13.9992 40.0951 14.1525 40.3241 14.2571 40.5766C14.3617 40.829 14.4156 41.0998 14.4156 41.3733C14.4156 41.6468 14.3617 41.9176 14.2571 42.1701C14.1525 42.4225 13.9992 42.6516 13.8061 42.844C13.613 43.0365 13.3839 43.1885 13.132 43.2913C12.8802 43.3941 12.6106 43.4456 12.3388 43.443ZM12.3388 35.1642H10.2824C10.0107 35.1669 9.74107 35.1153 9.48922 35.0125C9.23738 34.9097 9.00827 34.7577 8.81515 34.5653C8.62204 34.3728 8.46874 34.1437 8.36411 33.8913C8.25949 33.6389 8.20562 33.3681 8.20562 33.0946C8.20562 32.821 8.25949 32.5502 8.36411 32.2978C8.46874 32.0454 8.62204 31.8163 8.81515 31.6238C9.00827 31.4314 9.23738 31.2794 9.48922 31.1766C9.74107 31.0738 10.0107 31.0222 10.2824 31.0249H12.3388C12.6106 31.0222 12.8802 31.0738 13.132 31.1766C13.3839 31.2794 13.613 31.4314 13.8061 31.6238C13.9992 31.8163 14.1525 32.0454 14.2571 32.2978C14.3617 32.5502 14.4156 32.821 14.4156 33.0946C14.4156 33.3681 14.3617 33.6389 14.2571 33.8913C14.1525 34.1437 13.9992 34.3728 13.8061 34.5653C13.613 34.7577 13.3839 34.9097 13.132 35.0125C12.8802 35.1153 12.6106 35.1669 12.3388 35.1642ZM12.3388 26.8856H10.2824C10.0107 26.8883 9.74107 26.8368 9.48922 26.734C9.23738 26.6312 9.00827 26.4792 8.81515 26.2867C8.62204 26.0943 8.46874 25.8652 8.36411 25.6128C8.25949 25.3603 8.20562 25.0895 8.20562 24.816C8.20562 24.5425 8.25949 24.2717 8.36411 24.0192C8.46874 23.7668 8.62204 23.5377 8.81515 23.3453C9.00827 23.1528 9.23738 23.0008 9.48922 22.898C9.74107 22.7952 10.0107 22.7437 10.2824 22.7464H12.3388C12.6106 22.7437 12.8802 22.7952 13.132 22.898C13.3839 23.0008 13.613 23.1528 13.8061 23.3453C13.9992 23.5377 14.1525 23.7668 14.2571 24.0192C14.3617 24.2717 14.4156 24.5425 14.4156 24.816C14.4156 25.0895 14.3617 25.3603 14.2571 25.6128C14.1525 25.8652 13.9992 26.0943 13.8061 26.2867C13.613 26.4792 13.3839 26.6312 13.132 26.734C12.8802 26.8368 12.6106 26.8883 12.3388 26.8856ZM22.6212 43.443H20.5649C20.2931 43.4456 20.0235 43.3941 19.7717 43.2913C19.5198 43.1885 19.2907 43.0365 19.0976 42.844C18.9045 42.6516 18.7512 42.4225 18.6465 42.1701C18.5419 41.9176 18.4881 41.6468 18.4881 41.3733C18.4881 41.0998 18.5419 40.829 18.6465 40.5766C18.7512 40.3241 18.9045 40.0951 19.0976 39.9026C19.2907 39.7101 19.5198 39.5581 19.7717 39.4553C20.0235 39.3525 20.2931 39.301 20.5649 39.3037H22.6212C22.893 39.301 23.1626 39.3525 23.4144 39.4553C23.6663 39.5581 23.8954 39.7101 24.0885 39.9026C24.2816 40.0951 24.4349 40.3241 24.5396 40.5766C24.6442 40.829 24.698 41.0998 24.698 41.3733C24.698 41.6468 24.6442 41.9176 24.5396 42.1701C24.4349 42.4225 24.2816 42.6516 24.0885 42.844C23.8954 43.0365 23.6663 43.1885 23.4144 43.2913C23.1626 43.3941 22.893 43.4456 22.6212 43.443ZM22.6212 35.1642H20.5649C20.2931 35.1669 20.0235 35.1153 19.7717 35.0125C19.5198 34.9097 19.2907 34.7577 19.0976 34.5653C18.9045 34.3728 18.7512 34.1437 18.6465 33.8913C18.5419 33.6389 18.4881 33.3681 18.4881 33.0946C18.4881 32.821 18.5419 32.5502 18.6465 32.2978C18.7512 32.0454 18.9045 31.8163 19.0976 31.6238C19.2907 31.4314 19.5198 31.2794 19.7717 31.1766C20.0235 31.0738 20.2931 31.0222 20.5649 31.0249H22.6212C22.893 31.0222 23.1626 31.0738 23.4144 31.1766C23.6663 31.2794 23.8954 31.4314 24.0885 31.6238C24.2816 31.8163 24.4349 32.0454 24.5396 32.2978C24.6442 32.5502 24.698 32.821 24.698 33.0946C24.698 33.3681 24.6442 33.6389 24.5396 33.8913C24.4349 34.1437 24.2816 34.3728 24.0885 34.5653C23.8954 34.7577 23.6663 34.9097 23.4144 35.0125C23.1626 35.1153 22.893 35.1669 22.6212 35.1642ZM22.6212 26.8856H20.5649C20.2931 26.8883 20.0235 26.8368 19.7717 26.734C19.5198 26.6312 19.2907 26.4792 19.0976 26.2867C18.9045 26.0943 18.7512 25.8652 18.6465 25.6128C18.5419 25.3603 18.4881 25.0895 18.4881 24.816C18.4881 24.5425 18.5419 24.2717 18.6465 24.0192C18.7512 23.7668 18.9045 23.5377 19.0976 23.3453C19.2907 23.1528 19.5198 23.0008 19.7717 22.898C20.0235 22.7952 20.2931 22.7437 20.5649 22.7464H22.6212C22.893 22.7437 23.1626 22.7952 23.4144 22.898C23.6663 23.0008 23.8954 23.1528 24.0885 23.3453C24.2816 23.5377 24.4349 23.7668 24.5396 24.0192C24.6442 24.2717 24.698 24.5425 24.698 24.816C24.698 25.0895 24.6442 25.3603 24.5396 25.6128C24.4349 25.8652 24.2816 26.0943 24.0885 26.2867C23.8954 26.4792 23.6663 26.6312 23.4144 26.734C23.1626 26.8368 22.893 26.8883 22.6212 26.8856ZM32.9037 43.443H30.8473C30.5755 43.4456 30.3059 43.3941 30.0541 43.2913C29.8022 43.1885 29.5731 43.0365 29.38 42.844C29.1869 42.6516 29.0336 42.4225 28.929 42.1701C28.8244 41.9176 28.7705 41.6468 28.7705 41.3733C28.7705 41.0998 28.8244 40.829 28.929 40.5766C29.0336 40.3241 29.1869 40.0951 29.38 39.9026C29.5731 39.7101 29.8022 39.5581 30.0541 39.4553C30.3059 39.3525 30.5755 39.301 30.8473 39.3037H32.9037C33.1754 39.301 33.445 39.3525 33.6969 39.4553C33.9487 39.5581 34.1778 39.7101 34.3709 39.9026C34.5641 40.0951 34.7174 40.3241 34.822 40.5766C34.9266 40.829 34.9805 41.0998 34.9805 41.3733C34.9805 41.6468 34.9266 41.9176 34.822 42.1701C34.7174 42.4225 34.5641 42.6516 34.3709 42.844C34.1778 43.0365 33.9487 43.1885 33.6969 43.2913C33.445 43.3941 33.1754 43.4456 32.9037 43.443ZM32.9037 35.1642H30.8473C30.5755 35.1669 30.3059 35.1153 30.0541 35.0125C29.8022 34.9097 29.5731 34.7577 29.38 34.5653C29.1869 34.3728 29.0336 34.1437 28.929 33.8913C28.8244 33.6389 28.7705 33.3681 28.7705 33.0946C28.7705 32.821 28.8244 32.5502 28.929 32.2978C29.0336 32.0454 29.1869 31.8163 29.38 31.6238C29.5731 31.4314 29.8022 31.2794 30.0541 31.1766C30.3059 31.0738 30.5755 31.0222 30.8473 31.0249H32.9037C33.1754 31.0222 33.445 31.0738 33.6969 31.1766C33.9487 31.2794 34.1778 31.4314 34.3709 31.6238C34.5641 31.8163 34.7174 32.0454 34.822 32.2978C34.9266 32.5502 34.9805 32.821 34.9805 33.0946C34.9805 33.3681 34.9266 33.6389 34.822 33.8913C34.7174 34.1437 34.5641 34.3728 34.3709 34.5653C34.1778 34.7577 33.9487 34.9097 33.6969 35.0125C33.445 35.1153 33.1754 35.1669 32.9037 35.1642ZM32.9037 26.8856H30.8473C30.5755 26.8883 30.3059 26.8368 30.0541 26.734C29.8022 26.6312 29.5731 26.4792 29.38 26.2867C29.1869 26.0943 29.0336 25.8652 28.929 25.6128C28.8244 25.3603 28.7705 25.0895 28.7705 24.816C28.7705 24.5425 28.8244 24.2717 28.929 24.0192C29.0336 23.7668 29.1869 23.5377 29.38 23.3453C29.5731 23.1528 29.8022 23.0008 30.0541 22.898C30.3059 22.7952 30.5755 22.7437 30.8473 22.7464H32.9037C33.1754 22.7437 33.445 22.7952 33.6969 22.898C33.9487 23.0008 34.1778 23.1528 34.3709 23.3453C34.5641 23.5377 34.7174 23.7668 34.822 24.0192C34.9266 24.2717 34.9805 24.5425 34.9805 24.816C34.9805 25.0895 34.9266 25.3603 34.822 25.6128C34.7174 25.8652 34.5641 26.0943 34.3709 26.2867C34.1778 26.4792 33.9487 26.6312 33.6969 26.734C33.445 26.8368 33.1754 26.8883 32.9037 26.8856ZM43.1861 26.8856H41.1297C40.858 26.8883 40.5884 26.8368 40.3365 26.734C40.0847 26.6312 39.8556 26.4792 39.6625 26.2867C39.4693 26.0943 39.316 25.8652 39.2114 25.6128C39.1068 25.3603 39.0529 25.0895 39.0529 24.816C39.0529 24.5425 39.1068 24.2717 39.2114 24.0192C39.316 23.7668 39.4693 23.5377 39.6625 23.3453C39.8556 23.1528 40.0847 23.0008 40.3365 22.898C40.5884 22.7952 40.858 22.7437 41.1297 22.7464H43.1861C43.4579 22.7437 43.7275 22.7952 43.9793 22.898C44.2312 23.0008 44.4603 23.1528 44.6534 23.3453C44.8465 23.5377 44.9998 23.7668 45.1044 24.0192C45.209 24.2717 45.2629 24.5425 45.2629 24.816C45.2629 25.0895 45.209 25.3603 45.1044 25.6128C44.9998 25.8652 44.8465 26.0943 44.6534 26.2867C44.4603 26.4792 44.2312 26.6312 43.9793 26.734C43.7275 26.8368 43.4579 26.8883 43.1861 26.8856Z" fill="#F09D22"/>
</svg>
