<svg width="72" height="72" viewBox="0 0 72 72" fill="none" xmlns="http://www.w3.org/2000/svg">
<path opacity="0.5" d="M36 72C55.8823 72 72 55.8823 72 36C72 16.1177 55.8823 0 36 0C16.1177 0 0 16.1177 0 36C0 55.8823 16.1177 72 36 72Z" fill="#FFA827"/>
<path d="M36 66C52.5685 66 66 52.5685 66 36C66 19.4315 52.5685 6 36 6C19.4315 6 6 19.4315 6 36C6 52.5685 19.4315 66 36 66Z" fill="#FFA827"/>
<path d="M29.25 22.4286C29.25 21.6396 28.5784 21 27.75 21C26.9216 21 26.25 21.6396 26.25 22.4286V23.8572C26.25 24.6462 26.9216 25.2858 27.75 25.2858C28.5784 25.2858 29.25 24.6462 29.25 23.8572V22.4286Z" fill="white"/>
<path d="M45.749 22.4286C45.749 21.6396 45.0775 21 44.249 21C43.4206 21 42.749 21.6396 42.749 22.4286V23.8572C42.749 24.6462 43.4206 25.2858 44.249 25.2858C45.0775 25.2858 45.749 24.6462 45.749 23.8572V22.4286Z" fill="white"/>
<path d="M21 31.7141V48.1429C21 49.7208 22.3432 51.0001 24 51.0001H48C49.6567 51.0001 51 49.7208 51 48.1429V31.7141H21ZM30 46C30 46.7893 29.3287 47.4286 28.5 47.4286H27C26.1712 47.4286 25.5 46.7893 25.5 46V44.5714C25.5 43.7821 26.1712 43.1428 27 43.1428H28.5C29.3287 43.1428 30 43.7821 30 44.5714V46ZM30 38.1427C30 38.932 29.3287 39.5713 28.5 39.5713H27C26.1712 39.5713 25.5 38.932 25.5 38.1427V36.7142C25.5 35.9249 26.1712 35.2856 27 35.2856H28.5C29.3287 35.2856 30 35.9249 30 36.7142V38.1427ZM38.25 46C38.25 46.7893 37.5788 47.4286 36.75 47.4286H35.25C34.4213 47.4286 33.75 46.7893 33.75 46V44.5714C33.75 43.7821 34.4213 43.1428 35.25 43.1428H36.75C37.5788 43.1428 38.25 43.7821 38.25 44.5714V46ZM38.25 38.1427C38.25 38.932 37.5788 39.5713 36.75 39.5713H35.25C34.4213 39.5713 33.75 38.932 33.75 38.1427V36.7142C33.75 35.9249 34.4213 35.2856 35.25 35.2856H36.75C37.5788 35.2856 38.25 35.9249 38.25 36.7142V38.1427ZM46.5 46C46.5 46.7893 45.8288 47.4286 45 47.4286H43.5C42.6712 47.4286 42 46.7893 42 46V44.5714C42 43.7821 42.6712 43.1428 43.5 43.1428H45C45.8288 43.1428 46.5 43.7821 46.5 44.5714V46ZM46.5 38.1427C46.5 38.932 45.8288 39.5713 45 39.5713H43.5C42.6712 39.5713 42 38.932 42 38.1427V36.7142C42 35.9249 42.6712 35.2856 43.5 35.2856H45C45.8288 35.2856 46.5 35.9249 46.5 36.7142V38.1427Z" fill="white"/>
<path d="M51 30.2853V25.9995C51 24.4216 49.6567 23.1423 48 23.1423H47.25V23.8566C47.25 25.4324 45.9045 26.7138 44.25 26.7138C42.5955 26.7138 41.25 25.4324 41.25 23.8566V23.1423H30.75V23.8566C30.75 25.4324 29.4045 26.7138 27.75 26.7138C26.0955 26.7138 24.75 25.4324 24.75 23.8566V23.1423H24C22.3432 23.1423 21 24.4216 21 25.9995V30.2853H51Z" fill="white"/>
</svg>
