<svg width="20" height="20" viewBox="0 0 20 20" fill="none" xmlns="http://www.w3.org/2000/svg">
<path d="M5.5 0.952394C5.5 0.426401 5.05228 0 4.5 0C3.94772 0 3.5 0.426401 3.5 0.952394V1.90479C3.5 2.43078 3.94772 2.85718 4.5 2.85718C5.05228 2.85718 5.5 2.43078 5.5 1.90479V0.952394Z" fill="white"/>
<path d="M16.5 0.952394C16.5 0.426401 16.0523 0 15.5 0C14.9477 0 14.5 0.426401 14.5 0.952394V1.90479C14.5 2.43078 14.9477 2.85718 15.5 2.85718C16.0523 2.85718 16.5 2.43078 16.5 1.90479V0.952394Z" fill="white"/>
<path d="M0 7.14258V18.0951C0 19.147 0.8955 19.9999 2 19.9999H18C19.1045 19.9999 20 19.147 20 18.0951V7.14258H0ZM6 16.6665C6 17.1927 5.5525 17.6189 5 17.6189H4C3.4475 17.6189 3 17.1927 3 16.6665V15.7141C3 15.1879 3.4475 14.7617 4 14.7617H5C5.5525 14.7617 6 15.1879 6 15.7141V16.6665ZM6 11.4284C6 11.9546 5.5525 12.3807 5 12.3807H4C3.4475 12.3807 3 11.9546 3 11.4284V10.476C3 9.94976 3.4475 9.52356 4 9.52356H5C5.5525 9.52356 6 9.94976 6 10.476V11.4284ZM11.5 16.6665C11.5 17.1927 11.0525 17.6189 10.5 17.6189H9.5C8.9475 17.6189 8.5 17.1927 8.5 16.6665V15.7141C8.5 15.1879 8.9475 14.7617 9.5 14.7617H10.5C11.0525 14.7617 11.5 15.1879 11.5 15.7141V16.6665ZM11.5 11.4284C11.5 11.9546 11.0525 12.3807 10.5 12.3807H9.5C8.9475 12.3807 8.5 11.9546 8.5 11.4284V10.476C8.5 9.94976 8.9475 9.52356 9.5 9.52356H10.5C11.0525 9.52356 11.5 9.94976 11.5 10.476V11.4284ZM17 16.6665C17 17.1927 16.5525 17.6189 16 17.6189H15C14.4475 17.6189 14 17.1927 14 16.6665V15.7141C14 15.1879 14.4475 14.7617 15 14.7617H16C16.5525 14.7617 17 15.1879 17 15.7141V16.6665ZM17 11.4284C17 11.9546 16.5525 12.3807 16 12.3807H15C14.4475 12.3807 14 11.9546 14 11.4284V10.476C14 9.94976 14.4475 9.52356 15 9.52356H16C16.5525 9.52356 17 9.94976 17 10.476V11.4284Z" fill="white"/>
<path d="M20 6.19019V3.33301C20 2.28109 19.1045 1.42822 18 1.42822H17.5V1.90442C17.5 2.95491 16.603 3.80921 15.5 3.80921C14.397 3.80921 13.5 2.95491 13.5 1.90442V1.42822H6.5V1.90442C6.5 2.95491 5.603 3.80921 4.5 3.80921C3.397 3.80921 2.5 2.95491 2.5 1.90442V1.42822H2C0.8955 1.42822 0 2.28109 0 3.33301V6.19019H20Z" fill="white"/>
</svg>
