<svg width="15" height="15" viewBox="0 0 15 15" fill="none" xmlns="http://www.w3.org/2000/svg">
<path d="M12.0846 1.14998H11.526V0.58474C11.526 0.261788 11.2642 0 10.9413 0C10.6183 0 10.3565 0.261788 10.3565 0.58474V1.14998H4.61944V0.58474C4.61944 0.261788 4.35765 0 4.0347 0C3.71175 0 3.44996 0.261788 3.44996 0.58474V1.14998H2.89139C1.29707 1.14998 0 2.44705 0 4.04134V12.0779C0 13.6723 1.29707 14.9693 2.89139 14.9693H12.0846C13.6789 14.9693 14.976 13.6723 14.976 12.0779V4.04134C14.976 2.44705 13.6789 1.14998 12.0846 1.14998ZM2.89139 2.31946H3.44996V3.4597C3.44996 3.78265 3.71175 4.04444 4.0347 4.04444C4.35765 4.04444 4.61944 3.78265 4.61944 3.4597V2.31946H10.3566V3.4597C10.3566 3.78265 10.6183 4.04444 10.9413 4.04444C11.2642 4.04444 11.526 3.78265 11.526 3.4597V2.31946H12.0846C13.0341 2.31946 13.8065 3.0919 13.8065 4.04134V4.59994H1.16948V4.04134C1.16948 3.0919 1.94192 2.31946 2.89139 2.31946ZM12.0846 13.7999H2.89139C1.94192 13.7999 1.16948 13.0274 1.16948 12.0779V5.76942H13.8065V12.0779C13.8065 13.0274 13.0341 13.7999 12.0846 13.7999ZM5.19445 8.06941C5.19445 8.39236 4.93266 8.65415 4.60971 8.65415H3.45973C3.13678 8.65415 2.87499 8.39236 2.87499 8.06941C2.87499 7.74645 3.13678 7.48467 3.45973 7.48467H4.60971C4.93263 7.48467 5.19445 7.74645 5.19445 8.06941ZM12.101 8.06941C12.101 8.39236 11.8393 8.65415 11.5163 8.65415H10.3663C10.0434 8.65415 9.78158 8.39236 9.78158 8.06941C9.78158 7.74645 10.0434 7.48467 10.3663 7.48467H11.5163C11.8392 7.48467 12.101 7.74645 12.101 8.06941ZM8.64441 8.06941C8.64441 8.39236 8.38262 8.65415 8.05967 8.65415H6.90969C6.58674 8.65415 6.32495 8.39236 6.32495 8.06941C6.32495 7.74645 6.58674 7.48467 6.90969 7.48467H8.05967C8.38259 7.48467 8.64441 7.74645 8.64441 8.06941ZM5.19445 11.5194C5.19445 11.8423 4.93266 12.1041 4.60971 12.1041H3.45973C3.13678 12.1041 2.87499 11.8423 2.87499 11.5194C2.87499 11.1964 3.13678 10.9346 3.45973 10.9346H4.60971C4.93263 10.9346 5.19445 11.1964 5.19445 11.5194ZM12.101 11.5194C12.101 11.8423 11.8393 12.1041 11.5163 12.1041H10.3663C10.0434 12.1041 9.78158 11.8423 9.78158 11.5194C9.78158 11.1964 10.0434 10.9346 10.3663 10.9346H11.5163C11.8392 10.9346 12.101 11.1964 12.101 11.5194ZM8.64441 11.5194C8.64441 11.8423 8.38262 12.1041 8.05967 12.1041H6.90969C6.58674 12.1041 6.32495 11.8423 6.32495 11.5194C6.32495 11.1964 6.58674 10.9346 6.90969 10.9346H8.05967C8.38259 10.9346 8.64441 11.1964 8.64441 11.5194Z" fill="#F09D22"/>
</svg>
