<svg width="15" height="15" viewBox="0 0 15 15" fill="none" xmlns="http://www.w3.org/2000/svg">
<path d="M13.7282 3.32694L13.5038 3.39809L12.3088 3.50456L11.9712 4.04362L11.7263 3.96579L10.7752 3.10826L10.6372 2.66231L10.4525 2.18675L9.8547 1.65056L9.14951 1.51257L9.13328 1.83534L9.82414 2.50952L10.1622 2.90773L9.78213 3.10635L9.47274 3.01516L9.00914 2.82178L9.0249 2.44793L8.41663 2.19774L8.21467 3.07675L7.60163 3.21569L7.66227 3.70605L8.46104 3.85979L8.59902 3.07627L9.25837 3.17368L9.56489 3.3532H10.0567L10.3933 4.02739L11.2856 4.93266L11.2202 5.28455L10.5007 5.19288L9.25742 5.82075L8.36221 6.89457L8.24571 7.37012H7.92439L7.32567 7.09415L6.74414 7.37012L6.88881 7.98367L7.14185 7.69194L7.58683 7.67809L7.5558 8.22908L7.92439 8.33699L8.2925 8.75048L8.8936 8.58145L9.58017 8.68984L10.3775 8.90422L10.7757 8.95101L11.4508 9.71735L12.7538 10.4837L11.9111 12.0937L11.0216 12.5072L10.684 13.4273L9.39683 14.2867L9.2598 14.7823C12.5504 13.9897 14.9982 11.0337 14.9982 7.49952C14.9973 5.95587 14.5294 4.51918 13.7282 3.32694Z" fill="#6E6E6E"/>
<path d="M8.36056 11.4195L7.81436 10.4068L8.31568 9.36207L7.81436 9.21214L7.25145 8.64682L6.00436 8.36703L5.59042 7.50091V8.01514H5.40803L4.3333 6.55791V5.3609L3.54551 4.07986L2.29461 4.30284H1.45191L1.02794 4.02496L1.56889 3.59619L1.02937 3.72081C0.379092 4.8314 0 6.12008 0 7.50043C0 11.6415 3.35692 15 7.49829 15C7.81722 15 8.12995 14.9718 8.43934 14.9346L8.36104 14.026C8.36104 14.026 8.70527 12.6766 8.70527 12.6308C8.7048 12.5845 8.36056 11.4195 8.36056 11.4195Z" fill="#6E6E6E"/>
<path d="M2.78428 2.41836L4.11635 2.23263L4.73035 1.89602L5.42121 2.09512L6.52507 2.034L6.90321 1.43956L7.45466 1.53028L8.79389 1.4047L9.16296 0.997903L9.68338 0.650308L10.4196 0.76108L10.6879 0.720496C9.71823 0.264039 8.6392 0 7.49572 0C5.16817 0 3.08698 1.06093 1.71289 2.72681H1.71671L2.78428 2.41836ZM7.81274 0.745802L8.57857 0.324199L9.07033 0.608291L8.35846 1.15022L7.67858 1.21849L7.37254 1.01987L7.81274 0.745802ZM5.5444 0.807395L5.88243 0.948247L6.32502 0.807395L6.56613 1.22518L5.5444 1.49351L5.0531 1.20608C5.0531 1.20608 5.53341 0.896681 5.5444 0.807395Z" fill="#6E6E6E"/>
</svg>
