<svg width="22" height="14" viewBox="0 0 22 14" fill="none" xmlns="http://www.w3.org/2000/svg">
<path fill-rule="evenodd" clip-rule="evenodd" d="M7.56879 6.87803C6.51948 5.25175 4.1909 4.38877 2.19794 5.44965C0.848056 6.16771 0.000531297 7.601 0 9.16503C0 10.5026 2.72207 11.0653 5.01507 10.8548C5.25722 9.26945 6.15147 7.54628 7.56879 6.87803Z" fill="white"/>
<path fill-rule="evenodd" clip-rule="evenodd" d="M4.06417 3.8673C5.10127 3.8673 5.94189 3.00162 5.94189 1.93417C5.94242 0.866166 5.1018 0.000488281 4.0647 0.000488281C3.54641 0.000488281 3.07698 0.217047 2.73712 0.566482C2.39779 0.916473 2.1875 1.39934 2.1875 1.93362C2.1875 3.00108 3.02759 3.86675 4.06417 3.8673Z" fill="white"/>
<path fill-rule="evenodd" clip-rule="evenodd" d="M10.8678 5.02542C12.1917 5.02589 13.2649 3.92073 13.2653 2.55742C13.2653 1.19412 12.1922 0.0883789 10.8683 0.0883789C10.2061 0.0883789 9.60709 0.364537 9.17326 0.811323C8.73941 1.2581 8.4707 1.87495 8.4707 2.55633C8.4707 3.92018 9.54389 5.02542 10.8678 5.02542Z" fill="white"/>
<path fill-rule="evenodd" clip-rule="evenodd" d="M17.9368 3.8673C18.9734 3.8673 19.814 3.00162 19.814 1.93417C19.814 0.866166 18.9739 0.000488281 17.9373 0.000488281C16.9008 0.000488281 16.0596 0.865619 16.0596 1.93362C16.059 3.00108 16.8997 3.86675 17.9368 3.8673Z" fill="white"/>
<path fill-rule="evenodd" clip-rule="evenodd" d="M14.4911 11.3269C14.4911 10.6072 15.0556 10.0216 15.7534 10.015C15.0407 7.95119 13.1301 6.47253 10.8828 6.46536C8.01835 6.45611 5.68924 8.83923 5.67969 11.7896C5.67969 14.4215 13.943 14.7048 15.7189 12.6383C15.037 12.6131 14.4911 12.034 14.4911 11.3269Z" fill="white"/>
<path fill-rule="evenodd" clip-rule="evenodd" d="M17.937 4.98096C16.4049 4.98152 15.2016 5.59732 14.5107 7.00542C15.5447 7.67537 16.3024 8.7417 16.6853 9.94038V9.06545C16.6853 8.34192 17.2572 7.75301 17.9598 7.75301C18.6624 7.75301 19.2342 8.34192 19.2342 9.06545V10.0131H20.1545C20.4806 10.0131 20.7785 10.14 21.0042 10.3484C21.6112 10.0635 21.9998 9.66918 21.9998 9.16384C21.9998 6.85345 20.1805 4.98096 17.937 4.98096Z" fill="white"/>
<path fill-rule="evenodd" clip-rule="evenodd" d="M20.1552 10.9422H18.3321V9.06493C18.3321 8.85381 18.166 8.68213 17.9605 8.68213C17.755 8.68213 17.5888 8.85381 17.5888 9.06493V10.9422H15.7663C15.5607 10.9422 15.3945 11.1134 15.3945 11.325C15.3945 11.5366 15.5607 11.7078 15.7663 11.7078H17.5888V13.5847C17.5888 13.7963 17.755 13.9675 17.9605 13.9675C18.166 13.9675 18.3321 13.7963 18.3321 13.5847V11.7078H20.1552C20.3602 11.7078 20.527 11.5362 20.527 11.325C20.527 11.1139 20.3602 10.9422 20.1552 10.9422Z" fill="white"/>
</svg>
