<svg width="30" height="30" viewBox="0 0 30 30" fill="none" xmlns="http://www.w3.org/2000/svg">
<circle cx="15" cy="15" r="15" fill="#FFA827"/>
<path fill-rule="evenodd" clip-rule="evenodd" d="M12.193 14.8947C11.3344 13.5009 9.42913 12.7613 7.79843 13.6705C6.69391 14.2859 6.00043 15.5143 6 16.8547C6 18.0011 8.22728 18.4834 10.1035 18.3029C10.3016 16.9442 11.0333 15.4674 12.193 14.8947Z" fill="white"/>
<path fill-rule="evenodd" clip-rule="evenodd" d="M9.32461 12.314C10.1732 12.314 10.861 11.5721 10.861 10.6572C10.8615 9.74192 10.1736 9 9.32505 9C8.90097 9 8.51687 9.1856 8.23878 9.48508C7.96113 9.78503 7.78906 10.1989 7.78906 10.6568C7.78906 11.5716 8.47645 12.3135 9.32461 12.314Z" fill="white"/>
<path fill-rule="evenodd" clip-rule="evenodd" d="M14.8911 13.3054C15.9743 13.3059 16.8524 12.3587 16.8528 11.1903C16.8528 10.0219 15.9748 9.07422 14.8915 9.07422C14.3496 9.07422 13.8595 9.3109 13.5045 9.69381C13.1496 10.0767 12.9297 10.6054 12.9297 11.1893C12.9297 12.3582 13.8078 13.3054 14.8911 13.3054Z" fill="white"/>
<path fill-rule="evenodd" clip-rule="evenodd" d="M20.6766 12.314C21.5248 12.314 22.2126 11.5721 22.2126 10.6572C22.2126 9.74192 21.5252 9 20.6771 9C19.8289 9 19.1406 9.74145 19.1406 10.6568C19.1402 11.5716 19.828 12.3135 20.6766 12.314Z" fill="white"/>
<path fill-rule="evenodd" clip-rule="evenodd" d="M17.8563 18.7075C17.8563 18.0908 18.3181 17.5889 18.8891 17.5832C18.306 15.8144 16.7426 14.5472 14.9038 14.541C12.5601 14.5331 10.6543 16.5755 10.6465 19.1041C10.6465 21.3598 17.4078 21.6026 18.8609 19.8315C18.3029 19.8099 17.8563 19.3136 17.8563 18.7075Z" fill="white"/>
<path fill-rule="evenodd" clip-rule="evenodd" d="M20.6765 13.2676C19.4229 13.2681 18.4383 13.7958 17.873 15.0026C18.719 15.5768 19.339 16.4907 19.6523 17.518V16.7681C19.6523 16.1481 20.1203 15.6433 20.6952 15.6433C21.27 15.6433 21.738 16.1481 21.738 16.7681V17.5803H22.4909C22.7578 17.5803 23.0015 17.6891 23.1862 17.8677C23.6828 17.6235 24.0009 17.2856 24.0009 16.8525C24.0009 14.8724 22.5122 13.2676 20.6765 13.2676Z" fill="white"/>
<path fill-rule="evenodd" clip-rule="evenodd" d="M22.4911 18.3764H20.9994V16.7675C20.9994 16.5866 20.8634 16.4395 20.6953 16.4395C20.5271 16.4395 20.3911 16.5866 20.3911 16.7675V18.3764H18.8999C18.7317 18.3764 18.5957 18.5232 18.5957 18.7045C18.5957 18.8859 18.7317 19.0326 18.8999 19.0326H20.3911V20.6411C20.3911 20.8225 20.5271 20.9692 20.6953 20.9692C20.8634 20.9692 20.9994 20.8225 20.9994 20.6411V19.0326H22.4911C22.6588 19.0326 22.7952 18.8855 22.7952 18.7045C22.7952 18.5236 22.6588 18.3764 22.4911 18.3764Z" fill="white"/>
</svg>
