<svg width="18" height="18" viewBox="0 0 18 18" fill="none" xmlns="http://www.w3.org/2000/svg">
<path d="M16.7784 6.04238C16.5911 6.04238 16.4139 5.93025 16.34 5.74575C15.8825 4.60331 15.1503 3.56719 14.2224 2.7495C14.0268 2.57719 14.0081 2.27888 14.1804 2.0835C14.3527 1.88794 14.651 1.86938 14.8464 2.0415C15.8846 2.95631 16.7041 4.116 17.2162 5.39494C17.3131 5.63681 17.1954 5.91169 16.9535 6.00844C16.8961 6.0315 16.8369 6.04238 16.7784 6.04238Z" fill="#9F2C2C"/>
<path d="M1.34815 10.4008C1.12334 10.4008 0.924214 10.2396 0.883901 10.0104C0.612964 8.46844 0.754901 6.88144 1.29415 5.42081C1.38453 5.17612 1.65584 5.05125 1.90034 5.14162C2.14484 5.23181 2.2699 5.50331 2.17953 5.74781C1.69803 7.05187 1.57146 8.46937 1.81353 9.84712C1.85871 10.1038 1.68715 10.3485 1.43046 10.3937C1.40271 10.3984 1.37534 10.4008 1.34815 10.4008Z" fill="#9F2C2C"/>
<path d="M4.5268 12.0346C4.53261 12.039 5.23236 12.6451 5.51324 12.9935C6.35192 14.034 8.90474 17.1999 12.2229 15.6622C13.481 15.0793 14.2622 14.3542 14.6109 13.4454C15.0332 12.3453 15.0084 11.1622 14.5412 10.1141L11.9503 4.38052C11.8755 4.21271 11.7397 4.08409 11.568 4.01827C11.3964 3.95246 11.2093 3.95752 11.0415 4.03234C10.8735 4.10715 10.7449 4.2429 10.679 4.41446C10.6132 4.58621 10.6183 4.77296 10.6931 4.94096L12.0712 8.12677C12.1356 8.27565 12.0677 8.44871 11.9192 8.51396C11.7705 8.57921 11.5972 8.51227 11.5312 8.36396L9.40311 3.59096C9.26099 3.27221 8.88599 3.12859 8.56705 3.27071L8.46655 3.31552C8.31205 3.38434 8.19374 3.50921 8.13317 3.66709C8.08011 3.80527 8.07711 3.95452 8.12342 4.09327L10.0929 8.51096C10.1593 8.65965 10.0925 8.83402 9.94367 8.9004C9.79499 8.96659 9.62061 8.90002 9.55424 8.75134L7.12724 3.30671C7.05842 3.1524 6.93355 3.03409 6.77567 2.97352C6.6178 2.91296 6.44586 2.91765 6.29136 2.98646L6.19086 3.03127C6.03636 3.10009 5.91805 3.22496 5.85749 3.38284C5.79692 3.54071 5.80161 3.71265 5.87042 3.86715L8.21924 9.09934C8.28561 9.24802 8.21886 9.4224 8.06999 9.48877C7.9213 9.55515 7.74674 9.4884 7.68055 9.33952L5.9263 5.40502C5.85749 5.25071 5.73261 5.13221 5.57474 5.07165C5.41686 5.01109 5.24492 5.01577 5.09024 5.08459L4.98992 5.1294C4.83524 5.1984 4.71692 5.32327 4.65636 5.48115C4.5958 5.63902 4.60049 5.81096 4.6693 5.96546L6.80117 10.7471L8.25299 11.7654C8.3863 11.8588 8.41855 12.0425 8.32536 12.1758C8.23199 12.3093 8.04824 12.3418 7.91492 12.2488L5.5918 10.6192C5.43149 10.4998 5.24661 10.4385 5.05705 10.4385C5.01411 10.4385 4.97099 10.4416 4.92786 10.4478C4.69386 10.482 4.48705 10.6051 4.34567 10.7949C4.2043 10.9845 4.14524 11.2179 4.17936 11.4519C4.21386 11.6866 4.33705 11.8935 4.5268 12.0346Z" fill="#9F2C2C"/>
</svg>
