<svg width="52" height="52" viewBox="0 0 52 52" fill="none" xmlns="http://www.w3.org/2000/svg">
<g clip-path="url(#clip0_4039_4034)">
<path d="M35.0648 2.92202C35.0648 1.30824 33.7565 0 32.1427 0C30.5289 0 29.2207 1.30824 29.2207 2.92202V6.42845C29.2207 8.04224 30.5289 9.35048 32.1427 9.35048C33.7565 9.35048 35.0648 8.04224 35.0648 6.42845V2.92202Z" fill="#D7A444"/>
<path d="M37.4019 3.50659V6.42862C37.4019 7.82356 36.8478 9.16137 35.8614 10.1477C34.875 11.1341 33.5372 11.6883 32.1423 11.6883C30.7473 11.6883 29.4095 11.1341 28.4231 10.1477C27.4368 9.16137 26.8826 7.82356 26.8826 6.42862V3.50659H16.3633V6.42862C16.3633 7.82356 15.8092 9.16137 14.8228 10.1477C13.8364 11.1341 12.4986 11.6883 11.1037 11.6883C9.70875 11.6883 8.37094 11.1341 7.38456 10.1477C6.39819 9.16137 5.84405 7.82356 5.84405 6.42862V3.50659C4.29411 3.50659 2.80765 4.1223 1.71168 5.21827C0.61571 6.31425 0 7.8007 0 9.35064V15.1947H43.246V9.35064C43.246 7.8007 42.6303 6.31425 41.5343 5.21827C40.4383 4.1223 38.9519 3.50659 37.4019 3.50659Z" fill="#D7A444"/>
<path d="M14.0262 2.92227C14.0262 1.30848 12.7179 0.000244141 11.1042 0.000244141C9.49036 0.000244141 8.18213 1.30848 8.18213 2.92227V6.4287C8.18213 8.04249 9.49036 9.35072 11.1042 9.35072C12.7179 9.35072 14.0262 8.04249 14.0262 6.4287V2.92227Z" fill="#D7A444"/>
<path d="M25.7138 39.74C25.7129 37.4246 26.286 35.1451 27.3817 33.1054C28.4774 31.0657 30.0617 29.3294 31.9927 28.0519H30.3891C29.7691 28.0519 29.1745 27.8056 28.7361 27.3672C28.2977 26.9288 28.0514 26.3342 28.0514 25.7143V23.3766C28.0514 22.7567 28.2977 22.1621 28.7361 21.7237C29.1745 21.2853 29.7691 21.039 30.3891 21.039H32.7267C33.3466 21.039 33.9412 21.2853 34.3796 21.7237C34.818 22.1621 35.0643 22.7567 35.0643 23.3766V25.7143C35.064 26.0158 35.0049 26.3144 34.8901 26.5932C37.564 25.5876 40.4849 25.4409 43.246 26.1736V17.5326H0V39.74C0 40.5074 0.151161 41.2674 0.444852 41.9764C0.738543 42.6854 1.16901 43.3297 1.71168 43.8723C2.25435 44.415 2.8986 44.8455 3.60763 45.1392C4.31666 45.4329 5.0766 45.584 5.84405 45.584H26.9995C26.1529 43.752 25.7143 41.7581 25.7138 39.74ZM14.0257 37.4024C14.0257 38.0223 13.7794 38.6169 13.341 39.0553C12.9027 39.4937 12.3081 39.74 11.6881 39.74H9.35048C8.7305 39.74 8.13592 39.4937 7.69753 39.0553C7.25914 38.6169 7.01286 38.0223 7.01286 37.4024V35.0647C7.01286 34.4448 7.25914 33.8502 7.69753 33.4118C8.13592 32.9734 8.7305 32.7271 9.35048 32.7271H11.6881C12.3081 32.7271 12.9027 32.9734 13.341 33.4118C13.7794 33.8502 14.0257 34.4448 14.0257 35.0647V37.4024ZM14.0257 25.7143C14.0257 26.3342 13.7794 26.9288 13.341 27.3672C12.9027 27.8056 12.3081 28.0519 11.6881 28.0519H9.35048C8.7305 28.0519 8.13592 27.8056 7.69753 27.3672C7.25914 26.9288 7.01286 26.3342 7.01286 25.7143V23.3766C7.01286 22.7567 7.25914 22.1621 7.69753 21.7237C8.13592 21.2853 8.7305 21.039 9.35048 21.039H11.6881C12.3081 21.039 12.9027 21.2853 13.341 21.7237C13.7794 22.1621 14.0257 22.7567 14.0257 23.3766V25.7143ZM24.545 37.4024C24.545 38.0223 24.2987 38.6169 23.8603 39.0553C23.4219 39.4937 22.8274 39.74 22.2074 39.74H19.8698C19.2498 39.74 18.6552 39.4937 18.2168 39.0553C17.7784 38.6169 17.5321 38.0223 17.5321 37.4024V35.0647C17.5321 34.4448 17.7784 33.8502 18.2168 33.4118C18.6552 32.9734 19.2498 32.7271 19.8698 32.7271H22.2074C22.8274 32.7271 23.4219 32.9734 23.8603 33.4118C24.2987 33.8502 24.545 34.4448 24.545 35.0647V37.4024ZM24.545 25.7143C24.545 26.3342 24.2987 26.9288 23.8603 27.3672C23.4219 27.8056 22.8274 28.0519 22.2074 28.0519H19.8698C19.2498 28.0519 18.6552 27.8056 18.2168 27.3672C17.7784 26.9288 17.5321 26.3342 17.5321 25.7143V23.3766C17.5321 22.7567 17.7784 22.1621 18.2168 21.7237C18.6552 21.2853 19.2498 21.039 19.8698 21.039H22.2074C22.8274 21.039 23.4219 21.2853 23.8603 21.7237C24.2987 22.1621 24.545 22.7567 24.545 23.3766V25.7143Z" fill="#D7A444"/>
<path d="M39.7404 28.052C37.4287 28.052 35.1689 28.7375 33.2468 30.0218C31.3247 31.3061 29.8266 33.1315 28.942 35.2673C28.0573 37.403 27.8258 39.7531 28.2768 42.0203C28.7278 44.2876 29.841 46.3702 31.4756 48.0048C33.1102 49.6394 35.1928 50.7526 37.4601 51.2036C39.7274 51.6546 42.0775 51.4231 44.2132 50.5385C46.3489 49.6539 48.1743 48.1558 49.4587 46.2337C50.743 44.3116 51.4284 42.0518 51.4284 39.7401C51.4284 38.2052 51.1261 36.6853 50.5387 35.2673C49.9514 33.8492 49.0904 32.5607 48.0051 31.4754C46.9197 30.39 45.6313 29.5291 44.2132 28.9417C42.7951 28.3543 41.2753 28.052 39.7404 28.052ZM44.0731 44.0729C43.8539 44.292 43.5567 44.4151 43.2468 44.4151C42.9369 44.4151 42.6396 44.292 42.4204 44.0729L38.914 40.5664C38.6948 40.3473 38.5716 40.0501 38.5715 39.7401V32.7272C38.5715 32.4173 38.6947 32.12 38.9139 31.9008C39.1331 31.6816 39.4304 31.5584 39.7404 31.5584C40.0503 31.5584 40.3476 31.6816 40.5668 31.9008C40.786 32.12 40.9092 32.4173 40.9092 32.7272V39.2562L44.0731 42.4202C44.2922 42.6394 44.4153 42.9366 44.4153 43.2465C44.4153 43.5565 44.2922 43.8537 44.0731 44.0729Z" fill="#D7A444"/>
</g>
<defs>
<clipPath id="clip0_4039_4034">
<rect width="51.4286" height="51.4286" fill="white"/>
</clipPath>
</defs>
</svg>
