<svg width="24" height="24" viewBox="0 0 24 24" fill="none" xmlns="http://www.w3.org/2000/svg">
<path d="M23.8921 12.6271L19.7178 18.9431C19.6237 19.0818 19.4872 19.1871 19.3319 19.2349L9.16682 22.302C8.31032 22.5412 7.70324 23.2063 7.25616 23.9527H0.262954C3.53367 20.1632 6.55496 16.5602 8.07972 15.5554C9.48684 14.9525 11.1198 14.2587 12.5411 13.6606L14.9647 12.9477C15.2847 12.8424 15.6377 13.1391 15.5906 13.4836C15.5388 14.0051 15.0776 14.565 14.5788 14.7133C14.3435 14.8042 13.1105 15.0865 12.9458 15.2683L10.2351 17.3641C10.0233 17.5172 10.1551 17.8713 10.4139 17.8521L16.8142 17.4119C17.4495 17.3689 18.0425 17.0865 18.4895 16.6176C19.6143 15.4166 21.5955 13.3066 22.9132 11.8998C23.4309 11.3161 24.3062 11.9859 23.8921 12.6271ZM12.8517 6.53605C12.4328 8.52174 13.6329 9.57919 15.2329 10.4117C15.0588 9.46913 15.0635 8.51696 15.1388 7.56478C15.1153 6.49777 14.5882 5.55038 14.1458 4.62212C14.127 4.51207 14.1647 4.38288 14.2588 4.33025C14.7764 4.09101 15.3882 6.11977 15.5106 6.52648C15.8824 5.86617 16.5036 5.34942 17.2189 5.12453C16.753 4.3159 16.0471 3.66516 15.2329 3.23932C14.5741 2.89481 13.3599 2.4259 12.6211 2.7082C13.007 3.95225 13.0352 5.25372 12.8517 6.53605ZM16.8801 5.87574C15.4729 6.66045 15.4353 8.62701 15.7318 10.0433C16.64 7.87579 19.2519 7.23941 20.6543 5.50253C20.7437 5.39248 20.8284 5.27286 20.9602 5.22023C21.3038 5.11017 21.4402 5.42119 21.2143 5.67478C19.7931 7.63655 16.7718 8.2825 16.0094 10.761C21.0167 12.1965 23.9297 7.34946 21.9297 2.91395C21.0167 3.97618 19.8355 4.78959 18.5272 5.2585C17.9719 5.4499 17.3977 5.58866 16.8801 5.87574ZM0.262954 2.67949C-0.0900005 2.67471 -0.0852944 2.14359 0.262954 2.13881C1.27476 2.13881 2.10302 1.30147 2.10302 0.267949C2.10773 -0.0909113 2.6301 -0.0861265 2.63481 0.267949C2.63481 1.30147 3.45837 2.13881 4.47017 2.13881C4.82313 2.14359 4.81842 2.67471 4.47017 2.67949C3.45837 2.67949 2.63481 3.52162 2.63481 4.55035C2.6301 4.90921 2.10773 4.90443 2.10302 4.55035C2.09832 3.52162 1.27476 2.67949 0.262954 2.67949ZM1.35005 2.41154C1.78301 2.64121 2.14067 3.00007 2.36656 3.44028C2.59245 3.00007 2.94541 2.64121 3.37837 2.41154C2.95012 2.18187 2.59245 1.81823 2.36656 1.37802C2.14067 1.81823 1.78772 2.18187 1.35005 2.41154ZM3.56661 14.7898C3.91956 14.7946 3.91486 15.3257 3.56661 15.3305C3.05365 15.3305 2.63481 15.7564 2.63481 16.2779C2.6301 16.6368 2.10773 16.632 2.10302 16.2779C2.10302 15.7564 1.68418 15.3305 1.17122 15.3305C0.822976 15.3257 0.822976 14.7946 1.17122 14.7898C1.68418 14.7898 2.10302 14.364 2.10302 13.8424C2.10773 13.4836 2.6301 13.4884 2.63481 13.8424C2.63481 14.364 3.05365 14.7898 3.56661 14.7898ZM2.72422 15.0578C2.58775 14.9621 2.46539 14.8377 2.36656 14.6941C2.26774 14.8329 2.15009 14.9573 2.0089 15.0578C2.14538 15.1583 2.26774 15.2779 2.36656 15.4214C2.46069 15.2827 2.58775 15.1583 2.72422 15.0578ZM16.6353 0.918683C16.9883 0.918683 17.2707 0.62681 17.2707 0.272734C17.2707 0.124405 17.3883 0 17.5389 0C17.6895 0 17.8072 0.11962 17.8072 0.272734C17.8072 0.62681 18.0942 0.918683 18.4425 0.918683C18.7954 0.923468 18.7907 1.45458 18.4425 1.45937C18.0895 1.45937 17.8072 1.75124 17.8072 2.10532C17.8024 2.45939 17.2801 2.45939 17.2754 2.10532C17.2754 1.74645 16.993 1.45937 16.64 1.45937C16.2871 1.45458 16.2871 0.928253 16.6353 0.918683ZM17.3789 1.19142C17.4354 1.23927 17.4871 1.29668 17.5342 1.3541C17.586 1.29668 17.6377 1.23927 17.6942 1.19142C17.6377 1.14357 17.586 1.08615 17.5342 1.02873C17.4871 1.08615 17.4354 1.14357 17.3789 1.19142ZM23.4027 22.5269C22.7485 22.5269 22.2214 23.0676 22.2214 23.7326C22.2167 24.0915 21.6944 24.0867 21.6897 23.7326C21.6897 23.0676 21.1579 22.5269 20.5037 22.5269C20.1508 22.5221 20.1555 21.991 20.5037 21.9862C21.1579 21.9862 21.6897 21.4455 21.6897 20.7804C21.6944 20.4216 22.2167 20.4263 22.2214 20.7804C22.2214 21.4455 22.7532 21.9862 23.4027 21.9862C23.7509 21.9862 23.7509 22.5269 23.4027 22.5269ZM22.485 22.2541C22.2685 22.1154 22.0897 21.9336 21.9532 21.7135C21.8167 21.9336 21.6332 22.1154 21.4214 22.2541C21.6332 22.3929 21.8167 22.5795 21.9532 22.7948C22.0897 22.5795 22.2685 22.3929 22.485 22.2541ZM5.84905 6.16283V7.81838C5.84905 7.9667 5.7314 8.09111 5.5808 8.09111H3.95721V8.99544H5.58551C5.7314 8.99544 5.85376 9.11506 5.85376 9.26817V10.9237H6.7432V9.26817C6.7432 9.11984 6.86085 8.99544 7.01145 8.99544H8.63974V8.09111H7.01145C6.86556 8.09111 6.7432 7.97149 6.7432 7.81838V6.16283H5.84905ZM2.37598 6.33509C2.36186 5.92838 1.79713 5.95709 1.83948 6.35901L1.99479 7.23463C2.02302 7.40688 2.22538 7.51215 2.37598 7.43081L3.16189 7.02888C3.51014 6.81835 3.18071 6.33987 2.85129 6.57911C4.85136 3.00007 10.2069 4.41159 10.2492 8.54088C10.2539 8.89496 10.7763 8.89974 10.781 8.54088C10.7339 3.8422 4.62547 2.25364 2.37598 6.33509ZM10.2445 10.6988C10.2775 11.0768 10.8281 11.0146 10.7763 10.6366L10.621 9.76101C10.5928 9.58875 10.3904 9.48349 10.2398 9.56483L9.45389 9.96675C9.14329 10.1247 9.3786 10.6079 9.6939 10.45L9.80214 10.3974C7.87266 14.0913 2.3948 12.7324 2.34774 8.54088C2.34303 8.18681 1.82066 8.18202 1.81595 8.54088C1.85831 13.2731 8.02325 14.8329 10.2445 10.6988Z" fill="#FFA827"/>
</svg>
