<svg width="54" height="54" viewBox="0 0 54 54" fill="none" xmlns="http://www.w3.org/2000/svg">
<path d="M27 0C12.0884 0 0 12.0884 0 27C0 41.9116 12.0884 54 27 54C41.9126 54 54 41.9116 54 27C54 12.0884 41.9126 0 27 0ZM27 48.6C15.0897 48.6 5.4 38.9103 5.4 27C5.4 15.0897 15.0897 5.4 27 5.4C38.9103 5.4 48.6 15.0897 48.6 27C48.6 38.9103 38.9103 48.6 27 48.6Z" fill="white" fill-opacity="0.8"/>
<path d="M36.8205 25.1089L23.7266 17.5489C21.9262 16.5099 20.4531 17.3599 20.4531 19.4389V34.5589C20.4531 36.6379 21.9262 37.4889 23.7266 36.4489L36.8205 28.8889C38.6209 27.8499 38.6209 26.1479 36.8205 25.1089Z" fill="white" fill-opacity="0.8"/>
</svg>
