<svg width="42" height="38" viewBox="0 0 42 38" fill="none" xmlns="http://www.w3.org/2000/svg">
<path d="M23.6606 28.5263V23.2344L21.4405 22.8357V22.2477C23.06 21.2307 24.2709 19.6773 24.8618 17.8586C26.8434 17.6611 28.3942 16.0343 28.3942 14.0631C28.3929 13.5503 28.2862 13.0433 28.0808 12.5735C27.8754 12.1036 27.5757 11.681 27.2002 11.3317L27.4166 10.2064C27.9659 7.35463 26.1437 4.79863 24.1474 3.26048C23.4072 1.09651 21.6432 0 18.8977 0H15.3688C14.1131 0.00725359 12.8727 0.276213 11.7267 0.789712C10.5808 1.30321 9.55448 2.04997 8.71329 2.98234C7.26369 4.61196 6.5973 6.63362 6.83681 8.67489L7.13984 11.2613C6.74203 11.612 6.42313 12.0432 6.20418 12.5262C5.98523 13.0093 5.87121 13.5333 5.86964 14.0637C5.86964 16.0356 7.42069 17.6629 9.40224 17.8594C9.99325 19.6779 11.2041 21.2311 12.8234 22.2479V22.8359L10.5419 23.2454V32.0722C11.2031 32.3409 11.7503 32.8311 12.0899 33.4588C12.4294 34.0866 12.5402 34.8129 12.4033 35.5133C12.2663 36.2137 11.8902 36.8448 11.3392 37.2984C10.7882 37.7521 10.0967 38.0001 9.38301 38H21.5539C21.2465 38 20.9517 37.8779 20.7344 37.6606C20.517 37.4432 20.3949 37.1484 20.3949 36.8411V32.7957C20.3963 31.8246 20.7166 30.8808 21.3066 30.1094C21.8966 29.338 22.7237 28.7818 23.6606 28.5263ZM25.2535 15.3653V12.7629C25.4997 12.8797 25.7078 13.064 25.8534 13.2943C25.9991 13.5246 26.0764 13.7916 26.0764 14.0641C26.0764 14.3366 25.9991 14.6035 25.8534 14.8339C25.7078 15.0642 25.4997 15.2485 25.2535 15.3653ZM8.18752 14.0631C8.19232 13.7917 8.27161 13.5268 8.41674 13.2974C8.56187 13.0679 8.76724 12.8828 9.01044 12.7622V15.3659C8.76711 15.245 8.56167 15.0595 8.41655 14.8297C8.27143 14.6 8.19221 14.3348 8.18752 14.0631ZM11.3283 15.3663V11.4087C11.3283 9.91921 11.5885 8.92391 12.061 8.60621C12.2332 8.49031 12.4648 8.44094 12.7381 8.44094C13.6722 8.44094 15.0925 9.01964 16.2868 9.50616C18.3209 10.335 20.2423 11.1179 21.715 10.268C22.1688 10.0061 22.4212 10.0981 22.5248 10.1484C22.6837 10.299 22.9356 10.9456 22.9356 11.4087V15.3663C22.9384 16.1302 22.7903 16.8872 22.4999 17.5938C22.2095 18.3003 21.7824 18.9426 21.2432 19.4838C20.704 20.025 20.0633 20.4543 19.3578 20.7473C18.6523 21.0403 17.8959 21.1911 17.1319 21.1911C16.368 21.1911 15.6116 21.0403 14.9061 20.7473C14.2006 20.4543 13.5599 20.025 13.0207 19.4838C12.4815 18.9426 12.0544 18.3003 11.764 17.5938C11.4736 16.8872 11.3255 16.1302 11.3283 15.3663ZM17.861 26.2954C17.6017 26.8723 17.3378 27.4594 17.1126 27.9249C16.8885 27.4545 16.6266 26.8604 16.3689 26.2766C16.0379 25.5264 15.6313 24.6052 15.1413 23.5486V23.2407C16.4479 23.5702 17.8159 23.5702 19.1225 23.2407V23.5442C18.6181 24.611 18.2008 25.5394 17.861 26.2954ZM9.38301 38H0V37.1629C0 33.6475 0.489073 30.9026 1.49511 28.7722C2.78995 26.0299 4.94203 24.3309 7.89129 23.7214L7.92096 23.7157L8.22391 23.6616V32.0722C7.56274 32.3409 7.01553 32.8311 6.67597 33.4588C6.33642 34.0866 6.22562 34.8129 6.36257 35.5133C6.49951 36.2137 6.87567 36.8448 7.42664 37.2984C7.97762 37.7521 8.66915 38.0001 9.38285 38H9.38301ZM9.38301 35.6821C9.23274 35.6821 9.08585 35.6376 8.9609 35.5541C8.83596 35.4707 8.73857 35.352 8.68106 35.2132C8.62354 35.0744 8.60849 34.9216 8.63779 34.7742C8.6671 34.6269 8.73945 34.4915 8.8457 34.3852C8.95194 34.279 9.08731 34.2066 9.23468 34.1773C9.38206 34.148 9.53482 34.163 9.67364 34.2205C9.81247 34.278 9.93113 34.3754 10.0146 34.5003C10.0981 34.6252 10.1427 34.7721 10.1427 34.9224C10.1424 35.1238 10.0624 35.3169 9.91994 35.4594C9.77752 35.6018 9.58442 35.6819 9.38301 35.6821ZM26.9261 32.7957V35.6821H25.8423V38H23.7967V35.6821H22.7128V32.7957C22.7128 32.237 22.9348 31.7012 23.3298 31.3061C23.7249 30.9111 24.2607 30.6891 24.8195 30.6891C25.3782 30.6891 25.914 30.9111 26.3091 31.3061C26.7042 31.7012 26.9261 32.237 26.9261 32.7957ZM34.2638 37.1629V38H28.085C28.3924 38 28.6872 37.8779 28.9045 37.6606C29.1219 37.4432 29.244 37.1484 29.244 36.8411V32.7957C29.2426 31.8246 28.9224 30.8808 28.3324 30.1094C27.7424 29.3381 26.9154 28.7819 25.9785 28.5263V23.651L26.3725 23.7218C29.3219 24.3311 31.474 26.0303 32.7689 28.7724C33.7747 30.9026 34.2638 33.6473 34.2638 37.1629Z" fill="#9F2C2C"/>
<path d="M38.9843 4.94289V0.98314C38.9843 0.854031 38.9588 0.726187 38.9092 0.606906C38.8597 0.487624 38.7871 0.379243 38.6956 0.287949C38.6041 0.196656 38.4954 0.124238 38.3758 0.0748317C38.2563 0.0254252 38.1281 -2.62564e-06 37.9987 2.0335e-10H29.6204C29.359 2.0335e-10 29.1083 0.103581 28.9234 0.287955C28.7386 0.47233 28.6348 0.722395 28.6348 0.98314V6.35567C28.6348 6.48478 28.6602 6.61262 28.7098 6.7319C28.7593 6.85118 28.8319 6.95957 28.9234 7.05086C29.0149 7.14216 29.1236 7.21457 29.2432 7.26398C29.3627 7.31339 29.4909 7.33881 29.6203 7.33881H30.8902V8.83066C30.8902 8.89874 30.9105 8.96529 30.9484 9.02189C30.9863 9.0785 31.0402 9.12261 31.1032 9.14866C31.1663 9.17471 31.2357 9.18152 31.3026 9.16824C31.3695 9.15495 31.431 9.12217 31.4793 9.07403L33.2189 7.33882H34.8145V6.34878C34.8149 5.97602 34.9635 5.61865 35.2278 5.35507C35.4921 5.09151 35.8503 4.94327 36.224 4.94289H38.9843ZM36.0496 4.21483C36.0495 4.27933 36.0239 4.3412 35.9781 4.38681C35.9324 4.43242 35.8704 4.45805 35.8057 4.45806H34.6001V5.66061C34.6001 5.72511 34.5744 5.78697 34.5287 5.83259C34.483 5.8782 34.4209 5.90383 34.3563 5.90384H33.2627C33.2307 5.90384 33.199 5.89755 33.1694 5.88532C33.1398 5.8731 33.1129 5.85518 33.0903 5.8326C33.0676 5.81001 33.0497 5.7832 33.0374 5.75369C33.0252 5.72418 33.0189 5.69255 33.0189 5.66061V4.45806H31.8132C31.7486 4.45804 31.6866 4.43241 31.6409 4.3868C31.5951 4.34118 31.5694 4.27933 31.5694 4.21483V3.12397C31.5694 3.05947 31.5951 2.99762 31.6409 2.95201C31.6866 2.90639 31.7486 2.88076 31.8132 2.88074H33.0189V1.6782C33.0189 1.64625 33.0252 1.61463 33.0374 1.58511C33.0497 1.5556 33.0676 1.52879 33.0903 1.5062C33.1129 1.48362 33.1398 1.4657 33.1694 1.45348C33.199 1.44126 33.2307 1.43497 33.2627 1.43497H34.3563C34.3883 1.43497 34.42 1.44126 34.4496 1.45349C34.4792 1.46571 34.506 1.48363 34.5287 1.50621C34.5513 1.5288 34.5693 1.55561 34.5815 1.58512C34.5938 1.61463 34.6001 1.64626 34.6001 1.6782V2.88074H35.8057C35.8704 2.88075 35.9324 2.90638 35.9781 2.95199C36.0239 2.99761 36.0495 3.05947 36.0496 3.12397V4.21483Z" fill="#9F2C2C"/>
<path d="M41.3912 5.74268H36.2249C36.0637 5.74268 35.9092 5.80654 35.7952 5.92023C35.6812 6.03392 35.6172 6.18812 35.6172 6.3489V9.66169C35.6172 9.82247 35.6812 9.97667 35.7952 10.0904C35.9092 10.204 36.0638 10.2679 36.225 10.2679H39.1723L40.2449 11.3379C40.2747 11.3676 40.3126 11.3878 40.3539 11.396C40.3952 11.4042 40.4379 11.4 40.4768 11.3839C40.5157 11.3679 40.5489 11.3407 40.5723 11.3058C40.5957 11.2709 40.6082 11.2298 40.6082 11.1879V10.2679H41.3912C41.5524 10.2679 41.707 10.2041 41.821 10.0904C41.9349 9.9767 41.999 9.82252 41.999 9.66176V6.3489C41.999 6.26928 41.9832 6.19045 41.9527 6.1169C41.9221 6.04334 41.8774 5.97651 41.8209 5.92022C41.7645 5.86393 41.6975 5.81927 41.6237 5.78881C41.55 5.75835 41.471 5.74267 41.3912 5.74268ZM40.5097 9.19944H37.0953C36.989 9.19944 36.887 9.15731 36.8119 9.08232C36.7367 9.00732 36.6944 8.90561 36.6944 8.79955C36.6944 8.69349 36.7367 8.59178 36.8119 8.51678C36.887 8.44179 36.989 8.39966 37.0953 8.39966H40.5097C40.616 8.39966 40.718 8.44179 40.7932 8.51678C40.8684 8.59178 40.9106 8.69349 40.9106 8.79955C40.9106 8.90561 40.8684 9.00732 40.7932 9.08232C40.718 9.15731 40.616 9.19944 40.5097 9.19944ZM40.5097 7.59987H37.0953C36.989 7.59987 36.887 7.55774 36.8119 7.48274C36.7367 7.40775 36.6944 7.30603 36.6944 7.19997C36.6944 7.09391 36.7367 6.9922 36.8119 6.91721C36.887 6.84221 36.989 6.80008 37.0953 6.80008H40.5097C40.616 6.80008 40.718 6.84221 40.7932 6.91721C40.8684 6.9922 40.9106 7.09391 40.9106 7.19997C40.9106 7.30603 40.8684 7.40775 40.7932 7.48274C40.718 7.55774 40.616 7.59987 40.5097 7.59987Z" fill="#9F2C2C"/>
</svg>
