<svg width="20" height="20" viewBox="0 0 20 20" fill="none" xmlns="http://www.w3.org/2000/svg">
<mask id="mask0_2022_7943" style="mask-type:alpha" maskUnits="userSpaceOnUse" x="0" y="0" width="20" height="20">
<rect width="20" height="20" fill="#D9D9D9"/>
</mask>
<g mask="url(#mask0_2022_7943)">
<path d="M2.47358 7.50763C2.21203 7.50763 2 7.69307 2 7.92178V14.0046C2 14.2333 2.21206 14.4188 2.47358 14.4188H5.32687V7.50763H2.47358Z" fill="#777777"/>
<path d="M17.9964 9.79474C17.9964 9.269 17.6733 8.80798 17.1917 8.55549C17.3762 8.3225 17.4845 8.03984 17.4845 7.73559C17.4845 6.93953 16.7439 6.29187 15.8336 6.29187H12.3485C12.4553 5.86859 12.6014 5.23342 12.7031 4.5685C12.9678 2.83816 12.7869 1.87853 12.1338 1.54852C11.7266 1.34281 11.2876 1.30109 10.8977 1.43091C10.5964 1.53127 10.1895 1.77799 9.9577 2.38352L9.04174 4.48081C8.57738 5.4837 7.15535 6.53657 6.27344 7.11874V14.6021C7.90793 15.103 9.61353 15.3568 11.3536 15.3568H15.1509C16.0612 15.3568 16.8019 14.7091 16.8019 13.9131C16.8019 13.6343 16.711 13.3737 16.5539 13.1528C17.1042 12.9184 17.4844 12.4242 17.4844 11.8539C17.4844 11.5496 17.3762 11.267 17.1917 11.034C17.6733 10.7815 17.9964 10.3205 17.9964 9.79474Z" fill="#777777"/>
</g>
</svg>
