<svg width="17" height="16" viewBox="0 0 17 16" fill="none" xmlns="http://www.w3.org/2000/svg">
<path d="M6.92567 16C6.75865 16 6.59848 15.9339 6.48038 15.8162C6.36228 15.6986 6.29594 15.539 6.29594 15.3726V9.33961L0.458315 2.94274C0.228517 2.69043 0.0771612 2.37709 0.0226168 2.04073C-0.0319275 1.70438 0.0126849 1.35948 0.151039 1.0479C0.289394 0.736322 0.515542 0.471451 0.802037 0.285439C1.08853 0.0994259 1.42306 0.000268306 1.76501 0H15.235C15.5769 0.000268306 15.9115 0.0994259 16.198 0.285439C16.4845 0.471451 16.7106 0.736322 16.849 1.0479C16.9873 1.35948 17.0319 1.70438 16.9774 2.04073C16.9228 2.37709 16.7715 2.69043 16.5417 2.94274L10.7041 9.33961V12.8627C10.704 12.9567 10.6828 13.0495 10.6419 13.1342C10.601 13.2189 10.5416 13.2934 10.4679 13.3522L7.31925 15.862C7.20761 15.9512 7.06879 15.9999 6.92567 16ZM1.76501 1.2549C1.66702 1.25515 1.5712 1.28368 1.48914 1.33706C1.40709 1.39044 1.34232 1.46637 1.30268 1.55566C1.26304 1.64495 1.25021 1.74377 1.26577 1.84017C1.28132 1.93657 1.32458 2.02641 1.39032 2.09882L7.39167 8.68706C7.49449 8.79972 7.55268 8.94579 7.5554 9.09804V14.0675L9.4446 12.549V9.09804C9.44422 8.94145 9.50262 8.79039 9.60833 8.67451L15.6097 2.08627C15.6715 2.01354 15.7114 1.92486 15.7248 1.83049C15.7382 1.73611 15.7245 1.63989 15.6853 1.55294C15.6461 1.46599 15.583 1.39187 15.5033 1.33913C15.4237 1.28639 15.3306 1.25719 15.235 1.2549H1.76501Z" fill="#9F2C2C"/>
</svg>
