<svg width="20" height="10" viewBox="0 0 20 10" fill="none" xmlns="http://www.w3.org/2000/svg">
<path d="M2.52347 7.47261C1.83987 6.78902 1.50002 5.9609 1.50002 4.99606C1.50002 4.07029 1.87112 3.18357 2.52347 2.52733C3.20707 1.84374 4.0313 1.5039 5.00006 1.5039H8.5001C8.91417 1.5039 9.25011 1.16796 9.25011 0.753902C9.25011 0.339842 8.91417 0.00390625 8.5001 0.00390625H5.00006C3.61723 0.00390625 2.43753 0.492184 1.46096 1.46483C0.484381 2.43749 0 3.61717 0 4.99997C0 6.38277 0.488287 7.56246 1.46096 8.53901C2.43362 9.51557 3.61723 9.99994 5.00006 9.99994H8.5001C8.91417 9.99994 9.25011 9.664 9.25011 9.24994C9.25011 8.83588 8.91417 8.49995 8.5001 8.49995H5.03131C4.08989 8.50386 3.18754 8.13276 2.52347 7.47261Z" fill="white"/>
<path d="M6.87501 4.25H13.1251C13.5392 4.25 13.8751 4.58594 13.8751 5C13.8751 5.41406 13.5392 5.74999 13.1251 5.74999H6.87501C6.46094 5.74999 6.125 5.41406 6.125 5C6.125 4.58594 6.46094 4.25 6.87501 4.25Z" fill="white"/>
<path d="M18.5392 1.46093C17.5626 0.484372 16.3868 0 15.0001 0H11.5C11.0859 0 10.75 0.335935 10.75 0.749995C10.75 1.16406 11.0859 1.49999 11.5 1.49999H14.9688C15.9063 1.49608 16.8087 1.86718 17.4766 2.52733C18.1602 3.21092 18.5001 4.03904 18.5001 5.00388C18.5001 5.92965 18.129 6.81637 17.4766 7.47261C16.793 8.1562 15.9688 8.49604 15.0001 8.49604H11.5C11.0859 8.49604 10.75 8.83198 10.75 9.24604C10.75 9.6601 11.0859 9.99603 11.5 9.99603H15.0001C16.3829 9.99603 17.5626 9.50776 18.5392 8.53511C19.5157 7.55855 20.0001 6.38277 20.0001 4.99606C20.0001 3.61717 19.5118 2.43749 18.5392 1.46093Z" fill="white"/>
</svg>
