<svg width="16" height="16" viewBox="0 0 16 16" fill="none" xmlns="http://www.w3.org/2000/svg">
<path d="M3.58114 16C3.40584 16 3.23176 15.9429 3.0832 15.8308C2.80646 15.6215 2.67718 15.2618 2.7525 14.9147L3.78182 10.1833L0.291016 6.98884C0.0344181 6.75509 -0.0636068 6.38492 0.0417425 6.04621C0.147092 5.70813 0.43372 5.46878 0.773084 5.43605L5.39185 4.99849L7.21795 0.53921C7.35259 0.211582 7.65924 0 7.99995 0C8.34065 0 8.6473 0.211582 8.78195 0.538446L10.608 4.99849L15.2261 5.43605C15.5662 5.46802 15.8528 5.70813 15.9582 6.04621C16.0635 6.38428 15.9661 6.75509 15.7095 6.98884L12.2187 10.1827L13.248 14.9139C13.3234 15.2618 13.194 15.6215 12.9174 15.8302C12.6414 16.0389 12.2734 16.0549 11.9827 15.8726L7.99995 13.389L4.01718 15.874C3.88254 15.9575 3.73251 16 3.58114 16ZM7.99995 12.3192C8.15132 12.3192 8.30122 12.3616 8.43599 12.445L12.1948 14.7909L11.2233 10.3252C11.154 10.0074 11.2574 9.67559 11.4927 9.46057L14.7888 6.44415L10.428 6.03092C10.114 6.00099 9.84399 5.79501 9.7213 5.49311L7.99995 1.28491L6.27652 5.49375C6.15517 5.79361 5.88515 5.99959 5.57191 6.02952L1.21047 6.44275L4.50645 9.45917C4.74254 9.67482 4.84582 10.006 4.77587 10.3246L3.80514 14.7901L7.5639 12.445C7.69855 12.3616 7.84858 12.3192 7.99995 12.3192ZM5.35657 5.08472C5.35657 5.08472 5.35657 5.08549 5.35584 5.08613L5.35657 5.08472ZM10.642 5.08269L10.6427 5.08409C10.6427 5.08332 10.6427 5.08332 10.642 5.08269Z" fill="#4A4A4A"/>
</svg>
