<svg width="19" height="15" viewBox="0 0 19 15" fill="none" xmlns="http://www.w3.org/2000/svg">
<path d="M0.356774 14.917C2.26971 11.3597 4.42529 8.665 10.6225 8.93448C10.7302 8.93448 10.892 9.09614 10.892 9.20404V11.8989C10.892 12.0876 11.1615 12.4378 11.4308 12.1684L18.6249 6.07811C18.7326 5.99728 18.7326 5.83562 18.6249 5.75479L11.4308 0.0412706C11.2961 -0.0664409 10.892 0.0412705 10.892 0.31083V3.00566C10.892 3.11337 10.7304 3.27522 10.6225 3.27522C-0.155165 4.35306 0.410661 12.7071 0.00649964 14.7282C-0.0474413 14.9437 0.248953 15.1053 0.356831 14.9168L0.356774 14.917Z" fill="#9F2C2C"/>
</svg>
