<svg width="20" height="12" viewBox="0 0 20 12" fill="none" xmlns="http://www.w3.org/2000/svg">
<path d="M19.8507 5.55533C19.6722 5.32876 15.3782 0 10 0C4.62181 0 0.32791 5.32876 0.149355 5.55533C-0.0497851 5.80858 -0.0497851 6.19142 0.149355 6.44467C0.32791 6.67124 4.62189 12 10 12C15.3781 12 19.6721 6.67124 19.8507 6.44467C20.0498 6.19142 20.0498 5.80858 19.8507 5.55533ZM10 10.6667C7.73865 10.6667 5.89845 8.57293 5.89845 6C5.89845 3.42707 7.73865 1.33333 10 1.33333C12.2614 1.33333 14.1016 3.42707 14.1016 6C14.1016 8.57293 12.2614 10.6667 10 10.6667Z" fill="#606060"/>
<path d="M10.5859 4.6665C10.5859 3.99584 10.8786 3.40584 11.3237 3.04295C10.9243 2.81028 10.4787 2.6665 10 2.6665C8.38465 2.6665 7.07031 4.16193 7.07031 5.99984C7.07031 7.83775 8.38465 9.33317 10 9.33317C11.4462 9.33317 12.6433 8.13166 12.8798 6.5617C11.6998 6.99393 10.5859 5.97859 10.5859 4.6665Z" fill="#606060"/>
</svg>
