<svg width="20" height="20" viewBox="0 0 20 20" fill="none" xmlns="http://www.w3.org/2000/svg">
<path d="M10.001 4.64459C6.56748 4.64459 3.45381 6.52309 1.15624 9.57427C0.968754 9.82424 0.968754 10.1735 1.15624 10.4234C3.45381 13.4783 6.56748 15.3568 10.001 15.3568C13.4345 15.3568 16.5481 13.4783 18.8457 10.4271C19.0332 10.1771 19.0332 9.82792 18.8457 9.57794C16.5481 6.52309 13.4345 4.64459 10.001 4.64459ZM10.2473 13.7724C7.96808 13.9158 6.08591 12.0373 6.22928 9.7544C6.34691 7.87222 7.8725 6.34663 9.75468 6.229C12.0339 6.08563 13.916 7.96413 13.7727 10.247C13.6514 12.1255 12.1258 13.6511 10.2473 13.7724ZM10.1333 12.0299C8.90549 12.1071 7.89088 11.0962 7.97176 9.86836C8.03425 8.85375 8.8577 8.03397 9.87231 7.9678C11.1001 7.8906 12.1147 8.90154 12.0339 10.1294C11.9677 11.1476 11.1442 11.9674 10.1333 12.0299Z" fill="#777777"/>
</svg>
