<svg width="16" height="16" viewBox="0 0 16 16" fill="none" xmlns="http://www.w3.org/2000/svg">
<path d="M1.06667 8C1.06667 4.17083 4.17083 1.06667 8 1.06667C8.3368 1.06667 8.66773 1.09065 8.99115 1.13691C9.28272 1.17861 9.55291 0.976053 9.59461 0.684469C9.63632 0.392885 9.43376 0.122699 9.14219 0.0809867C8.76885 0.0275893 8.38752 0 8 0C3.58172 0 0 3.58172 0 8C0 12.4183 3.58172 16 8 16C8.38752 16 8.76885 15.9724 9.14219 15.919C9.43376 15.8773 9.63632 15.6071 9.59461 15.3155C9.55291 15.0239 9.28272 14.8214 8.99115 14.8631C8.66773 14.9093 8.3368 14.9333 8 14.9333C4.17083 14.9333 1.06667 11.8292 1.06667 8Z" fill="#4A4A4A"/>
<path d="M11.7327 0.533447C11.1436 0.533447 10.666 1.01101 10.666 1.60011C10.666 2.18922 11.1436 2.66678 11.7327 2.66678C12.3218 2.66678 12.7993 2.18922 12.7993 1.60011C12.7993 1.01101 12.3218 0.533447 11.7327 0.533447Z" fill="#4A4A4A"/>
<path d="M13.8674 2.66675C13.2783 2.66675 12.8008 3.14431 12.8008 3.73341C12.8008 4.32252 13.2783 4.80008 13.8674 4.80008C14.4566 4.80008 14.9341 4.32252 14.9341 3.73341C14.9341 3.14431 14.4566 2.66675 13.8674 2.66675Z" fill="#4A4A4A"/>
<path d="M14.9339 5.33325C14.3447 5.33325 13.8672 5.8108 13.8672 6.39992C13.8672 6.98904 14.3447 7.46659 14.9339 7.46659C15.523 7.46659 16.0005 6.98904 16.0005 6.39992C16.0005 5.8108 15.523 5.33325 14.9339 5.33325Z" fill="#4A4A4A"/>
<path d="M14.9339 8.53345C14.3447 8.53345 13.8672 9.01099 13.8672 9.60011C13.8672 10.1892 14.3447 10.6668 14.9339 10.6668C15.523 10.6668 16.0005 10.1892 16.0005 9.60011C16.0005 9.01099 15.523 8.53345 14.9339 8.53345Z" fill="#4A4A4A"/>
<path d="M12.8008 12.2666C12.8008 11.6775 13.2783 11.2 13.8674 11.2C14.4566 11.2 14.9341 11.6775 14.9341 12.2666C14.9341 12.8557 14.4566 13.3333 13.8674 13.3333C13.2783 13.3333 12.8008 12.8557 12.8008 12.2666Z" fill="#4A4A4A"/>
<path d="M10.666 14.3999C10.666 13.8108 11.1436 13.3333 11.7327 13.3333C12.3218 13.3333 12.7993 13.8108 12.7993 14.3999C12.7993 14.989 12.3218 15.4666 11.7327 15.4666C11.1436 15.4666 10.666 14.989 10.666 14.3999Z" fill="#4A4A4A"/>
<path d="M8.00064 3.19995C8.2952 3.19995 8.53397 3.43874 8.53397 3.73328V7.99995C8.53397 8.14139 8.47776 8.27707 8.37776 8.37707L6.24442 10.5104C6.03616 10.7187 5.69845 10.7187 5.49018 10.5104C5.28192 10.3021 5.28192 9.96443 5.49018 9.75616L7.4673 7.77904V3.73328C7.4673 3.43874 7.70608 3.19995 8.00064 3.19995Z" fill="#4A4A4A"/>
</svg>
