<svg width="58" height="60" viewBox="0 0 58 60" fill="none" xmlns="http://www.w3.org/2000/svg">
<path d="M49.9886 55.0068C49.9886 55.8187 48.4625 57.1712 44.1585 58.3117C40.0528 59.4013 34.5798 60 28.7473 60C22.9147 60 17.4417 59.4013 13.3361 58.3116C9.03199 57.1711 7.50598 55.8186 7.50598 55.0066C7.50598 54.1724 9.07535 52.81 13.4637 51.6646C17.79 54.7166 23.0634 56.5104 28.7473 56.5104C28.9555 56.5104 29.1626 56.5079 29.3708 56.503C29.4241 56.5017 29.4786 56.5005 29.5332 56.4981C29.7006 56.4932 29.8666 56.487 30.034 56.4795C30.0749 56.477 30.1171 56.4757 30.1593 56.4732C35.1674 56.213 39.9326 54.5667 44.042 51.6684C48.4216 52.8125 49.9886 54.1724 49.9886 55.0068ZM3.92086 30.799H53.5736C53.1298 43.6553 42.8742 54.0609 30.0786 54.739C30.034 54.7414 29.9906 54.7439 29.9473 54.7452C29.7948 54.7526 29.6411 54.7588 29.4886 54.7625C29.4366 54.765 29.3845 54.7663 29.3324 54.7675C29.1377 54.7724 28.9432 54.7748 28.7473 54.7748C15.3393 54.7748 4.37953 44.0979 3.92086 30.799ZM20.5 44.4301H26.1118C26.5916 44.4301 26.9796 44.8181 26.9796 45.2979V50.9135H30.5114V45.2979C30.5114 44.8181 30.8994 44.4301 31.3792 44.4301H36.9948V40.9021H31.3792C30.8994 40.9021 30.5114 40.5128 30.5114 40.0343V34.4187H26.9796V40.0343C26.9796 40.5128 26.5916 40.9021 26.1118 40.9021H20.5V44.4301ZM55.4702 25.0185H2.02055C0.906094 25.0185 0 25.9247 0 27.0391C0 28.1561 0.906211 29.0634 2.02055 29.0634H55.4702C56.5872 29.0634 57.4945 28.1561 57.4945 27.0391C57.4947 25.9247 56.5872 25.0185 55.4702 25.0185ZM26.6299 14.8087C25.7461 17.8099 26.5035 20.9995 28.6493 23.2829H33.8769L30.4952 19.9011L31.7224 18.6739L36.3314 23.2829H37.8723C37.8897 20.9438 36.9798 18.6975 35.305 17.0228C33.008 14.7258 29.7179 13.8964 26.6299 14.8087ZM39.7962 23.283H41.3333L45.9461 18.6741L47.1734 19.9013L43.7891 23.283H49.0192C51.165 20.9996 51.9224 17.81 51.0386 14.8089C47.9506 13.8964 44.6593 14.7271 42.3586 17.0241C40.6875 18.6975 39.7777 20.9438 39.7962 23.283ZM43.8325 10.3102C44.9445 10.3102 45.9894 9.8775 46.7754 9.09164C48.1823 7.68094 48.3659 5.50043 47.3234 3.88887L41.5714 9.64078C42.2384 10.0758 43.018 10.3102 43.8325 10.3102ZM46.0973 2.66027C45.4291 2.22516 44.6495 1.9909 43.8325 1.9909C42.7218 1.9909 41.6793 2.42355 40.8945 3.20941H40.8932C40.1073 3.99656 39.6745 5.04035 39.6745 6.15105C39.6745 6.96551 39.9088 7.74527 40.3439 8.41336L46.0973 2.66027ZM30.903 8.87953C32.0273 9.52781 33.4716 9.14238 34.12 8.02043C34.4323 7.47867 34.5154 6.84398 34.3518 6.23285C34.1882 5.62289 33.7989 5.11465 33.2584 4.80234L30.1233 2.99367L27.7692 7.07086L30.903 8.87953ZM23.1305 4.39207L26.2656 6.20191L28.6196 2.12602L25.4845 0.314883C25.1139 0.101602 24.7097 0 24.3094 0C23.4949 0 22.7029 0.421523 22.2677 1.17516C21.9553 1.71691 21.8723 2.3516 22.0359 2.96145C22.1994 3.57141 22.5887 4.07965 23.1305 4.39207ZM7.12664 12.2254L13.5096 23.2829H21.4247L13.0621 8.79902L7.12664 12.2254ZM2.69496 11.7146C2.95031 12.1535 3.51563 12.3071 3.95438 12.0531L14.4963 5.96648C14.7095 5.84379 14.8608 5.64539 14.9252 5.40621C14.9897 5.16691 14.9575 4.91777 14.8359 4.70578L14.1442 3.50824C14.0215 3.29625 13.8219 3.14379 13.5813 3.07934C13.5008 3.05707 13.4189 3.04711 13.3371 3.04711C13.1784 3.04711 13.0235 3.08801 12.8846 3.16863L2.34164 9.25523C2.13094 9.37676 1.97965 9.57504 1.9152 9.81434C1.85074 10.0536 1.88297 10.3028 2.00566 10.5148L2.69496 11.7146Z" fill="#FFA827"/>
</svg>
