<svg width="50" height="50" viewBox="0 0 50 50" fill="none" xmlns="http://www.w3.org/2000/svg">
<path d="M46.86 31.9463H45.1836C44.648 31.9463 44.1448 31.6899 43.8297 31.2565L34.4373 18.336C33.6866 17.353 32.521 16.7763 31.2849 16.7763H29.2198C28.7738 16.7763 28.412 16.4144 28.412 15.9679V14.0527C28.412 13.6746 28.6052 13.3249 28.921 13.1172C30.8846 11.8262 32.1737 9.5915 32.1441 7.05751C32.0985 3.1552 28.8735 -0.0178056 24.9742 7.52031e-05C21.0481 0.0181514 17.8708 3.20914 17.8708 7.14291C17.8708 9.64055 19.1517 11.8388 21.0919 13.1156C21.4085 13.3239 21.6034 13.6737 21.6034 14.053V15.9679C21.6034 16.4143 21.2418 16.7763 20.7956 16.7763H18.1827C16.9466 16.7763 15.781 17.353 15.0304 18.336L5.65287 31.36C5.33822 31.7971 4.8328 32.0561 4.29449 32.0561H3.13986C1.40582 32.056 0 33.463 0 35.1986C0 36.9342 1.40572 38.3411 3.13986 38.3411H6.22437C4.32134 39.4052 3.03374 41.44 3.03374 43.7767C3.03374 47.2137 5.81766 50 9.25177 50H35.594L14.9001 38.5242C13.2551 37.8856 11.5027 37.5534 9.72916 37.5534H9.60723C9.85032 37.3591 10.0706 37.1332 10.2592 36.8769L16.2215 27.991V35.8234C16.2504 35.8371 16.2795 35.85 16.3079 35.8657L25.0702 40.7262L33.2462 35.8172V27.991L39.2238 36.7671C39.421 37.0351 39.6526 37.27 39.9088 37.47C37.6483 37.5038 35.261 38.1254 33.2462 39.2454V39.2355L28.0294 42.3677L41.4184 49.7947C44.2769 49.234 46.434 46.7139 46.434 43.6889V43.659C46.434 41.3116 45.135 39.2825 43.2177 38.2314H46.8601C48.5943 38.2314 50 36.8245 50 35.0889C50 33.3532 48.5942 31.9463 46.86 31.9463Z" fill="white"/>
</svg>
