<svg width="60" height="60" viewBox="0 0 60 60" fill="none" xmlns="http://www.w3.org/2000/svg">
<g clip-path="url(#clip0_485_289)">
<path d="M17.4196 21.7739H0V38.1293H10.2579C11.3221 32.2259 13.7423 26.6131 17.4196 21.7739Z" fill="#FFA827"/>
<path d="M38.2262 0H21.7744V17.4196C26.6135 13.7423 32.2264 11.3221 38.1298 10.2579L38.2262 0Z" fill="#FFA827"/>
<path d="M49.8381 21.7739C48.7739 27.6773 46.2573 33.2901 42.5801 38.1293H59.9996V21.7739H49.8381Z" fill="#FFA827"/>
<path d="M21.7744 60.0001H38.1298V42.5806C33.2906 46.2578 27.6778 48.678 21.7744 49.8386V60.0001Z" fill="#FFA827"/>
<path d="M48.8722 11.1295C48.8722 11.1295 31.2586 10.4522 20.8078 20.9042C12.0987 29.6133 11.1309 43.2593 11.0332 47.5174L18.6781 39.8725V33.1954C18.6781 32.6145 19.065 32.2276 19.6459 32.2276C20.2269 32.2276 20.6138 32.6145 20.6138 33.1954V37.9369L24.4851 34.0656V27.3885C24.4851 26.8075 24.8719 26.4206 25.4529 26.4206C26.0338 26.4206 26.4207 26.8075 26.4207 27.3885V32.1299L30.292 28.2586V21.5815C30.292 21.0006 30.6789 20.6137 31.2598 20.6137C31.8408 20.6137 32.2277 21.0006 32.2277 21.5815V26.323L36.5822 21.9684C36.9691 21.5815 37.5501 21.4851 37.9369 21.872C38.3238 22.2589 38.4202 22.8398 38.0333 23.2267L37.9369 23.3231L33.5824 27.6777H38.3238C38.9048 27.6777 39.2916 28.0645 39.2916 28.6455C39.2916 29.2264 38.9048 29.6133 38.3238 29.6133H31.6467L27.7754 33.4846H32.5169C33.0978 33.4846 33.4847 33.8715 33.4847 34.4524C33.4847 35.0334 33.0978 35.4203 32.5169 35.4203H25.8398L21.9685 39.2916H26.7099C27.2909 39.2916 27.6777 39.6784 27.6777 40.2594C27.6777 40.8403 27.2909 41.2272 26.7099 41.2272H20.0328L12.3879 48.8721C16.7425 48.7757 30.2907 47.8079 39.0012 39.0975C49.5495 28.6455 48.8722 11.1295 48.8722 11.1295Z" fill="#9F2C2C"/>
<path d="M9.28969 49.355L7.16125 51.4834C6.77438 51.8703 6.77438 52.4512 7.16125 52.8381C7.35533 53.0322 7.54812 53.1286 7.8386 53.1286C8.12907 53.1286 8.32187 53.0322 8.51595 52.8381L10.6444 50.7097C9.96704 50.6133 9.38609 50.0323 9.28969 49.355Z" fill="#9F2C2C"/>
</g>
<defs>
<clipPath id="clip0_485_289">
<rect width="60" height="60" fill="white"/>
</clipPath>
</defs>
</svg>
