<svg width="24" height="24" viewBox="0 0 24 24" fill="none" xmlns="http://www.w3.org/2000/svg">
<path d="M23.999 0C12.6782 0 10.4141 8.44491 10.4141 11.1117C10.4141 12.0398 10.4933 13.1212 10.5852 14.0683C12.1697 14.5421 13.4947 15.5738 14.3505 16.9489C14.5353 15.6649 14.7617 14.427 15.0279 13.2478C14.4135 12.3154 14.0367 11.1068 14.0367 9.77832C14.0367 9.23696 14.0996 8.71471 14.2142 8.22268C14.4646 9.29874 14.9713 10.2241 15.637 10.8926C15.834 10.2246 16.045 9.58276 16.2701 8.96894C15.7303 8.25246 15.3952 7.28929 15.3952 6.22257C15.3952 5.45897 15.5677 4.74826 15.8621 4.14112C15.8553 4.24157 15.848 4.34246 15.848 4.44469C15.848 5.56875 16.2732 6.57814 16.9498 7.30485C18.0067 4.9745 19.3076 3.2024 20.8292 2.22235C18.4287 6.41058 17.2853 9.8281 16.5662 13.4732C18.2272 12.9869 19.578 11.9442 20.2853 10.6001C19.9022 12.8456 18.3078 14.6053 16.2895 15.0142C16.1206 16.0333 15.973 17.0823 15.8331 18.177C18.5233 17.4956 20.3763 15.5564 20.3763 15.5564C20.3763 17.8561 16.674 19.1651 15.3644 21.1918C15.2729 22.3719 14.946 23.1711 14.5194 24C19.0355 23.9764 23.0933 18.5864 23.0933 14.6675C23.0933 12.0007 22.1876 11.5562 22.1876 7.11151C22.1876 4.44469 22.5803 1.91433 23.999 0Z" fill="#FFA827"/>
<path d="M11.2528 21.7846C10.8091 21.493 10.2842 21.3343 9.74264 21.3343H8.15094L9.70687 20.1889C9.07743 19.7205 8.38007 19.3311 7.66415 18.9529C7.10309 19.3316 6.41117 19.5565 5.66038 19.5565C4.42913 19.5565 3.35457 18.9547 2.75909 18.0564C3.10189 18.1626 3.46687 18.2231 3.84906 18.2231C4.4717 18.2231 5.05359 18.0684 5.55442 17.7999C4.21721 16.9861 3.00091 15.958 2.26415 14.2228C4.51789 15.8314 6.95502 16.895 9.03396 18.1115C9.04302 18.0008 9.0566 17.8924 9.0566 17.7786C9.0566 17.1577 8.92257 16.5803 8.69434 16.0949C9.65253 16.4198 10.3653 17.5826 10.4069 18.9853C11.9855 20.0952 13.2299 21.4512 13.8068 23.4145C14.27 22.5286 14.4906 21.6028 14.4906 20.6676C14.4906 17.3537 11.9801 14.6673 8.60377 14.6673C5.82566 14.6673 3.36272 13.3695 1.78958 11.364C0.683774 12.5645 0 14.1975 0 16.0007C0 19.6827 2.83834 22.6678 6.33962 22.6678H8.03864C9.65706 22.6678 10.8 23.0789 12.0788 23.7065C11.8931 22.9522 11.6101 22.322 11.2528 21.7846Z" fill="#FFA827"/>
</svg>
