<svg width="60" height="60" viewBox="0 0 60 60" fill="none" xmlns="http://www.w3.org/2000/svg">
<path d="M60.0004 0C31.6985 0 26.0381 21.1123 26.0381 27.7793C26.0381 30.0994 26.2362 32.8029 26.466 35.1708C30.4271 36.3554 33.7396 38.9344 35.8792 42.3724C36.3411 39.1622 36.9071 36.0676 37.5728 33.1196C36.0366 30.7884 35.0947 27.7671 35.0947 24.4458C35.0947 23.0924 35.252 21.7868 35.5385 20.5567C36.1645 23.2468 37.4313 25.5603 39.0954 27.2315C39.5879 25.5614 40.1154 23.9569 40.6781 22.4224C39.3287 20.6311 38.4909 18.2232 38.4909 15.5564C38.4909 13.6474 38.9222 11.8707 39.6581 10.3528C39.6411 10.6039 39.623 10.8562 39.623 11.1117C39.623 13.9219 40.686 16.4454 42.3773 18.2621C45.0196 12.4362 48.272 8.006 52.0758 5.55586C46.0747 16.0264 43.2162 24.5703 41.4185 33.683C45.5709 32.4674 48.9479 29.8605 50.7162 26.5004C49.7585 32.114 45.7724 36.5131 40.7268 37.5354C40.3045 40.0833 39.9354 42.7057 39.5856 45.4425C46.3113 43.7391 50.9437 38.891 50.9437 38.891C50.9437 44.6403 41.6879 47.9127 38.4139 52.9796C38.1853 55.9298 37.3679 57.9277 36.3015 60C47.5917 59.9411 57.7362 46.4659 57.7362 36.6687C57.7362 30.0017 55.472 28.8905 55.472 17.7788C55.472 11.1117 56.4536 4.78582 60.0004 0Z" fill="#FFA827"/>
<path d="M13.5847 2.22217C6.70731 2.22217 1.13184 7.69469 1.13184 14.4451C1.13184 21.1954 6.70731 26.668 13.5847 26.668C14.9998 26.668 16.3526 26.4257 17.6194 25.999L21.0133 27.6558C21.165 27.7291 21.3303 27.7791 21.5092 27.7791C22.1352 27.7791 22.6413 27.2813 22.6413 26.668V22.8166C24.7413 20.6287 26.0375 17.6886 26.0375 14.4451C26.0375 7.69469 20.462 2.22217 13.5847 2.22217ZM13.5847 21.1121C13.5847 21.1121 5.66014 17.7786 5.66014 13.3339C5.66014 10.8793 7.68768 8.8892 10.1884 8.8892C11.5413 8.8892 12.7118 9.64369 13.5869 10.3948C14.5684 9.57369 15.6281 8.8892 16.9809 8.8892C19.4816 8.8892 21.5092 10.8793 21.5092 13.3339C21.5092 17.7786 13.5847 21.1121 13.5847 21.1121Z" fill="#9F2C2C"/>
<path d="M28.1321 54.4616C27.0226 53.7327 25.7106 53.336 24.3566 53.336H20.3774L24.2672 50.4725C22.6936 49.3013 20.9502 48.3279 19.1604 47.3823C17.7577 48.329 16.0279 48.8913 14.1509 48.8913C11.0728 48.8913 8.38642 47.3868 6.89774 45.1411C7.75472 45.4067 8.66717 45.5578 9.62264 45.5578C11.1792 45.5578 12.634 45.1711 13.886 44.4999C10.543 42.4654 7.50226 39.8952 5.66038 35.5572C11.2947 39.5786 17.3875 42.2376 22.5849 45.2789C22.6075 45.0022 22.6415 44.7311 22.6415 44.4466C22.6415 42.8943 22.3064 41.4509 21.7359 40.2375C24.1313 41.0497 25.9132 43.9566 26.0174 47.4634C29.9638 50.238 33.0747 53.6282 34.517 58.5363C35.6751 56.3217 36.2264 54.0071 36.2264 51.6692C36.2264 43.3843 29.9502 36.6684 21.5094 36.6684C14.5642 36.6684 8.40679 33.4238 4.47396 28.4102C1.70943 31.4114 0 35.4939 0 40.0019C0 49.2069 7.09585 56.6695 15.8491 56.6695H20.0966C24.1426 56.6695 27 57.6973 30.197 59.2663C29.7328 57.3807 29.0253 55.805 28.1321 54.4616Z" fill="#FFA827"/>
</svg>
