<svg width="16" height="16" viewBox="0 0 16 16" fill="none" xmlns="http://www.w3.org/2000/svg">
<g clip-path="url(#clip0_1513_510)">
<path d="M8.00001 0.232422C4.8639 0.232422 2.3125 2.78382 2.3125 5.91991C2.3125 9.81188 7.40227 15.5255 7.61897 15.7669C7.82251 15.9936 8.17788 15.9932 8.38106 15.7669C8.59776 15.5255 13.6875 9.81188 13.6875 5.91991C13.6875 2.78382 11.1361 0.232422 8.00001 0.232422ZM8.00001 8.78144C6.42216 8.78144 5.13851 7.49776 5.13851 5.91991C5.13851 4.34205 6.42219 3.0584 8.00001 3.0584C9.57784 3.0584 10.8615 4.34208 10.8615 5.91994C10.8615 7.49779 9.57784 8.78144 8.00001 8.78144Z" fill="#FFBE5D"/>
</g>
<defs>
<clipPath id="clip0_1513_510">
<rect width="16" height="16" fill="white"/>
</clipPath>
</defs>
</svg>
