<svg width="28" height="20" viewBox="0 0 28 20" fill="none" xmlns="http://www.w3.org/2000/svg">
<path d="M18.1424 11.1807L15.7973 13.571C14.8464 14.5405 13.1731 14.5613 12.2016 13.571L9.85642 11.1807L1.43359 19.7649C1.74712 19.9122 2.0928 20.0001 2.46031 20.0001H25.5386C25.9061 20.0001 26.2517 19.9123 26.5651 19.765L18.1424 11.1807Z" fill="#9F2C2C"/>
<path d="M25.5385 0H2.4602C2.09269 0 1.74701 0.0878892 1.43359 0.235167L10.434 9.40869C10.4346 9.4093 10.4353 9.40942 10.4359 9.41003C10.4365 9.41064 10.4366 9.41147 10.4366 9.41147L13.3631 12.3943C13.674 12.71 14.3249 12.71 14.6357 12.3943L17.5616 9.41197C17.5616 9.41197 17.5623 9.41064 17.5629 9.41003C17.5629 9.41003 17.5642 9.4093 17.5648 9.40869L26.565 0.235112C26.2516 0.0877782 25.906 0 25.5385 0Z" fill="#9F2C2C"/>
<path d="M0.261737 1.40063C0.0995321 1.73386 0 2.10375 0 2.49997V17.5C0 17.8962 0.0994227 18.2661 0.261682 18.5993L8.69911 10.0003L0.261737 1.40063Z" fill="#9F2C2C"/>
<path d="M27.7381 1.40063L19.3008 10.0004L27.7381 18.5996C27.9003 18.2663 27.9998 17.8965 27.9998 17.5001V2.50008C27.9998 2.10375 27.9003 1.73386 27.7381 1.40063Z" fill="#9F2C2C"/>
</svg>
