<svg width="16" height="12" viewBox="0 0 16 12" fill="none" xmlns="http://www.w3.org/2000/svg">
<path d="M10.3671 6.28906L9.02712 7.63363C8.48371 8.17894 7.52759 8.19069 6.97243 7.63363L5.63234 6.28906L0.819336 11.1177C0.998492 11.2005 1.19602 11.25 1.40602 11.25H14.5935C14.8035 11.25 15.001 11.2006 15.1801 11.1177L10.3671 6.28906Z" fill="#FFBE5D"/>
<path d="M14.5935 0H1.40596C1.19596 0 0.99843 0.0494376 0.819336 0.132281L5.96237 5.29238C5.96271 5.29272 5.96312 5.29278 5.96346 5.29313C5.96381 5.29347 5.96387 5.29394 5.96387 5.29394L7.63615 6.97175C7.81377 7.14938 8.18571 7.14938 8.36334 6.97175L10.0353 5.29422C10.0353 5.29422 10.0357 5.29347 10.036 5.29313C10.036 5.29313 10.0368 5.29272 10.0371 5.29238L15.18 0.13225C15.0009 0.0493751 14.8035 0 14.5935 0Z" fill="#FFBE5D"/>
<path d="M0.149562 0.788086C0.056875 0.975523 0 1.18359 0 1.40646V9.84396C0 10.0668 0.0568125 10.2749 0.149531 10.4623L4.97087 5.62537L0.149562 0.788086Z" fill="#FFBE5D"/>
<path d="M15.8506 0.788086L11.0293 5.62543L15.8506 10.4625C15.9433 10.275 16.0001 10.067 16.0001 9.84402V1.40652C16.0001 1.18359 15.9433 0.975523 15.8506 0.788086Z" fill="#FFBE5D"/>
</svg>
