<svg width="15" height="12" viewBox="0 0 15 12" fill="none" xmlns="http://www.w3.org/2000/svg">
<path d="M9.50154 11.7456C9.50325 11.744 9.50492 11.7423 9.50663 11.7406L14.7575 6.62595C14.799 6.58531 14.8358 6.5404 14.8674 6.49204L14.9497 6.34477L14.984 6.24435L14.984 6.1707C15.0053 6.05785 15.0053 5.94215 14.984 5.82927L14.984 5.76234L14.984 5.682L14.9223 5.56818C14.8869 5.50476 14.8431 5.4462 14.7919 5.39411L9.50663 0.259345C9.15689 -0.084498 8.58756 -0.086726 8.23502 0.254387C8.23331 0.256019 8.23164 0.257682 8.22994 0.259345C7.89088 0.605949 7.89088 1.15123 8.22994 1.49786L11.3599 4.5573C11.4926 4.68929 11.4905 4.90124 11.3551 5.03066C11.2921 5.09088 11.2078 5.12514 11.1196 5.12634L0.899249 5.12634C0.402633 5.1263 3.17545e-05 5.51891 -6.9155e-07 6.00328C-3.31376e-05 6.48765 0.402504 6.88029 0.899121 6.88035L0.899249 6.88035L11.1196 6.88035C11.3092 6.88296 11.4607 7.0349 11.458 7.21974C11.4567 7.30572 11.4216 7.38797 11.3599 7.44939L8.22993 10.4955C7.8865 10.8429 7.8865 11.3932 8.22993 11.7407C8.57967 12.0845 9.14901 12.0867 9.50154 11.7456Z" fill="#A2A2A2"/>
</svg>
