<svg width="18" height="18" viewBox="0 0 18 18" fill="none" xmlns="http://www.w3.org/2000/svg">
<path d="M13.0092 14.0951C13.2876 14.5357 13.371 15.0535 13.2442 15.5546C13.118 16.055 12.7962 16.4788 12.3389 16.747L10.6804 17.7196C10.3619 17.9061 10.0047 18 9.64489 18C9.32174 18 8.99593 17.9247 8.69348 17.7729C5.21102 16.0331 3.22275 13.4494 2.34746 12.0646C0.407935 8.99521 0.000667651 5.97088 0 3.97503C0 3.30225 0.359196 2.68863 0.961417 2.33488L2.62053 1.36236C3.0772 1.09414 3.61466 1.01374 4.13543 1.13595C4.65486 1.25752 5.09485 1.56689 5.37259 2.00749L6.41412 3.65536C6.9883 4.56485 6.68786 5.75412 5.74447 6.30727L4.8852 6.8109C4.62749 6.96205 4.50197 7.26564 4.5881 7.53193C4.87185 8.41633 5.26977 9.26599 5.76984 10.0578C6.26858 10.847 6.86879 11.5764 7.55247 12.226C7.76411 12.4267 8.0946 12.4595 8.35699 12.3058L9.21559 11.8021C10.1576 11.2477 11.3935 11.5378 11.9683 12.4466L13.0098 14.0951H13.0092ZM9.05936 6.36388C10.5148 6.57999 11.5156 7.89726 11.2913 9.2988C11.2352 9.64998 11.4849 9.97866 11.8495 10.0327C11.8842 10.0378 11.9182 10.0404 11.9523 10.0404C12.2761 10.0404 12.5605 9.81271 12.6113 9.49497C12.9478 7.39171 11.4462 5.41709 9.26366 5.09227C8.89979 5.03953 8.55795 5.2788 8.50187 5.62934C8.44578 5.98053 8.69549 6.3092 9.05936 6.36323V6.36388ZM9.67026 2.5497C9.30906 2.49568 8.96455 2.73623 8.90847 3.08742C8.85238 3.43796 9.10209 3.76664 9.46662 3.82131C10.8767 4.03099 12.1172 4.75716 12.9604 5.86604C13.8037 6.97492 14.1482 8.33335 13.9305 9.69179C13.8745 10.0423 14.1242 10.371 14.4887 10.4257C14.5227 10.4308 14.5575 10.4334 14.5915 10.4334C14.9153 10.4334 15.1997 10.2057 15.2505 9.88797C15.5229 8.18992 15.0922 6.49187 14.038 5.10578C12.9838 3.71968 11.4329 2.81213 9.67026 2.5497ZM10.0775 0.00713602C9.71432 -0.0449631 9.37182 0.193664 9.31573 0.544851C9.25965 0.895395 9.50935 1.22407 9.87389 1.27874C14.2397 1.92773 17.2434 5.87762 16.5698 10.0841C16.5137 10.4347 16.7634 10.7634 17.1279 10.818C17.162 10.8232 17.1967 10.8258 17.2307 10.8258C17.5545 10.8258 17.839 10.5981 17.8897 10.2803C18.6762 5.37335 15.1717 0.765468 10.0775 0.00777933V0.00713602Z" fill="white"/>
</svg>
