<svg width="60" height="60" viewBox="0 0 60 60" fill="none" xmlns="http://www.w3.org/2000/svg">
<path fill-rule="evenodd" clip-rule="evenodd" d="M28.9853 21.4514C24.0013 21.4514 19.961 25.4917 19.961 30.4758C19.961 35.4598 24.0013 39.5 28.9853 39.5C31.7237 39.5 34.177 38.28 35.8321 36.3541C34.6678 36.63 33.5266 36.7765 32.4087 36.7937C31.8745 36.8 31.4363 36.372 31.43 35.8378C31.4237 35.3036 31.8517 34.8654 32.3859 34.8591C33.9892 34.8374 35.675 34.4844 37.3461 33.8762C39.735 28.0104 35.4436 21.4513 28.9851 21.4513L28.9853 21.4514ZM9.3095 2.84964C14.4511 2.84964 18.6191 7.01763 18.6191 12.1593C18.6191 15.2441 17.1188 17.9785 14.808 19.6724L13.8191 23.4964L9.3095 21.4688C4.25964 21.6522 0 17.3008 0 12.1593C0 7.01776 4.16787 2.84964 9.3095 2.84964ZM5.5984 14.8715C7.39052 18.0169 11.8935 18.0912 13.7918 15.0131C14.0724 14.5586 13.9315 13.9624 13.4769 13.6817C13.0223 13.401 12.4262 13.542 12.1454 13.9965C11.0143 15.8308 8.33599 15.7679 7.28261 13.9156C7.0186 13.4506 6.42758 13.2875 5.96255 13.5514C5.49753 13.8153 5.33451 14.4065 5.5984 14.8715ZM12.5058 8.30784C11.9026 8.30784 11.4136 8.7969 11.4136 9.40006C11.4136 10.0032 11.9026 10.4923 12.5058 10.4923C13.109 10.4923 13.598 10.0032 13.598 9.40006C13.598 8.7969 13.109 8.30784 12.5058 8.30784ZM6.90328 8.30784C6.30012 8.30784 5.81106 8.7969 5.81106 9.40006C5.81106 10.0032 6.30012 10.4923 6.90328 10.4923C7.50645 10.4923 7.99551 10.0032 7.99551 9.40006C7.99551 8.7969 7.50645 8.30784 6.90328 8.30784ZM38.0684 1.06055H58.473C59.2942 1.06055 59.9641 1.78825 59.9641 2.68043V14.4678C59.9641 15.3599 59.2942 16.0876 58.473 16.0876H46.4486C46.0686 16.0876 45.7419 16.2226 45.4579 16.4968L42.5042 19.3491L42.036 17.3147C41.8679 16.5841 41.2825 16.0878 40.5894 16.0878H38.0684C37.2471 16.0878 36.5773 15.3601 36.5773 14.4679V2.68043C36.5773 1.78825 37.2471 1.06055 38.0684 1.06055ZM41.078 5.91922H55.3671C55.9034 5.91922 56.3382 5.48442 56.3382 4.94814C56.3382 4.41186 55.9034 3.97706 55.3671 3.97706H41.078C40.5417 3.97706 40.1069 4.41186 40.1069 4.94814C40.1069 5.48442 40.5417 5.91922 41.078 5.91922ZM44.5136 12.839H51.9315C52.4678 12.839 52.9026 12.4042 52.9026 11.8679C52.9026 11.3317 52.4678 10.8969 51.9315 10.8969H44.5136C43.9773 10.8969 43.5425 11.3317 43.5425 11.8679C43.5425 12.4042 43.9773 12.839 44.5136 12.839ZM42.6117 9.37918H53.8334C54.3697 9.37918 54.8045 8.94438 54.8045 8.4081C54.8045 7.87182 54.3697 7.43702 53.8334 7.43702H42.6117C42.0754 7.43702 41.6406 7.87182 41.6406 8.4081C41.6406 8.94438 42.0754 9.37918 42.6117 9.37918ZM19.5999 47.6584H38.3709C38.5513 47.6584 38.6828 47.8256 38.6405 48.0008L36 58.9455C35.9695 59.0716 35.86 59.1578 35.7304 59.1578H22.2403C22.1105 59.1578 22.001 59.0716 21.9707 58.9455L19.3302 48.0008C19.2878 47.8254 19.4194 47.6584 19.5998 47.6584H19.5999ZM28.9853 51.8404C28.1194 51.8404 27.4176 52.5422 27.4176 53.4081C27.4176 54.2739 28.1194 54.9757 28.9853 54.9757C29.8511 54.9757 30.553 54.2739 30.553 53.4081C30.553 52.5422 29.8511 51.8404 28.9853 51.8404ZM17.0757 30.0703H15.2563C14.7314 30.0703 14.3019 30.4998 14.3019 31.0247V34.2616C14.3019 34.7865 14.7314 35.216 15.2563 35.216H17.0757C17.2857 35.216 17.4573 35.0442 17.4573 34.8343V30.4522C17.4573 30.2422 17.2856 30.0705 17.0757 30.0705V30.0703ZM40.5132 34.6149C39.0869 35.3257 37.6331 35.8949 36.1611 36.2729C36.7861 35.526 37.2953 34.6787 37.6608 33.7589C38.5912 33.4025 39.5421 32.9599 40.5132 32.4312V30.452C40.5132 30.242 40.685 30.0702 40.8948 30.0702H42.7143C43.2391 30.0702 43.6686 30.4997 43.6686 31.0245V34.2615C43.6686 34.7864 43.2391 35.2158 42.7143 35.2158H40.8948C40.6848 35.2158 40.5132 35.0441 40.5132 34.8342V34.6149ZM19.9196 19.6852C25.1745 15.2594 32.796 15.2594 38.051 19.6852C38.3766 19.9595 38.481 20.3958 38.3149 20.7877L37.7619 22.0921C37.619 22.429 37.1862 22.517 36.923 22.2626C32.4779 17.9644 25.4928 17.9644 21.0477 22.2626C20.7846 22.517 20.3516 22.429 20.2089 22.0921L19.6559 20.7877C19.4897 20.3958 19.5942 19.9593 19.9196 19.6852ZM15.4431 28.1282C15.8376 28.1282 17.0914 28.1056 17.4145 28.1529C17.7291 26.5938 18.3538 25.1431 19.2207 23.8687C18.5748 23.3909 18.4011 22.8037 18.1037 22.1025C16.7667 23.8341 15.832 25.8904 15.443 28.1283L15.4431 28.1282ZM39.8668 22.1025C41.2039 23.8341 42.1385 25.8904 42.5276 28.1282C42.1331 28.1282 40.8793 28.1056 40.556 28.1529C40.2414 26.5938 39.6168 25.1431 38.7498 23.8687C39.3957 23.3908 39.5694 22.8039 39.8668 22.1025ZM12.3348 55.8168C12.2838 56.4967 12.8146 57.0687 13.4964 57.0687H19.52L17.4423 48.4564C17.107 47.0669 18.1711 45.7163 19.5999 45.7163H38.3709C39.7997 45.7163 40.8638 47.0668 40.5285 48.4564L38.4508 57.0687H44.4742C45.1559 57.0687 45.6869 56.4966 45.6358 55.8168C44.9902 47.2121 37.7478 40.3714 28.9853 40.3714C20.2227 40.3714 12.9803 47.2121 12.3348 55.8168Z" fill="#FFA827"/>
</svg>
