<svg width="24" height="24" viewBox="0 0 24 24" fill="none" xmlns="http://www.w3.org/2000/svg">
<path d="M14.4748 11.1078L11.3236 10.8384L11.1719 12.7627L13.9433 12.9934C13.7157 12.724 13.6017 12.3777 13.6776 12.0315C13.7157 11.5696 14.0573 11.2233 14.4748 11.1078Z" fill="#FFA827"/>
<path d="M8.28536 16.9188L6.16022 16.4957C6.19838 16.3032 6.23605 15.5338 6.31188 14.3407C5.09765 14.2251 4.11091 14.0326 3.9211 13.9944C3.31399 13.8789 2.8962 13.2632 3.01019 12.6476C3.12417 12.032 3.73129 11.6083 4.3384 11.7239C4.71803 11.8008 5.32514 11.8777 6.0839 11.9546C5.74243 11.3771 5.13532 10.954 4.37607 10.8771C3.12368 10.7233 1.98529 11.647 1.8713 12.917C1.75732 13.9562 1.64382 15.3031 1.64382 15.8031V15.9569C1.60566 16.6881 1.90946 17.4576 2.55473 17.9581C2.63056 17.9581 5.89458 17.9581 5.66661 17.9581C6.00808 17.9581 6.31188 18.3044 6.31188 18.728V18.8436L6.805 18.9205L6.19789 22.2303C6.0839 22.846 6.50169 23.4616 7.1088 23.5772C7.67825 23.6928 8.32303 23.3078 8.43701 22.6535L9.2721 18.228C9.31026 17.9199 9.2721 17.6123 9.08228 17.343C8.89247 17.0736 8.58916 16.9967 8.28536 16.9198V16.9188Z" fill="#FFA827"/>
<path d="M9.53583 12.3392C8.16946 12.7242 5.5512 12.4548 4.26066 12.1854C3.84336 12.1086 3.46373 12.3779 3.3879 12.8011C3.31207 13.2242 3.57772 13.6092 3.99501 13.6861C5.62702 13.9941 8.28344 14.3017 9.95312 13.8399C10.3704 13.7243 10.5984 13.3011 10.4844 12.878C10.3704 12.4548 9.95312 12.2236 9.53583 12.3392Z" fill="#FFA827"/>
<path d="M20.2348 9.06826C21.4086 9.06826 22.3602 8.10344 22.3602 6.91328C22.3602 5.72312 21.4086 4.7583 20.2348 4.7583C19.061 4.7583 18.1094 5.72312 18.1094 6.91328C18.1094 8.10344 19.061 9.06826 20.2348 9.06826Z" fill="#FFA827"/>
<path d="M4.52387 10.5695C5.69771 10.5695 6.6493 9.60466 6.6493 8.4145C6.6493 7.22434 5.69771 6.25952 4.52387 6.25952C3.35002 6.25952 2.39844 7.22434 2.39844 8.4145C2.39844 9.60466 3.35002 10.5695 4.52387 10.5695Z" fill="#FFA827"/>
<path d="M18.0732 18.651V17.2655H21.4889C22.0583 17.2655 22.2481 16.8036 22.1718 16.2649C22.1718 15.2643 22.1337 11.3388 22.3993 10.3382C21.982 9.7226 21.2986 9.33765 20.5016 9.33765C19.3633 9.33765 18.4523 10.1458 18.2625 11.2619C19.3251 11.1081 19.7047 10.7232 19.7806 10.6463C20.122 10.1076 20.8054 9.95378 21.2986 10.3C21.8299 10.6463 22.0197 11.3393 21.6782 11.8781C21.5265 12.1474 20.6915 13.3405 18.1867 13.6099V15.5724C18.1867 15.7261 18.1867 15.8804 18.2249 16.0342L17.2 16.3423C16.9343 16.4192 16.6687 16.6116 16.5547 16.8423V21.8453C16.8585 21.7297 17.1241 21.499 17.2376 21.1909L18.2625 18.651H18.0727H18.0732Z" fill="#FFA827"/>
<path d="M14.8935 11.493C14.4762 11.4161 14.0965 11.6855 14.0207 12.1087C13.9449 12.5318 14.2105 12.9168 14.6278 12.9937C16.7153 13.3399 20.3203 13.4937 21.3829 11.6468C21.6103 11.3006 21.4968 10.8 21.1172 10.5693C20.7376 10.3387 20.3203 10.4537 20.0923 10.8387C18.9916 11.9931 16.4492 11.7624 14.893 11.493H14.8935Z" fill="#FFA827"/>
<path d="M16.7823 15.2258C16.7823 15.0333 16.6306 14.8408 16.4027 14.8408H8.39525C8.20544 14.8408 8.01562 14.9946 8.01562 15.2258C8.01562 15.4183 8.16728 15.6107 8.39525 15.6107H9.72346V23.923H16.2129V15.6107H16.4027C16.6302 15.6107 16.7823 15.4569 16.7823 15.2258Z" fill="#FFA827"/>
<path d="M23.6544 22.8837V22.1912C23.6544 21.8449 23.3888 21.5369 23.0091 21.5369H21.1873C21.1873 21.4213 21.1873 18.0733 21.1873 18.2657H22.3639C22.971 18.2657 23.2366 17.0727 23.1608 16.3802L22.971 9.76099C22.971 9.76099 22.7435 10.0691 22.6295 10.8772L22.5913 11.8391C22.5913 11.8777 22.5532 16.6108 22.5532 16.6495C22.515 17.0727 22.2875 17.6501 21.4906 17.6501H18.4164V18.3044H20.4281C20.4281 18.3813 20.4281 21.6525 20.4281 21.5756H18.6062C18.2648 21.5756 17.961 21.8449 17.961 22.2299V22.9224C17.8093 23.038 17.6953 23.1918 17.6953 23.4225C17.6953 23.7305 17.961 23.9999 18.2648 23.9999C18.5686 23.9999 18.8342 23.7305 18.8342 23.4225C18.8342 23.23 18.7202 23.0375 18.5686 22.9224V22.2299C18.5686 22.1912 18.6067 22.153 18.6444 22.153H20.4662V22.9611C20.3522 23.0767 20.2764 23.2305 20.2764 23.3843C20.2764 23.6923 20.542 23.9617 20.8458 23.9617C21.1496 23.9617 21.4153 23.6923 21.4153 23.3843C21.4153 23.2305 21.3395 23.0762 21.2255 22.9611V22.1143H23.0473C23.0854 22.1143 23.1231 22.153 23.1231 22.1912V22.8837C22.9715 22.9993 22.8575 23.1531 22.8575 23.3838C22.8575 23.6918 23.1231 23.9612 23.4269 23.9612C23.7307 23.9612 23.9964 23.6918 23.9964 23.3838C23.9205 23.1531 23.8065 22.9606 23.6549 22.8837H23.6544Z" fill="#FFA827"/>
<path d="M5.62256 18.3816H1.44811C1.37229 16.8809 0.954989 11.6086 0.0059177 12.1474C0.119904 13.3786 -0.335552 8.83753 0.688857 18.8052C0.688857 19.0359 0.802844 19.2284 0.954499 19.2284H1.59977L1.22014 23.9233H1.78958L2.16921 19.1897H4.44649L4.82612 23.9233H5.39556L5.01594 19.1897H5.66121C5.81286 19.1897 5.92685 19.0359 5.92685 18.8047V18.766C5.88869 18.5736 5.77519 18.3811 5.62305 18.3811L5.62256 18.3816Z" fill="#FFA827"/>
<path d="M11.024 1.36372H10.7906V1.12213C10.7906 1.03432 10.7201 0.963379 10.634 0.963379H10.4201C10.334 0.963379 10.2635 1.03432 10.2635 1.12213V1.36372H10.0629C9.97623 1.36372 9.90625 1.43515 9.90625 1.52296V1.73925C9.90625 1.82706 9.97623 1.898 10.0629 1.898H10.2635V2.1639C10.2635 2.2517 10.334 2.32264 10.4201 2.32314H10.634C10.7201 2.32264 10.7906 2.2517 10.7906 2.1639V1.898H11.024C11.1106 1.898 11.1811 1.82706 11.1811 1.73925V1.52296C11.1811 1.43515 11.1106 1.36372 11.024 1.36372ZM11.0803 1.73925C11.0803 1.7705 11.0553 1.7958 11.0245 1.7958H10.7402C10.7123 1.7958 10.6898 1.81862 10.6898 1.8469V2.1639C10.6898 2.19565 10.6648 2.22095 10.634 2.22095H10.4201C10.3893 2.22095 10.3643 2.19565 10.3643 2.1639V1.8469C10.3643 1.81912 10.3418 1.7958 10.3139 1.7958H10.0629C10.032 1.7958 10.0071 1.7705 10.0066 1.73925V1.52296C10.0071 1.49121 10.032 1.46591 10.0629 1.46591H10.3139C10.3418 1.46591 10.3643 1.44309 10.3643 1.41481V1.12213C10.3643 1.09087 10.3893 1.06557 10.4201 1.06557H10.634C10.6648 1.06557 10.6898 1.09087 10.6898 1.12213V1.41481C10.6898 1.44309 10.7123 1.46591 10.7402 1.46591H11.0245C11.0553 1.46591 11.0803 1.49121 11.0803 1.52296V1.73925Z" fill="#FFA827"/>
<path d="M15.8747 0H7.67742C7.33595 0 7.07031 0.26937 7.07031 0.615632V5.88794C7.07031 6.23421 7.33595 6.50358 7.67742 6.50358H13.522C13.7877 6.96543 14.7363 7.77354 15.4192 8.31228C15.609 8.46656 15.8747 8.23538 15.7988 8.00471L15.0777 6.50358H15.8747C16.2161 6.50358 16.4823 6.23421 16.4823 5.88794V0.615632C16.4823 0.26937 16.2161 0 15.8747 0ZM10.5413 0.745109H10.554C11.0373 0.752054 11.4287 1.15636 11.4272 1.64698C11.4272 1.92428 11.2991 2.18572 11.0818 2.35438C11.0491 2.38018 11.0324 2.42185 11.0393 2.46352C11.0437 2.48882 11.0564 2.51214 11.075 2.5295L11.2037 2.65501C11.2125 2.66344 11.213 2.67832 11.2037 2.68725C11.1983 2.69321 11.19 2.69569 11.1821 2.6937L10.5525 2.5424C10.5486 2.54141 10.5447 2.54091 10.5408 2.54091C10.0521 2.54041 9.6558 2.13909 9.65531 1.64301C9.65531 1.14743 10.0516 0.745109 10.5408 0.745109H10.5413ZM13.3513 3.9582C13.1405 3.9582 13.0221 3.85849 12.9164 3.69379H12.4947L11.8382 4.35953H12.1801C12.2917 4.18987 12.4189 4.08818 12.64 4.08818C12.8802 4.08818 13.1992 4.21269 13.3371 4.42204C13.1992 4.63088 12.8802 4.7554 12.64 4.7554C12.3998 4.7554 12.2809 4.64477 12.1655 4.46172H11.7374L10.9855 5.22419H11.3441C11.4634 5.04461 11.5994 4.93696 11.8352 4.93696C12.0931 4.93696 12.4355 5.07041 12.5828 5.29563C12.4355 5.52134 12.0931 5.65479 11.8352 5.65479C11.5774 5.65479 11.4439 5.53077 11.3176 5.32639H10.8847L10.6836 5.53027C10.5207 5.69001 10.371 5.75896 10.2257 5.75896C10.009 5.75896 9.80109 5.60568 9.56921 5.37103C9.56921 5.37103 9.56904 5.37087 9.56872 5.37054C9.54915 5.35069 9.54964 5.31845 9.56921 5.2986C9.58878 5.27876 9.62057 5.27876 9.64014 5.2986C9.85393 5.51539 10.0134 5.62354 10.1582 5.65082C10.306 5.6781 10.4503 5.61659 10.6132 5.45785L10.8402 5.22717C10.8402 5.22717 10.8402 5.2227 10.8402 5.22072V4.78467C10.62 4.64229 10.487 4.48355 10.487 4.19731C10.487 3.91108 10.6381 3.5033 10.8925 3.33513C11.1469 3.5033 11.2981 3.89967 11.2981 4.19731C11.2981 4.49496 11.1631 4.64428 10.941 4.78715V5.12547L11.7623 4.29256V3.86296C11.5588 3.7305 11.4355 3.58218 11.4355 3.31677C11.4355 3.05137 11.576 2.66989 11.8127 2.51214C12.0495 2.66989 12.1899 3.03897 12.1899 3.31677C12.1899 3.59458 12.0666 3.73001 11.8631 3.86246V4.19037L12.616 3.4269V3.00276C12.4301 2.88072 12.3176 2.7438 12.3176 2.49973C12.3176 2.24177 12.4477 1.89948 12.6664 1.75215C12.8851 1.89948 13.0152 2.24177 13.0152 2.49973C13.0152 2.7438 12.9027 2.88072 12.7163 3.00325V3.32521L13.3058 2.72743C13.2853 2.59994 13.3024 2.49378 13.4036 2.39109C13.5338 2.25914 13.75 2.17976 13.9012 2.20407C13.9256 2.35786 13.8469 2.57663 13.7167 2.70858C13.6121 2.81524 13.5034 2.83012 13.3714 2.80532L12.596 3.5916H12.9267C13.0299 3.43583 13.1478 3.34257 13.3513 3.34257H13.3518C13.5998 3.34257 13.8816 3.4785 13.9985 3.65014C13.8816 3.82228 13.5998 3.9582 13.3518 3.9582H13.3513Z" fill="#FFA827"/>
</svg>
