<svg width="26" height="26" viewBox="0 0 26 26" fill="none" xmlns="http://www.w3.org/2000/svg">
<path d="M25.9474 16.6558C25.839 17.0315 25.6006 17.3349 25.261 17.53L22.9346 18.8304V21.4892C22.9346 22.2839 22.2844 22.9341 21.4897 22.9341H18.8237L17.5305 25.2605C17.3354 25.6001 17.0319 25.8385 16.6562 25.9469C16.2878 26.048 15.8976 26.0047 15.5581 25.8169L13.0005 24.3863L10.4429 25.8169C10.2189 25.9397 9.9805 25.9975 9.73486 25.9975C9.60474 25.9975 9.47477 25.983 9.34472 25.9469C8.96903 25.8385 8.66558 25.6001 8.47051 25.2605L7.17727 22.9341H4.51131C3.71657 22.9341 3.06634 22.2839 3.06634 21.4892V18.8304L0.739944 17.53C0.400377 17.3349 0.161957 17.0315 0.0535848 16.6558C-0.0475628 16.2873 -0.00421362 15.8972 0.183632 15.5576L1.61415 13L0.183632 10.4424C-0.206509 9.7416 0.0463602 8.86017 0.739944 8.47003L3.06634 7.16956V4.51082C3.06634 3.71609 3.71657 3.06585 4.51131 3.06585H7.17727L8.47051 0.739459C8.66558 0.399892 8.96903 0.161472 9.34472 0.0530994C9.71319 -0.0480482 10.1033 -0.00469927 10.4429 0.183219L13.0005 1.61374L15.5581 0.183219C15.8976 -0.00462701 16.2877 -0.047976 16.6562 0.0530994C17.0319 0.161472 17.3354 0.399892 17.5305 0.739459L18.8237 3.06585H21.4897C22.2844 3.06585 22.9346 3.71609 22.9346 4.51082V7.16956L25.261 8.47003C25.9546 8.86017 26.2075 9.7416 25.8173 10.4424L24.3868 13L25.8173 15.5576C26.0052 15.8972 26.0485 16.2873 25.9474 16.6558Z" fill="url(#paint0_linear_1069_3608)"/>
<path d="M11.5536 17.3346C11.3687 17.3346 11.1839 17.264 11.0428 17.1229L7.4304 13.5105C7.1482 13.2283 7.1482 12.7711 7.4304 12.4889C7.7126 12.2066 8.16979 12.2067 8.45207 12.4889L11.5537 15.5905L18.2677 8.87645C18.5499 8.59424 19.0071 8.59424 19.2894 8.87645C19.5717 9.15865 19.5716 9.61584 19.2894 9.89811L12.0646 17.1229C11.9235 17.264 11.7384 17.3346 11.5536 17.3346Z" fill="white"/>
<defs>
<linearGradient id="paint0_linear_1069_3608" x1="13.0005" y1="26.0004" x2="13.0005" y2="0.000359535" gradientUnits="userSpaceOnUse">
<stop stop-color="#0064E1"/>
<stop offset="0.9944" stop-color="#26B7FF"/>
</linearGradient>
</defs>
</svg>
