<svg width="60" height="60" viewBox="0 0 60 60" fill="none" xmlns="http://www.w3.org/2000/svg">
<g clip-path="url(#clip0_485_280)">
<path d="M1.46341 36.4966H4.39024V55.4747C4.39024 56.2776 3.73171 56.9345 2.92683 56.9345H1.46341C0.658537 56.9345 0 56.2776 0 55.4747V37.9564C0 37.1535 0.658537 36.4966 1.46341 36.4966Z" fill="#9F2C2C"/>
<path d="M58.5369 41.6788C57.6588 41.2409 56.5613 41.3139 55.7564 41.9708C55.6832 41.9708 55.6101 42.0438 55.6101 42.1168L45.2198 48.0292C44.1223 48.6861 42.8784 48.9781 41.5613 48.9781H19.0247C18.732 48.9781 18.5125 48.9051 18.293 48.7591C17.854 48.5401 17.5613 48.0292 17.5613 47.5182C17.5613 47.1533 17.7076 46.7883 17.9271 46.4963C18.2198 46.2044 18.5857 46.0584 19.0247 46.0584H37.3174C38.5613 46.0584 39.5125 45.0365 39.5125 43.8686C39.5125 42.6277 38.5613 41.6788 37.3174 41.6788H23.4149C23.1223 41.6788 22.8296 41.6058 22.5369 41.3869L20.4149 39.781C17.6345 37.6642 14.3418 36.5693 11.0491 36.5693H7.31738V53.2847L7.5369 53.4306L17.7076 59.4161C18.3662 59.781 19.171 60 19.9027 60H37.0247C37.9027 60 38.7076 59.708 39.4393 59.2701L59.0491 46.2044C59.6345 45.6934 60.0003 44.9635 60.0003 44.1606C60.0003 42.9927 59.4149 42.1168 58.5369 41.6788Z" fill="#FFA827"/>
<path d="M52.1704 6.64234C50.9265 2.91971 47.7802 0.218978 44.4143 0H43.829C40.6095 0 37.4631 1.60584 35.5607 4.30657C35.268 4.67153 34.829 4.89051 34.39 4.89051C33.9509 4.89051 33.5119 4.67153 33.2192 4.30657C31.3168 1.60584 28.1704 0 24.9509 0H24.3656C20.9997 0.218978 17.7802 2.91971 16.6095 6.64234C15.0729 11.3869 17.0485 16.4964 22.0973 20.5839L34.39 30.292L46.7558 20.5839C51.7314 16.4964 53.707 11.3869 52.1704 6.64234ZM38.7802 16.7883H35.8534V19.708C35.8534 20.5109 35.1948 21.1679 34.39 21.1679C33.5851 21.1679 32.9265 20.5109 32.9265 19.708V16.7883H29.9997C29.1948 16.7883 28.5363 16.1314 28.5363 15.3285C28.5363 14.5255 29.1948 13.8686 29.9997 13.8686H32.9265V10.9489C32.9265 10.146 33.5851 9.48905 34.39 9.48905C35.1948 9.48905 35.8534 10.146 35.8534 10.9489V13.8686H38.7802C39.5851 13.8686 40.2436 14.5255 40.2436 15.3285C40.2436 16.1314 39.5851 16.7883 38.7802 16.7883Z" fill="#FFA827"/>
</g>
<defs>
<clipPath id="clip0_485_280">
<rect width="60" height="60" fill="white"/>
</clipPath>
</defs>
</svg>
