<svg width="22" height="22" viewBox="0 0 22 22" fill="none" xmlns="http://www.w3.org/2000/svg">
<path d="M19.6465 16.06C19.0623 15.5561 15.6361 13.3244 15.0666 13.4269C14.7992 13.4757 14.5947 13.7101 14.0473 14.3818C13.7941 14.7124 13.5161 15.0221 13.2158 15.3079C12.6655 15.1712 12.1329 14.9681 11.629 14.7029C9.6527 13.7132 8.05612 12.0705 7.09454 10.0375C6.83669 9.51917 6.63926 8.97134 6.50634 8.40538C6.78422 8.09648 7.08525 7.81052 7.40668 7.55013C8.05904 6.98706 8.28763 6.77806 8.33509 6.50169C8.43468 5.91456 6.26304 2.39181 5.77511 1.79094C5.57058 1.54206 5.38476 1.375 5.14681 1.375C4.45702 1.375 1.33691 5.34325 1.33691 5.8575C1.33691 5.89944 1.40375 10.0306 6.47626 15.3388C11.637 20.5563 15.6534 20.625 15.6942 20.625C16.1942 20.625 20.0522 17.4157 20.0522 16.7062C20.0522 16.4615 19.8898 16.2704 19.6465 16.06Z" fill="white"/>
<path d="M15.3737 10.3125H16.7105C16.7089 8.85431 16.145 7.45632 15.1426 6.42522C14.1401 5.39413 12.781 4.81414 11.3633 4.8125V6.1875C12.4266 6.18859 13.446 6.62354 14.1979 7.39689C14.9498 8.17024 15.3726 9.21882 15.3737 10.3125Z" fill="white"/>
<path d="M18.7157 10.3125H20.0525C20.0499 7.94297 19.1335 5.67126 17.5046 3.99575C15.8756 2.32023 13.667 1.37773 11.3633 1.375V2.75C13.3126 2.75237 15.1813 3.54989 16.5597 4.96762C17.938 6.38535 18.7134 8.30753 18.7157 10.3125Z" fill="white"/>
</svg>
