<svg width="67" height="60" viewBox="0 0 67 60" fill="none" xmlns="http://www.w3.org/2000/svg">
<path d="M20.5319 37.1282H31.2835V32.5202H24.93V21.7651C24.93 16.9568 21.2099 13.0591 16.621 13.0591H14.5436H12.4663C7.87723 13.0591 4.15723 16.957 4.15723 21.7651V24.0692H20.5321V37.1282H20.5319Z" fill="#F09D22"/>
<path d="M33.2413 41.2271H20.5342V47.8842H29.0868V60.0002H35.4403V43.5311C35.4403 42.2606 34.4538 41.2271 33.2413 41.2271Z" fill="#F09D22"/>
<path d="M35.1914 37.4664C37.6041 38.323 39.3459 40.7167 39.3459 43.5302V44.2106H43.2571V40.1126H47.1682V44.2106H51.0793V48.3086H47.1682V52.4066H43.2571V48.3086H39.3459V59.9992H66.7493V32.52H35.1914V37.4664Z" fill="#F09D22"/>
<path d="M50.1264 28.4222H62.5948V21.7651C62.5948 16.9568 58.8747 13.0591 54.2858 13.0591H52.2084H50.1311C46.2159 13.0591 42.9353 15.8971 42.0557 19.7161H49.0877L50.1264 28.4222Z" fill="#F09D22"/>
<path d="M52.2104 13.0592C55.6521 13.0592 58.4422 10.1358 58.4422 6.5296C58.4422 2.9234 55.6521 0 52.2104 0C48.7686 0 45.9785 2.9234 45.9785 6.5296C45.9785 10.1358 48.7686 13.0592 52.2104 13.0592Z" fill="#F09D22"/>
<path d="M14.5434 13.0592C17.9852 13.0592 20.7753 10.1358 20.7753 6.5296C20.7753 2.9234 17.9852 0 14.5434 0C11.1016 0 8.31152 2.9234 8.31152 6.5296C8.31152 10.1358 11.1016 13.0592 14.5434 13.0592Z" fill="#F09D22"/>
<path d="M46.1899 28.4225L45.6402 23.8145H35.7334L36.283 28.4225H46.1899Z" fill="#F09D22"/>
<path d="M16.6183 28.1675H0V59.9997H3.91113V47.8837H12.7071V59.9997H16.6183V28.1675Z" fill="#F09D22"/>
</svg>
