<svg width="62" height="60" viewBox="0 0 62 60" fill="none" xmlns="http://www.w3.org/2000/svg">
<path fill-rule="evenodd" clip-rule="evenodd" d="M29.9346 21.0587C24.7874 21.0587 20.6148 25.2313 20.6148 30.3786C20.6148 35.5259 24.7874 39.6984 29.9346 39.6984C32.7627 39.6984 35.2964 38.4384 37.0056 36.4494C35.8032 36.7344 34.6247 36.8857 33.4701 36.9035C32.9184 36.91 32.4658 36.468 32.4593 35.9163C32.4528 35.3645 32.8948 34.912 33.4465 34.9055C35.1024 34.883 36.8434 34.5185 38.5693 33.8904C41.0364 27.8325 36.6044 21.0585 29.9344 21.0585L29.9346 21.0587ZM9.61439 1.84769C14.9244 1.84769 19.2289 6.15219 19.2289 11.4622C19.2289 14.6481 17.6795 17.472 15.293 19.2214L14.2717 23.1706L9.61439 21.0766C4.39915 21.266 0 16.7721 0 11.4622C0 6.15231 4.30438 1.84769 9.61439 1.84769ZM5.78175 14.2633C7.63257 17.5117 12.2831 17.5884 14.2435 14.4096C14.5333 13.9401 14.3877 13.3244 13.9183 13.0345C13.4488 12.7446 12.8331 12.8902 12.5432 13.3597C11.3751 15.254 8.609 15.189 7.52112 13.276C7.24846 12.7958 6.63808 12.6274 6.15783 12.9C5.67757 13.1725 5.50921 13.783 5.78175 14.2633ZM12.9154 7.48464C12.2925 7.48464 11.7874 7.98972 11.7874 8.61264C11.7874 9.23555 12.2925 9.74063 12.9154 9.74063C13.5383 9.74063 14.0434 9.23555 14.0434 8.61264C14.0434 7.98972 13.5383 7.48464 12.9154 7.48464ZM7.12937 7.48464C6.50646 7.48464 6.00138 7.98972 6.00138 8.61264C6.00138 9.23555 6.50646 9.74063 7.12937 9.74063C7.75229 9.74063 8.25737 9.23555 8.25737 8.61264C8.25737 7.98972 7.75229 7.48464 7.12937 7.48464ZM39.3152 0H60.388C61.2362 0 61.9279 0.751536 61.9279 1.67293V13.8463C61.9279 14.7677 61.2362 15.5192 60.388 15.5192H47.9698C47.5774 15.5192 47.2399 15.6586 46.9467 15.9418L43.8962 18.8876L43.4127 16.7865C43.2391 16.032 42.6346 15.5194 41.9188 15.5194H39.3152C38.467 15.5194 37.7752 14.7678 37.7752 13.8464V1.67293C37.7752 0.751536 38.467 0 39.3152 0ZM42.4233 5.0178H57.1804C57.7342 5.0178 58.1833 4.56876 58.1833 4.01492C58.1833 3.46108 57.7342 3.01203 57.1804 3.01203H42.4233C41.8695 3.01203 41.4205 3.46108 41.4205 4.01492C41.4205 4.56876 41.8695 5.0178 42.4233 5.0178ZM45.9714 12.1642H53.6323C54.1862 12.1642 54.6352 11.7152 54.6352 11.1613C54.6352 10.6075 54.1862 10.1585 53.6323 10.1585H45.9714C45.4176 10.1585 44.9685 10.6075 44.9685 11.1613C44.9685 11.7152 45.4176 12.1642 45.9714 12.1642ZM44.0073 8.59107H55.5965C56.1503 8.59107 56.5993 8.14203 56.5993 7.58819C56.5993 7.03435 56.1503 6.58531 55.5965 6.58531H44.0073C43.4534 6.58531 43.0044 7.03435 43.0044 7.58819C43.0044 8.14203 43.4534 8.59107 44.0073 8.59107ZM20.2418 48.124H39.6276C39.8138 48.124 39.9497 48.2966 39.906 48.4776L37.179 59.7807C37.1475 59.911 37.0345 60 36.9006 60H22.9687C22.8347 60 22.7216 59.911 22.6902 59.7807L19.9633 48.4776C19.9195 48.2965 20.0554 48.124 20.2417 48.124H20.2418ZM29.9346 52.4429C29.0404 52.4429 28.3155 53.1677 28.3155 54.0619C28.3155 54.9561 29.0404 55.681 29.9346 55.681C30.8288 55.681 31.5536 54.9561 31.5536 54.0619C31.5536 53.1677 30.8288 52.4429 29.9346 52.4429ZM17.635 29.9599H15.7559C15.2139 29.9599 14.7703 30.4034 14.7703 30.9455V34.2885C14.7703 34.8305 15.2139 35.274 15.7559 35.274H17.635C17.8518 35.274 18.0291 35.0967 18.0291 34.8799V30.3543C18.0291 30.1374 17.8517 29.96 17.635 29.96V29.9599ZM41.84 34.6533C40.3671 35.3874 38.8656 35.9752 37.3454 36.3656C37.9908 35.5942 38.5167 34.7192 38.8942 33.7692C39.8551 33.4012 40.8372 32.9441 41.84 32.398V30.354C41.84 30.1371 42.0174 29.9598 42.2342 29.9598H44.1132C44.6553 29.9598 45.0988 30.4033 45.0988 30.9453V34.2883C45.0988 34.8304 44.6553 35.2739 44.1132 35.2739H42.2342C42.0173 35.2739 41.84 35.0965 41.84 34.8798V34.6533ZM20.572 19.2347C25.999 14.6639 33.8701 14.6639 39.2972 19.2347C39.6334 19.5179 39.7413 19.9685 39.5698 20.3732L38.9986 21.7203C38.8511 22.0683 38.404 22.1592 38.1323 21.8965C33.5416 17.4574 26.3277 17.4574 21.737 21.8965C21.4653 22.1592 21.0182 22.0683 20.8708 21.7203L20.2996 20.3732C20.128 19.9685 20.2359 19.5177 20.572 19.2347ZM15.9489 27.9541C16.3563 27.9541 17.6511 27.9308 17.9848 27.9797C18.3098 26.3694 18.9549 24.8713 19.8502 23.5551C19.1831 23.0617 19.0038 22.4553 18.6966 21.7311C17.3158 23.5194 16.3505 25.6431 15.9487 27.9542L15.9489 27.9541ZM41.1725 21.7311C42.5533 23.5194 43.5186 25.6431 43.9204 27.9541C43.513 27.9541 42.2181 27.9308 41.8843 27.9797C41.5594 26.3694 40.9143 24.8713 40.0189 23.5551C40.686 23.0616 40.8654 22.4554 41.1725 21.7311ZM12.7387 56.5496C12.6861 57.2517 13.2343 57.8424 13.9384 57.8424H20.1593L18.0135 48.9481C17.6673 47.5131 18.7662 46.1182 20.2418 46.1182H39.6276C41.1032 46.1182 42.2021 47.513 41.8558 48.9481L39.71 57.8424H45.9308C46.6348 57.8424 47.1832 57.2516 47.1304 56.5496C46.4637 47.663 38.9841 40.5983 29.9346 40.5983C20.885 40.5983 13.4054 47.663 12.7387 56.5496Z" fill="#F09D22"/>
</svg>
