<svg width="60" height="60" viewBox="0 0 60 60" fill="none" xmlns="http://www.w3.org/2000/svg">
<g clip-path="url(#clip0_1033_3555)">
<g clip-path="url(#clip1_1033_3555)">
<path fill-rule="evenodd" clip-rule="evenodd" d="M42.6282 41.9363C41.6582 41.9363 40.6931 41.8304 39.7231 41.556C36.818 40.7952 34.4315 38.9559 32.9141 36.3896C29.8362 31.0499 31.6705 24.1887 37.0293 21.0687C42.3209 17.9486 49.1971 19.7879 52.3087 25.1613C55.3867 30.501 53.5524 37.3622 48.1935 40.4823C46.4649 41.4549 44.5633 41.9363 42.6282 41.9363ZM42.6282 38.6767C41.9368 38.6767 41.2453 38.5708 40.5538 38.3974C38.5467 37.8437 36.8564 36.4907 35.8192 34.6514C34.7484 32.8507 34.4699 30.631 35.0221 28.5847C35.5743 26.5721 36.8564 24.9109 38.6523 23.9383C42.489 21.7524 47.1899 23.0043 49.4036 26.7791C50.4744 28.5799 50.7529 30.6984 50.2343 32.7785C49.6821 34.8248 48.4 36.5244 46.6041 37.5981H46.5705C45.3268 38.2915 43.9775 38.6719 42.6282 38.6719V38.6767Z" fill="#FFA827"/>
<path fill-rule="evenodd" clip-rule="evenodd" d="M56.697 58.5075C56.4185 58.5075 56.1448 58.4738 55.8663 58.4016C55.0019 58.1609 54.3105 57.6023 53.8975 56.8416L47.0885 45.2955V45.2281C46.882 44.814 46.8484 44.3277 47.0213 43.8414C47.1606 43.3888 47.4727 42.9747 47.8856 42.7677L50.373 41.2751H50.4402C51.2709 40.861 52.2361 41.1018 52.8267 41.8625C52.8267 41.8625 52.8603 41.8962 52.8603 41.9299L59.5685 53.5771C60.4664 55.1034 59.9142 57.1112 58.3584 58.0501C57.8398 58.3631 57.254 58.5027 56.697 58.5027V58.5075Z" fill="#FFA827"/>
<path fill-rule="evenodd" clip-rule="evenodd" d="M50.8911 42.8021C50.7182 42.8021 49.6138 43.2547 48.9223 43.4281C48.956 43.7073 48.8167 44.0155 48.543 44.1888C48.4374 44.2562 48.3029 44.2948 48.13 44.2948C47.8515 44.2948 47.6114 44.1551 47.4386 43.9144L45.6043 40.9003C45.3642 40.5199 45.4986 40.0336 45.8828 39.7928C46.1613 39.6195 46.507 39.6532 46.7807 39.8266C47.2321 39.2391 48.3701 38.3339 48.6486 38.1606C49.028 37.9536 49.5466 38.0547 49.7531 38.4736L51.621 41.5936C51.8274 41.974 51.7266 42.4603 51.3088 42.701C51.1696 42.7684 51.0303 42.807 50.8959 42.807L50.8911 42.8021Z" fill="#FFA827"/>
<path fill-rule="evenodd" clip-rule="evenodd" d="M19.9095 30.1824C19.7703 30.1824 19.631 30.1487 19.5302 30.115C19.3909 30.0476 16.0056 28.2757 13.0669 24.6742C10.3683 21.3471 7.56882 15.6945 9.67682 7.92808C9.74405 7.58141 10.0226 7.34067 10.3683 7.34067C15.3814 6.88807 19.218 2.03467 19.2517 1.96726C19.4245 1.79393 19.6646 1.6543 19.9095 1.6543C20.1544 1.6543 20.3945 1.79393 20.5337 1.96726C20.5674 2.03467 24.4424 6.88807 29.4171 7.34067C29.7629 7.34067 30.0414 7.58141 30.1422 7.92808C32.2502 15.6945 29.4507 21.3423 26.7185 24.6742C23.7798 28.2806 20.3897 30.0476 20.2552 30.115C20.1496 30.1487 20.0152 30.1824 19.9095 30.1824ZM22.1952 22.002H17.595C17.1437 22.002 16.7979 21.6216 16.7979 21.169V19.089H14.7235C14.2722 19.089 13.8928 18.7423 13.8928 18.2897V13.5422C13.8928 13.0896 14.2722 12.743 14.7235 12.743H16.7979V10.6629C16.7979 10.2103 17.1437 9.86366 17.595 9.86366H22.1952C22.6465 9.86366 23.0259 10.2103 23.0259 10.6629V12.743H25.1003C25.5517 12.743 25.8974 13.0896 25.8974 13.5422V18.2897C25.8974 18.7423 25.5517 19.089 25.1003 19.089H23.0259V21.169C23.0259 21.6216 22.6465 22.002 22.1952 22.002ZM18.3921 20.3745H21.3981V18.2945C21.3981 17.8419 21.7438 17.4952 22.1952 17.4952H24.2696V14.3752H22.1952C21.7438 14.3752 21.3981 13.9948 21.3981 13.5422V11.4622H18.3921V13.5422C18.3921 13.9948 18.0464 14.3752 17.595 14.3752H15.5206V17.4952H17.595C18.0464 17.4952 18.3921 17.8419 18.3921 18.2945V20.3745Z" fill="#FFA827"/>
<path fill-rule="evenodd" clip-rule="evenodd" d="M53.4453 55.49H4.56273C4.11136 55.49 3.76562 55.1434 3.76562 54.6908V8.82907C3.76562 8.37647 4.11136 7.99609 4.56273 7.99609C5.0141 7.99609 5.39344 8.37647 5.39344 8.82907V53.8963H53.4501C53.9015 53.8963 54.2472 54.243 54.2472 54.6956C54.2472 55.1482 53.9015 55.4948 53.4501 55.4948L53.4453 55.49Z" fill="#FFA827"/>
<path fill-rule="evenodd" clip-rule="evenodd" d="M47.9137 22.5564C47.7072 22.5564 47.5007 22.489 47.3278 22.3157C47.0157 22.0027 47.0157 21.4827 47.3278 21.1697L51.6495 16.976C51.4094 16.4897 51.371 15.9022 51.371 15.623C51.371 14.0967 52.5474 12.8496 53.9976 12.8496C55.5534 12.8496 56.7634 14.063 56.7634 15.623C56.7634 17.183 55.5534 18.3963 53.9976 18.3963C53.6182 18.3963 53.2005 18.2904 52.8211 18.0834L48.4659 22.3494C48.293 22.489 48.1201 22.5564 47.9137 22.5564Z" fill="#FFA827"/>
<path fill-rule="evenodd" clip-rule="evenodd" d="M41.1066 31.3625C40.1367 31.3625 39.3108 30.8762 38.8258 30.1154L34.2977 31.4347C33.8847 31.5406 33.4333 31.295 33.2941 30.881C33.1884 30.4284 33.4333 29.9806 33.8463 29.8747L38.3408 28.5939C38.408 27.0676 39.5845 25.9265 41.1066 25.9265C41.5196 25.9265 41.971 26.0661 42.3839 26.2731L46.187 22.3538C46.4991 22.0409 47.0177 22.0071 47.3298 22.3201C47.6419 22.6331 47.6755 23.1531 47.3634 23.4661L43.5604 27.3854C43.7668 27.7657 43.8725 28.2183 43.8725 28.7046C43.8725 30.1587 42.6288 31.3721 41.1066 31.3721V31.3625Z" fill="#FFA827"/>
<path fill-rule="evenodd" clip-rule="evenodd" d="M4.56432 55.4893C4.42506 55.4893 4.28581 55.4556 4.18497 55.3834C3.80563 55.1763 3.66638 54.6563 3.87285 54.276L10.9267 42.1425C10.4081 41.6225 10.096 40.9291 10.096 40.2358C10.096 38.7817 11.3397 37.5683 12.8619 37.5683C14.384 37.5683 15.6277 38.7817 15.6277 40.2358C15.6277 40.4765 15.5941 40.7221 15.5221 40.9291L22.1246 44.7425C22.5039 44.3621 22.9553 44.0829 23.4739 43.9817V35.729C22.4031 35.4161 21.6396 34.4098 21.6396 33.1964C21.6396 31.6027 22.7824 30.4231 24.2662 30.4231C25.2698 30.4231 26.1677 30.9094 26.6863 31.6701L32.0115 30.216C32.4629 30.1101 32.9095 30.3556 33.0151 30.7697C33.1208 31.2223 32.8759 31.6701 32.4629 31.776L27.0368 33.2301C27.0368 34.4772 26.2397 35.4498 25.1017 35.7628V44.2562C26.0333 44.6703 26.6911 45.6092 26.6911 46.7166C26.6911 48.2429 25.5147 49.49 24.0645 49.49C22.5087 49.49 21.2987 48.2766 21.2987 46.7166C21.2987 46.5096 21.2987 46.3362 21.3323 46.1629L14.6962 42.3495C14.2448 42.7636 13.5917 43.0091 12.8619 43.0091C12.689 43.0091 12.4825 42.9754 12.3097 42.9417L5.28939 55.1089C5.11653 55.3497 4.83802 55.4893 4.56432 55.4893Z" fill="#FFA827"/>
<path fill-rule="evenodd" clip-rule="evenodd" d="M1.79802 12.4006C1.59154 12.4006 1.38506 12.3332 1.24581 12.1599C0.933689 11.8469 0.933689 11.3269 1.24581 11.014L4.01166 8.24058C4.32378 7.92762 4.84237 7.92762 5.15449 8.24058C5.46661 8.55355 5.46661 9.07356 5.15449 9.38653L2.38864 12.1599C2.21578 12.3332 2.0093 12.4006 1.80282 12.4006H1.79802Z" fill="#FFA827"/>
<path fill-rule="evenodd" clip-rule="evenodd" d="M7.32949 12.4006C7.12301 12.4006 6.91654 12.3332 6.77728 12.1599L4.01143 9.38653C3.69931 9.07356 3.69931 8.55355 4.01143 8.24058C4.32355 7.92762 4.84215 7.92762 5.15427 8.24058L7.92012 11.014C8.23223 11.3269 8.23223 11.8469 7.92012 12.1599C7.74725 12.3332 7.54077 12.4006 7.33429 12.4006H7.32949Z" fill="#FFA827"/>
</g>
</g>
<defs>
<clipPath id="clip0_1033_3555">
<rect width="60" height="60" fill="white"/>
</clipPath>
<clipPath id="clip1_1033_3555">
<rect width="59" height="58" fill="white" transform="translate(1 0.507812)"/>
</clipPath>
</defs>
</svg>
