<svg width="24" height="24" viewBox="0 0 24 24" fill="none" xmlns="http://www.w3.org/2000/svg">
<path d="M17.1794 0.501429C17.1792 0.368511 17.1245 0.241103 17.0274 0.147116C16.9302 0.0531284 16.7985 0.000226629 16.6611 0H16.4636C16.3262 0.000226629 16.1945 0.0531284 16.0974 0.147116C16.0002 0.241103 15.9455 0.368511 15.9453 0.501429V2.70429C15.9455 2.8372 16.0002 2.96461 16.0974 3.0586C16.1945 3.15259 16.3262 3.20549 16.4636 3.20572H16.6611C16.7985 3.20549 16.9302 3.15259 17.0274 3.0586C17.1245 2.96461 17.1792 2.8372 17.1794 2.70429V1.50429C17.1794 1.50129 17.1794 1.49829 17.1794 1.49529C17.1794 1.49229 17.1794 1.48929 17.1794 1.48586V0.501429Z" fill="#FFA827"/>
<path d="M21.7267 0.501429C21.7266 0.368477 21.672 0.241002 21.5748 0.14699C21.4776 0.0529789 21.3459 0.000113489 21.2085 0H21.0109C20.8734 0.000113281 20.7416 0.052965 20.6444 0.146964C20.5472 0.240964 20.4924 0.368437 20.4922 0.501429V2.70429C20.4924 2.83728 20.5472 2.96475 20.6444 3.05875C20.7416 3.15275 20.8734 3.2056 21.0109 3.20572H21.2085C21.3459 3.2056 21.4776 3.15274 21.5748 3.05873C21.672 2.96471 21.7266 2.83724 21.7267 2.70429V0.501429Z" fill="#FFA827"/>
<path d="M13.1643 13.9674V11.8816H10.8485V13.9674C10.8485 14.0811 10.8018 14.1901 10.7187 14.2705C10.6356 14.3509 10.523 14.396 10.4055 14.396H8.25V16.6362H10.4055C10.523 16.6362 10.6356 16.6813 10.7187 16.7617C10.8018 16.8421 10.8485 16.9511 10.8485 17.0647V19.1502H13.1643V17.0647C13.1643 16.9511 13.211 16.8421 13.294 16.7617C13.3771 16.6813 13.4898 16.6362 13.6073 16.6362H15.7627V14.396H13.6073C13.4898 14.396 13.3771 14.3509 13.294 14.2705C13.211 14.1901 13.1643 14.0811 13.1643 13.9674Z" fill="#FFA827"/>
<path d="M24 8.97632C24 7.87175 23.1046 6.97632 22 6.97632H2C0.895432 6.97632 0 7.87175 0 8.97632V22C0 23.1046 0.895431 24 2 24H22C23.1046 24 24 23.1046 24 22V8.97632ZM12 22.8035C10.5106 22.8035 9.05469 22.3762 7.81631 21.5756C6.57793 20.775 5.61274 19.6372 5.04277 18.3059C4.47281 16.9746 4.32368 15.5097 4.61425 14.0964C4.90481 12.6831 5.62202 11.3849 6.67517 10.366C7.72832 9.34705 9.07012 8.65315 10.5309 8.37203C11.9917 8.09091 13.5058 8.23519 14.8818 8.78663C16.2578 9.33806 17.4339 10.2719 18.2614 11.47C19.0888 12.6682 19.5305 14.0768 19.5305 15.5178C19.5278 17.4492 18.7335 19.3009 17.3219 20.6667C15.9102 22.0324 13.9964 22.8009 12 22.8035Z" fill="#FFA827"/>
<path d="M11.3828 2.70429C11.3829 2.83724 11.4376 2.96472 11.5347 3.05873C11.6319 3.15274 11.7637 3.2056 11.9011 3.20572H12.0986C12.2361 3.2056 12.3679 3.15275 12.4652 3.05875C12.5624 2.96475 12.6171 2.83728 12.6174 2.70429V0.501431C12.6171 0.368735 12.5626 0.24152 12.4658 0.147569C12.3689 0.053619 12.2376 0.000567565 12.1004 1.64757e-06H11.9029C11.8347 -0.000167404 11.7671 0.0126745 11.704 0.0377927C11.641 0.0629109 11.5837 0.0998124 11.5354 0.146386C11.4871 0.192959 11.4487 0.24829 11.4226 0.309212C11.3964 0.370135 11.3829 0.435453 11.3828 0.501431V1.48715V1.49443C11.3828 1.49443 11.3828 1.49915 11.3828 1.50172V2.70429Z" fill="#FFA827"/>
<path d="M3.50106 0.501429C3.50083 0.368437 3.44609 0.240964 3.34885 0.146964C3.25161 0.052965 3.11981 0.000113281 2.98235 0H2.7839C2.64652 0.000226629 2.51483 0.0531284 2.41768 0.147116C2.32054 0.241103 2.26586 0.368511 2.26562 0.501429V2.70429C2.26586 2.8372 2.32054 2.96461 2.41768 3.0586C2.51483 3.15259 2.64652 3.20549 2.7839 3.20572H2.98146C3.11892 3.2056 3.25072 3.15275 3.34796 3.05875C3.4452 2.96475 3.49994 2.83728 3.50018 2.70429V1.50429C3.50018 1.50043 3.49752 1.497 3.49752 1.49314C3.49752 1.48929 3.50018 1.48586 3.50018 1.48157L3.50106 0.501429Z" fill="#FFA827"/>
<path d="M24 1.92383H22.6144V2.70426C22.6139 3.06443 22.4659 3.40973 22.2026 3.66441C21.9394 3.9191 21.5825 4.06238 21.2102 4.06283H21.0126C20.6403 4.06249 20.2833 3.91926 20.0199 3.66456C19.7566 3.40987 19.6085 3.06451 19.608 2.70426V1.92383H18.0576V2.70426C18.0571 3.06443 17.909 3.40973 17.6458 3.66441C17.3826 3.9191 17.0257 4.06238 16.6534 4.06283H16.4563C16.084 4.06238 15.7271 3.9191 15.4639 3.66441C15.2006 3.40973 15.0525 3.06443 15.0521 2.70426V1.92383H13.5017V2.70426C13.5012 3.06451 13.3531 3.40987 13.0897 3.66456C12.8264 3.91926 12.4694 4.06249 12.097 4.06283H11.8995C11.5272 4.06238 11.1703 3.9191 10.907 3.66441C10.6438 3.40973 10.4957 3.06443 10.4952 2.70426V1.92383H8.94353V2.70426C8.94318 3.06439 8.79518 3.40969 8.53201 3.66439C8.26885 3.91908 7.912 4.06238 7.53976 4.06283H7.34176C6.96948 4.06238 6.61259 3.9191 6.34935 3.66441C6.08611 3.40973 5.93802 3.06443 5.93755 2.70426V1.92383H4.38716V2.70426C4.38669 3.06451 4.23853 3.40987 3.9752 3.66456C3.71187 3.91926 3.35486 4.06249 2.98251 4.06283H2.78627C2.41399 4.06238 2.0571 3.9191 1.79386 3.66441C1.53062 3.40973 1.38253 3.06443 1.38206 2.70426V1.92383H0V6.11912H24V1.92383Z" fill="#FFA827"/>
<path d="M8.06046 0.501429C8.06035 0.368847 8.00601 0.241695 7.90932 0.147745C7.81263 0.0537943 7.68144 0.000679282 7.5444 0H7.3464C7.20902 0.000226629 7.07733 0.0531284 6.98018 0.147116C6.88304 0.241103 6.82836 0.368511 6.82812 0.501429V2.70429C6.82836 2.8372 6.88304 2.96461 6.98018 3.0586C7.07733 3.15259 7.20902 3.20549 7.3464 3.20572H7.5444C7.68144 3.20504 7.81263 3.15192 7.90932 3.05797C8.00601 2.96402 8.06035 2.83687 8.06046 2.70429V0.501429Z" fill="#FFA827"/>
<path d="M12.0039 9.08569C10.6897 9.08569 9.40509 9.46272 8.3124 10.1691C7.21972 10.8755 6.36807 11.8795 5.86516 13.0542C5.36225 14.2288 5.23067 15.5214 5.48705 16.7684C5.74343 18.0154 6.37626 19.1609 7.30551 20.06C8.23477 20.959 9.41871 21.5713 10.7076 21.8193C11.9965 22.0674 13.3325 21.9401 14.5466 21.4535C15.7608 20.9669 16.7985 20.143 17.5286 19.0858C18.2587 18.0286 18.6484 16.7857 18.6484 15.5143C18.6461 13.81 17.9453 12.1762 16.6997 10.9711C15.4541 9.76598 13.7654 9.08796 12.0039 9.08569ZM16.6462 17.0648C16.6462 17.1785 16.5995 17.2875 16.5165 17.3679C16.4334 17.4483 16.3207 17.4934 16.2032 17.4934H14.0478V19.5788C14.0478 19.6925 14.0011 19.8015 13.918 19.8819C13.8349 19.9623 13.7223 20.0074 13.6048 20.0074H10.403C10.2855 20.0074 10.1729 19.9623 10.0898 19.8819C10.0067 19.8015 9.96005 19.6925 9.96005 19.5788V17.4934H7.80456C7.68708 17.4934 7.57441 17.4483 7.49134 17.3679C7.40826 17.2875 7.36159 17.1785 7.36159 17.0648V13.9676C7.36159 13.8539 7.40826 13.7449 7.49134 13.6645C7.57441 13.5841 7.68708 13.539 7.80456 13.539H9.96005V11.4531C9.96005 11.3395 10.0067 11.2304 10.0898 11.1501C10.1729 11.0697 10.2855 11.0246 10.403 11.0246H13.6048C13.7223 11.0246 13.8349 11.0697 13.918 11.1501C14.0011 11.2304 14.0478 11.3395 14.0478 11.4531V13.539H16.2032C16.3207 13.539 16.4334 13.5841 16.5165 13.6645C16.5995 13.7449 16.6462 13.8539 16.6462 13.9676V17.0648Z" fill="#FFA827"/>
</svg>
