<svg width="60" height="60" viewBox="0 0 60 60" fill="none" xmlns="http://www.w3.org/2000/svg">
<path d="M36.1771 27.7701L28.2992 27.0967L27.9199 31.9073L34.8484 32.484C34.2795 31.8106 33.9944 30.945 34.1841 30.0793C34.2795 28.9247 35.1335 28.0591 36.1771 27.7701Z" fill="#FFA827"/>
<path d="M20.7056 42.2974L15.3909 41.2395C15.4863 40.7583 15.5805 38.8348 15.7702 35.8522C12.7335 35.5632 10.2658 35.082 9.7911 34.9865C8.27278 34.6975 7.22794 33.1585 7.51301 31.6194C7.79808 30.0804 9.31639 29.0212 10.8347 29.3102C11.7841 29.5024 13.3024 29.6947 15.2 29.8869C14.3461 28.4433 12.8277 27.3854 10.9289 27.1932C7.79685 26.8088 4.94985 29.118 4.66479 32.2928C4.37972 34.891 4.09588 38.2581 4.09588 39.5082V39.8927C4.00045 41.7207 4.76022 43.6442 6.37397 44.8956C6.5636 44.8956 14.7265 44.8956 14.1564 44.8956C15.0104 44.8956 15.7702 45.7612 15.7702 46.8203V47.1093L17.0034 47.3015L15.4851 55.576C15.2 57.1151 16.2449 58.6541 17.7632 58.9431C19.1873 59.2321 20.7998 58.2697 21.0849 56.6339L23.1733 45.5702C23.2688 44.8001 23.1733 44.0312 22.6986 43.3577C22.2239 42.6843 21.4654 42.4921 20.7056 42.2999V42.2974Z" fill="#FFA827"/>
<path d="M23.8382 30.8483C20.4211 31.8107 13.8731 31.1373 10.6456 30.4639C9.60197 30.2716 8.65257 30.945 8.46293 32.0029C8.27329 33.0608 8.93763 34.0232 9.98125 34.2154C14.0627 34.9856 20.7061 35.7545 24.8818 34.5999C25.9254 34.3109 26.4956 33.253 26.2105 32.1952C25.9254 31.1373 24.8818 30.5594 23.8382 30.8483Z" fill="#FFA827"/>
<path d="M50.6018 22.6702C53.5371 22.6702 55.9166 20.2582 55.9166 17.2829C55.9166 14.3075 53.5371 11.8955 50.6018 11.8955C47.6666 11.8955 45.2871 14.3075 45.2871 17.2829C45.2871 20.2582 47.6666 22.6702 50.6018 22.6702Z" fill="#FFA827"/>
<path d="M11.3098 26.4231C14.2451 26.4231 16.6246 24.0111 16.6246 21.0358C16.6246 18.0604 14.2451 15.6484 11.3098 15.6484C8.3746 15.6484 5.99512 18.0604 5.99512 21.0358C5.99512 24.0111 8.3746 26.4231 11.3098 26.4231Z" fill="#FFA827"/>
<path d="M45.1922 46.6269V43.1631H53.7344C55.1585 43.1631 55.6332 42.0085 55.4423 40.6616C55.4423 38.1602 55.3469 28.3466 56.0112 25.8452C54.9676 24.3061 53.2585 23.3438 51.2654 23.3438C48.4184 23.3438 46.1403 25.364 45.6656 28.1544C48.323 27.77 49.2724 26.8076 49.462 26.6153C50.316 25.2685 52.0252 24.8841 53.2585 25.7497C54.5871 26.6153 55.0618 28.3479 54.2079 29.6947C53.8286 30.3681 51.7401 33.3508 45.476 34.0242V38.9304C45.476 39.3148 45.476 39.7005 45.5714 40.085L43.0083 40.8551C42.3439 41.0473 41.6796 41.5285 41.3945 42.1052V54.6124C42.1543 54.3235 42.8186 53.7468 43.1025 52.9766L45.6656 46.6269H45.1909H45.1922Z" fill="#FFA827"/>
<path d="M37.2208 28.7327C36.1772 28.5404 35.2278 29.2139 35.0381 30.2717C34.8485 31.3296 35.5128 32.292 36.5564 32.4842C41.777 33.3499 50.7927 33.7343 53.45 29.1171C54.0189 28.2515 53.7351 27.0001 52.7857 26.4235C51.8363 25.8468 50.7927 26.1345 50.2225 27.0969C47.4697 29.9828 41.1114 29.4061 37.2196 28.7327H37.2208Z" fill="#FFA827"/>
<path d="M41.9665 38.0649C41.9665 37.5837 41.5872 37.1025 41.017 37.1025H20.9914C20.5167 37.1025 20.042 37.487 20.042 38.0649C20.042 38.5461 20.4213 39.0273 20.9914 39.0273H24.3131V59.8078H40.5423V39.0273H41.017C41.586 39.0273 41.9665 38.6428 41.9665 38.0649Z" fill="#9F2C2C"/>
<path d="M59.1452 57.2093V55.4781C59.1452 54.6124 58.4809 53.8423 57.5314 53.8423H52.9753C52.9753 53.5533 52.9753 45.1833 52.9753 45.6645H55.9177C57.436 45.6645 58.1004 42.6819 57.9107 40.9506L57.436 24.4028C57.436 24.4028 56.8671 25.173 56.582 27.1932L56.4866 29.598C56.4866 29.6947 56.3912 41.5273 56.3912 41.624C56.2957 42.6819 55.7268 44.1254 53.7338 44.1254H46.0456V45.7612H51.0765C51.0765 45.9535 51.0765 54.1312 51.0765 53.939H46.5203C45.6663 53.939 44.9065 54.6124 44.9065 55.5748V57.3061C44.5273 57.595 44.2422 57.9795 44.2422 58.5562C44.2422 59.3263 44.9065 59.9998 45.6663 59.9998C46.4261 59.9998 47.0904 59.3263 47.0904 58.5562C47.0904 58.075 46.8053 57.5938 46.4261 57.3061V55.5748C46.4261 55.4781 46.5215 55.3826 46.6157 55.3826H51.1719V57.4028C50.8868 57.6918 50.6972 58.0762 50.6972 58.4607C50.6972 59.2308 51.3615 59.9043 52.1213 59.9043C52.8811 59.9043 53.5454 59.2308 53.5454 58.4607C53.5454 58.0762 53.3558 57.6905 53.0707 57.4028V55.2858H57.6269C57.7223 55.2858 57.8165 55.3826 57.8165 55.4781V57.2093C57.4372 57.4983 57.1522 57.8828 57.1522 58.4595C57.1522 59.2296 57.8165 59.903 58.5763 59.903C59.3361 59.903 60.0004 59.2296 60.0004 58.4595C59.8108 57.8828 59.5257 57.4016 59.1464 57.2093H59.1452Z" fill="#9F2C2C"/>
<path d="M14.0614 45.9535H3.62157C3.43193 42.202 2.38832 29.0213 0.0147995 30.3682C0.299866 33.4463 -0.839178 22.0937 1.72275 47.0126C1.72275 47.5893 2.00782 48.0705 2.38709 48.0705H4.00084L3.05143 59.8076H4.47555L5.42495 47.9738H11.1202L12.0696 59.8076H13.4937L12.5443 47.9738H14.158C14.5373 47.9738 14.8224 47.5893 14.8224 47.0114V46.9147C14.7269 46.4335 14.4431 45.9523 14.0626 45.9523L14.0614 45.9535Z" fill="#9F2C2C"/>
<path d="M27.5502 3.40903H26.9667V2.80506C26.9667 2.58555 26.7905 2.4082 26.5752 2.4082H26.0405C25.8252 2.4082 25.649 2.58555 25.649 2.80506V3.40903H25.1474C24.9308 3.40903 24.7559 3.58762 24.7559 3.80713V4.34785C24.7559 4.56736 24.9308 4.7447 25.1474 4.7447H25.649V5.40944C25.649 5.62895 25.8252 5.8063 26.0405 5.80754H26.5752C26.7905 5.8063 26.9667 5.62895 26.9667 5.40944V4.7447H27.5502C27.7668 4.7447 27.943 4.56736 27.943 4.34785V3.80713C27.943 3.58762 27.7668 3.40903 27.5502 3.40903ZM27.6909 4.34785C27.6909 4.42598 27.6286 4.48923 27.5515 4.48923H26.8406C26.7709 4.48923 26.7146 4.54628 26.7146 4.61697V5.40944C26.7146 5.48881 26.6522 5.55206 26.5752 5.55206H26.0405C25.9634 5.55206 25.901 5.48881 25.901 5.40944V4.61697C25.901 4.54752 25.8447 4.48923 25.775 4.48923H25.1474C25.0703 4.48923 25.0079 4.42598 25.0067 4.34785V3.80713C25.0079 3.72776 25.0703 3.66451 25.1474 3.66451H25.775C25.8447 3.66451 25.901 3.60746 25.901 3.53677V2.80506C25.901 2.72693 25.9634 2.66368 26.0405 2.66368H26.5752C26.6522 2.66368 26.7146 2.72693 26.7146 2.80506V3.53677C26.7146 3.60746 26.7709 3.66451 26.8406 3.66451H27.5515C27.6286 3.66451 27.6909 3.72776 27.6909 3.80713V4.34785Z" fill="#FFA827"/>
<path d="M39.6866 0H19.1863C18.3323 0 17.668 0.673418 17.668 1.53907V14.7197C17.668 15.5854 18.3323 16.2588 19.1863 16.2588H33.803C34.4673 17.4134 36.8396 19.4336 38.5476 20.7805C39.0223 21.1662 39.6866 20.5883 39.497 20.0116L37.6936 16.2588H39.6866C40.5406 16.2588 41.2062 15.5854 41.2062 14.7197V1.53907C41.2062 0.673418 40.5406 0 39.6866 0ZM26.3484 1.86275H26.3802C27.589 1.88012 28.5678 2.89086 28.5641 4.1174C28.5641 4.81066 28.2436 5.46424 27.7004 5.8859C27.6184 5.95039 27.5768 6.05457 27.5939 6.15874C27.6049 6.22199 27.6367 6.28028 27.6832 6.32369L28.005 6.63745C28.027 6.65853 28.0283 6.69574 28.005 6.71806C27.9916 6.73294 27.9708 6.73915 27.9512 6.73418L26.3766 6.35593C26.3668 6.35345 26.357 6.35221 26.3472 6.35221C25.125 6.35097 24.134 5.34766 24.1327 4.10748C24.1327 2.86854 25.1238 1.86275 26.3472 1.86275H26.3484ZM33.376 9.89541C32.8487 9.89541 32.5526 9.64613 32.2884 9.23439H31.2337L29.5918 10.8987H30.447C30.726 10.4746 31.0441 10.2203 31.5971 10.2203C32.1978 10.2203 32.9955 10.5316 33.3405 11.055C32.9955 11.5771 32.1978 11.8884 31.5971 11.8884C30.9964 11.8884 30.6991 11.6118 30.4103 11.1542H29.3398L27.4593 13.0604H28.3561C28.6547 12.6114 28.9948 12.3423 29.5845 12.3423C30.2293 12.3423 31.0857 12.6759 31.454 13.2389C31.0857 13.8032 30.2293 14.1368 29.5845 14.1368C28.9397 14.1368 28.6057 13.8268 28.2901 13.3158H27.2073L26.7045 13.8255C26.2971 14.2249 25.9227 14.3973 25.5593 14.3973C25.0173 14.3973 24.4973 14.014 23.9174 13.4274C23.9174 13.4274 23.917 13.427 23.9162 13.4262C23.8673 13.3766 23.8685 13.296 23.9174 13.2464C23.9664 13.1968 24.0459 13.1968 24.0948 13.2464C24.6295 13.7883 25.0283 14.0587 25.3905 14.1269C25.76 14.1951 26.1209 14.0413 26.5283 13.6445L27.096 13.0678C27.096 13.0678 27.096 13.0566 27.096 13.0517V11.9615C26.5454 11.6056 26.2126 11.2088 26.2126 10.4932C26.2126 9.77759 26.5907 8.75816 27.2269 8.33774C27.8631 8.75816 28.2411 9.74907 28.2411 10.4932C28.2411 11.2373 27.9035 11.6106 27.348 11.9678V12.8136L29.4022 10.7313V9.65729C28.8932 9.32616 28.5849 8.95535 28.5849 8.29185C28.5849 7.62836 28.9361 6.67466 29.5282 6.28028C30.1204 6.67466 30.4715 7.59735 30.4715 8.29185C30.4715 8.98635 30.1632 9.32492 29.6542 9.65605V10.4758L31.5371 8.56717V7.50682C31.0722 7.20173 30.7908 6.85944 30.7908 6.24927C30.7908 5.60438 31.1163 4.74865 31.6632 4.38032C32.2101 4.74865 32.5355 5.60438 32.5355 6.24927C32.5355 6.85944 32.2541 7.20173 31.788 7.50806V8.31294L33.2622 6.81852C33.2108 6.49979 33.2537 6.23439 33.5069 5.97767C33.8324 5.64779 34.3731 5.44936 34.7512 5.51013C34.8124 5.89458 34.6154 6.4415 34.2899 6.77139C34.0281 7.03803 33.7565 7.07523 33.4262 7.01323L31.487 8.97891H32.314C32.5722 8.5895 32.8671 8.35634 33.376 8.35634H33.3772C33.9975 8.35634 34.7022 8.69615 34.9947 9.12525C34.7022 9.5556 33.9975 9.89541 33.3772 9.89541H33.376Z" fill="#FFA827"/>
</svg>
