<svg width="36" height="36" viewBox="0 0 36 36" fill="none" xmlns="http://www.w3.org/2000/svg">
<circle cx="18" cy="18" r="18" fill="#FFBE5D"/>
<path d="M26.2797 13.5723C26.2632 13.5723 24.5942 13.541 23.1721 12.55C21.9313 11.6894 21.5031 9.81689 21.4372 9.12318V9.0293H18.4175V21.4065C18.4175 22.8931 17.1437 24.1032 15.5789 24.1032C14.0142 24.1032 12.7404 22.8931 12.7404 21.4065C12.7404 19.92 14.0142 18.7099 15.5789 18.7099H16.5343V15.8412H15.5789C12.3506 15.8412 9.7207 18.3396 9.7207 21.4065C9.7207 24.4735 12.3506 26.9719 15.5789 26.9719C18.8073 26.9719 21.4372 24.4735 21.4372 21.4065V14.8971C23.6278 16.3941 25.9997 16.441 26.2742 16.441V13.5723H26.2797Z" fill="#9F2C2C"/>
</svg>
