<svg width="30" height="30" viewBox="0 0 30 30" fill="none" xmlns="http://www.w3.org/2000/svg">
<circle cx="15" cy="15" r="15" fill="#FFA827"/>
<path d="M22.1033 11.0062C21.178 11.0062 20.3243 10.7032 19.6387 10.1921C18.8525 9.60621 18.2876 8.74676 18.0881 7.75617C18.0387 7.51141 18.0121 7.25884 18.0095 7H15.3664V14.1385L15.3632 18.0486C15.3632 19.094 14.6745 19.9803 13.7198 20.2921C13.4427 20.3825 13.1435 20.4254 12.8319 20.4085C12.4342 20.3869 12.0615 20.2683 11.7375 20.0767C11.0482 19.6692 10.5808 18.93 10.5681 18.0843C10.5482 16.7626 11.6292 15.685 12.9655 15.685C13.2293 15.685 13.4826 15.7275 13.7198 15.8048V13.8537V13.1523C13.4696 13.1157 13.2151 13.0966 12.9576 13.0966C11.495 13.0966 10.127 13.6975 9.14919 14.7801C8.41012 15.5983 7.9668 16.6421 7.8984 17.7366C7.80879 19.1744 8.34109 20.5412 9.37338 21.5496C9.52506 21.6977 9.68434 21.8351 9.8509 21.9618C10.736 22.6351 11.818 23 12.9576 23C13.2151 23 13.4696 22.9812 13.7198 22.9446C14.7844 22.7887 15.7667 22.3071 16.5418 21.5496C17.4943 20.6191 18.0206 19.3838 18.0263 18.069L18.0127 12.2299C18.4671 12.5764 18.9639 12.8631 19.4972 13.0856C20.3265 13.4315 21.2059 13.6068 22.1109 13.6064V11.7095V11.0056C22.1115 11.0062 22.1039 11.0062 22.1033 11.0062Z" fill="white"/>
</svg>
