<svg width="24" height="24" viewBox="0 0 24 24" fill="none" xmlns="http://www.w3.org/2000/svg">
<path d="M19.1625 6.69749C19.1625 5.58 18.5925 4.59 17.73 4.01248C17.2125 3.66 16.59 3.45749 15.9225 3.45749H15.12V5.42999C15.12 5.84248 14.79 6.17999 14.37 6.17999C13.9575 6.17999 13.62 5.84248 13.62 5.42999V3.45749H7.04251V5.42999C7.04251 5.84248 6.705 6.17999 6.29251 6.17999C5.87251 6.17999 5.54251 5.84248 5.54251 5.42999V3.45749H4.74001C3.8475 3.45749 3.03749 3.81752 2.45251 4.41C1.85999 4.99498 1.5 5.80499 1.5 6.69749V7.19252H19.1625V6.69749Z" fill="#FFA827"/>
<path d="M4.74001 19.905H11.4825C10.9125 18.9225 10.5825 17.775 10.5825 16.5525C10.5825 12.8475 13.59 9.84 17.2875 9.84C17.94 9.84 18.57 9.92999 19.1625 10.1025V8.69252H1.5V16.6725C1.5 18.4575 2.955 19.905 4.74001 19.905Z" fill="#FFA827"/>
<path d="M7.04297 2.99249C7.04297 2.58 6.70546 2.24249 6.29297 2.24249C5.87297 2.24249 5.54297 2.58 5.54297 2.99249V3.45749H7.04297V2.99249Z" fill="#FFA827"/>
<path d="M15.1201 2.99249C15.1201 2.58 14.7901 2.24249 14.3701 2.24249C13.9576 2.24249 13.6201 2.58 13.6201 2.99249V3.45749H15.1201V2.99249Z" fill="#FFA827"/>
<path d="M17.287 11.3401C14.4145 11.3401 12.082 13.6801 12.082 16.5527C12.082 19.4252 14.4145 21.7577 17.287 21.7577C20.1595 21.7577 22.4995 19.4252 22.4995 16.5527C22.4995 13.6801 20.1595 11.3401 17.287 11.3401ZM18.7646 17.3027H17.287C16.8745 17.3027 16.537 16.9651 16.537 16.5527V15.0077C16.537 14.5952 16.8745 14.2577 17.287 14.2577C17.707 14.2577 18.037 14.5952 18.037 15.0077V15.8027H18.7646C19.177 15.8027 19.5146 16.1327 19.5146 16.5527C19.5146 16.9651 19.177 17.3027 18.7646 17.3027Z" fill="#FFA827"/>
</svg>
