<svg width="16" height="16" viewBox="0 0 16 16" fill="none" xmlns="http://www.w3.org/2000/svg">
<path d="M4.40078 0.761905C4.40078 0.341116 4.04261 0 3.60078 0C3.15895 0 2.80078 0.341116 2.80078 0.761905V1.52381C2.80078 1.9446 3.15895 2.28571 3.60078 2.28571C4.04261 2.28571 4.40078 1.9446 4.40078 1.52381V0.761905Z" fill="#9F2C2C"/>
<path d="M13.1996 0.761905C13.1996 0.341116 12.8414 0 12.3996 0C11.9578 0 11.5996 0.341116 11.5996 0.761905V1.52381C11.5996 1.9446 11.9578 2.28571 12.3996 2.28571C12.8414 2.28571 13.1996 1.9446 13.1996 1.52381V0.761905Z" fill="#9F2C2C"/>
<path d="M0 5.71436V14.4763C0 15.3178 0.7164 16.0001 1.6 16.0001H14.4C15.2836 16.0001 16 15.3178 16 14.4763V5.71436H0ZM4.8 13.3334C4.8 13.7544 4.442 14.0953 4 14.0953H3.2C2.758 14.0953 2.4 13.7544 2.4 13.3334V12.5715C2.4 12.1505 2.758 11.8096 3.2 11.8096H4C4.442 11.8096 4.8 12.1505 4.8 12.5715V13.3334ZM4.8 9.14293C4.8 9.56388 4.442 9.90483 4 9.90483H3.2C2.758 9.90483 2.4 9.56388 2.4 9.14293V8.38102C2.4 7.96007 2.758 7.61912 3.2 7.61912H4C4.442 7.61912 4.8 7.96007 4.8 8.38102V9.14293ZM9.2 13.3334C9.2 13.7544 8.842 14.0953 8.4 14.0953H7.6C7.158 14.0953 6.8 13.7544 6.8 13.3334V12.5715C6.8 12.1505 7.158 11.8096 7.6 11.8096H8.4C8.842 11.8096 9.2 12.1505 9.2 12.5715V13.3334ZM9.2 9.14293C9.2 9.56388 8.842 9.90483 8.4 9.90483H7.6C7.158 9.90483 6.8 9.56388 6.8 9.14293V8.38102C6.8 7.96007 7.158 7.61912 7.6 7.61912H8.4C8.842 7.61912 9.2 7.96007 9.2 8.38102V9.14293ZM13.6 13.3334C13.6 13.7544 13.242 14.0953 12.8 14.0953H12C11.558 14.0953 11.2 13.7544 11.2 13.3334V12.5715C11.2 12.1505 11.558 11.8096 12 11.8096H12.8C13.242 11.8096 13.6 12.1505 13.6 12.5715V13.3334ZM13.6 9.14293C13.6 9.56388 13.242 9.90483 12.8 9.90483H12C11.558 9.90483 11.2 9.56388 11.2 9.14293V8.38102C11.2 7.96007 11.558 7.61912 12 7.61912H12.8C13.242 7.61912 13.6 7.96007 13.6 8.38102V9.14293Z" fill="#9F2C2C"/>
<path d="M16 4.95235V2.66663C16 1.82511 15.2836 1.14282 14.4 1.14282H14V1.52377C14 2.36416 13.2824 3.04758 12.4 3.04758C11.5176 3.04758 10.8 2.36416 10.8 1.52377V1.14282H5.2V1.52377C5.2 2.36416 4.4824 3.04758 3.6 3.04758C2.7176 3.04758 2 2.36416 2 1.52377V1.14282H1.6C0.7164 1.14282 0 1.82511 0 2.66663V4.95235H16Z" fill="#9F2C2C"/>
</svg>
