<svg width="63" height="60" viewBox="0 0 63 60" fill="none" xmlns="http://www.w3.org/2000/svg">
<path fill-rule="evenodd" clip-rule="evenodd" d="M49.0382 0H2.14658C0.965962 0 0 0.965962 0 2.14658V24.3784C0 25.559 0.965962 26.525 2.14658 26.525H30.1971C30.2535 26.525 30.3015 26.4909 30.32 26.4375C30.3385 26.3842 30.322 26.3276 30.2775 26.2926L29.2558 25.4877C28.9378 25.2372 28.6693 24.9467 28.4512 24.6288C28.4262 24.5924 28.3882 24.5722 28.3439 24.5722H2.14658C2.04383 24.5722 1.95279 24.4812 1.95279 24.3784V2.14658C1.95279 2.04383 2.04383 1.95279 2.14658 1.95279H49.0382C49.141 1.95279 49.232 2.04383 49.232 2.14658V2.92132C49.232 2.96534 49.2518 3.00307 49.2879 3.02822C49.3241 3.05338 49.3664 3.05867 49.4075 3.04337C49.9293 2.84944 50.4853 2.72582 51.0639 2.68437C51.1321 2.67951 51.1848 2.62292 51.1848 2.5546V2.14672C51.1848 0.965962 50.219 0 49.0382 0ZM56.4734 27.522V23.3147C56.4734 23.2604 56.5047 23.2141 56.5551 23.1939C56.6056 23.1738 56.6602 23.1855 56.6976 23.2248L58.0892 24.6811C58.1281 24.7217 58.1366 24.7797 58.1112 24.8298L56.7196 27.5806C56.6921 27.635 56.6326 27.6626 56.5733 27.6485C56.514 27.6343 56.4734 27.5829 56.4734 27.522ZM39.4552 3.62875C40.8101 3.62875 41.9084 4.72705 41.9084 6.08189C41.9084 7.86075 40.0872 9.01693 38.499 8.34152C38.4515 8.32136 38.3998 8.3298 38.3614 8.36424L34.1282 12.1489C34.0898 12.1834 34.0755 12.2337 34.0902 12.2831C34.5518 13.8337 33.3958 15.4347 31.738 15.4347C30.4442 15.4347 29.3846 14.4331 29.2916 13.1632C29.2878 13.1117 29.2567 13.0697 29.2085 13.0511L18.7027 9.01665C18.6545 8.99821 18.6034 9.0085 18.5661 9.04408C17.9498 9.63375 17.0605 9.86928 16.2191 9.63761C16.1694 9.62389 16.1195 9.63918 16.0859 9.6782L10.4898 16.1887C10.4562 16.2278 10.4487 16.2796 10.4698 16.3267C11.1828 17.9192 10.0275 19.7786 8.22847 19.7786C6.87364 19.7786 5.77533 18.6803 5.77533 17.3254C5.77533 15.6889 7.33811 14.5346 8.87945 14.9595C8.92918 14.9732 8.9792 14.9579 9.01279 14.9189L14.609 8.4084C14.6426 8.36924 14.6502 8.31751 14.6291 8.27034C13.9161 6.67784 15.0712 4.81838 16.8702 4.81838C18.1641 4.81838 19.2236 5.81992 19.3167 7.08987C19.3204 7.14132 19.3515 7.18333 19.3997 7.20191L29.9055 11.2364C29.9537 11.2548 30.0048 11.2445 30.0421 11.209C30.746 10.5353 31.7893 10.3378 32.6944 10.7216C32.7418 10.7418 32.7935 10.7332 32.832 10.6989L37.0651 6.91422C37.1036 6.87978 37.1177 6.82948 37.103 6.78003C36.6415 5.23011 37.7971 3.62875 39.4552 3.62875ZM50.7824 13.9821H52.4968C53.6315 13.9821 54.6055 14.2722 55.5552 14.8933C58.0619 16.5327 60.1432 18.9216 61.9316 21.8264C62.6367 22.9717 62.6776 24.3031 62.0442 25.489C62.0424 25.4925 62.0406 25.4953 62.0385 25.4985L57.0198 33.2354C57.0058 33.2572 56.999 33.2792 56.9987 33.305L56.9602 37.2302C56.9602 37.2343 56.9602 37.2379 56.9606 37.2421L58.5822 57.238C58.6959 58.6389 57.6427 59.8779 56.2417 59.9915C54.8423 60.105 53.6044 59.0543 53.4885 57.6557C53.4882 57.6527 53.488 57.6503 53.4876 57.6473L50.9357 40.4918C50.9266 40.4309 50.878 40.3858 50.8165 40.3812C50.7551 40.3766 50.7003 40.4142 50.6825 40.4731L45.319 58.0799C45.3185 58.0818 45.318 58.0833 45.3176 58.0852C44.9657 59.4445 43.5665 60.2697 42.2065 59.9195C40.8454 59.5689 40.0186 58.1687 40.3692 56.8075L45.1555 38.2227C45.3328 37.5345 45.4096 36.9279 45.4096 36.2172V25.2339C45.4096 25.1795 45.3781 25.1329 45.3273 25.1129C45.2766 25.0929 45.2217 25.1051 45.1845 25.1449C43.6278 26.8037 41.9252 28.2584 40.0686 29.4974C39.2201 30.0636 38.15 30.0214 37.3487 29.39L30.4585 23.9614C29.9029 23.5237 29.6451 22.8427 29.7169 22.1845C29.7219 22.1387 29.7043 22.0968 29.668 22.0682L23.788 17.4355C23.3646 17.1026 23.2913 16.4895 23.624 16.0662C23.9568 15.6428 24.5699 15.5694 24.9932 15.9021L30.8659 20.529C30.9025 20.5579 30.9479 20.565 30.9917 20.5487C31.6192 20.3161 32.3508 20.4045 32.9122 20.8467L38.5191 25.2644C38.5483 25.2874 38.5819 25.2962 38.6186 25.2909C38.6553 25.2855 38.6849 25.2674 38.7062 25.2369C41.2435 21.6277 43.927 18.2211 47.0447 15.4158C48.112 14.4558 49.3468 13.9821 50.7824 13.9821ZM51.4988 12.7323C49.259 12.7323 47.4435 10.9166 47.4435 8.67708C47.4435 6.43717 49.2592 4.62158 51.4988 4.62158C53.7386 4.62158 55.5542 6.43717 55.5542 8.67708C55.554 10.9167 53.7384 12.7323 51.4988 12.7323ZM33.271 49.1839C33.271 44.8683 29.7403 41.3376 25.4247 41.3376C21.1092 41.3376 17.5784 44.8684 17.5784 49.1839V59.8402C17.5784 59.9119 17.6368 59.9704 17.7086 59.9704H31.3631C32.414 59.9704 33.2712 59.1133 33.2712 58.0623V49.1839H33.271ZM25.4247 31.0684C22.9486 31.0684 20.941 33.0758 20.941 35.5519C20.941 38.0282 22.9484 40.0356 25.4247 40.0356C27.9008 40.0356 29.9082 38.0282 29.9082 35.5519C29.9082 33.0758 27.901 31.0684 25.4247 31.0684ZM0.0245815 49.1839C0.0245815 44.8683 3.55529 41.3376 7.8709 41.3376C12.1864 41.3376 15.7172 44.8684 15.7172 49.1839V59.8402C15.7172 59.9119 15.6588 59.9704 15.587 59.9704H1.93264C0.881785 59.9704 0.0245815 59.1133 0.0245815 58.0623V49.1839ZM7.8709 31.0684C10.3472 31.0684 12.3546 33.0758 12.3546 35.5519C12.3546 38.0282 10.3472 40.0356 7.8709 40.0356C5.39475 40.0356 3.38737 38.0282 3.38737 35.5519C3.38723 33.0758 5.39461 31.0684 7.8709 31.0684Z" fill="#FFA827"/>
</svg>
