<svg width="50" height="50" viewBox="0 0 50 50" fill="none" xmlns="http://www.w3.org/2000/svg">
<path d="M24.5356 11.3832C24.794 11.7315 24.9381 12.1378 24.9587 12.5591L28.0957 13.493C27.0383 11.8801 25.7235 11.4457 25.0823 11.3305C25.0578 11.3253 25.034 11.3187 25.0091 11.3145L24.3945 11.2122C24.4441 11.2665 24.4911 11.3233 24.5356 11.3832Z" fill="white"/>
<path d="M19.7881 11.0207C20.2045 10.8652 20.607 10.7375 20.9915 10.6466L16.8281 9.95386C16.7953 9.94836 16.7627 9.94604 16.7298 9.94244C16.5544 9.9175 16.3263 9.89974 16.0566 9.90989L19.7881 11.0207Z" fill="white"/>
<path d="M12.4336 32.7664H17.7419V44.5248H12.4336V32.7664Z" fill="white"/>
<path d="M12.4336 47.3867C12.4336 48.8304 13.6222 50.0001 15.0874 50.0001C16.5531 50.0001 17.7417 48.8304 17.7417 47.3867V47.1672H12.4336V47.3867Z" fill="white"/>
<path d="M15.1746 28.2223H23.3091V28.5735H24.0458V26.7327L25.7816 16.6167C26.0611 17.5517 26.2562 18.8883 26.221 20.765C26.2075 21.4932 26.4835 22.1563 26.9981 22.632C27.7004 23.2809 28.6598 23.4534 29.7809 23.4519L31.0667 20.0038C30.5904 20.0399 30.0585 20.0739 29.6581 20.0725C29.6317 17.6698 29.2511 15.9274 28.7128 14.659L32.3508 15.7422L32.5543 15.8026V16.5603L29.3402 25.1794C29.2224 25.2371 29.1558 25.2988 29.1558 25.3631C29.1558 25.681 30.719 26.712 32.6471 26.712C34.5754 26.712 36.1383 25.681 36.1383 25.3631C36.1383 25.3054 36.0855 25.2498 35.99 25.1974L35.7667 24.5985L35.3009 23.3494C35.536 23.409 35.7171 23.4927 35.8092 23.612C36.1471 24.0487 36.6589 24.2783 37.1764 24.278C37.5392 24.278 37.9052 24.1654 38.216 23.932C38.9705 23.3659 39.1159 22.3049 38.5412 21.5619C37.4802 20.1906 35.7541 19.8558 33.9936 19.8433L32.769 16.5592V15.8667L33.6261 16.1218C33.7547 16.1601 33.8915 16.0878 33.9303 15.9614C33.9692 15.835 33.8957 15.7001 33.7674 15.6619L33.7019 15.6424C33.6695 15.6462 33.636 15.6443 33.603 15.6344L24.9244 13.0508C24.7355 14.0929 23.8308 14.8448 22.7521 14.8448C22.6383 14.8448 22.5233 14.836 22.4099 14.8186C22.2236 14.8193 21.2104 14.9042 18.4542 16.5843C16.5885 17.7212 14.6667 19.139 13.412 20.0746L12.5186 25.2809C12.4653 25.4872 12.434 25.7022 12.434 25.9248V27.5785L12.3846 27.5869L11.4695 27.3466L10.7577 27.3265C10.7577 27.3265 10.0255 27.5467 9.88319 27.6068C9.74087 27.6668 9.31369 27.3265 9.19177 27.2062C9.06984 27.0859 8.70363 27.006 8.70363 27.006C8.70363 27.006 7.93085 27.4066 7.80892 27.3664C7.687 27.3263 7.40214 27.3463 7.40214 27.3463L6.8056 28.0071H5.97852V28.4077H12.4338V28.573H15.1746V28.2223ZM31.5117 19.9687L32.3506 17.7187L32.5541 17.1733V24.7881C31.2876 24.7936 30.1901 24.9099 29.6055 25.0809L29.8129 24.5252L30.216 23.4439C30.7087 23.4266 31.2277 23.3853 31.7676 23.3416C31.9432 23.3274 32.1411 23.3116 32.3506 23.2961V19.9044C32.0656 19.9243 31.785 19.9467 31.5117 19.9687ZM32.7686 24.3021V23.268C33.4666 23.2251 34.2371 23.2031 34.8385 23.2697L33.562 19.8463C33.2964 19.8516 33.0313 19.8628 32.7686 19.8778V17.7187V17.1733L35.7208 25.0902C35.1492 24.9156 34.0458 24.7957 32.7686 24.7885V24.3021ZM32.6466 25.6045C31.0032 25.6045 29.671 25.4912 29.671 25.3517C29.671 25.2122 31.0032 25.0989 32.6466 25.0989C34.2901 25.0989 35.6223 25.2122 35.6223 25.3517C35.6223 25.4912 34.2901 25.6045 32.6466 25.6045ZM16.0794 27.5971C16.0794 27.3814 16.2569 27.2066 16.4758 27.2066C16.6948 27.2066 16.8723 27.3814 16.8723 27.5971C16.8723 27.8127 16.6948 27.9875 16.4758 27.9875C16.2569 27.9875 16.0794 27.8129 16.0794 27.5971ZM19.0994 27.9877C18.8805 27.9877 18.7029 27.8129 18.7029 27.5973C18.7029 27.3816 18.8805 27.2068 19.0994 27.2068C19.3184 27.2068 19.4959 27.3816 19.4959 27.5973C19.4959 27.8129 19.3184 27.9877 19.0994 27.9877ZM20.2586 27.9877C20.0396 27.9877 19.8621 27.8129 19.8621 27.5973C19.8621 27.3816 20.0396 27.2068 20.2586 27.2068C20.4775 27.2068 20.6551 27.3816 20.6551 27.5973C20.6551 27.8129 20.4775 27.9877 20.2586 27.9877ZM21.7634 27.9877C21.3759 27.9877 21.0618 27.6784 21.0618 27.2969C21.0618 26.9153 21.3759 26.6061 21.7634 26.6061C22.1508 26.6061 22.4649 26.9153 22.4649 27.2969C22.4651 27.6782 22.1508 27.9877 21.7634 27.9877ZM19.9031 16.7934C19.9471 16.5391 20.1925 16.3679 20.4507 16.4114C20.7089 16.4548 20.8826 16.6964 20.8386 16.9507C20.7944 17.205 20.5492 17.3762 20.291 17.3327C20.0326 17.2893 19.8589 17.0479 19.9031 16.7934ZM19.2108 19.3588C19.2548 19.1045 19.5002 18.9333 19.7584 18.9768C20.0167 19.0202 20.1903 19.2618 20.1463 19.5161C20.1023 19.7704 19.857 19.9416 19.5987 19.8981C19.3405 19.8545 19.1668 19.6131 19.2108 19.3588ZM18.3775 27.447C18.3775 27.7457 18.1317 27.9877 17.8284 27.9877C17.5251 27.9877 17.2793 27.7457 17.2793 27.447C17.2793 27.1483 17.5251 26.9062 17.8284 26.9062C18.1315 26.9062 18.3775 27.1483 18.3775 27.447Z" fill="white"/>
<path d="M18.7383 32.7664H24.0466V44.5248H18.7383V32.7664Z" fill="white"/>
<path d="M18.7383 47.3867C18.7383 48.8304 19.9269 50.0001 21.3921 50.0001C22.8578 50.0001 24.0464 48.8304 24.0464 47.3867V47.1672H18.7383V47.3867Z" fill="white"/>
<path d="M24.9544 7.02005C24.0685 6.77992 23.5482 5.87792 23.7923 5.00573C23.797 4.98861 23.8039 4.97234 23.8092 4.95542L23.1313 4.77152C23.127 4.78864 23.1245 4.80597 23.1197 4.8231C22.8759 5.6955 21.9599 6.2079 21.074 5.96755C20.1881 5.72742 19.6678 4.82542 19.9118 3.95323C19.9166 3.93611 19.9234 3.91983 19.9286 3.90292L17.3623 3.20703C17.2775 3.44992 17.211 3.70253 17.1659 3.96401C16.7216 6.55415 18.4936 9.00858 21.1236 9.44616C23.2915 9.80679 25.3644 8.68432 26.2755 6.82875C25.8949 7.06276 25.4209 7.14668 24.9544 7.02005Z" fill="white"/>
<path d="M17.5537 2.7388L20.1565 3.44463C20.5495 2.8965 21.2613 2.62042 21.9562 2.80898C22.651 2.99733 23.119 3.59323 23.1716 4.26228L24.0369 4.49692C24.4299 3.94879 25.1417 3.67272 25.8366 3.86127C26.2202 3.96528 26.5349 4.19379 26.7491 4.48994C26.6272 2.32046 24.9994 0.444604 22.732 0.0672753C20.5433 -0.297158 18.4508 0.850892 17.5537 2.7388Z" fill="white"/>
<path d="M0 29.208V30.2649H1.57411V32.1321H2.73692V49.9416H4.13221V46.533H45.8678V49.9416H47.2631V32.1321H48.4259V30.2649H50V29.208H0ZM45.8678 45.159H4.13221V32.1321H45.8678V45.159Z" fill="white"/>
<path d="M18.1928 16.1713C21.3663 14.2369 22.3787 14.3225 22.4843 14.3388C23.4219 14.4823 24.2992 13.8505 24.4452 12.9277C24.591 12.0048 23.9493 11.1402 23.0121 10.9969C20.6869 10.6395 17.3189 12.487 13.0238 15.5452L13.0244 14.9446C15.3032 13.3351 17.3191 12.0786 19.0761 11.3106L12.5466 9.3667C12.4532 9.37769 12.3703 9.44132 12.3414 9.53518C12.3025 9.6618 12.3759 9.79645 12.5043 9.83471L14.2647 10.3587C14.1675 10.4042 14.0689 10.4539 13.9691 10.5082C11.8088 11.6822 10.0997 14.4259 8.88898 18.6638C8.80204 18.9677 8.78358 19.2371 8.80504 19.4734C8.81406 19.9156 8.99459 20.3473 9.33804 20.6682C9.61195 20.9241 10.0325 21.1336 10.5232 21.1336C10.8385 21.1336 11.1824 21.0472 11.5353 20.8311C11.6319 20.7719 11.7431 20.6969 11.8962 20.5878C12.1243 20.4248 12.4472 20.1841 12.8426 19.889C12.899 19.8469 12.9589 19.8021 13.0188 19.7575C14.277 18.8181 16.2602 17.3489 18.1928 16.1713Z" fill="white"/>
<path d="M26.6132 5.77015C26.798 5.10893 26.4034 4.42509 25.732 4.24308C25.0605 4.06107 24.3661 4.44961 24.1813 5.11062C23.9965 5.77205 24.391 6.45568 25.0622 6.63769C25.7337 6.81991 26.4281 6.43158 26.6132 5.77015Z" fill="white"/>
<path d="M21.8482 3.19083C21.1767 3.00883 20.4823 3.39736 20.2975 4.05837C20.1127 4.71981 20.5072 5.40344 21.1785 5.58544C21.8499 5.76745 22.5441 5.37913 22.7292 4.7179C22.9142 4.05689 22.5197 3.37305 21.8482 3.19083Z" fill="white"/>
<path d="M32.388 27.8678L32.1033 27.5074L31.6356 27.5875L30.7205 27.3471L30.0087 27.3271C30.0087 27.3271 29.2767 27.5473 29.1342 27.6074C28.9918 27.6674 28.5647 27.3271 28.4427 27.2068C28.3208 27.0865 27.9546 27.0066 27.9546 27.0066C27.9546 27.0066 27.1818 27.4072 27.0599 27.367C26.938 27.3268 26.6531 27.3469 26.6531 27.3469L26.0566 28.0077H25.2295V28.4083H33.364V28.0077H32.5303L32.388 27.8678Z" fill="white"/>
<path d="M37.1943 27.1284C37.1456 27.1085 37.0988 27.0905 37.0494 27.07C36.6901 26.9199 36.3629 26.9149 36.0768 27.0537C35.5923 27.2897 35.3914 27.8631 35.3474 28.0084H34.6484V28.409H42.783V28.0084H41.8806C41.4427 27.4294 41.1065 27.0208 40.3071 27.2148C40.1414 27.2548 39.9928 27.2852 39.849 27.3051C39.7436 27.2051 39.6221 27.1036 39.4721 27.0161C39.2362 26.8779 38.8897 26.9897 38.5467 27.1852C38.408 27.1487 38.2582 27.1053 38.0905 27.0531C37.7516 26.9472 37.4515 27.0011 37.1943 27.1284ZM36.1719 27.2431C36.3994 27.1326 36.6667 27.14 36.9655 27.2645C36.9661 27.2647 36.9668 27.2649 36.9674 27.2653C36.6562 27.4911 36.4312 27.8061 36.3078 28.0084H35.5734C35.637 27.8289 35.8166 27.4163 36.1719 27.2431ZM38.5793 27.4131C39.0481 27.5315 39.3948 27.5655 39.772 27.5264C39.8125 27.5674 39.8512 27.6078 39.8881 27.6471C40.0836 27.8543 40.2528 28.032 40.5065 27.9817C40.5752 27.9678 40.6525 27.9807 40.7302 28.0084H40.0154C39.5081 27.9164 38.955 27.7693 38.3492 27.564C38.4265 27.5095 38.5035 27.4596 38.5793 27.4131ZM39.0769 28.0082H37.7932C37.9031 27.9107 38.021 27.8116 38.1431 27.7169C38.4685 27.8304 38.7787 27.9264 39.0769 28.0082ZM37.4779 28.0082H36.5636C36.704 27.8014 36.9253 27.5308 37.2102 27.3634C37.4483 27.4596 37.6818 27.5511 37.9066 27.6329C37.7211 27.783 37.5691 27.9221 37.4779 28.0082ZM40.358 27.4199C40.971 27.2719 41.2372 27.5232 41.6116 28.0082H41.1615C40.9897 27.8792 40.7188 27.7219 40.4632 27.7746C40.3339 27.8006 40.2307 27.6997 40.0452 27.5032C40.0409 27.4987 40.036 27.4936 40.0317 27.4892C40.1354 27.4706 40.2429 27.4478 40.358 27.4199ZM39.3626 27.1979C39.4328 27.2389 39.4948 27.2842 39.5536 27.3304C39.3437 27.3362 39.1258 27.3146 38.8637 27.2605C39.0702 27.1675 39.2495 27.1317 39.3626 27.1979ZM38.1038 27.4791C37.9042 27.408 37.697 27.329 37.4862 27.2461C37.652 27.2002 37.8323 27.1941 38.0259 27.2548C38.1236 27.2852 38.2146 27.3123 38.3028 27.3378C38.235 27.3835 38.1682 27.4309 38.1038 27.4791Z" fill="white"/>
</svg>
