<svg width="20" height="20" viewBox="0 0 20 20" fill="none" xmlns="http://www.w3.org/2000/svg">
<path d="M10.001 4.64465C6.56748 4.64465 3.45381 6.52315 1.15624 9.57433C0.968754 9.8243 0.968754 10.1735 1.15624 10.4235C3.45381 13.4784 6.56748 15.3569 10.001 15.3569C13.4345 15.3569 16.5481 13.4784 18.8457 10.4272C19.0332 10.1772 19.0332 9.82798 18.8457 9.578C16.5481 6.52315 13.4345 4.64465 10.001 4.64465ZM10.2473 13.7725C7.96808 13.9158 6.08591 12.0373 6.22928 9.75446C6.34691 7.87228 7.8725 6.3467 9.75468 6.22906C12.0339 6.08569 13.916 7.96419 13.7727 10.2471C13.6514 12.1256 12.1258 13.6511 10.2473 13.7725ZM10.1333 12.03C8.90549 12.1072 7.89088 11.0962 7.97176 9.86842C8.03425 8.85381 8.8577 8.03403 9.87231 7.96786C11.1001 7.89067 12.1147 8.9016 12.0339 10.1294C11.9677 11.1477 11.1442 11.9675 10.1333 12.03Z" fill="#9F2C2C"/>
</svg>
