<svg width="16" height="16" viewBox="0 0 16 16" fill="none" xmlns="http://www.w3.org/2000/svg">
<path d="M10.8723 4.72C10.3096 2.03985 9.10957 0.344238 7.99965 0.344238C6.88972 0.344238 5.68965 2.03985 5.12695 4.72H10.8723Z" fill="white"/>
<path d="M4.7998 8.00087C4.79967 8.7326 4.84725 9.46353 4.94221 10.1888H11.0578C11.1527 9.46353 11.2003 8.7326 11.2002 8.00087C11.2003 7.26914 11.1527 6.53821 11.0578 5.81299H4.94221C4.84725 6.53821 4.79967 7.26914 4.7998 8.00087Z" fill="white"/>
<path d="M5.12695 11.2837C5.68965 13.9638 6.88972 15.6595 7.99965 15.6595C9.10957 15.6595 10.3096 13.9638 10.8723 11.2837H5.12695Z" fill="white"/>
<path d="M11.9649 4.71866H15.3251C14.8202 3.54035 14.0531 2.49979 13.0852 1.68042C12.1174 0.861053 10.9758 0.285693 9.75195 0.000488281C10.7637 0.913382 11.5574 2.60133 11.9649 4.71866Z" fill="white"/>
<path d="M15.7088 5.81299H12.1353C12.2233 6.53879 12.2673 7.26948 12.267 8.00087C12.2671 8.73227 12.2229 9.46297 12.1348 10.1888H15.7083C16.0973 8.75744 16.0978 7.24431 15.7088 5.81299Z" fill="white"/>
<path d="M9.75195 16.0019C10.976 15.7168 12.1178 15.1415 13.0858 14.3221C14.0539 13.5028 14.8211 12.4621 15.3261 11.2837H11.9659C11.5574 13.401 10.7637 15.089 9.75195 16.0019Z" fill="white"/>
<path d="M4.03499 11.2837H0.674805C1.17979 12.4621 1.94708 13.5028 2.91511 14.3221C3.88314 15.1415 5.02497 15.7168 6.24898 16.0019C5.23613 15.089 4.44248 13.401 4.03499 11.2837Z" fill="white"/>
<path d="M6.24703 0.000488281C5.02302 0.285538 3.88119 0.860828 2.91316 1.6802C1.94512 2.49958 1.17784 3.54023 0.672852 4.71866H4.03304C4.4416 2.60133 5.23524 0.913382 6.24703 0.000488281Z" fill="white"/>
<path d="M3.73298 8.00087C3.73291 7.26947 3.77709 6.53878 3.86526 5.81299H0.291724C-0.0972413 7.24431 -0.0972413 8.75744 0.291724 10.1888H3.86526C3.77709 9.46297 3.73291 8.73227 3.73298 8.00087Z" fill="white"/>
</svg>
