<svg width="18" height="14" viewBox="0 0 18 14" fill="none" xmlns="http://www.w3.org/2000/svg">
<path d="M17.6239 2.1866C17.4169 1.3261 16.8069 0.648428 16.0325 0.418399C14.6288 0.000488207 9 0.000488281 9 0.000488281C9 0.000488281 3.37124 0.000488207 1.96752 0.418399C1.19306 0.648389 0.583137 1.3261 0.376137 2.1866C0 3.74631 0 7.00049 0 7.00049C0 7.00049 0 10.2547 0.376137 11.8144C0.583137 12.6749 1.19306 13.3525 1.96752 13.5826C3.37124 14.0005 9 14.0005 9 14.0005C9 14.0005 14.6288 14.0005 16.0325 13.5826C16.8069 13.3525 17.4169 12.6749 17.6239 11.8144C18 10.2547 18 7.00049 18 7.00049C18 7.00049 18 3.74631 17.6239 2.1866Z" fill="white"/>
<path d="M7.1582 9.95648L11.8627 7.002L7.1582 4.04736V9.95648Z" fill="#EE9E27"/>
</svg>
