<svg width="36" height="36" viewBox="0 0 36 36" fill="none" xmlns="http://www.w3.org/2000/svg">
<circle cx="18" cy="18" r="18" fill="#FFBE5D"/>
<path d="M26.4746 12.6418C25.811 11.853 24.5859 11.5312 22.2462 11.5312H13.7532C11.36 11.5312 10.1142 11.8738 9.45311 12.7135C8.80859 13.5323 8.80859 14.7388 8.80859 16.4085V19.591C8.80859 22.8257 9.5733 24.4681 13.7532 24.4681H22.2463C24.2752 24.4681 25.3995 24.1842 26.1269 23.4881C26.8728 22.7743 27.1911 21.6088 27.1911 19.591V16.4085C27.1911 14.6476 27.1412 13.4341 26.4746 12.6418ZM20.6102 18.4391L16.7536 20.4547C16.6673 20.4998 16.573 20.5221 16.4789 20.5221C16.3723 20.5221 16.2659 20.4934 16.1717 20.4364C15.9942 20.3289 15.8859 20.1366 15.8859 19.9291V15.9108C15.8859 15.7038 15.9939 15.5116 16.171 15.4041C16.3481 15.2965 16.5684 15.2892 16.7522 15.3846L20.6088 17.3873C20.805 17.4891 20.9283 17.6917 20.9286 17.9127C20.9288 18.1339 20.8061 18.3367 20.6102 18.4391Z" fill="#9F2C2C"/>
</svg>
