<svg width="669" height="99" viewBox="0 0 669 99" fill="none" xmlns="http://www.w3.org/2000/svg">
<g style="mix-blend-mode:multiply">
<path opacity="0.09" d="M333.797 96.5031C516.099 96.5031 663.884 75.2022 663.884 48.9264C663.884 22.6505 516.099 1.34967 333.797 1.34967C151.496 1.34967 3.71124 22.6505 3.71124 48.9264C3.71124 75.2022 151.496 96.5031 333.797 96.5031Z" fill="#FCF7FD"/>
<path opacity="0.18" d="M333.077 93.9387C512.95 93.9387 658.767 73.5141 658.767 48.319C658.767 23.124 512.95 2.6994 333.077 2.6994C153.203 2.6994 7.38647 23.124 7.38647 48.319C7.38647 73.5141 153.203 93.9387 333.077 93.9387Z" fill="#F8F0FB"/>
<path opacity="0.27" d="M332.356 91.5092C509.802 91.5092 653.651 71.9306 653.651 47.7791C653.651 23.6277 509.802 4.04907 332.356 4.04907C154.91 4.04907 11.0617 23.6277 11.0617 47.7791C11.0617 71.9306 154.91 91.5092 332.356 91.5092Z" fill="#F5E8F9"/>
<path opacity="0.36" d="M331.672 88.9448C506.69 88.9448 648.57 70.2424 648.57 47.1718C648.57 24.1012 506.69 5.3988 331.672 5.3988C156.653 5.3988 14.773 24.1012 14.773 47.1718C14.773 70.2424 156.653 88.9448 331.672 88.9448Z" fill="#F2E1F7"/>
<path opacity="0.45" d="M330.951 86.4479C503.541 86.4479 643.454 68.6217 643.454 46.6319C643.454 24.6422 503.541 6.81598 330.951 6.81598C158.36 6.81598 18.4482 24.6422 18.4482 46.6319C18.4482 68.6217 158.36 86.4479 330.951 86.4479Z" fill="#EED9F5"/>
<path opacity="0.55" d="M330.23 83.9509C500.413 83.9509 638.373 66.9707 638.373 46.0245C638.373 25.0784 500.413 8.09814 330.23 8.09814C160.048 8.09814 22.0874 25.0784 22.0874 46.0245C22.0874 66.9707 160.048 83.9509 330.23 83.9509Z" fill="#EBD2F3"/>
<path opacity="0.64" d="M329.51 81.454C497.264 81.454 633.257 65.35 633.257 45.4846C633.257 25.6193 497.264 9.51532 329.51 9.51532C161.755 9.51532 25.7626 25.6193 25.7626 45.4846C25.7626 65.35 161.755 81.454 329.51 81.454Z" fill="#E7CAF1"/>
<path opacity="0.73" d="M328.825 78.9571C494.152 78.9571 628.176 63.699 628.176 44.8773C628.176 26.0556 494.152 10.7975 328.825 10.7975C163.498 10.7975 29.4739 26.0556 29.4739 44.8773C29.4739 63.699 163.498 78.9571 328.825 78.9571Z" fill="#E4C3EF"/>
<path opacity="0.82" d="M328.104 76.4601C491.004 76.4601 623.06 62.0783 623.06 44.3374C623.06 26.5965 491.004 12.2147 328.104 12.2147C165.205 12.2147 33.1491 26.5965 33.1491 44.3374C33.1491 62.0783 165.205 76.4601 328.104 76.4601Z" fill="#E1BBED"/>
<path opacity="0.91" d="M327.384 73.9632C487.855 73.9632 617.943 60.4274 617.943 43.7301C617.943 27.0328 487.855 13.4969 327.384 13.4969C166.912 13.4969 36.8243 27.0328 36.8243 43.7301C36.8243 60.4274 166.912 73.9632 327.384 73.9632Z" fill="#DDB4EB"/>
<path d="M326.699 71.4663C484.743 71.4663 612.863 58.8066 612.863 43.1902C612.863 27.5738 484.743 14.9141 326.699 14.9141C168.655 14.9141 40.5356 27.5738 40.5356 43.1902C40.5356 58.8066 168.655 71.4663 326.699 71.4663Z" fill="#DAACE9"/>
<path d="M326.699 70.5215C482.972 70.5215 609.656 58.2848 609.656 43.1902C609.656 28.0955 482.972 15.8589 326.699 15.8589C170.426 15.8589 43.7424 28.0955 43.7424 43.1902C43.7424 58.2848 170.426 70.5215 326.699 70.5215Z" fill="#D4A6E3"/>
<path d="M326.699 69.5767C481.201 69.5767 606.449 57.7631 606.449 43.1902C606.449 28.6174 481.201 16.8037 326.699 16.8037C172.198 16.8037 46.9493 28.6174 46.9493 43.1902C46.9493 57.7631 172.198 69.5767 326.699 69.5767Z" fill="#CFA1DC"/>
<path d="M326.699 68.6319C479.45 68.6319 603.278 57.2413 603.278 43.1902C603.278 29.1391 479.45 17.7485 326.699 17.7485C173.949 17.7485 50.1201 29.1391 50.1201 43.1902C50.1201 57.2413 173.949 68.6319 326.699 68.6319Z" fill="#C99BD6"/>
<path d="M326.699 67.6871C477.679 67.6871 600.071 56.7195 600.071 43.1902C600.071 29.6609 477.679 18.6932 326.699 18.6932C175.72 18.6932 53.3269 29.6609 53.3269 43.1902C53.3269 56.7195 175.72 67.6871 326.699 67.6871Z" fill="#C495CF"/>
<path d="M326.699 66.7424C475.907 66.7424 596.865 56.1977 596.865 43.1902C596.865 30.1827 475.907 19.6381 326.699 19.6381C177.491 19.6381 56.5337 30.1827 56.5337 43.1902C56.5337 56.1977 177.491 66.7424 326.699 66.7424Z" fill="#BE8FC9"/>
<path d="M326.699 65.7976C474.156 65.7976 593.694 55.6759 593.694 43.1902C593.694 30.7045 474.156 20.5828 326.699 20.5828C179.242 20.5828 59.7045 30.7045 59.7045 43.1902C59.7045 55.6759 179.242 65.7976 326.699 65.7976Z" fill="#B98AC2"/>
<path d="M326.699 64.8527C472.385 64.8527 590.487 55.1541 590.487 43.1902C590.487 31.2263 472.385 21.5276 326.699 21.5276C181.013 21.5276 62.9113 31.2263 62.9113 43.1902C62.9113 55.1541 181.013 64.8527 326.699 64.8527Z" fill="#B384BC"/>
<path d="M326.699 63.908C470.634 63.908 587.316 54.6323 587.316 43.1902C587.316 31.7481 470.634 22.4724 326.699 22.4724C182.764 22.4724 66.0821 31.7481 66.0821 43.1902C66.0821 54.6323 182.764 63.908 326.699 63.908Z" fill="#AE7EB5"/>
<path d="M326.699 62.9632C468.863 62.9632 584.109 54.1105 584.109 43.1902C584.109 32.2699 468.863 23.4172 326.699 23.4172C184.535 23.4172 69.2889 32.2699 69.2889 43.1902C69.2889 54.1105 184.535 62.9632 326.699 62.9632Z" fill="#A878AF"/>
<path d="M326.699 62.0184C467.092 62.0184 580.903 53.5887 580.903 43.1902C580.903 32.7916 467.092 24.3619 326.699 24.3619C186.306 24.3619 72.4957 32.7916 72.4957 43.1902C72.4957 53.5887 186.306 62.0184 326.699 62.0184Z" fill="#A373A8"/>
<path d="M326.699 61.0736C465.341 61.0736 577.732 53.0669 577.732 43.1902C577.732 33.3134 465.341 25.3068 326.699 25.3068C188.058 25.3068 75.6665 33.3134 75.6665 43.1902C75.6665 53.0669 188.058 61.0736 326.699 61.0736Z" fill="#9D6DA2"/>
<path d="M326.771 60.3313C463.88 60.3313 575.029 52.6872 575.029 43.2577C575.029 33.8282 463.88 26.1841 326.771 26.1841C189.662 26.1841 78.513 33.8282 78.513 43.2577C78.513 52.6872 189.662 60.3313 326.771 60.3313Z" fill="#9A699E"/>
<path d="M326.807 59.5889C462.404 59.5889 572.327 52.3074 572.327 43.3251C572.327 34.3429 462.404 27.0613 326.807 27.0613C191.21 27.0613 81.2875 34.3429 81.2875 43.3251C81.2875 52.3074 191.21 59.5889 326.807 59.5889Z" fill="#97669A"/>
<path d="M326.879 58.9141C460.944 58.9141 569.625 51.9649 569.625 43.3926C569.625 34.8204 460.944 27.8712 326.879 27.8712C192.815 27.8712 84.134 34.8204 84.134 43.3926C84.134 51.9649 192.815 58.9141 326.879 58.9141Z" fill="#946297"/>
<path d="M566.958 43.5276C566.958 51.6258 459.512 58.2393 326.951 58.2393C194.391 58.2393 86.9444 51.6933 86.9444 43.5276C86.9444 35.362 194.391 28.816 326.951 28.816C459.512 28.816 566.958 35.362 566.958 43.5276Z" fill="#915E93"/>
<path d="M564.256 43.5951C564.256 51.2883 458.035 57.4969 327.023 57.4969C196.012 57.4969 89.7909 51.2883 89.7909 43.5951C89.7909 35.9018 196.012 29.6932 327.023 29.6932C458.035 29.6932 564.256 35.9018 564.256 43.5951Z" fill="#8E5B8F"/>
<path d="M561.59 43.6626C561.59 50.8834 456.593 56.7546 327.095 56.7546C197.598 56.7546 92.6014 50.8834 92.6014 43.6626C92.6014 36.4417 197.598 30.5706 327.095 30.5706C456.593 30.5706 561.59 36.4417 561.59 43.6626Z" fill="#8B578B"/>
<path d="M558.887 43.7301C558.887 50.546 455.152 56.0123 327.168 56.0123C199.183 56.0123 95.4479 50.4786 95.4479 43.7301C95.4479 36.9816 199.183 31.4479 327.168 31.4479C455.152 31.4479 558.887 36.9816 558.887 43.7301Z" fill="#885487"/>
<path d="M556.185 43.865C556.185 50.2086 453.675 55.3374 327.204 55.3374C200.732 55.3374 98.2224 50.2086 98.2224 43.865C98.2224 37.5215 200.732 32.3926 327.204 32.3926C453.675 32.3926 556.185 37.5215 556.185 43.865Z" fill="#855083"/>
<path d="M553.519 43.9325C553.519 49.8037 452.233 54.5951 327.312 54.5951C202.39 54.5951 101.105 49.8037 101.105 43.9325C101.105 38.0614 202.39 33.27 327.312 33.27C452.233 33.27 553.519 38.0614 553.519 43.9325Z" fill="#824C80"/>
<path d="M550.816 44C550.816 49.4662 450.756 53.8527 327.348 53.8527C203.939 53.8527 103.879 49.3987 103.879 44C103.879 38.6012 203.939 34.1472 327.348 34.1472C450.756 34.1472 550.816 38.6012 550.816 44Z" fill="#7F497C"/>
<path d="M548.114 44.0675C548.114 49.0613 449.315 53.1779 327.42 53.1779C205.525 53.1779 106.726 49.1288 106.726 44.0675C106.726 39.0061 205.525 34.957 327.42 34.957C449.315 34.957 548.114 39.0061 548.114 44.0675Z" fill="#7C4578"/>
</g>
</svg>
