<svg width="133" height="244" viewBox="0 0 133 244" fill="none" xmlns="http://www.w3.org/2000/svg">
<g clip-path="url(#clip0_2004_23144)">
<path d="M75.6444 48.2439C74.3033 42.1855 64.756 39.1563 54.3784 41.4521C43.9689 43.7479 36.6248 50.5397 37.9978 56.5981L39.6582 64.1232L44.8311 62.9753C48.7266 64.3146 53.8675 64.6015 59.2639 63.3899C64.6602 62.1782 69.1944 59.7867 72.164 56.917L77.3368 55.769L75.6764 48.2439H75.6444Z" fill="url(#paint0_linear_2004_23144)"/>
<path d="M77.3368 55.769C78.678 61.8274 71.3338 68.6192 60.9563 70.915C50.5787 73.2108 41.0313 70.1816 39.6902 64.1232C38.3491 58.0649 45.6933 51.2731 56.0708 48.9773C66.4803 46.6815 75.9958 49.7107 77.3368 55.769Z" fill="#FFDA9D"/>
<path d="M60.158 67.4075C51.377 69.3526 43.969 66.8655 43.1707 63.358C42.3725 59.8505 48.0562 54.4298 56.8372 52.4848C65.6182 50.5397 73.0262 53.0268 73.8245 56.5343C74.6227 60.0418 68.939 65.4625 60.158 67.4075Z" fill="#FCC554"/>
<path d="M121.529 85.6146C127.66 113.132 108.182 140.905 78.0074 147.601C47.8326 154.298 18.4242 137.43 12.2934 109.88C6.1627 82.3622 25.6406 54.5893 55.8154 47.8932C85.9901 41.197 115.399 58.0649 121.529 85.6146Z" fill="url(#paint1_linear_2004_23144)"/>
<mask id="mask0_2004_23144" style="mask-type:luminance" maskUnits="userSpaceOnUse" x="11" y="46" width="112" height="104">
<path d="M121.529 85.6146C127.66 113.132 108.182 140.905 78.0074 147.601C47.8326 154.298 18.4242 137.43 12.2934 109.88C6.1627 82.3622 25.6406 54.5893 55.8154 47.8932C85.9901 41.197 115.399 58.0649 121.529 85.6146Z" fill="white"/>
</mask>
<g mask="url(#mask0_2004_23144)">
<path d="M43.1068 51.1136C36.0181 60.0418 33.6552 72.2223 35.7308 83.4144C37.2315 91.386 40.9036 99.0068 46.4596 104.906C52.0156 110.805 59.5193 114.982 67.534 116.257" stroke="#F39F19" stroke-width="1.25" stroke-linecap="round" stroke-linejoin="round"/>
<path d="M17.9132 70.5324C13.1555 77.9619 12.1018 87.4959 14.6882 95.9457C17.2427 104.364 23.3095 111.602 30.941 116.034C38.5725 120.466 47.6729 122.156 56.422 121.232" stroke="#F39F19" stroke-width="1.25" stroke-linecap="round" stroke-linejoin="round"/>
<path d="M6.60974 110.677C7.28029 119.127 12.6447 126.875 19.893 131.276C27.1414 135.676 36.082 136.888 44.4799 135.485C49.046 134.719 53.5802 133.157 57.1884 130.223" stroke="#F39F19" stroke-width="1.25" stroke-linecap="round" stroke-linejoin="round"/>
<path d="M33.6871 149.036C44.1605 150.694 55.3683 145.88 61.3393 137.143" stroke="#F39F19" stroke-width="1.25" stroke-linecap="round" stroke-linejoin="round"/>
<path d="M59.1361 156.147C63.4149 154.776 66.4164 150.981 68.9389 147.251C70.9506 144.253 72.9303 140.746 72.132 137.207" stroke="#F39F19" stroke-width="1.25" stroke-linecap="round" stroke-linejoin="round"/>
<path d="M68.1406 45.5655C78.3585 50.6354 85.6707 60.6795 88.5126 71.7122C90.5562 79.5562 90.4604 88.0061 87.9059 95.7225C85.3833 103.439 80.3702 110.358 73.6327 114.918" stroke="#F39F19" stroke-width="1.25" stroke-linecap="round" stroke-linejoin="round"/>
<path d="M99.1775 52.4848C106.617 57.2039 111.631 65.3987 112.876 74.1355C114.121 82.8405 111.694 91.96 106.681 99.1981C101.668 106.436 94.1324 111.825 85.7985 114.695" stroke="#F39F19" stroke-width="1.25" stroke-linecap="round" stroke-linejoin="round"/>
<path d="M126.478 84.0522C129.448 91.9919 127.883 101.271 123.19 108.318C118.496 115.364 110.896 120.243 102.722 122.507C98.2515 123.751 93.4619 124.229 88.9596 123.113" stroke="#F39F19" stroke-width="1.25" stroke-linecap="round" stroke-linejoin="round"/>
<path d="M118.719 129.49C109.938 135.421 97.7407 135.804 88.6084 130.415" stroke="#F39F19" stroke-width="1.25" stroke-linecap="round" stroke-linejoin="round"/>
<path d="M98.507 146.741C94.0367 147.315 89.6941 145.146 85.8624 142.819C82.7651 140.969 79.5081 138.61 78.7098 135.07" stroke="#F39F19" stroke-width="1.25" stroke-linecap="round" stroke-linejoin="round"/>
<path d="M54.5061 45.693L72.579 126.907" stroke="#F39F19" stroke-width="1.25" stroke-linecap="round" stroke-linejoin="round"/>
<path d="M30.2705 104.555C53.2608 113.77 79.3484 102.61 88.5765 79.6518C97.8045 56.6937 86.6287 30.6427 63.6384 21.4275C40.6481 12.2124 14.5286 23.3726 5.33244 46.3307C-3.89561 69.2888 7.28023 95.3399 30.2705 104.555Z" fill="url(#paint2_radial_2004_23144)" style="mix-blend-mode:screen"/>
<g style="mix-blend-mode:screen">
<path d="M121.529 85.6146C127.66 113.132 108.182 140.905 78.0074 147.601C47.8326 154.298 18.4242 137.43 12.2934 109.88C6.1627 82.3622 25.6406 54.5893 55.8154 47.8932C85.9901 41.197 115.399 58.0649 121.529 85.6146Z" fill="#00578B"/>
<path opacity="0.91" d="M121.912 86.4118C127.979 113.643 108.693 141.129 78.8375 147.729C48.9821 154.361 19.8611 137.653 13.7942 110.39C7.72728 83.1594 27.0136 55.6734 56.869 49.073C86.7245 42.4406 115.846 59.149 121.912 86.4118Z" fill="#004F7E"/>
<path opacity="0.82" d="M79.6949 147.906C109.235 141.345 128.314 114.175 122.311 87.2211C116.307 60.2669 87.4931 43.7351 57.9533 50.2963C28.4136 56.8576 9.33393 84.0272 15.3377 110.981C21.3414 137.936 50.1551 154.467 79.6949 147.906Z" fill="#004772"/>
<path opacity="0.73" d="M122.711 88.0061C128.65 114.663 109.779 141.543 80.5618 148.048C51.345 154.553 22.8306 138.163 16.8914 111.506C10.9523 84.8493 29.8235 57.9692 59.0403 51.4644C88.2571 44.9596 116.771 61.3492 122.711 88.0061Z" fill="#003F65"/>
<path opacity="0.64" d="M81.372 148.217C110.275 141.798 128.941 115.202 123.063 88.8155C117.186 62.4286 88.9908 46.242 60.088 52.6617C31.1852 59.0815 12.5195 85.6766 18.3969 112.064C24.2743 138.45 52.4692 154.637 81.372 148.217Z" fill="#003758"/>
<path opacity="0.55" d="M123.477 89.6323C129.289 115.715 110.8 142.021 82.2223 148.367C53.6121 154.712 25.7364 138.705 19.9249 112.622C14.1135 86.5393 32.5696 60.2331 61.1798 53.8878C89.7899 47.5424 117.666 63.5493 123.477 89.6323Z" fill="#002F4C"/>
<path opacity="0.45" d="M83.0491 148.528C111.332 142.246 129.601 116.237 123.854 90.4342C118.107 64.6317 90.5197 48.8073 62.2366 55.0894C33.9535 61.3716 15.6846 87.3813 21.4318 113.184C27.179 138.986 54.766 154.811 83.0491 148.528Z" fill="#00283F"/>
<path opacity="0.36" d="M124.243 91.2266C129.927 116.736 111.854 142.468 83.8827 148.686C55.9111 154.903 28.6421 139.247 22.9584 113.706C17.2747 88.1974 35.3476 62.4651 63.3191 56.2473C91.2906 50.0295 118.56 65.6857 124.243 91.2266Z" fill="#002033"/>
<path opacity="0.27" d="M84.7262 148.84C112.372 142.699 130.227 117.264 124.607 92.0286C118.986 66.7934 92.0174 51.3142 64.3713 57.4549C36.7251 63.5955 18.8701 89.0307 24.491 114.266C30.1118 139.501 57.0801 154.98 84.7262 148.84Z" fill="#001826"/>
<path opacity="0.18" d="M125.042 92.8528C130.598 117.788 112.94 142.946 85.6069 149.005C58.274 155.063 31.6116 139.789 26.0556 114.822C20.4997 89.8874 38.1575 64.7291 65.4904 58.6707C92.8233 52.6124 119.486 67.8859 125.042 92.8528Z" fill="#001019"/>
<path opacity="0.09" d="M86.4352 149.151C113.462 143.148 130.92 118.298 125.429 93.6473C119.938 68.9965 93.5781 53.8796 66.5517 59.8826C39.5252 65.8856 22.067 90.7353 27.5577 115.386C33.0484 140.037 59.4087 155.154 86.4352 149.151Z" fill="#00080D"/>
</g>
<g style="mix-blend-mode:multiply">
<path d="M121.529 85.6146C127.66 113.132 108.182 140.905 78.0074 147.601C47.8326 154.298 18.4242 137.43 12.2934 109.88C6.1627 82.3622 25.6406 54.5893 55.8154 47.8932C85.9901 41.197 115.399 58.0649 121.529 85.6146Z" fill="#3E9ACA"/>
<path opacity="0.91" d="M122.072 81.1505C128.171 108.509 108.789 136.09 78.8056 142.755C48.8225 149.419 19.5737 132.615 13.4749 105.256C7.37608 77.8981 26.7582 50.3165 56.7414 43.6523C86.7245 36.988 115.973 53.7921 122.072 81.1505Z" fill="#50A3CF"/>
<path opacity="0.82" d="M122.647 76.6864C128.714 103.885 109.459 131.308 79.6359 137.908C49.8443 144.54 20.7552 127.832 14.6883 100.633C8.6214 73.434 27.8758 46.0118 57.6993 39.4114C87.4909 32.7791 116.58 49.4874 122.647 76.6864Z" fill="#61ACD4"/>
<path opacity="0.73" d="M80.4519 133.113C110.078 126.533 129.212 99.2782 123.189 72.238C117.166 45.1978 88.2669 28.6119 58.641 35.1922C29.0152 41.7726 9.88131 69.0274 15.9042 96.0676C21.9271 123.108 50.8261 139.694 80.4519 133.113Z" fill="#73B6D8"/>
<path opacity="0.64" d="M123.764 67.7902C129.736 94.6703 110.737 121.742 81.2962 128.278C51.8559 134.815 23.15 118.33 17.1469 91.4817C11.1758 64.6015 30.1748 37.5301 59.6151 30.9934C89.0555 24.4568 117.761 40.9419 123.764 67.7902Z" fill="#84BFDD"/>
<path opacity="0.55" d="M124.307 63.3261C130.246 90.0149 111.343 116.927 82.0946 123.432C52.8458 129.936 24.2995 113.547 18.3604 86.8581C12.4212 60.1693 31.3243 33.2574 60.5731 26.7526C89.8219 20.2478 118.368 36.6373 124.307 63.3261Z" fill="#96C8E2"/>
<path opacity="0.45" d="M124.85 58.862C130.757 85.3914 111.982 112.144 82.8928 118.585C53.8037 125.026 25.449 108.764 19.5418 82.2346C13.6345 55.7053 32.41 28.9527 61.4991 22.5117C90.5882 16.0388 118.943 32.3326 124.85 58.862Z" fill="#A7D1E7"/>
<path opacity="0.36" d="M125.425 54.3979C131.3 80.7679 112.621 107.329 83.723 113.77C54.8255 120.179 26.6304 104.013 20.7871 77.643C14.9118 51.2731 33.5914 24.7118 62.4889 18.2708C91.3864 11.8617 119.581 28.028 125.425 54.3979Z" fill="#B9DAEC"/>
<path opacity="0.27" d="M125.968 49.9657C131.811 76.1762 113.259 102.578 84.5532 108.955C55.8472 115.333 27.8438 99.2619 22.0004 73.0514C16.157 46.8409 34.7089 20.4391 63.4149 14.0618C92.1208 7.68458 120.124 23.7552 125.968 49.9657Z" fill="#CAE3F1"/>
<path opacity="0.18" d="M126.542 45.5017C132.354 71.5527 113.898 97.7632 85.3834 104.109C56.8371 110.454 29.0253 94.479 23.2138 68.4279C17.4024 42.4087 35.8585 16.1663 64.3728 9.82095C92.9191 3.47559 120.731 19.4506 126.542 45.5017Z" fill="#DCEDF5"/>
<path opacity="0.09" d="M127.085 41.0376C132.833 66.8973 114.536 92.9803 86.1817 99.2619C57.827 105.543 30.1748 89.696 24.4272 63.8044C18.6797 37.9765 36.9761 11.8936 65.3308 5.61197C93.6855 -0.669617 121.338 15.1778 127.085 41.0695V41.0376Z" fill="#EDF6FA"/>
</g>
<g style="mix-blend-mode:screen">
<path d="M121.529 85.6146C127.66 113.132 108.182 140.905 78.0074 147.601C47.8326 154.298 18.4242 137.43 12.2934 109.88C6.1627 82.3622 25.6406 54.5893 55.8154 47.8932C85.9901 41.197 115.399 58.0649 121.529 85.6146Z" fill="#BB00E9"/>
<path d="M121.561 85.5189C127.692 113.069 108.214 140.81 78.0393 147.506C47.8645 154.202 18.4242 137.302 12.2934 109.784C6.1627 82.2347 25.6406 54.4936 55.8153 47.7975C85.9901 41.1014 115.43 58.0011 121.561 85.5189Z" fill="#BA00E8"/>
<path opacity="0.99" d="M121.561 85.4552C127.692 113.005 108.214 140.746 78.0074 147.442C47.8326 154.138 18.3923 137.238 12.2615 109.721C6.13078 82.1709 25.6087 54.4298 55.8154 47.7337C85.9901 41.0376 115.43 57.9373 121.561 85.4552Z" fill="#B900E7"/>
<path opacity="0.99" d="M121.593 85.3914C127.724 112.941 108.214 140.682 78.0393 147.41C47.8645 154.106 18.4242 137.207 12.2934 109.689C6.16269 82.139 25.6725 54.3979 55.8473 47.6699C86.022 40.9738 115.462 57.8735 121.593 85.3914Z" fill="#B900E6"/>
<path opacity="0.98" d="M121.593 85.3276C127.724 112.877 108.214 140.65 78.0392 147.346C47.8645 154.042 18.3922 137.143 12.2615 109.593C6.13071 82.0433 25.6405 54.2704 55.8153 47.5743C85.99 40.8782 115.462 57.7779 121.593 85.3276Z" fill="#B800E5"/>
<path opacity="0.98" d="M121.625 85.2639C127.756 112.814 108.246 140.587 78.0712 147.283C47.8645 153.979 18.4242 137.079 12.2934 109.529C6.16269 81.9796 25.6725 54.2066 55.8473 47.5105C86.054 40.8144 115.494 57.7141 121.625 85.2639Z" fill="#B700E4"/>
<path opacity="0.97" d="M121.625 85.2001C127.756 112.75 108.246 140.523 78.0712 147.219C47.8645 153.915 18.4242 137.015 12.2934 109.466C6.16269 81.9158 25.6725 54.1429 55.8473 47.4468C86.054 40.7506 115.494 57.6504 121.625 85.2001Z" fill="#B600E3"/>
<path opacity="0.97" d="M121.657 85.1363C127.788 112.686 108.278 140.459 78.0712 147.187C47.8645 153.883 18.4242 136.983 12.2615 109.434C6.13077 81.8839 25.6406 54.111 55.8473 47.383C86.054 40.6869 115.494 57.5866 121.657 85.1363Z" fill="#B500E2"/>
<path opacity="0.97" d="M121.689 85.0725C127.82 112.622 108.31 140.427 78.1031 147.123C47.8964 153.819 18.4241 136.92 12.2934 109.37C6.16263 81.8201 25.6724 54.0153 55.8791 47.3192C86.0858 40.6231 115.558 57.5228 121.689 85.0725Z" fill="#B500E1"/>
<path opacity="0.96" d="M121.689 85.0087C127.82 112.59 108.31 140.363 78.1031 147.059C47.8964 153.755 18.4241 136.856 12.2934 109.274C6.16263 81.6926 25.6724 53.9196 55.8791 47.2235C86.0858 40.5274 115.558 57.4271 121.689 85.0087Z" fill="#B400E0"/>
<path opacity="0.96" d="M121.721 84.945C127.852 112.527 108.342 140.3 78.135 147.028C47.9283 153.724 18.456 136.824 12.2934 109.242C6.16263 81.6607 25.6724 53.8878 55.8791 47.1598C86.0858 40.4637 115.558 57.3634 121.721 84.945Z" fill="#B300DF"/>
<path opacity="0.95" d="M78.1315 146.945C108.36 140.231 127.886 112.435 121.744 84.8623C115.603 57.2892 86.1191 40.3798 55.8908 47.0939C25.6625 53.8081 6.13634 81.6034 12.2779 109.176C18.4195 136.75 47.9032 153.659 78.1315 146.945Z" fill="#B200DE"/>
<path opacity="0.95" d="M121.753 84.8174C127.884 112.399 108.374 140.204 78.1351 146.9C47.8965 153.596 18.4242 136.696 12.2934 109.115C6.16269 81.5331 25.6725 53.7283 55.9111 47.0322C86.1498 40.3361 115.622 57.2358 121.753 84.8174Z" fill="#B100DD"/>
<path opacity="0.94" d="M78.1427 146.851C108.371 140.137 127.894 112.328 121.749 84.7378C115.603 57.1475 86.1164 40.2241 55.8881 46.9383C25.6598 53.6525 6.13676 81.4617 12.2822 109.052C18.4276 136.642 47.9144 153.566 78.1427 146.851Z" fill="#B100DC"/>
<path opacity="0.94" d="M121.785 84.6899C127.915 112.271 108.406 140.076 78.167 146.804C47.9284 153.532 18.4561 136.601 12.2934 109.019C6.16269 81.4375 25.6725 53.6327 55.9111 46.9047C86.1498 40.1767 115.622 57.1083 121.785 84.6899Z" fill="#B000DB"/>
<path opacity="0.94" d="M121.817 84.6261C127.947 112.208 108.438 140.044 78.1989 146.741C47.9603 153.469 18.456 136.537 12.3253 108.923C6.19455 81.3418 25.7044 53.5051 55.943 46.809C86.1816 40.081 115.686 57.0126 121.817 84.6261Z" fill="#AF00DA"/>
<path opacity="0.93" d="M121.817 84.5623C127.947 112.144 108.438 139.981 78.1989 146.677C47.9603 153.405 18.456 136.473 12.3253 108.86C6.19455 81.2781 25.7044 53.4414 55.943 46.7452C86.1816 40.0172 115.686 56.9488 121.817 84.5623Z" fill="#AE00D9"/>
<path opacity="0.93" d="M121.849 84.4986C127.979 112.112 108.469 139.917 78.1989 146.645C47.9603 153.373 18.456 136.441 12.2934 108.828C6.16263 81.2143 25.6725 53.4095 55.943 46.6815C86.1816 39.9535 115.686 56.8851 121.849 84.4986Z" fill="#AD00D8"/>
<path opacity="0.92" d="M121.848 84.4348C127.979 112.048 108.469 139.853 78.1989 146.581C47.9602 153.309 18.4241 136.378 12.2933 108.764C6.13067 81.1505 25.6724 53.3457 55.943 46.6177C86.1816 39.8897 115.718 56.8213 121.848 84.4348Z" fill="#AD00D7"/>
<path opacity="0.92" d="M121.881 84.371C128.043 111.985 108.47 139.821 78.2309 146.517C47.9603 153.245 18.4561 136.314 12.3254 108.7C6.1627 81.0867 25.7364 53.25 55.975 46.5539C86.2456 39.8259 115.75 56.7575 121.881 84.371Z" fill="#AC00D6"/>
<path opacity="0.91" d="M121.88 84.3072C128.043 111.921 108.469 139.757 78.2308 146.485C47.9603 153.213 18.4561 136.282 12.2934 108.668C6.13071 81.0549 25.7044 53.2181 55.943 46.4901C86.2136 39.7622 115.718 56.6938 121.88 84.3072Z" fill="#AB00D5"/>
<path opacity="0.91" d="M78.2668 146.395C108.53 139.673 128.074 111.83 121.921 84.2051C115.768 56.5805 86.2472 39.6354 55.9845 46.3572C25.7218 53.0791 6.17703 80.9224 12.3301 108.547C18.4832 136.172 48.0041 153.117 78.2668 146.395Z" fill="#AA00D4"/>
<path opacity="0.91" d="M121.944 84.1478C128.107 111.761 108.533 139.598 78.2628 146.326C47.9922 153.054 18.4561 136.091 12.3253 108.477C6.1946 80.8635 25.7364 53.0268 56.0069 46.2988C86.2775 39.5708 115.814 56.5343 121.944 84.1478Z" fill="#A900D3"/>
<path opacity="0.9" d="M121.944 84.0841C128.107 111.698 108.533 139.566 78.2628 146.294C47.9923 153.022 18.4561 136.059 12.2935 108.445C6.13077 80.8317 25.7045 52.9631 55.975 46.2351C86.2456 39.5071 115.782 56.4706 121.944 84.0841Z" fill="#A900D2"/>
<path opacity="0.9" d="M121.976 84.0203C128.139 111.666 108.565 139.502 78.2947 146.23C48.0241 152.958 18.488 135.995 12.3253 108.381C6.16264 80.736 25.7363 52.8993 56.0069 46.1713C86.2774 39.4433 115.814 56.4068 121.976 84.0203Z" fill="#A800D1"/>
<path opacity="0.89" d="M121.976 83.9565C128.139 111.602 108.565 139.439 78.2947 146.167C48.0242 152.895 18.4561 135.931 12.3253 108.318C6.1946 80.7041 25.7364 52.8355 56.0069 46.1075C86.2775 39.3795 115.846 56.343 121.976 83.9565Z" fill="#A700D0"/>
<path opacity="0.89" d="M122.008 83.8927C128.171 111.538 108.597 139.375 78.2947 146.103C47.9922 152.831 18.4561 135.867 12.2934 108.222C6.13071 80.5766 25.7044 52.7399 56.0069 46.0119C86.3094 39.2839 115.846 56.2474 122.008 83.8927Z" fill="#A600CF"/>
<path opacity="0.88" d="M122.04 83.829C128.203 111.474 108.629 139.343 78.3267 146.071C48.0242 152.799 18.488 135.835 12.3254 108.19C6.1627 80.5447 25.7364 52.6761 56.0389 45.9481C86.3413 39.2201 115.878 56.1836 122.04 83.829Z" fill="#A500CE"/>
<path opacity="0.88" d="M122.04 83.7652C128.203 111.411 108.629 139.279 78.3267 146.007C48.0242 152.735 18.488 135.772 12.3254 108.126C6.1627 80.4809 25.7364 52.6123 56.0389 45.8843C86.3413 39.1563 115.878 56.1198 122.04 83.7652Z" fill="#A500CD"/>
<path opacity="0.88" d="M122.072 83.7014C128.235 111.347 108.661 139.215 78.3585 145.943C48.0561 152.671 18.488 135.708 12.3572 108.063C6.19456 80.4171 25.7682 52.5486 56.0707 45.8206C86.3732 39.0926 115.941 56.056 122.072 83.7014Z" fill="#A400CC"/>
<path opacity="0.87" d="M122.072 83.6376C128.235 111.283 108.661 139.183 78.3586 145.911C48.0561 152.639 18.488 135.676 12.3254 108.031C6.1627 80.3852 25.7364 52.4848 56.0389 45.7568C86.3413 39.0288 115.909 55.9923 122.072 83.6376Z" fill="#A300CB"/>
<path opacity="0.87" d="M78.3632 145.846C108.678 139.113 128.258 111.232 122.097 83.573C115.937 55.914 86.3676 38.9503 56.0532 45.6836C25.7388 52.4169 6.15845 80.2974 12.3192 107.956C18.4799 135.615 48.0489 152.579 78.3632 145.846Z" fill="#A200CA"/>
<path opacity="0.86" d="M122.104 83.5101C128.267 111.187 108.693 139.056 78.3586 145.784C48.0561 152.512 18.4561 135.548 12.3253 107.871C6.16263 80.1939 25.7363 52.3253 56.0707 45.5973C86.3732 38.8693 115.973 55.8328 122.104 83.5101Z" fill="#A100C9"/>
<path opacity="0.86" d="M122.136 83.4463C128.299 111.124 108.725 138.992 78.3905 145.72C48.0561 152.448 18.488 135.485 12.3253 107.807C6.16263 80.1302 25.7363 52.2616 56.0707 45.5336C86.4052 38.8056 115.973 55.7691 122.136 83.4463Z" fill="#A100C8"/>
<path opacity="0.85" d="M122.168 83.3826C128.331 111.06 108.757 138.96 78.4225 145.688C48.088 152.416 18.52 135.453 12.3573 107.776C6.19462 80.0983 25.7683 52.1978 56.1027 45.4698C86.4371 38.7418 116.005 55.7053 122.168 83.3826Z" fill="#A000C7"/>
<path opacity="0.85" d="M122.168 83.3188C128.33 110.996 108.725 138.897 78.4224 145.625C48.088 152.353 18.5199 135.389 12.3572 107.712C6.19455 80.0345 25.8002 52.134 56.1026 45.406C86.4371 38.678 116.005 55.6415 122.168 83.3188Z" fill="#9F00C6"/>
<path opacity="0.85" d="M122.2 83.255C128.362 110.932 108.757 138.833 78.4224 145.561C48.088 152.289 18.488 135.325 12.3253 107.648C6.16262 79.9707 25.7682 52.0703 56.1027 45.3423C86.4371 38.6143 116.037 55.5778 122.2 83.255Z" fill="#9E00C5"/>
<path opacity="0.84" d="M122.2 83.1912C128.362 110.868 108.757 138.769 78.4224 145.529C48.088 152.257 18.488 135.293 12.3253 107.584C6.16262 79.9069 25.7682 52.0065 56.1027 45.2466C86.4371 38.4867 116.037 55.4821 122.2 83.1912Z" fill="#9D00C4"/>
<path opacity="0.84" d="M78.4382 145.458C108.787 138.717 128.389 110.803 122.221 83.1095C116.052 55.4161 86.4492 38.4308 56.1004 45.1718C25.7516 51.9127 6.14953 79.8273 12.3179 107.521C18.4863 135.214 48.0894 152.199 78.4382 145.458Z" fill="#9D00C3"/>
<path opacity="0.83" d="M122.232 83.0637C128.394 110.773 108.789 138.673 78.4543 145.401C48.1199 152.129 18.488 135.166 12.3253 107.457C6.16262 79.7475 25.7682 51.8471 56.1026 45.1191C86.4371 38.3911 116.069 55.3545 122.232 83.0637Z" fill="#9C00C2"/>
<path opacity="0.83" d="M122.264 82.9999C128.426 110.709 108.821 138.61 78.4863 145.369C48.12 152.097 18.52 135.134 12.3573 107.425C6.19461 79.7156 25.8002 51.8152 56.1346 45.0553C86.501 38.3273 116.101 55.2908 122.264 82.9999Z" fill="#9B00C1"/>
<path opacity="0.82" d="M122.296 82.9362C128.458 110.645 108.853 138.546 78.4863 145.306C48.1199 152.034 18.5199 135.07 12.3572 107.361C6.19454 79.6519 25.8002 51.7514 56.1665 44.9915C86.5329 38.2635 116.133 55.227 122.296 82.9362Z" fill="#9A00C0"/>
<path opacity="0.82" d="M122.296 82.8405C128.458 110.55 108.853 138.482 78.4863 145.21C48.12 151.938 18.52 134.943 12.3254 107.265C6.16268 79.5562 25.7683 51.6238 56.1346 44.8958C86.501 38.1678 116.101 55.1632 122.296 82.8405Z" fill="#9900BF"/>
<path opacity="0.82" d="M122.327 82.7767C128.49 110.486 108.885 138.418 78.5182 145.146C48.1518 151.874 18.5199 134.879 12.3572 107.17C6.19455 79.4605 25.8002 51.5282 56.1665 44.8002C86.5329 38.0722 116.165 55.0676 122.327 82.7767Z" fill="#9800BE"/>
<path opacity="0.81" d="M122.327 82.713C128.49 110.422 108.885 138.354 78.5182 145.114C48.1518 151.842 18.5199 134.847 12.3572 107.138C6.19455 79.4287 25.8002 51.4963 56.1665 44.7364C86.5329 37.9765 116.165 55.0038 122.327 82.713Z" fill="#9800BD"/>
<path opacity="0.81" d="M78.5062 145.04C108.889 138.291 128.516 110.357 122.344 82.6461C116.172 54.9355 86.5378 37.9425 56.1546 44.691C25.7713 51.4396 6.14445 79.3743 12.3167 107.085C18.4889 134.796 48.123 151.789 78.5062 145.04Z" fill="#9700BC"/>
<path opacity="0.8" d="M122.359 82.5854C128.522 110.295 108.916 138.259 78.5182 144.987C48.1518 151.747 18.5199 134.719 12.3253 107.01C6.16262 79.3011 25.7682 51.3369 56.1665 44.6089C86.5329 37.849 116.165 54.8763 122.359 82.5854Z" fill="#9600BB"/>
<path opacity="0.8" d="M78.5485 144.94C108.932 138.191 128.556 110.242 122.379 82.5146C116.203 54.7868 86.5662 37.7799 56.183 44.5285C25.7998 51.277 6.176 79.2257 12.3521 106.953C18.5281 134.681 48.1653 151.688 78.5485 144.94Z" fill="#9500BA"/>
<path opacity="0.79" d="M78.5666 144.877C108.95 138.129 128.574 110.18 122.398 82.4524C116.221 54.7247 86.5843 37.7177 56.2011 44.4663C25.8179 51.2149 6.19406 79.1635 12.3701 106.891C18.5462 134.619 48.1833 151.626 78.5666 144.877Z" fill="#9400B9"/>
<path opacity="0.79" d="M78.5838 144.808C108.984 138.056 128.622 110.104 122.446 82.3763C116.27 54.6485 86.6188 37.6447 56.2183 44.3971C25.8179 51.1495 6.18015 79.1012 12.3562 106.829C18.5323 134.557 48.1834 151.561 78.5838 144.808Z" fill="#9400B8"/>
<path opacity="0.79" d="M122.455 82.3303C128.618 110.071 108.98 138.036 78.5821 144.795C48.1838 151.555 18.52 134.528 12.3573 106.787C6.1946 79.046 25.8321 51.0818 56.2304 44.3219C86.6287 37.562 116.293 54.5893 122.455 82.3303Z" fill="#9300B7"/>
<path opacity="0.78" d="M122.455 82.2665C128.618 110.008 108.98 137.972 78.5821 144.732C48.1838 151.492 18.52 134.464 12.3573 106.723C6.1946 78.9823 25.8321 51.018 56.2304 44.2581C86.6287 37.4983 116.293 54.5255 122.455 82.2665Z" fill="#9200B6"/>
<path opacity="0.78" d="M122.487 82.2028C128.65 109.944 109.012 137.908 78.614 144.668C48.2157 151.428 18.5518 134.401 12.3572 106.66C6.16263 78.9185 25.8321 50.9542 56.2304 44.1944C86.6287 37.4345 116.293 54.4617 122.487 82.2028Z" fill="#9100B5"/>
<path opacity="0.77" d="M78.6303 144.583C109.048 137.827 128.697 109.858 122.517 82.1135C116.337 54.3685 86.6686 37.3538 56.251 44.11C25.8333 50.8662 6.18472 78.835 12.3646 106.58C18.5445 134.325 48.2127 151.34 78.6303 144.583Z" fill="#9000B4"/>
<path opacity="0.77" d="M78.6235 144.552C109.041 137.796 128.687 109.813 122.503 82.0512C116.319 54.289 86.6479 37.2604 56.2302 44.0166C25.8126 50.7729 6.16707 78.7556 12.3508 106.518C18.5345 134.28 48.2058 151.309 78.6235 144.552Z" fill="#9000B3"/>
<path opacity="0.76" d="M122.551 82.0114C128.746 109.784 109.076 137.749 78.646 144.508C48.2158 151.268 18.5519 134.241 12.3573 106.468C6.16269 78.6953 25.8322 50.731 56.2624 43.9711C86.6926 37.2113 116.356 54.2385 122.551 82.0114Z" fill="#8F00B2"/>
<path opacity="0.76" d="M122.551 81.9477C128.746 109.721 109.076 137.685 78.646 144.445C48.2158 151.205 18.5519 134.177 12.3573 106.404C6.16269 78.6315 25.8322 50.6673 56.2624 43.9074C86.6926 37.1475 116.356 54.1748 122.551 81.9477Z" fill="#8E00B1"/>
<path opacity="0.76" d="M122.583 81.8839C128.778 109.657 109.108 137.653 78.6778 144.413C48.2476 151.173 18.5518 134.145 12.3892 106.373C6.19455 78.5996 25.864 50.6035 56.2942 43.8436C86.7244 37.0837 116.42 54.111 122.583 81.8839Z" fill="#8D00B0"/>
<path opacity="0.75" d="M122.583 81.8201C128.778 109.593 109.108 137.589 78.6779 144.349C48.2477 151.109 18.5519 134.082 12.3573 106.309C6.16269 78.5358 25.8322 50.5397 56.2624 43.7798C86.6926 37.0199 116.388 54.0472 122.583 81.8201Z" fill="#8C00AF"/>
<path opacity="0.75" d="M122.615 81.7564C128.809 109.529 109.14 137.525 78.7098 144.285C48.2796 151.045 18.5838 134.018 12.3892 106.213C6.19455 78.4402 25.864 50.4441 56.2942 43.6842C86.7244 36.9243 116.42 53.9515 122.615 81.7564Z" fill="#8C00AE"/>
<path opacity="0.74" d="M122.615 81.6926C128.809 109.465 109.14 137.462 78.6778 144.222C48.2476 150.981 18.5518 133.954 12.3572 106.149C6.16263 78.3764 25.8321 50.3803 56.2942 43.6204C86.7245 36.8605 116.42 53.8878 122.615 81.6926Z" fill="#8B00AD"/>
<path opacity="0.74" d="M122.647 81.6288C128.841 109.402 109.172 137.43 78.7098 144.19C48.2476 150.95 18.5518 133.922 12.3572 106.117C6.16263 78.3445 25.8321 50.3165 56.2942 43.5566C86.7564 36.7968 116.452 53.824 122.647 81.6288Z" fill="#8A00AC"/>
<path opacity="0.73" d="M122.679 81.565C128.873 109.37 109.204 137.366 78.7418 144.126C48.2796 150.886 18.5838 133.827 12.3892 106.054C6.19461 78.2488 25.8641 50.2527 56.3262 43.4928C86.7884 36.733 116.484 53.7921 122.679 81.565Z" fill="#8900AB"/>
<path opacity="0.73" d="M78.7407 144.065C109.193 137.301 128.86 109.284 122.669 81.4874C116.477 53.6909 86.7719 36.6406 56.3198 43.4044C25.8677 50.1683 6.2005 78.1851 12.3919 105.982C18.5833 133.778 48.2886 150.829 78.7407 144.065Z" fill="#8800AA"/>
<path opacity="0.73" d="M122.711 81.4056C128.905 109.21 109.236 137.238 78.7736 143.998C48.3115 150.758 18.5838 133.699 12.4211 105.926C6.22647 78.1213 25.8959 50.0933 56.3581 43.3334C86.8202 36.5735 116.548 53.6327 122.711 81.4056Z" fill="#8800A9"/>
<path opacity="0.72" d="M78.7761 143.933C109.245 137.166 128.927 109.146 122.735 81.3491C116.544 53.5526 86.8244 36.5054 56.3551 43.2731C25.8858 50.0408 6.20465 78.0607 12.396 105.857C18.5874 133.654 48.3068 150.701 78.7761 143.933Z" fill="#8700A8"/>
<path opacity="0.72" d="M78.801 143.902C109.27 137.134 128.948 109.101 122.753 81.2869C116.558 53.4731 86.8355 36.412 56.3662 43.1797C25.8969 49.9474 6.21886 77.9812 12.4141 105.795C18.6093 133.609 48.3317 150.67 78.801 143.902Z" fill="#8600A7"/>
<path opacity="0.71" d="M122.774 81.2143C128.969 109.019 109.268 137.047 78.8055 143.839C48.3434 150.599 18.6157 133.54 12.4211 105.735C6.22646 77.93 25.9279 49.902 56.39 43.1102C86.8521 36.3503 116.58 53.4095 122.774 81.2143Z" fill="#8500A6"/>
<path opacity="0.71" d="M122.775 81.1505C128.969 108.955 109.268 137.015 78.8056 143.775C48.3115 150.535 18.5838 133.476 12.3892 105.671C6.1946 77.8662 25.896 49.8063 56.3582 43.0464C86.8522 36.2866 116.58 53.3457 122.775 81.1505Z" fill="#8400A5"/>
<path opacity="0.7" d="M78.8226 143.708C109.309 136.937 129.001 108.9 122.806 81.0863C116.611 53.2725 86.8742 36.2145 56.3877 42.986C25.9012 49.7575 6.20922 77.7944 12.4044 105.608C18.5996 133.422 48.336 150.48 78.8226 143.708Z" fill="#8400A4"/>
<path opacity="0.7" d="M122.806 81.023C129.001 108.86 109.3 136.888 78.8056 143.648C48.3115 150.407 18.5838 133.348 12.3891 105.544C6.19454 77.7387 25.8959 49.6788 56.39 42.9189C86.8841 36.159 116.612 53.2182 122.806 81.023Z" fill="#8300A3"/>
<path opacity="0.7" d="M122.838 80.9592C129.033 108.796 109.332 136.824 78.8375 143.616C48.3434 150.376 18.5838 133.316 12.3891 105.48C6.19454 77.6431 25.8959 49.615 56.39 42.8233C86.8841 36.0634 116.644 53.1225 122.838 80.9592Z" fill="#8200A2"/>
<path opacity="0.69" d="M78.851 143.546C109.355 136.77 129.058 108.717 122.859 80.8856C116.66 53.0547 86.906 35.9858 56.4023 42.7612C25.8986 49.5365 6.19572 77.5905 12.3948 105.421C18.5938 133.252 48.3473 150.321 78.851 143.546Z" fill="#8100A1"/>
<path opacity="0.69" d="M78.8691 143.484C109.373 136.708 129.076 108.654 122.877 80.8234C116.678 52.9925 86.9241 35.9236 56.4204 42.6989C25.9166 49.4743 6.21379 77.5282 12.4128 105.359C18.6119 133.19 48.3653 150.259 78.8691 143.484Z" fill="#8000A0"/>
<path opacity="0.68" d="M122.902 80.7679C129.097 108.605 109.395 136.664 78.8695 143.456C48.3754 150.216 18.6157 133.157 12.3892 105.32C6.1946 77.4836 25.896 49.4237 56.422 42.6319C86.9161 35.872 116.676 52.9312 122.902 80.7679Z" fill="#80009F"/>
<path opacity="0.68" d="M122.902 80.7041C129.097 108.541 109.395 136.601 78.8695 143.392C48.3435 150.152 18.5838 133.093 12.3892 105.257C6.1946 77.4198 25.896 49.3599 56.422 42.5682C86.948 35.7764 116.708 52.8674 122.902 80.7041Z" fill="#7F009E"/>
<path opacity="0.67" d="M78.8975 143.353C109.418 136.574 129.132 108.503 122.929 80.6547C116.726 52.8066 86.9559 35.7268 56.4349 42.506C25.914 49.2852 6.20029 77.3562 12.4032 105.204C18.606 133.052 48.3765 150.132 78.8975 143.353Z" fill="#7E009D"/>
<path opacity="0.67" d="M122.934 80.5766C129.129 108.445 109.427 136.505 78.9014 143.297C48.3754 150.089 18.6157 132.998 12.3892 105.129C6.16264 77.2604 25.896 49.2005 56.422 42.4087C86.948 35.6169 116.708 52.708 122.934 80.5766Z" fill="#7D009C"/>
<path opacity="0.67" d="M122.966 80.5128C129.161 108.381 109.459 136.441 78.9333 143.233C48.4073 150.025 18.6157 132.934 12.4211 105.065C6.22646 77.1966 25.9279 49.1367 56.4539 42.3449C86.9799 35.5532 116.771 52.6442 122.966 80.5128Z" fill="#7C009B"/>
<path opacity="0.66" d="M78.9259 143.19C109.464 136.407 129.189 108.319 122.982 80.4541C116.775 52.5888 86.9877 35.4982 56.4495 42.2812C25.9114 49.0642 6.18679 77.1522 12.3935 105.018C18.6002 132.883 48.3878 149.973 78.9259 143.19Z" fill="#7C009A"/>
<path opacity="0.66" d="M78.944 143.128C109.482 136.345 129.207 108.257 123 80.3918C116.793 52.5265 87.0057 35.4359 56.4676 42.2189C25.9294 49.002 6.20486 77.09 12.4115 104.955C18.6182 132.821 48.4058 149.911 78.944 143.128Z" fill="#7B0099"/>
<path opacity="0.65" d="M123.03 80.3215C129.225 108.19 109.523 136.282 78.9653 143.074C48.4393 149.865 18.6477 132.774 12.4211 104.906C6.22652 77.0372 25.9279 48.9454 56.4859 42.1536C87.0119 35.3619 116.803 52.4529 123.03 80.3215Z" fill="#7A0098"/>
<path opacity="0.65" d="M123.03 80.2577C129.225 108.126 109.491 136.218 78.9653 143.01C48.4074 149.802 18.6158 132.711 12.4212 104.81C6.22658 76.9415 25.9599 48.8497 56.4859 42.058C87.0119 35.2662 116.835 52.3572 123.03 80.2577Z" fill="#790097"/>
<path opacity="0.64" d="M123.062 80.162C129.257 108.031 109.523 136.154 78.9972 142.914C48.4392 149.706 18.6477 132.583 12.453 104.714C6.25844 76.8459 25.9918 48.7222 56.5178 41.9623C87.0757 35.1705 116.867 52.2935 123.062 80.162Z" fill="#780096"/>
<path opacity="0.64" d="M123.062 80.0983C129.256 107.967 109.523 136.091 78.9652 142.882C48.4073 149.674 18.6157 132.551 12.3891 104.683C6.19453 76.814 25.9279 48.6903 56.4858 41.8985C87.0437 35.1068 116.835 52.2297 123.062 80.0983Z" fill="#780095"/>
<path opacity="0.64" d="M79.0078 142.834C109.563 136.047 129.299 107.942 123.088 80.0598C116.878 52.1773 87.0729 35.0759 56.5175 41.8627C25.9622 48.6496 6.22676 76.7546 12.4373 104.637C18.6478 132.52 48.4525 149.621 79.0078 142.834Z" fill="#770094"/>
<path opacity="0.63" d="M123.094 79.9707C129.288 107.871 109.555 135.963 78.9972 142.755C48.4393 149.547 18.6157 132.424 12.4211 104.555C6.22651 76.6546 25.9599 48.5628 56.5178 41.771C87.0757 34.9792 116.899 52.1021 123.094 79.9707Z" fill="#760093"/>
<path opacity="0.63" d="M79.05 142.734C109.623 135.943 129.369 107.821 123.155 79.9214C116.94 52.0218 87.1185 34.9095 56.5459 41.7002C25.9733 48.4908 6.22706 76.6129 12.4414 104.513C18.6558 132.412 48.4775 149.525 79.05 142.734Z" fill="#750092"/>
<path opacity="0.62" d="M123.158 79.8432C129.384 107.744 109.619 135.867 79.0611 142.659C48.4712 149.451 18.6796 132.328 12.4531 104.427C6.22653 76.527 25.9918 48.4033 56.5497 41.6116C87.1396 34.8198 116.931 51.9427 123.158 79.8432Z" fill="#740091"/>
<path opacity="0.62" d="M123.158 79.7794C129.384 107.68 109.619 135.804 79.0292 142.595C48.4393 149.387 18.6158 132.264 12.4211 104.364C6.19461 76.4632 25.9599 48.3396 56.5497 41.5478C87.1396 34.756 116.963 51.8789 123.158 79.7794Z" fill="#740090"/>
<path opacity="0.61" d="M123.19 79.7156C129.416 107.616 109.651 135.74 79.0611 142.532C48.4712 149.323 18.6477 132.2 12.4211 104.3C6.19461 76.3995 25.9599 48.2758 56.5497 41.484C87.1396 34.6923 116.963 51.8152 123.19 79.7156Z" fill="#73008F"/>
<path opacity="0.61" d="M79.0966 142.509C109.686 135.715 129.443 107.575 123.225 79.6586C117.007 51.7418 87.1683 34.6187 56.5785 41.4131C25.9887 48.2076 6.23163 76.3467 12.4498 104.264C18.668 132.18 48.5068 149.304 79.0966 142.509Z" fill="#72008E"/>
<path opacity="0.61" d="M123.222 79.5881C129.448 107.489 109.683 135.644 79.0929 142.436C48.5031 149.228 18.6476 132.105 12.453 104.204C6.22647 76.3038 25.9917 48.1482 56.5816 41.3565C87.1715 34.5647 117.027 51.6876 123.222 79.5881Z" fill="#71008D"/>
<path opacity="0.6" d="M79.1008 142.385C109.691 135.59 129.448 107.451 123.23 79.5341C117.011 51.6172 87.1726 34.4942 56.5828 41.2886C25.993 48.0831 6.2359 76.2222 12.4541 104.139C18.6723 132.056 48.511 149.179 79.1008 142.385Z" fill="#70008C"/>
<path opacity="0.6" d="M79.1181 142.315C109.725 135.517 129.496 107.375 123.278 79.458C117.06 51.5411 87.2071 34.4212 56.6001 41.2195C25.993 48.0178 6.22198 76.16 12.4402 104.077C18.6583 131.994 48.5111 149.114 79.1181 142.315Z" fill="#70008B"/>
<path opacity="0.59" d="M79.1112 142.284C109.718 135.486 129.486 107.33 123.264 79.3958C117.042 51.4617 87.1863 34.3278 56.5793 41.1261C25.9723 47.9244 6.20433 76.0805 12.4263 104.015C18.6484 131.949 48.5042 149.083 79.1112 142.284Z" fill="#6F008A"/>
<path opacity="0.59" d="M123.285 79.333C129.512 107.265 109.747 135.421 79.1249 142.213C48.5031 149.004 18.6476 131.882 12.4211 103.949C6.19455 76.0168 25.9598 47.8613 56.5816 41.0695C87.2034 34.2777 117.059 51.4006 123.253 79.333H123.285Z" fill="#6E0089"/>
<path opacity="0.58" d="M123.317 79.2692C129.544 107.202 109.747 135.357 79.1569 142.149C48.5351 148.941 18.6796 131.818 12.4531 103.885C6.22653 75.9531 25.9918 47.7975 56.6136 41.0057C87.2354 34.2139 117.091 51.3369 123.317 79.2692Z" fill="#6D0088"/>
<path opacity="0.58" d="M79.1646 142.091C109.789 135.288 129.571 107.129 123.349 79.1951C117.127 51.2611 87.2569 34.1303 56.6327 40.9324C26.0085 47.7345 6.22655 75.8937 12.4486 103.828C18.6706 131.762 48.5404 148.893 79.1646 142.091Z" fill="#6C0087"/>
<path opacity="0.58" d="M123.349 79.1417C129.576 107.074 109.779 135.261 79.1569 142.053C48.5351 148.845 18.6477 131.722 12.4531 103.758C6.22652 75.8255 26.0237 47.6381 56.6455 40.8463C87.2673 34.0545 117.155 51.1775 123.349 79.1417Z" fill="#6C0086"/>
<path opacity="0.57" d="M79.2069 141.99C109.831 135.188 129.61 107.015 123.384 79.0637C117.158 51.1125 87.2854 33.9677 56.6611 40.7698C26.0369 47.572 6.2581 75.7452 12.4839 103.696C18.7098 131.648 48.5827 148.792 79.2069 141.99Z" fill="#6B0085"/>
<path opacity="0.57" d="M79.193 141.928C109.834 135.122 129.627 106.946 123.401 78.9946C117.176 51.0433 87.2887 33.9017 56.6473 40.7076C26.0058 47.5136 6.21305 75.6898 12.4389 103.641C18.6647 131.592 48.5516 148.734 79.193 141.928Z" fill="#6A0084"/>
<path opacity="0.56" d="M79.2111 141.866C109.853 135.06 129.645 106.884 123.419 78.9323C117.194 50.9811 87.3068 33.8394 56.6653 40.6454C26.0239 47.4513 6.23112 75.6276 12.457 103.579C18.6828 131.53 48.5696 148.672 79.2111 141.866Z" fill="#690083"/>
<path opacity="0.56" d="M123.413 78.8866C129.64 106.851 109.843 135.038 79.1888 141.83C48.5351 148.622 18.6477 131.467 12.4211 103.535C6.1946 75.5704 25.9918 47.383 56.6455 40.5912C87.2993 33.7994 117.187 50.9542 123.413 78.8866Z" fill="#680082"/>
<path opacity="0.55" d="M79.2215 141.765C109.863 134.959 129.653 106.769 123.423 78.8009C117.193 50.8324 87.3034 33.6768 56.6619 40.4828C26.0205 47.2887 6.23081 75.4789 12.4605 103.447C18.6901 131.416 48.5801 148.571 79.2215 141.765Z" fill="#680081"/>
<path opacity="0.55" d="M123.445 78.7271C129.672 106.691 109.874 134.879 79.2206 141.702C48.5669 148.494 18.6795 131.339 12.453 103.375C6.22646 75.411 26.0237 47.2235 56.6774 40.3999C87.3311 33.6081 117.218 50.7629 123.445 78.7271Z" fill="#670080"/>
<path opacity="0.55" d="M79.2569 141.634C109.916 134.824 129.719 106.631 123.489 78.6626C117.26 50.6941 87.3559 33.5416 56.6972 40.3514C26.0386 47.1612 6.23496 75.3545 12.4646 103.323C18.6943 131.291 48.5982 148.444 79.2569 141.634Z" fill="#66007F"/>
<path opacity="0.54" d="M79.2818 141.603C109.94 134.793 129.741 106.586 123.508 78.6003C117.274 50.6147 87.367 33.4482 56.7083 40.258C26.0497 47.0678 6.24917 75.275 12.4827 103.261C18.7162 131.246 48.6232 148.413 79.2818 141.603Z" fill="#65007E"/>
<path opacity="0.54" d="M123.509 78.5359C129.735 106.532 109.938 134.719 79.2526 141.543C48.5989 148.367 18.6796 131.18 12.4531 103.216C6.22652 75.2197 26.0237 47.0322 56.7094 40.2086C87.3631 33.3849 117.282 50.5716 123.509 78.5359Z" fill="#64007D"/>
<path opacity="0.53" d="M79.286 141.478C109.962 134.665 129.776 106.454 123.543 78.4689C117.309 50.4832 87.3884 33.3199 56.7125 40.1335C26.0367 46.9471 6.22219 75.1574 12.4557 103.143C18.6892 131.129 48.6101 148.292 79.286 141.478Z" fill="#64007C"/>
<path opacity="0.53" d="M123.541 78.4083C129.767 106.404 109.97 134.624 79.2846 141.416C48.5989 148.239 18.6796 131.053 12.4531 103.056C6.22652 75.0603 26.0237 46.8409 56.7094 40.0491C87.395 33.2255 117.314 50.4122 123.541 78.4083Z" fill="#63007B"/>
<path opacity="0.52" d="M79.2965 141.378C109.972 134.565 129.784 106.34 123.546 78.3374C117.309 50.3346 87.385 33.1573 56.7091 39.9709C26.0332 46.7845 6.22188 75.0088 12.4592 103.012C18.6965 131.014 48.6206 148.192 79.2965 141.378Z" fill="#62007A"/>
<path opacity="0.52" d="M79.3145 141.316C109.99 134.502 129.802 106.278 123.564 78.2752C117.327 50.2723 87.4031 33.0951 56.7272 39.9087C26.0513 46.7223 6.23994 74.9466 12.4773 102.949C18.7146 130.952 48.6386 148.129 79.3145 141.316Z" fill="#610079"/>
<path opacity="0.52" d="M123.605 78.217C129.831 106.213 110.002 134.432 79.3165 141.256C48.6308 148.08 18.6796 130.893 12.453 102.897C6.22651 74.9008 26.0556 46.6815 56.7413 39.8578C87.4269 33.0342 117.378 50.2209 123.605 78.217Z" fill="#600078"/>
<path opacity="0.51" d="M123.637 78.1532C129.863 106.149 110.034 134.401 79.3485 141.192C48.6628 148.016 18.7116 130.829 12.485 102.833C6.25849 74.837 26.0876 46.5858 56.7733 39.794C87.4589 32.9704 117.41 50.1571 123.637 78.1532Z" fill="#600077"/>
<path opacity="0.51" d="M123.637 78.0894C129.863 106.117 110.034 134.337 79.3485 141.16C48.6628 147.984 18.7116 130.797 12.485 102.769C6.25849 74.7414 26.0876 46.5221 56.7733 39.6984C87.4589 32.8747 117.41 50.0614 123.637 78.0894Z" fill="#5F0076"/>
<path opacity="0.5" d="M123.669 78.0257C129.895 106.054 110.066 134.273 79.3804 141.097C48.6628 147.92 18.7435 130.734 12.485 102.706C6.25849 74.6776 26.0876 46.4583 56.7733 39.6346C87.4909 32.811 117.41 49.9976 123.669 78.0257Z" fill="#5E0075"/>
<path opacity="0.5" d="M79.3783 141.022C110.089 134.201 129.925 105.956 123.684 77.9362C117.442 49.9162 87.4874 32.7312 56.7771 39.5525C26.0668 46.3737 6.2306 74.6181 12.4717 102.638C18.7129 130.658 48.668 147.843 79.3783 141.022Z" fill="#5D0074"/>
<path opacity="0.49" d="M79.3963 140.96C110.107 134.138 129.943 105.894 123.702 77.874C117.461 49.854 87.5054 32.669 56.7951 39.4902C26.0848 46.3114 6.24866 74.5559 12.4898 102.576C18.731 130.596 48.686 147.781 79.3963 140.96Z" fill="#5C0073"/>
<path opacity="0.49" d="M79.4206 140.922C110.131 134.1 129.964 105.842 123.719 77.8048C117.474 49.7676 87.5158 32.5687 56.8055 39.3899C26.0952 46.2112 6.26214 74.4695 12.5071 102.507C18.7521 130.544 48.7103 147.743 79.4206 140.922Z" fill="#5B0072"/>
<path opacity="0.48" d="M79.4067 140.859C110.134 134.034 129.981 105.773 123.736 77.7357C117.491 49.6984 87.5192 32.5026 56.7916 39.3277C26.0641 46.1527 6.2171 74.4142 12.4621 102.451C18.7071 130.489 48.6792 147.684 79.4067 140.859Z" fill="#5B0071"/>
<path opacity="0.48" d="M123.764 77.7068C130.023 105.735 110.162 134.018 79.4442 140.842C48.7266 147.665 18.7435 130.479 12.5169 102.419C6.25845 74.3906 26.1195 46.1075 56.8371 39.2839C87.5547 32.4602 117.538 49.6469 123.764 77.7068Z" fill="#5A0070"/>
<path opacity="0.48" d="M123.764 77.643C130.023 105.671 110.162 133.954 79.4442 140.778C48.7266 147.601 18.7434 130.415 12.4849 102.355C6.22647 74.3269 26.0875 46.0438 56.8051 39.2201C87.5227 32.3965 117.506 49.5831 123.764 77.643Z" fill="#59006F"/>
<path opacity="0.47" d="M123.796 77.5793C130.055 105.639 110.194 133.89 79.4442 140.714C48.6947 147.538 18.7435 130.351 12.485 102.291C6.22653 74.2312 26.0876 45.98 56.8371 39.1563C87.5866 32.3327 117.538 49.5194 123.796 77.5793Z" fill="#58006E"/>
<path opacity="0.47" d="M123.796 77.4836C130.055 105.544 110.194 133.795 79.4442 140.618C48.6947 147.442 18.7115 130.223 12.485 102.195C6.22653 74.1355 26.0876 45.8843 56.8371 39.0607C87.5866 32.237 117.57 49.4556 123.796 77.4836Z" fill="#57006D"/>
<path opacity="0.46" d="M79.5024 140.597C110.247 133.768 130.105 105.49 123.856 77.4355C117.607 49.3811 87.6182 32.1744 56.8735 39.0033C26.1287 45.8322 6.27086 74.1107 12.5197 102.165C18.7685 130.219 48.7577 147.426 79.5024 140.597Z" fill="#57006C"/>
<path opacity="0.46" d="M123.828 77.3561C130.087 105.416 110.226 133.699 79.4762 140.523C48.7266 147.346 18.7435 130.128 12.485 102.068C6.22653 74.008 26.0876 45.7249 56.8371 38.9012C87.5866 32.0776 117.57 49.2962 123.828 77.3561Z" fill="#56006B"/>
<path opacity="0.45" d="M79.4747 140.473C110.219 133.644 130.077 105.365 123.828 77.311C117.58 49.2566 87.5905 32.0499 56.8458 38.8788C26.101 45.7077 6.24315 73.9862 12.492 102.041C18.7408 130.095 48.73 147.302 79.4747 140.473Z" fill="#55006A"/>
<path opacity="0.45" d="M79.4997 140.442C110.262 133.609 130.13 105.313 123.878 77.2418C117.625 49.1702 87.6188 31.9527 56.8569 38.7854C26.095 45.6182 6.22624 73.9137 12.4789 101.985C18.7315 130.057 48.7378 147.274 79.4997 140.442Z" fill="#540069"/>
<path opacity="0.45" d="M79.5171 140.372C110.279 133.54 130.148 105.244 123.895 77.1726C117.642 49.1011 87.6362 31.8835 56.8742 38.7163C26.1123 45.549 6.24357 73.8445 12.4962 101.916C18.7488 129.988 48.7551 147.205 79.5171 140.372Z" fill="#530068"/>
<path opacity="0.44" d="M123.924 77.101C130.183 105.161 110.29 133.476 79.5401 140.3C48.7586 147.123 18.7754 129.905 12.517 101.845C6.2585 73.7848 26.1515 45.4698 56.901 38.6461C87.6824 31.8225 117.666 49.0411 123.924 77.101Z" fill="#530067"/>
<path opacity="0.44" d="M79.5212 140.248C110.3 133.411 130.183 105.113 123.93 77.0412C117.678 48.9696 87.6576 31.7552 56.8784 38.5918C26.0993 45.4283 6.21659 73.7269 12.4692 101.799C18.7219 129.87 48.7421 147.084 79.5212 140.248Z" fill="#520066"/>
<path opacity="0.43" d="M123.956 76.9734C130.215 105.065 110.322 133.348 79.5401 140.204C48.7586 147.028 18.7435 129.809 12.485 101.717C6.22658 73.6254 26.1196 45.3422 56.901 38.4867C87.6825 31.663 117.698 48.8816 123.956 76.9734Z" fill="#510065"/>
<path opacity="0.43" d="M123.956 76.9097C130.215 105.001 110.322 133.316 79.5401 140.14C48.7586 146.964 18.7435 129.745 12.485 101.653C6.22658 73.5616 26.1196 45.2466 56.901 38.423C87.6825 31.5993 117.698 48.8179 123.956 76.9097Z" fill="#500064"/>
<path opacity="0.42" d="M79.5816 140.085C110.361 133.249 130.24 104.936 123.984 76.8475C117.727 48.7588 87.7041 31.5304 56.9249 38.367C26.1458 45.2035 6.26621 73.5161 12.5227 101.605C18.7791 129.694 48.8025 146.922 79.5816 140.085Z" fill="#4F0063"/>
<path opacity="0.42" d="M79.5989 140.016C110.395 133.176 130.289 104.86 124.032 76.7714C117.776 48.6827 87.7386 31.4574 56.9422 38.2978C26.1458 45.1381 6.25229 73.4538 12.5088 101.543C18.7652 129.631 48.8025 146.857 79.5989 140.016Z" fill="#4F0062"/>
<path opacity="0.42" d="M124.02 76.7183C130.278 104.81 110.385 133.157 79.6039 139.981C48.8224 146.804 18.7754 129.586 12.5169 101.494C6.25844 73.4021 26.1514 45.0553 56.9329 38.2316C87.7143 31.4079 117.761 48.6265 124.02 76.7183Z" fill="#4E0061"/>
<path opacity="0.41" d="M79.61 139.923C110.406 133.083 130.297 104.753 124.037 76.647C117.776 48.541 87.7359 31.3018 56.9395 38.1422C26.1431 44.9825 6.25271 73.3121 12.513 101.418C18.7733 129.524 48.8137 146.763 79.61 139.923Z" fill="#4D0060"/>
<path opacity="0.41" d="M79.6274 139.854C110.424 133.013 130.314 104.684 124.054 76.5778C117.794 48.4718 87.7532 31.2326 56.9568 38.073C26.1605 44.9133 6.27004 73.2429 12.5303 101.349C18.7906 129.455 48.831 146.694 79.6274 139.854Z" fill="#4C005F"/>
<path opacity="0.4" d="M124.084 76.527C130.342 104.651 110.449 132.966 79.6359 139.821C48.8225 146.677 18.7754 129.426 12.517 101.303C6.2585 73.179 26.1515 44.864 56.9649 38.0084C87.7783 31.1529 117.825 48.4033 124.084 76.527Z" fill="#4B005E"/>
<path opacity="0.4" d="M124.084 76.4632C130.342 104.587 110.449 132.934 79.6359 139.757C48.8225 146.613 18.7754 129.363 12.517 101.239C6.2585 73.1152 26.1515 44.7683 56.9649 37.9446C87.7783 31.0891 117.825 48.3396 124.084 76.4632Z" fill="#4B005D"/>
<path opacity="0.39" d="M79.6877 139.691C110.501 132.847 130.403 104.5 124.138 76.3771C117.874 48.254 87.8169 31.004 57.0033 37.8482C26.1897 44.6924 6.2884 73.039 12.5525 101.162C18.8167 129.285 48.8741 146.535 79.6877 139.691Z" fill="#4A005C"/>
<path opacity="0.39" d="M124.148 76.3357C130.406 104.459 110.513 132.806 79.6677 139.662C48.8224 146.517 18.7754 129.267 12.5169 101.143C6.25844 73.0195 26.1514 44.6726 56.9967 37.8171C87.8101 30.9616 117.889 48.212 124.148 76.3357Z" fill="#49005B"/>
<path opacity="0.39" d="M79.6919 139.567C110.523 132.719 130.438 104.369 124.174 76.2458C117.91 48.1226 87.8383 30.8757 57.0075 37.7237C26.1767 44.5717 6.26143 72.9214 12.5256 101.045C18.7897 129.168 48.8611 146.415 79.6919 139.567Z" fill="#48005A"/>
<path opacity="0.38" d="M79.685 139.536C110.516 132.688 130.428 104.324 124.16 76.1835C117.892 48.0432 87.8175 30.7823 56.9867 37.6303C26.1559 44.4783 6.24378 72.842 12.5117 100.982C18.7797 129.123 48.8542 146.384 79.685 139.536Z" fill="#470059"/>
<path opacity="0.38" d="M79.7023 139.466C110.533 132.618 130.445 104.255 124.177 76.1143C117.909 47.974 87.8348 30.7131 57.004 37.5611C26.1732 44.4091 6.26111 72.7728 12.5291 100.913C18.797 129.053 48.8715 146.314 79.7023 139.466Z" fill="#470058"/>
<path opacity="0.37" d="M124.211 76.0487C130.47 104.204 110.545 132.551 79.7316 139.407C48.8863 146.262 18.8073 128.98 12.5488 100.856C6.29035 72.7006 26.2153 44.3538 57.0287 37.4982C87.842 30.6427 117.953 47.925 124.211 76.0487Z" fill="#460057"/>
<path opacity="0.37" d="M124.243 75.985C130.502 104.141 110.577 132.487 79.7316 139.343C48.8863 146.198 18.8073 128.916 12.5489 100.792C6.29041 72.6369 26.2153 44.29 57.0606 37.4345C87.906 30.5789 117.985 47.8613 124.243 75.985Z" fill="#450056"/>
<path opacity="0.36" d="M124.243 75.9212C130.502 104.077 110.577 132.456 79.7316 139.311C48.8863 146.167 18.8073 128.884 12.5169 100.729C6.25843 72.5731 26.1834 44.1944 57.0287 37.3388C87.874 30.4833 117.953 47.7656 124.243 75.9212Z" fill="#440055"/>
<path opacity="0.36" d="M124.275 75.8574C130.534 104.013 110.609 132.392 79.7636 139.247C48.9182 146.103 18.8073 128.82 12.5489 100.665C6.29041 72.5093 26.2153 44.1306 57.0606 37.275C87.906 30.4195 118.017 47.7018 124.275 75.8574Z" fill="#430054"/>
<path opacity="0.36" d="M79.7668 139.179C110.632 132.324 130.569 103.94 124.297 75.7823C118.025 47.6248 87.9199 30.3562 57.0547 37.2118C26.1894 44.0675 6.2525 72.4513 12.5243 100.609C18.7961 128.766 48.9016 146.035 79.7668 139.179Z" fill="#430053"/>
<path opacity="0.35" d="M124.307 75.7298C130.566 103.885 110.641 132.264 79.7636 139.12C48.8863 145.975 18.8074 128.693 12.517 100.537C6.25849 72.3818 26.1834 44.003 57.0607 37.1475C87.9379 30.2919 118.017 47.5743 124.307 75.7298Z" fill="#420052"/>
<path opacity="0.35" d="M124.307 75.6661C130.566 103.822 110.641 132.232 79.7636 139.088C48.8863 145.943 18.7754 128.661 12.517 100.505C6.25849 72.3499 26.1834 43.9393 57.0607 37.0837C87.9379 30.2282 118.049 47.5105 124.307 75.6661Z" fill="#410051"/>
<path opacity="0.34" d="M124.339 75.6023C130.598 103.79 110.673 132.169 79.7954 139.024C48.9182 145.88 18.8073 128.597 12.5488 100.442C6.29035 72.2542 26.2153 43.8755 57.0925 37.0199C87.9698 30.1644 118.081 47.4467 124.339 75.6023Z" fill="#400050"/>
<path opacity="0.34" d="M79.8126 138.948C110.695 132.088 130.643 103.687 124.367 75.5125C118.092 47.3378 87.969 30.0583 57.0866 36.9178C26.2041 43.7773 6.25633 72.1781 12.5319 100.353C18.8076 128.528 48.9301 145.807 79.8126 138.948Z" fill="#3F004F"/>
<path opacity="0.33" d="M79.8306 138.885C110.713 132.026 130.661 103.625 124.385 75.4503C118.11 47.2755 87.9871 29.9961 57.1046 36.8556C26.2222 43.7151 6.2744 72.1159 12.55 100.291C18.8256 128.465 48.9482 145.745 79.8306 138.885Z" fill="#3F004E"/>
<path opacity="0.33" d="M79.8237 138.854C110.706 131.995 130.651 103.58 124.371 75.388C118.092 47.1961 87.9663 29.9027 57.0839 36.7622C26.2014 43.6217 6.25675 72.0365 12.5362 100.228C18.8156 128.42 48.9413 145.714 79.8237 138.854Z" fill="#3E004D"/>
<path opacity="0.33" d="M79.8729 138.785C110.755 131.926 130.7 103.511 124.421 75.3188C118.141 47.1269 88.0155 29.8336 57.1331 36.693C26.2506 43.5525 6.30595 71.9673 12.5854 100.159C18.8648 128.351 48.9905 145.644 79.8729 138.785Z" fill="#3D004C"/>
<path opacity="0.32" d="M79.8591 138.723C110.759 131.859 130.717 103.442 124.438 75.2496C118.158 47.0577 88.0189 29.7675 57.1192 36.6308C26.2195 43.4941 6.2609 71.912 12.5403 100.104C18.8198 128.296 48.9594 145.586 79.8591 138.723Z" fill="#3C004B"/>
<path opacity="0.32" d="M79.8771 138.661C110.777 131.797 130.735 103.379 124.456 75.1874C118.177 46.9955 88.0369 29.7053 57.1373 36.5686C26.2376 43.4319 6.27897 71.8497 12.5584 100.042C18.8379 128.234 48.9775 145.524 79.8771 138.661Z" fill="#3B004A"/>
<path opacity="0.31" d="M79.9014 138.622C110.801 131.759 130.757 103.327 124.473 75.1182C118.19 46.9091 88.0473 29.6049 57.1476 36.4682C26.248 43.3316 6.29245 71.7633 12.5757 99.9725C18.859 128.182 49.0017 145.486 79.9014 138.622Z" fill="#3B0049"/>
<path opacity="0.31" d="M124.499 75.0921C130.789 103.311 110.8 131.722 79.8912 138.578C48.9821 145.433 18.8392 128.151 12.5488 99.9315C6.25843 71.7122 26.2472 43.3015 57.1564 36.446C88.0656 29.5905 118.208 46.8728 124.499 75.0921Z" fill="#3A0048"/>
<path opacity="0.3" d="M79.9056 138.498C110.822 131.631 130.792 103.196 124.509 74.9868C118.225 46.7777 88.0687 29.4766 57.1518 36.3437C26.235 43.2109 6.26547 71.6458 12.5487 99.8549C18.832 128.064 48.9887 145.365 79.9056 138.498Z" fill="#390047"/>
<path opacity="0.3" d="M124.531 74.9646C130.821 103.184 110.832 131.626 79.9232 138.482C49.014 145.338 18.8393 128.055 12.5808 99.8359C6.29041 71.6165 26.2792 43.174 57.1884 36.3184C88.0975 29.4629 118.272 46.7452 124.531 74.9646Z" fill="#380046"/>
<path opacity="0.3" d="M124.531 74.9008C130.821 103.12 110.832 131.563 79.9232 138.418C49.014 145.274 18.8392 127.991 12.5488 99.7721C6.25843 71.5528 26.2472 43.1102 57.1564 36.2547C88.0656 29.3991 118.24 46.6815 124.531 74.9008Z" fill="#370045"/>
<path opacity="0.29" d="M124.563 74.837C130.853 103.056 110.864 131.499 79.9552 138.386C49.014 145.242 18.8712 127.928 12.5808 99.7083C6.29041 71.489 26.2792 43.0465 57.1884 36.159C88.1295 29.3035 118.272 46.6177 124.563 74.837Z" fill="#370044"/>
<path opacity="0.29" d="M79.9521 138.273C110.886 131.402 130.866 102.95 124.579 74.724C118.292 46.4977 88.1186 29.1857 57.1845 36.0567C26.2504 42.9276 6.27004 71.3796 12.5571 99.6059C18.8442 127.832 49.018 145.144 79.9521 138.273Z" fill="#360043"/>
<path opacity="0.28" d="M124.595 74.6776C130.885 102.897 110.896 131.371 79.9552 138.227C49.0141 145.082 18.8393 127.768 12.5489 99.5489C6.25849 71.3296 26.2473 42.8551 57.1884 35.9996C88.1295 29.1441 118.304 46.4583 124.595 74.6776Z" fill="#350042"/>
<path opacity="0.28" d="M79.9875 138.142C110.922 131.271 130.902 102.819 124.615 74.5925C118.328 46.3662 88.154 29.0543 57.2199 35.9253C26.2858 42.7962 6.30544 71.2481 12.5925 99.4744C18.8796 127.701 49.0534 145.013 79.9875 138.142Z" fill="#340041"/>
<path opacity="0.27" d="M79.9875 138.142C110.939 131.267 130.93 102.798 124.639 74.5545C118.348 46.311 88.1573 28.9882 57.206 35.863C26.2547 42.7378 6.2635 71.2067 12.5544 99.4502C18.8454 127.694 49.0362 145.016 79.9875 138.142Z" fill="#330040"/>
<path opacity="0.27" d="M124.658 74.4863C130.949 102.738 110.96 131.18 80.019 138.067C49.0779 144.955 18.8712 127.609 12.5808 99.3576C6.29035 71.1063 26.2791 42.6638 57.2202 35.7764C88.1614 28.8889 118.368 46.2351 124.658 74.4863Z" fill="#33003F"/>
<path opacity="0.27" d="M80.0229 138.01C110.974 131.136 130.965 102.667 124.674 74.4231C118.384 46.1796 88.1927 28.8568 57.2414 35.7316C26.2901 42.6064 6.2989 71.0753 12.5898 99.3188C18.8808 127.562 49.0716 144.885 80.0229 138.01Z" fill="#32003E"/>
<path opacity="0.26" d="M80.0089 137.98C110.96 131.105 130.951 102.636 124.661 74.3927C118.37 46.1492 88.1788 28.8265 57.2275 35.7012C26.2762 42.576 6.28499 71.045 12.5759 99.2885C18.8668 127.532 49.0576 144.855 80.0089 137.98Z" fill="#31003D"/>
<path opacity="0.26" d="M80.0651 137.91C111.034 131.031 131.036 102.545 124.741 74.2847C118.446 46.024 88.2383 28.6904 57.2697 35.569C26.3012 42.4476 6.2992 70.9336 12.594 99.1943C18.8887 127.455 49.0966 144.789 80.0651 137.91Z" fill="#30003C"/>
<path opacity="0.25" d="M124.722 74.2312C131.013 102.482 111.024 130.989 80.0509 137.844C49.0779 144.732 18.8712 127.386 12.5808 99.1344C6.29041 70.8832 26.2792 42.3769 57.2522 35.5213C88.2253 28.6339 118.432 45.98 124.722 74.2312Z" fill="#2F003B"/>
<path opacity="0.25" d="M124.754 74.1674C131.045 102.419 111.056 130.925 80.0828 137.812C49.1098 144.7 18.9031 127.354 12.6127 99.1025C6.32227 70.8513 26.3111 42.345 57.2841 35.4575C88.2571 28.5701 118.464 45.9162 124.754 74.1674Z" fill="#2F003A"/>
<path opacity="0.24" d="M124.754 74.1037C131.045 102.387 111.024 130.861 80.0509 137.749C49.0778 144.636 18.8712 127.29 12.5488 99.0068C6.25842 70.7237 26.2791 42.2493 57.2522 35.3619C88.2252 28.4744 118.432 45.8206 124.754 74.1037Z" fill="#2E0039"/>
<path opacity="0.24" d="M124.786 74.0399C131.077 102.323 111.056 130.797 80.0829 137.685C49.1098 144.572 18.8712 127.226 12.5808 98.9431C6.2904 70.66 26.3111 42.1855 57.2842 35.2981C88.2572 28.4107 118.496 45.7568 124.786 74.0399Z" fill="#2D0038"/>
<path opacity="0.24" d="M80.0978 137.655C111.084 130.772 131.096 102.269 124.798 73.9915C118.499 45.7136 88.2743 28.3692 57.2886 35.2516C26.3029 42.134 6.28997 70.6371 12.5886 98.915C18.8871 127.193 49.1121 144.537 80.0978 137.655Z" fill="#2C0037"/>
<path opacity="0.23" d="M124.818 73.9124C131.109 102.195 111.088 130.702 80.1148 137.589C49.1098 144.477 18.9031 127.131 12.5808 98.8474C6.2904 70.5643 26.3111 42.058 57.2842 35.1706C88.2572 28.2831 118.496 45.6292 124.818 73.9124Z" fill="#2B0036"/>
<path opacity="0.23" d="M80.1331 137.523C111.136 130.637 131.163 102.131 124.864 73.8531C118.566 45.5753 88.3269 28.2339 57.3239 35.1202C26.321 42.0064 6.29412 70.5126 12.5927 98.7904C18.8913 127.068 49.1302 144.41 80.1331 137.523Z" fill="#2B0035"/>
<path opacity="0.22" d="M80.1262 137.492C111.129 130.606 131.153 102.086 124.851 73.7909C118.548 45.4958 88.3061 28.1406 57.3032 35.0268C26.3002 41.913 6.27647 70.4331 12.5789 98.7282C18.8813 127.023 49.1233 144.378 80.1262 137.492Z" fill="#2A0034"/>
<path opacity="0.22" d="M124.882 73.721C131.172 102.004 111.152 130.542 80.1467 137.43C49.1418 144.317 18.9031 126.971 12.6127 98.6561C6.32233 70.373 26.343 41.8348 57.348 34.9473C88.353 28.0599 118.592 45.406 124.882 73.721Z" fill="#290033"/>
<path opacity="0.21" d="M80.1615 137.361C111.164 130.475 131.188 101.955 124.886 73.6595C118.583 45.3644 88.3414 28.0092 57.3384 34.8954C26.3355 41.7816 6.31175 70.3017 12.6142 98.5968C18.9166 126.892 49.1586 144.247 80.1615 137.361Z" fill="#280032"/>
<path opacity="0.21" d="M124.914 73.5935C131.204 101.908 111.184 130.415 80.1787 137.302C49.1737 144.19 18.9031 126.844 12.6127 98.5285C6.32233 70.2135 26.343 41.7072 57.348 34.8198C88.353 27.9324 118.624 45.2785 124.914 73.5935Z" fill="#270031"/>
<path opacity="0.21" d="M80.1727 137.267C111.193 130.377 131.227 101.84 124.921 73.528C118.615 45.2158 88.3559 27.8497 57.3358 34.7398C26.3156 41.6298 6.28104 70.1669 12.5873 98.4792C18.8935 126.791 49.1526 144.158 80.1727 137.267Z" fill="#270030"/>
<path opacity="0.2" d="M124.946 73.4341C131.236 101.749 111.216 130.287 80.1787 137.175C49.1418 144.062 18.9031 126.684 12.5808 98.401C6.2904 70.086 26.3111 41.5478 57.348 34.6604C88.3849 27.7729 118.624 45.1509 124.946 73.4341Z" fill="#26002F"/>
<path opacity="0.2" d="M124.978 73.3703C131.268 101.685 111.247 130.223 80.2105 137.111C49.1736 143.998 18.9031 126.62 12.6127 98.3053C6.32226 69.9903 26.343 41.4521 57.3799 34.5647C88.4168 27.6773 118.687 45.0553 124.978 73.3703Z" fill="#25002E"/>
<path opacity="0.19" d="M80.1941 137.074C111.232 130.18 131.28 101.64 124.974 73.3274C118.668 45.0152 88.3946 27.6522 57.3572 34.5461C26.3198 41.44 6.27128 69.9802 12.5775 98.2924C18.8838 126.605 49.1568 143.968 80.1941 137.074Z" fill="#24002D"/>
<path opacity="0.19" d="M125.01 73.2427C131.332 101.558 111.279 130.128 80.2425 137.015C49.2056 143.903 18.935 126.525 12.6127 98.2097C6.32226 69.8947 26.343 41.3246 57.3799 34.4371C88.4168 27.5497 118.687 44.9277 125.01 73.2427Z" fill="#23002C"/>
<path opacity="0.18" d="M125.01 73.179C131.332 101.494 111.279 130.064 80.2106 136.951C49.1737 143.839 18.9032 126.461 12.5808 98.1459C6.2585 69.8309 26.3111 41.2608 57.38 34.3734C88.4169 27.486 118.687 44.864 125.01 73.179Z" fill="#23002B"/>
<path opacity="0.18" d="M80.2545 136.911C111.309 130.014 131.369 101.456 125.058 73.1268C118.748 44.7974 88.4583 27.4236 57.4038 34.3213C26.3492 41.219 6.28976 69.7762 12.5998 98.1057C18.9099 126.435 49.2 143.809 80.2545 136.911Z" fill="#22002A"/>
<path opacity="0.18" d="M80.2719 136.842C111.326 129.944 131.386 101.387 125.076 73.0577C118.766 44.7282 88.4757 27.3544 57.4211 34.2521C26.3665 41.1498 6.3071 69.7071 12.6172 98.0365C18.9272 126.366 49.2173 143.74 80.2719 136.842Z" fill="#210029"/>
<path opacity="0.17" d="M125.074 72.9876C131.396 101.335 111.311 129.905 80.2745 136.792C49.2056 143.679 18.9351 126.301 12.6127 97.9546C6.29041 69.6077 26.375 41.0376 57.4119 34.1502C88.4807 27.2627 118.751 44.6408 125.074 72.9876Z" fill="#200028"/>
<path opacity="0.17" d="M125.105 72.9239C131.428 101.271 111.343 129.841 80.3063 136.728C49.2375 143.616 18.935 126.238 12.6446 97.8908C6.32227 69.5439 26.4068 40.9738 57.4437 34.0864C88.5126 27.199 118.815 44.577 125.105 72.9239Z" fill="#1F0027"/>
<path opacity="0.16" d="M80.3003 136.68C111.372 129.778 131.442 101.204 125.128 72.8571C118.815 44.5105 88.5074 27.1258 57.4356 34.0273C26.3638 40.9288 6.2936 69.5031 12.6075 97.8498C18.9214 126.196 49.2285 143.581 80.3003 136.68Z" fill="#1E0026"/>
<path opacity="0.16" d="M125.137 72.7963C131.46 101.143 111.375 129.713 80.3063 136.633C49.2375 143.52 18.935 126.142 12.6127 97.7951C6.29035 69.4483 26.3749 40.8782 57.4438 33.9589C88.5126 27.0714 118.815 44.4494 125.137 72.7963Z" fill="#1E0025"/>
<path opacity="0.15" d="M125.137 72.7325C131.46 101.079 111.375 129.681 80.3063 136.569C49.2375 143.456 18.935 126.078 12.6127 97.7314C6.29035 69.3845 26.3749 40.7825 57.4438 33.8951C88.5126 27.0077 118.815 44.3857 125.137 72.7325Z" fill="#1D0024"/>
<path opacity="0.15" d="M80.3294 136.524C111.401 129.622 131.468 101.034 125.151 72.6703C118.833 44.3065 88.5227 26.9079 57.4509 33.8094C26.3791 40.711 6.31196 69.2992 12.6297 97.663C18.9474 126.027 49.2576 143.425 80.3294 136.524Z" fill="#1C0023"/>
<path opacity="0.15" d="M125.169 72.605C131.492 100.984 111.407 129.554 80.3383 136.473C49.2694 143.361 18.935 125.983 12.6127 97.6038C6.29035 69.2251 26.3749 40.655 57.4438 33.7356C88.5126 26.8482 118.847 44.2262 125.169 72.605Z" fill="#1B0022"/>
<path opacity="0.14" d="M125.201 72.5412C131.524 100.92 111.439 129.49 80.3383 136.409C49.2376 143.329 18.9351 125.919 12.6127 97.5401C6.29041 69.1613 26.375 40.5912 57.4757 33.6719C88.5765 26.7845 118.879 44.1625 125.201 72.5412Z" fill="#1A0021"/>
<path opacity="0.14" d="M125.233 72.4774C131.556 100.856 111.471 129.458 80.3702 136.346C49.2694 143.265 18.935 125.855 12.6446 97.4763C6.32227 69.0975 26.4068 40.4955 57.5076 33.6081C88.6084 26.6888 118.943 44.0987 125.233 72.4774Z" fill="#1A0020"/>
<path opacity="0.13" d="M80.3752 136.292C111.464 129.387 131.542 100.782 125.221 72.4005C118.899 44.0195 88.5718 26.6101 57.4828 33.5154C26.3938 40.4208 6.3158 69.0261 12.6374 97.4071C18.9589 125.788 49.2862 143.198 80.3752 136.292Z" fill="#19001F"/>
<path opacity="0.13" d="M80.3933 136.23C111.5 129.321 131.591 100.712 125.27 72.3314C118.948 43.9504 88.6071 26.544 57.5009 33.4532C26.3947 40.3624 6.30274 68.9707 12.6243 97.3517C18.9459 125.733 49.2871 143.139 80.3933 136.23Z" fill="#18001E"/>
<path opacity="0.12" d="M125.265 72.2862C131.587 100.665 111.503 129.267 80.3702 136.186C49.2694 143.106 18.935 125.696 12.6127 97.285C6.29035 68.9062 26.3749 40.3042 57.5076 33.3849C88.6084 26.4656 118.943 43.8755 125.265 72.2862Z" fill="#17001D"/>
<path opacity="0.12" d="M80.4287 136.099C111.535 129.189 131.627 100.581 125.305 72.2C118.984 43.8189 88.6425 26.4126 57.5363 33.3218C26.4301 40.231 6.33814 68.8393 12.6597 97.2203C18.9813 125.601 49.3225 143.008 80.4287 136.099Z" fill="#16001C"/>
<path opacity="0.12" d="M125.297 72.1586C131.619 100.537 111.535 129.171 80.4021 136.091C49.2694 143.01 18.935 125.568 12.6127 97.1893C6.29035 68.8105 26.3749 40.1767 57.5076 33.2574C88.6084 26.3381 118.975 43.7798 125.297 72.1586Z" fill="#16001B"/>
<path opacity="0.11" d="M80.4398 136.005C111.563 129.092 131.666 100.467 125.341 72.0685C119.015 43.6703 88.657 26.2531 57.5336 33.1661C26.4101 40.0792 6.30731 68.7045 12.6327 97.1027C18.9581 125.501 49.3164 142.918 80.4398 136.005Z" fill="#15001A"/>
<path opacity="0.11" d="M80.4571 135.936C111.581 129.023 131.683 100.398 125.358 71.9993C119.033 43.6011 88.6743 26.184 57.5509 33.097C26.4274 40.01 6.32464 68.6354 12.65 97.0336C18.9754 125.432 49.3337 142.849 80.4571 135.936Z" fill="#140019"/>
<path opacity="0.1" d="M80.4752 135.874C111.599 128.961 131.701 100.335 125.376 71.9371C119.051 43.5389 88.6924 26.1217 57.569 33.0347C26.4455 39.9477 6.34271 68.5731 12.6681 96.9713C18.9935 125.369 49.3518 142.787 80.4752 135.874Z" fill="#130018"/>
<path opacity="0.1" d="M80.4683 135.843C111.609 128.926 131.723 100.283 125.393 71.8679C119.064 43.4525 88.6888 26.0245 57.5481 32.9413C26.4075 39.8582 6.29381 68.5006 12.623 96.916C18.9522 125.331 49.3276 142.759 80.4683 135.843Z" fill="#120017"/>
<path opacity="0.09" d="M125.393 71.8078C131.715 100.218 111.599 128.852 80.466 135.772C49.3333 142.691 18.9669 125.249 12.6127 96.8386C6.29034 68.4279 26.4068 39.794 57.5395 32.8747C88.6722 25.9554 119.039 43.3972 125.393 71.8078Z" fill="#120016"/>
<path opacity="0.09" d="M80.5036 135.711C111.644 128.794 131.758 100.152 125.429 71.7365C119.1 43.3211 88.7242 25.8931 57.5835 32.8099C26.4429 39.7268 6.32921 68.3692 12.6584 96.7846C18.9876 125.2 49.363 142.628 80.5036 135.711Z" fill="#110015"/>
<path opacity="0.09" d="M125.425 71.6803C131.747 100.091 111.631 128.757 80.4979 135.676C49.3653 142.595 18.967 125.154 12.6447 96.7429C6.32232 68.3323 26.4388 39.6665 57.5715 32.7472C88.7042 25.8279 119.102 43.2697 125.425 71.6803Z" fill="#100014"/>
<path opacity="0.08" d="M125.457 71.6165C131.779 100.059 111.663 128.693 80.4979 135.612C49.3333 142.532 18.9669 125.09 12.6446 96.6791C6.32226 68.2366 26.4388 39.6027 57.6034 32.6834C88.768 25.7641 119.134 43.2059 125.457 71.6165Z" fill="#0F0013"/>
<path opacity="0.08" d="M125.489 71.5528C131.811 99.9953 111.694 128.629 80.5298 135.548C49.3652 142.468 18.9669 125.026 12.6446 96.5835C6.32226 68.1409 26.4388 39.5071 57.6034 32.5878C88.768 25.6684 119.166 43.1102 125.489 71.5528Z" fill="#0E0012"/>
<path opacity="0.07" d="M80.5501 135.486C111.708 128.566 131.833 99.9062 125.499 71.4737C119.166 43.0411 88.774 25.6022 57.6161 32.5229C26.4583 39.4435 6.33378 68.103 12.6668 96.5356C18.9999 124.968 49.3923 142.407 80.5501 135.486Z" fill="#0E0011"/>
<path opacity="0.07" d="M80.5362 135.424C111.694 128.503 131.819 99.844 125.486 71.4114C119.153 42.9788 88.7601 25.54 57.6022 32.4606C26.4444 39.3813 6.31986 68.0407 12.6529 96.4733C18.986 124.906 49.3783 142.345 80.5362 135.424Z" fill="#0D0010"/>
<path opacity="0.06" d="M125.521 71.3614C131.843 99.804 111.726 128.47 80.5618 135.389C49.3971 142.308 18.9989 124.867 12.6446 96.424C6.32226 67.9815 26.4388 39.3158 57.6034 32.3964C88.768 25.4771 119.166 42.9189 125.521 71.3614Z" fill="#0C000F"/>
<path opacity="0.06" d="M80.5786 135.324C111.754 128.399 131.889 99.7228 125.552 71.273C119.215 42.8233 88.8058 25.3736 57.6307 32.2981C26.4556 39.2225 6.32028 67.899 12.6572 96.3488C18.994 124.799 49.4035 142.248 80.5786 135.324Z" fill="#0B000E"/>
<path opacity="0.06" d="M80.5647 135.293C111.74 128.369 131.875 99.6924 125.538 71.2427C119.201 42.7929 88.7919 25.3432 57.6168 32.2677C26.4417 39.1922 6.30636 67.8687 12.6432 96.3184C18.9801 124.768 49.3896 142.218 80.5647 135.293Z" fill="#0A000D"/>
<path opacity="0.05" d="M125.584 71.1701C131.907 99.6126 111.79 128.31 80.5937 135.23C49.3972 142.149 18.9989 124.707 12.6447 96.2327C6.32232 67.7902 26.4388 39.0925 57.6354 32.1732C88.8319 25.2539 119.23 42.6957 125.584 71.1701Z" fill="#0A000C"/>
<path opacity="0.05" d="M125.616 71.1063C131.939 99.5807 111.822 128.246 80.6256 135.166C49.4291 142.085 18.9988 124.643 12.6765 96.1689C6.35418 67.6945 26.4707 39.0288 57.6672 32.1094C88.8638 25.1901 119.294 42.6319 125.616 71.1063Z" fill="#09000B"/>
<path opacity="0.04" d="M80.6251 135.099C111.817 128.171 131.964 99.4772 125.623 71.0102C119.282 42.5432 88.8557 25.0827 57.6634 32.011C26.471 38.9393 6.32485 67.6328 12.6656 96.0998C19.0063 124.567 49.4328 142.027 80.6251 135.099Z" fill="#08000A"/>
<path opacity="0.04" d="M125.648 70.9788C132.003 99.4532 111.822 128.151 80.6256 135.07C49.4291 141.989 18.9989 124.548 12.6446 96.0733C6.29035 67.5989 26.4707 38.9012 57.6673 31.9819C88.8638 25.0626 119.294 42.5044 125.648 70.9788Z" fill="#070009"/>
<path opacity="0.03" d="M125.648 70.915C132.003 99.3894 111.822 128.087 80.6256 135.006C49.4291 141.926 18.9989 124.484 12.6446 96.0095C6.29035 67.5351 26.4707 38.8375 57.6673 31.9181C88.8638 24.9988 119.294 42.4406 125.648 70.915Z" fill="#060008"/>
<path opacity="0.03" d="M125.68 70.8513C132.035 99.3257 111.854 128.023 80.6576 134.975C49.4611 141.894 18.9989 124.452 12.6766 95.9458C6.32233 67.4713 26.5027 38.7737 57.6992 31.8225C88.8958 24.9032 119.358 42.3768 125.68 70.8513Z" fill="#060007"/>
<path opacity="0.03" d="M80.6707 134.899C111.88 127.967 132.037 99.2564 125.693 70.7723C119.348 42.2881 88.9047 24.8168 57.6951 31.7489C26.4856 38.681 6.32856 67.3916 12.6731 95.8757C19.0176 124.36 49.4612 141.831 80.6707 134.899Z" fill="#050006"/>
<path opacity="0.02" d="M125.712 70.6918C132.066 99.1662 111.886 127.896 80.6896 134.815C49.4611 141.734 19.0309 124.261 12.6766 95.7863C6.32233 67.3119 26.5027 38.5824 57.6993 31.663C88.9277 24.7437 119.358 42.2174 125.712 70.6918Z" fill="#040005"/>
<path opacity="0.02" d="M125.744 70.6281C132.098 99.1025 111.918 127.832 80.6895 134.751C49.461 141.671 19.0308 124.197 12.6765 95.7225C6.32227 67.2481 26.5026 38.5186 57.7311 31.5993C88.9596 24.68 119.422 42.1536 125.744 70.6281Z" fill="#030004"/>
<path opacity="0.01" d="M125.744 70.5643C132.098 99.0706 111.918 127.768 80.6895 134.719C49.461 141.639 18.9989 124.165 12.6766 95.6906C6.35423 67.2162 26.5027 38.4867 57.7312 31.5355C88.9597 24.6162 119.422 42.0899 125.744 70.5643Z" fill="#020003"/>
</g>
<g style="mix-blend-mode:screen">
<path d="M121.529 85.6146C127.66 113.132 108.182 140.905 78.0074 147.601C47.8326 154.298 18.4242 137.43 12.2934 109.88C6.1627 82.3622 25.6406 54.5892 55.8154 47.8931C85.9901 41.197 115.399 58.0648 121.529 85.6146Z" fill="url(#paint3_linear_2004_23144)"/>
<path d="M120.827 85.487C126.958 113.005 107.48 140.778 77.3049 147.474C47.1301 154.17 17.7217 137.302 11.5909 109.752C5.46019 82.2346 24.9381 54.4617 55.1128 47.7656C85.2876 41.0695 114.696 57.9373 120.827 85.487Z" fill="url(#paint4_linear_2004_23144)"/>
<path d="M120.156 85.3914C126.287 112.909 106.809 140.682 76.6343 147.378C46.4596 154.074 17.0511 137.207 10.9204 109.657C4.78965 82.139 24.2675 54.366 54.4423 47.6699C84.6171 40.9738 114.025 57.8416 120.156 85.3914Z" fill="url(#paint5_linear_2004_23144)"/>
<path d="M119.454 85.2638C125.584 112.782 106.107 140.555 75.9318 147.251C45.7571 153.947 16.3486 137.079 10.2179 109.529C4.08714 82.0114 23.565 54.2385 53.7398 47.5424C83.9146 40.8463 113.323 57.7141 119.454 85.2638Z" fill="url(#paint6_linear_2004_23144)"/>
<path d="M118.783 85.1682C124.914 112.686 105.436 140.459 75.2613 147.155C45.0865 153.851 15.6781 136.983 9.54735 109.434C3.41661 81.9158 22.8945 54.1428 53.0693 47.4467C83.244 40.7506 112.652 57.6184 118.783 85.1682Z" fill="url(#paint7_linear_2004_23144)"/>
<path d="M118.081 85.0406C124.211 112.558 104.734 140.331 74.5588 147.028C44.384 153.724 14.9756 136.856 8.84484 109.306C2.71409 81.7882 22.192 54.0153 52.3667 47.3192C82.5415 40.6231 111.95 57.5228 118.081 85.0406Z" fill="url(#paint8_linear_2004_23144)"/>
<path d="M117.378 84.945C123.509 112.463 104.031 140.236 73.8562 146.932C43.6815 153.628 14.2731 136.76 8.14232 109.21C2.01158 81.6926 21.4895 53.9197 51.6642 47.2235C81.839 40.5274 111.247 57.3953 117.378 84.945Z" fill="url(#paint9_linear_2004_23144)"/>
<path d="M116.708 84.8493C122.838 112.367 103.361 140.14 73.1858 146.836C43.011 153.532 13.6026 136.664 7.47183 109.115C1.30915 81.565 20.819 53.824 50.9618 47.1279C81.1366 40.4318 110.545 57.2996 116.676 84.8493H116.708Z" fill="url(#paint10_linear_2004_23144)"/>
<path d="M116.005 84.7218C122.136 112.24 102.658 140.013 72.4833 146.709C42.3086 153.405 12.9001 136.537 6.7694 108.987C0.638652 81.4694 20.1165 53.6964 50.2913 47.0003C80.4661 40.3042 109.874 57.1721 116.005 84.7218Z" fill="url(#paint11_linear_2004_23144)"/>
<path d="M115.335 84.6261C121.465 112.144 101.987 139.917 71.8127 146.613C41.6379 153.309 12.2295 136.441 6.09874 108.892C-0.0639315 81.3418 19.414 53.6008 49.5887 46.9046C79.7635 40.2085 109.172 57.1083 115.303 84.6261H115.335Z" fill="url(#paint12_linear_2004_23144)"/>
<path d="M114.632 84.4986C120.763 112.016 101.285 139.789 71.1103 146.485C40.9355 153.182 11.5271 136.282 5.39635 108.764C-0.734395 81.2462 18.7435 53.5051 48.9183 46.809C79.093 40.1129 108.501 57.0126 114.632 84.5304V84.4986Z" fill="url(#paint13_linear_2004_23144)"/>
<path d="M113.93 84.4029C120.06 111.921 100.583 139.694 70.4078 146.39C40.233 153.086 10.8246 136.218 4.69384 108.668C-1.43691 81.1186 18.041 53.3776 48.2157 46.6815C78.3905 39.9853 107.799 56.8532 113.93 84.4029Z" fill="black"/>
</g>
</g>
<path d="M91.2587 118.33C89.9176 112.272 80.3702 109.242 69.9927 111.538C59.5832 113.834 52.2391 120.626 53.6121 126.684L55.2725 134.209L60.4453 133.061C64.3409 134.401 69.4818 134.688 74.8781 133.476C80.2745 132.264 84.8086 129.873 87.7782 127.003L92.951 125.855L91.2906 118.33H91.2587Z" fill="url(#paint14_linear_2004_23144)"/>
<path d="M92.9191 125.823C94.2602 131.882 86.9161 138.673 76.5385 140.969C66.129 143.265 56.6136 140.236 55.2725 134.177C53.9314 128.119 61.2755 121.327 71.6531 119.031C82.0626 116.736 91.578 119.765 92.9191 125.823Z" fill="url(#paint15_linear_2004_23144)"/>
<path d="M75.7403 137.494C66.9593 139.439 59.5513 136.951 58.753 133.444C57.9547 129.936 63.6384 124.516 72.4195 122.571C81.2005 120.626 88.6085 123.113 89.4067 126.62C90.205 130.128 84.5213 135.548 75.7403 137.494Z" fill="url(#paint16_linear_2004_23144)"/>
<mask id="mask1_2004_23144" style="mask-type:luminance" maskUnits="userSpaceOnUse" x="-1" y="121" width="134" height="123">
<path d="M89.1832 126.588C88.3849 123.081 81.1685 120.402 72.3875 122.348C63.6065 124.293 57.7632 129.873 58.5295 133.38C58.5295 133.38 10.0583 162.397 3.44858 175.629C-12.3572 207.324 30.7496 243.675 30.7496 243.675C30.7496 243.675 133.184 212.777 132.961 211.725C132.737 210.704 127.692 155.892 127.692 155.892L89.1513 126.556L89.1832 126.588Z" fill="white"/>
</mask>
<g mask="url(#mask1_2004_23144)">
<path d="M64.6922 125.664C65.4905 130.542 65.3308 136.154 62.7444 140.395C60.2219 144.508 55.4961 146.868 51.9517 149.897C45.5975 155.318 40.3608 162.811 44.0009 171.931C43.969 171.835 48.12 170.081 48.0562 169.922C44.416 160.802 49.6527 153.309 56.007 147.888C59.5194 144.891 64.309 142.468 66.7996 138.386C69.386 134.145 69.5457 128.533 68.7474 123.655C68.8113 124.133 64.6283 125.122 64.6922 125.664Z" fill="url(#paint17_linear_2004_23144)"/>
<path d="M66.7358 123.336C72.643 135.261 66.8316 143.488 61.4672 153.341C56.1666 163.13 57.7632 171.835 62.9679 181.879C62.9679 181.879 66.9912 179.838 66.9593 179.775C61.7226 169.699 60.0941 161.121 65.4585 151.236C70.791 141.384 76.6344 133.125 70.7271 121.232C70.7271 121.232 66.7038 123.24 66.7358 123.336Z" fill="url(#paint18_linear_2004_23144)"/>
<path d="M68.3004 122.89C77.0176 132.806 72.0363 143.074 70.9507 153.947C69.6096 167.211 73.3774 180.54 80.6896 191.987C80.6896 191.987 84.4894 189.532 84.4575 189.5C77.1772 178.148 73.2178 164.661 74.7185 151.46C75.9319 140.65 80.7216 130.223 72.0683 120.402C71.8767 120.179 68.4281 123.049 68.3004 122.89Z" fill="url(#paint19_linear_2004_23144)"/>
<path d="M68.6198 120.147C79.3486 127.832 76.8579 138.96 78.2629 149.802C79.9872 163.034 86.6927 175.151 96.4316 184.621C96.4316 184.621 99.5609 181.369 99.5289 181.337C89.8538 171.931 82.9248 159.686 81.3602 146.517C80.083 135.708 82.3501 124.484 71.7171 116.863C71.4935 116.704 68.7794 120.275 68.6198 120.147Z" fill="url(#paint20_linear_2004_23144)"/>
<path d="M68.6836 117.596C80.9132 122.603 81.0409 133.986 84.9365 144.222C89.6622 156.721 98.9861 166.956 110.673 173.939C110.673 173.939 112.972 170.049 112.94 170.049C101.381 163.13 91.8016 152.831 87.2036 140.331C83.4676 130.096 83.0845 118.649 70.9507 113.706C70.6952 113.611 68.8752 117.692 68.6836 117.596Z" fill="url(#paint21_linear_2004_23144)"/>
<g style="mix-blend-mode:multiply">
<path d="M75.5488 137.27C66.7677 139.215 59.3598 136.728 58.5615 133.221C57.7632 129.713 63.4469 124.293 72.2279 122.348C81.009 120.402 88.4169 122.89 89.2152 126.397C90.0135 129.905 84.3298 135.325 75.5488 137.27Z" fill="#D8B155"/>
<path opacity="0.91" d="M75.6764 137.749C66.8954 139.694 59.232 137.27 58.4337 133.731C57.6354 130.223 63.5746 124.771 72.3556 122.826C81.1366 120.881 88.832 123.113 89.6303 126.62C90.4285 130.128 84.4574 135.772 75.6764 137.717V137.749Z" fill="#DCB864"/>
<path opacity="0.82" d="M75.7722 138.227C66.9912 140.172 59.0723 137.78 58.274 134.273C57.4757 130.766 63.6704 125.249 72.4514 123.304C81.2324 121.359 89.2151 123.336 90.0134 126.875C90.8117 130.383 84.5532 136.282 75.7722 138.227Z" fill="#DFBF74"/>
<path opacity="0.73" d="M75.9 138.705C67.119 140.65 58.9446 138.323 58.1464 134.783C57.3481 131.276 63.7982 125.727 72.5792 123.782C81.3602 121.837 89.6303 123.559 90.4286 127.099C91.2269 130.606 84.681 136.76 75.9319 138.705H75.9Z" fill="#E3C683"/>
<path opacity="0.64" d="M75.9957 139.215C67.2147 141.16 58.7849 138.865 57.9867 135.357C57.1884 131.85 63.8939 126.238 72.6749 124.293C81.4559 122.348 90.0134 123.846 90.7798 127.354C91.5461 130.861 84.7448 137.27 75.9957 139.215Z" fill="#E6CD93"/>
<path opacity="0.55" d="M76.1234 139.694C67.3424 141.639 58.6572 139.407 57.8589 135.899C57.0607 132.392 64.0216 126.748 72.8026 124.803C81.5836 122.858 90.4285 124.101 91.1949 127.609C91.9612 131.116 84.8725 137.78 76.1234 139.726V139.694Z" fill="#EAD4A2"/>
<path opacity="0.45" d="M76.2512 140.172C67.4702 142.117 58.5295 139.949 57.7312 136.409C56.933 132.902 64.1494 127.194 72.9304 125.249C81.7114 123.304 90.8436 124.293 91.61 127.8C92.3763 131.308 85.0003 138.227 76.2512 140.172Z" fill="#EDDCB2"/>
<path opacity="0.36" d="M76.3469 140.65C67.5659 142.595 58.3698 140.459 57.5715 136.951C56.7733 133.444 64.2451 127.673 73.0261 125.727C81.8071 123.782 91.2268 124.516 91.9931 128.055C92.7595 131.595 85.128 138.705 76.3469 140.65Z" fill="#F1E3C1"/>
<path opacity="0.27" d="M76.4747 141.16C67.6937 143.105 58.2421 141.033 57.4438 137.493C56.6455 133.986 64.3728 128.183 73.1538 126.238C81.9349 124.293 91.6099 124.771 92.4082 128.31C93.2065 131.818 85.2557 139.215 76.4747 141.16Z" fill="#F4EAD1"/>
<path opacity="0.18" d="M76.5705 141.639C67.7895 143.584 58.0825 141.543 57.2842 138.036C56.4859 134.528 64.4687 128.661 73.2497 126.716C82.0307 124.771 91.9932 124.994 92.7914 128.533C93.5897 132.073 85.3515 139.694 76.5705 141.639Z" fill="#F8F1E0"/>
<path opacity="0.09" d="M76.6982 142.117C67.9172 144.062 57.9547 142.085 57.1564 138.546C56.3582 135.038 64.5963 129.139 73.3774 127.194C82.1584 125.249 92.4082 125.249 93.2065 128.757C94.0048 132.264 85.4792 140.172 76.6982 142.117Z" fill="#FBF8F0"/>
</g>
</g>
<path d="M53.3566 52.4848L37.455 71.0426C35.3476 73.4659 36.0181 77.2285 38.86 78.7909L61.9141 91.5773C64.0535 92.7571 66.7357 92.2469 68.3003 90.3656L84.4255 70.915C86.501 68.4279 85.7346 64.6334 82.8289 63.1667L59.5832 51.2731C57.4757 50.189 54.9212 50.6991 53.3885 52.4848H53.3566Z" fill="url(#paint22_linear_2004_23144)"/>
<path d="M64.5325 88.8351C63.5107 88.9308 62.4569 88.7395 61.499 88.2293L42.8833 77.8981C41.5422 77.1329 40.6162 75.8574 40.3288 74.3269C40.0733 72.7963 40.4884 71.2658 41.4783 70.086L54.3465 55.0995C55.8792 53.2819 58.4656 52.8036 60.573 53.8878L79.3804 63.5174C80.7853 64.2189 81.7432 65.5263 82.0626 67.0249C82.3819 68.5555 81.9987 70.1179 80.9769 71.3296L67.9491 87.0495C67.055 88.1017 65.8416 88.7395 64.5325 88.867V88.8351ZM57.9227 55.3227C57.1564 55.4183 56.422 55.7691 55.9111 56.3749L43.0429 71.3614C42.4362 72.0629 42.1808 72.9876 42.3404 73.9123C42.5001 74.837 43.0749 75.6023 43.8731 76.0806L62.4889 86.4118C63.798 87.1451 65.4265 86.8263 66.3845 85.6784L79.4123 69.9585C80.019 69.2251 80.2425 68.3004 80.0509 67.3757C79.8593 66.451 79.2846 65.6857 78.4224 65.2393L59.6151 55.6096C59.0723 55.3227 58.4656 55.227 57.8908 55.2908L57.9227 55.3227Z" fill="url(#paint23_linear_2004_23144)"/>
<mask id="mask2_2004_23144" style="mask-type:luminance" maskUnits="userSpaceOnUse" x="36" y="50" width="50" height="43">
<path d="M53.3566 52.4848L37.455 71.0426C35.3476 73.4659 36.0181 77.2285 38.86 78.7909L61.9141 91.5773C64.0535 92.7571 66.7357 92.2469 68.3003 90.3656L84.4255 70.915C86.501 68.4279 85.7346 64.6334 82.8289 63.1667L59.5832 51.2731C57.4757 50.189 54.9212 50.6991 53.3885 52.4848H53.3566Z" fill="white"/>
</mask>
<g mask="url(#mask2_2004_23144)">
<path d="M106.49 42.058C109.843 52.3253 101.189 64.3465 87.1396 68.9381C73.09 73.5297 58.9765 68.9381 55.5918 58.6707C52.2391 48.4033 60.8923 36.3822 74.942 31.7906C88.9916 27.199 103.105 31.7906 106.49 42.058Z" fill="url(#paint24_radial_2004_23144)" style="mix-blend-mode:screen"/>
</g>
</g>
<defs>
<linearGradient id="paint0_linear_2004_23144" x1="56.2377" y1="50.1985" x2="53.6011" y2="38.6763" gradientUnits="userSpaceOnUse">
<stop stop-color="#E76100"/>
<stop offset="0.42" stop-color="#F27C00"/>
<stop offset="1" stop-color="#FFA92C"/>
</linearGradient>
<linearGradient id="paint1_linear_2004_23144" x1="79.1569" y1="157.773" x2="57.4067" y2="50.8467" gradientUnits="userSpaceOnUse">
<stop stop-color="#09357F"/>
<stop offset="0.46" stop-color="#04419F"/>
<stop offset="1" stop-color="#015FAF"/>
</linearGradient>
<radialGradient id="paint2_radial_2004_23144" cx="0" cy="0" r="1" gradientTransform="matrix(-16.6851 41.5522 41.6105 16.6618 47.0094 63.1144)" gradientUnits="userSpaceOnUse">
<stop stop-color="#1D7DFF"/>
<stop offset="0.1" stop-color="#186AD9"/>
<stop offset="0.29" stop-color="#114A98"/>
<stop offset="0.47" stop-color="#0B2F61"/>
<stop offset="0.63" stop-color="#061B37"/>
<stop offset="0.78" stop-color="#020C19"/>
<stop offset="0.91" stop-color="#000306"/>
<stop offset="1"/>
</radialGradient>
<linearGradient id="paint3_linear_2004_23144" x1="98.2197" y1="65.1755" x2="69.1411" y2="95.5081" gradientUnits="userSpaceOnUse">
<stop offset="0.03" stop-color="#8B48F0"/>
<stop offset="1"/>
</linearGradient>
<linearGradient id="paint4_linear_2004_23144" x1="95.8766" y1="61.1578" x2="63.6338" y2="88.6951" gradientUnits="userSpaceOnUse">
<stop offset="0.03" stop-color="#7E41DA"/>
<stop offset="1"/>
</linearGradient>
<linearGradient id="paint5_linear_2004_23144" x1="94.1593" y1="54.366" x2="58.513" y2="78.1368" gradientUnits="userSpaceOnUse">
<stop offset="0.03" stop-color="#723BC4"/>
<stop offset="1"/>
</linearGradient>
<linearGradient id="paint6_linear_2004_23144" x1="85.8895" y1="41.2927" x2="47.2878" y2="59.4181" gradientUnits="userSpaceOnUse">
<stop offset="0.03" stop-color="#6534AF"/>
<stop offset="1"/>
</linearGradient>
<linearGradient id="paint7_linear_2004_23144" x1="84.1461" y1="9.11944" x2="42.9892" y2="20.7065" gradientUnits="userSpaceOnUse">
<stop offset="0.03" stop-color="#582E99"/>
<stop offset="1"/>
</linearGradient>
<linearGradient id="paint8_linear_2004_23144" x1="82.9946" y1="-158.156" x2="40.4974" y2="-154.168" gradientUnits="userSpaceOnUse">
<stop offset="0.03" stop-color="#4C2783"/>
<stop offset="1"/>
</linearGradient>
<linearGradient id="paint9_linear_2004_23144" x1="38.5639" y1="-156.625" x2="80.7874" y2="-152.664" gradientUnits="userSpaceOnUse">
<stop offset="0.03" stop-color="#3F216D"/>
<stop offset="1"/>
</linearGradient>
<linearGradient id="paint10_linear_2004_23144" x1="37.6884" y1="10.4268" x2="78.078" y2="21.7974" gradientUnits="userSpaceOnUse">
<stop offset="0.03" stop-color="#331A57"/>
<stop offset="1"/>
</linearGradient>
<linearGradient id="paint11_linear_2004_23144" x1="36.1922" y1="42.3131" x2="73.7188" y2="59.9205" gradientUnits="userSpaceOnUse">
<stop offset="0.03" stop-color="#261441"/>
<stop offset="1"/>
</linearGradient>
<linearGradient id="paint12_linear_2004_23144" x1="35.7345" y1="55.0356" x2="70.1929" y2="78.0457" gradientUnits="userSpaceOnUse">
<stop offset="0.03" stop-color="#190D2C"/>
<stop offset="1"/>
</linearGradient>
<linearGradient id="paint13_linear_2004_23144" x1="32.4955" y1="61.5086" x2="63.5497" y2="88.0701" gradientUnits="userSpaceOnUse">
<stop offset="0.03" stop-color="#0D0716"/>
<stop offset="1"/>
</linearGradient>
<linearGradient id="paint14_linear_2004_23144" x1="89.6869" y1="118.493" x2="48.9278" y2="127.792" gradientUnits="userSpaceOnUse">
<stop stop-color="#C54000"/>
<stop offset="0.54" stop-color="#C95500"/>
<stop offset="1" stop-color="#F17C00"/>
</linearGradient>
<linearGradient id="paint15_linear_2004_23144" x1="91.8253" y1="122.929" x2="56.247" y2="137.05" gradientUnits="userSpaceOnUse">
<stop stop-color="#CF7200"/>
<stop offset="0.54" stop-color="#FD9200"/>
<stop offset="1" stop-color="#FFB71B"/>
</linearGradient>
<linearGradient id="paint16_linear_2004_23144" x1="75.2888" y1="135.785" x2="71.844" y2="119.897" gradientUnits="userSpaceOnUse">
<stop stop-color="#001E46"/>
<stop offset="0.46" stop-color="#002A5D"/>
<stop offset="1" stop-color="#004069"/>
</linearGradient>
<linearGradient id="paint17_linear_2004_23144" x1="36.8091" y1="157.57" x2="75.9331" y2="138.028" gradientUnits="userSpaceOnUse">
<stop stop-color="#7900F1"/>
<stop offset="0.49" stop-color="#C80000"/>
<stop offset="1" stop-color="#540000"/>
</linearGradient>
<linearGradient id="paint18_linear_2004_23144" x1="51.3169" y1="159.719" x2="82.3881" y2="143.362" gradientUnits="userSpaceOnUse">
<stop stop-color="#7900F1"/>
<stop offset="0.49" stop-color="#C80000"/>
<stop offset="1" stop-color="#540000"/>
</linearGradient>
<linearGradient id="paint19_linear_2004_23144" x1="62.9057" y1="165" x2="89.9273" y2="147.246" gradientUnits="userSpaceOnUse">
<stop stop-color="#7900F1"/>
<stop offset="0.49" stop-color="#C80000"/>
<stop offset="1" stop-color="#540000"/>
</linearGradient>
<linearGradient id="paint20_linear_2004_23144" x1="73.0314" y1="162.357" x2="95.2928" y2="138.923" gradientUnits="userSpaceOnUse">
<stop stop-color="#7900F1"/>
<stop offset="0.49" stop-color="#C80000"/>
<stop offset="1" stop-color="#540000"/>
</linearGradient>
<linearGradient id="paint21_linear_2004_23144" x1="82.6793" y1="157.666" x2="98.9466" y2="129.71" gradientUnits="userSpaceOnUse">
<stop stop-color="#7900F1"/>
<stop offset="0.49" stop-color="#C80000"/>
<stop offset="1" stop-color="#540000"/>
</linearGradient>
<linearGradient id="paint22_linear_2004_23144" x1="66.7357" y1="57.0126" x2="52.4011" y2="91.5597" gradientUnits="userSpaceOnUse">
<stop stop-color="#D76500"/>
<stop offset="0.49" stop-color="#C80000"/>
<stop offset="1" stop-color="#8B0000"/>
</linearGradient>
<linearGradient id="paint23_linear_2004_23144" x1="55.6642" y1="53.8733" x2="66.9367" y2="88.1597" gradientUnits="userSpaceOnUse">
<stop stop-color="#FFBB2A"/>
<stop offset="0.46" stop-color="#F89200"/>
<stop offset="0.99" stop-color="#F37700"/>
</linearGradient>
<radialGradient id="paint24_radial_2004_23144" cx="0" cy="0" r="1" gradientTransform="matrix(25.4861 -8.3283 6.08758 18.5769 80.985 50.3975)" gradientUnits="userSpaceOnUse">
<stop stop-color="#F37700"/>
<stop offset="1"/>
</radialGradient>
<clipPath id="clip0_2004_23144">
<rect width="132.992" height="243.675" fill="white"/>
</clipPath>
</defs>
</svg>
