<svg width="133" height="244" viewBox="0 0 133 244" fill="none" xmlns="http://www.w3.org/2000/svg">
<g clip-path="url(#clip0_2004_23474)">
<path d="M57.348 48.2439C58.6891 42.1855 68.2365 39.1563 78.6141 41.4521C89.0236 43.7479 96.3677 50.5397 94.9947 56.5981L93.3342 64.1232L88.1614 62.9753C84.2659 64.3146 79.125 64.6015 73.7286 63.3899C68.3323 62.1782 63.7981 59.7867 60.8285 56.917L55.6557 55.769L57.3161 48.2439H57.348Z" fill="url(#paint0_linear_2004_23474)"/>
<path d="M55.6557 55.769C54.3146 61.8274 61.6587 68.6192 72.0363 70.915C82.4139 73.2108 91.9612 70.1816 93.3023 64.1232C94.6434 58.0649 87.2993 51.2731 76.9217 48.9773C66.5122 46.6815 56.9968 49.7107 55.6557 55.769Z" fill="#FFDA9D"/>
<path d="M72.8346 67.4075C81.6156 69.3526 89.0236 66.8655 89.8219 63.358C90.6202 59.8505 84.9364 54.4298 76.1554 52.4848C67.3744 50.5397 59.9664 53.0268 59.1682 56.5343C58.3699 60.0418 64.0536 65.4625 72.8346 67.4075Z" fill="#FCC554"/>
<path d="M11.4633 85.6146C5.33253 113.132 24.8104 140.905 54.9852 147.601C85.1599 154.298 114.568 137.43 120.699 109.88C126.83 82.3622 107.352 54.5893 77.1772 47.8932C47.0024 41.197 17.594 58.0649 11.4633 85.6146Z" fill="url(#paint1_linear_2004_23474)"/>
<mask id="mask0_2004_23474" style="mask-type:luminance" maskUnits="userSpaceOnUse" x="10" y="46" width="112" height="104">
<path d="M11.4633 85.6146C5.33253 113.132 24.8104 140.905 54.9852 147.601C85.1599 154.298 114.568 137.43 120.699 109.88C126.83 82.3622 107.352 54.5893 77.1772 47.8932C47.0024 41.197 17.594 58.0649 11.4633 85.6146Z" fill="white"/>
</mask>
<g mask="url(#mask0_2004_23474)">
<path d="M89.8857 51.1136C96.9744 60.0418 99.3372 72.2223 97.2617 83.4144C95.761 91.386 92.0889 99.0068 86.5329 104.906C80.9769 110.805 73.4732 114.982 65.4585 116.257" stroke="#F39F19" stroke-width="1.25" stroke-linecap="round" stroke-linejoin="round"/>
<path d="M115.079 70.5324C119.837 77.9619 120.891 87.4959 118.304 95.9457C115.75 104.364 109.683 111.602 102.051 116.034C94.4199 120.466 85.3196 122.156 76.5705 121.232" stroke="#F39F19" stroke-width="1.25" stroke-linecap="round" stroke-linejoin="round"/>
<path d="M126.383 110.677C125.712 119.127 120.348 126.875 113.1 131.276C105.851 135.676 96.9105 136.888 88.5127 135.485C83.9466 134.719 79.4124 133.157 75.8042 130.223" stroke="#F39F19" stroke-width="1.25" stroke-linecap="round" stroke-linejoin="round"/>
<path d="M99.3054 149.036C88.832 150.694 77.6242 145.88 71.6531 137.143" stroke="#F39F19" stroke-width="1.25" stroke-linecap="round" stroke-linejoin="round"/>
<path d="M73.8564 156.147C69.5776 154.776 66.5761 150.981 64.0536 147.251C62.0419 144.253 60.0622 140.746 60.8605 137.207" stroke="#F39F19" stroke-width="1.25" stroke-linecap="round" stroke-linejoin="round"/>
<path d="M64.8518 45.5655C54.6339 50.6354 47.3217 60.6795 44.4799 71.7122C42.4363 79.5562 42.5321 88.0061 45.0865 95.7225C47.6091 103.439 52.6222 110.358 59.3597 114.918" stroke="#F39F19" stroke-width="1.25" stroke-linecap="round" stroke-linejoin="round"/>
<path d="M33.815 52.4848C26.375 57.2039 21.3619 65.3987 20.1166 74.1355C18.8713 82.8405 21.298 91.96 26.3112 99.1981C31.3243 106.436 38.8601 111.825 47.194 114.695" stroke="#F39F19" stroke-width="1.25" stroke-linecap="round" stroke-linejoin="round"/>
<path d="M6.51395 84.0522C3.54437 91.9919 5.10898 101.271 9.80284 108.318C14.4967 115.364 22.0963 120.243 30.2706 122.507C34.7409 123.751 39.5306 124.229 44.0328 123.113" stroke="#F39F19" stroke-width="1.25" stroke-linecap="round" stroke-linejoin="round"/>
<path d="M14.2732 129.49C23.0542 135.421 35.2518 135.804 44.3841 130.415" stroke="#F39F19" stroke-width="1.25" stroke-linecap="round" stroke-linejoin="round"/>
<path d="M34.4855 146.741C38.9558 147.315 43.2984 145.146 47.1301 142.819C50.2274 140.969 53.4844 138.61 54.2827 135.07" stroke="#F39F19" stroke-width="1.25" stroke-linecap="round" stroke-linejoin="round"/>
<path d="M78.4864 45.693L60.4135 126.907" stroke="#F39F19" stroke-width="1.25" stroke-linecap="round" stroke-linejoin="round"/>
<path d="M102.722 104.555C79.7317 113.77 53.6441 102.61 44.416 79.6518C35.188 56.6937 46.3638 30.6427 69.3541 21.4275C92.3444 12.2124 118.464 23.3726 127.66 46.3307C136.888 69.2888 125.712 95.3399 102.722 104.555Z" fill="url(#paint2_radial_2004_23474)" style="mix-blend-mode:screen"/>
<g style="mix-blend-mode:screen">
<path d="M11.4633 85.6146C5.33253 113.132 24.8104 140.905 54.9852 147.601C85.1599 154.298 114.568 137.43 120.699 109.88C126.83 82.3622 107.352 54.5893 77.1772 47.8932C47.0024 41.197 17.594 58.0649 11.4633 85.6146Z" fill="#00578B"/>
<path opacity="0.91" d="M11.0801 86.4118C5.01318 113.643 24.2995 141.129 54.1549 147.729C84.0104 154.361 113.131 137.653 119.198 110.39C125.265 83.1594 105.979 55.6734 76.1235 49.073C46.268 42.4406 17.1469 59.149 11.0801 86.4118Z" fill="#004F7E"/>
<path opacity="0.82" d="M53.2976 147.906C23.7579 141.345 4.6782 114.175 10.682 87.2211C16.6857 60.2669 45.4994 43.7351 75.0392 50.2963C104.579 56.8576 123.659 84.0272 117.655 110.981C111.651 137.936 82.8374 154.467 53.2976 147.906Z" fill="#004772"/>
<path opacity="0.73" d="M10.2818 88.0061C4.34267 114.663 23.2139 141.543 52.4307 148.048C81.6475 154.553 110.162 138.163 116.101 111.506C122.04 84.8493 103.169 57.9692 73.9522 51.4644C44.7353 44.9596 16.221 61.3492 10.2818 88.0061Z" fill="#003F65"/>
<path opacity="0.64" d="M51.6205 148.217C22.7177 141.798 4.05193 115.202 9.92933 88.8155C15.8067 62.4286 44.0017 46.242 72.9045 52.6617C101.807 59.0815 120.473 85.6766 114.596 112.064C108.718 138.45 80.5233 154.637 51.6205 148.217Z" fill="#003758"/>
<path opacity="0.55" d="M9.51549 89.6323C3.70405 115.715 22.1921 142.021 50.7703 148.367C79.3804 154.712 107.256 138.705 113.068 112.622C118.879 86.5393 100.423 60.2331 71.8128 53.8878C43.2027 47.5424 15.3269 63.5493 9.51549 89.6323Z" fill="#002F4C"/>
<path opacity="0.45" d="M49.9434 148.528C21.6603 142.246 3.39136 116.237 9.13858 90.4342C14.8858 64.6317 42.4728 48.8073 70.7559 55.0894C99.039 61.3716 117.308 87.3813 111.561 113.184C105.813 138.986 78.2265 154.811 49.9434 148.528Z" fill="#00283F"/>
<path opacity="0.36" d="M8.74916 91.2266C3.06545 116.736 21.1384 142.468 49.1099 148.686C77.0814 154.903 104.35 139.247 110.034 113.706C115.718 88.1974 97.645 62.4651 69.6734 56.2473C41.7019 50.0295 14.4329 65.6857 8.74916 91.2266Z" fill="#002033"/>
<path opacity="0.27" d="M48.2663 148.84C20.6202 142.699 2.76514 117.264 8.38601 92.0286C14.0069 66.7934 40.9751 51.3142 68.6213 57.4549C96.2674 63.5955 114.122 89.0307 108.502 114.266C102.881 139.501 75.9125 154.98 48.2663 148.84Z" fill="#001826"/>
<path opacity="0.18" d="M7.95085 92.8528C2.39487 117.788 20.0527 142.946 47.3856 149.005C74.7185 155.063 101.381 139.789 106.937 114.822C112.493 89.8874 94.835 64.7291 67.5021 58.6707C40.1692 52.6124 13.5068 67.8859 7.95085 92.8528Z" fill="#001019"/>
<path opacity="0.09" d="M46.5573 149.151C19.5309 143.148 2.07267 118.298 7.56335 93.6473C13.054 68.9965 39.4144 53.8796 66.4408 59.8826C93.4673 65.8856 110.925 90.7353 105.435 115.386C99.9441 140.037 73.5837 155.154 46.5573 149.151Z" fill="#00080D"/>
</g>
<g style="mix-blend-mode:multiply">
<path d="M11.4633 85.6146C5.33253 113.132 24.8104 140.905 54.9852 147.601C85.1599 154.298 114.568 137.43 120.699 109.88C126.83 82.3622 107.352 54.5893 77.1772 47.8932C47.0024 41.197 17.594 58.0649 11.4633 85.6146Z" fill="#3E9ACA"/>
<path opacity="0.91" d="M10.9204 81.1505C4.82163 108.509 24.2037 136.09 54.1869 142.755C84.1701 149.419 113.419 132.615 119.518 105.256C125.616 77.8981 106.234 50.3165 76.2512 43.6523C46.268 36.988 17.0193 53.7921 10.9204 81.1505Z" fill="#50A3CF"/>
<path opacity="0.82" d="M10.3457 76.6864C4.27884 103.885 23.5332 131.308 53.3567 137.908C83.1483 144.54 112.237 127.832 118.304 100.633C124.371 73.434 105.117 46.0118 75.2933 39.4114C45.5017 32.7791 16.4126 49.4874 10.3457 76.6864Z" fill="#61ACD4"/>
<path opacity="0.73" d="M52.5406 133.113C22.9148 126.533 3.78091 99.2782 9.80381 72.238C15.8267 45.1978 44.7257 28.6119 74.3515 35.1922C103.977 41.7726 123.111 69.0274 117.088 96.0676C111.065 123.108 82.1665 139.694 52.5406 133.113Z" fill="#73B6D8"/>
<path opacity="0.64" d="M9.22813 67.7902C3.25704 94.6703 22.256 121.742 51.6963 128.278C81.1367 134.815 109.843 118.33 115.846 91.4817C121.817 64.6015 102.818 37.5301 73.3774 30.9934C43.9371 24.4568 15.2312 40.9419 9.22813 67.7902Z" fill="#84BFDD"/>
<path opacity="0.55" d="M8.68529 63.3261C2.74612 90.0149 21.6493 116.927 50.898 123.432C80.1468 129.936 108.693 113.547 114.632 86.8581C120.571 60.1693 101.668 33.2574 72.4195 26.7526C43.1707 20.2478 14.6244 36.6373 8.68529 63.3261Z" fill="#96C8E2"/>
<path opacity="0.45" d="M8.14246 58.862C2.23523 85.3914 21.0106 112.144 50.0997 118.585C79.1889 125.026 107.544 108.764 113.451 82.2346C119.358 55.7053 100.583 28.9527 71.4935 22.5117C42.4044 16.0388 14.0497 32.3326 8.14246 58.862Z" fill="#A7D1E7"/>
<path opacity="0.36" d="M7.56773 54.3979C1.69244 80.7679 20.372 107.329 49.2696 113.77C78.1671 120.179 106.362 104.013 112.205 77.643C118.081 51.2731 99.4012 24.7118 70.5037 18.2708C41.6061 11.8617 13.4111 28.028 7.56773 54.3979Z" fill="#B9DAEC"/>
<path opacity="0.27" d="M7.02488 49.9657C1.18151 76.1762 19.7334 102.578 48.4393 108.955C77.1453 115.333 105.149 99.2619 110.992 73.0514C116.835 46.8409 98.2836 20.4391 69.5776 14.0618C40.8717 7.68458 12.8682 23.7552 7.02488 49.9657Z" fill="#CAE3F1"/>
<path opacity="0.18" d="M6.45012 45.5017C0.63868 71.5527 19.0948 97.7632 47.6091 104.109C76.1554 110.454 103.967 94.479 109.779 68.4279C115.59 42.4087 97.1341 16.1663 68.6197 9.82095C40.0734 3.47559 12.2616 19.4506 6.45012 45.5017Z" fill="#DCEDF5"/>
<path opacity="0.09" d="M5.90733 41.0376C0.159752 66.8973 18.4562 92.9803 46.8109 99.2619C75.1656 105.543 102.818 89.696 108.565 63.8044C114.313 37.9765 96.0165 11.8936 67.6618 5.61197C39.3071 -0.669617 11.6549 15.1778 5.90733 41.0695V41.0376Z" fill="#EDF6FA"/>
</g>
<g style="mix-blend-mode:screen">
<path d="M11.4633 85.6146C5.33253 113.132 24.8104 140.905 54.9852 147.601C85.1599 154.298 114.568 137.43 120.699 109.88C126.83 82.3622 107.352 54.5893 77.1772 47.8932C47.0024 41.197 17.594 58.0649 11.4633 85.6146Z" fill="#BB00E9"/>
<path d="M11.4314 85.5189C5.30061 113.069 24.7785 140.81 54.9532 147.506C85.128 154.202 114.568 137.302 120.699 109.784C126.83 82.2347 107.352 54.4936 77.1772 47.7975C47.0024 41.1014 17.5621 58.0011 11.4314 85.5189Z" fill="#BA00E8"/>
<path opacity="0.99" d="M11.4313 85.4552C5.30059 113.005 24.7785 140.746 54.9852 147.442C85.1599 154.138 114.6 137.238 120.731 109.721C126.862 82.1709 107.384 54.4298 77.1772 47.7337C47.0024 41.0376 17.5621 57.9373 11.4313 85.4552Z" fill="#B900E7"/>
<path opacity="0.99" d="M11.3994 85.3914C5.26868 112.941 24.7785 140.682 54.9533 147.41C85.128 154.106 114.568 137.207 120.699 109.689C126.83 82.139 107.32 54.3979 77.1453 47.6699C46.9705 40.9738 17.5302 57.8735 11.3994 85.3914Z" fill="#B900E6"/>
<path opacity="0.98" d="M11.3994 85.3276C5.26867 112.877 24.7785 140.65 54.9533 147.346C85.128 154.042 114.6 137.143 120.731 109.593C126.862 82.0433 107.352 54.2704 77.1772 47.5743C47.0024 40.8782 17.5302 57.7779 11.3994 85.3276Z" fill="#B800E5"/>
<path opacity="0.98" d="M11.3675 85.2639C5.23676 112.814 24.7466 140.587 54.9213 147.283C85.128 153.979 114.568 137.079 120.699 109.529C126.83 81.9796 107.32 54.2066 77.1453 47.5105C46.9386 40.8144 17.4982 57.7141 11.3675 85.2639Z" fill="#B700E4"/>
<path opacity="0.97" d="M11.3675 85.2001C5.23676 112.75 24.7466 140.523 54.9213 147.219C85.128 153.915 114.568 137.015 120.699 109.466C126.83 81.9158 107.32 54.1429 77.1453 47.4468C46.9386 40.7506 17.4982 57.6504 11.3675 85.2001Z" fill="#B600E3"/>
<path opacity="0.97" d="M11.3355 85.1363C5.2048 112.686 24.7146 140.459 54.9213 147.187C85.128 153.883 114.568 136.983 120.731 109.434C126.862 81.8839 107.352 54.111 77.1453 47.383C46.9386 40.6869 17.4982 57.5866 11.3355 85.1363Z" fill="#B500E2"/>
<path opacity="0.97" d="M11.3036 85.0725C5.17288 112.622 24.6827 140.427 54.8894 147.123C85.0961 153.819 114.568 136.92 120.699 109.37C126.83 81.8201 107.32 54.0153 77.1133 47.3192C46.9067 40.6231 17.4344 57.5228 11.3036 85.0725Z" fill="#B500E1"/>
<path opacity="0.96" d="M11.3036 85.0087C5.17288 112.59 24.6827 140.363 54.8894 147.059C85.0961 153.755 114.568 136.856 120.699 109.274C126.83 81.6926 107.32 53.9196 77.1133 47.2235C46.9067 40.5274 17.4344 57.4271 11.3036 85.0087Z" fill="#B400E0"/>
<path opacity="0.96" d="M11.2717 84.945C5.14096 112.527 24.6508 140.3 54.8575 147.028C85.0642 153.724 114.536 136.824 120.699 109.242C126.83 81.6607 107.32 53.8878 77.1133 47.1598C46.9067 40.4637 17.4344 57.3634 11.2717 84.945Z" fill="#B300DF"/>
<path opacity="0.95" d="M54.861 146.945C24.6327 140.231 5.10653 112.435 11.2481 84.8623C17.3897 57.2892 46.8734 40.3798 77.1017 47.0939C107.33 53.8081 126.856 81.6034 120.714 109.176C114.573 136.75 85.0893 153.659 54.861 146.945Z" fill="#B200DE"/>
<path opacity="0.95" d="M11.2398 84.8174C5.10901 112.399 24.6188 140.204 54.8575 146.9C85.0961 153.596 114.568 136.696 120.699 109.115C126.83 81.5331 107.32 53.7283 77.0814 47.0322C46.8428 40.3361 17.3705 57.2358 11.2398 84.8174Z" fill="#B100DD"/>
<path opacity="0.94" d="M54.8498 146.851C24.6215 140.137 5.09851 112.328 11.2439 84.7378C17.3894 57.1475 46.8761 40.2241 77.1044 46.9383C107.333 53.6525 126.856 81.4617 120.71 109.052C114.565 136.642 85.0781 153.566 54.8498 146.851Z" fill="#B100DC"/>
<path opacity="0.94" d="M11.2078 84.6899C5.0771 112.271 24.5869 140.076 54.8255 146.804C85.0642 153.532 114.536 136.601 120.699 109.019C126.83 81.4375 107.32 53.6327 77.0814 46.9047C46.8428 40.1767 17.3705 57.1083 11.2078 84.6899Z" fill="#B000DB"/>
<path opacity="0.94" d="M11.1759 84.6261C5.04511 112.208 24.5549 140.044 54.7936 146.741C85.0322 153.469 114.536 136.537 120.667 108.923C126.798 81.3418 107.288 53.5051 77.0494 46.809C46.8108 40.081 17.3066 57.0126 11.1759 84.6261Z" fill="#AF00DA"/>
<path opacity="0.93" d="M11.1759 84.5623C5.04511 112.144 24.5549 139.981 54.7936 146.677C85.0322 153.405 114.536 136.473 120.667 108.86C126.798 81.2781 107.288 53.4414 77.0494 46.7452C46.8108 40.0172 17.3066 56.9488 11.1759 84.5623Z" fill="#AE00D9"/>
<path opacity="0.93" d="M11.144 84.4986C5.01324 112.112 24.5231 139.917 54.7936 146.645C85.0322 153.373 114.536 136.441 120.699 108.828C126.83 81.2143 107.32 53.4095 77.0495 46.6815C46.8109 39.9535 17.3067 56.8851 11.144 84.4986Z" fill="#AD00D8"/>
<path opacity="0.92" d="M11.144 84.4348C5.01321 112.048 24.523 139.853 54.7936 146.581C85.0322 153.309 114.568 136.378 120.699 108.764C126.862 81.1505 107.32 53.3457 77.0495 46.6177C46.8108 39.8897 17.2747 56.8213 11.144 84.4348Z" fill="#AD00D7"/>
<path opacity="0.92" d="M11.112 84.371C4.94937 111.985 24.523 139.821 54.7617 146.517C85.0322 153.245 114.536 136.314 120.667 108.7C126.83 81.0867 107.256 53.25 77.0176 46.5539C46.747 39.8259 17.2428 56.7575 11.112 84.371Z" fill="#AC00D6"/>
<path opacity="0.91" d="M11.112 84.3072C4.94936 111.921 24.523 139.757 54.7617 146.485C85.0322 153.213 114.536 136.282 120.699 108.668C126.862 81.0549 107.288 53.2181 77.0495 46.4901C46.7789 39.7622 17.2747 56.6938 11.112 84.3072Z" fill="#AB00D5"/>
<path opacity="0.91" d="M54.7256 146.395C24.4629 139.673 4.91817 111.83 11.0713 84.2051C17.2243 56.5805 46.7452 39.6354 77.0079 46.3572C107.271 53.0791 126.815 80.9224 120.662 108.547C114.509 136.172 84.9884 153.117 54.7256 146.395Z" fill="#AA00D4"/>
<path opacity="0.91" d="M11.0481 84.1478C4.88547 111.761 24.4591 139.598 54.7297 146.326C85.0003 153.054 114.536 136.091 120.667 108.477C126.798 80.8635 107.256 53.0268 76.9856 46.2988C46.715 39.5708 17.1789 56.5343 11.0481 84.1478Z" fill="#A900D3"/>
<path opacity="0.9" d="M11.0482 84.0841C4.88549 111.698 24.4592 139.566 54.7297 146.294C85.0003 153.022 114.536 136.059 120.699 108.445C126.862 80.8317 107.288 52.9631 77.0175 46.2351C46.747 39.5071 17.2108 56.4706 11.0482 84.0841Z" fill="#A900D2"/>
<path opacity="0.9" d="M11.0162 84.0203C4.85356 111.666 24.4272 139.502 54.6978 146.23C84.9684 152.958 114.505 135.995 120.667 108.381C126.83 80.736 107.256 52.8993 76.9856 46.1713C46.7151 39.4433 17.1789 56.4068 11.0162 84.0203Z" fill="#A800D1"/>
<path opacity="0.89" d="M11.0162 83.9565C4.85355 111.602 24.4272 139.439 54.6978 146.167C84.9683 152.895 114.536 135.931 120.667 108.318C126.798 80.7041 107.256 52.8355 76.9856 46.1075C46.715 39.3795 17.147 56.343 11.0162 83.9565Z" fill="#A700D0"/>
<path opacity="0.89" d="M10.9843 83.8927C4.82164 111.538 24.3953 139.375 54.6978 146.103C85.0003 152.831 114.536 135.867 120.699 108.222C126.862 80.5766 107.288 52.7399 76.9856 46.0119C46.6831 39.2839 17.147 56.2474 10.9843 83.8927Z" fill="#A600CF"/>
<path opacity="0.88" d="M10.9524 83.829C4.7897 111.474 24.3634 139.343 54.6659 146.071C84.9684 152.799 114.505 135.835 120.667 108.19C126.83 80.5447 107.256 52.6761 76.9537 45.9481C46.6512 39.2201 17.115 56.1836 10.9524 83.829Z" fill="#A500CE"/>
<path opacity="0.88" d="M10.9524 83.7652C4.7897 111.411 24.3634 139.279 54.6659 146.007C84.9684 152.735 114.505 135.772 120.667 108.126C126.83 80.4809 107.256 52.6123 76.9537 45.8843C46.6512 39.1563 17.115 56.1198 10.9524 83.7652Z" fill="#A500CD"/>
<path opacity="0.88" d="M10.9205 83.7014C4.7578 111.347 24.3315 139.215 54.634 145.943C84.9364 152.671 114.505 135.708 120.635 108.063C126.798 80.4171 107.224 52.5486 76.9218 45.8206C46.6193 39.0926 17.0512 56.056 10.9205 83.7014Z" fill="#A400CC"/>
<path opacity="0.87" d="M10.9205 83.6376C4.75777 111.283 24.3315 139.183 54.6339 145.911C84.9364 152.639 114.505 135.676 120.667 108.031C126.83 80.3852 107.256 52.4848 76.9537 45.7568C46.6512 39.0288 17.0831 55.9923 10.9205 83.6376Z" fill="#A300CB"/>
<path opacity="0.87" d="M54.6292 145.846C24.3149 139.113 4.73447 111.232 10.8952 83.573C17.056 55.914 46.6249 38.9503 76.9393 45.6836C107.254 52.4169 126.834 80.2974 120.673 107.956C114.513 135.615 84.9436 152.579 54.6292 145.846Z" fill="#A200CA"/>
<path opacity="0.86" d="M10.8885 83.5101C4.72583 111.187 24.2995 139.056 54.6339 145.784C84.9364 152.512 114.536 135.548 120.667 107.871C126.83 80.1939 107.256 52.3253 76.9218 45.5973C46.6193 38.8693 17.0192 55.8328 10.8885 83.5101Z" fill="#A100C9"/>
<path opacity="0.86" d="M10.8566 83.4463C4.69391 111.124 24.2676 138.992 54.602 145.72C84.9364 152.448 114.505 135.485 120.667 107.807C126.83 80.1302 107.256 52.2616 76.9218 45.5336C46.5873 38.8056 17.0193 55.7691 10.8566 83.4463Z" fill="#A100C8"/>
<path opacity="0.85" d="M10.8246 83.3826C4.66193 111.06 24.2356 138.96 54.57 145.688C84.9044 152.416 114.473 135.453 120.635 107.776C126.798 80.0983 107.224 52.1978 76.8898 45.4698C46.5554 38.7418 16.9873 55.7053 10.8246 83.3826Z" fill="#A000C7"/>
<path opacity="0.85" d="M10.8246 83.3188C4.66196 110.996 24.2676 138.897 54.57 145.625C84.9045 152.353 114.473 135.389 120.635 107.712C126.798 80.0345 107.192 52.134 76.8898 45.406C46.5554 38.678 16.9873 55.6415 10.8246 83.3188Z" fill="#9F00C6"/>
<path opacity="0.85" d="M10.7927 83.255C4.63 110.932 24.2356 138.833 54.57 145.561C84.9044 152.289 114.504 135.325 120.667 107.648C126.83 79.9707 107.224 52.0703 76.8898 45.3423C46.5554 38.6143 16.9554 55.5778 10.7927 83.255Z" fill="#9E00C5"/>
<path opacity="0.84" d="M10.7927 83.1912C4.63 110.868 24.2356 138.769 54.57 145.529C84.9044 152.257 114.504 135.293 120.667 107.584C126.83 79.9069 107.224 52.0065 76.8898 45.2466C46.5554 38.4867 16.9554 55.4821 10.7927 83.1912Z" fill="#9D00C4"/>
<path opacity="0.84" d="M54.5543 145.458C24.2055 138.717 4.6034 110.803 10.7718 83.1095C16.9402 55.4161 46.5433 38.4308 76.8921 45.1718C107.241 51.9127 126.843 79.8273 120.675 107.521C114.506 135.214 84.9031 152.199 54.5543 145.458Z" fill="#9D00C3"/>
<path opacity="0.83" d="M10.7608 83.0637C4.59808 110.773 24.2037 138.673 54.5381 145.401C84.8725 152.129 114.504 135.166 120.667 107.457C126.83 79.7475 107.224 51.8471 76.8898 45.1191C46.5554 38.3911 16.9234 55.3545 10.7608 83.0637Z" fill="#9C00C2"/>
<path opacity="0.83" d="M10.7288 82.9999C4.56615 110.709 24.1718 138.61 54.5062 145.369C84.8725 152.097 114.473 135.134 120.635 107.425C126.798 79.7156 107.192 51.8152 76.8579 45.0553C46.4915 38.3273 16.8915 55.2908 10.7288 82.9999Z" fill="#9B00C1"/>
<path opacity="0.82" d="M10.6969 82.9362C4.53421 110.645 24.1398 138.546 54.5062 145.306C84.8725 152.034 114.473 135.07 120.635 107.361C126.798 79.6519 107.192 51.7514 76.8259 44.9915C46.4596 38.2635 16.8596 55.227 10.6969 82.9362Z" fill="#9A00C0"/>
<path opacity="0.82" d="M10.6969 82.8405C4.53421 110.55 24.1398 138.482 54.5062 145.21C84.8725 151.938 114.473 134.943 120.667 107.265C126.83 79.5562 107.224 51.6238 76.8578 44.8958C46.4915 38.1678 16.8915 55.1632 10.6969 82.8405Z" fill="#9900BF"/>
<path opacity="0.82" d="M10.665 82.7767C4.50228 110.486 24.1079 138.418 54.4742 145.146C84.8406 151.874 114.473 134.879 120.635 107.17C126.798 79.4605 107.192 51.5282 76.8259 44.8002C46.4596 38.0722 16.8276 55.0676 10.665 82.7767Z" fill="#9800BE"/>
<path opacity="0.81" d="M10.665 82.713C4.50228 110.422 24.1079 138.354 54.4742 145.114C84.8406 151.842 114.473 134.847 120.635 107.138C126.798 79.4287 107.192 51.4963 76.8259 44.7364C46.4596 37.9765 16.8276 55.0038 10.665 82.713Z" fill="#9800BD"/>
<path opacity="0.81" d="M54.4863 145.04C24.1031 138.291 4.47615 110.357 10.6484 82.6461C16.8206 54.9355 46.4547 37.9425 76.8379 44.691C107.221 51.4396 126.848 79.3743 120.676 107.085C114.504 134.796 84.8695 151.789 54.4863 145.04Z" fill="#9700BC"/>
<path opacity="0.8" d="M10.633 82.5854C4.47035 110.295 24.076 138.259 54.4742 144.987C84.8406 151.747 114.473 134.719 120.667 107.01C126.83 79.3011 107.224 51.3369 76.8259 44.6089C46.4596 37.849 16.8276 54.8763 10.633 82.5854Z" fill="#9600BB"/>
<path opacity="0.8" d="M54.444 144.94C24.0608 138.191 4.43696 110.242 10.613 82.5146C16.7891 54.7868 46.4263 37.7799 76.8095 44.5285C107.193 51.277 126.816 79.2257 120.64 106.953C114.464 134.681 84.8272 151.688 54.444 144.94Z" fill="#9500BA"/>
<path opacity="0.79" d="M54.4259 144.877C24.0427 138.129 4.4189 110.18 10.595 82.4524C16.771 54.7247 46.4082 37.7177 76.7914 44.4663C107.175 51.2149 126.798 79.1635 120.622 106.891C114.446 134.619 84.8092 151.626 54.4259 144.877Z" fill="#9400B9"/>
<path opacity="0.79" d="M54.4086 144.808C24.0082 138.056 4.37041 110.104 10.5465 82.3763C16.7225 54.6485 46.3736 37.6447 76.7741 44.3971C107.175 51.1495 126.812 79.1012 120.636 106.829C114.46 134.557 84.809 151.561 54.4086 144.808Z" fill="#9400B8"/>
<path opacity="0.79" d="M10.5373 82.3303C4.37457 110.071 24.0121 138.036 54.4104 144.795C84.8087 151.555 114.473 134.528 120.635 106.787C126.798 79.046 107.16 51.0818 76.7621 44.3219C46.3638 37.562 16.6999 54.5893 10.5373 82.3303Z" fill="#9300B7"/>
<path opacity="0.78" d="M10.5373 82.2665C4.37457 110.008 24.0121 137.972 54.4104 144.732C84.8087 151.492 114.473 134.464 120.635 106.723C126.798 78.9823 107.16 51.018 76.7621 44.2581C46.3638 37.4983 16.6999 54.5255 10.5373 82.2665Z" fill="#9200B6"/>
<path opacity="0.78" d="M10.5053 82.2028C4.34267 109.944 23.9802 137.908 54.3785 144.668C84.7768 151.428 114.441 134.401 120.635 106.66C126.83 78.9185 107.16 50.9542 76.7621 44.1944C46.3638 37.4345 16.7 54.4617 10.5053 82.2028Z" fill="#9100B5"/>
<path opacity="0.77" d="M54.3621 144.583C23.9444 137.827 4.29583 109.858 10.4757 82.1135C16.6556 54.3685 46.3238 37.3538 76.7415 44.11C107.159 50.8662 126.808 78.835 120.628 106.58C114.448 134.325 84.7798 151.34 54.3621 144.583Z" fill="#9000B4"/>
<path opacity="0.77" d="M54.369 144.552C23.9514 137.796 4.30588 109.813 10.4896 82.0512C16.6733 54.289 46.3446 37.2604 76.7623 44.0166C107.18 50.7729 126.825 78.7556 120.642 106.518C114.458 134.28 84.7867 151.309 54.369 144.552Z" fill="#9000B3"/>
<path opacity="0.76" d="M10.4415 82.0114C4.24686 109.784 23.9164 137.749 54.3466 144.508C84.7768 151.268 114.441 134.241 120.635 106.468C126.83 78.6953 107.16 50.731 76.7302 43.9711C46.3 37.2113 16.6361 54.2385 10.4415 82.0114Z" fill="#8F00B2"/>
<path opacity="0.76" d="M10.4415 81.9477C4.24686 109.721 23.9164 137.685 54.3466 144.445C84.7768 151.205 114.441 134.177 120.635 106.404C126.83 78.6315 107.16 50.6673 76.7302 43.9074C46.3 37.1475 16.6361 54.1748 10.4415 81.9477Z" fill="#8E00B1"/>
<path opacity="0.76" d="M10.4095 81.8839C4.21492 109.657 23.8844 137.653 54.3146 144.413C84.7448 151.173 114.441 134.145 120.603 106.373C126.798 78.5996 107.128 50.6035 76.6982 43.8436C46.268 37.0837 16.5722 54.111 10.4095 81.8839Z" fill="#8D00B0"/>
<path opacity="0.75" d="M10.4096 81.8201C4.21495 109.593 23.8844 137.589 54.3146 144.349C84.7449 151.109 114.441 134.082 120.635 106.309C126.83 78.5358 107.16 50.5397 76.7302 43.7798C46.3 37.0199 16.6042 54.0472 10.4096 81.8201Z" fill="#8C00AF"/>
<path opacity="0.75" d="M10.3776 81.7564C4.18297 109.529 23.8524 137.525 54.2827 144.285C84.7129 151.045 114.409 134.018 120.603 106.213C126.798 78.4402 107.128 50.4441 76.6982 43.6842C46.268 36.9243 16.5722 53.9515 10.3776 81.7564Z" fill="#8C00AE"/>
<path opacity="0.74" d="M10.3776 81.6926C4.18301 109.465 23.8525 137.462 54.3146 144.222C84.7449 150.981 114.441 133.954 120.635 106.149C126.83 78.3764 107.16 50.3803 76.6982 43.6204C46.268 36.8605 16.5722 53.8878 10.3776 81.6926Z" fill="#8B00AD"/>
<path opacity="0.74" d="M10.3457 81.6288C4.15109 109.402 23.8206 137.43 54.2827 144.19C84.7449 150.95 114.441 133.922 120.635 106.117C126.83 78.3445 107.16 50.3165 76.6982 43.5566C46.2361 36.7968 16.5403 53.824 10.3457 81.6288Z" fill="#8A00AC"/>
<path opacity="0.73" d="M10.3137 81.565C4.11912 109.37 23.7886 137.366 54.2507 144.126C84.7129 150.886 114.409 133.827 120.603 106.054C126.798 78.2488 107.128 50.2527 76.6663 43.4928C46.2041 36.733 16.5083 53.7921 10.3137 81.565Z" fill="#8900AB"/>
<path opacity="0.73" d="M54.2518 144.065C23.7997 137.301 4.13253 109.284 10.3239 81.4874C16.5153 53.6909 46.2207 36.6406 76.6728 43.4044C107.125 50.1683 126.792 78.1851 120.601 105.982C114.409 133.778 84.7039 150.829 54.2518 144.065Z" fill="#8800AA"/>
<path opacity="0.73" d="M10.2818 81.4056C4.08719 109.21 23.7567 137.238 54.2188 143.998C84.681 150.758 114.409 133.699 120.571 105.926C126.766 78.1213 107.096 50.0933 76.6343 43.3334C46.1722 36.5735 16.4445 53.6327 10.2818 81.4056Z" fill="#8800A9"/>
<path opacity="0.72" d="M54.2164 143.933C23.7471 137.166 4.06596 109.146 10.2573 81.3491C16.4487 53.5526 46.1681 36.5054 76.6374 43.2731C107.107 50.0408 126.788 78.0607 120.596 105.857C114.405 133.654 84.6857 150.701 54.2164 143.933Z" fill="#8700A8"/>
<path opacity="0.72" d="M54.1915 143.902C23.7221 137.134 4.04409 109.101 10.2393 81.2869C16.4345 53.4731 46.157 36.412 76.6263 43.1797C107.096 49.9474 126.774 77.9812 120.578 105.795C114.383 133.609 84.6608 150.67 54.1915 143.902Z" fill="#8600A7"/>
<path opacity="0.71" d="M10.2179 81.2143C4.02334 109.019 23.7247 137.047 54.1869 143.839C84.649 150.599 114.377 133.54 120.571 105.735C126.766 77.93 107.065 49.902 76.6024 43.1102C46.1403 36.3503 16.4126 53.4095 10.2179 81.2143Z" fill="#8500A6"/>
<path opacity="0.71" d="M10.2179 81.1505C4.02332 108.955 23.7247 137.015 54.1869 143.775C84.6809 150.535 114.409 133.476 120.603 105.671C126.798 77.8662 107.096 49.8063 76.6343 43.0464C46.1403 36.2866 16.4125 53.3457 10.2179 81.1505Z" fill="#8400A5"/>
<path opacity="0.7" d="M54.1699 143.708C23.6834 136.937 3.99141 108.9 10.1866 81.0863C16.3818 53.2725 46.1182 36.2145 76.6048 42.986C107.091 49.7575 126.783 77.7944 120.588 105.608C114.393 133.422 84.6565 150.48 54.1699 143.708Z" fill="#8400A4"/>
<path opacity="0.7" d="M10.186 81.023C3.99139 108.86 23.6928 136.888 54.1869 143.648C84.6809 150.407 114.409 133.348 120.603 105.544C126.798 77.7387 107.096 49.6788 76.6024 42.9189C46.1083 36.159 16.3806 53.2182 10.186 81.023Z" fill="#8300A3"/>
<path opacity="0.7" d="M10.1541 80.9592C3.95945 108.796 23.6609 136.824 54.1549 143.616C84.649 150.376 114.409 133.316 120.603 105.48C126.798 77.6431 107.096 49.615 76.6024 42.8233C46.1083 36.0634 16.3487 53.1225 10.1541 80.9592Z" fill="#8200A2"/>
<path opacity="0.69" d="M54.1415 143.546C23.6378 136.77 3.93491 108.717 10.1339 80.8856C16.333 53.0547 46.0865 35.9858 76.5902 42.7612C107.094 49.5365 126.797 77.5905 120.598 105.421C114.399 133.252 84.6452 150.321 54.1415 143.546Z" fill="#8100A1"/>
<path opacity="0.69" d="M54.1234 143.484C23.6197 136.708 3.91684 108.654 10.1159 80.8234C16.3149 52.9925 46.0684 35.9236 76.5721 42.6989C107.076 49.4743 126.779 77.5282 120.58 105.359C114.381 133.19 84.6272 150.259 54.1234 143.484Z" fill="#8000A0"/>
<path opacity="0.68" d="M10.0902 80.7679C3.89561 108.605 23.597 136.664 54.123 143.456C84.6171 150.216 114.377 133.157 120.603 105.32C126.798 77.4836 107.096 49.4237 76.5705 42.6319C46.0764 35.872 16.3167 52.9312 10.0902 80.7679Z" fill="#80009F"/>
<path opacity="0.68" d="M10.0902 80.7041C3.89561 108.541 23.597 136.601 54.123 143.392C84.649 150.152 114.409 133.093 120.603 105.257C126.798 77.4198 107.096 49.3599 76.5705 42.5682C46.0445 35.7764 16.2848 52.8674 10.0902 80.7041Z" fill="#7F009E"/>
<path opacity="0.67" d="M54.095 143.353C23.5741 136.574 3.86036 108.503 10.0632 80.6547C16.2661 52.8066 46.0366 35.7268 76.5576 42.506C107.079 49.2852 126.792 77.3562 120.589 105.204C114.386 133.052 84.6159 150.132 54.095 143.353Z" fill="#7E009D"/>
<path opacity="0.67" d="M10.0583 80.5766C3.86369 108.445 23.5651 136.505 54.0911 143.297C84.6171 150.089 114.377 132.998 120.603 105.129C126.83 77.2604 107.097 49.2005 76.5705 42.4087C46.0445 35.6169 16.2848 52.708 10.0583 80.5766Z" fill="#7D009C"/>
<path opacity="0.67" d="M10.0264 80.5128C3.83177 108.381 23.5332 136.441 54.0592 143.233C84.5852 150.025 114.377 132.934 120.571 105.065C126.766 77.1966 107.065 49.1367 76.5386 42.3449C46.0126 35.5532 16.221 52.6442 10.0264 80.5128Z" fill="#7C009B"/>
<path opacity="0.66" d="M54.0666 143.19C23.5284 136.407 3.80384 108.319 10.0105 80.4541C16.2172 52.5888 46.0048 35.4982 76.543 42.2812C107.081 49.0642 126.806 77.1522 120.599 105.018C114.392 132.883 84.6047 149.973 54.0666 143.19Z" fill="#7C009A"/>
<path opacity="0.66" d="M54.0485 143.128C23.5103 136.345 3.78578 108.257 9.99247 80.3918C16.1992 52.5265 45.9867 35.4359 76.5249 42.2189C107.063 49.002 126.788 77.09 120.581 104.955C114.374 132.821 84.5867 149.911 54.0485 143.128Z" fill="#7B0099"/>
<path opacity="0.65" d="M9.9625 80.3215C3.7679 108.19 23.4693 136.282 54.0272 143.074C84.5532 149.865 114.345 132.774 120.571 104.906C126.766 77.0372 107.065 48.9454 76.5066 42.1536C45.9806 35.3619 16.189 52.4529 9.9625 80.3215Z" fill="#7A0098"/>
<path opacity="0.65" d="M9.9625 80.2577C3.76789 108.126 23.5012 136.218 54.0272 143.01C84.5852 149.802 114.377 132.711 120.571 104.81C126.766 76.9415 107.033 48.8497 76.5066 42.058C45.9806 35.2662 16.1571 52.3572 9.9625 80.2577Z" fill="#790097"/>
<path opacity="0.64" d="M9.93058 80.162C3.73597 108.031 23.4693 136.154 53.9953 142.914C84.5533 149.706 114.345 132.583 120.539 104.714C126.734 76.8459 107.001 48.7222 76.4747 41.9623C45.9168 35.1705 16.1252 52.2935 9.93058 80.162Z" fill="#780096"/>
<path opacity="0.64" d="M9.93056 80.0983C3.73596 107.967 23.4693 136.091 54.0272 142.882C84.5852 149.674 114.377 132.551 120.603 104.683C126.798 76.814 107.065 48.6903 76.5066 41.8985C45.9487 35.1068 16.1571 52.2297 9.93056 80.0983Z" fill="#780095"/>
<path opacity="0.64" d="M53.9847 142.834C23.4294 136.047 3.69395 107.942 9.90447 80.0598C16.115 52.1773 45.9196 35.0759 76.475 41.8627C107.03 48.6496 126.766 76.7546 120.555 104.637C114.345 132.52 84.5401 149.621 53.9847 142.834Z" fill="#770094"/>
<path opacity="0.63" d="M9.89864 79.9707C3.70403 107.871 23.4374 135.963 53.9953 142.755C84.5532 149.547 114.377 132.424 120.571 104.555C126.766 76.6546 107.033 48.5628 76.4747 41.771C45.9168 34.9792 16.0932 52.1021 9.89864 79.9707Z" fill="#760093"/>
<path opacity="0.63" d="M53.9424 142.734C23.3698 135.943 3.62355 107.821 9.8379 79.9214C16.0522 52.0218 45.874 34.9095 76.4465 41.7002C107.019 48.4908 126.765 76.6129 120.551 104.513C114.337 132.412 84.515 149.525 53.9424 142.734Z" fill="#750092"/>
<path opacity="0.62" d="M9.83477 79.8432C3.60823 107.744 23.3735 135.867 53.9314 142.659C84.5213 149.451 114.313 132.328 120.539 104.427C126.766 76.527 107.001 48.4033 76.4428 41.6116C45.8529 34.8198 16.0613 51.9427 9.83477 79.8432Z" fill="#740091"/>
<path opacity="0.62" d="M9.83475 79.7794C3.60821 107.68 23.3735 135.804 53.9633 142.595C84.5532 149.387 114.377 132.264 120.571 104.364C126.798 76.4632 107.033 48.3396 76.4427 41.5478C45.8529 34.756 16.0294 51.8789 9.83475 79.7794Z" fill="#740090"/>
<path opacity="0.61" d="M9.80283 79.7156C3.57629 107.616 23.3416 135.74 53.9314 142.532C84.5213 149.323 114.345 132.2 120.571 104.3C126.798 76.3995 107.033 48.2758 76.4428 41.484C45.8529 34.6923 16.0294 51.8152 9.80283 79.7156Z" fill="#73008F"/>
<path opacity="0.61" d="M53.8959 142.509C23.3061 135.715 3.54899 107.575 9.76717 79.6586C15.9853 51.7418 45.8241 34.6187 76.4139 41.4131C107.004 48.2076 126.761 76.3467 120.543 104.264C114.324 132.18 84.4857 149.304 53.8959 142.509Z" fill="#72008E"/>
<path opacity="0.61" d="M9.7709 79.5881C3.54436 107.489 23.3096 135.644 53.8995 142.436C84.4894 149.228 114.345 132.105 120.539 104.204C126.766 76.3038 107.001 48.1482 76.4108 41.3565C45.821 34.5647 15.9655 51.6876 9.7709 79.5881Z" fill="#71008D"/>
<path opacity="0.6" d="M53.8917 142.385C23.3019 135.59 3.54478 107.451 9.76296 79.5341C15.9811 51.6172 45.8199 34.4942 76.4097 41.2886C106.999 48.0831 126.757 76.2222 120.538 104.139C114.32 132.056 84.4815 149.179 53.8917 142.385Z" fill="#70008C"/>
<path opacity="0.6" d="M53.8744 142.315C23.2674 135.517 3.49633 107.375 9.71451 79.458C15.9327 51.5411 45.7854 34.4212 76.3924 41.2195C106.999 48.0178 126.771 76.16 120.552 104.077C114.334 131.994 84.4814 149.114 53.8744 142.315Z" fill="#70008B"/>
<path opacity="0.59" d="M53.8813 142.284C23.2743 135.486 3.50632 107.33 9.72833 79.3958C15.9503 51.4617 45.8062 34.3278 76.4132 41.1261C107.02 47.9244 126.788 76.0805 120.566 104.015C114.344 131.949 84.4883 149.083 53.8813 142.284Z" fill="#6F008A"/>
<path opacity="0.59" d="M9.70704 79.333C3.4805 107.265 23.2458 135.421 53.8676 142.213C84.4893 149.004 114.345 131.882 120.571 103.949C126.798 76.0168 107.033 47.8613 76.4108 41.0695C45.789 34.2777 15.9336 51.4006 9.73898 79.333H9.70704Z" fill="#6E0089"/>
<path opacity="0.58" d="M9.67511 79.2692C3.44857 107.202 23.2458 135.357 53.8356 142.149C84.4574 148.941 114.313 131.818 120.539 103.885C126.766 75.9531 107.001 47.7975 76.3789 41.0057C45.7571 34.2139 15.9016 51.3369 9.67511 79.2692Z" fill="#6D0088"/>
<path opacity="0.58" d="M53.8279 142.091C23.2037 135.288 3.42177 107.129 9.64378 79.1951C15.8658 51.2611 45.7356 34.1303 76.3598 40.9324C106.984 47.7345 126.766 75.8937 120.544 103.828C114.322 131.762 84.4521 148.893 53.8279 142.091Z" fill="#6C0087"/>
<path opacity="0.58" d="M9.64317 79.1417C3.41663 107.074 23.2138 135.261 53.8356 142.053C84.4574 148.845 114.345 131.722 120.539 103.758C126.766 75.8255 106.969 47.6381 76.347 40.8463C45.7252 34.0545 15.8378 51.1775 9.64317 79.1417Z" fill="#6C0086"/>
<path opacity="0.57" d="M53.7856 141.99C23.1614 135.188 3.38256 107.015 9.6084 79.0637C15.8342 51.1125 45.7071 33.9677 76.3314 40.7698C106.956 47.572 126.734 75.7452 120.509 103.696C114.283 131.648 84.4098 148.792 53.7856 141.99Z" fill="#6B0085"/>
<path opacity="0.57" d="M53.7995 141.928C23.158 135.122 3.36528 106.946 9.59112 78.9946C15.817 51.0433 45.7038 33.9017 76.3452 40.7076C106.987 47.5136 126.779 75.6898 120.554 103.641C114.328 131.592 84.4409 148.734 53.7995 141.928Z" fill="#6A0084"/>
<path opacity="0.56" d="M53.7814 141.866C23.14 135.06 3.34721 106.884 9.57305 78.9323C15.7989 50.9811 45.6857 33.8394 76.3272 40.6454C106.969 47.4513 126.761 75.6276 120.536 103.579C114.31 131.53 84.4229 148.672 53.7814 141.866Z" fill="#690083"/>
<path opacity="0.56" d="M9.57932 78.8866C3.35278 106.851 23.15 135.038 53.8037 141.83C84.4574 148.622 114.345 131.467 120.571 103.535C126.798 75.5704 107.001 47.383 76.347 40.5912C45.6932 33.7994 15.8059 50.9542 9.57932 78.8866Z" fill="#680082"/>
<path opacity="0.55" d="M53.771 141.765C23.1296 134.959 3.33991 106.769 9.56957 78.8009C15.7992 50.8324 45.6892 33.6768 76.3306 40.4828C106.972 47.2887 126.762 75.4789 120.532 103.447C114.302 131.416 84.4125 148.571 53.771 141.765Z" fill="#680081"/>
<path opacity="0.55" d="M9.54739 78.7271C3.32085 106.691 23.1181 134.879 53.7718 141.702C84.4255 148.494 114.313 131.339 120.539 103.375C126.766 75.411 106.969 47.2235 76.315 40.3999C45.6613 33.6081 15.7739 50.7629 9.54739 78.7271Z" fill="#670080"/>
<path opacity="0.55" d="M53.7356 141.634C23.077 134.824 3.27337 106.631 9.50303 78.6626C15.7327 50.6941 45.6366 33.5416 76.2953 40.3514C106.954 47.1612 126.758 75.3545 120.528 103.323C114.298 131.291 84.3943 148.444 53.7356 141.634Z" fill="#66007F"/>
<path opacity="0.54" d="M53.7107 141.603C23.052 134.793 3.2515 106.586 9.48499 78.6003C15.7185 50.6147 45.6255 33.4482 76.2841 40.258C106.943 47.0678 126.743 75.275 120.51 103.261C114.276 131.246 84.3693 148.413 53.7107 141.603Z" fill="#65007E"/>
<path opacity="0.54" d="M9.48354 78.5359C3.257 106.532 23.0542 134.719 53.7399 141.543C84.3936 148.367 114.313 131.18 120.539 103.216C126.766 75.2197 106.969 47.0322 76.2831 40.2086C45.6294 33.3849 15.7101 50.5716 9.48354 78.5359Z" fill="#64007D"/>
<path opacity="0.53" d="M53.7065 141.478C23.0306 134.665 3.21614 106.454 9.44963 78.4689C15.6831 50.4832 45.6041 33.3199 76.28 40.1335C106.956 46.9471 126.77 75.1574 120.537 103.143C114.303 131.129 84.3824 148.292 53.7065 141.478Z" fill="#64007C"/>
<path opacity="0.53" d="M9.4516 78.4083C3.22507 106.404 23.0223 134.624 53.7079 141.416C84.3936 148.239 114.313 131.053 120.539 103.056C126.766 75.0603 106.969 46.8409 76.2831 40.0491C45.5975 33.2255 15.6781 50.4122 9.4516 78.4083Z" fill="#63007B"/>
<path opacity="0.52" d="M53.6961 141.378C23.0202 134.565 3.20885 106.34 9.44617 78.3374C15.6835 50.3346 45.6076 33.1573 76.2834 39.9709C106.959 46.7845 126.771 75.0088 120.533 103.012C114.296 131.014 84.372 148.192 53.6961 141.378Z" fill="#62007A"/>
<path opacity="0.52" d="M53.678 141.316C23.0021 134.502 3.19079 106.278 9.42811 78.2752C15.6654 50.2723 45.5895 33.0951 76.2654 39.9087C106.941 46.7223 126.753 74.9466 120.515 102.949C114.278 130.952 84.3539 148.129 53.678 141.316Z" fill="#610079"/>
<path opacity="0.52" d="M9.38776 78.217C3.16122 106.213 22.9903 134.432 53.676 141.256C84.3617 148.08 114.313 130.893 120.539 102.897C126.766 74.9008 106.937 46.6815 76.2512 39.8578C45.5655 33.0342 15.6143 50.2209 9.38776 78.217Z" fill="#600078"/>
<path opacity="0.51" d="M9.35583 78.1532C3.1293 106.149 22.9584 134.401 53.6441 141.192C84.3297 148.016 114.281 130.829 120.508 102.833C126.734 74.837 106.905 46.5858 76.2193 39.794C45.5336 32.9704 15.5824 50.1571 9.35583 78.1532Z" fill="#600077"/>
<path opacity="0.51" d="M9.35583 78.0894C3.1293 106.117 22.9584 134.337 53.6441 141.16C84.3297 147.984 114.281 130.797 120.508 102.769C126.734 74.7414 106.905 46.5221 76.2193 39.6984C45.5336 32.8747 15.5824 50.0614 9.35583 78.0894Z" fill="#5F0076"/>
<path opacity="0.5" d="M9.32391 78.0257C3.09737 106.054 22.9265 134.273 53.6122 141.097C84.3297 147.92 114.249 130.734 120.508 102.706C126.734 74.6776 106.905 46.4583 76.2193 39.6346C45.5017 32.811 15.5824 49.9976 9.32391 78.0257Z" fill="#5E0075"/>
<path opacity="0.5" d="M53.6142 141.022C22.9039 134.201 3.06773 105.956 9.30888 77.9362C15.55 49.9162 45.5051 32.7312 76.2154 39.5525C106.926 46.3737 126.762 74.6181 120.521 102.638C114.28 130.658 84.3245 147.843 53.6142 141.022Z" fill="#5D0074"/>
<path opacity="0.49" d="M53.5961 140.96C22.8858 134.138 3.04966 105.894 9.29082 77.874C15.532 49.854 45.487 32.669 76.1974 39.4902C106.908 46.3114 126.744 74.5559 120.503 102.576C114.262 130.596 84.3065 147.781 53.5961 140.96Z" fill="#5C0073"/>
<path opacity="0.49" d="M53.5719 140.922C22.8616 134.1 3.02854 105.842 9.27352 77.8048C15.5185 49.7676 45.4767 32.5687 76.187 39.3899C106.897 46.2112 126.73 74.4695 120.485 102.507C114.24 130.544 84.2822 147.743 53.5719 140.922Z" fill="#5B0072"/>
<path opacity="0.48" d="M53.5858 140.859C22.8583 134.034 3.01124 105.773 9.25622 77.7357C15.5012 49.6984 45.4733 32.5026 76.2009 39.3277C106.928 46.1527 126.775 74.4142 120.53 102.451C114.285 130.489 84.3133 147.684 53.5858 140.859Z" fill="#5B0071"/>
<path opacity="0.48" d="M9.2281 77.7068C2.96963 105.735 22.8307 134.018 53.5483 140.842C84.2659 147.665 114.249 130.479 120.476 102.419C126.734 74.3906 106.873 46.1075 76.1554 39.2839C45.4378 32.4602 15.4546 49.6469 9.2281 77.7068Z" fill="#5A0070"/>
<path opacity="0.48" d="M9.22809 77.643C2.96962 105.671 22.8307 133.954 53.5483 140.778C84.2659 147.601 114.249 130.415 120.507 102.355C126.766 74.3269 106.905 46.0438 76.1873 39.2201C45.4697 32.3965 15.4866 49.5831 9.22809 77.643Z" fill="#59006F"/>
<path opacity="0.47" d="M9.19614 77.5793C2.93768 105.639 22.7987 133.89 53.5483 140.714C84.2978 147.538 114.249 130.351 120.507 102.291C126.766 74.2312 106.905 45.98 76.1554 39.1563C45.4059 32.3327 15.4546 49.5194 9.19614 77.5793Z" fill="#58006E"/>
<path opacity="0.47" d="M9.19614 77.4836C2.93768 105.544 22.7987 133.795 53.5483 140.618C84.2978 147.442 114.281 130.223 120.507 102.195C126.766 74.1355 106.905 45.8843 76.1554 39.0607C45.4059 32.237 15.4227 49.4556 9.19614 77.4836Z" fill="#57006D"/>
<path opacity="0.46" d="M53.49 140.597C22.7453 133.768 2.88742 105.49 9.13623 77.4355C15.385 49.3811 45.3742 32.1744 76.119 39.0033C106.864 45.8322 126.722 74.1107 120.473 102.165C114.224 130.219 84.2348 147.426 53.49 140.597Z" fill="#57006C"/>
<path opacity="0.46" d="M9.16422 77.3561C2.90575 105.416 22.7668 133.699 53.5163 140.523C84.2659 147.346 114.249 130.128 120.507 102.068C126.766 74.008 106.905 45.7249 76.1554 38.9012C45.4059 32.0776 15.4227 49.2962 9.16422 77.3561Z" fill="#56006B"/>
<path opacity="0.45" d="M53.5178 140.473C22.7731 133.644 2.9152 105.365 9.16401 77.311C15.4128 49.2566 45.402 32.0499 76.1467 38.8788C106.891 45.7077 126.749 73.9862 120.501 102.041C114.252 130.095 84.2625 147.302 53.5178 140.473Z" fill="#55006A"/>
<path opacity="0.45" d="M53.4928 140.442C22.7308 133.609 2.86211 105.313 9.11475 77.2418C15.3674 49.1702 45.3736 31.9527 76.1356 38.7854C106.898 45.6182 126.766 73.9137 120.514 101.985C114.261 130.057 84.2547 147.274 53.4928 140.442Z" fill="#540069"/>
<path opacity="0.45" d="M53.4754 140.372C22.7135 133.54 2.84477 105.244 9.09741 77.1726C15.3501 49.1011 45.3563 31.8835 76.1182 38.7163C106.88 45.549 126.749 73.8445 120.496 101.916C114.244 129.988 84.2374 147.205 53.4754 140.372Z" fill="#530068"/>
<path opacity="0.44" d="M9.06846 77.101C2.80999 105.161 22.703 133.476 53.4525 140.3C84.2339 147.123 114.217 129.905 120.476 101.845C126.734 73.7848 106.841 45.4698 76.0916 38.6461C45.3101 31.8225 15.3269 49.0411 9.06846 77.101Z" fill="#530067"/>
<path opacity="0.44" d="M53.4713 140.248C22.6921 133.411 2.80941 105.113 9.06205 77.0412C15.3147 48.9696 45.3349 31.7552 76.1141 38.5918C106.893 45.4283 126.776 73.7269 120.523 101.799C114.271 129.87 84.2504 147.084 53.4713 140.248Z" fill="#520066"/>
<path opacity="0.43" d="M9.03651 76.9734C2.77804 105.065 22.671 133.348 53.4525 140.204C84.2339 147.028 114.249 129.809 120.508 101.717C126.766 73.6254 106.873 45.3422 76.0915 38.4867C45.3101 31.663 15.295 48.8816 9.03651 76.9734Z" fill="#510065"/>
<path opacity="0.43" d="M9.03651 76.9097C2.77804 105.001 22.671 133.316 53.4525 140.14C84.2339 146.964 114.249 129.745 120.508 101.653C126.766 73.5616 106.873 45.2466 76.0915 38.423C45.3101 31.5993 15.295 48.8179 9.03651 76.9097Z" fill="#500064"/>
<path opacity="0.42" d="M53.4109 140.085C22.6317 133.249 2.75215 104.936 9.00862 76.8475C15.2651 48.7588 45.2884 31.5304 76.0676 38.367C106.847 45.2035 126.726 73.5161 120.47 101.605C114.213 129.694 84.19 146.922 53.4109 140.085Z" fill="#4F0063"/>
<path opacity="0.42" d="M53.3936 140.016C22.5973 133.176 2.70372 104.86 8.96019 76.7714C15.2167 48.6827 45.2539 31.4574 76.0503 38.2978C106.847 45.1381 126.74 73.4538 120.484 101.543C114.227 129.631 84.19 146.857 53.3936 140.016Z" fill="#4F0062"/>
<path opacity="0.42" d="M8.97265 76.7183C2.71418 104.81 22.6072 133.157 53.3886 139.981C84.1701 146.804 114.217 129.586 120.476 101.494C126.734 73.4021 106.841 45.0553 76.0596 38.2316C45.2782 31.4079 15.2311 48.6265 8.97265 76.7183Z" fill="#4E0061"/>
<path opacity="0.41" d="M53.3824 139.923C22.5861 133.083 2.69565 104.753 8.95595 76.647C15.2162 48.541 45.2566 31.3018 76.053 38.1422C106.849 44.9825 126.74 73.3121 120.479 101.418C114.219 129.524 84.1788 146.763 53.3824 139.923Z" fill="#4D0060"/>
<path opacity="0.41" d="M53.3652 139.854C22.5688 133.013 2.67838 104.684 8.93867 76.5778C15.199 48.4718 45.2393 31.2326 76.0357 38.073C106.832 44.9133 126.723 73.2429 120.462 101.349C114.202 129.455 84.1615 146.694 53.3652 139.854Z" fill="#4C005F"/>
<path opacity="0.4" d="M8.90879 76.527C2.65032 104.651 22.5433 132.966 53.3567 139.821C84.1701 146.677 114.217 129.426 120.476 101.303C126.734 73.179 106.841 44.864 76.0277 38.0084C45.2143 31.1529 15.1673 48.4033 8.90879 76.527Z" fill="#4B005E"/>
<path opacity="0.4" d="M8.90879 76.4632C2.65032 104.587 22.5433 132.934 53.3567 139.757C84.1701 146.613 114.217 129.363 120.476 101.239C126.734 73.1152 106.841 44.7683 76.0277 37.9446C45.2143 31.0891 15.1673 48.3396 8.90879 76.4632Z" fill="#4B005D"/>
<path opacity="0.39" d="M53.3048 139.691C22.4912 132.847 2.58995 104.5 8.85407 76.3771C15.1182 48.254 45.1756 31.004 75.9892 37.8482C106.803 44.6924 126.704 73.039 120.44 101.162C114.176 129.285 84.1184 146.535 53.3048 139.691Z" fill="#4A005C"/>
<path opacity="0.39" d="M8.84492 76.3357C2.58646 104.459 22.4795 132.806 53.3248 139.662C84.1701 146.517 114.217 129.267 120.476 101.143C126.734 73.0195 106.841 44.6726 75.9958 37.8171C45.1824 30.9616 15.1034 48.212 8.84492 76.3357Z" fill="#49005B"/>
<path opacity="0.39" d="M53.3006 139.567C22.4698 132.719 2.5546 104.369 8.81873 76.2458C15.0829 48.1226 45.1542 30.8757 75.985 37.7237C106.816 44.5717 126.731 72.9214 120.467 101.045C114.203 129.168 84.1314 146.415 53.3006 139.567Z" fill="#48005A"/>
<path opacity="0.38" d="M53.3075 139.536C22.4767 132.688 2.56459 104.324 8.83255 76.1835C15.1005 48.0432 45.175 30.7823 76.0058 37.6303C106.837 44.4783 126.749 72.842 120.481 100.982C114.213 129.123 84.1383 146.384 53.3075 139.536Z" fill="#470059"/>
<path opacity="0.38" d="M53.2902 139.466C22.4594 132.618 2.54732 104.255 8.81527 76.1143C15.0832 47.974 45.1577 30.7131 75.9885 37.5611C106.819 44.4091 126.731 72.7728 120.463 100.913C114.196 129.053 84.121 146.314 53.2902 139.466Z" fill="#470058"/>
<path opacity="0.37" d="M8.78101 76.0487C2.52254 104.204 22.4475 132.551 53.2609 139.407C84.1062 146.262 114.185 128.98 120.444 100.856C126.702 72.7006 106.777 44.3538 75.9638 37.4982C45.1504 30.6427 15.0395 47.925 8.78101 76.0487Z" fill="#460057"/>
<path opacity="0.37" d="M8.74909 75.985C2.49062 104.141 22.4156 132.487 53.2609 139.343C84.1062 146.198 114.185 128.916 120.444 100.792C126.702 72.6369 106.777 44.29 75.9318 37.4345C45.0865 30.5789 15.0076 47.8613 8.74909 75.985Z" fill="#450056"/>
<path opacity="0.36" d="M8.74915 75.9212C2.49068 104.077 22.4156 132.456 53.2609 139.311C84.1062 146.167 114.185 128.884 120.476 100.729C126.734 72.5731 106.809 44.1944 75.9638 37.3388C45.1185 30.4833 15.0396 47.7656 8.74915 75.9212Z" fill="#440055"/>
<path opacity="0.36" d="M8.71716 75.8574C2.45869 104.013 22.3836 132.392 53.2289 139.247C84.0742 146.103 114.185 128.82 120.444 100.665C126.702 72.5093 106.777 44.1306 75.9318 37.275C45.0865 30.4195 14.9756 47.7018 8.71716 75.8574Z" fill="#430054"/>
<path opacity="0.36" d="M53.2257 139.179C22.3605 132.324 2.42353 103.94 8.69531 75.7823C14.9671 47.6248 45.0726 30.3562 75.9378 37.2118C106.803 44.0675 126.74 72.4513 120.468 100.609C114.196 128.766 84.0909 146.035 53.2257 139.179Z" fill="#430053"/>
<path opacity="0.35" d="M8.68529 75.7298C2.42682 103.885 22.3517 132.264 53.229 139.12C84.1062 145.975 114.185 128.693 120.476 100.537C126.734 72.3818 106.809 44.003 75.9319 37.1475C45.0546 30.2919 14.9757 47.5743 8.68529 75.7298Z" fill="#420052"/>
<path opacity="0.35" d="M8.68529 75.6661C2.42682 103.822 22.3517 132.232 53.229 139.088C84.1062 145.943 114.217 128.661 120.476 100.505C126.734 72.3499 106.809 43.9393 75.9319 37.0837C45.0546 30.2282 14.9438 47.5105 8.68529 75.6661Z" fill="#410051"/>
<path opacity="0.34" d="M8.65331 75.6023C2.39484 103.79 22.3198 132.169 53.197 139.024C84.0742 145.88 114.185 128.597 120.444 100.442C126.702 72.2542 106.777 43.8755 75.8999 37.0199C45.0227 30.1644 14.9118 47.4467 8.65331 75.6023Z" fill="#400050"/>
<path opacity="0.34" d="M53.1799 138.948C22.2975 132.088 2.3497 103.687 8.62531 75.5125C14.9009 47.3378 45.0235 30.0583 75.9059 36.9178C106.788 43.7773 126.736 72.1781 120.461 100.353C114.185 128.528 84.0624 145.807 53.1799 138.948Z" fill="#3F004F"/>
<path opacity="0.33" d="M53.1619 138.885C22.2794 132.026 2.33163 103.625 8.60724 75.4503C14.8829 47.2755 45.0054 29.9961 75.8879 36.8556C106.77 43.7151 126.718 72.1159 120.442 100.291C114.167 128.465 84.0443 145.745 53.1619 138.885Z" fill="#3F004E"/>
<path opacity="0.33" d="M53.1688 138.854C22.2864 131.995 2.34168 103.58 8.62112 75.388C14.9006 47.1961 45.0262 29.9027 75.9087 36.7622C106.791 43.6217 126.736 72.0365 120.456 100.228C114.177 128.42 84.0513 145.714 53.1688 138.854Z" fill="#3E004D"/>
<path opacity="0.33" d="M53.1196 138.785C22.2371 131.926 2.29243 103.511 8.57187 75.3188C14.8513 47.1269 44.977 29.8336 75.8594 36.693C106.742 43.5525 126.687 71.9673 120.407 100.159C114.128 128.351 84.002 145.644 53.1196 138.785Z" fill="#3D004C"/>
<path opacity="0.32" d="M53.1334 138.723C22.2338 131.859 2.27513 103.442 8.55457 75.2496C14.834 47.0577 44.9736 29.7675 75.8733 36.6308C106.773 43.4941 126.732 71.912 120.452 100.104C114.173 128.296 84.0331 145.586 53.1334 138.723Z" fill="#3C004B"/>
<path opacity="0.32" d="M53.1154 138.661C22.2157 131.797 2.25706 103.379 8.5365 75.1874C14.8159 46.9955 44.9556 29.7053 75.8552 36.5686C106.755 43.4319 126.714 71.8497 120.434 100.042C114.155 128.234 84.015 145.524 53.1154 138.661Z" fill="#3B004A"/>
<path opacity="0.31" d="M53.0911 138.622C22.1915 131.759 2.23592 103.327 8.51919 75.1182C14.8025 46.9091 44.9452 29.6049 75.8449 36.4682C106.745 43.3316 126.7 71.7633 120.417 99.9725C114.134 128.182 83.9908 145.486 53.0911 138.622Z" fill="#3B0049"/>
<path opacity="0.31" d="M8.49369 75.0921C2.20329 103.311 22.1921 131.722 53.1012 138.578C84.0104 145.433 114.153 128.151 120.444 99.9315C126.734 71.7122 106.745 43.3015 75.8361 36.446C44.9269 29.5905 14.7841 46.8728 8.49369 75.0921Z" fill="#3A0048"/>
<path opacity="0.3" d="M53.0869 138.498C22.1701 131.631 2.20057 103.196 8.48385 74.9868C14.7671 46.7777 44.9238 29.4766 75.8407 36.3437C106.758 43.2109 126.727 71.6458 120.444 99.8549C114.16 128.064 84.0038 145.365 53.0869 138.498Z" fill="#390047"/>
<path opacity="0.3" d="M8.46178 74.9646C2.17138 103.184 22.1602 131.626 53.0693 138.482C83.9785 145.338 114.153 128.055 120.412 99.8359C126.702 71.6165 106.713 43.174 75.8042 36.3184C44.895 29.4629 14.7202 46.7452 8.46178 74.9646Z" fill="#380046"/>
<path opacity="0.3" d="M8.46175 74.9008C2.17136 103.12 22.1601 131.563 53.0693 138.418C83.9785 145.274 114.153 127.991 120.444 99.7721C126.734 71.5528 106.745 43.1102 75.8361 36.2547C44.9269 29.3991 14.7522 46.6815 8.46175 74.9008Z" fill="#370045"/>
<path opacity="0.29" d="M8.42986 74.837C2.13945 103.056 22.1282 131.499 53.0374 138.386C83.9785 145.242 114.121 127.928 120.412 99.7083C126.702 71.489 106.713 43.0465 75.8042 36.159C44.8631 29.3035 14.7203 46.6177 8.42986 74.837Z" fill="#370044"/>
<path opacity="0.29" d="M53.0404 138.273C22.1063 131.402 2.126 102.95 8.4131 74.724C14.7002 46.4977 44.8739 29.1857 75.808 36.0567C106.742 42.9276 126.722 71.3796 120.435 99.6059C114.148 127.832 83.9745 145.144 53.0404 138.273Z" fill="#360043"/>
<path opacity="0.28" d="M8.3979 74.6776C2.1075 102.897 22.0963 131.371 53.0374 138.227C83.9785 145.082 114.153 127.768 120.444 99.5489C126.734 71.3296 106.745 42.8551 75.8042 35.9996C44.8631 29.1441 14.6883 46.4583 8.3979 74.6776Z" fill="#350042"/>
<path opacity="0.28" d="M53.005 138.142C22.0709 131.271 2.09059 102.819 8.37769 74.5925C14.6648 46.3662 44.8385 29.0543 75.7726 35.9253C106.707 42.7962 126.687 71.2481 120.4 99.4744C114.113 127.701 83.9391 145.013 53.005 138.142Z" fill="#340041"/>
<path opacity="0.27" d="M53.005 138.142C22.0537 131.267 2.06255 102.798 8.35348 74.5545C14.6444 46.311 44.8352 28.9882 75.7865 35.863C106.738 42.7378 126.729 71.2067 120.438 99.4502C114.147 127.694 83.9563 145.016 53.005 138.142Z" fill="#330040"/>
<path opacity="0.27" d="M8.33405 74.4863C2.04364 102.738 22.0324 131.18 52.9735 138.067C83.9146 144.955 114.121 127.609 120.412 99.3576C126.702 71.1063 106.713 42.6638 75.7722 35.7764C44.8311 28.8889 14.6244 46.2351 8.33405 74.4863Z" fill="#33003F"/>
<path opacity="0.27" d="M52.9697 138.01C22.0184 131.136 2.02719 102.667 8.31812 74.4231C14.609 46.1796 44.7999 28.8568 75.7512 35.7316C106.702 42.6064 126.694 71.0753 120.403 99.3188C114.112 127.562 83.921 144.885 52.9697 138.01Z" fill="#32003E"/>
<path opacity="0.26" d="M52.9835 137.98C22.0322 131.105 2.04105 102.636 8.33197 74.3927C14.6229 46.1492 44.8137 28.8265 75.765 35.7012C106.716 42.576 126.708 71.045 120.417 99.2885C114.126 127.532 83.9349 144.855 52.9835 137.98Z" fill="#31003D"/>
<path opacity="0.26" d="M52.9274 137.91C21.9589 131.031 1.95685 102.545 8.25161 74.2847C14.5464 46.024 44.7542 28.6904 75.7227 35.569C106.691 42.4476 126.693 70.9336 120.399 99.1943C114.104 127.455 83.8959 144.789 52.9274 137.91Z" fill="#30003C"/>
<path opacity="0.25" d="M8.27017 74.2312C1.97977 102.482 21.9686 130.989 52.9416 137.844C83.9146 144.732 114.121 127.386 120.412 99.1344C126.702 70.8832 106.713 42.3769 75.7403 35.5213C44.7673 28.6339 14.5606 45.98 8.27017 74.2312Z" fill="#2F003B"/>
<path opacity="0.25" d="M8.2382 74.1674C1.9478 102.419 21.9366 130.925 52.9096 137.812C83.8827 144.7 114.089 127.354 120.38 99.1025C126.67 70.8513 106.681 42.345 75.7083 35.4575C44.7353 28.5701 14.5286 45.9162 8.2382 74.1674Z" fill="#2F003A"/>
<path opacity="0.24" d="M8.23825 74.1037C1.94785 102.387 21.9686 130.861 52.9416 137.749C83.9146 144.636 114.121 127.29 120.444 99.0068C126.734 70.7237 106.713 42.2493 75.7403 35.3619C44.7673 28.4744 14.5606 45.8206 8.23825 74.1037Z" fill="#2E0039"/>
<path opacity="0.24" d="M8.20626 74.0399C1.91586 102.323 21.9366 130.797 52.9096 137.685C83.8827 144.572 114.121 127.226 120.412 98.9431C126.702 70.66 106.681 42.1855 75.7083 35.2981C44.7353 28.4107 14.4967 45.7568 8.20626 74.0399Z" fill="#2D0038"/>
<path opacity="0.24" d="M52.8948 137.655C21.909 130.772 1.89615 102.269 8.19473 73.9915C14.4933 45.7136 44.7182 28.3692 75.704 35.2516C106.69 42.134 126.703 70.6371 120.404 98.915C114.105 127.193 83.8805 144.537 52.8948 137.655Z" fill="#2C0037"/>
<path opacity="0.23" d="M8.17435 73.9124C1.88395 102.195 21.9047 130.702 52.8777 137.589C83.8827 144.477 114.089 127.131 120.412 98.8474C126.702 70.5643 106.681 42.058 75.7083 35.1706C44.7353 28.2831 14.4967 45.6292 8.17435 73.9124Z" fill="#2B0036"/>
<path opacity="0.23" d="M52.8594 137.523C21.8564 130.637 1.82957 102.131 8.12816 73.8531C14.4267 45.5753 44.6656 28.2339 75.6686 35.1202C106.672 42.0064 126.698 70.5126 120.4 98.7904C114.101 127.068 83.8623 144.41 52.8594 137.523Z" fill="#2B0035"/>
<path opacity="0.22" d="M52.8663 137.492C21.8634 130.606 1.83963 102.086 8.14204 73.7909C14.4445 45.4958 44.6864 28.1406 75.6894 35.0268C106.692 41.913 126.716 70.4331 120.414 98.7282C114.111 127.023 83.8693 144.378 52.8663 137.492Z" fill="#2A0034"/>
<path opacity="0.22" d="M8.1105 73.721C1.8201 102.004 21.8408 130.542 52.8458 137.43C83.8507 144.317 114.089 126.971 120.38 98.6561C126.67 70.373 106.649 41.8348 75.6445 34.9473C44.6395 28.0599 14.4009 45.406 8.1105 73.721Z" fill="#290033"/>
<path opacity="0.21" d="M52.8309 137.361C21.828 130.475 1.80423 101.955 8.10664 73.6595C14.4091 45.3644 44.651 28.0092 75.654 34.8954C106.657 41.7816 126.681 70.3017 120.378 98.5968C114.076 126.892 83.8339 144.247 52.8309 137.361Z" fill="#280032"/>
<path opacity="0.21" d="M8.07857 73.5935C1.78816 101.908 21.8089 130.415 52.8138 137.302C83.8188 144.19 114.089 126.844 120.38 98.5285C126.67 70.2135 106.649 41.7072 75.6445 34.8198C44.6395 27.9324 14.369 45.2785 8.07857 73.5935Z" fill="#270031"/>
<path opacity="0.21" d="M52.8198 137.267C21.7997 130.377 1.76508 101.84 8.07133 73.528C14.3776 45.2158 44.6366 27.8497 75.6568 34.7398C106.677 41.6298 126.712 70.1669 120.405 98.4792C114.099 126.791 83.84 144.158 52.8198 137.267Z" fill="#270030"/>
<path opacity="0.2" d="M8.04661 73.4341C1.75621 101.749 21.7769 130.287 52.8138 137.175C83.8507 144.062 114.089 126.684 120.412 98.401C126.702 70.086 106.681 41.5478 75.6445 34.6604C44.6076 27.7729 14.3689 45.1509 8.04661 73.4341Z" fill="#26002F"/>
<path opacity="0.2" d="M8.0147 73.3703C1.7243 101.685 21.745 130.223 52.7819 137.111C83.8188 143.998 114.089 126.62 120.38 98.3053C126.67 69.9903 106.649 41.4521 75.6126 34.5647C44.5757 27.6773 14.3051 45.0553 8.0147 73.3703Z" fill="#25002E"/>
<path opacity="0.19" d="M52.7983 137.074C21.7609 130.18 1.71237 101.64 8.01861 73.3274C14.3249 45.0152 44.5978 27.6522 75.6352 34.5461C106.673 41.44 126.721 69.9802 120.415 98.2924C114.109 126.605 83.8357 143.968 52.7983 137.074Z" fill="#24002D"/>
<path opacity="0.19" d="M7.98277 73.2427C1.66043 101.558 21.7131 130.128 52.75 137.015C83.7869 143.903 114.057 126.525 120.38 98.2097C126.67 69.8947 106.649 41.3246 75.6126 34.4371C44.5757 27.5497 14.3051 44.9277 7.98277 73.2427Z" fill="#23002C"/>
<path opacity="0.18" d="M7.98279 73.179C1.66045 101.494 21.7131 130.064 52.7819 136.951C83.8188 143.839 114.089 126.461 120.412 98.1459C126.734 69.8309 106.681 41.2608 75.6126 34.3734C44.5757 27.486 14.3051 44.864 7.98279 73.179Z" fill="#23002B"/>
<path opacity="0.18" d="M52.7379 136.911C21.6834 130.014 1.62395 101.456 7.93403 73.1268C14.2441 44.7974 44.5341 27.4236 75.5887 34.3213C106.643 41.219 126.703 69.7762 120.393 98.1057C114.083 126.435 83.7925 143.809 52.7379 136.911Z" fill="#22002A"/>
<path opacity="0.18" d="M52.7206 136.842C21.666 129.944 1.60662 101.387 7.91669 73.0577C14.2268 44.7282 44.5168 27.3544 75.5714 34.2521C106.626 41.1498 126.685 69.7071 120.375 98.0365C114.065 126.366 83.7752 143.74 52.7206 136.842Z" fill="#210029"/>
<path opacity="0.17" d="M7.91895 72.9876C1.59663 101.335 21.6812 129.905 52.7181 136.792C83.7869 143.679 114.057 126.301 120.38 97.9546C126.702 69.6077 106.618 41.0376 75.5807 34.1502C44.5118 27.2627 14.2413 44.6408 7.91895 72.9876Z" fill="#200028"/>
<path opacity="0.17" d="M7.88696 72.9239C1.56463 101.271 21.6492 129.841 52.6861 136.728C83.7549 143.616 114.057 126.238 120.348 97.8908C126.67 69.5439 106.586 40.9738 75.5487 34.0864C44.4799 27.199 14.1774 44.577 7.88696 72.9239Z" fill="#1F0027"/>
<path opacity="0.16" d="M52.6922 136.68C21.6204 129.778 1.55013 101.204 7.86404 72.8571C14.1779 44.5105 44.485 27.1258 75.5568 34.0273C106.629 40.9288 126.699 69.5031 120.385 97.8498C114.071 126.196 83.764 143.581 52.6922 136.68Z" fill="#1E0026"/>
<path opacity="0.16" d="M7.85507 72.7963C1.53275 101.143 21.6173 129.713 52.6862 136.633C83.755 143.52 114.057 126.142 120.38 97.7951C126.702 69.4483 106.618 40.8782 75.5487 33.9589C44.4799 27.0714 14.1774 44.4494 7.85507 72.7963Z" fill="#1E0025"/>
<path opacity="0.15" d="M7.85507 72.7325C1.53275 101.079 21.6173 129.681 52.6862 136.569C83.755 143.456 114.057 126.078 120.38 97.7314C126.702 69.3845 106.618 40.7825 75.5487 33.8951C44.4799 27.0077 14.1774 44.3857 7.85507 72.7325Z" fill="#1D0024"/>
<path opacity="0.15" d="M52.663 136.524C21.5912 129.622 1.52405 101.034 7.84178 72.6703C14.1595 44.3065 44.4697 26.9079 75.5415 33.8094C106.613 40.711 126.68 69.2992 120.363 97.663C114.045 126.027 83.7348 143.425 52.663 136.524Z" fill="#1C0023"/>
<path opacity="0.15" d="M7.82316 72.605C1.50083 100.984 21.5854 129.554 52.6542 136.473C83.7231 143.361 114.057 125.983 120.38 97.6038C126.702 69.2251 106.618 40.655 75.5487 33.7356C44.4799 26.8482 14.1455 44.2262 7.82316 72.605Z" fill="#1B0022"/>
<path opacity="0.14" d="M7.79123 72.5412C1.46889 100.92 21.5535 129.49 52.6542 136.409C83.755 143.329 114.057 125.919 120.38 97.5401C126.702 69.1613 106.618 40.5912 75.5168 33.6719C44.416 26.7845 14.1136 44.1625 7.79123 72.5412Z" fill="#1A0021"/>
<path opacity="0.14" d="M7.75923 72.4774C1.4369 100.856 21.5215 129.458 52.6223 136.346C83.723 143.265 114.057 125.855 120.348 97.4763C126.67 69.0975 106.586 40.4955 75.4848 33.6081C44.3841 26.6888 14.0496 44.0987 7.75923 72.4774Z" fill="#1A0020"/>
<path opacity="0.13" d="M52.6173 136.292C21.5283 129.387 1.45026 100.782 7.77182 72.4005C14.0934 44.0195 44.4207 26.6101 75.5097 33.5154C106.599 40.4208 126.677 69.0261 120.355 97.4071C114.034 125.788 83.7063 143.198 52.6173 136.292Z" fill="#19001F"/>
<path opacity="0.13" d="M52.5992 136.23C21.493 129.321 1.40101 100.712 7.72256 72.3314C14.0441 43.9504 44.3853 26.544 75.4916 33.4532C106.598 40.3624 126.69 68.9707 120.368 97.3517C114.047 125.733 83.7054 143.139 52.5992 136.23Z" fill="#18001E"/>
<path opacity="0.12" d="M7.72737 72.2862C1.40504 100.665 21.4896 129.267 52.6223 136.186C83.7231 143.106 114.057 125.696 120.38 97.285C126.702 68.9062 106.618 40.3042 75.4849 33.3849C44.3841 26.4656 14.0497 43.8755 7.72737 72.2862Z" fill="#17001D"/>
<path opacity="0.12" d="M52.5638 136.099C21.4576 129.189 1.36566 100.581 7.68722 72.2C14.0088 43.8189 44.35 26.4126 75.4562 33.3218C106.562 40.231 126.654 68.8393 120.333 97.2203C114.011 125.601 83.6701 143.008 52.5638 136.099Z" fill="#16001C"/>
<path opacity="0.12" d="M7.69544 72.1586C1.37312 100.537 21.4577 129.171 52.5904 136.091C83.7231 143.01 114.057 125.568 120.38 97.1893C126.702 68.8105 106.618 40.1767 75.4849 33.2574C44.3841 26.3381 14.0178 43.7798 7.69544 72.1586Z" fill="#16001B"/>
<path opacity="0.11" d="M52.5527 136.005C21.4292 129.092 1.32643 100.467 7.65182 72.0685C13.9772 43.6703 44.3355 26.2531 75.4589 33.1661C106.582 40.0792 126.685 68.7045 120.36 97.1027C114.034 125.501 83.6761 142.918 52.5527 136.005Z" fill="#15001A"/>
<path opacity="0.11" d="M52.5354 135.936C21.412 129.023 1.30916 100.398 7.63455 71.9993C13.9599 43.6011 44.3182 26.184 75.4417 33.097C106.565 40.01 126.668 68.6354 120.343 97.0336C114.017 125.432 83.6589 142.849 52.5354 135.936Z" fill="#140019"/>
<path opacity="0.1" d="M52.5173 135.874C21.3939 128.961 1.29109 100.335 7.61648 71.9371C13.9419 43.5389 44.3001 26.1217 75.4236 33.0347C106.547 39.9477 126.65 68.5731 120.324 96.9713C113.999 125.369 83.6408 142.787 52.5173 135.874Z" fill="#130018"/>
<path opacity="0.1" d="M52.5242 135.843C21.3836 128.926 1.26993 100.283 7.59914 71.8679C13.9284 43.4525 44.3037 26.0245 75.4444 32.9413C106.585 39.8582 126.699 68.5006 120.369 96.916C114.04 125.331 83.6649 142.759 52.5242 135.843Z" fill="#120017"/>
<path opacity="0.09" d="M7.59959 71.8078C1.27726 100.218 21.3938 128.852 52.5265 135.772C83.6591 142.691 114.026 125.249 120.38 96.8386C126.702 68.4279 106.586 39.794 75.4529 32.8747C44.3202 25.9554 13.9539 43.3972 7.59959 71.8078Z" fill="#120016"/>
<path opacity="0.09" d="M52.4889 135.711C21.3482 128.794 1.23459 100.152 7.5638 71.7365C13.893 43.3211 44.2684 25.8931 75.409 32.8099C106.55 39.7268 126.663 68.3692 120.334 96.7846C114.005 125.2 83.6296 142.628 52.4889 135.711Z" fill="#110015"/>
<path opacity="0.09" d="M7.56769 71.6803C1.24535 100.091 21.3619 128.757 52.4945 135.676C83.6272 142.595 114.026 125.154 120.348 96.7429C126.67 68.3323 106.554 39.6665 75.421 32.7472C44.2883 25.8279 13.89 43.2697 7.56769 71.6803Z" fill="#100014"/>
<path opacity="0.08" d="M7.53573 71.6165C1.21339 100.059 21.3299 128.693 52.4945 135.612C83.6592 142.532 114.026 125.09 120.348 96.6791C126.67 68.2366 106.554 39.6027 75.389 32.6834C44.2244 25.7641 13.8581 43.2059 7.53573 71.6165Z" fill="#0F0013"/>
<path opacity="0.08" d="M7.50383 71.5528C1.1815 99.9953 21.298 128.629 52.4626 135.548C83.6272 142.468 114.026 125.026 120.348 96.5835C126.67 68.1409 106.554 39.5071 75.389 32.5878C44.2244 25.6684 13.8262 43.1102 7.50383 71.5528Z" fill="#0E0012"/>
<path opacity="0.07" d="M52.4424 135.486C21.2845 128.566 1.16003 99.9062 7.49307 71.4737C13.8261 43.0411 44.2185 25.6022 75.3764 32.5229C106.534 39.4435 126.659 68.103 120.326 96.5356C113.993 124.968 83.6003 142.407 52.4424 135.486Z" fill="#0E0011"/>
<path opacity="0.07" d="M52.4563 135.424C21.2984 128.503 1.17388 99.844 7.50693 71.4114C13.84 42.9788 44.2324 25.54 75.3903 32.4606C106.548 39.3813 126.673 68.0407 120.34 96.4733C114.007 124.906 83.6141 142.345 52.4563 135.424Z" fill="#0D0010"/>
<path opacity="0.06" d="M7.47188 71.3614C1.14954 99.804 21.2661 128.47 52.4307 135.389C83.5953 142.308 113.994 124.867 120.348 96.424C126.67 67.9815 106.554 39.3158 75.389 32.3964C44.2244 25.4771 13.8261 42.9189 7.47188 71.3614Z" fill="#0C000F"/>
<path opacity="0.06" d="M52.414 135.324C21.2389 128.399 1.10352 99.7228 7.44039 71.273C13.7773 42.8233 44.1867 25.3736 75.3618 32.2981C106.537 39.2225 126.672 67.899 120.335 96.3488C113.999 124.799 83.5891 142.248 52.414 135.324Z" fill="#0B000E"/>
<path opacity="0.06" d="M52.4278 135.293C21.2527 128.369 1.11738 99.6924 7.45425 71.2427C13.7911 42.7929 44.2006 25.3432 75.3757 32.2677C106.551 39.1922 126.686 67.8687 120.349 96.3184C114.012 124.768 83.6029 142.218 52.4278 135.293Z" fill="#0A000D"/>
<path opacity="0.05" d="M7.40802 71.1701C1.08569 99.6126 21.2022 128.31 52.3988 135.23C83.5953 142.149 113.994 124.707 120.348 96.2327C126.67 67.7902 106.554 39.0925 75.3571 32.1732C44.1606 25.2539 13.7623 42.6957 7.40802 71.1701Z" fill="#0A000C"/>
<path opacity="0.05" d="M7.3761 71.1063C1.05376 99.5807 21.1703 128.246 52.3668 135.166C83.5634 142.085 113.994 124.643 120.316 96.1689C126.638 67.6945 106.522 39.0288 75.3252 32.1094C44.1286 25.1901 13.6984 42.6319 7.3761 71.1063Z" fill="#09000B"/>
<path opacity="0.04" d="M52.3675 135.099C21.1752 128.171 1.02896 99.4772 7.36966 71.0102C13.7104 42.5432 44.1369 25.0827 75.3292 32.011C106.522 38.9393 126.668 67.6328 120.327 96.0998C113.986 124.567 83.5598 142.027 52.3675 135.099Z" fill="#08000A"/>
<path opacity="0.04" d="M7.34415 70.9788C0.989883 99.4532 21.1702 128.151 52.3668 135.07C83.5634 141.989 113.994 124.548 120.348 96.0733C126.702 67.5989 106.522 38.9012 75.3252 31.9819C44.1286 25.0626 13.6984 42.5044 7.34415 70.9788Z" fill="#070009"/>
<path opacity="0.03" d="M7.34415 70.915C0.989883 99.3894 21.1702 128.087 52.3668 135.006C83.5634 141.926 113.994 124.484 120.348 96.0095C126.702 67.5351 106.522 38.8375 75.3252 31.9181C44.1286 24.9988 13.6984 42.4406 7.34415 70.915Z" fill="#060008"/>
<path opacity="0.03" d="M7.31222 70.8513C0.957954 99.3257 21.1383 128.023 52.3349 134.975C83.5314 141.894 113.994 124.452 120.316 95.9458C126.67 67.4713 106.49 38.7737 75.2932 31.8225C44.0967 24.9032 13.6345 42.3768 7.31222 70.8513Z" fill="#060007"/>
<path opacity="0.03" d="M52.3217 134.899C21.1122 127.967 0.955135 99.2564 7.29967 70.7723C13.6442 42.2881 44.0878 24.8168 75.2973 31.7489C106.507 38.681 126.664 67.3916 120.319 95.8757C113.975 124.36 83.5312 141.831 52.3217 134.899Z" fill="#050006"/>
<path opacity="0.02" d="M7.28027 70.6918C0.92601 99.1662 21.1064 127.896 52.3029 134.815C83.5314 141.734 113.962 124.261 120.316 95.7863C126.67 67.3119 106.49 38.5824 75.2932 31.663C44.0648 24.7437 13.6345 42.2174 7.28027 70.6918Z" fill="#040005"/>
<path opacity="0.02" d="M7.24834 70.6281C0.894081 99.1025 21.0745 127.832 52.3029 134.751C83.5314 141.671 113.962 124.197 120.316 95.7225C126.67 67.2481 106.49 38.5186 75.2613 31.5993C44.0328 24.68 13.5707 42.1536 7.24834 70.6281Z" fill="#030004"/>
<path opacity="0.01" d="M7.24835 70.5643C0.894089 99.0706 21.0745 127.768 52.303 134.719C83.5314 141.639 113.994 124.165 120.316 95.6906C126.638 67.2162 106.49 38.4867 75.2613 31.5355C44.0328 24.6162 13.5707 42.0899 7.24835 70.5643Z" fill="#020003"/>
</g>
<g style="mix-blend-mode:screen">
<path d="M11.4633 85.6146C5.33253 113.132 24.8104 140.905 54.9852 147.601C85.1599 154.298 114.568 137.43 120.699 109.88C126.83 82.3622 107.352 54.5892 77.1772 47.8931C47.0024 41.197 17.594 58.0648 11.4633 85.6146Z" fill="url(#paint3_linear_2004_23474)"/>
<path d="M12.1657 85.487C6.03498 113.005 25.5129 140.778 55.6876 147.474C85.8624 154.17 115.271 137.302 121.402 109.752C127.532 82.2346 108.054 54.4617 77.8797 47.7656C47.7049 41.0695 18.2965 57.9373 12.1657 85.487Z" fill="url(#paint4_linear_2004_23474)"/>
<path d="M12.8363 85.3914C6.70551 112.909 26.1834 140.682 56.3582 147.378C86.5329 154.074 115.941 137.207 122.072 109.657C128.203 82.139 108.725 54.366 78.5502 47.6699C48.3754 40.9738 18.967 57.8416 12.8363 85.3914Z" fill="url(#paint5_linear_2004_23474)"/>
<path d="M13.5388 85.2638C7.40803 112.782 26.8859 140.555 57.0607 147.251C87.2354 153.947 116.644 137.079 122.775 109.529C128.905 82.0114 109.427 54.2385 79.2527 47.5424C49.0779 40.8463 19.6695 57.7141 13.5388 85.2638Z" fill="url(#paint6_linear_2004_23474)"/>
<path d="M14.2093 85.1682C8.07856 112.686 27.5564 140.459 57.7312 147.155C87.906 153.851 117.314 136.983 123.445 109.434C129.576 81.9158 110.098 54.1428 79.9232 47.4467C49.7485 40.7506 20.34 57.6184 14.2093 85.1682Z" fill="url(#paint7_linear_2004_23474)"/>
<path d="M14.9118 85.0406C8.78107 112.558 28.259 140.331 58.4337 147.028C88.6085 153.724 118.017 136.856 124.148 109.306C130.278 81.7882 110.801 54.0153 80.6257 47.3192C50.451 40.6231 21.0426 57.5228 14.9118 85.0406Z" fill="url(#paint8_linear_2004_23474)"/>
<path d="M15.6143 84.945C9.48354 112.463 28.9614 140.236 59.1362 146.932C89.311 153.628 118.719 136.76 124.85 109.21C130.981 81.6926 111.503 53.9197 81.3282 47.2235C51.1535 40.5274 21.745 57.3953 15.6143 84.945Z" fill="url(#paint9_linear_2004_23474)"/>
<path d="M16.2848 84.8493C10.1541 112.367 29.632 140.14 59.8067 146.836C89.9815 153.532 119.39 136.664 125.521 109.115C131.683 81.565 112.174 53.824 82.0307 47.1279C51.8559 40.4318 22.4475 57.2996 16.3167 84.8493H16.2848Z" fill="url(#paint10_linear_2004_23474)"/>
<path d="M16.9873 84.7218C10.8566 112.24 30.3345 140.013 60.5092 146.709C90.684 153.405 120.092 136.537 126.223 108.987C132.354 81.4694 112.876 53.6964 82.7012 47.0003C52.5265 40.3042 23.1181 57.1721 16.9873 84.7218Z" fill="url(#paint11_linear_2004_23474)"/>
<path d="M17.6579 84.6261C11.5271 112.144 31.005 139.917 61.1798 146.613C91.3545 153.309 120.763 136.441 126.894 108.892C133.056 81.3418 113.578 53.6008 83.4037 46.9046C53.229 40.2085 23.8205 57.1083 17.6898 84.6261H17.6579Z" fill="url(#paint12_linear_2004_23474)"/>
<path d="M18.3604 84.4986C12.2296 112.016 31.7075 139.789 61.8823 146.485C92.057 153.182 121.465 136.282 127.596 108.764C133.727 81.2462 114.249 53.5051 84.0743 46.809C53.8995 40.1129 24.4911 57.0126 18.3604 84.5304V84.4986Z" fill="url(#paint13_linear_2004_23474)"/>
<path d="M19.0628 84.4029C12.9321 111.921 32.41 139.694 62.5847 146.39C92.7595 153.086 122.168 136.218 128.299 108.668C134.429 81.1186 114.952 53.3776 84.7767 46.6815C54.602 39.9853 25.1936 56.8532 19.0628 84.4029Z" fill="black"/>
</g>
</g>
<path d="M41.7338 118.33C43.0749 112.272 52.6223 109.242 62.9998 111.538C73.4093 113.834 80.7534 120.626 79.3804 126.684L77.72 134.209L72.5472 133.061C68.6516 134.401 63.5107 134.688 58.1144 133.476C52.718 132.264 48.1839 129.873 45.2143 127.003L40.0415 125.855L41.7019 118.33H41.7338Z" fill="url(#paint14_linear_2004_23474)"/>
<path d="M40.0734 125.823C38.7323 131.882 46.0764 138.673 56.454 140.969C66.8635 143.265 76.3789 140.236 77.72 134.177C79.0611 128.119 71.717 121.327 61.3394 119.031C50.93 116.736 41.4145 119.765 40.0734 125.823Z" fill="url(#paint15_linear_2004_23474)"/>
<path d="M57.2523 137.494C66.0333 139.439 73.4413 136.951 74.2395 133.444C75.0378 129.936 69.3541 124.516 60.5731 122.571C51.7921 120.626 44.3841 123.113 43.5858 126.62C42.7875 130.128 48.4713 135.548 57.2523 137.494Z" fill="url(#paint16_linear_2004_23474)"/>
<mask id="mask1_2004_23474" style="mask-type:luminance" maskUnits="userSpaceOnUse" x="0" y="121" width="134" height="123">
<path d="M43.8093 126.588C44.6076 123.081 51.824 120.402 60.605 122.348C69.386 124.293 75.2294 129.873 74.4631 133.38C74.4631 133.38 122.934 162.397 129.544 175.629C145.35 207.324 102.243 243.675 102.243 243.675C102.243 243.675 -0.191544 212.777 0.0319824 211.725C0.255493 210.704 5.30058 155.892 5.30058 155.892L43.8413 126.556L43.8093 126.588Z" fill="white"/>
</mask>
<g mask="url(#mask1_2004_23474)">
<path d="M68.3004 125.664C67.5021 130.542 67.6617 136.154 70.2481 140.395C72.7707 144.508 77.4965 146.868 81.0408 149.897C87.3951 155.318 92.6318 162.811 88.9916 171.931C89.0236 171.835 84.8725 170.081 84.9364 169.922C88.5765 160.802 83.3398 153.309 76.9856 147.888C73.4732 144.891 68.6835 142.468 66.1929 138.386C63.6065 134.145 63.4469 128.533 64.2451 123.655C64.1813 124.133 68.3642 125.122 68.3004 125.664Z" fill="url(#paint17_linear_2004_23474)"/>
<path d="M66.2568 123.336C60.3495 135.261 66.161 143.488 71.5254 153.341C76.8259 163.13 75.2294 171.835 70.0246 181.879C70.0246 181.879 66.0013 179.838 66.0333 179.775C71.2699 169.699 72.8984 161.121 67.534 151.236C62.2015 141.384 56.3582 133.125 62.2654 121.232C62.2654 121.232 66.2887 123.24 66.2568 123.336Z" fill="url(#paint18_linear_2004_23474)"/>
<path d="M64.6921 122.89C55.975 132.806 60.9562 143.074 62.0419 153.947C63.383 167.211 59.6151 180.54 52.3029 191.987C52.3029 191.987 48.5031 189.532 48.5351 189.5C55.8153 178.148 59.7748 164.661 58.274 151.46C57.0606 140.65 52.271 130.223 60.9243 120.402C61.1159 120.179 64.5644 123.049 64.6921 122.89Z" fill="url(#paint19_linear_2004_23474)"/>
<path d="M64.3729 120.147C53.6441 127.832 56.1347 138.96 54.7297 149.802C53.0054 163.034 46.2999 175.151 36.561 184.621C36.561 184.621 33.4318 181.369 33.4637 181.337C43.1388 171.931 50.0678 159.686 51.6324 146.517C52.9096 135.708 50.6426 124.484 61.2756 116.863C61.4991 116.704 64.2132 120.275 64.3729 120.147Z" fill="url(#paint20_linear_2004_23474)"/>
<path d="M64.309 117.596C52.0794 122.603 51.9517 133.986 48.0561 144.222C43.3303 156.721 34.0065 166.956 22.3197 173.939C22.3197 173.939 20.0207 170.049 20.0526 170.049C31.6117 163.13 41.1909 152.831 45.789 140.331C49.5249 130.096 49.9081 118.649 62.0419 113.706C62.2973 113.611 64.1174 117.692 64.309 117.596Z" fill="url(#paint21_linear_2004_23474)"/>
<g style="mix-blend-mode:multiply">
<path d="M57.4438 137.27C66.2248 139.215 73.6328 136.728 74.4311 133.221C75.2293 129.713 69.5456 124.293 60.7646 122.348C51.9836 120.402 44.5756 122.89 43.7773 126.397C42.9791 129.905 48.6628 135.325 57.4438 137.27Z" fill="#D8B155"/>
<path opacity="0.91" d="M57.3161 137.749C66.0971 139.694 73.7605 137.27 74.5588 133.731C75.3571 130.223 69.4179 124.771 60.6369 122.826C51.8559 120.881 44.1605 123.113 43.3622 126.62C42.564 130.128 48.535 135.772 57.3161 137.717V137.749Z" fill="#DCB864"/>
<path opacity="0.82" d="M57.2203 138.227C66.0013 140.172 73.9202 137.78 74.7185 134.273C75.5167 130.766 69.3221 125.249 60.5411 123.304C51.7601 121.359 43.7774 123.336 42.9791 126.875C42.1808 130.383 48.4393 136.282 57.2203 138.227Z" fill="#DFBF74"/>
<path opacity="0.73" d="M57.0926 138.705C65.8736 140.65 74.0479 138.323 74.8462 134.783C75.6445 131.276 69.1944 125.727 60.4134 123.782C51.6324 121.837 43.3622 123.559 42.564 127.099C41.7657 130.606 48.3115 136.76 57.0606 138.705H57.0926Z" fill="#E3C683"/>
<path opacity="0.64" d="M56.9968 139.215C65.7778 141.16 74.2076 138.865 75.0058 135.357C75.8041 131.85 69.0986 126.238 60.3176 124.293C51.5366 122.348 42.9791 123.846 42.2127 127.354C41.4464 130.861 48.2477 137.27 56.9968 139.215Z" fill="#E6CD93"/>
<path opacity="0.55" d="M56.869 139.694C65.6501 141.639 74.3353 139.407 75.1336 135.899C75.9318 132.392 68.9709 126.748 60.1899 124.803C51.4089 122.858 42.564 124.101 41.7976 127.609C41.0313 131.116 48.12 137.78 56.869 139.726V139.694Z" fill="#EAD4A2"/>
<path opacity="0.45" d="M56.7413 140.172C65.5223 142.117 74.463 139.949 75.2613 136.409C76.0595 132.902 68.8431 127.194 60.0621 125.249C51.2811 123.304 42.1489 124.293 41.3825 127.8C40.6162 131.308 47.9922 138.227 56.7413 140.172Z" fill="#EDDCB2"/>
<path opacity="0.36" d="M56.6456 140.65C65.4266 142.595 74.6227 140.459 75.421 136.951C76.2192 133.444 68.7474 127.673 59.9664 125.727C51.1854 123.782 41.7657 124.516 40.9994 128.055C40.233 131.595 47.8645 138.705 56.6456 140.65Z" fill="#F1E3C1"/>
<path opacity="0.27" d="M56.5178 141.16C65.2988 143.105 74.7504 141.033 75.5487 137.493C76.347 133.986 68.6197 128.183 59.8386 126.238C51.0576 124.293 41.3825 124.771 40.5843 128.31C39.786 131.818 47.7368 139.215 56.5178 141.16Z" fill="#F4EAD1"/>
<path opacity="0.18" d="M56.422 141.639C65.203 143.584 74.91 141.543 75.7083 138.036C76.5066 134.528 68.5238 128.661 59.7428 126.716C50.9618 124.771 40.9993 124.994 40.2011 128.533C39.4028 132.073 47.641 139.694 56.422 141.639Z" fill="#F8F1E0"/>
<path opacity="0.09" d="M56.2943 142.117C65.0753 144.062 75.0378 142.085 75.8361 138.546C76.6343 135.038 68.3961 129.139 59.6151 127.194C50.8341 125.249 40.5843 125.249 39.786 128.757C38.9877 132.264 47.5133 140.172 56.2943 142.117Z" fill="#FBF8F0"/>
</g>
</g>
<path d="M79.6359 52.4848L95.5375 71.0426C97.6449 73.4659 96.9744 77.2285 94.1325 78.7909L71.0784 91.5773C68.939 92.7571 66.2568 92.2469 64.6922 90.3656L48.567 70.915C46.4915 68.4279 47.2579 64.6334 50.1636 63.1667L73.4093 51.2731C75.5168 50.189 78.0713 50.6991 79.6039 52.4848H79.6359Z" fill="url(#paint22_linear_2004_23474)"/>
<path d="M68.46 88.8351C69.4818 88.9308 70.5355 88.7395 71.4935 88.2293L90.1092 77.8981C91.4503 77.1329 92.3763 75.8574 92.6637 74.3269C92.9192 72.7963 92.5041 71.2658 91.5142 70.086L78.646 55.0995C77.1133 53.2819 74.5269 52.8036 72.4195 53.8878L53.6121 63.5174C52.2072 64.2189 51.2492 65.5263 50.9299 67.0249C50.6106 68.5555 50.9938 70.1179 52.0156 71.3296L65.0434 87.0495C65.9375 88.1017 67.1509 88.7395 68.46 88.867V88.8351ZM75.0697 55.3227C75.8361 55.4183 76.5705 55.7691 77.0814 56.3749L89.9496 71.3614C90.5563 72.0629 90.8117 72.9876 90.6521 73.9123C90.4924 74.837 89.9176 75.6023 89.1194 76.0806L70.5036 86.4118C69.1944 87.1451 67.566 86.8263 66.608 85.6784L53.5802 69.9585C52.9735 69.2251 52.75 68.3004 52.9416 67.3757C53.1332 66.451 53.7079 65.6857 54.5701 65.2393L73.3774 55.6096C73.9202 55.3227 74.5269 55.227 75.1017 55.2908L75.0697 55.3227Z" fill="url(#paint23_linear_2004_23474)"/>
<mask id="mask2_2004_23474" style="mask-type:luminance" maskUnits="userSpaceOnUse" x="47" y="50" width="50" height="43">
<path d="M79.6359 52.4848L95.5375 71.0426C97.6449 73.4659 96.9744 77.2285 94.1325 78.7909L71.0784 91.5773C68.939 92.7571 66.2568 92.2469 64.6922 90.3656L48.567 70.915C46.4915 68.4279 47.2579 64.6334 50.1636 63.1667L73.4093 51.2731C75.5168 50.189 78.0713 50.6991 79.6039 52.4848H79.6359Z" fill="white"/>
</mask>
<g mask="url(#mask2_2004_23474)">
<path d="M26.5027 42.058C23.15 52.3253 31.8033 64.3465 45.8529 68.9381C59.9025 73.5297 74.016 68.9381 77.4007 58.6707C80.7534 48.4033 72.1001 36.3822 58.0505 31.7906C44.0009 27.199 29.8874 31.7906 26.5027 42.058Z" fill="url(#paint24_radial_2004_23474)" style="mix-blend-mode:screen"/>
</g>
</g>
<defs>
<linearGradient id="paint0_linear_2004_23474" x1="76.7548" y1="50.1985" x2="79.3914" y2="38.6763" gradientUnits="userSpaceOnUse">
<stop stop-color="#E76100"/>
<stop offset="0.42" stop-color="#F27C00"/>
<stop offset="1" stop-color="#FFA92C"/>
</linearGradient>
<linearGradient id="paint1_linear_2004_23474" x1="53.8357" y1="157.773" x2="75.5859" y2="50.8467" gradientUnits="userSpaceOnUse">
<stop stop-color="#09357F"/>
<stop offset="0.46" stop-color="#04419F"/>
<stop offset="1" stop-color="#015FAF"/>
</linearGradient>
<radialGradient id="paint2_radial_2004_23474" cx="0" cy="0" r="1" gradientTransform="matrix(16.6851 41.5522 -41.6105 16.6618 85.9831 63.1144)" gradientUnits="userSpaceOnUse">
<stop stop-color="#1D7DFF"/>
<stop offset="0.1" stop-color="#186AD9"/>
<stop offset="0.29" stop-color="#114A98"/>
<stop offset="0.47" stop-color="#0B2F61"/>
<stop offset="0.63" stop-color="#061B37"/>
<stop offset="0.78" stop-color="#020C19"/>
<stop offset="0.91" stop-color="#000306"/>
<stop offset="1"/>
</radialGradient>
<linearGradient id="paint3_linear_2004_23474" x1="34.7729" y1="65.1755" x2="63.8514" y2="95.5081" gradientUnits="userSpaceOnUse">
<stop offset="0.03" stop-color="#8B48F0"/>
<stop offset="1"/>
</linearGradient>
<linearGradient id="paint4_linear_2004_23474" x1="37.1159" y1="61.1578" x2="69.3587" y2="88.6951" gradientUnits="userSpaceOnUse">
<stop offset="0.03" stop-color="#7E41DA"/>
<stop offset="1"/>
</linearGradient>
<linearGradient id="paint5_linear_2004_23474" x1="38.8332" y1="54.366" x2="74.4795" y2="78.1368" gradientUnits="userSpaceOnUse">
<stop offset="0.03" stop-color="#723BC4"/>
<stop offset="1"/>
</linearGradient>
<linearGradient id="paint6_linear_2004_23474" x1="47.103" y1="41.2927" x2="85.7046" y2="59.4181" gradientUnits="userSpaceOnUse">
<stop offset="0.03" stop-color="#6534AF"/>
<stop offset="1"/>
</linearGradient>
<linearGradient id="paint7_linear_2004_23474" x1="48.8464" y1="9.11944" x2="90.0033" y2="20.7065" gradientUnits="userSpaceOnUse">
<stop offset="0.03" stop-color="#582E99"/>
<stop offset="1"/>
</linearGradient>
<linearGradient id="paint8_linear_2004_23474" x1="49.9979" y1="-158.156" x2="92.4951" y2="-154.168" gradientUnits="userSpaceOnUse">
<stop offset="0.03" stop-color="#4C2783"/>
<stop offset="1"/>
</linearGradient>
<linearGradient id="paint9_linear_2004_23474" x1="94.4285" y1="-156.625" x2="52.205" y2="-152.664" gradientUnits="userSpaceOnUse">
<stop offset="0.03" stop-color="#3F216D"/>
<stop offset="1"/>
</linearGradient>
<linearGradient id="paint10_linear_2004_23474" x1="95.3041" y1="10.4268" x2="54.9145" y2="21.7974" gradientUnits="userSpaceOnUse">
<stop offset="0.03" stop-color="#331A57"/>
<stop offset="1"/>
</linearGradient>
<linearGradient id="paint11_linear_2004_23474" x1="96.8004" y1="42.3131" x2="59.2738" y2="59.9205" gradientUnits="userSpaceOnUse">
<stop offset="0.03" stop-color="#261441"/>
<stop offset="1"/>
</linearGradient>
<linearGradient id="paint12_linear_2004_23474" x1="97.2579" y1="55.0356" x2="62.7995" y2="78.0457" gradientUnits="userSpaceOnUse">
<stop offset="0.03" stop-color="#190D2C"/>
<stop offset="1"/>
</linearGradient>
<linearGradient id="paint13_linear_2004_23474" x1="100.497" y1="61.5086" x2="69.4429" y2="88.0701" gradientUnits="userSpaceOnUse">
<stop offset="0.03" stop-color="#0D0716"/>
<stop offset="1"/>
</linearGradient>
<linearGradient id="paint14_linear_2004_23474" x1="43.3056" y1="118.493" x2="84.0647" y2="127.792" gradientUnits="userSpaceOnUse">
<stop stop-color="#C54000"/>
<stop offset="0.54" stop-color="#C95500"/>
<stop offset="1" stop-color="#F17C00"/>
</linearGradient>
<linearGradient id="paint15_linear_2004_23474" x1="41.1673" y1="122.929" x2="76.7455" y2="137.05" gradientUnits="userSpaceOnUse">
<stop stop-color="#CF7200"/>
<stop offset="0.54" stop-color="#FD9200"/>
<stop offset="1" stop-color="#FFB71B"/>
</linearGradient>
<linearGradient id="paint16_linear_2004_23474" x1="57.7038" y1="135.785" x2="61.1485" y2="119.897" gradientUnits="userSpaceOnUse">
<stop stop-color="#001E46"/>
<stop offset="0.46" stop-color="#002A5D"/>
<stop offset="1" stop-color="#004069"/>
</linearGradient>
<linearGradient id="paint17_linear_2004_23474" x1="96.1835" y1="157.57" x2="57.0595" y2="138.028" gradientUnits="userSpaceOnUse">
<stop stop-color="#7900F1"/>
<stop offset="0.49" stop-color="#C80000"/>
<stop offset="1" stop-color="#540000"/>
</linearGradient>
<linearGradient id="paint18_linear_2004_23474" x1="81.6756" y1="159.719" x2="50.6044" y2="143.362" gradientUnits="userSpaceOnUse">
<stop stop-color="#7900F1"/>
<stop offset="0.49" stop-color="#C80000"/>
<stop offset="1" stop-color="#540000"/>
</linearGradient>
<linearGradient id="paint19_linear_2004_23474" x1="70.0868" y1="165" x2="43.0653" y2="147.246" gradientUnits="userSpaceOnUse">
<stop stop-color="#7900F1"/>
<stop offset="0.49" stop-color="#C80000"/>
<stop offset="1" stop-color="#540000"/>
</linearGradient>
<linearGradient id="paint20_linear_2004_23474" x1="59.9612" y1="162.357" x2="37.6998" y2="138.923" gradientUnits="userSpaceOnUse">
<stop stop-color="#7900F1"/>
<stop offset="0.49" stop-color="#C80000"/>
<stop offset="1" stop-color="#540000"/>
</linearGradient>
<linearGradient id="paint21_linear_2004_23474" x1="50.3133" y1="157.666" x2="34.0459" y2="129.71" gradientUnits="userSpaceOnUse">
<stop stop-color="#7900F1"/>
<stop offset="0.49" stop-color="#C80000"/>
<stop offset="1" stop-color="#540000"/>
</linearGradient>
<linearGradient id="paint22_linear_2004_23474" x1="66.2568" y1="57.0126" x2="80.5914" y2="91.5597" gradientUnits="userSpaceOnUse">
<stop stop-color="#D76500"/>
<stop offset="0.49" stop-color="#C80000"/>
<stop offset="1" stop-color="#8B0000"/>
</linearGradient>
<linearGradient id="paint23_linear_2004_23474" x1="77.3283" y1="53.8733" x2="66.0558" y2="88.1597" gradientUnits="userSpaceOnUse">
<stop stop-color="#FFBB2A"/>
<stop offset="0.46" stop-color="#F89200"/>
<stop offset="0.99" stop-color="#F37700"/>
</linearGradient>
<radialGradient id="paint24_radial_2004_23474" cx="0" cy="0" r="1" gradientTransform="matrix(-25.4861 -8.3283 -6.08758 18.5769 52.0075 50.3975)" gradientUnits="userSpaceOnUse">
<stop stop-color="#F37700"/>
<stop offset="1"/>
</radialGradient>
<clipPath id="clip0_2004_23474">
<rect width="132.992" height="243.675" fill="white" transform="matrix(-1 0 0 1 132.992 0)"/>
</clipPath>
</defs>
</svg>
