<svg width="198" height="52" viewBox="0 0 198 52" fill="none" xmlns="http://www.w3.org/2000/svg">
<g clip-path="url(#clip0_2004_29)">
<path d="M72.4934 22.4875C72.7105 22.23 72.8691 21.9362 72.961 21.6063C73.0528 21.2764 73.0988 20.8378 73.0988 20.2866V12.5413C73.0988 12.2074 73.0487 11.8855 72.9443 11.5837C72.8399 11.2779 72.6896 11.0124 72.4934 10.7871H75.6079L79.1858 16.4763V12.5413C79.1858 12.2074 79.1357 11.8855 79.0313 11.5837C78.927 11.2779 78.7767 11.0124 78.5804 10.7871H82.1751C81.9621 11.0446 81.8077 11.3302 81.7158 11.636C81.624 11.9418 81.578 12.3924 81.578 12.9879V20.701C81.578 21.0591 81.6281 21.385 81.7283 21.6868C81.8285 21.9886 81.9788 22.2581 82.1751 22.4875H79.1023C79.1315 22.4392 79.1524 22.3909 79.1649 22.3426C79.1775 22.2943 79.1858 22.2259 79.1858 22.1414V20.7493L75.5411 15.1647V20.2866C75.5411 20.351 75.5411 20.4314 75.5495 20.524C75.5536 20.6165 75.5578 20.6769 75.5578 20.697C75.5578 21.0551 75.6079 21.381 75.7081 21.6828C75.8083 21.9845 75.9586 22.2541 76.1632 22.4834H72.4934V22.4875Z" fill="white"/>
<path d="M89.2808 19.4054C89.1388 19.5342 88.9885 19.6308 88.8173 19.6911C88.6503 19.7515 88.4625 19.7837 88.2537 19.7837C87.9949 19.7837 87.7569 19.7273 87.5356 19.6106C87.3144 19.494 87.1014 19.3169 86.8927 19.0715L86.5503 21.047C86.5295 21.1718 86.5128 21.2844 86.5002 21.3931C86.4877 21.4977 86.4835 21.5983 86.4835 21.6948C86.4835 21.8397 86.5169 21.9725 86.5796 22.0891C86.6422 22.2058 86.7674 22.3386 86.947 22.4915H83.2104C83.4776 22.2742 83.6947 22.0167 83.8533 21.719C84.012 21.4212 84.1539 20.9988 84.2792 20.4516L85.0766 16.8586C84.9931 16.5367 84.8553 16.2751 84.6633 16.086C84.4712 15.8929 84.2667 15.8004 84.0412 15.8004C83.9285 15.8004 83.8366 15.8326 83.7615 15.8969C83.6864 15.9613 83.6488 16.0458 83.6488 16.1464V16.1625C83.6488 16.1625 83.6863 16.1504 83.7072 16.1464C83.774 16.1343 83.8158 16.1303 83.8325 16.1303C83.9995 16.1303 84.1414 16.1947 84.2625 16.3275C84.3794 16.4602 84.4378 16.6292 84.4378 16.8425C84.4378 17.0758 84.3502 17.277 84.179 17.446C84.0036 17.615 83.7907 17.6995 83.5402 17.6995C83.2563 17.6995 83.0225 17.615 82.8472 17.442C82.6718 17.269 82.5842 17.0396 82.5842 16.7539C82.5842 16.3315 82.7637 15.9774 83.1269 15.6837C83.4901 15.394 83.9327 15.2451 84.4587 15.2451C84.6007 15.2451 84.7426 15.2612 84.8971 15.2894C85.0474 15.3175 85.2102 15.3658 85.3855 15.4302L85.9074 12.9839C85.9074 12.9839 85.9074 12.9678 85.9158 12.9517C85.9199 12.9356 85.9241 12.9236 85.9241 12.9195C85.9241 12.4166 85.874 11.9981 85.778 11.6642C85.682 11.3302 85.5233 11.0365 85.302 10.783H90.1658C90.1658 10.8193 90.1658 10.8595 90.1617 10.8997C90.1617 10.94 90.1617 10.9963 90.1617 11.0647C90.1617 11.5234 90.2159 11.9941 90.3287 12.4729C90.3412 12.5091 90.3454 12.5373 90.3454 12.5534L92.1698 20.4475C92.3201 21.0591 92.4746 21.5017 92.629 21.7793C92.7835 22.0569 92.9881 22.2943 93.2386 22.4875H89.1972C89.3559 22.2823 89.4686 22.0932 89.5354 21.9201C89.6064 21.7471 89.6398 21.5701 89.6398 21.3931C89.6398 21.3327 89.6398 21.2683 89.6273 21.204C89.6189 21.1356 89.6064 21.0591 89.5897 20.9746L89.2974 19.4054H89.2808ZM87.2726 16.8867C87.6275 17.442 87.9197 17.8363 88.1493 18.0737C88.3831 18.307 88.5877 18.4277 88.7672 18.4277C88.8507 18.4277 88.9175 18.4076 88.9676 18.3634C89.0177 18.3191 89.0428 18.2628 89.0428 18.1863L87.9406 12.9879L87.2684 16.8907L87.2726 16.8867Z" fill="white"/>
<path d="M93.3973 22.4875C93.6603 22.234 93.8774 21.8155 94.0444 21.2321C94.2114 20.6487 94.345 19.8561 94.4493 18.8542L94.9128 14.1668L94.9211 14.1427C95.0004 13.2454 95.038 12.6741 95.038 12.4246C95.038 12.0947 94.9754 11.809 94.8543 11.5636C94.7291 11.3182 94.5161 11.0566 94.2072 10.783H97.5513L99.4259 15.0238L100.987 12.1269C101.133 11.8734 101.259 11.636 101.367 11.4147C101.472 11.1934 101.568 10.9842 101.643 10.783H104.632C104.398 11.113 104.227 11.4188 104.123 11.7004C104.018 11.982 103.968 12.3321 103.968 12.7425V12.823C103.968 13.1448 103.977 13.507 103.997 13.9093C104.018 14.3076 104.047 14.7341 104.085 15.1807L104.361 18.2467C104.49 19.6187 104.628 20.6125 104.782 21.2361C104.933 21.8598 105.125 22.2782 105.363 22.4875H101.71C101.902 22.1978 102.035 21.9242 102.115 21.6707C102.194 21.4172 102.231 21.1275 102.231 20.7976C102.231 20.6729 102.223 20.5159 102.211 20.3228C102.198 20.1297 102.177 19.8802 102.148 19.5744L101.626 14.6617C100.737 15.4865 100.065 16.2591 99.6096 16.9712C99.1545 17.6874 98.929 18.3312 98.929 18.9106C98.929 19.0031 98.9499 19.0916 98.9917 19.1721C99.0334 19.2566 99.1002 19.3451 99.1962 19.4336V19.3692C99.1962 19.0956 99.2839 18.8743 99.4551 18.7054C99.6304 18.5364 99.86 18.4559 100.144 18.4559C100.457 18.4559 100.72 18.5766 100.937 18.818C101.154 19.0594 101.259 19.3531 101.259 19.7032C101.259 20.0935 101.113 20.4154 100.82 20.6729C100.528 20.9304 100.161 21.0631 99.7098 21.0631C99.1628 21.0631 98.7203 20.8941 98.3863 20.5602C98.0523 20.2262 97.8853 19.7877 97.8853 19.2405C97.8853 19.0554 97.9104 18.8462 97.9605 18.6128C98.0106 18.3794 98.0941 18.0898 98.211 17.7437L96.8666 15.0238L96.5034 20.0492C96.4992 20.0975 96.4951 20.1659 96.4951 20.2504C96.4784 20.5562 96.47 20.7654 96.47 20.874C96.47 21.208 96.5076 21.5017 96.5827 21.7552C96.6579 22.0087 96.779 22.2501 96.9501 22.4834H93.3889L93.3973 22.4875Z" fill="white"/>
<path d="M113.403 22.4875C113.616 22.23 113.771 21.9362 113.863 21.6063C113.955 21.2764 114 20.8378 114 20.2866V17.615L111.8 13.173C111.487 12.5373 111.195 12.0303 110.928 11.6561C110.661 11.282 110.381 10.9923 110.097 10.7871H114.28C114.147 10.94 114.051 11.0848 113.992 11.2337C113.934 11.3785 113.904 11.5395 113.904 11.7205C113.904 11.8613 113.921 12.0022 113.959 12.147C113.996 12.2919 114.059 12.4568 114.147 12.6459L115.382 15.2532L116.501 12.9477C116.597 12.7465 116.664 12.5856 116.702 12.4568C116.739 12.3281 116.76 12.2194 116.76 12.1229C116.76 11.9056 116.685 11.7245 116.53 11.5797C116.376 11.4349 116.192 11.3624 115.971 11.3624C115.796 11.3624 115.65 11.4147 115.524 11.5153C115.399 11.6159 115.316 11.7648 115.265 11.9539C115.336 11.9177 115.399 11.8895 115.445 11.8774C115.491 11.8654 115.541 11.8573 115.591 11.8573C115.766 11.8573 115.917 11.9217 116.05 12.0505C116.184 12.1792 116.247 12.3361 116.247 12.5212C116.247 12.7385 116.167 12.9195 116.009 13.0644C115.85 13.2092 115.65 13.2816 115.416 13.2816C115.182 13.2816 114.994 13.2012 114.84 13.0362C114.685 12.8712 114.61 12.666 114.61 12.4246C114.61 11.9338 114.844 11.5113 115.311 11.1613C115.779 10.8112 116.359 10.6342 117.052 10.6342C117.153 10.6342 117.562 10.6583 118.28 10.7066C118.998 10.7549 119.67 10.783 120.296 10.7951C119.82 11.3021 119.382 11.9539 118.985 12.7546L118.91 12.8994L116.468 17.9409V20.7091C116.468 21.0672 116.518 21.3931 116.622 21.6948C116.727 21.9966 116.877 22.2662 117.073 22.4955H113.412L113.403 22.4875Z" fill="white"/>
<path d="M72.961 41.2974C73.1781 41.0399 73.3367 40.7422 73.4327 40.4123C73.5288 40.0823 73.5747 39.6438 73.5747 39.0966V36.0306H72.4892V34.5741H73.5747V31.3513C73.5747 31.0334 73.5204 30.7236 73.416 30.4259C73.3117 30.1281 73.1572 29.8505 72.961 29.597H76.1715C76.1214 30.0557 76.0838 30.6029 76.0588 31.2426C76.0337 31.8824 76.0212 32.6106 76.0212 33.4234V34.5741H78.0711V36.0306H76.0212C76.0212 36.1272 76.0212 36.2761 76.0295 36.4772C76.0462 37.7608 76.0838 38.6459 76.1464 39.1328C76.2174 39.1368 76.3218 39.1448 76.4554 39.1569C76.9522 39.2052 77.2904 39.2293 77.4615 39.2293C78.7725 39.2293 79.5657 39.0845 79.8454 38.7948C80.1251 38.5051 80.2671 37.8815 80.2671 36.9198C80.2671 35.9582 80.217 35.0408 80.1168 34.2241C80.0166 33.4113 79.883 32.7716 79.7118 32.3129C79.6158 32.0473 79.478 31.8663 79.2985 31.7657C79.119 31.6651 78.7265 31.6168 78.1128 31.6168C77.6995 31.6168 77.4156 31.6812 77.2611 31.81C77.1067 31.9387 77.0315 32.1761 77.0315 32.5141C77.0315 32.6589 77.0524 32.7837 77.09 32.8842C77.1275 32.9848 77.1902 33.0653 77.2737 33.1216C77.2945 32.8883 77.378 32.7072 77.5158 32.5744C77.6578 32.4417 77.8373 32.3773 78.0627 32.3773C78.3049 32.3773 78.5053 32.4618 78.6639 32.6308C78.8226 32.7997 78.9019 33.017 78.9019 33.2745C78.9019 33.5159 78.8142 33.7252 78.6347 33.8941C78.4552 34.0631 78.2297 34.1476 77.9625 34.1476C77.5158 34.1476 77.1568 33.9585 76.8896 33.5803C76.6224 33.2021 76.4888 32.6831 76.4888 32.0272C76.4888 31.7094 76.5096 31.3392 76.5556 30.9127C76.6015 30.4902 76.6683 30.0477 76.756 29.589C76.8186 29.585 76.8854 29.5809 76.9605 29.5769C77.0357 29.5769 77.1484 29.5729 77.2987 29.5729C77.4198 29.5729 77.5951 29.5729 77.8164 29.5809C78.0377 29.585 78.1963 29.589 78.2923 29.589H78.6806C79.7035 29.589 80.384 29.6493 80.7221 29.77C81.0603 29.8907 81.3275 30.1161 81.5279 30.4379C81.8911 31.0214 82.1792 31.8703 82.3879 32.9848C82.5967 34.0993 82.7011 35.3587 82.7011 36.771C82.7011 38.7023 82.4506 39.9455 81.9454 40.4967C81.4402 41.048 80.4591 41.3256 78.9979 41.3256C78.9812 41.3256 78.5512 41.3135 77.7037 41.2934C76.8562 41.2733 76.0254 41.2612 75.1987 41.2612C74.9524 41.2612 74.4472 41.2652 73.6874 41.2773C73.3701 41.2813 73.1238 41.2894 72.9484 41.2934L72.961 41.2974Z" fill="white"/>
<path d="M89.0804 29.5085H90.9549C91.9402 29.5085 92.5831 29.5648 92.8795 29.6815C93.176 29.7982 93.3847 30.0074 93.5016 30.3172C93.6143 30.6472 93.7396 31.641 93.8815 33.3027C94.0235 34.9644 94.0903 36.7589 94.0903 38.6862C94.0903 39.7926 93.894 40.5169 93.4974 40.8589C93.1008 41.2009 91.9611 41.3739 90.074 41.3739H89.3851C87.8154 41.3739 86.7633 41.3497 86.2289 41.3014C85.6903 41.2532 85.3104 41.1646 85.085 41.0439C84.7844 40.883 84.5673 40.6295 84.4378 40.2915C84.3084 39.9536 84.2458 39.4184 84.2458 38.6902C84.2458 36.5577 84.3168 34.6586 84.4587 32.9969C84.6007 31.3312 84.7551 30.3695 84.918 30.112C85.0474 29.8867 85.2645 29.7298 85.5734 29.6413C85.8824 29.5568 86.4376 29.5125 87.235 29.5125H88.1577C88.2245 29.5246 88.2871 29.5286 88.3414 29.5286C88.3873 29.5286 88.4207 29.5286 88.4499 29.5286C88.4792 29.5286 88.5084 29.5206 88.5418 29.5166L87.9197 31.6209H87.6859C87.473 31.6209 87.3144 31.6732 87.21 31.7737C87.1056 31.8743 87.0388 32.0473 87.0138 32.2928C86.9303 33.1458 86.8635 34.047 86.8217 34.9926C86.7758 35.9381 86.7549 36.8716 86.7549 37.7889C86.7549 38.3603 86.8593 38.7143 87.0639 38.8471C87.2726 38.9799 87.8989 39.0443 88.9551 39.0443H89.6106C90.4748 39.0443 91.0092 38.9799 91.2179 38.8511C91.4267 38.7224 91.531 38.3482 91.531 37.7245C91.531 36.4933 91.4976 35.3305 91.4308 34.2361C91.364 33.1417 91.3014 32.4537 91.2471 32.1721C91.197 31.9548 91.1135 31.81 90.9966 31.7335C90.8798 31.6571 90.5917 31.6209 90.1324 31.6209H88.8215C88.5543 32.329 88.3581 32.9205 88.2328 33.4033C88.1076 33.8821 88.0491 34.2804 88.0491 34.5942C88.0491 34.6747 88.0617 34.7552 88.0825 34.8356C88.1034 34.9161 88.1452 35.0046 88.1994 35.1012C88.2788 34.9403 88.3998 34.8115 88.5668 34.7149C88.7338 34.6224 88.9217 34.5741 89.1346 34.5741C89.4477 34.5741 89.7149 34.6868 89.9362 34.9081C90.1575 35.1334 90.266 35.411 90.266 35.745C90.266 36.1111 90.1241 36.4129 89.836 36.6503C89.5521 36.8876 89.1889 37.0084 88.7505 37.0084C88.3122 37.0084 87.9364 36.8555 87.6442 36.5537C87.3561 36.2519 87.21 35.8657 87.21 35.3949C87.21 34.9523 87.3185 34.3689 87.5315 33.6447C87.7486 32.9205 88.2621 31.5444 89.072 29.5085H89.0804ZM86.5003 28.913L88.1452 26.6317H90.1617L91.8233 28.913H91.0175L89.1597 28.0077L87.2851 28.913H86.4961H86.5003ZM87.5774 26.4587H86.9219C87.0513 25.7747 87.2643 25.2637 87.569 24.9338C87.8738 24.6038 88.2704 24.4348 88.7631 24.4348C88.8925 24.4348 89.0845 24.463 89.3434 24.5234C89.3642 24.5274 89.3851 24.5354 89.4018 24.5395L90.3746 24.7809C90.4414 24.797 90.504 24.809 90.5625 24.8171C90.6209 24.8251 90.671 24.8291 90.7169 24.8291C90.9131 24.8291 91.0718 24.7768 91.1929 24.6763C91.3139 24.5757 91.4141 24.4067 91.4893 24.1733H92.1448C92.0279 24.8251 91.8108 25.324 91.4935 25.662C91.1762 26.004 90.7754 26.173 90.2869 26.173C90.1992 26.173 90.1074 26.169 90.0197 26.1569C89.932 26.1448 89.8485 26.1287 89.7776 26.1086L88.8382 25.8672C88.6963 25.835 88.5919 25.8109 88.5167 25.7988C88.4416 25.7867 88.3873 25.7787 88.3539 25.7787C88.1577 25.7787 87.9949 25.835 87.8613 25.9477C87.7277 26.0603 87.6358 26.2293 87.5816 26.4587H87.5774Z" fill="white"/>
<path d="M99.931 41.2974C100.194 41.0439 100.411 40.6255 100.578 40.0421C100.745 39.4587 100.879 38.666 100.983 37.6642L101.447 32.9768L101.455 32.9526C101.534 32.0554 101.572 31.4841 101.572 31.2346C101.572 30.9047 101.509 30.619 101.388 30.3736C101.263 30.1281 101.05 29.8666 100.741 29.593H104.085L105.96 33.8338L107.521 30.9369C107.667 30.6834 107.792 30.446 107.901 30.2247C108.005 30.0034 108.101 29.7942 108.176 29.593H111.166C110.932 29.9229 110.761 30.2287 110.656 30.5104C110.552 30.792 110.502 31.1421 110.502 31.5525V31.6329C110.502 31.9548 110.51 32.3169 110.531 32.7193C110.552 33.1176 110.581 33.5441 110.619 33.9907L110.894 37.0566C111.024 38.4287 111.162 39.4225 111.316 40.0461C111.466 40.6698 111.658 41.0882 111.896 41.2974H108.243C108.435 41.0077 108.569 40.7341 108.648 40.4807C108.728 40.2272 108.765 39.9375 108.765 39.6076C108.765 39.4828 108.757 39.3259 108.744 39.1328C108.732 38.9396 108.711 38.6902 108.682 38.3844L108.16 33.4717C107.271 34.2965 106.598 35.069 106.143 35.7812C105.688 36.4974 105.463 37.1411 105.463 37.7205C105.463 37.8131 105.484 37.9016 105.525 37.982C105.567 38.0665 105.634 38.1551 105.73 38.2436V38.1792C105.73 37.9056 105.818 37.6843 105.989 37.5153C106.164 37.3463 106.394 37.2659 106.678 37.2659C106.991 37.2659 107.254 37.3866 107.471 37.628C107.688 37.8694 107.792 38.1631 107.792 38.5132C107.792 38.9034 107.646 39.2253 107.354 39.4828C107.062 39.7403 106.694 39.8731 106.244 39.8731C105.697 39.8731 105.254 39.7041 104.92 39.3702C104.586 39.0362 104.419 38.5976 104.419 38.0504C104.419 37.8654 104.444 37.6561 104.494 37.4228C104.544 37.1894 104.628 36.8997 104.745 36.5537L103.4 33.8338L103.037 38.8592C103.033 38.9075 103.029 38.9759 103.029 39.0604C103.012 39.3661 103.004 39.5754 103.004 39.684C103.004 40.0179 103.041 40.3117 103.116 40.5651C103.192 40.8186 103.313 41.06 103.484 41.2934H99.9227L99.931 41.2974Z" fill="white"/>
<path d="M112.623 41.2974C112.84 41.0399 112.999 40.7462 113.09 40.4163C113.182 40.0864 113.228 39.6478 113.228 39.0966V31.3513C113.228 31.0173 113.178 30.6955 113.074 30.3937C112.969 30.0879 112.819 29.8223 112.623 29.597H116.293C116.075 29.8545 115.917 30.1402 115.825 30.446C115.733 30.7518 115.687 31.2024 115.687 31.7979V39.511C115.687 39.8691 115.737 40.195 115.837 40.4968C115.938 40.7985 116.088 41.0681 116.293 41.2974H112.623Z" fill="white"/>
<path d="M117.269 41.2974C117.487 41.0399 117.645 40.7462 117.737 40.4163C117.829 40.0864 117.875 39.6478 117.875 39.0966V31.3513C117.875 31.0173 117.825 30.6955 117.72 30.3937C117.616 30.0879 117.466 29.8223 117.269 29.597H120.384L123.962 35.2863V31.3513C123.962 31.0173 123.912 30.6955 123.807 30.3937C123.703 30.0879 123.553 29.8223 123.357 29.597H126.951C126.738 29.8545 126.584 30.1402 126.492 30.446C126.4 30.7518 126.354 31.2024 126.354 31.7979V39.511C126.354 39.8691 126.404 40.195 126.504 40.4968C126.605 40.7985 126.755 41.0681 126.951 41.2974H123.878C123.908 41.2492 123.928 41.2009 123.941 41.1526C123.954 41.1043 123.962 41.0359 123.962 40.9514V39.5593L120.317 33.9746V39.0966C120.317 39.1609 120.317 39.2414 120.326 39.334C120.33 39.4265 120.334 39.4868 120.334 39.507C120.334 39.8651 120.384 40.191 120.484 40.4927C120.584 40.7945 120.735 41.0641 120.939 41.2934H117.269V41.2974Z" fill="white"/>
<path d="M128.867 41.2974C129.08 41.0399 129.235 40.7462 129.331 40.4163C129.427 40.0863 129.473 39.6478 129.473 39.0966V34.888C129.206 34.9041 128.98 34.9765 128.801 35.1093C128.621 35.242 128.517 35.403 128.492 35.5921C128.521 35.5881 128.546 35.584 128.571 35.58C128.596 35.58 128.629 35.58 128.675 35.58C128.855 35.58 129.005 35.6524 129.13 35.8013C129.251 35.9502 129.314 36.1312 129.314 36.3485C129.314 36.6382 129.214 36.8796 129.009 37.0727C128.805 37.2659 128.546 37.3584 128.233 37.3584C127.936 37.3584 127.686 37.2538 127.477 37.0446C127.268 36.8353 127.168 36.5738 127.168 36.26C127.168 35.8295 127.381 35.4191 127.803 35.0288C128.224 34.6385 128.784 34.3488 129.477 34.1557V31.3553C129.477 31.0173 129.418 30.6874 129.306 30.3736C129.189 30.0597 129.047 29.7982 128.872 29.6011H132.533C132.32 29.8586 132.166 30.1442 132.07 30.45C131.974 30.7558 131.928 31.2064 131.928 31.8019L131.936 33.6809C132.019 33.6769 132.107 33.6729 132.195 33.6688C132.282 33.6688 132.391 33.6648 132.512 33.6648C133.18 33.6648 133.781 33.7493 134.32 33.9183C134.858 34.0873 135.293 34.3287 135.631 34.6425V31.3553C135.631 31.0334 135.577 30.7156 135.468 30.4098C135.359 30.104 135.205 29.8344 135.009 29.6011H138.67C138.47 29.8505 138.319 30.1281 138.219 30.4379C138.123 30.7478 138.073 31.1018 138.073 31.4961V39.1368C138.073 39.6639 138.119 40.0944 138.211 40.4243C138.303 40.7543 138.457 41.048 138.67 41.3055H135.009C135.226 41.0399 135.384 40.7502 135.485 40.4364C135.581 40.1226 135.631 39.676 135.631 39.1046V38.2556C135.631 37.4147 135.263 36.6543 134.529 35.9783C133.794 35.3024 132.925 34.9322 131.923 34.8719V39.519C131.923 39.8771 131.974 40.203 132.078 40.5048C132.182 40.8066 132.333 41.0761 132.529 41.3055H128.867V41.2974Z" fill="white"/>
<path d="M144.966 41.2974C145.183 41.0399 145.342 40.7422 145.438 40.4123C145.534 40.0823 145.58 39.6438 145.58 39.0966V36.0306H144.494V34.5741H145.58V31.3513C145.58 31.0334 145.525 30.7236 145.421 30.4259C145.317 30.1281 145.162 29.8505 144.966 29.597H148.176C148.126 30.0557 148.089 30.6029 148.064 31.2426C148.039 31.8824 148.026 32.6106 148.026 33.4234V34.5741H150.076V36.0306H148.026C148.026 36.1272 148.026 36.2761 148.034 36.4772C148.051 37.7608 148.089 38.6459 148.151 39.1328C148.222 39.1368 148.327 39.1448 148.46 39.1569C148.957 39.2052 149.295 39.2293 149.466 39.2293C150.777 39.2293 151.571 39.0845 151.85 38.7948C152.13 38.5051 152.272 37.8815 152.272 36.9198C152.272 35.9582 152.222 35.0408 152.122 34.2241C152.022 33.4113 151.888 32.7716 151.717 32.3129C151.621 32.0473 151.483 31.8663 151.303 31.7657C151.124 31.6651 150.731 31.6168 150.118 31.6168C149.704 31.6168 149.421 31.6812 149.266 31.81C149.112 31.9387 149.036 32.1761 149.036 32.5141C149.036 32.6589 149.057 32.7837 149.095 32.8842C149.132 32.9848 149.195 33.0653 149.279 33.1216C149.299 32.8883 149.383 32.7072 149.521 32.5744C149.663 32.4417 149.842 32.3773 150.068 32.3773C150.31 32.3773 150.51 32.4618 150.669 32.6308C150.828 32.7997 150.907 33.017 150.907 33.2745C150.907 33.5159 150.819 33.7252 150.64 33.8941C150.46 34.0631 150.235 34.1476 149.967 34.1476C149.521 34.1476 149.162 33.9585 148.895 33.5803C148.627 33.2021 148.494 32.6831 148.494 32.0272C148.494 31.7094 148.515 31.3392 148.561 30.9127C148.606 30.4902 148.673 30.0477 148.761 29.589C148.824 29.585 148.89 29.5809 148.965 29.5769C149.041 29.5769 149.153 29.5729 149.304 29.5729C149.425 29.5729 149.6 29.5729 149.821 29.5809C150.043 29.585 150.201 29.589 150.297 29.589H150.686C151.708 29.589 152.389 29.6493 152.727 29.77C153.065 29.8907 153.332 30.1161 153.533 30.4379C153.896 31.0214 154.184 31.8703 154.393 32.9848C154.602 34.0993 154.706 35.3587 154.706 36.771C154.706 38.7023 154.456 39.9455 153.95 40.4967C153.445 41.048 152.464 41.3256 151.003 41.3256C150.986 41.3256 150.556 41.3135 149.709 41.2934C148.861 41.2733 148.03 41.2612 147.204 41.2612C146.957 41.2612 146.452 41.2652 145.692 41.2773C145.375 41.2813 145.129 41.2894 144.953 41.2934L144.966 41.2974Z" fill="white"/>
<path d="M164.621 31.0093V39.0966C164.621 39.1609 164.621 39.2414 164.634 39.334C164.642 39.4265 164.647 39.4868 164.647 39.507C164.647 39.8651 164.697 40.191 164.797 40.4927C164.897 40.7945 165.047 41.0641 165.244 41.2934H162.421V40.4847C161.899 40.7583 161.311 40.9755 160.655 41.1365C159.996 41.2974 159.365 41.3739 158.76 41.3739C157.937 41.3739 157.349 41.1807 157.002 40.7945C156.652 40.4082 156.476 39.7041 156.476 38.6862V31.3432C156.476 31.0093 156.422 30.6874 156.318 30.3856C156.213 30.0798 156.063 29.8143 155.871 29.589H158.935V37.9901C158.935 38.4689 159.031 38.8109 159.227 39.0121C159.424 39.2132 159.754 39.3138 160.217 39.3138C160.614 39.3138 160.985 39.2776 161.332 39.2012C161.674 39.1247 161.97 39.0161 162.217 38.8712V32.5744C162.217 31.7939 162.133 31.2547 161.97 30.961C161.803 30.6673 161.528 30.5184 161.135 30.5184C160.856 30.5184 160.618 30.6069 160.426 30.784C160.234 30.961 160.138 31.1662 160.138 31.3915C160.138 31.4197 160.138 31.4559 160.15 31.5042C160.158 31.5525 160.171 31.6048 160.188 31.6571C160.255 31.5162 160.351 31.4116 160.467 31.3473C160.589 31.2789 160.735 31.2467 160.91 31.2467C161.169 31.2467 161.378 31.3271 161.545 31.4881C161.712 31.649 161.791 31.8623 161.791 32.1198C161.791 32.4256 161.691 32.671 161.486 32.848C161.282 33.0251 161.01 33.1136 160.668 33.1136C160.325 33.1136 160.05 32.9969 159.837 32.7555C159.624 32.5181 159.52 32.2083 159.52 31.8261C159.52 31.1139 159.799 30.5546 160.359 30.1563C160.918 29.7539 161.699 29.5528 162.701 29.5528C162.968 29.5528 163.269 29.5689 163.599 29.6011C163.928 29.6332 164.12 29.6493 164.179 29.6493C164.229 29.6493 164.304 29.6413 164.4 29.6292C164.496 29.6171 164.571 29.6051 164.621 29.6011V30.3776C164.868 30.1201 165.052 29.8907 165.168 29.6976C165.202 29.6453 165.227 29.585 165.244 29.5206C165.26 29.4562 165.269 29.3757 165.269 29.2872C165.152 29.3677 165.014 29.4119 164.859 29.4119C164.705 29.4119 164.555 29.3757 164.4 29.2953C164.183 29.1786 164.041 28.9975 163.979 28.7561C163.916 28.5147 163.958 28.2813 164.095 28.048C164.246 27.7905 164.471 27.6335 164.768 27.5772C165.064 27.5249 165.365 27.5772 165.665 27.7462C165.978 27.9192 166.175 28.1647 166.25 28.4825C166.325 28.8004 166.266 29.1263 166.07 29.4522C165.891 29.758 165.578 30.1241 165.131 30.5466C165.001 30.6713 164.83 30.8202 164.617 31.0012L164.621 31.0093Z" fill="white"/>
<path d="M175.911 30.6834C175.998 31.1783 176.098 32.0554 176.203 33.3067C176.345 34.9684 176.411 36.7629 176.411 38.6902C176.411 39.7967 176.215 40.5209 175.819 40.8629C175.422 41.2049 174.282 41.3779 172.395 41.3779H171.706C170.137 41.3779 169.084 41.3538 168.55 41.3055C168.012 41.2572 167.632 41.1687 167.406 41.048C167.106 40.887 166.888 40.6335 166.759 40.2956C166.63 39.9576 166.567 39.4225 166.567 38.6942C166.567 36.5617 166.638 34.6626 166.78 33.0009C166.922 31.3352 167.076 30.3736 167.239 30.1161C167.369 29.8907 167.586 29.7338 167.895 29.6453C168.204 29.5608 168.759 29.5166 169.556 29.5166H170.479C170.546 29.5286 170.608 29.5327 170.663 29.5327C170.709 29.5327 170.742 29.5327 170.771 29.5327C170.8 29.5327 170.83 29.5246 170.863 29.5206L170.241 31.6249H170.007C169.794 31.6249 169.636 31.6772 169.531 31.7778C169.427 31.8784 169.36 32.0514 169.335 32.2968C169.251 33.1498 169.185 34.0511 169.143 34.9966C169.097 35.9421 169.076 36.8756 169.076 37.7929C169.076 38.3643 169.181 38.7184 169.385 38.8511C169.594 38.9839 170.22 39.0483 171.276 39.0483H171.932C172.796 39.0483 173.33 38.9839 173.539 38.8552C173.748 38.7264 173.852 38.3522 173.852 37.7286C173.852 36.4974 173.819 35.3346 173.752 34.2402C173.685 33.1458 173.623 32.4578 173.568 32.1761C173.518 31.9588 173.435 31.814 173.318 31.7375C173.201 31.6611 172.913 31.6249 172.454 31.6249H171.143C170.876 32.333 170.679 32.9245 170.554 33.4073C170.429 33.8861 170.37 34.2844 170.37 34.5983C170.37 34.6787 170.383 34.7592 170.404 34.8397C170.425 34.9201 170.466 35.0087 170.521 35.1052C170.6 34.9443 170.721 34.8155 170.888 34.719C171.055 34.6264 171.243 34.5781 171.456 34.5781C171.769 34.5781 172.036 34.6908 172.257 34.9121C172.479 35.1374 172.587 35.415 172.587 35.749C172.587 36.1151 172.445 36.4169 172.157 36.6543C171.873 36.8917 171.51 37.0124 171.072 37.0124C170.633 37.0124 170.258 36.8595 169.965 36.5577C169.677 36.256 169.531 35.8697 169.531 35.3989C169.531 34.9564 169.64 34.3729 169.853 33.6487C170.07 32.9245 170.583 31.5484 171.393 29.5125H173.268C174.253 29.5125 174.896 29.5689 175.192 29.6815C175.435 29.7781 175.614 29.939 175.739 30.1603C175.881 29.9913 175.99 29.8425 176.073 29.7057C176.107 29.6534 176.132 29.593 176.148 29.5286C176.165 29.4643 176.174 29.3838 176.174 29.2953C176.057 29.3757 175.919 29.42 175.764 29.42C175.61 29.42 175.46 29.3838 175.305 29.3033C175.088 29.1866 174.946 29.0056 174.883 28.7642C174.821 28.5227 174.863 28.2894 175 28.056C175.151 27.7985 175.376 27.6416 175.673 27.5853C175.969 27.533 176.27 27.5853 176.57 27.7543C176.883 27.9273 177.079 28.1727 177.155 28.4906C177.23 28.8084 177.171 29.1343 176.975 29.4602C176.796 29.766 176.482 30.1322 176.036 30.5546C175.99 30.5989 175.944 30.6391 175.894 30.6834H175.911ZM172.024 28.913L169.64 28.0721C169.406 27.9916 169.218 27.875 169.084 27.7301C168.951 27.5812 168.884 27.4203 168.884 27.2392C168.884 27.03 168.963 26.8449 169.122 26.692C169.281 26.5392 169.469 26.4627 169.69 26.4627C169.832 26.4627 169.965 26.4949 170.103 26.5593C170.241 26.6236 170.395 26.7363 170.583 26.8892L172.959 28.913H172.028H172.024Z" fill="white"/>
<path d="M177.647 41.2974C177.864 41.0399 178.023 40.7462 178.115 40.4163C178.207 40.0864 178.253 39.6478 178.253 39.0966V31.3513C178.253 31.0173 178.202 30.6955 178.098 30.3937C177.994 30.0879 177.843 29.8223 177.647 29.597H180.762L184.34 35.2863V31.3513C184.34 31.0173 184.29 30.6955 184.185 30.3937C184.081 30.0879 183.93 29.8223 183.734 29.597H187.329C187.116 29.8545 186.961 30.1402 186.87 30.446C186.778 30.7518 186.732 31.2024 186.732 31.7979V39.511C186.732 39.8691 186.782 40.195 186.882 40.4968C186.982 40.7985 187.133 41.0681 187.329 41.2974H184.256C184.285 41.2492 184.306 41.2009 184.319 41.1526C184.331 41.1043 184.34 41.0359 184.34 40.9514V39.5593L180.695 33.9746V39.0966C180.695 39.1609 180.695 39.2414 180.703 39.334C180.707 39.4265 180.712 39.4868 180.712 39.507C180.712 39.8651 180.762 40.191 180.862 40.4927C180.962 40.7945 181.112 41.0641 181.317 41.2934H177.647V41.2974Z" fill="white"/>
<path d="M198 34.3166C197.858 34.6144 197.758 34.9322 197.699 35.2742C197.637 35.6162 197.608 36.1031 197.608 36.7348V41.2773C197.294 41.2652 197.036 41.2572 196.831 41.2532C196.626 41.2491 196.426 41.2451 196.23 41.2451C195.883 41.2451 195.286 41.2572 194.443 41.2854C193.6 41.3135 192.932 41.3256 192.431 41.3256C190.903 41.3256 189.901 41.1123 189.425 40.6859C188.949 40.2594 188.711 39.346 188.711 37.9418C188.711 36.0266 188.769 34.377 188.882 32.9969C188.995 31.6168 189.137 30.784 189.299 30.5023C189.5 30.1563 189.83 29.9109 190.289 29.77C190.748 29.6252 191.529 29.5568 192.631 29.5568C193.291 29.5568 194.03 29.5648 194.84 29.5809C195.65 29.597 196.134 29.6051 196.284 29.6051C196.418 29.6051 196.572 29.597 196.748 29.5809C196.923 29.5648 197.14 29.5367 197.403 29.4924V32.494C197.136 32.1359 196.835 31.8904 196.51 31.7536C196.184 31.6168 195.583 31.5484 194.714 31.5484H193.086C192.606 31.5484 192.247 31.5927 192.009 31.6772C191.775 31.7617 191.621 31.9065 191.546 32.1077C191.462 32.325 191.383 32.8561 191.312 33.7091C191.241 34.5621 191.203 35.5036 191.203 36.5336V36.8474C191.203 38.0384 191.328 38.7546 191.587 38.992C191.842 39.2293 192.418 39.35 193.32 39.35C193.633 39.35 193.959 39.338 194.293 39.3179C194.627 39.2977 194.977 39.2656 195.332 39.2213V36.9319C195.332 36.2157 195.215 35.7088 194.986 35.4191C194.752 35.1294 194.372 34.9805 193.838 34.9805C193.449 34.9805 193.149 35.0409 192.927 35.1616C192.706 35.2823 192.598 35.4472 192.598 35.6605C192.598 35.6967 192.606 35.7409 192.627 35.7892C192.648 35.8375 192.685 35.9019 192.74 35.9824C192.823 35.8254 192.919 35.7168 193.019 35.6524C193.124 35.5881 193.266 35.5559 193.445 35.5559C193.737 35.5559 193.967 35.6484 194.142 35.8335C194.318 36.0186 194.401 36.264 194.401 36.5658C194.401 36.9721 194.28 37.294 194.038 37.5314C193.796 37.7728 193.479 37.8935 193.082 37.8935C192.623 37.8935 192.259 37.7608 191.992 37.4992C191.725 37.2377 191.592 36.8836 191.592 36.433C191.592 35.7208 191.905 35.1897 192.527 34.8397C193.153 34.4896 194.092 34.3126 195.345 34.3126H197.992L198 34.3166Z" fill="white"/>
<path d="M5.65704 43.0034C5.65704 43.0034 5.81569 43.0798 6.08706 43.2086C6.229 43.1804 6.36678 43.1563 6.50037 43.1482L6.69242 43.1362C7.02224 43.112 7.33536 43.0879 7.661 43.0879C8.98863 43.0879 10.3204 43.4782 12.8713 45.4256L12.9131 45.4577C13.3013 45.4819 13.6478 45.4658 13.9359 45.3893C7.06816 38.4085 4.40039 29.9149 4.22087 25.481C6.78844 36.7106 13.1636 42.0981 13.1636 42.0981C13.1636 42.0981 15.3637 35.8335 12.3369 29.8907C9.31427 23.944 4.67593 22.073 2.27117 20.8338C1.37774 21.896 -0.751471 30.5667 0.279736 35.3788C1.31094 40.191 5.66121 43.0114 5.66121 43.0114L5.65704 43.0034Z" fill="white"/>
<path d="M2.29205 45.7635C2.29205 45.7635 4.83458 43.6874 6.5296 43.5707C8.22462 43.454 9.34768 43.2649 12.6208 45.7635C12.2534 45.8561 8.52104 46.9183 5.17693 46.2826C6.87195 46.9907 9.00116 47.4856 13.7689 45.9969C13.652 46.9867 11.5479 49.5376 8.57114 49.5376C5.59442 49.5376 2.29205 45.7635 2.29205 45.7635Z" fill="white"/>
<path d="M56.9961 41.8245C56.9961 41.8245 56.8166 41.9211 56.5034 42.082C56.3406 42.0458 56.182 42.0176 56.0275 42.0015L55.8104 41.9854C55.4263 41.9573 55.0673 41.9291 54.6957 41.9291C53.1718 41.9291 51.6355 42.42 48.7047 44.8743L48.6588 44.9146C48.212 44.9468 47.8112 44.9266 47.4814 44.8301C55.3804 36.0226 58.449 25.312 58.6577 19.7193C55.706 33.8821 48.3665 40.6818 48.3665 40.6818C48.3665 40.6818 45.8365 32.7837 49.3142 25.2838C52.7919 17.788 58.1275 15.4222 60.8955 13.861C61.9225 15.2009 64.3732 26.1328 63.1875 32.2043C62.0018 38.2717 56.9961 41.8285 56.9961 41.8285V41.8245Z" fill="white"/>
<path d="M60.8704 45.3049C60.8704 45.3049 57.9438 42.6855 55.9941 42.5367C54.0444 42.3878 52.7544 42.1504 48.9844 45.3049C49.4061 45.4215 53.7021 46.7614 57.5514 45.9607C55.6017 46.8539 53.151 47.4776 47.6693 45.6026C47.7987 46.8539 50.2244 50.0647 53.6478 50.0647C57.0712 50.0647 60.8704 45.3049 60.8704 45.3049Z" fill="white"/>
<path d="M45.4357 1.10647C44.4755 0.0442589 39.7328 0.820799 38.497 1.03405C37.2612 1.24729 33.6875 1.10647 33.2074 0.679976C32.8024 0.321882 31.1867 0.116682 29.8215 0.0362119V18.8381C29.8215 20.1498 29.1869 20.8056 27.9094 20.8056H20.2651C18.9917 20.8056 18.353 20.1498 18.353 18.8381V11.9499C18.353 10.6382 18.9876 9.98236 20.2651 9.98236H25.9973V12.9356H21.2211V17.8564H26.9533V9.28629H24.4985V7.09749H26.9533V0.337976C25.9847 0.583411 25.0078 0.865057 24.2688 0.820799C22.9621 0.748375 21.384 0.820799 20.6951 0.466729C20.0062 0.112659 18.4281 -0.382234 16.5035 0.466729C14.5788 1.31569 14.512 5.91458 14.512 5.91458C14.8544 8.32064 14.9254 19.7877 14.9254 24.5274C14.9254 29.2671 14.3743 39.177 14.512 45.2646C14.6498 51.3482 17.4679 51.9879 18.2903 51.996C19.1128 52.004 20.2484 51.6057 20.8997 51.489C24.0768 50.9297 32.5268 50.6843 33.7626 50.7527C34.9107 50.8171 38.7183 51.2154 40.1377 51.6097V39.6518H37.5994V47.5218H34.7312V29.5729H37.5994V36.6985H41.0938C42.3671 36.6985 43.0059 37.3544 43.0059 38.666V51.9678C43.5987 51.9276 44.1999 51.831 44.7468 51.6982C46.1914 51.3442 46.4669 46.8137 46.4669 46.8137C46.4669 46.8137 46.5337 13.692 46.8093 9.23398C47.0848 4.77592 46.3959 2.15661 45.4315 1.0944L45.4357 1.10647ZM34.0966 5.00526C34.0966 5.00526 34.9233 4.82018 35.203 4.80006C36.6308 4.7035 37.4825 5.23863 38.9896 5.23863C39.3487 5.23863 40.4342 5.00526 40.4342 5.00526V6.26462C40.4342 6.26462 39.3528 6.49799 38.9896 6.49799C37.4407 6.49799 36.1465 5.99505 35.203 6.05942C34.9233 6.07954 34.0966 6.26462 34.0966 6.26462V5.00526ZM34.0966 8.11142C34.0966 7.38719 34.4473 7.02507 35.1529 7.02507H39.3779C40.0835 7.02507 40.4342 7.38719 40.4342 8.11142V9.00464H38.8519V8.40514H35.6831V9.00464H34.0966V8.11142ZM31.5332 11.9499C31.5332 10.6382 32.1678 9.98236 33.4453 9.98236H41.0896C42.363 9.98236 43.0017 10.6382 43.0017 11.9499V18.8381C43.0017 20.1498 42.363 20.8056 41.0896 20.8056H33.4453C32.172 20.8056 31.5332 20.1498 31.5332 18.8381V11.9499ZM21.2211 47.5299H18.353V39.2454H21.2211V47.5299ZM21.2211 38.1873H18.353V36.7106H21.2211V38.1873ZM32.1177 47.5299H29.2495L29.237 39.6599H25.801V47.5299H22.9329V38.6741C22.9329 37.3624 23.5675 36.7066 24.845 36.7066H30.2056C31.4789 36.7066 32.1177 37.3624 32.1177 38.6741V47.5299ZM43.0059 34.0068H40.1419L40.1336 26.1328H32.1177V34.0068H29.2495V26.1328H21.2253V34.0068H18.3571V25.151C18.3571 23.8394 18.9917 23.1835 20.2693 23.1835H41.098C42.3713 23.1835 43.0101 23.8394 43.0101 25.151V34.0068H43.0059Z" fill="white"/>
<path d="M40.1335 12.9356H34.4014V17.8564H40.1335V12.9356Z" fill="white"/>
</g>
<defs>
<clipPath id="clip0_2004_29">
<rect width="198" height="52" fill="white"/>
</clipPath>
</defs>
</svg>
