<svg width="192" height="235" viewBox="0 0 192 235" fill="none" xmlns="http://www.w3.org/2000/svg">
<path d="M87.2234 20.62L13.3512 54.6936C8.60714 56.9246 6.16732 62.2656 7.7261 67.2684C15.8588 93.0941 43.7812 168.813 101.388 200.926C104.234 202.549 107.691 202.617 110.673 201.264C124.905 194.977 166.924 174.222 186.307 141.23C189.086 136.43 187.459 130.278 182.783 127.303C164.349 115.607 119.619 82.5475 101.659 26.9074C99.6936 20.8904 92.9841 17.8481 87.2912 20.5524L87.2234 20.62Z" fill="url(#paint0_linear_2004_24066)"/>
<g style="mix-blend-mode:multiply">
<path d="M63.3675 85.6574C64.3163 91.6068 69.8737 95.6631 75.8376 94.7843C81.8016 93.9054 85.868 88.294 84.987 82.3447C84.0381 76.3953 78.4808 72.3389 72.5168 73.2178C66.5528 74.0967 62.4864 79.708 63.3675 85.6574Z" fill="white"/>
<path d="M63.6386 85.6574C64.5196 91.4715 70.0092 95.3927 75.7699 94.5138C81.5983 93.6349 85.5291 88.1588 84.6481 82.4123C83.767 76.5981 78.2774 72.6769 72.5168 73.5558C66.7561 74.4347 62.7575 79.9108 63.6386 85.6574Z" fill="#FAEFF1"/>
<path d="M63.9096 85.6574C64.7907 91.2687 70.077 95.1223 75.7021 94.2434C81.3272 93.3645 85.1903 88.0912 84.3092 82.4799C83.4282 76.8685 78.1419 73.015 72.5168 73.8939C66.8916 74.7727 63.0286 80.046 63.9096 85.6574Z" fill="#F5DEE2"/>
<path d="M64.2485 85.5898C65.1296 91.0659 70.2125 94.7842 75.7021 93.973C81.1917 93.0941 84.9192 88.0236 84.1059 82.5475C83.2249 77.0714 78.1419 73.353 72.6524 74.1643C67.1628 74.9756 63.4353 80.1136 64.2485 85.5898Z" fill="#F0CED4"/>
<path d="M64.5196 85.5898C65.3329 90.9307 70.3481 94.5138 75.6343 93.7025C80.9884 92.8913 84.5803 87.8884 83.7671 82.6151C82.9538 77.2742 77.9386 73.691 72.6524 74.5023C67.3661 75.3136 63.7064 80.3165 64.5196 85.5898Z" fill="#EBBEC5"/>
<path d="M64.7907 85.5898C65.6039 90.7279 70.4158 94.2434 75.5665 93.4321C80.7172 92.6209 84.2414 87.8208 83.4281 82.6827C82.6149 77.5446 77.803 74.0291 72.6523 74.8404C67.5016 75.6516 63.9774 80.4517 64.7907 85.5898Z" fill="#E6AEB7"/>
<path d="M65.1296 85.5898C65.9429 90.5926 70.6192 93.973 75.6344 93.2293C80.6495 92.418 84.0382 87.7532 83.2927 82.7503C82.4794 77.7474 77.8031 74.3671 72.7879 75.1108C67.7727 75.8544 64.3841 80.5869 65.1296 85.5898Z" fill="#E29DA8"/>
<path d="M65.4007 85.5898C66.1462 90.3898 70.687 93.7025 75.5666 92.9589C80.3784 92.2152 83.6993 87.6856 82.9538 82.8179C82.2083 78.0179 77.6675 74.7051 72.7879 75.4488C67.9083 76.1925 64.6552 80.7221 65.4007 85.5898Z" fill="#DD8D9A"/>
<path d="M65.7395 85.5222C66.485 90.187 70.8224 93.3645 75.5665 92.6884C80.2428 91.9448 83.4281 87.618 82.7504 82.8855C82.0049 78.2207 77.6675 75.0432 72.9234 75.7192C68.1793 76.3953 65.0617 80.7897 65.7395 85.5222Z" fill="#D87D8B"/>
<path d="M66.0106 85.5222C66.6883 90.0518 70.958 93.0941 75.4987 92.418C80.0395 91.742 83.0893 87.4827 82.4115 82.9531C81.7338 78.4235 77.4641 75.3812 72.9234 76.0573C68.3826 76.7333 65.3328 80.9925 66.0106 85.5222Z" fill="#D36D7D"/>
<path d="M66.2817 85.5222C66.9594 89.849 71.0258 92.8237 75.431 92.1476C79.7685 91.4715 82.7505 87.4152 82.0727 83.0207C81.395 78.6939 77.3287 75.7192 72.9234 76.3953C68.5182 77.0714 65.604 81.1278 66.2817 85.5222Z" fill="#CE5C6E"/>
<path d="M66.6206 85.5222C67.2983 89.7138 71.2291 92.5532 75.431 91.9448C79.6329 91.2687 82.4794 87.3475 81.8694 83.1559C81.2595 78.9643 77.2609 76.1249 73.059 76.7333C68.8571 77.3418 66.0106 81.3306 66.6206 85.5222Z" fill="#C94C60"/>
</g>
<g style="mix-blend-mode:multiply">
<path opacity="0.09" d="M102.743 32.0455C100.778 26.0285 95.1528 19.4707 89.4599 22.1749L13.2157 58.8852C8.47157 61.0486 6.98057 64.3614 8.60711 69.3642C8.60711 69.3642 13.0801 81.6686 13.5545 83.2236C13.5545 83.2236 70.2125 88.1588 79.7007 82.0066C90.8154 74.7052 102.811 31.9779 102.811 31.9779L102.743 32.0455Z" fill="#FAF0EF"/>
<path opacity="0.18" d="M102.405 31.9779C100.507 26.0285 94.7462 19.8087 89.0533 22.4454L13.3513 58.8176C8.60717 60.981 7.04839 64.4966 8.60717 69.4994C8.60717 69.4994 13.0124 81.5334 13.4868 83.0883C13.4868 83.0883 70.077 88.0912 79.4974 81.8714C90.5443 74.6375 102.337 31.9779 102.337 31.9779H102.405Z" fill="#F5E0E0"/>
<path opacity="0.27" d="M101.998 31.8427C100.1 25.8933 94.2718 20.0791 88.5789 22.7158L13.4868 58.6824C8.74268 60.8458 7.11613 64.5642 8.67491 69.4995C8.67491 69.4995 12.9446 81.263 13.419 82.8179C13.419 82.8179 69.9414 87.8208 79.3618 81.6686C90.341 74.4347 101.93 31.9103 101.93 31.9103L101.998 31.8427Z" fill="#EFD1D0"/>
<path opacity="0.36" d="M101.659 31.775C99.7614 25.8933 93.8652 20.4171 88.2401 22.9862L13.6901 58.5472C9.01379 60.7106 7.2517 64.5642 8.81047 69.4994C8.81047 69.4994 13.0124 80.9249 13.4868 82.4799C13.4868 82.4799 69.9414 87.4827 79.2941 81.3982C90.2732 74.2319 101.659 31.775 101.659 31.775Z" fill="#EAC2C0"/>
<path opacity="0.45" d="M101.252 31.7074C99.3548 25.8257 93.3908 20.7552 87.7657 23.3242L13.8257 58.412C9.14939 60.5754 7.31953 64.6318 8.8783 69.4994C8.8783 69.4994 13.0124 80.6545 13.4868 82.2094C13.4868 82.2094 69.8737 87.2123 79.2263 81.1277C90.1377 73.9615 101.32 31.6398 101.32 31.6398L101.252 31.7074Z" fill="#E5B2B1"/>
<path opacity="0.55" d="M100.914 31.6398C99.0159 25.7581 92.9842 21.0932 87.359 23.6623L13.9612 58.3444C9.2849 60.5078 7.38727 64.6994 8.94604 69.6347C8.94604 69.6347 12.9446 80.5193 13.419 82.0743C13.419 82.0743 69.7381 87.1447 79.023 81.0602C89.8666 73.9615 100.846 31.7074 100.846 31.7074L100.914 31.6398Z" fill="#E0A3A1"/>
<path opacity="0.64" d="M100.507 31.5722C98.6093 25.7581 92.5098 21.3636 86.9524 23.9327L14.1645 58.2092C9.55599 60.3726 7.52281 64.767 9.08159 69.6346C9.08159 69.6346 13.0124 80.2489 13.4868 81.8038C13.4868 81.8038 69.7381 86.8743 78.9552 80.7897C89.7988 73.691 100.575 31.5722 100.575 31.5722H100.507Z" fill="#DB9392"/>
<path opacity="0.73" d="M100.168 31.5046C98.2704 25.6905 92.1031 21.7017 86.5457 24.2707L14.3 58.0739C9.6915 60.2374 7.59055 64.767 9.14932 69.6347C9.14932 69.6347 12.9446 79.9784 13.419 81.4658C13.419 81.4658 69.6026 86.5363 78.8196 80.5193C89.5955 73.4206 100.168 31.5046 100.168 31.5046Z" fill="#D68482"/>
<path opacity="0.82" d="M99.7615 31.437C97.8638 25.6228 91.6287 22.0397 86.0714 24.6088L14.4357 57.9387C9.82712 60.0345 7.6584 64.8346 9.21717 69.6346C9.21717 69.6346 12.9447 79.6404 13.4191 81.1954C13.4191 81.1954 69.5349 86.2658 78.6842 80.3165C89.3922 73.2854 99.7615 31.437 99.7615 31.437Z" fill="#D07572"/>
<path opacity="0.91" d="M99.4225 31.3694C97.5927 25.6228 91.222 22.3777 85.7324 24.8792L14.6389 57.8035C10.0304 59.8993 7.79386 64.9022 9.35263 69.7023C9.35263 69.7023 12.9446 79.4376 13.419 80.9925C13.419 80.9925 69.5348 86.063 78.6163 80.1136C89.3244 73.0826 99.4903 31.3694 99.4903 31.3694H99.4225Z" fill="#CB6563"/>
<path d="M99.0837 31.3018C97.2539 25.5552 90.8155 22.7158 85.3259 25.2172L14.7745 57.7359C10.2338 59.8317 7.86171 64.9698 9.42048 69.7699C9.42048 69.7699 12.9447 79.2348 13.4191 80.7221C13.4191 80.7221 69.4671 85.8602 78.4808 79.9108C89.1211 72.9474 99.0837 31.3018 99.0837 31.3018Z" fill="#C65653"/>
</g>
<path d="M101.591 27.0426C99.6258 21.0256 92.9164 17.9833 87.2234 20.6876L13.3512 54.6936C8.60714 56.9247 6.16732 62.2656 7.7261 67.2684C7.7261 67.2684 11.3858 77.2066 11.928 78.7615C11.928 78.7615 70.6191 84.1024 80.1073 77.8827C91.2898 70.5812 101.659 26.975 101.659 26.975L101.591 27.0426Z" fill="url(#paint1_linear_2004_24066)"/>
<mask id="mask0_2004_24066" style="mask-type:luminance" maskUnits="userSpaceOnUse" x="7" y="19" width="181" height="184">
<path d="M87.2234 20.62L13.3512 54.6936C8.60714 56.9246 6.16732 62.2656 7.7261 67.2684C15.8588 93.0941 43.7812 168.813 101.388 200.926C104.234 202.549 107.691 202.617 110.673 201.264C124.905 194.977 166.924 174.222 186.307 141.23C189.086 136.43 187.459 130.278 182.783 127.303C164.349 115.607 119.619 82.5475 101.659 26.9074C99.6936 20.8904 92.9841 17.8481 87.2912 20.5524L87.2234 20.62Z" fill="white"/>
</mask>
<g mask="url(#mask0_2004_24066)">
<g style="mix-blend-mode:multiply">
<path d="M86.3424 20.7552L12.7413 55.5725C7.99719 57.8035 5.62515 63.212 7.25169 68.2149C15.5877 93.973 44.3233 169.422 102.269 200.994C105.115 202.549 108.572 202.617 111.554 201.264C125.718 194.842 167.534 173.613 186.578 140.486C189.357 135.686 187.595 129.534 182.918 126.627C164.349 115.134 119.348 82.4799 100.778 27.0426C98.7448 21.0256 92.0353 18.1185 86.3424 20.8228V20.7552Z" fill="#C14F62"/>
<path d="M86.478 19.6735L12.9446 54.4908C8.20056 56.7218 5.82852 62.1303 7.45506 67.1332C15.7911 92.8913 44.5267 168.34 102.472 199.912C105.319 201.467 108.775 201.535 111.757 200.183C125.922 193.76 167.737 172.532 186.782 139.405C189.56 134.604 187.798 128.452 183.122 125.545C164.552 114.052 119.551 81.3982 100.981 25.9609C98.9482 19.9439 92.2387 17.0368 86.5458 19.7411L86.478 19.6735Z" fill="#C55669"/>
<path d="M86.6813 18.6594L13.0801 53.4091C8.33606 55.6401 5.96401 61.0487 7.59056 66.0515C15.9266 91.8096 44.6622 167.258 102.608 198.831C105.454 200.386 108.911 200.453 111.893 199.101C126.057 192.678 167.873 171.45 186.917 138.323C189.696 133.523 187.934 127.371 183.257 124.464C164.688 112.97 119.687 80.3165 101.117 24.8792C99.0837 18.8622 92.3742 15.9551 86.6813 18.6594Z" fill="#C95D6F"/>
<path d="M86.8169 17.5777L13.2835 52.395C8.53943 54.626 6.16738 60.0346 7.79393 65.0374C16.13 90.7955 44.8656 166.244 102.811 197.817C105.658 199.371 109.114 199.439 112.096 198.087C126.261 191.664 168.076 170.436 187.12 137.309C189.899 132.509 188.137 126.356 183.461 123.449C164.891 111.956 119.89 79.3024 101.32 23.8651C99.287 17.8481 92.5775 14.941 86.8846 17.6453L86.8169 17.5777Z" fill="#CD6576"/>
<path d="M87.0201 16.496L13.419 51.3133C8.67493 53.5443 6.30288 58.9528 7.92943 63.9557C16.2655 89.7138 45.0011 165.163 102.947 196.735C105.793 198.29 109.25 198.357 112.232 197.005C126.396 190.583 168.212 169.354 187.256 136.227C190.035 131.427 188.273 125.275 183.596 122.368C165.027 110.875 120.025 78.2207 101.456 22.7834C99.4225 16.7664 92.7131 13.8593 87.0201 16.5636V16.496Z" fill="#D16C7D"/>
<path d="M87.1557 15.4143L13.6224 50.2316C8.87829 52.4626 6.50625 57.8711 8.13279 62.874C16.4688 88.6321 45.2045 164.081 103.15 195.653C105.997 197.208 109.453 197.276 112.435 195.924C126.599 189.501 168.415 168.272 187.459 135.145C190.238 130.345 188.476 124.193 183.8 121.286C165.23 109.793 120.229 77.139 101.659 21.7017C99.6259 15.6847 92.9164 12.7776 87.2235 15.4819L87.1557 15.4143Z" fill="#D57383"/>
<path d="M87.359 14.3326L13.7579 49.1499C9.01379 51.3809 6.64175 56.7894 8.26829 61.7923C16.6043 87.5504 45.3399 162.999 103.286 194.571C106.132 196.126 109.588 196.194 112.57 194.842C126.735 188.419 168.551 167.191 187.595 134.064C190.373 129.264 188.611 123.111 183.935 120.204C165.365 108.711 120.364 76.0573 101.795 20.62C99.7614 14.603 93.0519 11.6959 87.359 14.4002V14.3326Z" fill="#D87A8A"/>
<path d="M87.4945 13.3185L13.9611 48.0682C9.21704 50.2992 6.845 55.7077 8.47154 60.7106C16.8076 86.4687 45.5432 161.917 103.489 193.49C106.335 195.045 109.792 195.112 112.774 193.76C126.938 187.338 168.754 166.109 187.798 132.982C190.577 128.182 188.815 122.03 184.138 119.123C165.569 107.63 120.568 74.9756 101.998 19.5383C99.9647 13.5213 93.2552 10.6142 87.5623 13.3185H87.4945Z" fill="#DC8190"/>
<path d="M87.6979 12.2368L14.0967 47.0541C9.35266 49.2851 6.98062 54.6936 8.60716 59.6965C16.9432 85.4546 45.6788 160.903 103.624 192.476C106.471 194.031 109.927 194.098 112.909 192.746C127.074 186.323 168.89 165.095 187.934 131.968C190.712 127.168 188.95 121.016 184.274 118.108C165.704 106.615 120.703 73.9615 102.133 18.5242C100.1 12.5072 93.3908 9.60014 87.6979 12.3044V12.2368Z" fill="#E08897"/>
<path d="M87.8334 11.1551L14.3 45.9724C9.55591 48.2034 7.18386 53.6119 8.81041 58.6148C17.1464 84.3729 45.8821 159.822 103.828 191.394C106.674 192.949 110.131 193.016 113.113 191.664C127.277 185.242 169.093 164.013 188.137 130.886C190.916 126.086 189.154 119.934 184.477 117.027C165.907 105.534 120.906 72.8798 102.337 17.4425C100.304 11.4255 93.594 8.51844 87.9011 11.2227L87.8334 11.1551Z" fill="#E4909E"/>
<path d="M88.0367 10.0734L14.4356 44.8907C9.69153 47.1217 7.31948 52.5302 8.94603 57.5331C17.2821 83.2912 46.0177 158.74 103.963 190.312C106.81 191.867 110.266 191.935 113.248 190.583C127.413 184.16 169.228 162.932 188.273 129.804C191.051 125.004 189.289 118.852 184.613 115.945C166.043 104.452 121.042 71.7981 102.472 16.3608C100.439 10.3438 93.7296 7.43672 88.0367 10.141V10.0734Z" fill="#E897A4"/>
<path d="M88.1722 9.05928L14.6389 43.809C9.89477 46.04 7.52273 51.4485 9.14927 56.4514C17.4853 82.2095 46.2209 157.658 104.167 189.23C107.013 190.785 110.469 190.853 113.451 189.501C127.616 183.078 169.432 161.85 188.476 128.723C191.254 123.923 189.492 117.77 184.816 114.863C166.246 103.37 121.245 70.7164 102.676 15.2791C100.642 9.2621 93.9329 6.35502 88.24 9.05928H88.1722Z" fill="#EC9EAB"/>
<path opacity="0.91" d="M88.4433 8.3156L14.9777 42.9301C10.2336 45.1611 7.8616 50.5696 9.48814 55.5725C17.8242 81.3306 46.4242 156.915 104.37 188.487C107.216 190.042 110.673 190.109 113.655 188.757C127.819 182.335 169.567 160.836 188.679 127.641C191.458 122.841 189.696 116.689 185.019 113.782C166.45 102.289 121.449 69.9727 102.947 14.5354C100.913 8.51842 94.204 5.61134 88.5111 8.3156H88.4433Z" fill="#EEA7B3"/>
<path opacity="0.82" d="M88.6466 7.57193L15.3166 42.0512C10.5725 44.2822 8.20046 49.6908 9.82701 54.6936C18.163 80.4517 46.6276 156.239 104.573 187.811C107.42 189.366 110.876 189.433 113.858 188.081C128.023 181.659 169.771 159.822 188.815 126.627C191.593 121.827 189.831 115.675 185.155 112.768C166.585 101.274 121.584 69.2966 103.082 13.8593C101.049 7.84236 94.3395 4.93528 88.6466 7.63954V7.57193Z" fill="#EFB0BA"/>
<path opacity="0.73" d="M88.85 6.82828L15.6555 41.1724C10.9114 43.4034 8.53933 48.8119 10.1659 53.8148C18.5019 79.5728 46.8309 155.495 104.777 187.067C107.623 188.622 111.079 188.69 114.061 187.337C128.226 180.915 169.974 158.74 189.018 125.545C191.797 120.745 190.035 114.593 185.358 111.686C166.789 100.193 121.855 68.553 103.353 13.1157C101.32 7.09871 94.6106 4.19163 88.9177 6.89589L88.85 6.82828Z" fill="#F1B8C2"/>
<path opacity="0.64" d="M89.121 6.0846L15.9943 40.2259C11.2502 42.4569 8.8782 47.8654 10.5047 52.8683C18.8408 78.6263 47.102 154.751 105.048 186.323C107.894 187.878 111.35 187.946 114.332 186.594C128.497 180.171 170.177 157.658 189.289 124.531C192.068 119.731 190.306 113.579 185.629 110.672C167.06 99.1787 122.126 67.8769 103.624 12.372C101.591 6.35502 94.8817 3.44795 89.1888 6.1522L89.121 6.0846Z" fill="#F3C1CA"/>
<path opacity="0.55" d="M89.3243 5.40852L16.4009 39.347C11.6569 41.578 9.28481 46.9865 10.9114 51.9894C19.2474 77.7474 47.3731 154.008 105.319 185.58C108.165 187.135 111.622 187.202 114.604 185.85C128.768 179.428 170.448 156.577 189.492 123.449C192.271 118.649 190.509 112.497 185.833 109.59C167.263 98.097 122.397 67.1332 103.828 11.6283C101.795 5.61134 95.085 2.70426 89.3921 5.40852H89.3243Z" fill="#F5CAD1"/>
<path opacity="0.45" d="M89.5277 4.66486L16.7398 38.4681C11.9957 40.6991 9.62368 46.1076 11.2502 51.1105C19.5863 76.8686 47.5764 153.331 105.522 184.904C108.368 186.459 111.825 186.526 114.807 185.174C128.971 178.751 170.584 155.562 189.696 122.435C192.474 117.635 190.712 111.483 186.036 108.576C167.466 97.0829 122.601 66.3895 104.099 10.9523C102.066 4.93528 95.3561 2.02821 89.6632 4.73247L89.5277 4.66486Z" fill="#F6D3D9"/>
<path opacity="0.36" d="M89.7988 3.92119L17.0787 37.5216C12.3346 39.7526 9.96255 45.1611 11.5891 50.164C19.9251 75.9221 47.7797 152.52 105.725 184.092C108.572 185.647 112.028 185.715 115.01 184.363C129.175 177.94 170.787 154.481 189.831 121.286C192.61 116.486 190.848 110.334 186.172 107.427C167.602 95.9336 122.736 65.5783 104.234 10.141C102.201 4.12401 95.4917 1.21693 89.7988 3.92119Z" fill="#F8DCE0"/>
<path opacity="0.27" d="M90.0021 3.1775L17.4175 36.6427C12.6735 38.8737 10.3014 44.2822 11.928 49.2851C20.264 75.0432 47.983 151.844 105.929 183.349C108.775 184.904 112.232 184.971 115.214 183.619C129.378 177.197 170.99 153.399 190.035 120.204C192.813 115.404 191.051 109.252 186.375 106.345C167.805 94.8519 123.007 64.8346 104.438 9.3973C102.404 3.38032 95.695 0.473245 90.0021 3.1775Z" fill="#FAE5E8"/>
<path opacity="0.18" d="M90.2054 2.50147L17.7564 35.7638C13.0123 37.9949 10.6403 43.4034 12.2668 48.4062C20.6029 74.1643 48.2541 151.1 106.132 182.673C108.978 184.228 112.435 184.295 115.417 182.943C129.581 176.52 171.126 152.385 190.238 119.258C193.017 114.458 191.255 108.306 186.578 105.398C168.008 93.9054 123.211 64.2262 104.709 8.78887C102.676 2.77189 95.9661 -0.135184 90.2732 2.56907L90.2054 2.50147Z" fill="#FCEDF0"/>
<path opacity="0.09" d="M90.4765 1.75779L18.0953 34.885C13.3512 37.116 10.9792 42.5245 12.6057 47.5274C20.9417 73.2854 48.4574 150.424 106.403 181.929C109.25 183.484 112.706 183.552 115.688 182.199C129.852 175.777 171.397 151.303 190.441 118.176C193.22 113.376 191.458 107.224 186.781 104.317C168.212 92.8237 123.414 63.4825 104.912 7.97759C102.879 1.96061 96.1694 -0.946463 90.4765 1.75779Z" fill="#FDF6F7"/>
</g>
<g style="mix-blend-mode:screen">
<path d="M87.2234 20.62L13.3512 54.6936C8.60714 56.9246 6.16732 62.2656 7.7261 67.2684C15.8588 93.0941 43.7812 168.813 101.388 200.926C104.234 202.549 107.691 202.617 110.673 201.264C124.905 194.977 166.924 174.222 186.307 141.23C189.086 136.43 187.459 130.278 182.783 127.303C164.349 115.607 119.619 82.5475 101.659 26.9074C99.6936 20.8904 92.9841 17.8481 87.2912 20.5524L87.2234 20.62Z" fill="#A646EF"/>
<path opacity="0.91" d="M86.5457 23.5947L12.6735 57.6683C7.92941 59.8993 5.48959 65.2402 7.04836 70.2431C15.1811 96.0688 43.1034 171.788 100.71 203.901C103.557 205.524 107.013 205.591 109.995 204.239C124.227 197.952 166.246 177.197 185.629 144.205C188.408 139.404 186.782 133.252 182.105 130.278C163.671 118.582 118.941 85.5222 100.981 29.8821C99.0159 23.8651 92.3064 20.8228 86.6135 23.527L86.5457 23.5947Z" fill="#9941DB"/>
<path opacity="0.82" d="M85.9359 26.5694L11.9959 60.643C7.25179 62.874 4.81198 68.2149 6.37075 73.2178C14.5035 99.0435 42.4258 174.763 100.033 206.876C102.879 208.498 106.335 208.566 109.317 207.214C123.55 200.926 165.569 180.171 184.952 147.179C187.73 142.379 186.104 136.227 181.428 133.252C162.993 121.556 118.263 88.4969 100.304 32.8568C98.3383 26.8398 91.6288 23.7975 85.9359 26.5017V26.5694Z" fill="#8B3DC7"/>
<path opacity="0.73" d="M85.2581 29.544L11.3859 63.6177C6.64181 65.8487 4.20199 71.1896 5.76076 76.1925C13.8935 102.018 41.8158 177.737 99.4226 209.85C102.269 211.473 105.725 211.541 108.707 210.188C122.94 203.901 164.959 183.146 184.342 150.154C187.12 145.354 185.494 139.202 180.818 136.227C162.383 124.531 117.653 91.4715 99.6937 35.8314C97.7283 29.8145 91.0188 26.7722 85.3259 29.4764L85.2581 29.544Z" fill="#7E38B3"/>
<path opacity="0.64" d="M84.5803 32.5187L10.7081 66.5924C5.89626 68.8234 3.52422 74.1643 5.08299 79.1672C13.2157 104.993 41.1381 180.712 98.7448 212.825C101.591 214.448 105.048 214.515 108.03 213.163C122.262 206.876 164.281 186.121 183.664 153.129C186.443 148.329 184.816 142.176 180.14 139.202C161.706 127.506 116.976 94.4462 99.0159 38.8061C97.0505 32.7892 90.341 29.7469 84.6481 32.4511L84.5803 32.5187Z" fill="#71349F"/>
<path opacity="0.55" d="M83.9704 35.4934L10.0304 69.567C5.28634 71.7981 2.84652 77.139 4.40529 82.1418C12.538 107.968 40.4604 183.687 98.0671 215.8C100.914 217.422 104.37 217.49 107.352 216.138C121.584 209.85 163.603 189.095 182.986 156.103C185.765 151.303 184.138 145.151 179.462 142.176C161.028 130.48 116.298 97.4209 98.3382 41.7808C96.3728 35.7638 89.6633 32.7215 83.9704 35.4258V35.4934Z" fill="#642F8B"/>
<path opacity="0.45" d="M83.2926 38.4681L9.4204 72.5417C4.60854 74.7727 2.2365 80.1136 3.79527 85.1165C11.928 110.942 39.8503 186.661 97.4571 218.774C100.304 220.397 103.76 220.465 106.742 219.112C120.974 212.825 162.993 192.07 182.376 159.078C185.155 154.278 183.528 148.126 178.852 145.151C160.418 133.455 115.688 100.396 97.7282 44.7555C95.7628 38.7385 89.0533 35.6962 83.3604 38.4005L83.2926 38.4681Z" fill="#562B78"/>
<path opacity="0.36" d="M82.6149 41.4428L8.74271 75.5164C3.99862 77.7474 1.5588 83.0883 3.11758 88.0912C11.2503 113.917 39.1726 189.636 96.7794 221.749C99.6259 223.372 103.082 223.439 106.064 222.087C120.297 215.8 162.316 195.045 181.699 162.053C184.477 157.253 182.851 151.1 178.174 148.126C159.74 136.43 115.01 103.37 97.0505 47.7302C95.0851 41.7132 88.3756 38.6709 82.6827 41.3752L82.6149 41.4428Z" fill="#492664"/>
<path opacity="0.27" d="M82.005 44.4174L8.06497 78.4911C3.32089 80.7221 0.881069 86.063 2.43984 91.0659C10.5726 116.892 38.4949 192.611 96.1017 224.724C98.9481 226.346 102.405 226.414 105.387 225.062C119.619 218.774 161.638 198.019 181.021 165.027C183.8 160.227 182.173 154.075 177.497 151.1C159.063 139.404 114.333 106.345 96.3728 50.7048C94.4074 44.6879 87.6979 41.6456 82.005 44.3498V44.4174Z" fill="#3C2250"/>
<path opacity="0.18" d="M81.3273 47.3921L7.45511 81.4658C2.71102 83.6968 0.271206 89.0377 1.82998 94.0406C9.9627 119.866 37.885 195.585 95.4918 227.699C98.3383 229.321 101.795 229.389 104.777 228.037C119.009 221.749 161.028 200.994 180.411 168.002C183.19 163.202 181.563 157.05 176.887 154.075C158.453 142.379 113.723 109.32 95.7629 53.6795C93.7975 47.6626 87.088 44.6203 81.3951 47.3245L81.3273 47.3921Z" fill="#2F1D3C"/>
<path opacity="0.09" d="M80.6496 50.3668L6.77738 84.4405C2.03329 86.6715 -0.406529 92.0124 1.15224 97.0153C9.28496 122.841 37.2073 198.56 94.8141 230.673C97.6605 232.296 101.117 232.363 104.099 231.011C118.331 224.724 160.35 203.969 179.733 170.977C182.512 166.177 180.885 160.024 176.209 157.05C157.775 145.354 113.045 112.294 95.0852 56.6542C93.1198 50.6372 86.4103 47.5949 80.7174 50.2992L80.6496 50.3668Z" fill="#211928"/>
</g>
</g>
<path d="M65.6717 82.5475C66.4172 87.3476 70.958 90.6603 75.7699 89.9166C80.5817 89.1729 83.9026 84.6433 83.1571 79.8432C82.4116 75.0432 77.8708 71.7305 73.0589 72.4741C68.2471 73.2178 64.9262 77.7474 65.6717 82.5475Z" fill="url(#paint2_linear_2004_24066)"/>
<mask id="mask1_2004_24066" style="mask-type:luminance" maskUnits="userSpaceOnUse" x="65" y="72" width="19" height="19">
<path d="M65.6717 82.5475C66.4172 87.3476 70.958 90.6603 75.7699 89.9166C80.5817 89.1729 83.9026 84.6433 83.1571 79.8432C82.4116 75.0432 77.8708 71.7305 73.0589 72.4741C68.2471 73.2178 64.9262 77.7474 65.6717 82.5475Z" fill="white"/>
</mask>
<g mask="url(#mask1_2004_24066)">
<g style="mix-blend-mode:multiply">
<path d="M65.6717 82.5475C66.4172 87.3476 70.958 90.6603 75.7699 89.9166C80.5817 89.1729 83.9026 84.6433 83.1571 79.8432C82.4116 75.0432 77.8708 71.7305 73.0589 72.4741C68.2471 73.2178 64.9262 77.7474 65.6717 82.5475Z" fill="#F06949"/>
<path d="M65.8073 82.4123C66.5528 87.1447 71.0258 90.3898 75.7699 89.6462C80.514 88.9025 83.7671 84.4405 83.0216 79.708C82.2761 74.9756 77.8031 71.7304 73.059 72.4741C68.3149 73.2178 65.0618 77.6798 65.8073 82.4123Z" fill="#F1775A"/>
<path d="M66.0106 82.2771C66.7561 86.9419 71.1613 90.187 75.8376 89.4433C80.514 88.6997 83.767 84.3052 83.0215 79.6404C82.2761 74.9756 77.8708 71.7304 73.1945 72.4741C68.5182 73.2178 65.2651 77.6122 66.0106 82.2771Z" fill="#F3846A"/>
<path d="M66.1461 82.1419C66.8916 86.8067 71.2291 89.9166 75.9054 89.2405C80.5817 88.4969 83.6993 84.1701 83.0215 79.5052C82.276 74.8404 77.9386 71.7305 73.2623 72.4065C68.586 73.1502 65.4684 77.477 66.1461 82.1419Z" fill="#F4927B"/>
<path d="M66.3494 82.0066C67.0949 86.6039 71.3646 89.7138 75.9732 89.0377C80.5817 88.294 83.6992 84.0348 83.0215 79.4376C82.276 74.8404 78.0063 71.7305 73.3978 72.4065C68.7893 73.1502 65.6717 77.4094 66.3494 82.0066Z" fill="#F5A08B"/>
<path d="M66.485 81.8714C67.1627 86.4011 71.4324 89.511 75.9731 88.7673C80.5139 88.0912 83.6314 83.832 82.8859 79.3024C82.2082 74.7728 77.9385 71.6629 73.3978 72.4065C68.857 73.0826 65.7395 77.3418 66.485 81.8714Z" fill="#F7AD9C"/>
<path d="M66.6883 81.7362C67.3661 86.1982 71.568 89.2405 76.041 88.5645C80.514 87.8884 83.5637 83.6968 82.886 79.2348C82.2083 74.7728 78.0064 71.7305 73.5334 72.4065C69.0604 73.0826 66.0106 77.2742 66.6883 81.7362Z" fill="#F8BBAC"/>
<path d="M66.8239 81.601C67.5016 85.9954 71.6358 89.0377 76.1088 88.3617C80.5817 87.6856 83.5637 83.5616 82.886 79.0996C82.2083 74.7051 78.0742 71.6629 73.6012 72.3389C69.1959 73.015 66.1462 77.139 66.8239 81.601Z" fill="#FAC8BD"/>
<path d="M66.9594 81.4658C67.6372 85.7926 71.7035 88.8349 76.1088 88.1588C80.4462 87.4828 83.496 83.4264 82.8183 79.032C82.1405 74.7051 78.0742 71.6629 73.6689 72.3389C69.3315 73.015 66.2817 77.0714 66.9594 81.4658Z" fill="#FBD6CD"/>
<path d="M67.1627 81.3306C67.8405 85.6574 71.9068 88.5645 76.1765 87.8884C80.514 87.2123 83.4282 83.1559 82.7505 78.8967C82.0727 74.5699 78.0064 71.6628 73.7367 72.3389C69.3992 73.015 66.485 77.0714 67.1627 81.3306Z" fill="#FCE4DE"/>
<path d="M67.2983 81.1954C67.976 85.4546 71.9746 88.3616 76.2443 87.6856C80.514 87.0095 83.4282 83.0207 82.7505 78.7615C82.0728 74.5023 78.0742 71.5952 73.8045 72.2713C69.5348 72.9474 66.6206 76.9362 67.2983 81.1954Z" fill="#FEF1EE"/>
<path d="M67.5015 81.0601C68.1793 85.2517 72.1101 88.0912 76.312 87.4828C80.5139 86.8067 83.3604 82.8855 82.7504 78.6939C82.0727 74.5023 78.1419 71.6628 73.9399 72.2713C69.738 72.9474 66.8916 76.8685 67.5015 81.0601Z" fill="white"/>
</g>
<g style="mix-blend-mode:screen">
<path d="M65.6717 82.5475C66.4172 87.3476 70.958 90.6603 75.7699 89.9166C80.5817 89.1729 83.9026 84.6433 83.1571 79.8432C82.4116 75.0432 77.8708 71.7305 73.0589 72.4741C68.2471 73.2178 64.9262 77.7474 65.6717 82.5475Z" fill="#F06949"/>
<path d="M65.6038 82.7503C66.3493 87.5504 70.8901 90.8631 75.702 90.1194C80.5138 89.3757 83.8347 84.8461 83.0892 80.0461C82.3437 75.246 77.8029 71.9333 72.9911 72.677C68.1792 73.4206 64.8583 77.9503 65.6038 82.7503Z" fill="#DC6144"/>
<path d="M65.6038 82.8855C66.3493 87.6856 70.8901 90.9983 75.702 90.2546C80.5138 89.511 83.8347 84.9813 83.0892 80.1813C82.3437 75.3812 77.8029 72.0685 72.9911 72.8122C68.1792 73.5559 64.8583 78.0855 65.6038 82.8855Z" fill="#C85A3F"/>
<path d="M65.6038 83.0207C66.3493 87.8208 70.8901 91.1335 75.702 90.3898C80.5138 89.6462 83.8347 85.1165 83.0892 80.3165C82.3437 75.5164 77.8029 72.2037 72.9911 72.9474C68.1792 73.691 64.8583 78.2207 65.6038 83.0207Z" fill="#B4523B"/>
<path d="M65.6038 83.156C66.3493 87.956 70.8901 91.2687 75.702 90.5251C80.5138 89.7814 83.8347 85.2518 83.0892 80.4517C82.3437 75.6516 77.8029 72.3389 72.9911 73.0826C68.1792 73.8263 64.8583 78.3559 65.6038 83.156Z" fill="#A04A36"/>
<path d="M65.5361 83.3588C66.2816 88.1588 70.8224 91.4715 75.6342 90.7279C80.4461 89.9842 83.7669 85.4546 83.0215 80.6545C82.2759 75.8545 77.7352 72.5417 72.9233 73.2854C68.1115 74.0291 64.7906 78.5587 65.5361 83.3588Z" fill="#8C4231"/>
<path d="M65.5361 83.494C66.2816 88.294 70.8224 91.6067 75.6342 90.8631C80.4461 90.1194 83.7669 85.5898 83.0215 80.7897C82.2759 75.9897 77.7352 72.6769 72.9233 73.4206C68.1115 74.1643 64.7906 78.6939 65.5361 83.494Z" fill="#783B2C"/>
<path d="M65.5361 83.6292C66.2816 88.4292 70.8224 91.742 75.6342 90.9983C80.4461 90.2546 83.7669 85.725 83.0215 80.9249C82.2759 76.1249 77.7352 72.8122 72.9233 73.5558C68.1115 74.2995 64.7906 78.8291 65.5361 83.6292Z" fill="#643327"/>
<path d="M65.4684 83.832C66.2139 88.6321 70.7546 91.9448 75.5665 91.2011C80.3783 90.4574 83.6992 85.9278 82.9537 81.1278C82.2082 76.3277 77.6674 73.015 72.8556 73.7587C68.0437 74.5023 64.7229 79.032 65.4684 83.832Z" fill="#502B22"/>
<path d="M65.4684 83.9672C66.2139 88.7673 70.7546 92.08 75.5665 91.3363C80.3783 90.5927 83.6992 86.063 82.9537 81.263C82.2082 76.4629 77.6674 73.1502 72.8556 73.8939C68.0437 74.6375 64.7229 79.1672 65.4684 83.9672Z" fill="#3C231E"/>
<path d="M65.4684 84.1024C66.2139 88.9025 70.7546 92.2152 75.5665 91.4715C80.3783 90.7279 83.6992 86.1982 82.9537 81.3982C82.2082 76.5981 77.6674 73.2854 72.8556 74.0291C68.0437 74.7727 64.7229 79.3024 65.4684 84.1024Z" fill="#281C19"/>
<path d="M65.4684 84.2377C66.2139 89.0377 70.7546 92.3504 75.5665 91.6068C80.3783 90.8631 83.6992 86.3335 82.9537 81.5334C82.2082 76.7333 77.6674 73.4206 72.8556 74.1643C68.0437 74.908 64.7229 79.4376 65.4684 84.2377Z" fill="#141414"/>
</g>
</g>
<defs>
<linearGradient id="paint0_linear_2004_24066" x1="49.0142" y1="20.8397" x2="150.219" y2="201.903" gradientUnits="userSpaceOnUse">
<stop stop-color="#F2371A"/>
<stop offset="0.49" stop-color="#D71E30"/>
<stop offset="1" stop-color="#AF1939"/>
</linearGradient>
<linearGradient id="paint1_linear_2004_24066" x1="42.7826" y1="32.7564" x2="81.3789" y2="87.5155" gradientUnits="userSpaceOnUse">
<stop stop-color="#F2371A"/>
<stop offset="0.49" stop-color="#D71E30"/>
<stop offset="1" stop-color="#AF1939"/>
</linearGradient>
<linearGradient id="paint2_linear_2004_24066" x1="77.1253" y1="88.0236" x2="71.7263" y2="74.6959" gradientUnits="userSpaceOnUse">
<stop stop-color="#F44E1E"/>
<stop offset="0.54" stop-color="#F56623"/>
<stop offset="1" stop-color="#F7934B"/>
</linearGradient>
</defs>
</svg>
