<svg width="662" height="378" viewBox="0 0 662 378" fill="none" xmlns="http://www.w3.org/2000/svg">
<g clip-path="url(#clip0_2004_24297)">
<g style="mix-blend-mode:screen" opacity="0.7">
<path d="M-9.894 162.957C-9.894 162.957 0.039422 158.015 14.9704 152.332C12.2557 150.417 15.2172 147.514 16.6979 151.591C16.6979 151.591 16.8213 151.591 16.883 151.591C38.9093 143.313 70.9924 133.738 99.0034 135.036C105.914 135.345 112.577 136.333 118.809 138.124C122.017 139.051 125.287 139.607 128.557 139.977C129.606 140.101 130.655 140.101 131.765 140.163C134.048 140.286 136.393 140.348 138.737 140.286C139.909 140.286 141.082 140.163 142.316 140.101C144.66 139.916 147.005 139.607 149.349 139.236C150.398 139.051 151.447 138.927 152.496 138.742C155.704 138.124 158.912 137.321 162.121 136.456C162.244 136.456 162.306 136.456 162.429 136.395C165.761 135.406 168.969 134.294 172.178 133.059C173.165 132.688 174.09 132.318 175.077 131.885C177.298 131.02 179.458 130.094 181.617 129.105C182.666 128.673 183.653 128.179 184.641 127.685C186.738 126.696 188.774 125.708 190.749 124.658C191.551 124.225 192.353 123.855 193.093 123.422C195.746 122.002 198.276 120.581 200.682 119.222C199.633 116.689 198.769 114.095 198.029 111.438C197.782 110.45 197.659 109.462 197.412 108.412C196.919 106.064 196.61 103.717 196.363 101.308C196.302 100.258 196.178 99.2074 196.178 98.1573C196.116 94.7598 196.178 91.3622 196.795 87.9647C197.165 85.7409 197.906 83.6406 198.523 81.4786C198.399 81.4786 198.214 81.4786 198.091 81.4786C198.214 81.0462 198.276 80.6755 198.399 80.2431C198.584 80.2431 198.646 80.3667 198.769 80.4285C206.914 53.4955 233.691 35.952 262.195 40.5232C265.712 41.0791 269.105 42.0057 272.376 43.1794C272.561 42.9323 272.807 42.6852 272.992 42.4381C272.992 42.3146 272.992 42.3764 272.992 42.191C273.116 41.6351 273.486 41.3262 273.98 41.2027C275.275 39.4113 276.694 37.6816 278.113 36.0138C279.471 34.4694 280.89 33.0487 282.371 31.6279C284.592 29.4658 286.813 27.4273 289.219 25.5742C290.638 24.4622 292.119 23.4739 293.6 22.4237C296.191 20.6941 298.844 19.1498 301.559 17.729C302.793 17.1113 303.965 16.37 305.261 15.7523C309.271 13.9609 313.405 12.4783 317.724 11.3664C318.896 11.0575 320.13 10.8722 321.364 10.6251C324.819 9.88385 328.336 9.38966 331.914 9.0808C333.272 8.95725 334.629 8.89548 336.048 8.83371C340.799 8.71016 345.611 8.83371 350.485 9.69853C354.619 10.378 358.506 11.6135 362.393 12.8489C363.01 12.293 363.751 12.6019 364.059 13.2814C364.738 13.5284 365.416 13.5902 366.095 13.8373C368.686 14.8257 371.031 16.2465 373.499 17.4819C375.72 18.5938 378.065 19.4586 380.101 20.7559C383.062 22.6091 385.653 24.8329 388.307 27.0567C389.602 28.1068 391.083 28.9717 392.317 30.1453C394.908 32.5545 397.068 35.2725 399.289 37.9905C400.276 39.1642 401.448 40.2143 402.374 41.4498C402.559 41.2027 402.744 40.9556 402.929 40.7085C402.929 40.7085 402.929 40.7085 402.991 40.832C403.237 40.585 403.423 40.2761 403.669 40.029C403.361 40.029 403.299 39.8437 403.114 38.8553C402.929 37.5581 404.286 37.7434 405.15 38.2994C409.901 33.1104 415.084 28.4157 420.636 24.2151C420.143 23.6592 420.143 22.7944 421.5 23.4121C421.5 22.9797 421.747 22.9797 422.055 23.1032C425.325 20.6941 428.719 18.532 432.174 16.4935C431.619 15.5052 430.755 14.5168 432.668 15.011C433.099 15.0728 433.408 15.3816 433.655 15.6905C434.148 15.4434 434.642 15.1963 435.135 14.8874C435.567 14.6404 435.999 14.455 436.369 14.2079C437.48 13.5902 438.591 12.9725 439.763 12.4165C439.763 12.3548 439.701 12.4165 439.763 12.2312C439.763 10.6251 439.516 10.934 441.058 10.934C441.49 10.934 441.552 11.2428 441.676 11.4282C443.712 10.5016 445.809 9.69853 447.907 8.89548C448.339 8.71016 448.832 8.52484 449.264 8.33953C457.655 5.18911 466.478 3.02706 475.61 1.91515C476.844 1.7916 478.077 1.66806 479.311 1.54451C482.643 1.23565 486.037 1.1121 489.43 1.1121C489.553 1.1121 489.615 1.1121 489.738 1.1121C489.738 0.123735 490.787 -1.17349 490.972 1.1121C491.774 1.1121 492.515 1.17387 493.317 1.17387C495.106 1.23565 496.895 1.35919 498.746 1.54451C498.87 1.17387 498.993 0.803236 499.055 0.370826C499.734 0.556145 500.351 1.35919 499.919 1.66806C500.721 1.72983 501.584 1.85337 502.387 1.91515C503.25 0.185508 504.978 0.679691 504.669 2.16224C505.41 2.28578 506.212 2.28578 506.952 2.40933C508.68 2.65642 510.346 3.1506 512.011 3.45947C512.443 3.08883 512.937 2.90351 512.752 3.64479C514.603 4.01542 516.515 4.32429 518.305 4.81847C519.292 5.06556 520.279 5.49797 521.266 5.74506C523.919 6.54811 526.572 7.28939 529.164 8.27775C529.719 8.46307 530.212 8.77194 530.768 8.95725C531.94 7.16584 543.169 11.3664 533.791 8.77193C534.47 8.95725 534.408 9.7603 534.038 10.378C535.827 11.1811 537.678 11.8606 539.467 12.7254C541.503 13.7138 543.478 14.9492 545.452 16.0611C546.686 16.7406 547.982 17.4201 549.154 18.1614C551.313 19.5204 553.349 21.003 555.385 22.4855C555.941 22.8561 556.496 23.2268 556.989 23.5974C556.989 23.2268 557.36 23.2886 558.162 23.1032C558.1 23.6592 558.409 24.2769 558.655 24.8329C560.691 26.3772 562.542 28.1068 564.455 29.7747C565.134 30.3924 565.874 30.9484 566.553 31.5661C566.923 31.9368 567.293 32.3074 567.663 32.678C568.836 32.4309 568.712 32.3692 568.959 33.7899C568.836 33.7899 568.836 33.7899 568.774 33.7899C570.316 35.2725 571.797 36.8168 573.278 38.4229C573.586 38.7318 573.895 39.0406 574.203 39.4113C576.548 42.0675 578.707 44.7855 580.805 47.6271C580.867 47.6888 580.928 47.8124 580.99 47.8742C590.245 60.5994 596.785 75.3013 600.178 90.9916C600.734 91.3005 600.795 91.5476 600.363 91.7947C602.955 104.335 603.51 117.43 601.659 130.835C601.906 130.526 602.338 130.588 602.77 131.823C602.338 132.009 601.906 132.132 601.536 132.318C601.536 132.318 601.536 132.318 601.536 132.256C601.536 132.256 601.536 132.318 601.536 132.379C602.955 132.75 604.25 133.368 605.608 133.8C608.199 134.603 610.79 135.468 613.258 136.518C615.479 137.445 617.639 138.557 619.737 139.73C622.081 140.966 624.364 142.263 626.585 143.684C627.881 144.549 629.176 145.475 630.41 146.464C630.966 146.525 631.398 146.958 631.521 147.452C631.768 147.637 632.015 147.884 632.323 148.132C634.297 149.738 636.272 151.344 638.123 153.135C638.123 153.135 638.184 153.197 638.246 153.259C638.431 153.259 638.431 153.259 638.74 153.135C638.863 153.568 638.801 153.629 638.863 153.815C640.406 155.359 641.64 157.089 643.059 158.756C644.601 160.61 646.267 162.463 647.624 164.44C649.105 166.602 650.339 168.949 651.635 171.235C651.82 171.605 652.067 171.914 652.252 172.223C652.437 171.543 652.93 171.111 653.547 172.779C653.301 172.902 652.992 172.964 652.745 173.088C653.486 174.509 654.288 175.868 654.966 177.35C655.398 178.4 655.768 179.389 656.2 180.439C657.743 178.833 657.804 180.748 657.064 181.427C656.817 181.18 656.571 180.933 656.262 180.686C656.879 182.23 657.249 183.836 657.804 185.381C658.113 186.369 658.545 187.357 658.853 188.346C659.162 188.099 659.409 187.851 659.717 187.604C661.198 189.334 659.717 189.272 658.977 188.654C659.224 189.581 659.532 190.508 659.779 191.434C660.519 194.646 660.828 197.982 661.198 201.256C661.383 202.986 661.815 204.654 661.877 206.445C662 206.569 662 206.507 662.185 206.692C662 206.877 662 206.877 661.877 207.001C662.062 212.005 661.753 217.132 660.889 222.259C659.162 233.131 655.275 243.138 649.784 251.972C644.293 260.743 637.197 268.341 628.93 274.333C625.536 276.804 621.834 278.781 618.132 280.696C618.194 281.067 617.886 281.746 617.454 282.055C617.269 281.808 617.145 281.623 616.96 281.376C616.528 281.561 616.158 281.87 615.788 282.055C609.742 284.835 603.263 286.626 596.661 287.862C597.71 290.333 596.661 290.209 595.366 288.047C592.158 288.603 589.011 289.282 585.741 289.406C585.247 289.406 584.815 289.282 584.322 289.344C584.569 289.344 584.815 289.344 585.062 289.591C584.569 290.394 583.952 290.518 583.15 289.962C583.396 289.591 583.643 289.406 583.89 289.344C581.792 289.344 579.633 289.097 577.535 288.974C577.535 289.406 577.103 289.468 576.054 288.912C573.895 288.727 571.735 288.912 569.576 288.541C568.095 288.294 566.738 287.8 565.257 287.491C565.134 288.047 564.393 287.738 563.961 287.182C561.123 286.503 558.285 285.761 555.509 284.835C554.028 284.279 552.609 283.661 551.19 283.043C548.228 281.808 545.39 280.387 542.614 278.781C541.071 277.916 539.591 276.99 538.11 276.063C535.457 274.272 532.927 272.295 530.521 270.256C529.41 269.268 528.176 268.465 527.128 267.415C527.004 267.291 526.881 267.23 526.819 267.168C524.783 270.442 522.562 273.469 520.156 276.434C521.39 276.187 520.896 277.299 519.909 277.854C519.107 278.349 518.86 278.472 518.675 278.349C518.366 278.719 517.996 279.028 517.688 279.399C513.801 283.846 509.482 287.923 504.855 291.63C504.423 292.062 503.991 292.495 503.497 292.742C502.14 293.792 500.782 294.718 499.363 295.707C498.561 296.263 497.759 296.757 496.957 297.313C493.502 299.475 489.985 301.575 486.283 303.305C482.581 305.035 478.694 306.455 474.807 307.691C473.82 308 472.895 308.309 471.908 308.556C467.959 309.668 463.949 310.656 459.815 311.212C459.445 311.212 459.074 311.212 458.704 311.335C459.815 311.644 460.247 312.941 456.853 312.324C456.236 312.2 455.804 311.891 455.619 311.582C453.151 311.83 450.622 312.015 448.154 312.077C448.154 312.2 448.154 312.324 448.154 312.386C447.66 312.262 447.475 312.138 447.167 312.077C446.179 312.077 445.131 312.077 444.143 312.077C442.231 312.077 440.256 311.953 438.344 311.768C438.22 311.891 437.85 311.768 437.48 311.706C435.567 311.521 433.655 311.397 431.742 311.088C431.742 311.397 431.742 311.768 431.742 312.077C430.94 312.077 429.953 311.212 430.632 310.841C427.053 310.223 423.598 309.42 420.143 308.432C419.094 308.123 418.045 307.753 417.058 307.444C414.405 306.579 411.875 305.652 409.346 304.602C408.358 304.17 407.371 303.737 406.384 303.305C403.484 301.946 400.584 300.463 397.87 298.857C397.5 298.672 397.129 298.487 396.759 298.24C393.489 296.201 390.343 294.039 387.381 291.63C387.196 291.506 387.073 291.321 386.887 291.197C384.111 288.974 381.52 286.564 378.99 284.032C378.62 283.661 378.311 283.352 378.003 282.982C378.003 282.982 377.941 282.92 377.88 282.858C377.077 284.588 376.584 283.908 376.954 281.932C374.795 279.584 372.697 277.175 370.784 274.642C370.044 273.654 369.242 272.666 368.563 271.615C368.193 271.492 367.823 271.368 367.452 271.245C367.514 270.998 367.699 270.751 367.884 270.565C364.429 265.438 361.406 260.002 359 254.319C350.3 259.137 340.799 262.597 330.865 264.512C330.31 264.635 329.817 264.697 329.323 264.82C328.274 265.006 327.287 265.253 326.238 265.376C326.855 265.685 326.917 265.747 326.361 266.921C325.066 266.303 325.127 266.303 325.559 265.438C324.572 265.562 323.585 265.623 322.598 265.685C322.474 265.685 322.474 265.747 322.351 265.809C322.351 265.747 322.351 265.809 322.351 265.685C319.945 265.932 317.539 266.118 315.132 266.118C314.454 266.118 313.713 266.118 313.035 266.118C313.528 267.415 313.343 267.168 312.109 267.662C311.862 266.982 311.677 266.488 311.554 266.118C307.112 266.056 302.608 265.747 298.104 265.068C294.895 264.573 291.81 263.894 288.726 263.091C288.479 263.4 287.923 263.647 286.443 263.709C285.024 263.709 284.098 262.782 286.689 262.473C286.689 262.473 286.566 262.473 286.504 262.473C285.641 262.226 284.777 261.979 283.975 261.67C283.666 263.585 282.988 263.153 282.864 261.299C280.149 260.373 277.558 259.384 274.967 258.273C274.041 257.902 273.178 257.531 272.252 257.099C268.797 255.431 265.404 253.64 262.195 251.601C261.825 251.354 261.517 251.107 261.146 250.86C258.308 249.007 255.594 246.968 252.941 244.806C252.2 244.188 251.46 243.571 250.781 242.953C250.164 242.397 249.485 241.903 248.93 241.347C248.93 241.532 248.93 241.532 248.93 241.717C248.93 243.323 247.511 244.497 247.635 240.358C247.635 240.358 247.635 240.297 247.635 240.235C246.277 238.938 245.043 237.579 243.748 236.22C243.377 235.787 242.945 235.417 242.575 235.046C239.984 232.143 237.578 229.116 235.295 225.965C235.048 225.595 234.801 225.162 234.493 224.792C232.58 222.012 230.853 219.047 229.248 216.082C228.878 215.402 228.508 214.723 228.2 214.043C226.472 210.646 224.93 207.186 223.634 203.604C220.672 204.53 217.587 205.395 214.317 206.198H214.194C211.171 206.939 208.086 207.557 204.878 208.051C203.952 208.175 202.965 208.298 202.039 208.422C199.695 208.731 197.289 209.04 194.821 209.163C193.587 209.225 192.291 209.287 190.996 209.287C188.774 209.348 186.553 209.348 184.27 209.287C183.9 209.287 183.53 209.287 183.16 209.287C183.16 209.348 183.16 209.348 183.16 209.41C182.851 210.707 181.802 211.387 181.988 209.225C181.371 209.225 180.692 209.04 180.075 208.978C177.915 208.792 175.694 208.545 173.473 208.175C171.992 207.928 170.512 207.681 169.031 207.433C168.476 207.31 167.859 207.248 167.303 207.125C166.871 207.742 166.193 207.928 166.255 206.878C164.959 206.569 163.601 206.074 162.306 205.704C160.887 205.271 159.406 204.901 157.987 204.407C155.519 203.542 153.113 202.43 150.707 201.318C149.473 200.762 148.3 200.268 147.066 199.65C143.426 197.735 139.848 195.573 136.331 192.979C136.331 192.979 136.207 192.917 136.207 192.855C135.961 192.855 135.776 192.979 135.344 192.732C134.48 192.176 134.295 191.99 134.418 191.743C129.236 188.16 123.559 184.948 117.266 182.23C110.232 179.141 102.644 176.547 94.7462 174.385C89.5636 172.964 84.1958 171.729 78.8898 170.617C78.5813 170.802 78.1494 170.864 77.5941 170.617C77.5941 170.617 77.5941 170.493 77.5941 170.432C75.2496 169.937 72.9668 169.443 70.6222 169.072C44.9557 164.563 19.9063 163.389 4.91358 163.142C4.97528 163.266 5.03698 163.328 5.09868 163.451C5.65396 163.884 4.91358 166.046 4.11151 164.501C3.43283 164.687 3.12433 163.945 3.00094 163.142C-4.46455 163.019 -9.15362 163.142 -9.15362 163.142L-9.894 162.957Z" fill="url(#paint0_linear_2004_24297)"/>
</g>
</g>
<g clip-path="url(#clip1_2004_24297)">
<g style="mix-blend-mode:screen" opacity="0.7">
<path d="M-75 228.063C-75 228.063 -65.0666 223.121 -50.1356 217.438C-52.8503 215.523 -49.8888 212.62 -48.4081 216.697C-48.4081 216.697 -48.2847 216.697 -48.223 216.697C-26.1967 208.419 5.88641 198.844 33.8974 200.142C40.8076 200.451 47.471 201.439 53.7026 203.23C56.9109 204.157 60.1809 204.713 63.4509 205.084C64.4998 205.207 65.5486 205.207 66.6592 205.269C68.942 205.392 71.2866 205.454 73.6311 205.392C74.8034 205.392 75.9756 205.269 77.2096 205.207C79.5541 205.022 81.8987 204.713 84.2432 204.342C85.2921 204.157 86.3409 204.033 87.3898 203.848C90.5981 203.23 93.8064 202.427 97.0147 201.562C97.1381 201.562 97.1998 201.562 97.3232 201.501C100.655 200.512 103.863 199.4 107.072 198.165C108.059 197.794 108.984 197.424 109.971 196.991C112.192 196.126 114.352 195.2 116.511 194.212C117.56 193.779 118.547 193.285 119.535 192.791C121.632 191.802 123.668 190.814 125.643 189.764C126.445 189.331 127.247 188.961 127.987 188.528C130.64 187.108 133.17 185.687 135.576 184.328C134.527 181.795 133.663 179.201 132.923 176.545C132.676 175.556 132.553 174.568 132.306 173.518C131.813 171.17 131.504 168.823 131.257 166.414C131.196 165.364 131.072 164.313 131.072 163.263C131.01 159.866 131.072 156.468 131.689 153.071C132.059 150.847 132.8 148.747 133.417 146.585C133.293 146.585 133.108 146.585 132.985 146.585C133.108 146.152 133.17 145.782 133.293 145.349C133.478 145.349 133.54 145.473 133.663 145.535C141.808 118.602 168.585 101.058 197.089 105.629C200.606 106.185 203.999 107.112 207.27 108.285C207.455 108.038 207.701 107.791 207.886 107.544C207.886 107.421 207.886 107.482 207.886 107.297C208.01 106.741 208.38 106.432 208.874 106.309C210.169 104.517 211.588 102.788 213.007 101.12C214.365 99.5755 215.784 98.1547 217.265 96.734C219.486 94.5719 221.707 92.5334 224.113 90.6802C225.532 89.5683 227.013 88.58 228.494 87.5298C231.085 85.8002 233.738 84.2559 236.453 82.8351C237.687 82.2174 238.859 81.4761 240.155 80.8583C244.165 79.0669 248.299 77.5844 252.618 76.4725C253.79 76.1636 255.024 75.9783 256.258 75.7312C259.713 74.9899 263.23 74.4957 266.808 74.1869C268.166 74.0633 269.523 74.0016 270.942 73.9398C275.693 73.8162 280.505 73.9398 285.379 74.8046C289.513 75.4841 293.4 76.7196 297.287 77.955C297.904 77.3991 298.645 77.7079 298.953 78.3874C299.632 78.6345 300.31 78.6963 300.989 78.9434C303.58 79.9318 305.925 81.3525 308.393 82.588C310.614 83.6999 312.959 84.5647 314.995 85.8619C317.956 87.7151 320.547 89.939 323.201 92.1628C324.496 93.2129 325.977 94.0777 327.211 95.2514C329.802 97.6606 331.962 100.379 334.183 103.097C335.17 104.27 336.342 105.32 337.268 106.556C337.453 106.309 337.638 106.062 337.823 105.815C337.823 105.815 337.823 105.815 337.885 105.938C338.131 105.691 338.317 105.382 338.563 105.135C338.255 105.135 338.193 104.95 338.008 103.961C337.823 102.664 339.18 102.849 340.044 103.405C344.795 98.2165 349.978 93.5218 355.53 89.3212C355.037 88.7653 355.037 87.9005 356.394 88.5182C356.394 88.0858 356.641 88.0858 356.949 88.2093C360.219 85.8002 363.613 83.6381 367.068 81.5996C366.513 80.6113 365.649 79.6229 367.562 80.1171C367.993 80.1788 368.302 80.4877 368.549 80.7966C369.042 80.5495 369.536 80.3024 370.029 79.9935C370.461 79.7464 370.893 79.5611 371.263 79.314C372.374 78.6963 373.485 78.0786 374.657 77.5226C374.657 77.4608 374.595 77.5226 374.657 77.3373C374.657 75.7312 374.41 76.0401 375.952 76.0401C376.384 76.0401 376.446 76.3489 376.57 76.5342C378.606 75.6077 380.703 74.8046 382.801 74.0016C383.233 73.8162 383.726 73.6309 384.158 73.4456C392.549 70.2952 401.372 68.1331 410.504 67.0212C411.738 66.8977 412.971 66.7741 414.205 66.6506C417.537 66.3417 420.931 66.2182 424.324 66.2182C424.447 66.2182 424.509 66.2182 424.632 66.2182C424.632 65.2298 425.681 63.9326 425.866 66.2182C426.668 66.2182 427.409 66.28 428.211 66.28C430 66.3417 431.789 66.4653 433.64 66.6506C433.764 66.28 433.887 65.9093 433.949 65.4769C434.628 65.6622 435.245 66.4653 434.813 66.7741C435.615 66.8359 436.478 66.9595 437.281 67.0212C438.144 65.2916 439.872 65.7858 439.563 67.2683C440.304 67.3919 441.106 67.3919 441.846 67.5154C443.574 67.7625 445.24 68.2567 446.905 68.5655C447.337 68.1949 447.831 68.0096 447.646 68.7509C449.497 69.1215 451.409 69.4304 453.199 69.9246C454.186 70.1716 455.173 70.6041 456.16 70.8511C458.813 71.6542 461.466 72.3955 464.058 73.3838C464.613 73.5691 465.106 73.878 465.662 74.0633C466.834 72.2719 478.063 76.4725 468.685 73.878C469.364 74.0633 469.302 74.8664 468.932 75.4841C470.721 76.2872 472.572 76.9667 474.361 77.8315C476.397 78.8198 478.372 80.0553 480.346 81.1672C481.58 81.8467 482.876 82.5262 484.048 83.2675C486.207 84.6265 488.243 86.109 490.279 87.5916C490.835 87.9622 491.39 88.3329 491.883 88.7035C491.883 88.3329 492.254 88.3946 493.056 88.2093C492.994 88.7653 493.303 89.383 493.549 89.939C495.585 91.4833 497.436 93.2129 499.349 94.8808C500.028 95.4985 500.768 96.0545 501.447 96.6722C501.817 97.0428 502.187 97.4135 502.557 97.7841C503.73 97.537 503.606 97.4752 503.853 98.896C503.73 98.896 503.73 98.896 503.668 98.896C505.21 100.379 506.691 101.923 508.172 103.529C508.48 103.838 508.789 104.147 509.097 104.517C511.442 107.174 513.601 109.892 515.699 112.733C515.761 112.795 515.822 112.918 515.884 112.98C525.139 125.705 531.679 140.407 535.072 156.098C535.628 156.407 535.689 156.654 535.257 156.901C537.849 169.441 538.404 182.536 536.553 195.941C536.8 195.632 537.232 195.694 537.664 196.93C537.232 197.115 536.8 197.238 536.43 197.424C536.43 197.424 536.43 197.424 536.43 197.362C536.43 197.362 536.43 197.424 536.43 197.486C537.849 197.856 539.144 198.474 540.502 198.906C543.093 199.709 545.684 200.574 548.152 201.624C550.373 202.551 552.533 203.663 554.631 204.836C556.975 206.072 559.258 207.369 561.479 208.79C562.775 209.655 564.07 210.581 565.304 211.57C565.86 211.631 566.292 212.064 566.415 212.558C566.662 212.743 566.909 212.99 567.217 213.238C569.191 214.844 571.166 216.45 573.017 218.241C573.017 218.241 573.078 218.303 573.14 218.365C573.325 218.365 573.325 218.365 573.634 218.241C573.757 218.674 573.695 218.735 573.757 218.921C575.3 220.465 576.534 222.195 577.953 223.863C579.495 225.716 581.161 227.569 582.518 229.546C583.999 231.708 585.233 234.055 586.529 236.341C586.714 236.711 586.961 237.02 587.146 237.329C587.331 236.649 587.824 236.217 588.441 237.885C588.195 238.008 587.886 238.07 587.639 238.194C588.38 239.615 589.182 240.974 589.86 242.456C590.292 243.506 590.662 244.495 591.094 245.545C592.637 243.939 592.698 245.854 591.958 246.533C591.711 246.286 591.465 246.039 591.156 245.792C591.773 247.336 592.143 248.942 592.698 250.487C593.007 251.475 593.439 252.463 593.747 253.452C594.056 253.205 594.303 252.958 594.611 252.71C596.092 254.44 594.611 254.378 593.871 253.761C594.118 254.687 594.426 255.614 594.673 256.54C595.413 259.753 595.722 263.088 596.092 266.362C596.277 268.092 596.709 269.76 596.771 271.551C596.894 271.675 596.894 271.613 597.079 271.798C596.894 271.984 596.894 271.984 596.771 272.107C596.956 277.111 596.647 282.238 595.783 287.365C594.056 298.237 590.169 308.244 584.678 317.078C579.187 325.85 572.091 333.448 563.824 339.44C560.43 341.91 556.728 343.887 553.026 345.802C553.088 346.173 552.78 346.852 552.348 347.161C552.163 346.914 552.039 346.729 551.854 346.482C551.422 346.667 551.052 346.976 550.682 347.161C544.636 349.941 538.157 351.732 531.555 352.968C532.604 355.439 531.555 355.315 530.26 353.153C527.052 353.709 523.905 354.389 520.635 354.512C520.141 354.512 519.709 354.389 519.216 354.45C519.463 354.45 519.709 354.45 519.956 354.697C519.463 355.5 518.846 355.624 518.044 355.068C518.29 354.697 518.537 354.512 518.784 354.45C516.686 354.45 514.527 354.203 512.429 354.08C512.429 354.512 511.997 354.574 510.948 354.018C508.789 353.833 506.629 354.018 504.47 353.647C502.989 353.4 501.632 352.906 500.151 352.597C500.028 353.153 499.287 352.844 498.855 352.288C496.017 351.609 493.179 350.868 490.403 349.941C488.922 349.385 487.503 348.767 486.084 348.15C483.122 346.914 480.284 345.493 477.508 343.887C475.965 343.022 474.485 342.096 473.004 341.169C470.351 339.378 467.821 337.401 465.415 335.363C464.304 334.374 463.07 333.571 462.022 332.521C461.898 332.397 461.775 332.336 461.713 332.274C459.677 335.548 457.456 338.575 455.05 341.54C456.284 341.293 455.79 342.405 454.803 342.961C454.001 343.455 453.754 343.578 453.569 343.455C453.26 343.825 452.89 344.134 452.582 344.505C448.695 348.953 444.376 353.03 439.749 356.736C439.317 357.168 438.885 357.601 438.391 357.848C437.034 358.898 435.676 359.825 434.257 360.813C433.455 361.369 432.653 361.863 431.851 362.419C428.396 364.581 424.879 366.681 421.177 368.411C417.475 370.141 413.588 371.561 409.701 372.797C408.714 373.106 407.789 373.415 406.802 373.662C402.853 374.774 398.843 375.762 394.709 376.318C394.339 376.318 393.968 376.318 393.598 376.441C394.709 376.75 395.141 378.048 391.747 377.43C391.13 377.306 390.698 376.997 390.513 376.689C388.045 376.936 385.516 377.121 383.048 377.183C383.048 377.306 383.048 377.43 383.048 377.492C382.554 377.368 382.369 377.245 382.061 377.183C381.073 377.183 380.025 377.183 379.037 377.183C377.125 377.183 375.15 377.059 373.238 376.874C373.114 376.997 372.744 376.874 372.374 376.812C370.461 376.627 368.549 376.503 366.636 376.194C366.636 376.503 366.636 376.874 366.636 377.183C365.834 377.183 364.847 376.318 365.526 375.947C361.947 375.33 358.492 374.527 355.037 373.538C353.988 373.229 352.939 372.859 351.952 372.55C349.299 371.685 346.769 370.758 344.24 369.708C343.252 369.276 342.265 368.843 341.278 368.411C338.378 367.052 335.478 365.569 332.764 363.963C332.394 363.778 332.023 363.593 331.653 363.346C328.383 361.307 325.237 359.145 322.275 356.736C322.09 356.612 321.967 356.427 321.781 356.304C319.005 354.08 316.414 351.671 313.884 349.138C313.514 348.767 313.205 348.458 312.897 348.088C312.897 348.088 312.835 348.026 312.773 347.964C311.971 349.694 311.478 349.014 311.848 347.038C309.689 344.69 307.591 342.281 305.678 339.748C304.938 338.76 304.136 337.772 303.457 336.722C303.087 336.598 302.717 336.474 302.346 336.351C302.408 336.104 302.593 335.857 302.778 335.671C299.323 330.544 296.3 325.108 293.894 319.425C285.194 324.243 275.693 327.703 265.759 329.618C265.204 329.741 264.711 329.803 264.217 329.927C263.168 330.112 262.181 330.359 261.132 330.482C261.749 330.791 261.811 330.853 261.255 332.027C259.96 331.409 260.021 331.409 260.453 330.544C259.466 330.668 258.479 330.73 257.492 330.791C257.368 330.791 257.368 330.853 257.245 330.915C257.245 330.853 257.245 330.915 257.245 330.791C254.839 331.038 252.433 331.224 250.026 331.224C249.348 331.224 248.607 331.224 247.929 331.224C248.422 332.521 248.237 332.274 247.003 332.768C246.756 332.089 246.571 331.594 246.448 331.224C242.006 331.162 237.502 330.853 232.998 330.174C229.789 329.679 226.704 329 223.62 328.197C223.373 328.506 222.817 328.753 221.337 328.815C219.918 328.815 218.992 327.888 221.583 327.579C221.583 327.579 221.46 327.579 221.398 327.579C220.535 327.332 219.671 327.085 218.869 326.776C218.56 328.691 217.882 328.259 217.758 326.405C215.043 325.479 212.452 324.491 209.861 323.379C208.935 323.008 208.072 322.637 207.146 322.205C203.691 320.537 200.298 318.746 197.089 316.707C196.719 316.46 196.411 316.213 196.04 315.966C193.202 314.113 190.488 312.074 187.835 309.912C187.094 309.294 186.354 308.677 185.675 308.059C185.058 307.503 184.379 307.009 183.824 306.453C183.824 306.638 183.824 306.638 183.824 306.823C183.824 308.43 182.405 309.603 182.529 305.464C182.529 305.464 182.529 305.403 182.529 305.341C181.171 304.044 179.937 302.685 178.642 301.326C178.271 300.893 177.839 300.523 177.469 300.152C174.878 297.249 172.472 294.222 170.189 291.071C169.942 290.701 169.695 290.268 169.387 289.898C167.474 287.118 165.747 284.153 164.142 281.188C163.772 280.508 163.402 279.829 163.094 279.149C161.366 275.752 159.824 272.292 158.528 268.71C155.566 269.636 152.481 270.501 149.211 271.304H149.088C146.065 272.045 142.98 272.663 139.772 273.157C138.846 273.281 137.859 273.404 136.933 273.528C134.589 273.837 132.183 274.146 129.715 274.269C128.481 274.331 127.185 274.393 125.89 274.393C123.668 274.454 121.447 274.454 119.164 274.393C118.794 274.393 118.424 274.393 118.054 274.393C118.054 274.454 118.054 274.454 118.054 274.516C117.745 275.814 116.696 276.493 116.882 274.331C116.265 274.331 115.586 274.146 114.969 274.084C112.809 273.899 110.588 273.651 108.367 273.281C106.886 273.034 105.406 272.787 103.925 272.54C103.37 272.416 102.753 272.354 102.197 272.231C101.765 272.848 101.087 273.034 101.148 271.984C99.8528 271.675 98.4955 271.181 97.1998 270.81C95.7808 270.377 94.3 270.007 92.8809 269.513C90.413 268.648 88.0068 267.536 85.6006 266.424C84.3666 265.868 83.1943 265.374 81.9604 264.756C78.3202 262.841 74.7417 260.679 71.2249 258.085C71.2249 258.085 71.1015 258.023 71.1015 257.961C70.8547 257.961 70.6696 258.085 70.2377 257.838C69.3739 257.282 69.1888 257.096 69.3122 256.849C64.1295 253.266 58.4533 250.054 52.1601 247.336C45.1265 244.248 37.5376 241.653 29.6402 239.491C24.4576 238.07 19.0898 236.835 13.7838 235.723C13.4753 235.908 13.0434 235.97 12.4881 235.723C12.4881 235.723 12.4881 235.599 12.4881 235.538C10.1436 235.043 7.86075 234.549 5.51622 234.179C-20.1503 229.669 -45.1997 228.495 -60.1924 228.248C-60.1307 228.372 -60.069 228.434 -60.0073 228.557C-59.452 228.99 -60.1924 231.152 -60.9945 229.607C-61.6732 229.793 -61.9817 229.051 -62.1051 228.248C-69.5706 228.125 -74.2596 228.248 -74.2596 228.248L-75 228.063Z" fill="url(#paint1_linear_2004_24297)"/>
</g>
</g>
<defs>
<linearGradient id="paint0_linear_2004_24297" x1="301.832" y1="401.884" x2="355.205" y2="-67.4609" gradientUnits="userSpaceOnUse">
<stop offset="0.19"/>
<stop offset="0.34" stop-color="#020202"/>
<stop offset="0.45" stop-color="#0C0A0A"/>
<stop offset="0.55" stop-color="#1C1817"/>
<stop offset="0.63" stop-color="#332C29"/>
<stop offset="0.72" stop-color="#504641"/>
<stop offset="0.8" stop-color="#74655E"/>
<stop offset="0.88" stop-color="#9E8A80"/>
<stop offset="0.95" stop-color="#CEB4A7"/>
<stop offset="1" stop-color="#F5D6C7"/>
</linearGradient>
<linearGradient id="paint1_linear_2004_24297" x1="236.726" y1="466.99" x2="290.099" y2="-2.3548" gradientUnits="userSpaceOnUse">
<stop offset="0.19"/>
<stop offset="0.34" stop-color="#020202"/>
<stop offset="0.45" stop-color="#0C0A0A"/>
<stop offset="0.55" stop-color="#1C1817"/>
<stop offset="0.63" stop-color="#332C29"/>
<stop offset="0.72" stop-color="#504641"/>
<stop offset="0.8" stop-color="#74655E"/>
<stop offset="0.88" stop-color="#9E8A80"/>
<stop offset="0.95" stop-color="#CEB4A7"/>
<stop offset="1" stop-color="#F5D6C7"/>
</linearGradient>
<clipPath id="clip0_2004_24297">
<rect width="671.894" height="312.509" fill="white" transform="translate(-9.894)"/>
</clipPath>
<clipPath id="clip1_2004_24297">
<rect width="671.894" height="312.509" fill="white" transform="translate(-75 65.1061)"/>
</clipPath>
</defs>
</svg>
