<svg width="609" height="338" viewBox="0 0 609 338" fill="none" xmlns="http://www.w3.org/2000/svg">
<g clip-path="url(#clip0_2004_24298)">
<g style="mix-blend-mode:screen" opacity="0.7">
<path d="M632.435 196.284C632.435 196.284 623.085 191.633 609.031 186.283C611.586 184.481 608.799 181.748 607.405 185.586C607.405 185.586 607.289 185.586 607.231 185.586C586.498 177.794 556.299 168.782 529.933 170.003C523.429 170.294 517.157 171.224 511.291 172.91C508.271 173.782 505.193 174.306 502.115 174.654C501.128 174.771 500.141 174.771 499.095 174.829C496.947 174.945 494.74 175.003 492.533 174.945C491.429 174.945 490.326 174.829 489.164 174.771C486.958 174.596 484.751 174.306 482.544 173.957C481.557 173.782 480.569 173.666 479.582 173.492C476.562 172.91 473.542 172.154 470.522 171.34C470.406 171.34 470.348 171.34 470.232 171.282C467.096 170.352 464.076 169.305 461.056 168.142C460.127 167.793 459.256 167.444 458.327 167.037C456.236 166.223 454.203 165.351 452.171 164.421C451.184 164.014 450.254 163.549 449.325 163.084C447.351 162.153 445.434 161.223 443.576 160.234C442.821 159.827 442.066 159.479 441.369 159.072C438.872 157.734 436.491 156.397 434.226 155.118C435.213 152.734 436.026 150.292 436.723 147.791C436.955 146.861 437.071 145.931 437.304 144.942C437.768 142.733 438.059 140.523 438.291 138.256C438.349 137.267 438.465 136.279 438.465 135.29C438.523 132.092 438.465 128.894 437.884 125.696C437.536 123.603 436.839 121.626 436.258 119.591C436.374 119.591 436.549 119.591 436.665 119.591C436.549 119.184 436.491 118.835 436.374 118.428C436.2 118.428 436.142 118.544 436.026 118.603C428.36 93.2514 403.156 76.7382 376.325 81.0409C373.015 81.5642 369.821 82.4364 366.743 83.5411C366.568 83.3085 366.336 83.076 366.162 82.8434C366.162 82.7271 366.162 82.7852 366.162 82.6108C366.046 82.0875 365.697 81.7968 365.233 81.6805C364.013 79.9943 362.677 78.3662 361.342 76.7963C360.064 75.3427 358.728 74.0053 357.335 72.668C355.244 70.6329 353.153 68.7141 350.888 66.9698C349.553 65.9232 348.159 64.9929 346.765 64.0044C344.326 62.3763 341.829 60.9227 339.273 59.5854C338.112 59.0039 337.008 58.3062 335.789 57.7247C332.014 56.0385 328.123 54.643 324.058 53.5964C322.954 53.3057 321.793 53.1313 320.631 52.8987C317.379 52.2009 314.069 51.7358 310.7 51.4451C309.423 51.3288 308.145 51.2706 306.809 51.2125C302.338 51.0962 297.808 51.2125 293.22 52.0265C289.329 52.6661 285.67 53.829 282.012 54.9919C281.431 54.4686 280.734 54.7593 280.443 55.3989C279.805 55.6315 279.166 55.6896 278.527 55.9222C276.088 56.8525 273.881 58.1899 271.558 59.3528C269.467 60.3994 267.26 61.2134 265.344 62.4345C262.556 64.1788 260.117 66.272 257.62 68.3653C256.4 69.3537 255.007 70.1678 253.845 71.2725C251.406 73.5402 249.373 76.0986 247.283 78.6569C246.354 79.7617 245.25 80.7502 244.379 81.9131C244.205 81.6805 244.031 81.4479 243.856 81.2153C243.856 81.2153 243.856 81.2153 243.798 81.3316C243.566 81.099 243.392 80.8083 243.159 80.5757C243.45 80.5757 243.508 80.4013 243.682 79.471C243.856 78.2499 242.579 78.4244 241.766 78.9477C237.294 74.0635 232.416 69.6445 227.189 65.6906C227.653 65.1673 227.653 64.3533 226.376 64.9347C226.376 64.5277 226.143 64.5277 225.853 64.644C222.775 62.3763 219.581 60.3412 216.329 58.4225C216.852 57.4921 217.665 56.5618 215.864 57.027C215.458 57.0851 215.167 57.3759 214.935 57.6666C214.47 57.434 214.006 57.2014 213.541 56.9107C213.135 56.6781 212.728 56.5037 212.38 56.2711C211.334 55.6896 210.289 55.1082 209.186 54.5849C209.186 54.5267 209.244 54.5849 209.186 54.4105C209.186 52.8987 209.418 53.1894 207.966 53.1894C207.56 53.1894 207.501 53.4801 207.385 53.6546C205.469 52.7824 203.494 52.0265 201.52 51.2706C201.113 51.0962 200.649 50.9217 200.242 50.7473C192.344 47.7819 184.039 45.7468 175.444 44.7002C174.283 44.5839 173.121 44.4676 171.96 44.3514C168.824 44.0606 165.63 43.9443 162.435 43.9443C162.319 43.9443 162.261 43.9443 162.145 43.9443C162.145 43.014 161.158 41.793 160.984 43.9443C160.229 43.9443 159.532 44.0025 158.777 44.0025C157.093 44.0606 155.408 44.1769 153.666 44.3514C153.55 44.0025 153.434 43.6536 153.376 43.2466C152.737 43.421 152.156 44.1769 152.563 44.4676C151.808 44.5258 150.995 44.6421 150.24 44.7002C149.427 43.0722 147.801 43.5373 148.091 44.9328C147.394 45.0491 146.639 45.0491 145.942 45.1654C144.316 45.398 142.748 45.8631 141.18 46.1539C140.773 45.805 140.309 45.6305 140.483 46.3283C138.741 46.6772 136.941 46.9679 135.256 47.433C134.327 47.6656 133.398 48.0726 132.469 48.3052C129.972 49.0611 127.474 49.7588 125.035 50.6892C124.513 50.8636 124.048 51.1543 123.525 51.3288C122.422 49.6426 111.852 53.5964 120.68 51.1543C120.041 51.3288 120.099 52.0847 120.447 52.6661C118.763 53.422 117.021 54.0616 115.337 54.8756C113.42 55.8059 111.562 56.9688 109.703 58.0154C108.542 58.655 107.322 59.2946 106.219 59.9924C104.186 61.2716 102.27 62.6671 100.353 64.0625C99.8307 64.4114 99.308 64.7603 98.8434 65.1091C98.8434 64.7603 98.495 64.8184 97.74 64.644C97.7981 65.1673 97.5077 65.7487 97.2754 66.272C95.3589 67.7257 93.6167 69.3537 91.8164 70.9237C91.1776 71.5051 90.4807 72.0284 89.8419 72.6099C89.4934 72.9587 89.145 73.3076 88.7965 73.6565C87.6931 73.4239 87.8092 73.3657 87.5769 74.7031C87.6931 74.7031 87.6931 74.7031 87.7512 74.7031C86.2993 76.0986 84.9055 77.5522 83.5117 79.064C83.2213 79.3547 82.9309 79.6454 82.6406 79.9943C80.4337 82.4945 78.4011 85.0529 76.4266 87.7276C76.3685 87.7857 76.3104 87.902 76.2523 87.9602C67.5411 99.938 61.3852 113.777 58.191 128.545C57.6684 128.836 57.6103 129.069 58.0168 129.301C55.5776 141.105 55.055 153.431 56.7972 166.049C56.5649 165.758 56.1584 165.816 55.7519 166.979C56.1584 167.154 56.5649 167.27 56.9134 167.444C56.9134 167.444 56.9134 167.444 56.9134 167.386C56.9134 167.386 56.9134 167.444 56.9134 167.503C55.5777 167.851 54.3581 168.433 53.0804 168.84C50.6413 169.596 48.2021 170.41 45.8792 171.398C43.7885 172.27 41.7559 173.317 39.7813 174.422C37.5745 175.585 35.4257 176.806 33.335 178.143C32.1154 178.957 30.8959 179.829 29.7344 180.76C29.2117 180.818 28.8052 181.225 28.689 181.69C28.4567 181.864 28.2244 182.097 27.9341 182.33C26.0757 183.841 24.2173 185.353 22.475 187.039C22.475 187.039 22.4169 187.097 22.3588 187.156C22.1846 187.156 22.1846 187.156 21.8943 187.039C21.7781 187.446 21.8362 187.505 21.7781 187.679C20.3262 189.133 19.1647 190.761 17.829 192.331C16.3771 194.075 14.8091 195.819 13.5315 197.68C12.1377 199.715 10.9762 201.924 9.75659 204.076C9.5824 204.425 9.3501 204.715 9.17584 205.006C9.00165 204.367 8.53705 203.96 7.9563 205.529C8.1886 205.646 8.47894 205.704 8.71124 205.82C8.01434 207.158 7.2594 208.437 6.62054 209.832C6.21405 210.821 5.8656 211.751 5.45911 212.739C4.0072 211.228 3.94916 213.03 4.64606 213.67C4.87836 213.437 5.1106 213.205 5.401 212.972C4.82025 214.426 4.4718 215.937 3.9491 217.391C3.65875 218.321 3.25226 219.252 2.96185 220.182C2.67151 219.949 2.43921 219.717 2.1488 219.484C0.755005 221.112 2.1488 221.054 2.8457 220.473C2.6134 221.345 2.32306 222.217 2.09076 223.089C1.39386 226.113 1.10352 229.253 0.755066 232.334C0.580811 233.962 0.174255 235.532 0.116211 237.219C6.10352e-05 237.335 6.10352e-05 237.277 -0.174194 237.451C6.10352e-05 237.626 6.10352e-05 237.626 0.116211 237.742C-0.0580444 242.452 0.232361 247.278 1.04541 252.104C2.67151 262.337 6.3302 271.757 11.4989 280.071C16.6675 288.328 23.3461 295.48 31.1282 301.12C34.3223 303.446 37.8068 305.306 41.2913 307.109C41.2332 307.458 41.5236 308.097 41.9301 308.388C42.1043 308.156 42.2205 307.981 42.3947 307.749C42.8012 307.923 43.1497 308.214 43.4981 308.388C49.1894 311.005 55.2873 312.691 61.5013 313.854C60.514 316.18 61.5013 316.063 62.7209 314.028C65.7408 314.551 68.7026 315.191 71.7806 315.307C72.2451 315.307 72.6517 315.191 73.1163 315.249C72.884 315.249 72.6517 315.249 72.4194 315.482C72.884 316.238 73.4647 316.354 74.2197 315.831C73.9874 315.482 73.7551 315.307 73.5228 315.249C75.4974 315.249 77.53 315.017 79.5045 314.9C79.5045 315.307 79.911 315.366 80.8983 314.842C82.9309 314.668 84.9636 314.842 86.9962 314.493C88.39 314.261 89.6676 313.796 91.0614 313.505C91.1776 314.028 91.8745 313.737 92.2809 313.214C94.9524 312.575 97.6238 311.877 100.237 311.005C101.631 310.481 102.967 309.9 104.302 309.318C107.09 308.156 109.761 306.818 112.375 305.306C113.827 304.492 115.221 303.62 116.614 302.748C119.112 301.062 121.493 299.201 123.758 297.282C124.803 296.352 125.964 295.596 126.952 294.608C127.068 294.491 127.184 294.433 127.242 294.375C129.159 297.457 131.249 300.306 133.514 303.097C132.353 302.864 132.817 303.911 133.746 304.434C134.501 304.899 134.734 305.016 134.908 304.899C135.198 305.248 135.547 305.539 135.837 305.888C139.496 310.074 143.561 313.912 147.917 317.401C148.323 317.808 148.73 318.215 149.194 318.447C150.472 319.436 151.75 320.308 153.085 321.238C153.84 321.761 154.595 322.227 155.35 322.75C158.602 324.785 161.913 326.762 165.397 328.39C168.882 330.018 172.54 331.355 176.199 332.518C177.128 332.809 177.999 333.1 178.929 333.332C182.645 334.379 186.42 335.309 190.311 335.833C190.66 335.833 191.008 335.833 191.357 335.949C190.311 336.24 189.905 337.461 193.099 336.879C193.68 336.763 194.086 336.472 194.26 336.181C196.583 336.414 198.964 336.588 201.287 336.647C201.287 336.763 201.287 336.879 201.287 336.937C201.752 336.821 201.926 336.705 202.217 336.647C203.146 336.647 204.133 336.647 205.062 336.647C206.863 336.647 208.721 336.53 210.521 336.356C210.638 336.472 210.986 336.356 211.334 336.298C213.135 336.123 214.935 336.007 216.735 335.716C216.735 336.007 216.735 336.356 216.735 336.647C217.49 336.647 218.42 335.833 217.781 335.484C221.149 334.902 224.401 334.146 227.653 333.216C228.641 332.925 229.628 332.576 230.557 332.286C233.054 331.472 235.435 330.6 237.817 329.611C238.746 329.204 239.675 328.797 240.604 328.39C243.334 327.111 246.063 325.715 248.618 324.204C248.967 324.029 249.315 323.855 249.664 323.622C252.742 321.703 255.704 319.668 258.491 317.401C258.665 317.284 258.782 317.11 258.956 316.994C261.569 314.9 264.008 312.633 266.389 310.249C266.738 309.9 267.028 309.609 267.319 309.26C267.319 309.26 267.377 309.202 267.435 309.144C268.19 310.772 268.654 310.132 268.306 308.272C270.338 306.062 272.313 303.795 274.113 301.411C274.81 300.48 275.565 299.55 276.204 298.562C276.552 298.445 276.901 298.329 277.249 298.213C277.191 297.98 277.017 297.748 276.843 297.573C280.095 292.747 282.941 287.63 285.206 282.281C293.394 286.816 302.338 290.072 311.688 291.875C312.21 291.991 312.675 292.049 313.14 292.166C314.127 292.34 315.056 292.573 316.043 292.689C315.463 292.98 315.405 293.038 315.927 294.143C317.147 293.561 317.089 293.561 316.682 292.747C317.611 292.863 318.541 292.922 319.47 292.98C319.586 292.98 319.586 293.038 319.702 293.096C319.702 293.038 319.702 293.096 319.702 292.98C321.967 293.212 324.232 293.387 326.497 293.387C327.136 293.387 327.833 293.387 328.471 293.387C328.007 294.608 328.181 294.375 329.342 294.84C329.575 294.201 329.749 293.736 329.865 293.387C334.047 293.329 338.286 293.038 342.526 292.398C345.545 291.933 348.449 291.293 351.353 290.538C351.585 290.828 352.108 291.061 353.502 291.119C354.837 291.119 355.708 290.247 353.269 289.956C353.269 289.956 353.385 289.956 353.444 289.956C354.257 289.724 355.07 289.491 355.825 289.2C356.115 291.003 356.754 290.596 356.87 288.851C359.425 287.979 361.864 287.049 364.304 286.002C365.175 285.653 365.988 285.305 366.859 284.897C370.111 283.328 373.305 281.641 376.325 279.723C376.674 279.49 376.964 279.257 377.312 279.025C379.984 277.281 382.539 275.362 385.036 273.327C385.733 272.745 386.43 272.164 387.069 271.582C387.65 271.059 388.288 270.594 388.811 270.071C388.811 270.245 388.811 270.245 388.811 270.419C388.811 271.931 390.147 273.036 390.031 269.14C390.031 269.14 390.031 269.082 390.031 269.024C391.308 267.803 392.47 266.524 393.689 265.244C394.038 264.837 394.444 264.489 394.793 264.14C397.232 261.407 399.497 258.558 401.646 255.592C401.878 255.244 402.11 254.837 402.401 254.488C404.201 251.871 405.827 249.08 407.337 246.289C407.685 245.65 408.034 245.01 408.324 244.37C409.95 241.172 411.402 237.916 412.622 234.544C415.409 235.416 418.313 236.23 421.391 236.986H421.507C424.353 237.684 427.257 238.265 430.277 238.73C431.148 238.847 432.077 238.963 432.948 239.079C435.155 239.37 437.42 239.661 439.743 239.777C440.904 239.835 442.124 239.893 443.343 239.893C445.434 239.951 447.525 239.951 449.674 239.893C450.022 239.893 450.37 239.893 450.719 239.893C450.719 239.951 450.719 239.951 450.719 240.01C451.009 241.231 451.997 241.87 451.822 239.835C452.403 239.835 453.042 239.661 453.623 239.603C455.655 239.428 457.746 239.195 459.837 238.847C461.23 238.614 462.624 238.381 464.018 238.149C464.541 238.033 465.121 237.974 465.644 237.858C466.051 238.44 466.69 238.614 466.631 237.626C467.851 237.335 469.129 236.87 470.348 236.521C471.684 236.114 473.078 235.765 474.413 235.3C476.736 234.486 479.001 233.439 481.266 232.393C482.428 231.869 483.531 231.404 484.693 230.823C488.119 229.02 491.487 226.985 494.798 224.543C494.798 224.543 494.914 224.485 494.914 224.427C495.146 224.427 495.32 224.543 495.727 224.31C496.54 223.787 496.714 223.613 496.598 223.38C501.476 220.008 506.819 216.984 512.743 214.426C519.363 211.518 526.507 209.076 533.94 207.041C538.818 205.704 543.871 204.541 548.865 203.494C549.156 203.669 549.562 203.727 550.085 203.494C550.085 203.494 550.085 203.378 550.085 203.32C552.292 202.855 554.441 202.39 556.647 202.041C580.807 197.796 604.385 196.691 618.497 196.459C618.439 196.575 618.381 196.633 618.323 196.75C617.8 197.157 618.497 199.192 619.252 197.738C619.891 197.912 620.181 197.215 620.297 196.459C627.325 196.343 631.738 196.459 631.738 196.459L632.435 196.284Z" fill="url(#paint0_linear_2004_24298)"/>
</g>
</g>
<g clip-path="url(#clip1_2004_24298)">
<g style="mix-blend-mode:screen" opacity="0.7">
<path d="M755 153.387C755 153.387 745.65 148.735 731.596 143.386C734.151 141.583 731.364 138.85 729.97 142.688C729.97 142.688 729.854 142.688 729.796 142.688C709.063 134.897 678.864 125.884 652.498 127.105C645.994 127.396 639.721 128.326 633.856 130.012C630.836 130.885 627.758 131.408 624.68 131.757C623.693 131.873 622.706 131.873 621.66 131.931C619.511 132.047 617.305 132.106 615.098 132.047C613.994 132.047 612.891 131.931 611.729 131.873C609.523 131.699 607.316 131.408 605.109 131.059C604.122 130.885 603.134 130.768 602.147 130.594C599.127 130.012 596.107 129.257 593.087 128.442C592.971 128.442 592.913 128.442 592.797 128.384C589.661 127.454 586.641 126.407 583.621 125.244C582.692 124.896 581.821 124.547 580.892 124.14C578.801 123.326 576.768 122.454 574.736 121.523C573.748 121.116 572.819 120.651 571.89 120.186C569.916 119.256 567.999 118.325 566.141 117.337C565.386 116.93 564.631 116.581 563.934 116.174C561.437 114.837 559.056 113.499 556.791 112.22C557.778 109.836 558.591 107.394 559.288 104.894C559.52 103.963 559.636 103.033 559.869 102.045C560.333 99.8351 560.624 97.6256 560.856 95.3579C560.914 94.3695 561.03 93.381 561.03 92.3925C561.088 89.1946 561.03 85.9966 560.449 82.7986C560.101 80.7054 559.404 78.7284 558.823 76.6934C558.939 76.6934 559.114 76.6934 559.23 76.6934C559.114 76.2863 559.056 75.9375 558.939 75.5305C558.765 75.5305 558.707 75.6468 558.591 75.7049C550.925 50.3537 525.721 33.8405 498.89 38.1432C495.58 38.6665 492.386 39.5387 489.308 40.6434C489.133 40.4108 488.901 40.1783 488.727 39.9457C488.727 39.8294 488.727 39.8875 488.727 39.7131C488.611 39.1898 488.262 38.8991 487.798 38.7828C486.578 37.0966 485.242 35.4685 483.907 33.8986C482.629 32.445 481.293 31.1076 479.9 29.7703C477.809 27.7352 475.718 25.8164 473.453 24.0721C472.117 23.0255 470.724 22.0951 469.33 21.1067C466.891 19.4786 464.394 18.025 461.838 16.6877C460.677 16.1062 459.573 15.4085 458.354 14.827C454.579 13.1408 450.688 11.7453 446.623 10.6987C445.519 10.408 444.358 10.2336 443.196 10.001C439.944 9.30324 436.634 8.83807 433.265 8.54735C431.988 8.43106 430.71 8.37291 429.374 8.31477C424.903 8.19848 420.373 8.31477 415.785 9.1288C411.894 9.7684 408.235 10.9313 404.576 12.0942C403.996 11.5709 403.299 11.8616 403.008 12.5012C402.37 12.7338 401.731 12.7919 401.092 13.0245C398.653 13.9548 396.446 15.2922 394.123 16.4551C392.032 17.5017 389.825 18.3157 387.909 19.5368C385.121 21.2811 382.682 23.3743 380.185 25.4676C378.965 26.456 377.572 27.2701 376.41 28.3748C373.971 30.6425 371.938 33.2009 369.848 35.7592C368.918 36.864 367.815 37.8525 366.944 39.0154C366.77 38.7828 366.595 38.5502 366.421 38.3176C366.421 38.3176 366.421 38.3176 366.363 38.4339C366.131 38.2013 365.957 37.9106 365.724 37.678C366.015 37.678 366.073 37.5036 366.247 36.5733C366.421 35.3522 365.144 35.5267 364.331 36.05C359.859 31.1658 354.981 26.7468 349.754 22.7929C350.218 22.2696 350.218 21.4556 348.941 22.037C348.941 21.63 348.708 21.63 348.418 21.7463C345.34 19.4786 342.146 17.4435 338.894 15.5248C339.416 14.5944 340.229 13.6641 338.429 14.1293C338.023 14.1874 337.732 14.4781 337.5 14.7689C337.035 14.5363 336.571 14.3037 336.106 14.013C335.7 13.7804 335.293 13.606 334.945 13.3734C333.899 12.7919 332.854 12.2105 331.751 11.6872C331.751 11.629 331.809 11.6872 331.751 11.5127C331.751 10.001 331.983 10.2917 330.531 10.2917C330.125 10.2917 330.066 10.5824 329.95 10.7569C328.034 9.88469 326.059 9.1288 324.085 8.37291C323.678 8.19848 323.214 8.02404 322.807 7.84961C314.909 4.88421 306.604 2.84913 298.009 1.80252C296.848 1.68623 295.686 1.56994 294.525 1.45365C291.389 1.16293 288.194 1.04664 285 1.04664C284.884 1.04664 284.826 1.04664 284.71 1.04664C284.71 0.116315 283.723 -1.10473 283.548 1.04664C282.793 1.04664 282.097 1.10478 281.342 1.10478C279.657 1.16293 277.973 1.27922 276.231 1.45365C276.115 1.10478 275.999 0.755911 275.941 0.348895C275.302 0.52333 274.721 1.27922 275.128 1.56994C274.373 1.62809 273.56 1.74438 272.805 1.80252C271.992 0.17446 270.365 0.63962 270.656 2.0351C269.959 2.15139 269.204 2.15139 268.507 2.26768C266.881 2.50026 265.313 2.96542 263.745 3.25615C263.338 2.90728 262.874 2.73284 263.048 3.43058C261.306 3.77945 259.505 4.07018 257.821 4.53534C256.892 4.76792 255.963 5.17494 255.034 5.40752C252.536 6.1634 250.039 6.86114 247.6 7.79146C247.077 7.9659 246.613 8.25662 246.09 8.43106C244.987 6.74485 234.417 10.6987 243.245 8.25662C242.606 8.43106 242.664 9.18694 243.012 9.7684C241.328 10.5243 239.586 11.1639 237.902 11.9779C235.985 12.9082 234.127 14.0711 232.268 15.1177C231.107 15.7573 229.887 16.3969 228.784 17.0947C226.751 18.3739 224.835 19.7693 222.918 21.1648C222.396 21.5137 221.873 21.8626 221.408 22.2114C221.408 21.8626 221.06 21.9207 220.305 21.7463C220.363 22.2696 220.073 22.851 219.84 23.3743C217.924 24.828 216.182 26.456 214.381 28.0259C213.742 28.6074 213.046 29.1307 212.407 29.7122C212.058 30.061 211.71 30.4099 211.361 30.7588C210.258 30.5262 210.374 30.468 210.142 31.8054C210.258 31.8054 210.258 31.8054 210.316 31.8054C208.864 33.2009 207.47 34.6545 206.077 36.1663C205.786 36.457 205.496 36.7477 205.206 37.0966C202.999 39.5968 200.966 42.1552 198.992 44.8299C198.933 44.888 198.875 45.0043 198.817 45.0625C190.106 57.0403 183.95 70.8789 180.756 85.6477C180.233 85.9384 180.175 86.171 180.582 86.4036C178.143 98.207 177.62 110.534 179.362 123.151C179.13 122.861 178.723 122.919 178.317 124.082C178.723 124.256 179.13 124.372 179.478 124.547C179.478 124.547 179.478 124.547 179.478 124.489C179.478 124.489 179.478 124.547 179.478 124.605C178.143 124.954 176.923 125.535 175.645 125.942C173.206 126.698 170.767 127.512 168.444 128.501C166.353 129.373 164.321 130.419 162.346 131.524C160.139 132.687 157.991 133.908 155.9 135.245C154.68 136.059 153.461 136.932 152.299 137.862C151.777 137.92 151.37 138.327 151.254 138.792C151.022 138.967 150.789 139.199 150.499 139.432C148.641 140.944 146.782 142.455 145.04 144.142C145.04 144.142 144.982 144.2 144.924 144.258C144.75 144.258 144.75 144.258 144.459 144.142C144.343 144.549 144.401 144.607 144.343 144.781C142.891 146.235 141.73 147.863 140.394 149.433C138.942 151.177 137.374 152.922 136.096 154.782C134.703 156.817 133.541 159.027 132.322 161.178C132.147 161.527 131.915 161.818 131.741 162.108C131.567 161.469 131.102 161.062 130.521 162.632C130.754 162.748 131.044 162.806 131.276 162.923C130.579 164.26 129.824 165.539 129.185 166.934C128.779 167.923 128.431 168.853 128.024 169.842C126.572 168.33 126.514 170.132 127.211 170.772C127.443 170.54 127.676 170.307 127.966 170.074C127.385 171.528 127.037 173.04 126.514 174.493C126.224 175.424 125.817 176.354 125.527 177.284C125.236 177.052 125.004 176.819 124.714 176.587C123.32 178.215 124.714 178.157 125.411 177.575C125.178 178.447 124.888 179.319 124.656 180.192C123.959 183.215 123.668 186.355 123.32 189.437C123.146 191.065 122.739 192.635 122.681 194.321C122.565 194.437 122.565 194.379 122.391 194.553C122.565 194.728 122.565 194.728 122.681 194.844C122.507 199.554 122.797 204.38 123.61 209.206C125.236 219.439 128.895 228.859 134.064 237.174C139.232 245.43 145.911 252.582 153.693 258.222C156.887 260.548 160.372 262.409 163.856 264.211C163.798 264.56 164.089 265.2 164.495 265.49C164.669 265.258 164.785 265.083 164.96 264.851C165.366 265.025 165.715 265.316 166.063 265.49C171.754 268.107 177.852 269.793 184.066 270.956C183.079 273.282 184.066 273.166 185.286 271.13C188.306 271.654 191.268 272.293 194.346 272.41C194.81 272.41 195.217 272.293 195.681 272.352C195.449 272.352 195.217 272.352 194.984 272.584C195.449 273.34 196.03 273.456 196.785 272.933C196.552 272.584 196.32 272.41 196.088 272.352C198.062 272.352 200.095 272.119 202.069 272.003C202.069 272.41 202.476 272.468 203.463 271.945C205.496 271.77 207.529 271.944 209.561 271.596C210.955 271.363 212.233 270.898 213.626 270.607C213.742 271.13 214.439 270.84 214.846 270.316C217.517 269.677 220.189 268.979 222.802 268.107C224.196 267.584 225.532 267.002 226.867 266.421C229.655 265.258 232.326 263.921 234.94 262.409C236.392 261.595 237.785 260.723 239.179 259.85C241.677 258.164 244.058 256.303 246.323 254.385C247.368 253.454 248.529 252.698 249.517 251.71C249.633 251.594 249.749 251.536 249.807 251.477C251.723 254.559 253.814 257.408 256.079 260.199C254.918 259.967 255.382 261.013 256.311 261.537C257.066 262.002 257.299 262.118 257.473 262.002C257.763 262.351 258.112 262.641 258.402 262.99C262.061 267.177 266.126 271.014 270.482 274.503C270.888 274.91 271.295 275.317 271.759 275.549C273.037 276.538 274.315 277.41 275.65 278.34C276.405 278.864 277.16 279.329 277.915 279.852C281.167 281.887 284.478 283.864 287.962 285.492C291.447 287.12 295.105 288.458 298.764 289.621C299.693 289.911 300.564 290.202 301.494 290.435C305.21 291.481 308.985 292.412 312.876 292.935C313.225 292.935 313.573 292.935 313.922 293.051C312.876 293.342 312.47 294.563 315.664 293.981C316.245 293.865 316.651 293.574 316.825 293.284C319.148 293.516 321.529 293.691 323.852 293.749C323.852 293.865 323.852 293.981 323.852 294.04C324.317 293.923 324.491 293.807 324.782 293.749C325.711 293.749 326.698 293.749 327.627 293.749C329.428 293.749 331.286 293.633 333.086 293.458C333.202 293.574 333.551 293.458 333.899 293.4C335.7 293.226 337.5 293.109 339.3 292.819C339.3 293.109 339.3 293.458 339.3 293.749C340.055 293.749 340.984 292.935 340.346 292.586C343.714 292.005 346.966 291.249 350.218 290.318C351.206 290.028 352.193 289.679 353.122 289.388C355.619 288.574 358 287.702 360.382 286.713C361.311 286.306 362.24 285.899 363.169 285.492C365.899 284.213 368.628 282.818 371.183 281.306C371.532 281.131 371.88 280.957 372.229 280.724C375.307 278.806 378.269 276.771 381.056 274.503C381.23 274.387 381.347 274.212 381.521 274.096C384.134 272.003 386.573 269.735 388.954 267.351C389.303 267.002 389.593 266.711 389.884 266.363C389.884 266.363 389.942 266.304 390 266.246C390.755 267.874 391.219 267.235 390.871 265.374C392.903 263.165 394.878 260.897 396.678 258.513C397.375 257.583 398.13 256.652 398.769 255.664C399.117 255.548 399.466 255.431 399.814 255.315C399.756 255.082 399.582 254.85 399.408 254.675C402.66 249.849 405.506 244.733 407.771 239.383C415.959 243.919 424.903 247.175 434.253 248.977C434.775 249.093 435.24 249.152 435.705 249.268C436.692 249.442 437.621 249.675 438.608 249.791C438.028 250.082 437.969 250.14 438.492 251.245C439.712 250.663 439.654 250.663 439.247 249.849C440.176 249.966 441.106 250.024 442.035 250.082C442.151 250.082 442.151 250.14 442.267 250.198C442.267 250.14 442.267 250.198 442.267 250.082C444.532 250.315 446.797 250.489 449.062 250.489C449.701 250.489 450.397 250.489 451.036 250.489C450.572 251.71 450.746 251.477 451.907 251.943C452.14 251.303 452.314 250.838 452.43 250.489C456.612 250.431 460.851 250.14 465.09 249.501C468.11 249.035 471.014 248.396 473.918 247.64C474.15 247.931 474.673 248.163 476.067 248.221C477.402 248.221 478.273 247.349 475.834 247.058C475.834 247.058 475.95 247.058 476.008 247.058C476.822 246.826 477.635 246.593 478.39 246.303C478.68 248.105 479.319 247.698 479.435 245.954C481.99 245.081 484.429 244.151 486.868 243.105C487.74 242.756 488.553 242.407 489.424 242C492.676 240.43 495.87 238.744 498.89 236.825C499.238 236.592 499.529 236.36 499.877 236.127C502.549 234.383 505.104 232.464 507.601 230.429C508.298 229.847 508.995 229.266 509.634 228.685C510.215 228.161 510.853 227.696 511.376 227.173C511.376 227.347 511.376 227.347 511.376 227.522C511.376 229.033 512.712 230.138 512.596 226.242C512.596 226.242 512.596 226.184 512.596 226.126C513.873 224.905 515.035 223.626 516.254 222.347C516.603 221.94 517.009 221.591 517.358 221.242C519.797 218.509 522.062 215.66 524.211 212.695C524.443 212.346 524.675 211.939 524.966 211.59C526.766 208.973 528.392 206.182 529.902 203.391C530.25 202.752 530.599 202.112 530.889 201.473C532.515 198.275 533.967 195.019 535.187 191.646C537.974 192.518 540.878 193.332 543.956 194.088H544.072C546.918 194.786 549.822 195.367 552.842 195.833C553.713 195.949 554.642 196.065 555.513 196.181C557.72 196.472 559.985 196.763 562.308 196.879C563.469 196.937 564.689 196.996 565.908 196.996C567.999 197.054 570.09 197.054 572.239 196.996C572.587 196.996 572.935 196.996 573.284 196.996C573.284 197.054 573.284 197.054 573.284 197.112C573.574 198.333 574.562 198.972 574.387 196.937C574.968 196.937 575.607 196.763 576.188 196.705C578.22 196.53 580.311 196.298 582.402 195.949C583.795 195.716 585.189 195.484 586.583 195.251C587.106 195.135 587.686 195.077 588.209 194.96C588.616 195.542 589.254 195.716 589.196 194.728C590.416 194.437 591.694 193.972 592.913 193.623C594.249 193.216 595.643 192.867 596.978 192.402C599.301 191.588 601.566 190.541 603.831 189.495C604.993 188.971 606.096 188.506 607.258 187.925C610.684 186.122 614.052 184.087 617.363 181.645C617.363 181.645 617.479 181.587 617.479 181.529C617.711 181.529 617.885 181.645 618.292 181.413C619.105 180.889 619.279 180.715 619.163 180.482C624.041 177.11 629.384 174.086 635.308 171.528C641.928 168.621 649.072 166.179 656.505 164.144C661.383 162.806 666.436 161.643 671.43 160.597C671.721 160.771 672.127 160.829 672.65 160.597C672.65 160.597 672.65 160.48 672.65 160.422C674.857 159.957 677.006 159.492 679.212 159.143C703.372 154.898 726.95 153.794 741.062 153.561C741.004 153.677 740.946 153.736 740.888 153.852C740.365 154.259 741.062 156.294 741.817 154.84C742.456 155.015 742.746 154.317 742.862 153.561C749.889 153.445 754.303 153.561 754.303 153.561L755 153.387Z" fill="url(#paint1_linear_2004_24298)"/>
</g>
</g>
<defs>
<linearGradient id="paint0_linear_2004_24298" x1="339.016" y1="421.18" x2="288.777" y2="-20.6015" gradientUnits="userSpaceOnUse">
<stop offset="0.19"/>
<stop offset="0.34" stop-color="#020202"/>
<stop offset="0.45" stop-color="#0C0A0A"/>
<stop offset="0.55" stop-color="#1C1817"/>
<stop offset="0.63" stop-color="#332C29"/>
<stop offset="0.72" stop-color="#504641"/>
<stop offset="0.8" stop-color="#74655E"/>
<stop offset="0.88" stop-color="#9E8A80"/>
<stop offset="0.95" stop-color="#CEB4A7"/>
<stop offset="1" stop-color="#F5D6C7"/>
</linearGradient>
<linearGradient id="paint1_linear_2004_24298" x1="461.581" y1="378.282" x2="411.342" y2="-63.4992" gradientUnits="userSpaceOnUse">
<stop offset="0.19"/>
<stop offset="0.34" stop-color="#020202"/>
<stop offset="0.45" stop-color="#0C0A0A"/>
<stop offset="0.55" stop-color="#1C1817"/>
<stop offset="0.63" stop-color="#332C29"/>
<stop offset="0.72" stop-color="#504641"/>
<stop offset="0.8" stop-color="#74655E"/>
<stop offset="0.88" stop-color="#9E8A80"/>
<stop offset="0.95" stop-color="#CEB4A7"/>
<stop offset="1" stop-color="#F5D6C7"/>
</linearGradient>
<clipPath id="clip0_2004_24298">
<rect width="632.435" height="294.156" fill="white" transform="matrix(-1 0 0 1 632.435 42.8977)"/>
</clipPath>
<clipPath id="clip1_2004_24298">
<rect width="632.435" height="294.156" fill="white" transform="matrix(-1 0 0 1 755 0)"/>
</clipPath>
</defs>
</svg>
