<svg width="421" height="556" viewBox="0 0 421 556" fill="none" xmlns="http://www.w3.org/2000/svg">
<g clip-path="url(#clip0_2004_23803)">
<g style="mix-blend-mode:multiply" opacity="0.6">
<path d="M414.326 382.069H413.381C413.381 380.769 412.377 379.765 411.137 379.765H406.884C405.644 379.765 404.64 380.769 404.64 382.01L403.577 382.069C402.041 382.069 400.801 383.31 400.801 384.846V404.165C400.801 405.701 402.041 406.942 403.577 406.942H404.64V407.828C404.64 409.068 405.644 410.073 406.884 410.073H407.003L404.699 427.974C407.062 423.307 407.298 414.149 407.298 410.073H411.137C411.137 414.149 411.373 423.307 413.735 427.974L411.373 410.014C412.436 409.837 413.263 408.95 413.263 407.828V406.942H414.208C415.744 406.942 416.984 405.701 416.984 404.165V384.846C416.984 383.31 415.744 382.069 414.208 382.069H414.326Z" fill="url(#paint0_linear_2004_23803)"/>
<path d="M420.882 365.408C398.202 350.816 390.406 333.505 387.926 325.648H388.93C390.997 325.648 392.65 323.993 392.65 321.926C392.65 320.803 392.119 319.858 391.41 319.208C391.824 315.959 389.52 309.873 387.63 305.561C387.04 304.202 384.795 304.379 384.795 305.856C384.972 314.127 381.429 318.263 381.429 318.263H346.288C352.194 314.718 356.092 308.633 356.092 301.779C356.092 293.213 350.008 286.005 341.563 283.228V281.87C341.563 279.802 339.909 278.148 337.842 278.148H330.105C328.038 278.148 326.384 279.802 326.384 281.87V283.228C317.938 286.005 311.855 293.213 311.855 301.779C311.855 308.633 315.753 314.718 321.659 318.263H302.169V261.546C303.941 262.491 305.949 263.023 308.134 263.023C314.217 263.023 319.297 258.828 320.714 253.216C322.191 258.828 327.211 263.023 333.294 263.023C340.381 263.023 346.051 257.41 346.288 250.38H347.114C347.114 250.38 347.469 250.026 347.232 249.848C346.878 249.612 346.583 249.376 346.228 249.139C345.815 242.286 340.204 236.851 333.235 236.851C332.231 236.851 331.227 236.969 330.282 237.205C299.629 211.151 291.892 183.797 290.357 176.885C291.951 175.939 293.074 174.285 293.074 172.336C293.074 169.382 290.711 167.018 287.758 167.018H238.206V161.229H242.34V152.544H232.536V116.387C233.54 116.387 234.426 116.269 235.076 116.269C249.605 115.324 259.763 95.4727 262.657 90.1556C262.657 90.1556 207.967 125.781 154.103 25.9358L152.685 13.2337C154.575 12.6429 155.934 10.9886 155.934 8.92083C155.934 7.2666 154.989 5.90776 153.69 5.08065C154.162 4.54893 154.516 3.83997 154.516 3.01285C154.516 1.29954 153.099 -0.118378 151.386 -0.118378C149.673 -0.118378 148.256 1.29954 148.256 3.01285C148.256 3.78089 148.551 4.48985 149.083 5.08065C147.783 5.84868 146.838 7.2666 146.838 8.92083C146.838 11.0477 148.315 12.7019 150.205 13.2337L148.787 25.7586C138.629 45.4912 97.995 115.796 43.5998 91.5735C43.5998 91.5735 51.3368 113.847 72.1263 116.269C72.6578 116.269 73.2484 116.387 73.8391 116.446V152.544H63.3853V161.229H69.4095V167.018H25.1728C22.2197 167.018 19.8573 169.382 19.8573 172.336C19.8573 175.29 22.2197 177.653 25.1728 177.653H26.5312C15.723 203.766 -7.9014 225.448 -24.3794 238.15C-26.0922 237.323 -27.9231 236.851 -29.9312 236.851C-37.1366 236.851 -42.9836 242.7 -42.9836 249.907C-42.9836 257.115 -37.1366 262.964 -29.9312 262.964C-22.7257 262.964 -17.174 257.351 -16.9377 250.321H-14.5753C-14.3391 257.351 -8.61013 262.964 -1.58186 262.964C0.485268 262.964 2.43429 262.432 4.14706 261.605V345.498H-16.2881L-18.8277 326.061C-16.9377 325.884 -15.4021 324.348 -15.4021 322.398V320.271C-6.95642 317.495 -0.873131 310.287 -0.873131 301.72C-0.873131 293.154 -6.95642 285.946 -15.4021 283.169V281.81C-15.4021 279.743 -17.0559 278.088 -19.123 278.088H-26.86C-28.9271 278.088 -30.5808 279.743 -30.5808 281.81V283.169C-39.0266 285.946 -45.1098 293.154 -45.1098 301.72C-45.1098 310.287 -39.0266 317.495 -30.5808 320.271V322.398C-30.5808 324.466 -28.9271 326.12 -26.86 326.12H-26.3284L-28.8681 345.498H-56.8039C-56.8039 345.498 -59.8751 341.954 -59.757 334.746C-59.757 333.505 -61.706 333.328 -62.1785 334.51C-63.8322 338.291 -65.7812 343.549 -65.4268 346.385C-66.0765 346.975 -66.549 347.803 -66.549 348.748C-66.549 350.52 -65.1315 351.938 -63.3597 351.938H-62.4738C-64.659 358.732 -71.392 373.739 -91.0593 386.382C-91.1774 386.441 -91.1184 386.677 -91.0002 386.677H4.088V556H301.992V501.942H393.005V365.704H420.704C420.704 365.704 420.941 365.467 420.763 365.408H420.882ZM178.672 167.077H160.541V161.288H178.672V167.077ZM146.071 167.077H130.833V161.288H146.071V167.077ZM217.003 167.077H214.995V161.288H217.003V167.077ZM206.254 167.077H195.682V161.288H206.254V167.077ZM178.672 152.603H157.41V132.634C157.41 131.098 158.651 129.798 160.245 129.798H175.837C177.373 129.798 178.672 131.039 178.672 132.634V152.603ZM146.071 152.603H124.809V132.634C124.809 131.098 126.049 129.798 127.644 129.798H143.236C144.771 129.798 146.071 131.039 146.071 132.634V152.603ZM107.74 167.077H102.897V161.288H107.74V167.077ZM94.2151 167.077H86.4781V161.288H94.2151V167.077ZM195.741 152.603V132.634C195.741 131.098 196.981 129.798 198.576 129.798H214.168C215.704 129.798 217.003 131.039 217.003 132.634V152.603H195.741ZM86.4781 132.634C86.4781 131.098 87.7184 129.798 89.313 129.798H104.905C106.441 129.798 107.74 131.039 107.74 132.634V152.603H86.4781V132.634ZM-25.8559 326.179H-19.123C-19.123 330.138 -19.0639 338.054 -18.0008 345.558H-27.0372C-25.9741 338.054 -25.8559 330.138 -25.8559 326.179Z" fill="url(#paint1_linear_2004_23803)"/>
</g>
</g>
<defs>
<linearGradient id="paint0_linear_2004_23803" x1="408.952" y1="101.794" x2="408.952" y2="599.187" gradientUnits="userSpaceOnUse">
<stop stop-color="#3974AB"/>
<stop offset="1" stop-color="white"/>
</linearGradient>
<linearGradient id="paint1_linear_2004_23803" x1="164.97" y1="101.794" x2="164.97" y2="599.187" gradientUnits="userSpaceOnUse">
<stop stop-color="#3974AB"/>
<stop offset="1" stop-color="white"/>
</linearGradient>
<clipPath id="clip0_2004_23803">
<rect width="512" height="556" fill="white" transform="translate(-91)"/>
</clipPath>
</defs>
</svg>
