<svg width="378" height="472" viewBox="0 0 378 472" fill="none" xmlns="http://www.w3.org/2000/svg">
<g clip-path="url(#clip0_2004_23810)">
<g style="mix-blend-mode:multiply" opacity="0.6">
<path d="M15.254 282.773H14.2906C14.2906 281.651 13.4342 280.742 12.3103 280.742H8.56366C7.4932 280.742 6.58332 281.597 6.58332 282.719L5.78047 282.773C4.4424 282.773 3.37195 283.841 3.37195 285.177V302.059C3.37195 303.394 4.4424 304.463 5.78047 304.463H6.58332V305.211C6.58332 306.172 7.33264 306.974 8.24252 307.08L6.20866 322.787C8.29605 318.673 8.51014 310.66 8.51014 307.134H11.8821C11.8821 310.713 12.0962 318.727 14.1836 322.787L12.1497 307.134H12.2567C13.3272 307.134 14.2371 306.279 14.2371 305.157V304.409H15.2005C16.5386 304.409 17.609 303.341 17.609 302.005V285.123C17.609 283.788 16.5386 282.719 15.2005 282.719L15.254 282.773Z" fill="url(#paint0_linear_2004_23810)"/>
<path d="M451.893 270.913C429.949 256.862 423.901 239.82 422.455 234.264H423.9C425.667 234.264 427.165 232.821 427.165 231.005C427.165 230.043 426.737 229.188 426.041 228.601C426.416 225.769 424.382 220.48 422.723 216.634C422.188 215.459 420.207 215.619 420.261 216.901C420.422 224.167 417.317 227.746 417.317 227.746H384.668V219.732C390.77 219.679 395.694 214.657 395.694 208.513C395.694 202.37 390.716 197.294 384.561 197.294C382.902 197.294 381.35 197.668 379.905 198.363C352.341 174.91 346.132 150.014 345.115 145.099H348.54C351.056 145.099 353.143 143.069 353.143 140.505C353.143 137.994 351.11 135.91 348.54 135.91H333.822V82.3796H344.044V76.3427C346.56 75.2743 348.433 73.0839 349.129 70.3593C350.146 74.2058 353.572 77.0373 357.746 77.0373C362.67 77.0373 366.685 73.0305 366.685 68.1155C366.685 63.2005 362.67 59.1937 357.746 59.1937C355.391 59.1937 353.197 60.1553 351.591 61.6512C331.788 45.4637 326.061 28.4749 324.669 22.9189C326.864 22.8654 328.63 21.1024 328.63 18.8586C328.63 17.6299 328.095 16.6148 327.238 15.8669C327.667 12.3409 325.204 5.66294 323.117 0.85479C322.475 -0.641079 319.959 -0.427383 320.013 1.17533C320.227 10.3108 316.32 14.7984 316.32 14.7984H156.501C156.501 14.7984 152.593 10.2574 152.808 1.17533C152.808 -0.427383 150.346 -0.641079 149.703 0.85479C147.776 5.3424 145.475 11.4327 145.528 15.119C143.976 15.7066 142.852 17.1491 142.852 18.9121C142.852 21.1559 144.672 22.9723 146.92 22.9723H147.402C140.39 39.0529 125.725 52.5157 114.86 60.8498C113.415 59.8348 111.649 59.1937 109.722 59.1937C104.798 59.1937 100.783 63.2005 100.783 68.1155C100.783 71.6949 102.924 74.74 105.975 76.1825V86.4399H103.888C102.443 86.4399 101.319 87.6152 101.319 89.0042V89.9658C95.4312 91.8891 91.2029 96.9109 91.2029 102.894C91.2029 108.878 95.4312 113.846 101.319 115.823V117.265C101.319 118.708 102.496 119.83 103.888 119.83C103.888 124.317 103.674 136.071 100.783 141.787C100.623 142.108 100.783 142.482 101.051 142.642C101.158 142.642 101.265 142.695 101.319 142.695C101.533 142.695 101.747 142.588 101.854 142.375C104.905 136.338 105.119 124.424 105.119 119.83H106.136L106.296 141.947C106.296 142.268 106.564 142.588 106.939 142.588C107.26 142.588 107.581 142.321 107.581 141.947L107.42 119.83H108.598C108.598 124.424 108.758 136.284 111.863 142.375C111.97 142.588 112.184 142.695 112.398 142.695C112.505 142.695 112.612 142.695 112.665 142.642C112.987 142.482 113.094 142.108 112.933 141.787C109.989 136.017 109.775 124.104 109.829 119.723C110.953 119.456 111.809 118.494 111.809 117.265V115.823C117.697 113.9 121.925 108.878 121.925 102.894C121.925 96.9109 117.697 91.9425 111.809 89.9658V89.0042C111.809 87.5618 110.632 86.4399 109.24 86.4399H107.153V76.6633C107.955 76.877 108.758 77.0373 109.668 77.0373C113.95 77.0373 117.59 73.9921 118.392 69.9319H120.319C120.426 70.5195 120.587 71.0538 120.801 71.5346V82.3262H130.863V135.857H122.032C119.516 135.857 117.429 137.887 117.429 140.451C117.429 142.962 119.463 145.046 122.032 145.046H122.514C117.697 157.494 109.508 168.819 100.73 178.329H100.623V178.436C93.2367 186.449 85.4224 193.234 78.9461 198.309C77.501 197.668 75.9489 197.241 74.2896 197.241C68.1345 197.241 63.1569 202.263 63.1569 208.46C63.1569 214.657 68.1345 219.679 74.2896 219.679C74.6643 219.679 75.039 219.626 75.3601 219.572V224.915H34.6828C34.6828 224.915 31.5785 221.335 31.739 214.07C31.739 212.787 29.7587 212.627 29.277 213.802C27.6178 217.595 25.6374 222.938 25.9586 225.769C25.2628 226.357 24.8346 227.212 24.8346 228.173C24.8346 229.936 26.2797 231.432 28.0995 231.432H29.5446C28.0995 236.988 22.0514 254.031 0.107055 268.081C9.41008e-06 268.134 0.0535322 268.348 0.160578 268.348H24.4064V387.59H75.3601V471.947H89.7042V387.59H100.569V471.947H357.586V390.368H370.324V471.947H384.668V390.368H427.594V271.126H451.839C451.839 271.126 452.053 270.913 451.893 270.859V270.913ZM158.963 105.138H305.562V135.964H158.963V105.138Z" fill="url(#paint1_linear_2004_23810)"/>
<path d="M363.58 89.111C363.58 87.6686 362.403 86.5467 361.011 86.5467H355.605C354.16 86.5467 353.036 87.722 353.036 89.111V90.0727C347.149 91.9959 342.921 97.0178 342.921 103.001C342.921 108.985 347.149 113.953 353.036 115.93V117.372C353.036 118.815 354.214 119.937 355.605 119.937H355.98L353.09 142.214C356.087 136.338 356.301 124.478 356.248 119.937H360.958C360.958 124.424 361.118 136.284 364.116 142.214L361.225 119.937C362.563 119.83 363.58 118.761 363.58 117.426V115.983C369.468 114.06 373.696 109.038 373.696 103.055C373.696 97.0712 369.468 92.1028 363.58 90.1261V89.1645V89.111Z" fill="url(#paint2_linear_2004_23810)"/>
</g>
</g>
<defs>
<linearGradient id="paint0_linear_2004_23810" x1="10.544" y1="32.3749" x2="10.544" y2="456.026" gradientUnits="userSpaceOnUse">
<stop stop-color="#3974AB"/>
<stop offset="1" stop-color="white"/>
</linearGradient>
<linearGradient id="paint1_linear_2004_23810" x1="225.973" y1="32.3749" x2="225.973" y2="456.026" gradientUnits="userSpaceOnUse">
<stop stop-color="#3974AB"/>
<stop offset="1" stop-color="white"/>
</linearGradient>
<linearGradient id="paint2_linear_2004_23810" x1="358.335" y1="32.3749" x2="358.335" y2="456.026" gradientUnits="userSpaceOnUse">
<stop stop-color="#3974AB"/>
<stop offset="1" stop-color="white"/>
</linearGradient>
<clipPath id="clip0_2004_23810">
<rect width="452" height="472" fill="white"/>
</clipPath>
</defs>
</svg>
