<svg width="212" height="212" viewBox="0 0 212 212" fill="none" xmlns="http://www.w3.org/2000/svg">
<g style="mix-blend-mode:screen">
<path d="M102.35 59.6394L105.274 100.489L89.0961 62.8865C87.7967 59.3147 89.6159 55.4181 93.1893 54.1192C96.7627 52.8204 100.661 54.6388 101.96 58.2106C102.155 58.6652 102.285 59.1848 102.35 59.7043V59.6394Z" fill="url(#paint0_radial_2004_23858)"/>
<path d="M110.731 151.404L107.808 110.555L123.985 148.157C125.285 151.729 123.466 155.625 119.892 156.924C116.319 158.223 112.421 156.405 111.121 152.833C110.926 152.378 110.796 151.859 110.731 151.339V151.404Z" fill="url(#paint1_radial_2004_23858)"/>
<path d="M152.443 101.333L111.576 104.255L149.194 88.0845C152.768 86.7856 156.666 88.604 157.965 92.1759C159.265 95.7477 157.445 99.6443 153.872 100.943C153.417 101.138 152.897 101.268 152.378 101.333H152.443Z" fill="url(#paint2_radial_2004_23858)"/>
<path d="M60.6388 109.71L101.506 106.788L63.8874 122.959C60.314 124.258 56.4157 122.439 55.1163 118.867C53.8169 115.296 55.6361 111.399 59.2095 110.1C59.6643 109.905 60.184 109.775 60.7038 109.71H60.6388Z" fill="url(#paint3_radial_2004_23858)"/>
<path d="M141.917 135.038L110.991 108.282L148.999 123.413C152.443 124.972 153.937 129.064 152.313 132.506C150.753 135.947 146.66 137.441 143.217 135.818C142.762 135.623 142.307 135.298 141.917 135.038Z" fill="url(#paint4_radial_2004_23858)"/>
<path d="M71.0991 76.005L102.025 102.762L64.0173 87.6298C60.5739 86.0712 59.0795 81.9798 60.7038 78.5378C62.2631 75.0958 66.3563 73.6021 69.7997 75.2257C70.2545 75.4205 70.7093 75.7453 71.0991 76.005Z" fill="url(#paint5_radial_2004_23858)"/>
<path d="M77.0115 140.948L103.779 110.035L88.6413 148.027C87.082 151.469 82.9888 152.963 79.5453 151.339C76.1019 149.715 74.6076 145.689 76.2318 142.247C76.4267 141.792 76.7516 141.338 77.0115 140.948Z" fill="url(#paint6_radial_2004_23858)"/>
<path d="M136.005 70.0952L109.237 101.008L124.375 63.0164C125.935 59.5744 130.028 58.0808 133.471 59.7043C136.915 61.263 138.409 65.3544 136.785 68.7964C136.59 69.251 136.265 69.7056 136.005 70.0952Z" fill="url(#paint7_radial_2004_23858)"/>
<path d="M87.6667 171.991L102.415 133.804L100.986 174.718C100.661 178.485 97.3474 181.278 93.5791 180.953C89.8107 180.628 87.017 177.316 87.3419 173.55C87.3419 173.03 87.4718 172.51 87.6667 172.056V171.991Z" fill="url(#paint8_radial_2004_23858)"/>
<path d="M125.935 41.1306L111.186 79.3171L112.616 38.403C112.94 34.6363 116.254 31.8438 120.022 32.1685C123.79 32.4932 126.584 35.8053 126.259 39.572C126.259 40.0915 126.129 40.6111 125.935 41.0657V41.1306Z" fill="url(#paint9_radial_2004_23858)"/>
<path d="M89.6808 6.06136L92.2147 46.9105L76.4268 9.17863C75.1273 5.60676 77.0115 1.71018 80.5849 0.411317C84.1583 -0.887544 88.0565 0.995805 89.356 4.56767C89.5509 5.02227 89.6158 5.60676 89.6808 6.06136Z" fill="url(#paint10_radial_2004_23858)"/>
<path d="M122.166 204.982L119.632 164.133L135.42 201.865C136.72 205.437 134.836 209.333 131.262 210.632C127.689 211.931 123.791 210.048 122.491 206.476C122.296 206.021 122.231 205.437 122.166 204.982Z" fill="url(#paint11_radial_2004_23858)"/>
<path d="M21.3964 50.6123L53.3621 76.1999L14.7694 62.4969C11.261 61.0681 9.6367 57.0417 11.0661 53.5347C12.4954 50.0278 16.5236 48.4042 20.032 49.833C20.4868 50.0278 20.9416 50.2876 21.3964 50.6123Z" fill="url(#paint12_radial_2004_23858)"/>
<path d="M190.451 160.431L158.485 134.843L197.078 148.546C200.586 149.975 202.21 154.002 200.781 157.509C199.352 161.016 195.323 162.639 191.815 161.21C191.36 161.016 190.905 160.756 190.451 160.431Z" fill="url(#paint13_radial_2004_23858)"/>
<path d="M6.12824 119.712L47.0599 118.023L8.98695 133.025C5.41356 134.194 1.5153 132.246 0.345828 128.674C-0.823648 125.102 1.06051 121.205 4.69888 120.036C5.15367 119.907 5.73841 119.777 6.19321 119.712H6.12824Z" fill="url(#paint14_radial_2004_23858)"/>
<path d="M205.719 91.3316L164.787 93.0201L202.86 78.0183C206.433 76.8493 210.332 78.7976 211.501 82.3695C212.671 85.9413 210.787 89.8379 207.148 91.0069C206.693 91.1368 206.109 91.2667 205.654 91.3316H205.719Z" fill="url(#paint15_radial_2004_23858)"/>
<path d="M49.0091 188.681L75.3872 157.379L60.7038 195.565C59.1445 199.007 55.1163 200.566 51.6729 199.007C48.2294 197.449 46.6701 193.422 48.2294 189.98C48.4243 189.526 48.7492 189.071 49.0091 188.681Z" fill="url(#paint16_radial_2004_23858)"/>
<path d="M162.903 22.3621L136.525 53.6646L151.208 15.4781C152.768 12.0361 156.796 10.4775 160.239 12.0361C163.683 13.5948 165.242 17.6212 163.683 21.0632C163.488 21.5178 163.163 21.9724 162.903 22.3621Z" fill="url(#paint17_radial_2004_23858)"/>
<path d="M46.865 139.13L84.3532 122.634L54.3367 150.495C51.413 152.898 47.1249 152.508 44.721 149.586C42.317 146.663 42.7069 142.377 45.6306 139.974C46.0204 139.649 46.4752 139.325 46.93 139.13H46.865Z" fill="url(#paint18_radial_2004_23858)"/>
<path d="M166.671 73.9918L129.183 90.4873L159.2 62.6268C162.123 60.2239 166.411 60.6135 168.815 63.536C171.219 66.4584 170.829 70.7447 167.906 73.1475C167.516 73.4723 167.061 73.797 166.606 73.9918H166.671Z" fill="url(#paint19_radial_2004_23858)"/>
<path d="M40.6278 89.8379L79.3504 103.151L38.4188 103.281C34.6505 103.086 31.7268 99.8391 31.9217 96.0724C32.1166 92.3057 35.3651 89.3833 39.1335 89.5781C39.6532 89.5781 40.173 89.708 40.6278 89.8379Z" fill="url(#paint20_radial_2004_23858)"/>
<path d="M172.909 123.219L134.186 109.905L175.118 109.775C178.886 109.97 181.81 113.217 181.615 116.984C181.42 120.751 178.171 123.673 174.403 123.478C173.883 123.478 173.363 123.349 172.909 123.219Z" fill="url(#paint21_radial_2004_23858)"/>
<path d="M73.8279 46.8456L90.5254 84.1879L62.458 54.379C59.9891 51.4566 60.3789 47.1703 63.3026 44.7025C66.2263 42.2346 70.5144 42.6243 72.9833 45.5467C73.3081 45.9364 73.633 46.391 73.8279 46.8456Z" fill="url(#paint22_radial_2004_23858)"/>
<path d="M139.773 166.211L123.076 128.869L151.143 158.678C153.612 161.6 153.222 165.886 150.299 168.354C147.375 170.822 143.087 170.432 140.618 167.51C140.293 167.12 139.968 166.666 139.773 166.211Z" fill="url(#paint23_radial_2004_23858)"/>
<path d="M121.711 16.6471C115.084 18.2707 117.618 28.5317 124.245 26.9081C130.872 25.2845 128.339 15.0235 121.711 16.6471Z" fill="url(#paint24_radial_2004_23858)"/>
<path d="M173.623 58.4055L173.753 58.8601C175.377 65.4843 185.643 62.9515 184.019 56.3273L183.889 55.8727C182.264 49.2485 171.999 51.7813 173.623 58.4055Z" fill="url(#paint25_radial_2004_23858)"/>
<path d="M193.439 113.867C186.812 115.49 189.346 125.751 195.973 124.128C202.6 122.504 200.066 112.243 193.439 113.867Z" fill="url(#paint26_radial_2004_23858)"/>
<path d="M153.677 173.874C147.05 175.498 149.584 185.759 156.211 184.135C162.838 182.512 160.304 172.251 153.677 173.874Z" fill="url(#paint27_radial_2004_23858)"/>
<path d="M87.6667 187.707C81.0397 189.331 83.5736 199.592 90.2006 197.968C96.8276 196.345 94.2938 186.084 87.6667 187.707Z" fill="url(#paint28_radial_2004_23858)"/>
<path d="M34.2607 150.819C27.6336 152.443 30.1675 162.704 36.7945 161.08C43.4216 159.457 40.8877 149.196 34.2607 150.819Z" fill="url(#paint29_radial_2004_23858)"/>
<path d="M19.2524 87.3701C12.6253 88.9936 15.1592 99.2546 21.7862 97.6311C28.4133 96.0075 25.8794 85.7465 19.2524 87.3701Z" fill="url(#paint30_radial_2004_23858)"/>
<path d="M55.1813 30.1552C48.5542 31.7788 51.0881 42.0398 57.7151 40.4162C64.3422 38.7927 61.8083 28.5317 55.1813 30.1552Z" fill="url(#paint31_radial_2004_23858)"/>
</g>
<defs>
<radialGradient id="paint0_radial_2004_23858" cx="0" cy="0" r="1" gradientUnits="userSpaceOnUse" gradientTransform="translate(96.9753 77.0943) rotate(90) scale(23.3942 8.29854)">
<stop stop-color="#0036AF"/>
<stop offset="1" stop-color="#001749"/>
</radialGradient>
<radialGradient id="paint1_radial_2004_23858" cx="0" cy="0" r="1" gradientUnits="userSpaceOnUse" gradientTransform="translate(116.106 133.949) rotate(90) scale(23.3942 8.29854)">
<stop stop-color="#0036AF"/>
<stop offset="1" stop-color="#001749"/>
</radialGradient>
<radialGradient id="paint2_radial_2004_23858" cx="0" cy="0" r="1" gradientUnits="userSpaceOnUse" gradientTransform="translate(134.98 95.9603) rotate(90) scale(8.29498 23.4043)">
<stop stop-color="#0036AF"/>
<stop offset="1" stop-color="#001749"/>
</radialGradient>
<radialGradient id="paint3_radial_2004_23858" cx="0" cy="0" r="1" gradientUnits="userSpaceOnUse" gradientTransform="translate(78.1012 115.083) rotate(90) scale(8.29499 23.4043)">
<stop stop-color="#0036AF"/>
<stop offset="1" stop-color="#001749"/>
</radialGradient>
<radialGradient id="paint4_radial_2004_23858" cx="0" cy="0" r="1" gradientUnits="userSpaceOnUse" gradientTransform="translate(131.98 122.378) rotate(90) scale(14.0962 20.9892)">
<stop stop-color="#0036AF"/>
<stop offset="1" stop-color="#001749"/>
</radialGradient>
<radialGradient id="paint5_radial_2004_23858" cx="0" cy="0" r="1" gradientUnits="userSpaceOnUse" gradientTransform="translate(81.0361 88.6654) rotate(90) scale(14.0962 20.9891)">
<stop stop-color="#0036AF"/>
<stop offset="1" stop-color="#001749"/>
</radialGradient>
<radialGradient id="paint6_radial_2004_23858" cx="0" cy="0" r="1" gradientUnits="userSpaceOnUse" gradientTransform="translate(89.6772 131.015) rotate(90) scale(20.9802 14.1022)">
<stop stop-color="#0036AF"/>
<stop offset="1" stop-color="#001749"/>
</radialGradient>
<radialGradient id="paint7_radial_2004_23858" cx="0" cy="0" r="1" gradientUnits="userSpaceOnUse" gradientTransform="translate(123.339 80.028) rotate(90) scale(20.9802 14.1022)">
<stop stop-color="#0036AF"/>
<stop offset="1" stop-color="#001749"/>
</radialGradient>
<radialGradient id="paint8_radial_2004_23858" cx="0" cy="0" r="1" gradientUnits="userSpaceOnUse" gradientTransform="translate(94.8656 157.392) rotate(90) scale(23.5872 7.54947)">
<stop stop-color="#0036AF"/>
<stop offset="1" stop-color="#001749"/>
</radialGradient>
<radialGradient id="paint9_radial_2004_23858" cx="0" cy="0" r="1" gradientUnits="userSpaceOnUse" gradientTransform="translate(118.736 55.73) rotate(90) scale(23.5872 7.54947)">
<stop stop-color="#0036AF"/>
<stop offset="1" stop-color="#001749"/>
</radialGradient>
<radialGradient id="paint10_radial_2004_23858" cx="0" cy="0" r="1" gradientUnits="userSpaceOnUse" gradientTransform="translate(84.115 23.4553) rotate(90) scale(23.4553 8.09971)">
<stop stop-color="#0036AF"/>
<stop offset="1" stop-color="#001749"/>
</radialGradient>
<radialGradient id="paint11_radial_2004_23858" cx="0" cy="0" r="1" gradientUnits="userSpaceOnUse" gradientTransform="translate(127.732 187.588) rotate(90) scale(23.4553 8.09971)">
<stop stop-color="#0036AF"/>
<stop offset="1" stop-color="#001749"/>
</radialGradient>
<radialGradient id="paint12_radial_2004_23858" cx="0" cy="0" r="1" gradientUnits="userSpaceOnUse" gradientTransform="translate(31.9551 62.7576) rotate(90) scale(13.4423 21.407)">
<stop stop-color="#0036AF"/>
<stop offset="1" stop-color="#001749"/>
</radialGradient>
<radialGradient id="paint13_radial_2004_23858" cx="0" cy="0" r="1" gradientUnits="userSpaceOnUse" gradientTransform="translate(179.892 148.286) rotate(90) scale(13.4423 21.407)">
<stop stop-color="#0036AF"/>
<stop offset="1" stop-color="#001749"/>
</radialGradient>
<radialGradient id="paint14_radial_2004_23858" cx="0" cy="0" r="1" gradientUnits="userSpaceOnUse" gradientTransform="translate(23.53 125.694) rotate(90) scale(7.6706 23.5299)">
<stop stop-color="#0036AF"/>
<stop offset="1" stop-color="#001749"/>
</radialGradient>
<radialGradient id="paint15_radial_2004_23858" cx="0" cy="0" r="1" gradientUnits="userSpaceOnUse" gradientTransform="translate(188.317 85.3495) rotate(90) scale(7.6706 23.5299)">
<stop stop-color="#0036AF"/>
<stop offset="1" stop-color="#001749"/>
</radialGradient>
<radialGradient id="paint16_radial_2004_23858" cx="0" cy="0" r="1" gradientUnits="userSpaceOnUse" gradientTransform="translate(61.5055 178.496) rotate(90) scale(21.1169 13.8817)">
<stop stop-color="#0036AF"/>
<stop offset="1" stop-color="#001749"/>
</radialGradient>
<radialGradient id="paint17_radial_2004_23858" cx="0" cy="0" r="1" gradientUnits="userSpaceOnUse" gradientTransform="translate(150.407 32.5477) rotate(90) scale(21.1169 13.8817)">
<stop stop-color="#0036AF"/>
<stop offset="1" stop-color="#001749"/>
</radialGradient>
<radialGradient id="paint18_radial_2004_23858" cx="0" cy="0" r="1" gradientUnits="userSpaceOnUse" gradientTransform="translate(63.7507 137.35) rotate(90) scale(14.7163 20.6025)">
<stop stop-color="#0036AF"/>
<stop offset="1" stop-color="#001749"/>
</radialGradient>
<radialGradient id="paint19_radial_2004_23858" cx="0" cy="0" r="1" gradientUnits="userSpaceOnUse" gradientTransform="translate(149.786 75.771) rotate(90) scale(14.7163 20.6025)">
<stop stop-color="#0036AF"/>
<stop offset="1" stop-color="#001749"/>
</radialGradient>
<radialGradient id="paint20_radial_2004_23858" cx="0" cy="0" r="1" gradientUnits="userSpaceOnUse" gradientTransform="translate(55.6315 96.425) rotate(90) scale(6.85609 23.719)">
<stop stop-color="#0036AF"/>
<stop offset="1" stop-color="#001749"/>
</radialGradient>
<radialGradient id="paint21_radial_2004_23858" cx="0" cy="0" r="1" gradientUnits="userSpaceOnUse" gradientTransform="translate(157.905 116.632) rotate(90) scale(6.8561 23.719)">
<stop stop-color="#0036AF"/>
<stop offset="1" stop-color="#001749"/>
</radialGradient>
<radialGradient id="paint22_radial_2004_23858" cx="0" cy="0" r="1" gradientUnits="userSpaceOnUse" gradientTransform="translate(75.6785 63.6323) rotate(90) scale(20.5555 14.8469)">
<stop stop-color="#0036AF"/>
<stop offset="1" stop-color="#001749"/>
</radialGradient>
<radialGradient id="paint23_radial_2004_23858" cx="0" cy="0" r="1" gradientUnits="userSpaceOnUse" gradientTransform="translate(137.923 149.424) rotate(90) scale(20.5555 14.8469)">
<stop stop-color="#0036AF"/>
<stop offset="1" stop-color="#001749"/>
</radialGradient>
<radialGradient id="paint24_radial_2004_23858" cx="0" cy="0" r="1" gradientUnits="userSpaceOnUse" gradientTransform="translate(122.978 21.7776) rotate(90) scale(5.30405 5.14773)">
<stop stop-color="#0036AF"/>
<stop offset="1" stop-color="#001749"/>
</radialGradient>
<radialGradient id="paint25_radial_2004_23858" cx="0" cy="0" r="1" gradientUnits="userSpaceOnUse" gradientTransform="translate(178.821 57.3664) rotate(90) scale(5.37282 5.37129)">
<stop stop-color="#0036AF"/>
<stop offset="1" stop-color="#001749"/>
</radialGradient>
<radialGradient id="paint26_radial_2004_23858" cx="0" cy="0" r="1" gradientUnits="userSpaceOnUse" gradientTransform="translate(194.706 118.997) rotate(90) scale(5.30405 5.14773)">
<stop stop-color="#0036AF"/>
<stop offset="1" stop-color="#001749"/>
</radialGradient>
<radialGradient id="paint27_radial_2004_23858" cx="0" cy="0" r="1" gradientUnits="userSpaceOnUse" gradientTransform="translate(154.944 179.005) rotate(90) scale(5.30405 5.14773)">
<stop stop-color="#0036AF"/>
<stop offset="1" stop-color="#001749"/>
</radialGradient>
<radialGradient id="paint28_radial_2004_23858" cx="0" cy="0" r="1" gradientUnits="userSpaceOnUse" gradientTransform="translate(88.9337 192.838) rotate(90) scale(5.30405 5.14773)">
<stop stop-color="#0036AF"/>
<stop offset="1" stop-color="#001749"/>
</radialGradient>
<radialGradient id="paint29_radial_2004_23858" cx="0" cy="0" r="1" gradientUnits="userSpaceOnUse" gradientTransform="translate(35.5276 155.95) rotate(90) scale(5.30405 5.14773)">
<stop stop-color="#0036AF"/>
<stop offset="1" stop-color="#001749"/>
</radialGradient>
<radialGradient id="paint30_radial_2004_23858" cx="0" cy="0" r="1" gradientUnits="userSpaceOnUse" gradientTransform="translate(20.5193 92.5006) rotate(90) scale(5.30405 5.14773)">
<stop stop-color="#0036AF"/>
<stop offset="1" stop-color="#001749"/>
</radialGradient>
<radialGradient id="paint31_radial_2004_23858" cx="0" cy="0" r="1" gradientUnits="userSpaceOnUse" gradientTransform="translate(56.4482 35.2857) rotate(90) scale(5.30405 5.14773)">
<stop stop-color="#0036AF"/>
<stop offset="1" stop-color="#001749"/>
</radialGradient>
</defs>
</svg>
