<svg width="171" height="170" viewBox="0 0 171 170" fill="none" xmlns="http://www.w3.org/2000/svg">
<g style="mix-blend-mode:screen" clip-path="url(#clip0_2004_23819)">
<g style="mix-blend-mode:screen">
<path d="M82.5618 48.0371L84.9123 80.893L71.8376 50.604C70.8092 47.7437 72.2783 44.5902 75.143 43.4901C78.0077 42.4633 81.1662 43.9301 82.1945 46.7903C82.3414 47.157 82.4149 47.5971 82.4883 47.9638L82.5618 48.0371Z" fill="url(#paint0_radial_2004_23819)"/>
<path d="M89.3195 121.963L86.969 89.107L100.044 119.396C101.072 122.256 99.603 125.41 96.7383 126.51C93.8736 127.537 90.7151 126.07 89.6868 123.21C89.5399 122.843 89.4664 122.403 89.393 122.036L89.3195 121.963Z" fill="url(#paint1_radial_2004_23819)"/>
<path d="M123.035 81.6264L90.1276 83.9733L120.464 70.9189C123.329 69.8921 126.487 71.3589 127.515 74.2192C128.544 77.0794 127.075 80.233 124.21 81.333C123.843 81.4797 123.402 81.5531 123.035 81.6264Z" fill="url(#paint2_radial_2004_23819)"/>
<path d="M48.92 88.3736L81.8273 86.0267L51.4909 99.0811C48.6262 100.108 45.4677 98.6411 44.4394 95.7808C43.411 92.9206 44.8801 89.767 47.7448 88.6669C48.112 88.5203 48.5528 88.4469 48.92 88.3736Z" fill="url(#paint3_radial_2004_23819)"/>
<path d="M114.514 108.762L89.5399 87.2002L120.244 99.4478C123.035 100.695 124.21 103.995 122.961 106.782C121.713 109.569 118.407 110.742 115.616 109.495C115.249 109.349 114.881 109.055 114.588 108.835L114.514 108.762Z" fill="url(#paint4_radial_2004_23819)"/>
<path d="M57.3673 61.2381L82.3415 82.7998L51.6379 70.5522C48.8466 69.3054 47.6714 66.0052 48.9201 63.2183C50.1688 60.4314 53.4742 59.258 56.2655 60.5047C56.6327 60.6514 57 60.9448 57.2938 61.1648L57.3673 61.2381Z" fill="url(#paint5_radial_2004_23819)"/>
<path d="M62.1417 113.529L83.737 88.5936L71.4703 119.249C70.2216 122.036 66.9162 123.21 64.1249 121.963C61.3337 120.716 60.1584 117.416 61.4072 114.629C61.5541 114.262 61.7744 113.896 62.0682 113.602L62.1417 113.529Z" fill="url(#paint6_radial_2004_23819)"/>
<path d="M109.74 56.4711L88.1443 81.4064L100.411 50.7506C101.66 47.9638 104.965 46.7903 107.756 48.0371C110.548 49.2839 111.723 52.5841 110.474 55.371C110.327 55.7377 110.107 56.1044 109.813 56.3978L109.74 56.4711Z" fill="url(#paint7_radial_2004_23819)"/>
<path d="M70.7358 138.538L82.6352 107.808L81.5334 140.738C81.2396 143.745 78.5953 146.018 75.5102 145.725C72.4986 145.431 70.2216 142.791 70.5154 139.711C70.5154 139.271 70.6623 138.904 70.7358 138.464V138.538Z" fill="url(#paint8_radial_2004_23819)"/>
<path d="M101.586 33.1493L89.6868 63.8783L90.7886 30.9491C91.0824 27.9422 93.7267 25.6687 96.8118 25.962C99.8234 26.2554 102.1 28.8956 101.807 31.9758C101.807 32.4159 101.66 32.7826 101.586 33.2226V33.1493Z" fill="url(#paint9_radial_2004_23819)"/>
<path d="M72.4252 4.84038L74.4819 37.7696L61.701 7.33391C60.6727 4.47368 62.2152 1.3201 65.0799 0.293353C67.9446 -0.733394 71.1031 0.806727 72.1314 3.66695C72.2783 4.03365 72.3518 4.47368 72.4252 4.84038Z" fill="url(#paint10_radial_2004_23819)"/>
<path d="M98.5748 165.16L96.5181 132.23L109.299 162.666C110.327 165.526 108.785 168.68 105.92 169.707C103.055 170.733 99.8969 169.193 98.8686 166.333C98.7217 165.966 98.6482 165.526 98.5748 165.16Z" fill="url(#paint11_radial_2004_23819)"/>
<path d="M17.335 40.7765L43.1172 61.3848L11.9729 50.3106C9.18165 49.1372 7.85948 45.9103 9.03474 43.1234C10.21 40.3365 13.442 39.0164 16.2332 40.1898C16.6005 40.3365 16.9677 40.5565 17.335 40.7765Z" fill="url(#paint12_radial_2004_23819)"/>
<path d="M153.665 129.223L127.883 108.615L159.027 119.689C161.818 120.863 163.14 124.09 161.965 126.877C160.79 129.663 157.558 130.984 154.767 129.81C154.399 129.663 154.032 129.443 153.665 129.223Z" fill="url(#paint13_radial_2004_23819)"/>
<path d="M4.99481 96.4409L37.9755 95.0475L7.27187 107.148C4.40718 108.102 1.24868 106.562 0.293781 103.628C-0.661116 100.695 0.881409 97.6143 3.81955 96.6609C4.18682 96.5142 4.62754 96.4409 5.06826 96.4409H4.99481Z" fill="url(#paint14_radial_2004_23819)"/>
<path d="M166.005 73.5591L133.024 74.9526L163.728 62.8516C166.593 61.8982 169.751 63.4383 170.706 66.3719C171.661 69.2321 170.118 72.3857 167.18 73.3391C166.813 73.4858 166.372 73.5591 165.932 73.5591H166.005Z" fill="url(#paint15_radial_2004_23819)"/>
<path d="M39.5914 152.032L60.893 126.803L49.0669 157.606C47.8182 160.393 44.5863 161.639 41.795 160.393C39.0038 159.146 37.7551 155.919 39.0038 153.132C39.1507 152.765 39.3711 152.399 39.6649 152.032H39.5914Z" fill="url(#paint16_radial_2004_23819)"/>
<path d="M131.408 18.0414L110.107 43.2701L121.933 12.4676C123.182 9.68076 126.414 8.434 129.205 9.68076C131.996 10.9275 133.245 14.1544 131.996 16.9413C131.849 17.308 131.629 17.6747 131.335 18.0414H131.408Z" fill="url(#paint17_radial_2004_23819)"/>
<path d="M37.8286 112.062L68.0915 98.7878L43.8518 121.23C41.5012 123.21 38.0489 122.843 36.0657 120.496C34.0824 118.149 34.4497 114.702 36.8002 112.722C37.094 112.429 37.4613 112.209 37.8286 112.062Z" fill="url(#paint18_radial_2004_23819)"/>
<path d="M134.493 59.6247L104.231 72.899L128.47 50.4573C130.821 48.4771 134.273 48.8438 136.256 51.1907C138.24 53.5375 137.872 56.9845 135.522 58.9646C135.228 59.258 134.861 59.478 134.493 59.6247Z" fill="url(#paint19_radial_2004_23819)"/>
<path d="M32.8337 72.3857L64.0515 83.0932H30.9974C27.9858 83.0932 25.6353 80.453 25.7822 77.3727C25.9291 74.3658 28.4999 72.019 31.585 72.1657C32.0257 72.1657 32.393 72.239 32.8337 72.3857Z" fill="url(#paint20_radial_2004_23819)"/>
<path d="M139.488 99.3011L108.271 88.5936H141.325C144.336 88.5936 146.687 91.2338 146.54 94.3141C146.393 97.321 143.822 99.6678 140.737 99.5211C140.296 99.5211 139.929 99.4478 139.488 99.3011Z" fill="url(#paint21_radial_2004_23819)"/>
<path d="M59.5709 37.7696L73.0863 67.8387L50.4626 43.7834C48.4794 41.4366 48.7732 37.9896 51.1237 36.0095C53.4742 34.0293 56.9265 34.3227 58.9098 36.6695C59.2036 36.9629 59.424 37.3296 59.5709 37.6963V37.7696Z" fill="url(#paint22_radial_2004_23819)"/>
<path d="M112.751 133.917L99.2358 103.848L121.86 127.903C123.843 130.25 123.549 133.697 121.198 135.677C118.848 137.657 115.396 137.364 113.412 135.017C113.119 134.724 112.898 134.357 112.751 133.991V133.917Z" fill="url(#paint23_radial_2004_23819)"/>
<path d="M98.2074 13.421C92.8453 14.7411 94.902 23.0285 100.191 21.7084C105.553 20.3883 103.496 12.1009 98.2074 13.421Z" fill="url(#paint24_radial_2004_23819)"/>
<path d="M140.076 47.0837V47.4504C141.472 52.8041 149.772 50.7506 148.45 45.4702V45.1035C147.054 39.7498 138.754 41.8033 140.076 47.0837Z" fill="url(#paint25_radial_2004_23819)"/>
<path d="M156.089 91.7472C150.727 93.0673 152.783 101.355 158.072 100.035C163.434 98.7144 161.378 90.4271 156.089 91.7472Z" fill="url(#paint26_radial_2004_23819)"/>
<path d="M123.99 140.078C118.628 141.398 120.684 149.685 125.973 148.365C131.335 147.045 129.278 138.758 123.99 140.078Z" fill="url(#paint27_radial_2004_23819)"/>
<path d="M70.7358 151.225C65.3737 152.545 67.4304 160.833 72.7191 159.513C78.0812 158.192 76.0245 149.905 70.7358 151.225Z" fill="url(#paint28_radial_2004_23819)"/>
<path d="M27.6185 121.523C22.2564 122.843 24.3131 131.13 29.6018 129.81C34.9639 128.49 32.9072 120.203 27.6185 121.523Z" fill="url(#paint29_radial_2004_23819)"/>
<path d="M15.5721 70.4055C10.21 71.7256 12.2667 80.0129 17.5554 78.6928C22.9175 77.3727 20.8608 69.0854 15.5721 70.4055Z" fill="url(#paint30_radial_2004_23819)"/>
<path d="M44.5128 24.2752C39.1507 25.5953 41.2074 33.8827 46.4961 32.5625C51.8582 31.2424 49.8015 22.9551 44.5128 24.2752Z" fill="url(#paint31_radial_2004_23819)"/>
</g>
</g>
<defs>
<radialGradient id="paint0_radial_2004_23819" cx="0" cy="0" r="1" gradientUnits="userSpaceOnUse" gradientTransform="translate(78.211 62.0278) rotate(90) scale(18.8652 6.70133)">
<stop stop-color="#0036AF"/>
<stop offset="1" stop-color="#001749"/>
</radialGradient>
<radialGradient id="paint1_radial_2004_23819" cx="0" cy="0" r="1" gradientUnits="userSpaceOnUse" gradientTransform="translate(93.6703 107.972) rotate(90) scale(18.8652 6.70133)">
<stop stop-color="#0036AF"/>
<stop offset="1" stop-color="#001749"/>
</radialGradient>
<radialGradient id="paint2_radial_2004_23819" cx="0" cy="0" r="1" gradientUnits="userSpaceOnUse" gradientTransform="translate(108.985 77.2824) rotate(90) scale(6.69088 18.8579)">
<stop stop-color="#0036AF"/>
<stop offset="1" stop-color="#001749"/>
</radialGradient>
<radialGradient id="paint3_radial_2004_23819" cx="0" cy="0" r="1" gradientUnits="userSpaceOnUse" gradientTransform="translate(62.9694 92.7176) rotate(90) scale(6.69088 18.8579)">
<stop stop-color="#0036AF"/>
<stop offset="1" stop-color="#001749"/>
</radialGradient>
<radialGradient id="paint4_radial_2004_23819" cx="0" cy="0" r="1" gradientUnits="userSpaceOnUse" gradientTransform="translate(106.499 98.5959) rotate(90) scale(11.3958 16.9593)">
<stop stop-color="#0036AF"/>
<stop offset="1" stop-color="#001749"/>
</radialGradient>
<radialGradient id="paint5_radial_2004_23819" cx="0" cy="0" r="1" gradientUnits="userSpaceOnUse" gradientTransform="translate(65.3822 71.404) rotate(90) scale(11.3958 16.9593)">
<stop stop-color="#0036AF"/>
<stop offset="1" stop-color="#001749"/>
</radialGradient>
<radialGradient id="paint6_radial_2004_23819" cx="0" cy="0" r="1" gradientUnits="userSpaceOnUse" gradientTransform="translate(72.3235 105.526) rotate(90) scale(16.9329 11.4136)">
<stop stop-color="#0036AF"/>
<stop offset="1" stop-color="#001749"/>
</radialGradient>
<radialGradient id="paint7_radial_2004_23819" cx="0" cy="0" r="1" gradientUnits="userSpaceOnUse" gradientTransform="translate(99.5579 64.4735) rotate(90) scale(16.9329 11.4136)">
<stop stop-color="#0036AF"/>
<stop offset="1" stop-color="#001749"/>
</radialGradient>
<radialGradient id="paint8_radial_2004_23819" cx="0" cy="0" r="1" gradientUnits="userSpaceOnUse" gradientTransform="translate(76.5626 126.779) rotate(90) scale(18.9709 6.07269)">
<stop stop-color="#0036AF"/>
<stop offset="1" stop-color="#001749"/>
</radialGradient>
<radialGradient id="paint9_radial_2004_23819" cx="0" cy="0" r="1" gradientUnits="userSpaceOnUse" gradientTransform="translate(95.7595 44.9074) rotate(90) scale(18.9709 6.07269)">
<stop stop-color="#0036AF"/>
<stop offset="1" stop-color="#001749"/>
</radialGradient>
<radialGradient id="paint10_radial_2004_23819" cx="0" cy="0" r="1" gradientUnits="userSpaceOnUse" gradientTransform="translate(67.9318 18.8721) rotate(90) scale(18.8975 6.55012)">
<stop stop-color="#0036AF"/>
<stop offset="1" stop-color="#001749"/>
</radialGradient>
<radialGradient id="paint11_radial_2004_23819" cx="0" cy="0" r="1" gradientUnits="userSpaceOnUse" gradientTransform="translate(103.068 151.128) rotate(90) scale(18.8975 6.55011)">
<stop stop-color="#0036AF"/>
<stop offset="1" stop-color="#001749"/>
</radialGradient>
<radialGradient id="paint12_radial_2004_23819" cx="0" cy="0" r="1" gradientUnits="userSpaceOnUse" gradientTransform="translate(25.8613 50.573) rotate(90) scale(10.8118 17.2559)">
<stop stop-color="#0036AF"/>
<stop offset="1" stop-color="#001749"/>
</radialGradient>
<radialGradient id="paint13_radial_2004_23819" cx="0" cy="0" r="1" gradientUnits="userSpaceOnUse" gradientTransform="translate(145.139 119.427) rotate(90) scale(10.8118 17.2559)">
<stop stop-color="#0036AF"/>
<stop offset="1" stop-color="#001749"/>
</radialGradient>
<radialGradient id="paint14_radial_2004_23819" cx="0" cy="0" r="1" gradientUnits="userSpaceOnUse" gradientTransform="translate(18.9936 101.239) rotate(90) scale(6.19128 18.9819)">
<stop stop-color="#0036AF"/>
<stop offset="1" stop-color="#001749"/>
</radialGradient>
<radialGradient id="paint15_radial_2004_23819" cx="0" cy="0" r="1" gradientUnits="userSpaceOnUse" gradientTransform="translate(152.006 68.7613) rotate(90) scale(6.19129 18.9819)">
<stop stop-color="#0036AF"/>
<stop offset="1" stop-color="#001749"/>
</radialGradient>
<radialGradient id="paint16_radial_2004_23819" cx="0" cy="0" r="1" gradientUnits="userSpaceOnUse" gradientTransform="translate(49.7062 143.84) rotate(90) scale(17.0365 11.1868)">
<stop stop-color="#0036AF"/>
<stop offset="1" stop-color="#001749"/>
</radialGradient>
<radialGradient id="paint17_radial_2004_23819" cx="0" cy="0" r="1" gradientUnits="userSpaceOnUse" gradientTransform="translate(121.294 26.2336) rotate(90) scale(17.0365 11.1868)">
<stop stop-color="#0036AF"/>
<stop offset="1" stop-color="#001749"/>
</radialGradient>
<radialGradient id="paint18_radial_2004_23819" cx="0" cy="0" r="1" gradientUnits="userSpaceOnUse" gradientTransform="translate(51.4365 110.65) rotate(90) scale(11.8619 16.6549)">
<stop stop-color="#0036AF"/>
<stop offset="1" stop-color="#001749"/>
</radialGradient>
<radialGradient id="paint19_radial_2004_23819" cx="0" cy="0" r="1" gradientUnits="userSpaceOnUse" gradientTransform="translate(120.886 61.0371) rotate(90) scale(11.8619 16.6549)">
<stop stop-color="#0036AF"/>
<stop offset="1" stop-color="#001749"/>
</radialGradient>
<radialGradient id="paint20_radial_2004_23819" cx="0" cy="0" r="1" gradientUnits="userSpaceOnUse" gradientTransform="translate(44.9136 77.6262) rotate(90) scale(5.46702 19.1379)">
<stop stop-color="#0036AF"/>
<stop offset="1" stop-color="#001749"/>
</radialGradient>
<radialGradient id="paint21_radial_2004_23819" cx="0" cy="0" r="1" gradientUnits="userSpaceOnUse" gradientTransform="translate(127.409 94.0606) rotate(90) scale(5.46702 19.1379)">
<stop stop-color="#0036AF"/>
<stop offset="1" stop-color="#001749"/>
</radialGradient>
<radialGradient id="paint22_radial_2004_23819" cx="0" cy="0" r="1" gradientUnits="userSpaceOnUse" gradientTransform="translate(61.1173 51.2679) rotate(90) scale(16.5707 11.969)">
<stop stop-color="#0036AF"/>
<stop offset="1" stop-color="#001749"/>
</radialGradient>
<radialGradient id="paint23_radial_2004_23819" cx="0" cy="0" r="1" gradientUnits="userSpaceOnUse" gradientTransform="translate(111.205 120.419) rotate(90) scale(16.5707 11.969)">
<stop stop-color="#0036AF"/>
<stop offset="1" stop-color="#001749"/>
</radialGradient>
<radialGradient id="paint24_radial_2004_23819" cx="0" cy="0" r="1" gradientUnits="userSpaceOnUse" gradientTransform="translate(99.199 17.5647) rotate(90) scale(4.28562 4.13432)">
<stop stop-color="#0036AF"/>
<stop offset="1" stop-color="#001749"/>
</radialGradient>
<radialGradient id="paint25_radial_2004_23819" cx="0" cy="0" r="1" gradientUnits="userSpaceOnUse" gradientTransform="translate(144.263 46.277) rotate(90) scale(4.31122 4.32901)">
<stop stop-color="#0036AF"/>
<stop offset="1" stop-color="#001749"/>
</radialGradient>
<radialGradient id="paint26_radial_2004_23819" cx="0" cy="0" r="1" gradientUnits="userSpaceOnUse" gradientTransform="translate(157.08 95.8908) rotate(90) scale(4.28562 4.13432)">
<stop stop-color="#0036AF"/>
<stop offset="1" stop-color="#001749"/>
</radialGradient>
<radialGradient id="paint27_radial_2004_23819" cx="0" cy="0" r="1" gradientUnits="userSpaceOnUse" gradientTransform="translate(124.981 144.221) rotate(90) scale(4.28561 4.13432)">
<stop stop-color="#0036AF"/>
<stop offset="1" stop-color="#001749"/>
</radialGradient>
<radialGradient id="paint28_radial_2004_23819" cx="0" cy="0" r="1" gradientUnits="userSpaceOnUse" gradientTransform="translate(71.7275 155.369) rotate(90) scale(4.28561 4.13432)">
<stop stop-color="#0036AF"/>
<stop offset="1" stop-color="#001749"/>
</radialGradient>
<radialGradient id="paint29_radial_2004_23819" cx="0" cy="0" r="1" gradientUnits="userSpaceOnUse" gradientTransform="translate(28.6101 125.667) rotate(90) scale(4.28562 4.13432)">
<stop stop-color="#0036AF"/>
<stop offset="1" stop-color="#001749"/>
</radialGradient>
<radialGradient id="paint30_radial_2004_23819" cx="0" cy="0" r="1" gradientUnits="userSpaceOnUse" gradientTransform="translate(16.5638 74.5492) rotate(90) scale(4.28561 4.13432)">
<stop stop-color="#0036AF"/>
<stop offset="1" stop-color="#001749"/>
</radialGradient>
<radialGradient id="paint31_radial_2004_23819" cx="0" cy="0" r="1" gradientUnits="userSpaceOnUse" gradientTransform="translate(45.5044 28.4189) rotate(90) scale(4.28562 4.13432)">
<stop stop-color="#0036AF"/>
<stop offset="1" stop-color="#001749"/>
</radialGradient>
<clipPath id="clip0_2004_23819">
<rect width="171" height="170" fill="white"/>
</clipPath>
</defs>
</svg>
