<svg width="127" height="126" viewBox="0 0 127 126" fill="none" xmlns="http://www.w3.org/2000/svg">
<g style="mix-blend-mode:screen" clip-path="url(#clip0_2005_24565)">
<g style="mix-blend-mode:screen">
<path d="M61.3399 35.6011L63.0913 59.9945L53.3999 37.5402C52.6215 35.4072 53.7113 33.0803 55.852 32.3047C57.9927 31.5291 60.3279 32.615 61.1064 34.7479C61.2231 35.0194 61.301 35.3296 61.3399 35.6399V35.6011Z" fill="url(#paint0_radial_2005_24565)"/>
<path d="M66.3607 90.3989L64.6093 66.0056L74.3006 88.4598C75.0791 90.5928 73.9893 92.9197 71.8486 93.6953C69.7079 94.4709 67.3727 93.3851 66.5942 91.2521C66.4775 90.9806 66.3996 90.6704 66.3607 90.3601V90.3989Z" fill="url(#paint1_radial_2005_24565)"/>
<path d="M91.3482 60.4986L66.8667 62.2438L89.4021 52.5872C91.5428 51.8116 93.878 52.8975 94.6565 55.0305C95.4349 57.1634 94.3451 59.4903 92.2044 60.2659C91.932 60.3823 91.6206 60.4598 91.3092 60.4986H91.3482Z" fill="url(#paint2_radial_2005_24565)"/>
<path d="M36.3524 65.5014L60.8339 63.7562L38.2985 73.4127C36.1578 74.1884 33.8225 73.1025 33.0441 70.9695C32.2657 68.8366 33.3555 66.5097 35.4962 65.7341C35.7686 65.6177 36.08 65.5402 36.3913 65.5014H36.3524Z" fill="url(#paint3_radial_2005_24565)"/>
<path d="M85.0429 80.626L66.5164 64.6482L89.2853 73.6842C91.3481 74.615 92.2433 77.0582 91.2703 79.1136C90.3362 81.169 87.8841 82.0609 85.8213 81.0914C85.5489 80.9751 85.2764 80.7812 85.0429 80.626Z" fill="url(#paint4_radial_2005_24565)"/>
<path d="M42.6188 45.374L61.1453 61.3518L38.3763 52.3158C36.3135 51.385 35.4183 48.9418 36.3914 46.8864C37.3255 44.831 39.7775 43.9391 41.8403 44.9086C42.1128 45.0249 42.3852 45.2188 42.6188 45.374Z" fill="url(#paint5_radial_2005_24565)"/>
<path d="M46.1606 84.1551L62.1961 65.6953L53.1275 88.3823C52.1934 90.4377 49.7413 91.3296 47.6785 90.3601C45.6157 89.3906 44.7205 86.9861 45.6935 84.9307C45.8103 84.6593 46.0049 84.3878 46.1606 84.1551Z" fill="url(#paint6_radial_2005_24565)"/>
<path d="M81.5011 41.8449L65.4655 60.3047L74.5342 37.6177C75.4683 35.5623 77.9203 34.6704 79.9831 35.6399C82.046 36.5706 82.9411 39.0138 81.9681 41.0693C81.8514 41.3407 81.6568 41.6122 81.5011 41.8449Z" fill="url(#paint7_radial_2005_24565)"/>
<path d="M52.5437 102.693L61.3788 79.8892L60.5225 104.321C60.3279 106.571 58.3429 108.238 56.0855 108.044C53.8281 107.85 52.1545 105.873 52.3491 103.623C52.3491 103.313 52.4269 103.003 52.5437 102.731V102.693Z" fill="url(#paint8_radial_2005_24565)"/>
<path d="M75.4683 24.5485L66.6331 47.3518L67.4894 22.9197C67.684 20.6704 69.669 19.0028 71.9264 19.1967C74.1839 19.3906 75.8575 21.3684 75.6629 23.6177C75.6629 23.928 75.585 24.2382 75.4683 24.5097V24.5485Z" fill="url(#paint9_radial_2005_24565)"/>
<path d="M53.7502 3.60664L55.2681 28L45.8103 5.46814C45.0319 3.33517 46.1606 1.0083 48.3012 0.232681C50.4419 -0.542942 52.7772 0.581712 53.5556 2.71468C53.6724 2.98614 53.7113 3.33517 53.7502 3.60664Z" fill="url(#paint10_radial_2005_24565)"/>
<path d="M73.2109 122.393L71.6929 98L81.1508 120.532C81.9292 122.665 80.8005 124.992 78.6598 125.767C76.5192 126.543 74.1839 125.418 73.4055 123.285C73.2887 123.014 73.2498 122.665 73.2109 122.393Z" fill="url(#paint11_radial_2005_24565)"/>
<path d="M12.844 30.2105L31.9933 45.4903L8.87404 37.3075C6.77229 36.4543 5.79926 34.0498 6.65553 31.9557C7.51179 29.8615 9.92491 28.892 12.0267 29.7451C12.2991 29.8615 12.5716 30.0166 12.844 30.2105Z" fill="url(#paint12_radial_2005_24565)"/>
<path d="M114.117 95.7895L94.9678 80.5097L118.087 88.6925C120.189 89.5457 121.162 91.9501 120.306 94.0443C119.449 96.1385 117.036 97.108 114.934 96.2549C114.662 96.1385 114.39 95.9834 114.117 95.7895Z" fill="url(#paint13_radial_2005_24565)"/>
<path d="M3.69751 71.4737L28.2179 70.4654L5.41004 79.4238C3.26938 80.1219 0.934102 78.9584 0.23352 76.8255C-0.467063 74.6925 0.661653 72.3656 2.84124 71.6676C3.11369 71.59 3.46398 71.5125 3.73643 71.4737H3.69751Z" fill="url(#paint14_radial_2005_24565)"/>
<path d="M123.264 54.5263L98.7432 55.5346L121.551 46.5762C123.692 45.8781 126.027 47.0416 126.728 49.1745C127.428 51.3075 126.299 53.6344 124.12 54.3324C123.847 54.41 123.497 54.4875 123.225 54.5263H123.264Z" fill="url(#paint15_radial_2005_24565)"/>
<path d="M29.3855 112.659L45.1875 93.9667L36.3913 116.77C35.4572 118.825 33.0441 119.756 30.9813 118.825C28.9185 117.895 27.9844 115.49 28.9185 113.435C29.0352 113.163 29.2298 112.892 29.3855 112.659Z" fill="url(#paint16_radial_2005_24565)"/>
<path d="M97.6145 13.3407L81.8124 32.0332L90.6086 9.22991C91.5427 7.17451 93.9559 6.24376 96.0187 7.17451C98.0815 8.10526 99.0156 10.5097 98.0815 12.5651C97.9648 12.8366 97.7701 13.108 97.6145 13.3407Z" fill="url(#paint17_radial_2005_24565)"/>
<path d="M28.1011 83.0692L50.5587 73.2188L32.5771 89.8559C30.8256 91.2908 28.2568 91.0582 26.8167 89.313C25.3766 87.5678 25.6102 85.0083 27.3616 83.5734C27.5951 83.3795 27.8676 83.1856 28.14 83.0692H28.1011Z" fill="url(#paint18_radial_2005_24565)"/>
<path d="M99.8719 44.1717L77.4143 54.0222L95.396 37.385C97.1474 35.9501 99.7162 36.1828 101.156 37.928C102.596 39.6731 102.363 42.2327 100.611 43.6676C100.378 43.8615 100.105 44.0554 99.833 44.1717H99.8719Z" fill="url(#paint19_radial_2005_24565)"/>
<path d="M24.3647 53.6343L47.5618 61.5845L23.0414 61.662C20.7839 61.5457 19.0325 59.6066 19.1493 57.3573C19.266 55.108 21.2121 53.3629 23.4695 53.4792C23.7809 53.4792 24.0923 53.5568 24.3647 53.6343Z" fill="url(#paint20_radial_2005_24565)"/>
<path d="M103.608 73.5679L80.4113 65.6177L104.932 65.5402C107.189 65.6565 108.941 67.5956 108.824 69.8449C108.707 72.0942 106.761 73.8393 104.504 73.723C104.192 73.723 103.881 73.6454 103.608 73.5679Z" fill="url(#paint21_radial_2005_24565)"/>
<path d="M44.2534 27.9612L54.2562 50.2604L37.4422 32.4598C35.9632 30.7147 36.1967 28.1551 37.9482 26.6814C39.6997 25.2077 42.2685 25.4404 43.7475 27.1856C43.9421 27.4183 44.1367 27.6897 44.2534 27.9612Z" fill="url(#paint22_radial_2005_24565)"/>
<path d="M83.7585 99.241L73.7557 76.9418L90.5697 94.7424C92.0487 96.4875 91.8152 99.0471 90.0637 100.521C88.3123 101.994 85.7435 101.762 84.2645 100.017C84.0699 99.7839 83.8753 99.5125 83.7585 99.241Z" fill="url(#paint23_radial_2005_24565)"/>
<path d="M72.9384 9.92798C68.9684 10.8975 70.4864 17.0249 74.4563 16.0554C78.4263 15.0859 76.9084 8.95845 72.9384 9.92798Z" fill="url(#paint24_radial_2005_24565)"/>
<path d="M104.036 34.8643L104.114 35.1357C105.087 39.0914 111.237 37.5789 110.264 33.6233L110.186 33.3518C109.213 29.3961 103.063 30.9086 104.036 34.8643Z" fill="url(#paint25_radial_2005_24565)"/>
<path d="M115.907 67.9834C111.937 68.9529 113.455 75.0803 117.425 74.1108C121.395 73.1413 119.877 67.0138 115.907 67.9834Z" fill="url(#paint26_radial_2005_24565)"/>
<path d="M92.0876 103.817C88.1177 104.787 89.6356 110.914 93.6056 109.945C97.5755 108.975 96.0576 102.848 92.0876 103.817Z" fill="url(#paint27_radial_2005_24565)"/>
<path d="M52.5437 112.078C48.5737 113.047 50.0916 119.174 54.0616 118.205C58.0316 117.235 56.5136 111.108 52.5437 112.078Z" fill="url(#paint28_radial_2005_24565)"/>
<path d="M20.5504 90.0499C16.5804 91.0194 18.0984 97.1468 22.0683 96.1773C26.0383 95.2078 24.5204 89.0803 20.5504 90.0499Z" fill="url(#paint29_radial_2005_24565)"/>
<path d="M11.5596 52.1606C7.58962 53.1302 9.10755 59.2576 13.0775 58.2881C17.0475 57.3185 15.5296 51.1911 11.5596 52.1606Z" fill="url(#paint30_radial_2005_24565)"/>
<path d="M33.0831 17.9944C29.1131 18.964 30.631 25.0914 34.601 24.1219C38.571 23.1523 37.053 17.0249 33.0831 17.9944Z" fill="url(#paint31_radial_2005_24565)"/>
</g>
</g>
<defs>
<radialGradient id="paint0_radial_2005_24565" cx="0" cy="0" r="1" gradientUnits="userSpaceOnUse" gradientTransform="translate(58.12 46.0244) rotate(90) scale(13.97 4.97129)">
<stop stop-color="#0036AF"/>
<stop offset="1" stop-color="#001749"/>
</radialGradient>
<radialGradient id="paint1_radial_2005_24565" cx="0" cy="0" r="1" gradientUnits="userSpaceOnUse" gradientTransform="translate(69.5805 79.9756) rotate(90) scale(13.97 4.9713)">
<stop stop-color="#0036AF"/>
<stop offset="1" stop-color="#001749"/>
</radialGradient>
<radialGradient id="paint2_radial_2005_24565" cx="0" cy="0" r="1" gradientUnits="userSpaceOnUse" gradientTransform="translate(80.8872 57.2903) rotate(90) scale(4.9534 14.0205)">
<stop stop-color="#0036AF"/>
<stop offset="1" stop-color="#001749"/>
</radialGradient>
<radialGradient id="paint3_radial_2005_24565" cx="0" cy="0" r="1" gradientUnits="userSpaceOnUse" gradientTransform="translate(46.8134 68.7096) rotate(90) scale(4.9534 14.0205)">
<stop stop-color="#0036AF"/>
<stop offset="1" stop-color="#001749"/>
</radialGradient>
<radialGradient id="paint4_radial_2005_24565" cx="0" cy="0" r="1" gradientUnits="userSpaceOnUse" gradientTransform="translate(79.0901 73.0658) rotate(90) scale(8.41763 12.5737)">
<stop stop-color="#0036AF"/>
<stop offset="1" stop-color="#001749"/>
</radialGradient>
<radialGradient id="paint5_radial_2005_24565" cx="0" cy="0" r="1" gradientUnits="userSpaceOnUse" gradientTransform="translate(48.5716 52.9342) rotate(90) scale(8.41763 12.5737)">
<stop stop-color="#0036AF"/>
<stop offset="1" stop-color="#001749"/>
</radialGradient>
<radialGradient id="paint6_radial_2005_24565" cx="0" cy="0" r="1" gradientUnits="userSpaceOnUse" gradientTransform="translate(53.7481 78.2237) rotate(90) scale(12.5284 8.44804)">
<stop stop-color="#0036AF"/>
<stop offset="1" stop-color="#001749"/>
</radialGradient>
<radialGradient id="paint7_radial_2005_24565" cx="0" cy="0" r="1" gradientUnits="userSpaceOnUse" gradientTransform="translate(73.9136 47.7763) rotate(90) scale(12.5284 8.44804)">
<stop stop-color="#0036AF"/>
<stop offset="1" stop-color="#001749"/>
</radialGradient>
<radialGradient id="paint8_radial_2005_24565" cx="0" cy="0" r="1" gradientUnits="userSpaceOnUse" gradientTransform="translate(56.8562 93.9744) rotate(90) scale(14.0852 4.52256)">
<stop stop-color="#0036AF"/>
<stop offset="1" stop-color="#001749"/>
</radialGradient>
<radialGradient id="paint9_radial_2005_24565" cx="0" cy="0" r="1" gradientUnits="userSpaceOnUse" gradientTransform="translate(71.1557 33.2666) rotate(90) scale(14.0852 4.52256)">
<stop stop-color="#0036AF"/>
<stop offset="1" stop-color="#001749"/>
</radialGradient>
<radialGradient id="paint10_radial_2005_24565" cx="0" cy="0" r="1" gradientUnits="userSpaceOnUse" gradientTransform="translate(50.416 13.9935) rotate(90) scale(14.0065 4.85218)">
<stop stop-color="#0036AF"/>
<stop offset="1" stop-color="#001749"/>
</radialGradient>
<radialGradient id="paint11_radial_2005_24565" cx="0" cy="0" r="1" gradientUnits="userSpaceOnUse" gradientTransform="translate(76.5451 112.006) rotate(90) scale(14.0065 4.85218)">
<stop stop-color="#0036AF"/>
<stop offset="1" stop-color="#001749"/>
</radialGradient>
<radialGradient id="paint12_radial_2005_24565" cx="0" cy="0" r="1" gradientUnits="userSpaceOnUse" gradientTransform="translate(19.1693 37.4631) rotate(90) scale(8.02714 12.824)">
<stop stop-color="#0036AF"/>
<stop offset="1" stop-color="#001749"/>
</radialGradient>
<radialGradient id="paint13_radial_2005_24565" cx="0" cy="0" r="1" gradientUnits="userSpaceOnUse" gradientTransform="translate(107.792 88.5368) rotate(90) scale(8.02714 12.824)">
<stop stop-color="#0036AF"/>
<stop offset="1" stop-color="#001749"/>
</radialGradient>
<radialGradient id="paint14_radial_2005_24565" cx="0" cy="0" r="1" gradientUnits="userSpaceOnUse" gradientTransform="translate(14.1222 75.0459) rotate(90) scale(4.58055 14.0957)">
<stop stop-color="#0036AF"/>
<stop offset="1" stop-color="#001749"/>
</radialGradient>
<radialGradient id="paint15_radial_2005_24565" cx="0" cy="0" r="1" gradientUnits="userSpaceOnUse" gradientTransform="translate(112.839 50.9541) rotate(90) scale(4.58055 14.0957)">
<stop stop-color="#0036AF"/>
<stop offset="1" stop-color="#001749"/>
</radialGradient>
<radialGradient id="paint16_radial_2005_24565" cx="0" cy="0" r="1" gradientUnits="userSpaceOnUse" gradientTransform="translate(36.8716 106.577) rotate(90) scale(12.6101 8.31594)">
<stop stop-color="#0036AF"/>
<stop offset="1" stop-color="#001749"/>
</radialGradient>
<radialGradient id="paint17_radial_2005_24565" cx="0" cy="0" r="1" gradientUnits="userSpaceOnUse" gradientTransform="translate(90.1284 19.4231) rotate(90) scale(12.6101 8.31594)">
<stop stop-color="#0036AF"/>
<stop offset="1" stop-color="#001749"/>
</radialGradient>
<radialGradient id="paint18_radial_2005_24565" cx="0" cy="0" r="1" gradientUnits="userSpaceOnUse" gradientTransform="translate(38.2166 82.0067) rotate(90) scale(8.78794 12.342)">
<stop stop-color="#0036AF"/>
<stop offset="1" stop-color="#001749"/>
</radialGradient>
<radialGradient id="paint19_radial_2005_24565" cx="0" cy="0" r="1" gradientUnits="userSpaceOnUse" gradientTransform="translate(89.7564 45.2342) rotate(90) scale(8.78794 12.3421)">
<stop stop-color="#0036AF"/>
<stop offset="1" stop-color="#001749"/>
</radialGradient>
<radialGradient id="paint20_radial_2005_24565" cx="0" cy="0" r="1" gradientUnits="userSpaceOnUse" gradientTransform="translate(33.3527 57.5679) rotate(90) scale(4.09416 14.209)">
<stop stop-color="#0036AF"/>
<stop offset="1" stop-color="#001749"/>
</radialGradient>
<radialGradient id="paint21_radial_2005_24565" cx="0" cy="0" r="1" gradientUnits="userSpaceOnUse" gradientTransform="translate(94.6203 69.6343) rotate(90) scale(4.09416 14.209)">
<stop stop-color="#0036AF"/>
<stop offset="1" stop-color="#001749"/>
</radialGradient>
<radialGradient id="paint22_radial_2005_24565" cx="0" cy="0" r="1" gradientUnits="userSpaceOnUse" gradientTransform="translate(45.3621 37.9855) rotate(90) scale(12.2749 8.89412)">
<stop stop-color="#0036AF"/>
<stop offset="1" stop-color="#001749"/>
</radialGradient>
<radialGradient id="paint23_radial_2005_24565" cx="0" cy="0" r="1" gradientUnits="userSpaceOnUse" gradientTransform="translate(82.6499 89.2167) rotate(90) scale(12.2749 8.89412)">
<stop stop-color="#0036AF"/>
<stop offset="1" stop-color="#001749"/>
</radialGradient>
<radialGradient id="paint24_radial_2005_24565" cx="0" cy="0" r="1" gradientUnits="userSpaceOnUse" gradientTransform="translate(73.6974 12.9917) rotate(90) scale(3.16735 3.08378)">
<stop stop-color="#0036AF"/>
<stop offset="1" stop-color="#001749"/>
</radialGradient>
<radialGradient id="paint25_radial_2005_24565" cx="0" cy="0" r="1" gradientUnits="userSpaceOnUse" gradientTransform="translate(107.15 34.2438) rotate(90) scale(3.20842 3.21771)">
<stop stop-color="#0036AF"/>
<stop offset="1" stop-color="#001749"/>
</radialGradient>
<radialGradient id="paint26_radial_2005_24565" cx="0" cy="0" r="1" gradientUnits="userSpaceOnUse" gradientTransform="translate(116.666 71.0471) rotate(90) scale(3.16735 3.08378)">
<stop stop-color="#0036AF"/>
<stop offset="1" stop-color="#001749"/>
</radialGradient>
<radialGradient id="paint27_radial_2005_24565" cx="0" cy="0" r="1" gradientUnits="userSpaceOnUse" gradientTransform="translate(92.8466 106.881) rotate(90) scale(3.16735 3.08378)">
<stop stop-color="#0036AF"/>
<stop offset="1" stop-color="#001749"/>
</radialGradient>
<radialGradient id="paint28_radial_2005_24565" cx="0" cy="0" r="1" gradientUnits="userSpaceOnUse" gradientTransform="translate(53.3026 115.141) rotate(90) scale(3.16735 3.08378)">
<stop stop-color="#0036AF"/>
<stop offset="1" stop-color="#001749"/>
</radialGradient>
<radialGradient id="paint29_radial_2005_24565" cx="0" cy="0" r="1" gradientUnits="userSpaceOnUse" gradientTransform="translate(21.3094 93.1136) rotate(90) scale(3.16735 3.08378)">
<stop stop-color="#0036AF"/>
<stop offset="1" stop-color="#001749"/>
</radialGradient>
<radialGradient id="paint30_radial_2005_24565" cx="0" cy="0" r="1" gradientUnits="userSpaceOnUse" gradientTransform="translate(12.3186 55.2244) rotate(90) scale(3.16735 3.08378)">
<stop stop-color="#0036AF"/>
<stop offset="1" stop-color="#001749"/>
</radialGradient>
<radialGradient id="paint31_radial_2005_24565" cx="0" cy="0" r="1" gradientUnits="userSpaceOnUse" gradientTransform="translate(33.842 21.0582) rotate(90) scale(3.16735 3.08378)">
<stop stop-color="#0036AF"/>
<stop offset="1" stop-color="#001749"/>
</radialGradient>
<clipPath id="clip0_2005_24565">
<rect width="127" height="126" fill="white"/>
</clipPath>
</defs>
</svg>
