<svg width="188" height="170" viewBox="0 0 188 170" fill="none" xmlns="http://www.w3.org/2000/svg">
<path d="M125.179 3.5678C108.929 55.8298 36.0674 89.658 17.8355 97.3883C15.5896 98.3793 14.5326 100.956 15.4575 103.269L22.5917 119.984C26.6212 118.333 31.4434 118.333 36.3977 120.909C39.04 122.297 41.1539 124.543 42.409 127.252C46.5706 136.436 42.2108 145.29 34.8123 148.593L42.6071 166.829C43.5319 169.075 46.1082 170.132 48.3542 169.273C122.537 139.938 168.183 85.4955 177.893 73.0742C179.082 71.5546 179.148 69.4403 178.025 67.8546L164.682 48.3638C160.256 51.1387 154.377 51.7994 148.365 48.562C145.855 47.1745 143.807 44.9942 142.618 42.4174C138.985 34.4889 141.694 26.9568 147.176 22.7944C147.176 22.7944 138.985 10.8356 133.172 2.31246C130.992 -0.792866 126.302 -1.67191e-05 125.179 3.63387V3.5678Z" fill="url(#paint0_linear_2005_24498)"/>
<g style="mix-blend-mode:multiply">
<path d="M49.279 161.213C48.3542 161.213 47.5615 160.684 47.1652 159.825L44.0604 152.557C43.7302 151.698 43.8623 150.707 44.5229 150.047C48.6184 145.818 50.8644 140.334 50.9304 134.52C50.9304 131.084 50.2038 127.649 48.6845 124.345C46.8349 120.249 43.598 116.879 39.6346 114.765C36.0014 112.849 32.1701 111.726 28.2727 111.924C27.3479 111.924 26.4891 111.395 26.1588 110.536L23.7808 104.92C23.3184 103.797 23.7808 102.41 24.9698 101.881C49.4772 90.9794 108.665 60.5208 128.68 14.1391C129.011 13.3463 129.737 12.8177 130.596 12.7517C131.521 12.6856 132.247 13.082 132.71 13.7427L137.466 20.6802C137.994 21.473 137.994 22.4641 137.466 23.1908C135.286 26.6926 134.097 30.7229 134.031 34.8854C134.031 38.3871 134.758 41.8228 136.343 45.1924C138.127 49.1566 141.297 52.4602 145.129 54.5744C150.149 57.2833 155.566 58.2083 160.784 57.1512C161.643 57.0191 162.568 57.3494 163.096 58.1423L170.363 68.7797C170.957 69.6386 170.891 70.7618 170.231 71.5546C158.736 85.6277 116.063 133.661 50.0717 161.08C49.8075 161.213 49.4772 161.279 49.2129 161.279L49.279 161.213ZM48.8827 152.095L50.468 155.861C112.298 129.565 152.989 85.0331 165.606 69.9029L160.124 61.9083C154.377 62.7011 148.431 61.5779 142.949 58.6048C138.259 56.028 134.427 51.9977 132.181 47.1084C130.332 43.1442 129.473 39.0478 129.473 34.8854C129.473 30.3925 130.662 25.9658 132.776 22.0676L131.124 19.6891C109.656 64.2208 54.2333 93.6223 28.8011 105.185L29.7259 107.365C33.8215 107.563 37.9171 108.686 41.7484 110.735C46.6367 113.311 50.6002 117.474 52.8461 122.495C54.6297 126.459 55.4884 130.49 55.4884 134.652C55.4884 141.127 53.1103 147.272 48.8166 152.161L48.8827 152.095Z" fill="url(#paint1_linear_2005_24498)"/>
</g>
<g style="mix-blend-mode:multiply">
<path d="M71.2761 126.592L68.4356 127.979L60.0463 110.933L58.0646 114.104L56.6113 111.197L58.527 107.827L61.3675 106.44L71.2761 126.592Z" fill="url(#paint2_linear_2005_24498)"/>
<path d="M77.4195 121.768C75.9002 121.372 74.6451 120.249 73.6542 118.531L68.5678 109.677C67.5769 107.96 67.2467 106.308 67.643 104.788C68.0393 103.269 69.1623 102.013 70.9459 100.956C72.7955 99.899 74.4469 99.5686 75.9002 100.031C77.4195 100.428 78.6746 101.551 79.6655 103.269L84.7519 112.122C85.7428 113.84 86.0731 115.492 85.6767 117.011C85.2804 118.531 84.2235 119.786 82.3739 120.843C80.5903 121.901 78.8728 122.231 77.4195 121.768ZM82.6381 116.285C82.8363 115.492 82.6381 114.633 82.0436 113.708L76.9571 104.854C76.4287 103.929 75.7681 103.335 75.0415 103.07C74.3148 102.806 73.4561 103.004 72.4652 103.533C71.4743 104.061 70.9459 104.788 70.7477 105.515C70.5495 106.308 70.7477 107.167 71.3422 108.092L76.4287 116.945C76.9571 117.87 77.6177 118.465 78.3443 118.729C79.071 118.993 79.9297 118.795 80.9206 118.267C81.9114 117.738 82.4399 117.077 82.6381 116.285Z" fill="url(#paint3_linear_2005_24498)"/>
<path d="M90.8292 88.4687L93.0751 86.883L95.7835 112.32L93.5375 113.906L90.8292 88.4687ZM101.597 107.299C100.672 107.101 99.8791 106.506 99.1524 105.449L98.0294 103.863C97.3028 102.806 97.0386 101.881 97.1707 100.89C97.3028 99.8989 97.8973 99.1722 98.8221 98.4454C99.813 97.7847 100.738 97.5204 101.663 97.7186C102.587 97.9168 103.446 98.5114 104.107 99.5686L105.164 101.154C105.89 102.211 106.155 103.202 106.022 104.127C105.89 105.052 105.296 105.845 104.371 106.572C103.38 107.233 102.455 107.497 101.53 107.299H101.597ZM103.578 103.797C103.578 103.797 103.512 103.136 103.248 102.806L101.993 100.956C101.729 100.626 101.464 100.427 101.2 100.361C100.936 100.295 100.606 100.361 100.341 100.56C100.011 100.758 99.879 101.022 99.813 101.352C99.813 101.683 99.813 101.947 100.143 102.344L101.398 104.194C101.663 104.524 101.927 104.788 102.191 104.854C102.455 104.92 102.786 104.854 103.116 104.656C103.38 104.458 103.578 104.194 103.644 103.863L103.578 103.797ZM85.0161 102.872C84.0913 102.674 83.2986 102.079 82.572 101.022L81.449 99.4364C80.7223 98.3793 80.4581 97.4543 80.5902 96.4633C80.7223 95.5383 81.3169 94.7454 82.2417 94.0186C83.2325 93.3579 84.1573 93.0936 85.0821 93.2919C86.007 93.4901 86.8657 94.0847 87.5263 95.1418L88.5832 96.7275C89.3098 97.7847 89.5741 98.7757 89.4419 99.7007C89.3098 100.626 88.7153 101.419 87.7905 102.145C86.7996 102.806 85.8748 103.07 84.95 102.872H85.0161ZM86.9978 99.4364C86.9978 99.4364 86.9978 98.7757 86.6675 98.4454L85.4124 96.5954C85.1482 96.265 84.884 96.0668 84.6197 96.0008C84.3555 95.9347 84.0252 96.0008 83.6949 96.199C83.3646 96.3972 83.2325 96.6615 83.1665 96.9918C83.1665 97.3222 83.1665 97.5865 83.4968 97.9829L84.7519 99.8329C85.0161 100.229 85.2803 100.427 85.5445 100.494C85.8088 100.56 86.1391 100.494 86.4694 100.295C86.7336 100.097 86.9318 99.8329 86.9978 99.5025V99.4364Z" fill="url(#paint4_linear_2005_24498)"/>
<path d="M120.093 93.2919C118.97 93.5562 117.913 93.424 116.79 92.9615C115.733 92.499 114.676 91.7723 113.685 90.6491L111.968 88.6669C110.977 87.5437 110.382 86.4866 110.118 85.3634C109.854 84.2402 109.854 83.117 110.25 82.1259C110.646 81.0688 111.373 80.0777 112.43 79.1528C113.487 78.2278 114.544 77.6331 115.667 77.4349C116.79 77.1706 117.847 77.3028 118.904 77.6992C119.961 78.1617 121.017 78.8885 121.942 80.0117L123.726 81.9938C124.717 83.117 125.311 84.1741 125.642 85.2973C125.906 86.4205 125.906 87.4777 125.509 88.6009C125.113 89.658 124.386 90.6491 123.396 91.5741C122.339 92.499 121.282 93.0937 120.159 93.2919H120.093ZM122.603 86.817C122.603 85.892 122.207 84.967 121.348 84.042L119.564 82.0599C118.772 81.1349 117.913 80.6063 116.988 80.4742C116.063 80.342 115.204 80.6724 114.412 81.3992C113.553 82.1259 113.157 82.9188 113.157 83.8438C113.157 84.7688 113.553 85.6938 114.412 86.6187L116.195 88.6009C116.988 89.5259 117.913 90.0544 118.772 90.1866C119.696 90.3187 120.555 89.9884 121.348 89.2616C122.207 88.5348 122.603 87.742 122.603 86.817Z" fill="url(#paint5_linear_2005_24498)"/>
<path d="M119.498 69.9689C118.507 68.9779 117.979 67.9868 117.979 66.9957C117.979 66.0047 118.441 65.0797 119.366 64.1547L121.018 62.5029L123.131 64.6172L121.546 66.2029C121.546 66.2029 121.282 66.6654 121.282 66.9297C121.282 67.194 121.48 67.4582 121.744 67.7225L134.559 80.6724L132.313 82.9188L119.498 69.9689ZM119.828 72.6778L125.509 67.0618L127.425 68.9779L121.744 74.5939L119.828 72.6778Z" fill="url(#paint6_linear_2005_24498)"/>
<path d="M126.434 62.9654C125.377 61.9743 124.849 61.0494 124.783 60.0583C124.717 59.0672 125.113 58.1422 126.038 57.1512L127.623 55.4333L129.803 57.4815L128.284 59.1333C128.284 59.1333 128.02 59.5958 128.086 59.8601C128.086 60.1244 128.284 60.3887 128.548 60.6529L141.958 73.0082L139.844 75.3206L126.5 62.9654H126.434ZM126.897 65.6743L132.313 59.794L134.295 61.644L128.878 67.5243L126.897 65.6743Z" fill="url(#paint7_linear_2005_24498)"/>
</g>
<mask id="mask0_2005_24498" style="mask-type:luminance" maskUnits="userSpaceOnUse" x="15" y="0" width="164" height="170">
<path d="M125.179 3.5678C108.929 55.8298 36.0674 89.658 17.8355 97.3883C15.5896 98.3793 14.5326 100.956 15.4575 103.269L22.5917 119.984C26.6212 118.333 31.4434 118.333 36.3977 120.909C39.04 122.297 41.1539 124.543 42.409 127.252C46.5706 136.436 42.2108 145.29 34.8123 148.593L42.6071 166.829C43.5319 169.075 46.1082 170.132 48.3542 169.273C122.537 139.938 168.183 85.4955 177.893 73.0742C179.082 71.5546 179.148 69.4403 178.025 67.8546L164.682 48.3638C160.256 51.1387 154.377 51.7994 148.365 48.562C145.855 47.1745 143.807 44.9942 142.618 42.4174C138.985 34.4889 141.694 26.9568 147.176 22.7944C147.176 22.7944 138.985 10.8356 133.172 2.31246C130.992 -0.792866 126.302 -1.67191e-05 125.179 3.63387V3.5678Z" fill="white"/>
</mask>
<g mask="url(#mask0_2005_24498)">
<g style="mix-blend-mode:multiply">
<path d="M125.179 3.5678C108.929 55.8298 36.0674 89.658 17.8355 97.3883C15.5896 98.3793 14.5326 100.956 15.4575 103.269L22.5917 119.984C26.6212 118.333 31.4434 118.333 36.3977 120.909C39.04 122.297 41.1539 124.543 42.409 127.252C46.5706 136.436 42.2108 145.29 34.8123 148.593L42.6071 166.829C43.5319 169.075 46.1082 170.132 48.3542 169.273C122.537 139.938 168.183 85.4955 177.893 73.0742C179.082 71.5546 179.148 69.4403 178.025 67.8546L164.682 48.3638C160.256 51.1387 154.377 51.7994 148.365 48.562C145.855 47.1745 143.807 44.9942 142.618 42.4174C138.985 34.4889 141.694 26.9568 147.176 22.7944C147.176 22.7944 138.985 10.8356 133.172 2.31246C130.992 -0.792866 126.302 -1.67191e-05 125.179 3.63387V3.5678Z" fill="#FFD8A1"/>
<path d="M124.188 3.50173C107.74 55.6976 34.7463 89.2616 16.5144 96.9258C14.2684 97.8507 13.2115 100.494 14.1363 102.74L21.2045 119.456C25.234 117.87 30.0562 117.804 35.0105 120.447C37.6528 121.834 39.7666 124.081 40.9557 126.79C45.0513 135.974 40.6915 144.827 33.293 148.064L41.0217 166.366C41.9466 168.613 44.5228 169.67 46.7688 168.811C121.084 139.74 166.862 85.4955 176.638 73.0742C177.827 71.5546 177.893 69.4403 176.77 67.8546L164.021 49.0905C159.595 51.7994 153.716 52.5262 147.705 49.2227C145.195 47.8352 142.618 44.9281 141.429 42.2853C137.796 34.3568 140.571 26.8247 146.053 22.7283C146.053 22.7283 137.862 10.7034 132.115 2.18032C130.001 -0.99108 125.245 -0.132161 124.122 3.50173H124.188Z" fill="#FFDCAA"/>
<path d="M123.131 3.50178C106.485 55.6316 33.425 88.9312 15.1271 96.5294C12.8151 97.4544 11.7581 100.097 12.749 102.344L19.7511 119.06C23.7806 117.474 28.6028 117.474 33.4911 120.051C36.0673 121.438 38.2472 123.684 39.4363 126.393C43.5319 135.577 39.106 144.431 31.7075 147.668L39.3702 165.97C40.295 168.216 42.8713 169.339 45.1172 168.414C119.498 139.607 165.54 85.4956 175.383 73.1403C176.572 71.6207 176.638 69.5064 175.581 67.9207L163.426 49.8174C159.001 52.5263 153.121 53.187 147.11 49.8834C144.6 48.496 141.495 44.796 140.306 42.2192C136.739 34.2907 139.514 26.7587 144.996 22.6623C144.996 22.6623 136.871 10.6374 131.124 2.11429C129.01 -1.0571 124.254 -0.198183 123.131 3.36964V3.50178Z" fill="#FFDFB2"/>
<path d="M122.074 3.43568C105.296 55.4994 32.0379 88.5348 13.806 96.0668C11.494 96.9918 10.4371 99.6347 11.3619 101.881L18.2979 118.663C22.3274 117.077 27.1497 117.077 32.0379 119.72C34.6142 121.108 36.7941 123.42 37.9831 126.129C42.0126 135.379 37.5868 144.166 30.1883 147.404L37.7849 165.771C38.7097 168.018 41.286 169.141 43.5319 168.282C118.045 139.74 164.219 85.8259 174.128 73.4707C175.317 71.951 175.383 69.8368 174.326 68.2511L162.766 50.8745C158.274 53.5834 152.461 54.2441 146.45 50.8745C143.94 49.487 140.306 45.0602 139.183 42.4174C135.616 34.4889 138.457 26.9569 143.94 22.8605C143.94 22.8605 135.881 10.7695 130.134 2.2464C128.02 -0.924993 123.33 -0.132144 122.141 3.50175L122.074 3.43568Z" fill="#FFE3BB"/>
<path d="M121.084 3.43571C104.041 55.4334 30.7168 88.2045 12.4188 95.6704C10.1068 96.5954 9.04987 99.1722 9.97468 101.485L16.8447 118.267C20.8742 116.681 25.6964 116.747 30.5847 119.39C33.1609 120.777 35.2747 123.09 36.4638 125.799C40.4933 135.049 36.0014 143.836 28.5369 147.007L36.0674 165.375C36.9922 167.621 39.5685 168.745 41.8144 167.886C116.394 139.607 162.766 85.892 172.741 73.5368C173.93 72.0171 174.062 69.9029 172.939 68.3172L161.973 51.6673C157.481 54.3762 151.668 54.9709 145.657 51.6673C143.147 50.2799 139.051 45.0603 137.862 42.4174C134.361 34.4229 137.202 26.9569 142.684 22.8605C142.684 22.8605 134.625 10.7696 128.944 2.18036C126.831 -0.991032 122.141 -0.198184 120.951 3.43571H121.084Z" fill="#FFE6C3"/>
<path d="M120.027 3.36961C102.852 55.3012 29.3956 87.808 11.0316 95.2079C8.71958 96.1329 7.66266 98.7097 8.58747 101.022L15.3914 117.804C19.4209 116.218 24.3092 116.284 29.1314 118.993C31.7076 120.447 33.8215 122.693 35.0105 125.402C38.974 134.652 34.4821 143.44 27.0175 146.611L34.4821 164.979C35.4069 167.225 37.9171 168.348 40.2291 167.489C114.94 139.475 161.511 85.892 171.486 73.6028C172.741 72.0832 172.807 69.9689 171.75 68.3832L161.379 52.3941C156.887 55.0369 151.008 55.6316 145.063 52.328C142.552 50.9405 137.928 44.9281 136.739 42.3513C133.238 34.3568 136.145 26.8908 141.628 22.8605C141.628 22.8605 133.635 10.7695 127.954 2.11426C125.84 -1.05713 121.15 -0.264285 119.961 3.30354L120.027 3.36961Z" fill="#FFEACC"/>
<path d="M118.97 3.30351C101.597 55.169 28.0745 87.4776 9.71043 94.8115C7.39842 95.7365 6.34149 98.3132 7.2663 100.626L14.0042 117.474C18.0337 115.954 22.922 116.02 27.7442 118.663C30.3204 120.117 32.4343 122.363 33.6233 125.138C37.5868 134.388 33.0288 143.109 25.5643 146.281L32.9627 164.714C33.8875 166.961 36.3977 168.084 38.7097 167.291C113.487 139.541 160.256 86.1562 170.297 73.9331C171.552 72.4135 171.618 70.2992 170.561 68.7135L160.784 53.4512C156.292 56.094 150.413 56.6887 144.468 53.3191C141.958 51.9316 136.805 45.1924 135.682 42.5495C132.247 34.555 135.154 27.089 140.637 23.0587C140.637 23.0587 132.71 10.9016 127.029 2.31245C124.981 -0.858944 120.225 -0.132166 119.036 3.50172L118.97 3.30351Z" fill="#FFEDD4"/>
<path d="M117.979 3.30356C100.408 55.103 26.6873 87.0813 8.32323 94.349C6.01121 95.274 4.88823 97.8508 5.81304 100.163L12.4849 117.011C16.5804 115.492 21.4026 115.558 26.2248 118.267C28.8011 119.72 30.9149 122.033 32.0379 124.742C35.9353 134.058 31.3773 142.713 23.9128 145.884L31.2452 164.318C32.17 166.564 34.6802 167.754 36.9262 166.895C111.836 139.409 158.802 86.1563 168.843 73.9993C170.098 72.4796 170.164 70.3654 169.107 68.7797L159.925 54.2441C155.434 56.8869 149.554 57.4155 143.609 54.0459C141.099 52.5923 135.418 45.1263 134.295 42.4835C130.86 34.4889 133.767 27.023 139.382 22.9926C139.382 22.9926 131.455 10.8356 125.84 2.18036C123.792 -0.991037 119.036 -0.264259 117.847 3.30356H117.979Z" fill="#FFF1DD"/>
<path d="M116.922 3.23748C99.1525 54.9709 25.3661 86.6848 7.00206 93.8865C4.69005 94.8115 3.56707 97.3883 4.49187 99.7007L11.0976 116.549C15.1932 115.029 20.0154 115.161 24.8376 117.87C27.4139 119.324 29.5277 121.636 30.6507 124.345C34.5481 133.661 29.9241 142.316 22.4596 145.422L29.7259 163.921C30.5846 166.168 33.1609 167.357 35.4068 166.498C110.382 139.277 157.547 86.2223 167.654 74.0653C168.909 72.5457 168.975 70.4314 167.918 68.8457L159.331 54.9709C154.839 57.6137 148.96 58.1423 143.015 54.7066C140.505 53.253 134.295 45.0602 133.238 42.4174C129.803 34.4229 132.776 26.9569 138.391 22.9266C138.391 22.9266 130.53 10.7035 124.981 2.0482C122.933 -1.12319 118.177 -0.462485 116.988 3.17141L116.922 3.23748Z" fill="#FFF4E5"/>
<path d="M115.865 3.17138C97.9634 54.9048 24.0449 86.3544 5.61486 93.4901C3.30284 94.4151 2.17986 96.9918 3.10467 99.2382L9.64437 116.152C13.7399 114.633 18.5622 114.765 23.3844 117.54C25.9606 118.993 28.0084 121.306 29.1974 124.081C33.0288 133.397 28.4047 142.052 20.9402 145.157L28.1405 163.657C28.9993 165.904 31.5755 167.093 33.8215 166.3C108.929 139.343 156.292 86.4866 166.399 74.3296C167.654 72.8099 167.786 70.6957 166.729 69.11L158.736 55.9619C154.245 58.5387 148.365 59.0672 142.42 55.6315C139.976 54.178 133.238 45.1924 132.115 42.5495C128.746 34.4889 131.719 27.089 137.334 23.1247C137.334 23.1247 129.539 10.9017 123.99 2.18032C121.942 -0.991071 117.186 -0.330364 115.997 3.23746L115.865 3.17138Z" fill="#FFF8EE"/>
<path d="M114.874 3.17141C96.7083 54.7727 22.7238 85.958 4.22763 93.0276C1.91561 93.8865 0.792629 96.4633 1.65138 98.7758L8.12503 115.69C12.2206 114.236 17.0428 114.368 21.865 117.077C24.4413 118.531 26.489 120.909 27.612 123.618C31.4434 132.934 26.7533 141.59 19.2888 144.695L26.423 163.261C27.2817 165.507 29.858 166.696 32.1039 165.904C107.278 139.211 154.839 86.4866 165.012 74.3957C166.267 72.876 166.399 70.8278 165.342 69.1761L157.944 56.6887C153.386 59.2655 147.573 59.794 141.628 56.2923C139.183 54.8387 131.917 45.1263 130.794 42.4174C127.425 34.3568 130.464 26.9569 136.079 22.9926C136.079 22.9926 128.284 10.7035 122.801 2.04821C120.753 -1.18926 116.063 -0.462481 114.742 3.10534L114.874 3.17141Z" fill="#FFFBF6"/>
<path d="M113.817 3.10532C95.5192 54.6405 21.3365 85.6277 2.90646 92.6312C0.594442 93.4901 -0.528538 96.0669 0.330211 98.3793L6.80386 115.359C10.8994 113.906 15.7216 114.038 20.5438 116.813C23.1201 118.267 25.1679 120.645 26.2909 123.354C30.0561 132.67 25.3661 141.325 17.8355 144.365L24.9036 162.93C25.7624 165.177 28.2726 166.366 30.5846 165.573C105.89 139.145 153.584 86.6187 163.823 74.5278C165.078 73.0742 165.21 70.96 164.153 69.3082L157.349 57.5476C152.791 60.1244 146.912 60.5869 141.033 57.0851C138.589 55.6316 130.794 45.1263 129.737 42.4835C126.434 34.4229 129.473 27.0229 135.088 23.0587C135.088 23.0587 127.359 10.7695 121.876 2.04819C119.828 -1.18927 115.138 -0.528566 113.817 3.10532Z" fill="white"/>
</g>
<g style="mix-blend-mode:screen">
<path d="M125.179 3.5678C108.929 55.8298 36.0674 89.658 17.8355 97.3883C15.5896 98.3793 14.5326 100.956 15.4575 103.269L22.5917 119.984C26.6212 118.333 31.4434 118.333 36.3977 120.909C39.04 122.297 41.1539 124.543 42.409 127.252C46.5706 136.436 42.2108 145.29 34.8123 148.593L42.6071 166.829C43.5319 169.075 46.1082 170.132 48.3542 169.273C122.537 139.938 168.183 85.4955 177.893 73.0742C179.082 71.5546 179.148 69.4403 178.025 67.8546L164.682 48.3638C160.256 51.1387 154.377 51.7994 148.365 48.562C145.855 47.1745 143.807 44.9942 142.618 42.4174C138.985 34.4889 141.694 26.9568 147.176 22.7944C147.176 22.7944 138.985 10.8356 133.172 2.31246C130.992 -0.792866 126.302 -1.67191e-05 125.179 3.63387V3.5678Z" fill="#9E00F0"/>
<path d="M125.972 3.56785C109.722 55.8298 36.9262 89.7241 18.6943 97.4544C16.4483 98.4454 15.3914 101.022 16.3162 103.335L23.4504 119.984C27.48 118.333 32.3022 118.333 37.2565 120.909C39.8988 122.297 42.0126 124.543 43.2677 127.252C47.4294 136.436 43.0696 145.29 35.6711 148.593L43.4659 166.829C44.3907 169.075 46.967 170.132 49.2129 169.273C123.396 139.872 168.975 85.4295 178.686 72.9421C179.875 71.4225 179.941 69.3082 178.818 67.7225L165.474 48.2317C161.048 51.0066 155.169 51.6673 149.158 48.4299C146.648 47.0424 144.6 44.8621 143.411 42.2853C139.778 34.3568 142.486 26.8247 147.969 22.6623C147.969 22.6623 139.778 10.7035 133.899 2.18036C131.719 -0.924963 127.029 -0.0660442 125.906 3.50178L125.972 3.56785Z" fill="#9000DA"/>
<path d="M126.765 3.56785C110.58 55.8298 37.7189 89.7902 19.5531 97.5204C17.3071 98.5115 16.2502 101.088 17.2411 103.401L24.3753 120.051C28.4048 118.399 33.227 118.399 38.1813 120.976C40.8236 122.363 42.9375 124.609 44.1926 127.318C48.3542 136.502 43.9944 145.356 36.662 148.659L44.4568 166.895C45.3816 169.141 47.9579 170.198 50.2699 169.339C124.453 139.872 169.966 85.4295 179.677 72.9421C180.866 71.4225 180.932 69.3082 179.809 67.7225L166.465 48.2977C162.039 51.0727 156.16 51.7334 150.149 48.4959C147.639 47.1085 145.591 44.9281 144.402 42.3514C140.769 34.4229 143.477 26.8908 148.96 22.7284C148.96 22.7284 140.703 10.7696 134.89 2.24643C132.71 -0.85889 128.02 2.93255e-05 126.897 3.63392L126.765 3.56785Z" fill="#8100C4"/>
<path d="M127.557 3.56782C111.439 55.8298 38.5776 89.8562 20.4117 97.5865C18.1658 98.5775 17.1088 101.154 18.0997 103.467L25.2339 120.117C29.2634 118.465 34.0857 118.399 39.04 121.042C41.6823 122.429 43.7961 124.675 45.0512 127.384C49.2129 136.568 44.853 145.422 37.5207 148.725L45.3155 166.961C46.2403 169.207 48.8165 170.264 51.1285 169.405C125.245 139.872 170.759 85.4295 180.469 72.9421C181.658 71.4225 181.724 69.3082 180.601 67.7225L167.192 48.2977C162.766 51.0727 156.887 51.7995 150.876 48.562C148.365 47.1745 146.318 44.9942 145.062 42.4174C141.429 34.4889 144.138 26.9569 149.554 22.7944C149.554 22.7944 141.297 10.8356 135.484 2.31247C133.304 -0.79285 128.614 0.0660694 127.491 3.69996L127.557 3.56782Z" fill="#7300AF"/>
<path d="M128.35 3.50178C112.232 55.8298 39.4363 89.8562 21.2705 97.5865C19.0245 98.5776 17.9676 101.154 18.9585 103.467L26.0927 120.117C30.1222 118.465 34.9444 118.399 39.8987 120.976C42.541 122.363 44.6549 124.609 45.91 127.318C50.0716 136.502 45.7118 145.356 38.3794 148.659L46.2403 166.895C47.1651 169.141 49.8074 170.198 52.0533 169.273C126.17 139.74 171.618 85.1652 181.328 72.6778C182.517 71.1582 182.583 69.0439 181.46 67.4583L168.051 48.0335C163.625 50.8084 157.746 51.5352 151.734 48.2977C149.224 46.9763 147.176 44.7299 145.921 42.1532C142.288 34.2247 144.996 26.6926 150.413 22.5301C150.413 22.5301 142.156 10.5713 136.343 2.11429C134.163 -0.991031 129.473 -0.132112 128.35 3.50178Z" fill="#650099"/>
<path d="M129.143 3.50178C113.091 55.8298 40.2951 89.9223 22.1293 97.7187C19.8833 98.7097 18.8264 101.286 19.8172 103.599L27.0175 120.249C31.047 118.597 35.8692 118.531 40.8236 121.108C43.4659 122.495 45.5797 124.742 46.8348 127.384C50.9964 136.568 46.7027 145.422 39.3042 148.725L47.1651 166.961C48.0899 169.207 50.7322 170.264 52.9782 169.339C127.095 139.74 172.476 85.1652 182.187 72.6778C183.376 71.1582 183.442 69.044 182.319 67.4583L168.909 48.0335C164.483 50.8084 158.604 51.5352 152.593 48.2977C150.083 46.9763 148.035 44.7299 146.78 42.1532C143.147 34.2247 145.855 26.6926 151.272 22.5302C151.272 22.5302 143.015 10.5713 137.136 2.11429C134.956 -0.991031 130.266 -0.132112 129.143 3.50178Z" fill="#560083"/>
<path d="M129.935 3.50178C113.883 55.8298 41.1539 89.9884 22.988 97.7847C20.7421 98.7758 19.6851 101.353 20.676 103.665L27.8763 120.315C31.9058 118.663 36.728 118.597 41.6823 121.174C44.3246 122.561 46.5045 124.808 47.6936 127.45C51.8552 136.634 47.5615 145.488 40.163 148.791L48.0239 167.027C49.0147 169.273 51.591 170.33 53.8369 169.405C127.888 139.74 173.335 85.1652 182.98 72.6778C184.169 71.1582 184.235 69.044 183.112 67.4583L169.702 48.0335C165.276 50.8084 159.397 51.5352 153.386 48.2977C150.876 46.9763 148.828 44.796 147.573 42.1532C143.94 34.2247 146.648 26.6926 152.065 22.5302C152.065 22.5302 143.807 10.5713 137.928 2.11429C135.748 -0.991031 131.058 -0.132112 129.935 3.50178Z" fill="#48006D"/>
<path d="M130.662 3.50175C114.676 55.8298 41.9466 89.9883 23.7807 97.8508C21.5348 98.8418 20.4779 101.419 21.4687 103.731L28.669 120.381C32.6985 118.729 37.5207 118.663 42.4751 121.24C45.1174 122.627 47.2973 124.874 48.4863 127.517C52.6479 136.7 48.3542 145.554 41.0218 148.857L48.8826 167.093C49.8735 169.339 52.4498 170.396 54.6957 169.471C128.746 139.74 174.128 85.1652 183.772 72.6117C184.961 71.0921 185.027 68.9778 183.904 67.3922L170.495 47.9674C166.069 50.7423 160.256 51.4691 154.178 48.2316C151.668 46.9102 149.554 44.7299 148.365 42.0871C144.666 34.1586 147.375 26.6265 152.857 22.464C152.857 22.464 144.6 10.5052 138.721 2.04819C136.541 -1.05713 131.851 -0.198213 130.728 3.43568L130.662 3.50175Z" fill="#390057"/>
<path d="M131.455 3.50178C115.469 55.8298 42.8054 90.0544 24.6395 97.9169C22.3935 98.9079 21.3366 101.485 22.3275 103.797L29.5278 120.447C33.5573 118.795 38.3795 118.729 43.3338 121.306C45.9761 122.693 48.156 124.94 49.3451 127.583C53.5728 136.766 49.2129 145.62 41.8806 148.99L49.7414 167.225C50.7323 169.471 53.3085 170.529 55.5545 169.604C129.605 139.872 174.921 85.1652 184.565 72.6778C185.754 71.1582 185.82 69.044 184.697 67.4583L171.221 48.0335C166.796 50.8084 160.982 51.5352 154.905 48.2977C152.395 46.9763 150.281 44.796 149.092 42.1532C145.393 34.2247 148.101 26.6926 153.518 22.5302C153.518 22.5302 145.261 10.5713 139.382 2.11429C137.202 -0.991031 132.512 -0.132112 131.389 3.50178H131.455Z" fill="#2B0041"/>
<path d="M132.247 3.43571C116.328 55.7637 43.6641 90.0544 25.4983 97.9169C23.2523 98.9079 22.1954 101.551 23.1863 103.797L30.3865 120.447C34.4161 118.795 39.2383 118.729 44.1926 121.306C46.8349 122.693 49.0148 124.94 50.2038 127.583C54.4315 136.766 50.0717 145.62 42.7393 148.99L50.6662 167.225C51.6571 169.471 54.2333 170.529 56.4793 169.604C130.464 139.806 175.779 85.0991 185.424 72.6118C186.613 71.0921 186.613 68.9779 185.556 67.3922L172.08 47.9674C167.654 50.7424 161.841 51.4691 155.764 48.2977C153.254 46.9763 151.14 44.796 149.951 42.1532C146.252 34.2247 148.96 26.6926 154.377 22.5302C154.377 22.5302 146.119 10.5713 140.24 2.11429C138.06 -0.991031 133.37 -0.132112 132.247 3.50178V3.43571Z" fill="#1D002C"/>
<path d="M133.04 3.43571C117.12 55.8298 44.5228 90.1205 26.3569 97.9829C24.111 98.974 23.054 101.617 24.0449 103.863L31.2452 120.513C35.2747 118.861 40.0969 118.795 45.0512 121.372C47.6935 122.759 49.8734 124.94 51.0625 127.649C55.2902 136.833 50.9964 145.686 43.598 149.056L51.5249 167.291C52.5157 169.538 55.092 170.595 57.3379 169.67C131.322 139.806 176.572 85.0991 186.216 72.5457C187.405 71.0261 187.405 68.9118 186.349 67.3261L172.873 47.9674C168.447 50.7424 162.634 51.4691 156.557 48.2977C154.046 46.9763 151.932 44.796 150.743 42.1532C147.044 34.2907 149.753 26.6926 155.169 22.5301C155.169 22.5301 146.846 10.6374 140.967 2.11429C138.787 -0.991031 134.097 -0.132112 132.974 3.50178L133.04 3.43571Z" fill="#0E0016"/>
<path d="M133.833 3.43571C117.979 55.8298 45.3815 90.1866 27.2157 98.049C24.9697 99.0401 23.9128 101.683 24.9037 103.929L32.17 120.579C36.1995 118.927 41.0217 118.861 45.976 121.372C48.6184 122.759 50.7983 124.94 51.9873 127.649C56.215 136.833 51.9212 145.686 44.5888 149.056L52.5158 167.291C53.5066 169.538 56.0829 170.595 58.3288 169.67C132.313 139.74 177.497 85.0331 187.141 72.4796C188.33 70.96 188.33 68.8457 187.273 67.26L173.798 47.9013C169.372 50.6763 163.559 51.4031 157.481 48.2317C154.971 46.9103 152.857 44.7299 151.668 42.0871C147.969 34.2247 150.677 26.6265 156.094 22.4641C156.094 22.4641 147.771 10.5713 141.892 2.11429C139.712 -0.991031 135.022 -0.132112 133.899 3.50178L133.833 3.43571Z" fill="black"/>
</g>
</g>
<defs>
<linearGradient id="paint0_linear_2005_24498" x1="168.67" y1="40.3459" x2="-18.3947" y2="147.633" gradientUnits="userSpaceOnUse">
<stop stop-color="#FFC67A"/>
<stop offset="0.15" stop-color="#FBC37F"/>
<stop offset="0.34" stop-color="#F3BA8E"/>
<stop offset="0.54" stop-color="#E4ACA7"/>
<stop offset="0.76" stop-color="#CF99CB"/>
<stop offset="0.99" stop-color="#B580F7"/>
<stop offset="1" stop-color="#B47FFB"/>
</linearGradient>
<linearGradient id="paint1_linear_2005_24498" x1="158.962" y1="48.5966" x2="26.9079" y2="124.402" gradientUnits="userSpaceOnUse">
<stop stop-color="#FFD8A1"/>
<stop offset="0.18" stop-color="#FBD3A6"/>
<stop offset="0.4" stop-color="#F2C8B5"/>
<stop offset="0.65" stop-color="#E4B4CE"/>
<stop offset="0.91" stop-color="#CF9AF1"/>
<stop offset="1" stop-color="#C890FF"/>
</linearGradient>
<linearGradient id="paint2_linear_2005_24498" x1="149.005" y1="57.8299" x2="62.1246" y2="118.94" gradientUnits="userSpaceOnUse">
<stop stop-color="#FFC67A"/>
<stop offset="0.15" stop-color="#FBC37F"/>
<stop offset="0.34" stop-color="#F3BA8E"/>
<stop offset="0.54" stop-color="#E4ACA7"/>
<stop offset="0.76" stop-color="#CF99CB"/>
<stop offset="0.99" stop-color="#B580F7"/>
<stop offset="1" stop-color="#B47FFB"/>
</linearGradient>
<linearGradient id="paint3_linear_2005_24498" x1="149.913" y1="59.1861" x2="63.0297" y2="120.23" gradientUnits="userSpaceOnUse">
<stop stop-color="#FFC67A"/>
<stop offset="0.15" stop-color="#FBC37F"/>
<stop offset="0.34" stop-color="#F3BA8E"/>
<stop offset="0.54" stop-color="#E4ACA7"/>
<stop offset="0.76" stop-color="#CF99CB"/>
<stop offset="0.99" stop-color="#B580F7"/>
<stop offset="1" stop-color="#B47FFB"/>
</linearGradient>
<linearGradient id="paint4_linear_2005_24498" x1="150.469" y1="59.9597" x2="63.5882" y2="121.07" gradientUnits="userSpaceOnUse">
<stop stop-color="#FFC67A"/>
<stop offset="0.15" stop-color="#FBC37F"/>
<stop offset="0.34" stop-color="#F3BA8E"/>
<stop offset="0.54" stop-color="#E4ACA7"/>
<stop offset="0.76" stop-color="#CF99CB"/>
<stop offset="0.99" stop-color="#B580F7"/>
<stop offset="1" stop-color="#B47FFB"/>
</linearGradient>
<linearGradient id="paint5_linear_2005_24498" x1="151.513" y1="61.4433" x2="64.6322" y2="122.553" gradientUnits="userSpaceOnUse">
<stop stop-color="#FFC67A"/>
<stop offset="0.15" stop-color="#FBC37F"/>
<stop offset="0.34" stop-color="#F3BA8E"/>
<stop offset="0.54" stop-color="#E4ACA7"/>
<stop offset="0.76" stop-color="#CF99CB"/>
<stop offset="0.99" stop-color="#B580F7"/>
<stop offset="1" stop-color="#B47FFB"/>
</linearGradient>
<linearGradient id="paint6_linear_2005_24498" x1="148.454" y1="57.1883" x2="61.6368" y2="118.23" gradientUnits="userSpaceOnUse">
<stop stop-color="#FFC67A"/>
<stop offset="0.15" stop-color="#FBC37F"/>
<stop offset="0.34" stop-color="#F3BA8E"/>
<stop offset="0.54" stop-color="#E4ACA7"/>
<stop offset="0.76" stop-color="#CF99CB"/>
<stop offset="0.99" stop-color="#B580F7"/>
<stop offset="1" stop-color="#B47FFB"/>
</linearGradient>
<linearGradient id="paint7_linear_2005_24498" x1="147.339" y1="55.575" x2="60.456" y2="116.619" gradientUnits="userSpaceOnUse">
<stop stop-color="#FFC67A"/>
<stop offset="0.15" stop-color="#FBC37F"/>
<stop offset="0.34" stop-color="#F3BA8E"/>
<stop offset="0.54" stop-color="#E4ACA7"/>
<stop offset="0.76" stop-color="#CF99CB"/>
<stop offset="0.99" stop-color="#B580F7"/>
<stop offset="1" stop-color="#B47FFB"/>
</linearGradient>
</defs>
</svg>
