<svg width="245" height="221" viewBox="0 0 245 221" fill="none" xmlns="http://www.w3.org/2000/svg">
<g clip-path="url(#clip0_2005_24497)">
<path d="M206.672 122.484C152.734 108.596 114.682 36.2882 105.932 18.1889C104.855 15.9489 102.117 15.0081 99.8737 16.0833L83.2707 24.1473C85.1105 28.1346 85.4246 33.0626 83.0014 38.1698C81.745 40.9027 79.5462 43.1875 76.8538 44.5763C67.7446 49.2355 58.5456 45.2483 54.7762 37.9458L36.6026 46.7715C34.4039 47.8467 33.4167 50.5347 34.4039 52.7747C67.9689 126.65 125.541 170.241 138.689 179.56C140.304 180.724 142.458 180.635 144.029 179.425L163.145 164.91C160.138 160.564 159.106 154.651 162.113 148.379C163.369 145.735 165.478 143.54 168.081 142.196C175.934 138.119 183.786 140.538 188.229 145.87C188.229 145.87 199.986 136.954 208.332 130.593C211.428 128.263 210.306 123.514 206.582 122.574L206.672 122.484Z" fill="url(#paint0_linear_2005_24497)"/>
<g style="mix-blend-mode:multiply">
<path d="M141.202 172.123C140.708 172.123 140.215 171.988 139.811 171.675C124.913 160.699 73.937 119.796 42.7951 54.1635C42.2566 52.9987 42.7502 51.6099 43.8721 51.0723L51.0966 47.5779C51.9492 47.1747 52.9813 47.3091 53.6993 47.9363C58.1417 51.8787 63.8855 53.8947 69.7638 53.6707C73.264 53.5363 76.7192 52.5955 80.0398 50.8931C84.0784 48.8323 87.399 45.3827 89.3285 41.2162C91.1234 37.4082 91.8863 33.4658 91.6619 29.5234C91.6171 28.5826 92.1107 27.6866 92.9632 27.2834L98.5275 24.5953C99.6942 24.0577 101.085 24.5057 101.669 25.6257C114.009 49.9971 147.888 108.596 196.082 126.606C196.889 126.919 197.473 127.636 197.562 128.442C197.697 129.294 197.338 130.145 196.665 130.638L189.799 135.834C189.037 136.417 188.049 136.462 187.242 136.014C183.607 133.953 179.434 132.967 175.216 133.146C171.671 133.281 168.171 134.266 164.85 135.969C160.901 138.03 157.715 141.345 155.786 145.332C153.273 150.574 152.644 156.129 153.901 161.326C154.125 162.222 153.766 163.207 153.048 163.745L142.593 171.675C142.189 171.988 141.651 172.167 141.157 172.167L141.202 172.123ZM48.0453 54.2083C77.8859 115.719 125.137 154.785 141.202 166.836L149.055 160.878C147.978 155.054 148.83 149.006 151.568 143.271C153.946 138.343 157.895 134.266 162.696 131.758C166.645 129.697 170.773 128.577 175.036 128.398C179.613 128.174 184.145 129.159 188.184 131.13L190.562 129.338C144.253 109.761 111.586 54.9699 98.5724 29.7474L96.4185 30.7778C96.4185 34.989 95.4761 39.1106 93.5915 43.1427C91.2132 48.2499 87.1297 52.4611 82.1937 55.0147C78.2897 57.0307 74.1614 58.1059 69.9882 58.2851C63.4367 58.5988 57.0199 56.4931 51.8146 52.3715L48.0453 54.2083Z" fill="url(#paint1_linear_2005_24497)"/>
</g>
<g style="mix-blend-mode:multiply">
<path d="M78.8731 73.8757L77.3026 71.098L94.2646 61.69L90.8991 59.8084L93.8159 58.1956L97.316 59.9876L98.8416 62.81L78.8731 73.8757Z" fill="url(#paint2_linear_2005_24497)"/>
<path d="M84.1233 79.8789C84.4823 78.3109 85.5143 77.0117 87.2644 75.8917L96.0146 70.2916C97.7647 69.1716 99.3801 68.7684 100.951 69.1268C102.521 69.4404 103.867 70.5156 105.034 72.3077C106.201 74.0997 106.605 75.7573 106.246 77.3253C105.887 78.8485 104.855 80.1925 103.105 81.3125L94.3543 86.9125C92.6492 88.0326 90.9889 88.4358 89.4183 88.0774C87.8477 87.7638 86.5015 86.6885 85.3348 84.9413C84.1681 83.1493 83.7643 81.4917 84.1681 79.9237L84.1233 79.8789ZM89.9568 84.8517C90.7645 84.9861 91.6171 84.7621 92.5594 84.1349L101.31 78.5349C102.252 77.9525 102.835 77.2357 103.015 76.4741C103.194 75.7125 103.015 74.8613 102.387 73.8757C101.758 72.9349 101.085 72.3525 100.278 72.2629C99.4699 72.1285 98.6173 72.3525 97.7198 72.9797L88.9696 78.5797C88.0272 79.1621 87.4439 79.8789 87.2644 80.6405C87.04 81.4021 87.2644 82.2533 87.8926 83.2389C88.5208 84.1797 89.1939 84.7173 90.0016 84.8517H89.9568Z" fill="url(#paint3_linear_2005_24497)"/>
<path d="M118.631 91.7958L120.336 94.0358L94.6236 98.0678L92.9184 95.8278L118.631 91.7958ZM100.008 103.713C100.188 102.772 100.771 101.921 101.758 101.114L103.329 99.9046C104.316 99.143 105.303 98.7846 106.291 98.8742C107.278 98.9638 108.086 99.5014 108.848 100.442C109.566 101.428 109.88 102.369 109.701 103.309C109.566 104.25 108.938 105.146 107.906 105.908L106.38 107.073C105.348 107.834 104.361 108.193 103.419 108.103C102.476 108.013 101.624 107.476 100.861 106.535C100.143 105.549 99.8289 104.609 100.008 103.668V103.713ZM103.643 105.549C103.957 105.549 104.271 105.46 104.63 105.191L106.47 103.802C106.784 103.533 107.009 103.265 107.053 102.951C107.098 102.637 107.053 102.324 106.784 102.055C106.56 101.741 106.291 101.607 105.976 101.562C105.662 101.562 105.348 101.652 104.989 101.921L103.149 103.309C102.79 103.578 102.566 103.892 102.521 104.161C102.476 104.474 102.521 104.743 102.79 105.057C103.015 105.325 103.284 105.505 103.598 105.549H103.643ZM103.643 86.6437C103.778 85.7029 104.406 84.8517 105.393 84.0453L106.964 82.8357C107.996 82.0741 108.938 81.7157 109.925 81.8053C110.868 81.8949 111.72 82.4325 112.483 83.3733C113.201 84.3589 113.515 85.2997 113.336 86.2405C113.156 87.1813 112.573 88.0773 111.541 88.8389L110.015 90.0037C108.983 90.7654 107.996 91.1238 107.053 91.0342C106.111 90.9445 105.258 90.4069 104.496 89.4661C103.778 88.4805 103.464 87.5397 103.643 86.5989V86.6437ZM107.323 88.4357C107.637 88.4357 107.951 88.3461 108.31 88.0773L110.15 86.6885C110.464 86.4197 110.688 86.1509 110.733 85.8373C110.778 85.5237 110.733 85.2101 110.509 84.9413C110.284 84.6277 110.015 84.4933 109.701 84.4485C109.387 84.4485 109.073 84.5381 108.714 84.8069L106.874 86.1957C106.515 86.4645 106.291 86.7781 106.246 87.0469C106.201 87.3605 106.246 87.6741 106.515 87.9429C106.739 88.2117 107.009 88.3909 107.323 88.3909V88.4357Z" fill="url(#paint4_linear_2005_24497)"/>
<path d="M115.22 121.767C114.906 120.647 114.951 119.527 115.355 118.407C115.759 117.287 116.477 116.212 117.554 115.181L119.438 113.345C120.515 112.314 121.592 111.642 122.714 111.284C123.836 110.925 124.958 110.925 126.035 111.284C127.112 111.642 128.189 112.314 129.176 113.3C130.163 114.33 130.791 115.361 131.105 116.481C131.42 117.601 131.375 118.676 130.971 119.796C130.567 120.916 129.849 121.991 128.817 123.022L126.887 124.903C125.81 125.934 124.733 126.65 123.612 126.964C122.49 127.322 121.368 127.322 120.291 126.964C119.214 126.65 118.137 125.934 117.15 124.948C116.163 123.918 115.534 122.887 115.22 121.767ZM121.906 123.962C122.849 123.918 123.746 123.47 124.689 122.574L126.618 120.692C127.516 119.796 128.009 118.9 128.099 118.004C128.189 117.108 127.83 116.212 127.022 115.406C126.259 114.599 125.407 114.241 124.464 114.241C123.522 114.241 122.624 114.733 121.727 115.63L119.797 117.511C118.9 118.407 118.406 119.303 118.317 120.244C118.227 121.185 118.586 122.036 119.349 122.842C120.111 123.649 120.964 124.007 121.906 123.962Z" fill="url(#paint5_linear_2005_24497)"/>
<path d="M138.868 120.02C139.856 118.945 140.843 118.362 141.785 118.318C142.772 118.228 143.76 118.676 144.792 119.617L146.542 121.23L144.478 123.47L142.772 121.902C142.772 121.902 142.324 121.633 142.01 121.678C141.74 121.722 141.471 121.902 141.247 122.17L128.682 135.834L126.304 133.684L138.824 120.02H138.868ZM136.086 120.513L142.099 126.023L140.26 128.039L134.247 122.529L136.086 120.513Z" fill="url(#paint6_linear_2005_24497)"/>
<path d="M146.362 126.695C147.305 125.575 148.247 124.993 149.189 124.858C150.176 124.724 151.164 125.127 152.241 126.023L154.036 127.546L152.061 129.876L150.311 128.398C150.087 128.218 149.817 128.129 149.548 128.218C149.279 128.308 149.01 128.487 148.785 128.756L136.849 142.958L134.381 140.897L146.273 126.695H146.362ZM143.625 127.278L149.862 132.519L148.112 134.625L141.875 129.383L143.625 127.278Z" fill="url(#paint7_linear_2005_24497)"/>
</g>
<mask id="mask0_2005_24497" style="mask-type:luminance" maskUnits="userSpaceOnUse" x="34" y="15" width="177" height="166">
<path d="M206.672 122.484C152.734 108.596 114.682 36.2882 105.932 18.1889C104.855 15.9489 102.117 15.0081 99.8737 16.0833L83.2707 24.1473C85.1105 28.1346 85.4246 33.0626 83.0014 38.1698C81.745 40.9027 79.5462 43.1875 76.8538 44.5763C67.7446 49.2355 58.5456 45.2483 54.7762 37.9458L36.6026 46.7715C34.4039 47.8467 33.4167 50.5347 34.4039 52.7747C67.9689 126.65 125.541 170.241 138.689 179.56C140.304 180.724 142.458 180.635 144.029 179.425L163.145 164.91C160.138 160.564 159.106 154.651 162.113 148.379C163.369 145.735 165.478 143.54 168.081 142.196C175.934 138.119 183.786 140.538 188.229 145.87C188.229 145.87 199.986 136.954 208.332 130.593C211.428 128.263 210.306 123.514 206.582 122.574L206.672 122.484Z" fill="white"/>
</mask>
<g mask="url(#mask0_2005_24497)">
<g style="mix-blend-mode:multiply">
<path d="M206.672 122.484C152.734 108.596 114.682 36.2882 105.932 18.1889C104.855 15.9489 102.117 15.0081 99.8737 16.0833L83.2707 24.1473C85.1105 28.1346 85.4246 33.0626 83.0014 38.1698C81.745 40.9027 79.5462 43.1875 76.8538 44.5763C67.7446 49.2355 58.5456 45.2483 54.7762 37.9458L36.6026 46.7715C34.4039 47.8467 33.4167 50.5347 34.4039 52.7747C67.9689 126.65 125.541 170.241 138.689 179.56C140.304 180.724 142.458 180.635 144.029 179.425L163.145 164.91C160.138 160.564 159.106 154.651 162.113 148.379C163.369 145.735 165.478 143.54 168.081 142.196C175.934 138.119 183.786 140.538 188.229 145.87C188.229 145.87 199.986 136.954 208.332 130.593C211.428 128.263 210.306 123.514 206.582 122.574L206.672 122.484Z" fill="#FFD8A1"/>
<path d="M206.627 121.454C152.779 107.341 114.996 34.8994 106.291 16.8001C105.214 14.5153 102.476 13.5745 100.233 14.6945L83.5848 22.669C85.4246 26.701 85.6938 31.5842 83.2707 36.6914C81.9693 39.4243 79.8154 41.7091 77.123 43.0531C67.9689 47.6675 58.8148 43.6803 55.0903 36.333L36.8719 45.0691C34.6731 46.1443 33.641 48.7875 34.6731 51.0275C67.9689 124.993 125.406 168.807 138.509 178.171C140.125 179.336 142.279 179.246 143.849 178.081L162.292 164.193C159.286 159.803 158.298 153.889 161.35 147.617C162.606 144.974 165.478 142.241 168.081 140.897C175.978 136.865 183.786 139.284 188.229 144.615C188.229 144.615 200.03 135.745 208.422 129.428C211.518 127.098 210.441 122.35 206.672 121.364L206.627 121.454Z" fill="#FFDCAA"/>
<path d="M206.627 120.378C152.824 106.087 115.31 33.5106 106.65 15.3665C105.573 13.0817 102.88 12.1409 100.592 13.2161L83.9438 21.1457C85.7836 25.1778 86.0079 30.061 83.5848 35.1682C82.2835 37.9011 80.0847 40.1859 77.3923 41.5299C68.2382 46.1443 59.0392 42.0675 55.3596 34.7202L37.0963 43.4115C34.8526 44.4867 33.8654 47.1299 34.8526 49.3699C67.8792 123.47 125.137 167.508 138.24 176.872C139.856 178.036 142.01 177.992 143.58 176.782L161.35 163.521C158.343 159.131 157.401 153.217 160.452 146.945C161.709 144.347 165.344 140.987 167.946 139.687C175.844 135.655 183.652 138.119 188.094 143.495C188.094 143.495 199.941 134.67 208.332 128.353C211.428 126.023 210.351 121.274 206.627 120.289V120.378Z" fill="#FFDFB2"/>
<path d="M206.627 119.348C152.869 104.877 115.579 32.1666 107.009 13.9777C105.932 11.6928 103.239 10.752 100.951 11.8272L84.2579 19.7121C86.0528 23.7441 86.322 28.6274 83.854 33.7346C82.5527 36.4674 80.3539 38.7074 77.6615 40.0514C68.4626 44.621 59.3084 40.5442 55.6737 33.1522L37.4104 41.7538C35.1667 42.7842 34.1795 45.4723 35.1667 47.7123C67.9241 121.946 125.003 166.164 138.061 175.572C139.676 176.737 141.83 176.692 143.401 175.527L160.497 162.939C157.536 158.548 156.593 152.635 159.645 146.362C160.946 143.764 165.299 139.866 167.901 138.567C175.799 134.58 183.607 137.044 188.004 142.42C188.004 142.42 199.851 133.594 208.287 127.367C211.383 125.082 210.351 120.334 206.627 119.303V119.348Z" fill="#FFE3BB"/>
<path d="M206.627 118.273C152.914 103.623 115.893 30.7778 107.412 12.5889C106.335 10.304 103.643 9.36324 101.355 10.3936L84.6169 18.1889C86.4118 22.2209 86.6362 27.149 84.1681 32.2114C82.8668 34.8994 80.6232 37.1842 77.9308 38.5282C68.7318 43.0531 59.5777 38.9314 55.943 31.5842L37.6347 40.141C35.3911 41.1714 34.4039 43.8595 35.3911 46.0995C67.8792 120.423 124.823 164.865 137.836 174.318C139.452 175.483 141.606 175.438 143.176 174.318L159.6 162.356C156.638 157.966 155.741 152.007 158.837 145.78C160.138 143.182 165.209 138.702 167.856 137.402C175.799 133.415 183.562 135.969 187.96 141.345C187.96 141.345 199.851 132.564 208.287 126.382C211.383 124.097 210.351 119.348 206.627 118.318V118.273Z" fill="#FFE6C3"/>
<path d="M206.627 117.242C152.959 102.369 116.208 29.389 107.771 11.1553C106.694 8.87046 104.002 7.88485 101.758 8.96006L85.0207 16.7105C86.8156 20.7425 86.9951 25.6706 84.5271 30.733C83.2258 33.421 80.9821 35.7058 78.2898 37.005C69.0908 41.5299 59.9367 37.3634 56.3468 29.9714L37.9937 38.4386C35.7501 39.469 34.718 42.1123 35.7052 44.3971C67.9241 118.855 124.689 163.476 137.702 172.974C139.317 174.139 141.471 174.139 143.042 172.974L158.747 161.639C155.786 157.204 154.933 151.291 158.029 145.063C159.331 142.465 165.164 137.447 167.767 136.148C175.709 132.206 183.472 134.759 187.87 140.18C187.87 140.18 199.806 131.444 208.242 125.262C211.383 122.977 210.351 118.228 206.627 117.198V117.242Z" fill="#FFEACC"/>
<path d="M206.627 116.167C153.003 101.114 116.522 28.0002 108.13 9.76646C107.098 7.48164 104.406 6.49604 102.117 7.52644L85.3348 15.2321C87.0849 19.2641 87.2644 24.1921 84.7964 29.2546C83.4502 31.9426 81.2514 34.2274 78.5141 35.5266C69.2703 40.0066 60.161 35.7954 56.6161 28.4034L38.263 36.8258C36.0193 37.8562 34.9872 40.4995 35.9744 42.7843C67.9241 117.332 124.554 162.177 137.477 171.719C139.093 172.884 141.202 172.884 142.817 171.719L157.85 161.057C154.933 156.622 154.036 150.708 157.177 144.481C158.478 141.882 165.074 136.282 167.677 135.028C175.62 131.13 183.383 133.684 187.735 139.105C187.735 139.105 199.671 130.414 208.197 124.276C211.339 121.991 210.306 117.242 206.627 116.212V116.167Z" fill="#FFEDD4"/>
<path d="M206.582 115.137C153.048 99.8598 116.836 26.6562 108.534 8.33286C107.502 6.04805 104.81 5.06244 102.521 6.09285L85.7387 13.7089C87.4887 17.7409 87.6682 22.669 85.1553 27.7314C83.8092 30.4194 81.5655 32.6594 78.8731 33.9586C69.6293 38.3939 60.52 34.1826 56.975 26.7458L38.5771 35.0786C36.3334 36.109 35.3013 38.7523 36.2437 40.9923C67.9241 115.674 124.374 160.699 137.298 170.331C138.868 171.495 141.022 171.495 142.638 170.331L156.997 160.295C154.08 155.86 153.228 149.947 156.414 143.719C157.715 141.121 165.074 134.983 167.677 133.684C175.664 129.786 183.383 132.385 187.735 137.85C187.735 137.85 199.716 129.204 208.242 123.111C211.383 120.871 210.396 116.078 206.672 115.047L206.582 115.137Z" fill="#FFF1DD"/>
<path d="M206.582 114.062C153.093 98.6502 117.15 25.2674 108.893 6.94406C107.861 4.65925 105.169 3.62884 102.88 4.65925L86.0528 12.2305C87.8028 16.3073 87.9375 21.1906 85.3797 26.253C84.0335 28.941 81.7898 31.181 79.0526 32.4802C69.8087 36.8707 60.6995 32.6146 57.1994 25.2226L38.7565 33.5106C36.5129 34.541 35.4359 37.1843 36.4231 39.4243C67.8343 114.196 124.15 159.444 137.029 169.121C138.599 170.331 140.753 170.331 142.369 169.121L156.055 159.713C153.138 155.278 152.33 149.319 155.516 143.137C156.863 140.539 164.895 133.818 167.542 132.564C175.53 128.711 183.248 131.354 187.601 136.82C187.601 136.82 199.627 128.218 208.152 122.126C211.294 119.886 210.351 115.092 206.627 114.017L206.582 114.062Z" fill="#FFF4E5"/>
<path d="M206.582 113.031C153.138 97.3958 117.464 23.8785 109.297 5.51041C108.265 3.22559 105.573 2.19518 103.284 3.22559L86.4118 10.752C88.117 14.8289 88.2516 19.7121 85.6938 24.7745C84.3476 27.4625 82.0591 29.7026 79.3667 30.957C70.078 35.3474 61.0136 31.0466 57.5135 23.6097L39.0707 31.853C36.827 32.8386 35.7501 35.4818 36.6924 37.7666C67.8343 112.673 123.971 158.1 136.804 167.822C138.375 169.031 140.529 169.031 142.144 167.867L155.112 159.131C152.241 154.651 151.433 148.737 154.619 142.554C155.965 139.956 164.76 132.698 167.408 131.444C175.395 127.636 183.158 130.279 187.421 135.745C187.421 135.745 199.492 127.188 208.018 121.14C211.159 118.9 210.217 114.151 206.492 113.031H206.582Z" fill="#FFF8EE"/>
<path d="M206.582 111.956C153.183 96.1414 117.778 22.5345 109.656 4.12162C108.624 1.8368 105.976 0.806397 103.643 1.792L86.7708 9.22885C88.4759 13.3057 88.6106 18.2337 86.0079 23.2513C84.6169 25.9394 82.3732 28.1346 79.6359 29.4338C70.3472 33.7794 61.2828 29.4338 57.8276 21.9969L39.3399 30.1506C37.0962 31.1362 36.0193 33.7794 36.9616 36.0642C67.8343 111.105 123.791 156.711 136.625 166.478C138.195 167.687 140.349 167.687 141.965 166.567L154.26 158.459C151.388 153.979 150.625 148.065 153.856 141.882C155.202 139.284 164.76 131.444 167.408 130.234C175.44 126.426 183.158 129.114 187.421 134.625C187.421 134.625 199.492 126.113 208.063 120.065C211.204 117.825 210.306 113.076 206.582 111.956Z" fill="#FFFBF6"/>
<path d="M206.582 110.925C153.228 94.887 118.047 21.1457 110.015 2.73281C109.028 0.447996 106.335 -0.627211 104.047 0.403195L87.1298 7.79524C88.8349 11.8721 88.9247 16.8001 86.322 21.8177C84.931 24.5057 82.6873 26.701 79.9501 27.9554C70.6613 32.2562 61.597 27.9106 58.1417 20.4289L39.6092 28.5378C37.3655 29.5234 36.2885 32.1666 37.186 34.4514C67.7895 109.581 123.612 155.457 136.4 165.223C137.971 166.433 140.125 166.433 141.74 165.313L153.362 157.831C150.535 153.351 149.728 147.393 153.003 141.255C154.35 138.702 164.67 130.279 167.273 129.025C175.305 125.262 183.024 127.95 187.287 133.46C187.287 133.46 199.402 124.993 208.018 118.99C211.204 116.794 210.262 112.001 206.582 110.881V110.925Z" fill="white"/>
</g>
<g style="mix-blend-mode:screen">
<path d="M206.672 122.484C152.734 108.596 114.682 36.2882 105.932 18.1889C104.855 15.9489 102.117 15.0081 99.8737 16.0833L83.2707 24.1473C85.1105 28.1346 85.4246 33.0626 83.0014 38.1698C81.745 40.9027 79.5462 43.1875 76.8538 44.5763C67.7446 49.2355 58.5456 45.2483 54.7762 37.9458L36.6026 46.7715C34.4039 47.8467 33.4167 50.5347 34.4039 52.7747C67.9689 126.65 125.541 170.241 138.689 179.56C140.304 180.724 142.458 180.635 144.029 179.425L163.145 164.91C160.138 160.564 159.106 154.651 162.113 148.379C163.369 145.735 165.478 143.54 168.081 142.196C175.934 138.119 183.786 140.538 188.229 145.87C188.229 145.87 199.986 136.954 208.332 130.593C211.428 128.263 210.306 123.514 206.582 122.574L206.672 122.484Z" fill="#9E00F0"/>
<path d="M206.717 123.29C152.779 109.402 114.682 37.1394 105.887 19.0401C104.81 16.8001 102.073 15.8593 99.8288 16.9345L83.2258 24.9985C85.0656 28.9858 85.3797 33.9138 83.0014 39.021C81.745 41.7538 79.5462 44.0387 76.8538 45.4275C67.7446 50.0867 58.5456 46.0995 54.7763 38.797L36.6027 47.6227C34.4039 48.6979 33.4167 51.3859 34.4487 53.6259C68.0587 127.457 125.676 171.047 138.824 180.321C140.439 181.441 142.593 181.396 144.163 180.187L163.279 165.671C160.273 161.326 159.241 155.412 162.247 149.14C163.504 146.497 165.613 144.302 168.215 142.958C176.068 138.881 183.921 141.255 188.363 146.587C188.363 146.587 200.12 137.626 208.467 131.31C211.563 128.98 210.441 124.231 206.672 123.29H206.717Z" fill="#9000DA"/>
<path d="M206.761 124.097C152.824 110.253 114.682 37.9906 105.887 19.9361C104.81 17.6961 102.072 16.7553 99.8288 17.8305L83.2258 25.8945C85.0656 29.8818 85.3797 34.8098 83.0014 39.917C81.745 42.6498 79.5462 44.9347 76.8538 46.3235C67.7446 51.0275 58.5456 47.0403 54.7763 39.693L36.6027 48.5187C34.4039 49.5939 33.4167 52.2819 34.4487 54.5219C68.1036 128.353 125.765 171.899 138.913 181.128C140.529 182.248 142.683 182.203 144.253 180.993L163.369 166.433C160.318 162.087 159.331 156.174 162.337 149.902C163.594 147.258 165.703 145.063 168.305 143.719C176.158 139.642 183.966 142.017 188.453 147.348C188.453 147.348 200.21 138.388 208.556 132.026C211.653 129.697 210.531 124.948 206.761 124.007V124.097Z" fill="#8100C4"/>
<path d="M206.806 124.903C152.824 111.105 114.637 38.8866 105.842 20.7873C104.72 18.5473 102.028 17.6065 99.784 18.7265L83.1809 26.7906C85.0656 30.7778 85.3348 35.7058 82.9566 40.813C81.7001 43.5459 79.5013 45.8307 76.8538 47.2195C67.7446 51.9235 58.5456 47.9363 54.7763 40.6338L36.6027 49.5043C34.4039 50.5795 33.4167 53.2675 34.4487 55.5075C68.1484 129.294 125.855 172.795 139.003 182.068C140.618 183.188 142.772 183.144 144.343 181.934L163.459 167.374C160.408 163.028 159.42 157.115 162.427 150.843C163.683 148.199 165.792 146.004 168.395 144.66C176.248 140.583 184.056 142.958 188.543 148.289C188.543 148.289 200.3 139.329 208.646 132.967C211.742 130.638 210.621 125.889 206.851 124.948L206.806 124.903Z" fill="#7300AF"/>
<path d="M206.851 125.665C152.869 111.911 114.637 39.693 105.797 21.6385C104.675 19.3985 101.983 18.4577 99.7391 19.5777L83.136 27.6866C85.0207 31.6738 85.2899 36.6018 82.9117 41.709C81.6552 44.4419 79.4564 46.7267 76.8089 48.1155C67.6997 52.8195 58.5007 48.8323 54.7314 41.5298L36.5578 50.4003C34.359 51.4755 33.3718 54.1635 34.4039 56.4035C68.1484 130.19 125.855 173.646 139.048 182.875C140.663 183.995 142.817 183.95 144.388 182.74L163.504 168.18C160.452 163.835 159.465 157.921 162.427 151.649C163.683 149.006 165.792 146.811 168.395 145.467C176.248 141.345 184.056 143.764 188.543 149.051C188.543 149.051 200.3 140.09 208.646 133.729C211.742 131.399 210.62 126.65 206.851 125.71V125.665Z" fill="#650099"/>
<path d="M206.896 126.471C152.914 112.762 114.637 40.589 105.797 22.5345C104.675 20.2945 101.983 19.3537 99.7391 20.4737L83.136 28.5826C85.0207 32.5698 85.2899 37.4978 82.9117 42.605C81.6552 45.3379 79.4564 47.6675 76.8089 49.0115C67.6997 53.7155 58.5007 49.7283 54.7314 42.4258L36.5578 51.2963C34.359 52.3715 33.3718 55.0595 34.4039 57.2995C68.1933 131.041 125.945 174.452 139.138 183.726C140.753 184.846 142.907 184.801 144.478 183.592L163.549 168.987C160.497 164.641 159.51 158.727 162.472 152.455C163.728 149.812 165.837 147.617 168.44 146.273C176.293 142.151 184.1 144.526 188.633 149.857C188.633 149.857 200.389 140.897 208.691 134.535C211.742 132.206 210.665 127.457 206.896 126.516V126.471Z" fill="#560083"/>
<path d="M206.986 127.278C153.003 113.614 114.637 41.4403 105.797 23.3858C104.675 21.1458 101.983 20.205 99.6942 21.325L83.136 29.4338C85.0207 33.421 85.3348 38.3491 82.9566 43.4563C81.7001 46.1891 79.5462 48.5187 76.8538 49.8627C67.7446 54.5668 58.5456 50.6243 54.7762 43.3219L36.6475 52.1923C34.4487 53.2676 33.4615 55.9556 34.4936 58.1956C68.3279 131.937 126.124 175.304 139.317 184.532C140.933 185.652 143.086 185.608 144.657 184.398L163.728 169.793C160.677 165.447 159.645 159.534 162.651 153.262C163.908 150.619 166.017 148.423 168.619 147.079C176.472 142.958 184.28 145.332 188.812 150.663C188.812 150.663 200.524 141.703 208.87 135.297C211.922 132.967 210.8 128.218 207.076 127.278H206.986Z" fill="#48006D"/>
<path d="M207.031 128.039C153.003 114.375 114.637 42.2467 105.797 24.237C104.675 21.997 101.983 21.0561 99.6942 22.1762L83.1361 30.285C85.0207 34.2722 85.3348 39.2003 82.9566 44.3075C81.7001 47.0403 79.5462 49.3699 76.8538 50.7139C67.7446 55.418 58.5456 51.4755 54.7314 44.1731L36.6027 53.0884C34.4039 54.1636 33.4167 56.8516 34.4487 59.0916C68.3728 132.788 126.169 176.155 139.362 185.339C140.977 186.459 143.131 186.414 144.702 185.204L163.773 170.6C160.722 166.254 159.69 160.34 162.696 154.068C163.952 151.425 166.062 149.23 168.619 147.886C176.472 143.764 184.28 146.139 188.812 151.47C188.812 151.47 200.524 142.465 208.87 136.103C211.922 133.729 210.8 129.025 207.076 128.084L207.031 128.039Z" fill="#390057"/>
<path d="M207.076 128.846C153.048 115.226 114.637 43.1427 105.752 25.0882C104.63 22.8481 101.938 21.9073 99.6493 23.0273L83.0912 31.181C84.9758 35.1682 85.2899 40.0963 82.9117 45.2035C81.6552 47.9363 79.5013 50.2659 76.8089 51.6547C67.6997 56.3588 58.5007 52.4163 54.6865 45.1139L36.5578 54.0291C34.359 55.1044 33.3718 57.7924 34.4039 60.0324C68.3728 133.729 126.169 177.006 139.407 186.235C141.022 187.355 143.176 187.31 144.747 186.1L163.818 171.495C160.766 167.15 159.734 161.236 162.696 154.964C163.952 152.321 166.062 150.126 168.619 148.782C176.472 144.66 184.28 147.035 188.812 152.321C188.812 152.321 200.524 143.316 208.87 136.954C211.922 134.58 210.8 129.876 207.076 128.935V128.846Z" fill="#2B0041"/>
<path d="M207.12 129.652C153.093 116.078 114.592 43.9939 105.752 25.9842C104.63 23.7441 101.938 22.8033 99.6493 23.9233L83.0912 32.077C84.9758 36.0642 85.2899 40.9923 82.9117 46.0995C81.6552 48.8323 79.5013 51.1619 76.8089 52.5507C67.6997 57.2548 58.5007 53.3571 54.6865 46.0547L36.5578 54.9699C34.359 56.0452 33.3718 58.7332 34.4039 60.9732C68.4177 134.625 126.259 177.902 139.497 187.086C141.112 188.206 143.266 188.161 144.837 186.952L163.863 172.302C160.811 167.956 159.779 162.043 162.741 155.771C163.997 153.127 166.106 150.932 168.664 149.588C176.517 145.467 184.325 147.796 188.857 153.127C188.857 153.127 200.569 144.123 208.87 137.716C211.922 135.342 210.8 130.638 207.076 129.697L207.12 129.652Z" fill="#1D002C"/>
<path d="M207.165 130.458C153.138 116.929 114.592 44.8899 105.707 26.8354C104.585 24.5953 101.893 23.6545 99.6045 24.7745L83.0463 32.9282C84.931 36.9154 85.2451 41.8434 82.9117 46.9507C81.6552 49.6835 79.5013 52.0131 76.8089 53.4019C67.6997 58.1508 58.5007 54.2083 54.6865 46.9059L36.5578 55.8659C34.359 56.9412 33.3718 59.6292 34.4039 61.8692C68.4625 135.521 126.349 178.708 139.586 187.937C141.202 189.057 143.356 189.012 144.926 187.803L163.952 173.153C160.901 168.807 159.869 162.894 162.831 156.622C164.087 153.979 166.196 151.783 168.754 150.439C176.607 146.318 184.415 148.647 188.947 153.979C188.947 153.979 200.659 144.974 208.96 138.567C212.012 136.193 210.89 131.489 207.12 130.548L207.165 130.458Z" fill="#0E0016"/>
<path d="M207.21 131.22C153.183 117.735 114.592 45.6963 105.662 27.6866C104.541 25.4465 101.848 24.5057 99.5596 25.6257L83.0014 33.7794C84.8861 37.7666 85.2002 42.6946 82.8668 47.8019C81.6104 50.5347 79.4565 52.8643 76.7641 54.2531C67.6548 59.0019 58.4559 55.0595 54.6416 47.7571L36.5129 56.7171C34.3141 57.7923 33.3269 60.4804 34.359 62.7204C68.4626 136.327 126.394 179.515 139.586 188.699C141.202 189.819 143.356 189.774 144.926 188.564L163.952 173.915C160.901 169.569 159.869 163.655 162.831 157.383C164.087 154.74 166.196 152.545 168.754 151.156C176.607 147.035 184.415 149.364 188.947 154.651C188.947 154.651 200.659 145.646 208.96 139.239C212.012 136.865 210.89 132.161 207.12 131.22H207.21Z" fill="black"/>
</g>
</g>
</g>
<g clip-path="url(#clip1_2005_24497)">
<path d="M122.4 221C190 221 244.8 212.628 244.8 202.3C244.8 191.972 190 183.6 122.4 183.6C54.8003 183.6 0 191.972 0 202.3C0 212.628 54.8003 221 122.4 221Z" fill="url(#paint8_radial_2005_24497)" style="mix-blend-mode:multiply"/>
</g>
<defs>
<linearGradient id="paint0_linear_2005_24497" x1="171.338" y1="168.478" x2="53.1505" y2="-16.2645" gradientUnits="userSpaceOnUse">
<stop stop-color="#FFC67A"/>
<stop offset="0.15" stop-color="#FBC37F"/>
<stop offset="0.34" stop-color="#F3BA8E"/>
<stop offset="0.54" stop-color="#E4ACA7"/>
<stop offset="0.76" stop-color="#CF99CB"/>
<stop offset="0.99" stop-color="#B580F7"/>
<stop offset="1" stop-color="#B47FFB"/>
</linearGradient>
<linearGradient id="paint1_linear_2005_24497" x1="162.414" y1="159.025" x2="78.9922" y2="28.5898" gradientUnits="userSpaceOnUse">
<stop stop-color="#FFD8A1"/>
<stop offset="0.18" stop-color="#FBD3A6"/>
<stop offset="0.4" stop-color="#F2C8B5"/>
<stop offset="0.65" stop-color="#E4B4CE"/>
<stop offset="0.91" stop-color="#CF9AF1"/>
<stop offset="1" stop-color="#C890FF"/>
</linearGradient>
<linearGradient id="paint2_linear_2005_24497" x1="152.621" y1="149.656" x2="86.2688" y2="64.3965" gradientUnits="userSpaceOnUse">
<stop stop-color="#FFC67A"/>
<stop offset="0.15" stop-color="#FBC37F"/>
<stop offset="0.34" stop-color="#F3BA8E"/>
<stop offset="0.54" stop-color="#E4ACA7"/>
<stop offset="0.76" stop-color="#CF99CB"/>
<stop offset="0.99" stop-color="#B580F7"/>
<stop offset="1" stop-color="#B47FFB"/>
</linearGradient>
<linearGradient id="paint3_linear_2005_24497" x1="151.352" y1="150.617" x2="84.9993" y2="65.358" gradientUnits="userSpaceOnUse">
<stop stop-color="#FFC67A"/>
<stop offset="0.15" stop-color="#FBC37F"/>
<stop offset="0.34" stop-color="#F3BA8E"/>
<stop offset="0.54" stop-color="#E4ACA7"/>
<stop offset="0.76" stop-color="#CF99CB"/>
<stop offset="0.99" stop-color="#B580F7"/>
<stop offset="1" stop-color="#B47FFB"/>
</linearGradient>
<linearGradient id="paint4_linear_2005_24497" x1="150.551" y1="151.269" x2="84.199" y2="66.0102" gradientUnits="userSpaceOnUse">
<stop stop-color="#FFC67A"/>
<stop offset="0.15" stop-color="#FBC37F"/>
<stop offset="0.34" stop-color="#F3BA8E"/>
<stop offset="0.54" stop-color="#E4ACA7"/>
<stop offset="0.76" stop-color="#CF99CB"/>
<stop offset="0.99" stop-color="#B580F7"/>
<stop offset="1" stop-color="#B47FFB"/>
</linearGradient>
<linearGradient id="paint5_linear_2005_24497" x1="149.114" y1="152.38" x2="82.762" y2="67.1208" gradientUnits="userSpaceOnUse">
<stop stop-color="#FFC67A"/>
<stop offset="0.15" stop-color="#FBC37F"/>
<stop offset="0.34" stop-color="#F3BA8E"/>
<stop offset="0.54" stop-color="#E4ACA7"/>
<stop offset="0.76" stop-color="#CF99CB"/>
<stop offset="0.99" stop-color="#B580F7"/>
<stop offset="1" stop-color="#B47FFB"/>
</linearGradient>
<linearGradient id="paint6_linear_2005_24497" x1="153.34" y1="149.1" x2="86.9873" y2="63.8411" gradientUnits="userSpaceOnUse">
<stop stop-color="#FFC67A"/>
<stop offset="0.15" stop-color="#FBC37F"/>
<stop offset="0.34" stop-color="#F3BA8E"/>
<stop offset="0.54" stop-color="#E4ACA7"/>
<stop offset="0.76" stop-color="#CF99CB"/>
<stop offset="0.99" stop-color="#B580F7"/>
<stop offset="1" stop-color="#B47FFB"/>
</linearGradient>
<linearGradient id="paint7_linear_2005_24497" x1="154.903" y1="147.889" x2="88.5508" y2="62.63" gradientUnits="userSpaceOnUse">
<stop stop-color="#FFC67A"/>
<stop offset="0.15" stop-color="#FBC37F"/>
<stop offset="0.34" stop-color="#F3BA8E"/>
<stop offset="0.54" stop-color="#E4ACA7"/>
<stop offset="0.76" stop-color="#CF99CB"/>
<stop offset="0.99" stop-color="#B580F7"/>
<stop offset="1" stop-color="#B47FFB"/>
</linearGradient>
<radialGradient id="paint8_radial_2005_24497" cx="0" cy="0" r="1" gradientUnits="userSpaceOnUse" gradientTransform="translate(123.425 204.114) scale(122.628 18.8659)">
<stop stop-color="#FCC27C"/>
<stop offset="0.25" stop-color="#FCD4A4"/>
<stop offset="0.59" stop-color="#FEEBD5"/>
<stop offset="0.85" stop-color="#FEF9F3"/>
<stop offset="1" stop-color="white"/>
</radialGradient>
<clipPath id="clip0_2005_24497">
<rect width="176.8" height="189.55" fill="white" transform="translate(34)"/>
</clipPath>
<clipPath id="clip1_2005_24497">
<rect width="244.8" height="37.4" fill="white" transform="translate(0 183.6)"/>
</clipPath>
</defs>
</svg>
