<svg width="189" height="143" viewBox="0 0 189 143" fill="none" xmlns="http://www.w3.org/2000/svg">
<path d="M168.561 107.486C162.488 91.3237 146.899 73.1962 125.053 59.1094C103.244 45.0226 80.3234 38.2757 63.1054 39.3879L51.4416 31.8625L43.5547 43.9475C31.6318 62.4828 50.7751 96.1428 86.3589 119.089C121.943 142.036 160.452 145.632 172.375 127.097L180.224 115.012L168.561 107.486Z" fill="url(#paint0_linear_2005_24607)"/>
<mask id="mask0_2005_24607" style="mask-type:luminance" maskUnits="userSpaceOnUse" x="40" y="31" width="141" height="108">
<path d="M168.561 107.486C162.488 91.3237 146.899 73.1962 125.053 59.1094C103.244 45.0226 80.3234 38.2757 63.1054 39.3879L51.4416 31.8625L43.5547 43.9475C31.6318 62.4828 50.7751 96.1428 86.3589 119.089C121.943 142.036 160.452 145.632 172.375 127.097L180.224 115.012L168.561 107.486Z" fill="white"/>
</mask>
<g mask="url(#mask0_2005_24607)">
<g style="mix-blend-mode:multiply">
<path d="M168.561 107.486C162.488 91.3237 146.899 73.1962 125.053 59.1094C103.244 45.0226 80.3234 38.2757 63.1054 39.3879L51.4416 31.8625L43.5547 43.9475C31.6318 62.4828 50.7751 96.1428 86.3589 119.089C121.943 142.036 160.452 145.632 172.375 127.097L180.224 115.012L168.561 107.486Z" fill="#F9AE93"/>
<path opacity="0.95" d="M168.598 106.93C162.525 90.7676 146.936 72.6401 125.09 58.5533C103.281 44.4665 80.3603 37.7197 63.1424 38.8318L51.4786 31.3065L43.5917 43.3914C31.6687 61.9267 50.8121 95.5867 86.3959 118.533C121.98 141.48 160.489 145.076 172.412 126.541L180.261 114.456L168.598 106.93Z" fill="#F9B39A"/>
<path opacity="0.9" d="M168.598 106.374C162.525 90.2115 146.936 72.0841 125.09 57.9973C103.281 43.9105 80.3603 37.1636 63.1424 38.2757L51.4786 30.7504L43.5917 42.8354C31.6687 61.3707 50.8121 95.0307 86.3959 117.977C121.98 140.924 160.489 144.52 172.412 125.985L180.261 113.9L168.598 106.374Z" fill="#FAB8A1"/>
<path opacity="0.85" d="M168.635 105.818C162.562 89.6555 146.973 71.528 125.127 57.4412C103.318 43.3544 80.3975 36.6075 63.1795 37.7197L51.5157 30.1943L43.6288 42.2793C31.7059 60.8146 50.8492 94.4746 86.433 117.421C122.017 140.368 160.526 143.964 172.449 125.429L180.299 113.344L168.635 105.818Z" fill="#FABDA7"/>
<path opacity="0.8" d="M168.672 105.262C162.599 89.0994 147.01 70.9719 125.164 56.8851C103.355 42.7983 80.4344 36.0515 63.2165 37.1636L51.5527 29.6383L43.6658 41.7233C31.7428 60.2586 50.8862 93.9186 86.47 116.865C122.054 139.812 160.563 143.408 172.486 124.872L180.336 112.787L168.672 105.262Z" fill="#FBC2AE"/>
<path opacity="0.75" d="M168.709 104.706C162.636 88.5433 147.047 70.4159 125.201 56.3291C103.392 42.2423 80.4714 35.4954 63.2535 36.6075L51.5897 29.0822L43.7028 41.1672C31.7798 59.7025 50.9232 93.3625 86.507 116.309C122.091 139.256 160.6 142.852 172.523 124.316L180.373 112.231L168.709 104.706Z" fill="#FBC7B5"/>
<path opacity="0.7" d="M168.746 104.15C162.673 87.9873 147.085 69.8598 125.238 55.773C103.429 41.6862 80.5085 34.9394 63.2906 36.0515L51.6268 28.5262L43.7769 40.6112C31.8539 59.1464 50.9973 92.8065 86.5811 115.753C122.165 138.7 160.674 142.296 172.597 123.76L180.447 111.675L168.783 104.15H168.746Z" fill="#FBCCBB"/>
<path opacity="0.65" d="M168.746 103.594C162.673 87.4312 147.085 69.3037 125.238 55.2169C103.429 41.1301 80.5085 34.3833 63.2906 35.4954L51.6268 27.9701L43.7769 40.0551C31.8539 58.5903 50.9973 92.2504 86.5811 115.197C122.165 138.144 160.674 141.74 172.597 123.204L180.447 111.119L168.783 103.594H168.746Z" fill="#FCD1C2"/>
<path opacity="0.6" d="M168.783 103.038C162.71 86.8752 147.122 68.7477 125.275 54.6609C103.466 40.5741 80.5455 33.8273 63.3275 34.9394L51.6638 27.4141L43.8139 39.4991C31.8909 58.0343 51.0343 91.6944 86.618 114.641C122.202 137.588 160.711 141.184 172.634 122.648L180.484 110.563L168.82 103.038H168.783Z" fill="#FCD7C9"/>
<path opacity="0.55" d="M168.82 102.482C162.747 86.3191 147.159 68.1916 125.312 54.1048C103.466 40.0551 80.5825 33.3083 63.3275 34.4204L51.6638 26.8951L43.8139 38.9801C31.8909 57.5153 51.0343 91.1754 86.618 114.122C122.202 137.069 160.711 140.665 172.634 122.129L180.484 110.044L168.82 102.519V102.482Z" fill="#FCDCD0"/>
<path opacity="0.5" d="M168.857 101.963C162.784 85.8001 147.196 67.6726 125.349 53.5858C103.503 39.499 80.5826 32.7522 63.3646 33.8643L51.7009 26.339L43.851 38.424C31.928 56.9592 51.0714 90.6193 86.6552 113.566C122.239 136.513 160.748 140.108 172.671 121.573L180.521 109.488L168.857 101.963Z" fill="#FDE1D7"/>
<path opacity="0.45" d="M168.857 101.407C162.784 85.2441 147.196 67.1166 125.349 53.0298C103.54 38.943 80.6196 32.1962 63.4016 33.3083L51.7379 25.783L43.888 37.868C31.965 56.4032 51.1084 90.0632 86.6921 113.01C122.276 135.957 160.785 139.552 172.708 121.017L180.558 108.932L168.894 101.407H168.857Z" fill="#FDE6DD"/>
<path opacity="0.4" d="M168.894 100.851C162.821 84.688 147.233 66.5605 125.386 52.4737C103.577 38.3869 80.6566 31.6401 63.4387 32.7893L51.7379 25.2269L43.888 37.3119C31.965 55.8471 51.1084 89.5072 86.6921 112.454C122.276 135.4 160.785 138.996 172.708 120.461L180.558 108.376L168.894 100.851Z" fill="#FEEBE4"/>
<path opacity="0.35" d="M168.931 100.295C162.858 84.132 147.27 66.0045 125.423 51.9177C103.614 37.8309 80.6936 31.084 63.4757 32.2332L51.7749 24.6708L43.925 36.7558C32.002 55.2911 51.1454 88.9511 86.7291 111.898C122.313 134.844 160.822 138.44 172.745 119.905L180.595 107.82L168.931 100.295Z" fill="#FEF0EB"/>
<path opacity="0.3" d="M168.968 99.7387C162.895 83.5759 147.307 65.4484 125.46 51.3616C103.614 37.2748 80.7307 30.528 63.4757 31.6772L51.812 24.1148L43.9621 36.1998C32.0391 54.7351 51.1825 88.3951 86.7662 111.342C122.35 134.288 160.859 137.884 172.782 119.349L180.632 107.264L168.968 99.7387Z" fill="#FEF5F2"/>
<path opacity="0.25" d="M169.005 99.1826C162.932 83.0198 147.344 64.8924 125.497 50.8056C103.651 36.7188 80.7307 29.9719 63.5127 31.1211L51.849 23.5587L43.9991 35.6437C32.0761 54.179 51.2195 87.839 86.8032 110.786C122.387 133.732 160.896 137.328 172.819 118.793L180.669 106.708L169.005 99.1826Z" fill="#FFFAF8"/>
<path opacity="0.2" d="M169.005 98.6265C162.932 82.4638 147.344 64.3363 125.497 50.2495C103.688 36.1627 80.7677 29.4159 63.5497 30.5651L51.8859 23.0397L44.036 35.1247C32.1131 53.66 51.2565 87.32 86.8402 110.267C122.424 133.213 160.933 136.809 172.856 118.274L180.706 106.189L169.042 98.6636L169.005 98.6265Z" fill="white"/>
</g>
</g>
<path d="M180.224 115.012C168.301 133.547 129.755 129.988 94.2088 107.005C58.625 84.0579 39.4816 50.3978 51.4046 31.8626C63.3275 13.3273 101.874 16.9231 137.42 39.8698C173.004 62.8165 192.147 96.4765 180.224 115.012Z" fill="url(#paint1_linear_2005_24607)"/>
<path d="M75.2135 75.7911C62.1797 61.1112 56.4033 45.6528 61.2169 38.2016C64.4013 33.2342 73.1029 30.8987 84.4704 31.9367C98.6891 33.2712 115.685 39.7215 131.088 49.6935C140.753 55.9213 149.528 63.3354 156.415 71.0832C169.449 85.7631 175.226 101.222 170.412 108.673C167.228 113.64 158.526 115.976 147.159 114.938C132.94 113.603 115.944 107.153 100.54 97.1808C90.8762 90.953 82.1006 83.5389 75.2135 75.7911Z" fill="url(#paint2_linear_2005_24607)"/>
<path d="M82.1747 35.9403C96.3934 37.2749 113.389 43.7251 128.793 53.6971C138.457 59.9249 147.233 67.339 154.12 75.0868C165.895 88.321 171.634 102.111 169.153 110.193C169.634 109.711 170.079 109.229 170.412 108.673C175.226 101.184 169.486 85.726 156.416 71.0832C149.528 63.3354 140.753 55.9213 131.088 49.6935C115.648 39.7215 98.6521 33.2712 84.4704 31.9367C73.1029 30.8617 64.4013 33.2342 61.217 38.2016C60.7356 38.943 60.4394 39.8327 60.1802 40.6853C64.0681 36.7559 72.0661 34.9765 82.1747 35.9403Z" fill="url(#paint3_linear_2005_24607)"/>
<path d="M118.684 60.8888L83.3966 54.6609C77.0649 53.5488 74.0656 58.9241 78.3238 63.7432L102.133 90.5823C103.725 92.3617 105.984 93.6591 108.353 94.0669L143.641 100.295C149.973 101.407 152.972 96.0316 148.714 91.2125L124.905 64.3734C123.313 62.594 121.054 61.2966 118.684 60.8888Z" fill="url(#paint4_linear_2005_24607)"/>
<path d="M120.832 56.6998L85.5443 50.472C79.2126 49.3599 76.2133 54.7351 80.4715 59.5543L104.28 86.3933C105.873 88.1727 108.131 89.4702 110.501 89.8779L145.789 96.1058C152.12 97.2179 155.12 91.8427 150.861 87.0235L127.053 60.1845C125.46 58.4051 123.202 57.1076 120.832 56.6998Z" fill="url(#paint5_linear_2005_24607)"/>
<path d="M93.209 60.7405L119.277 65.3372C119.684 65.4114 120.165 65.7079 120.461 66.0045L138.05 85.8372L111.982 81.2405C111.575 81.1663 111.056 80.8698 110.797 80.5732L93.209 60.7405Z" fill="url(#paint6_linear_2005_24607)"/>
<path d="M93.209 60.7405L119.277 65.3372C119.684 65.4114 120.165 65.7079 120.461 66.0045L138.05 85.8372L111.982 81.2405C111.575 81.1663 111.056 80.8698 110.797 80.5732L93.209 60.7405Z" fill="url(#paint7_linear_2005_24607)"/>
<mask id="mask1_2005_24607" style="mask-type:luminance" maskUnits="userSpaceOnUse" x="78" y="50" width="75" height="47">
<path d="M120.832 56.6998L85.5443 50.472C79.2126 49.3599 76.2133 54.7351 80.4715 59.5543L104.28 86.3933C105.873 88.1727 108.131 89.4702 110.501 89.8779L145.789 96.1058C152.12 97.2179 155.12 91.8427 150.861 87.0235L127.053 60.1845C125.46 58.4051 123.202 57.1076 120.832 56.6998Z" fill="white"/>
</mask>
<g mask="url(#mask1_2005_24607)">
<g style="mix-blend-mode:screen">
<path d="M120.832 56.6998L85.5443 50.472C79.2126 49.3599 76.2133 54.7351 80.4715 59.5543L104.28 86.3933C105.873 88.1727 108.131 89.4702 110.501 89.8779L145.789 96.1058C152.12 97.2179 155.12 91.8427 150.861 87.0235L127.053 60.1845C125.46 58.4051 123.202 57.1076 120.832 56.6998Z" fill="#FFB100"/>
<path opacity="0.94" d="M120.795 56.9593L85.7665 50.8056C79.4718 49.6935 76.5096 55.0317 80.7307 59.8138L104.354 86.4304C105.91 88.2098 108.205 89.4702 110.501 89.878L145.529 96.0317C151.824 97.1438 154.786 91.8056 150.565 87.0235L126.941 60.4069C125.386 58.6275 123.091 57.3671 120.795 56.9593Z" fill="#EFA600"/>
<path opacity="0.88" d="M120.721 57.2559L85.9516 51.1392C79.7309 50.0271 76.7687 55.3653 80.9529 60.0732L104.391 86.5045C105.947 88.2468 108.205 89.5072 110.501 89.915L145.27 96.0316C151.491 97.1438 154.453 91.8056 150.269 87.0976L126.83 60.6664C125.275 58.9241 123.016 57.6637 120.721 57.2559Z" fill="#DF9B00"/>
<path opacity="0.81" d="M120.684 57.5154L86.1738 51.4358C79.9901 50.3608 77.0649 55.6248 81.212 60.3327L104.466 86.5416C106.021 88.2839 108.242 89.5443 110.538 89.9521L145.048 96.0317C151.232 97.1067 154.157 91.8427 150.01 87.1347L126.756 60.9259C125.201 59.1836 122.979 57.9232 120.684 57.5154Z" fill="#CF9000"/>
<path opacity="0.75" d="M120.647 57.8119L86.3959 51.7694C80.2493 50.6944 77.3612 55.9213 81.4712 60.5922L104.54 86.6157C106.058 88.3581 108.279 89.5814 110.575 89.9892L144.826 96.0317C150.972 97.1067 153.861 91.8798 149.751 87.2089L126.682 61.1854C125.164 59.443 122.942 58.2197 120.647 57.8119Z" fill="#BF8500"/>
<path opacity="0.69" d="M120.573 58.0714L86.5811 52.1031C80.5086 51.028 77.5834 56.2179 81.6935 60.8517L104.614 86.6899C106.132 88.3951 108.354 89.6185 110.575 90.0262L144.567 95.9946C150.639 97.0696 153.564 91.8797 149.454 87.2459L126.534 61.4078C125.016 59.7025 122.794 58.4792 120.573 58.0714Z" fill="#AF7A00"/>
<path opacity="0.62" d="M120.536 58.368L86.8403 52.4367C80.8048 51.3617 77.9166 56.5145 81.9896 61.1112L104.725 86.727C106.243 88.4322 108.428 89.6555 110.649 90.0262L144.345 95.9575C150.38 97.0326 153.268 91.8798 149.195 87.283L126.46 61.6673C124.942 59.962 122.757 58.7387 120.536 58.368Z" fill="#9F6F00"/>
<path opacity="0.56" d="M120.499 58.6646L87.0625 52.7704C81.064 51.7324 78.2128 56.8111 82.2488 61.3707L104.799 86.8011C106.28 88.4693 108.465 89.6926 110.686 90.1004L144.122 95.9946C150.121 97.0326 152.972 91.9539 148.936 87.3942L126.386 61.9639C124.905 60.2957 122.72 59.0724 120.499 58.6646Z" fill="#8F6400"/>
<path opacity="0.5" d="M120.462 58.924L87.2846 53.0669C81.3232 52.0289 78.509 57.0705 82.508 61.5931L104.873 86.8011C106.354 88.4692 108.502 89.6926 110.723 90.0633L143.9 95.9204C149.862 96.9584 152.676 91.9168 148.677 87.3942L126.312 62.1862C124.831 60.5181 122.683 59.2947 120.462 58.924Z" fill="#805900"/>
<path opacity="0.44" d="M120.387 59.2207L87.4697 53.4377C81.5823 52.3997 78.7682 57.4413 82.7302 61.9268L104.91 86.9494C106.391 88.6176 108.502 89.8038 110.686 90.1745L143.604 95.9575C149.491 96.9955 152.305 91.9539 148.343 87.4684L126.164 62.4458C124.683 60.7776 122.572 59.5914 120.387 59.2207Z" fill="#704D00"/>
<path opacity="0.38" d="M120.35 59.4801L87.6919 53.7342C81.8415 52.6962 79.0644 57.7007 82.9894 62.1492L105.021 86.9864C106.465 88.6175 108.613 89.8038 110.76 90.2116L143.419 95.9575C149.269 96.9955 152.046 91.991 148.121 87.5425L126.09 62.7052C124.646 61.0741 122.498 59.8879 120.35 59.4801Z" fill="#604200"/>
<path opacity="0.31" d="M120.313 59.7767L87.9141 54.0678C82.1007 53.0299 79.3607 57.9973 83.2486 62.4087L105.095 87.0235C106.539 88.6546 108.65 89.8409 110.797 90.2116L143.197 95.9205C149.01 96.9584 151.75 91.991 147.862 87.5796L126.016 62.9648C124.572 61.3337 122.461 60.1474 120.313 59.7767Z" fill="#503700"/>
<path opacity="0.25" d="M120.239 60.0362L88.0992 54.3644C82.3599 53.3635 79.6198 58.2568 83.4707 62.6311L105.132 87.0606C106.576 88.6917 108.65 89.8409 110.797 90.2116L142.937 95.8833C148.677 96.8843 151.417 91.9909 147.566 87.6166L125.905 63.1871C124.461 61.556 122.387 60.4069 120.239 60.0362Z" fill="#402C00"/>
<path opacity="0.19" d="M120.202 60.3328L88.3585 54.7351C82.6562 53.7342 79.9532 58.5904 83.767 62.9277L105.243 87.1347C106.65 88.7288 108.724 89.915 110.834 90.2857L142.678 95.8834C148.381 96.8843 151.084 92.028 147.27 87.6908L125.794 63.4837C124.387 61.8897 122.313 60.7035 120.202 60.3328Z" fill="#302100"/>
<path opacity="0.12" d="M120.165 60.6293L88.5806 55.0687C82.9153 54.0678 80.2123 58.887 84.0262 63.1872L105.317 87.2089C106.724 88.8029 108.798 89.9521 110.871 90.3228L142.456 95.8834C148.121 96.8843 150.824 92.0651 147.011 87.7649L125.72 63.7432C124.312 62.1492 122.239 61 120.165 60.6293Z" fill="#201600"/>
<path opacity="0.06" d="M120.128 60.8888L88.8028 55.3653C83.1745 54.3644 80.5085 59.1465 84.2854 63.4467L105.391 87.246C106.798 88.84 108.835 89.9521 110.908 90.3228L142.234 95.8463C147.862 96.8472 150.528 92.0651 146.751 87.765L125.645 63.9657C124.238 62.3716 122.202 61.2595 120.128 60.8888Z" fill="#100B00"/>
</g>
<g style="mix-blend-mode:multiply">
<path d="M120.832 56.6998L85.5443 50.472C79.2126 49.3599 76.2133 54.7351 80.4715 59.5543L104.28 86.3933C105.873 88.1727 108.131 89.4702 110.501 89.8779L145.789 96.1058C152.12 97.2179 155.12 91.8427 150.861 87.0235L127.053 60.1845C125.46 58.4051 123.202 57.1076 120.832 56.6998Z" fill="#FFB35A"/>
<path opacity="0.94" d="M120.758 56.3662L85.5073 50.3237C79.2126 49.2116 76.3984 54.5868 80.6566 59.3689L104.317 86.0597C105.873 87.8391 108.168 89.0995 110.501 89.5072L145.418 95.698C151.935 96.8843 154.86 91.2866 150.602 86.5045L126.941 59.8137C125.386 58.0344 123.091 56.774 120.758 56.3662Z" fill="#FFB864"/>
<path opacity="0.88" d="M120.721 56.0696L85.5073 50.2125C79.2496 49.1003 76.6576 54.4756 80.8788 59.2206L104.429 85.7631C105.984 87.5425 108.242 88.8029 110.575 89.2106L145.122 95.3644C151.824 96.6248 154.638 90.8418 150.417 86.0967L126.867 59.5542C125.312 57.7748 123.054 56.5144 120.721 56.1067V56.0696Z" fill="#FFBC6F"/>
<path opacity="0.81" d="M120.684 55.736L85.5073 50.0642C79.2866 48.9521 76.8798 54.2902 81.064 59.0353L104.503 85.4666C106.058 87.2089 108.316 88.4693 110.612 88.877L144.826 94.9937C151.75 96.3282 154.453 90.3599 150.232 85.6148L126.793 59.1835C125.238 57.4412 122.979 56.1808 120.684 55.7731V55.736Z" fill="#FFC179"/>
<path opacity="0.75" d="M120.61 55.4394L85.4703 49.9159C79.2866 48.8408 77.065 54.1419 81.2491 58.8499L104.54 85.1329C106.095 86.8752 108.316 88.1356 110.612 88.5434L144.456 94.6229C151.565 95.9945 154.157 89.8779 149.973 85.1329L126.645 58.8499C125.09 57.1076 122.868 55.8472 120.573 55.4394H120.61Z" fill="#FFC683"/>
<path opacity="0.69" d="M120.573 55.1058L85.4702 49.7676C79.3236 48.6926 77.3241 53.9566 81.4712 58.6645L104.651 84.7993C106.206 86.5416 108.428 87.7649 110.686 88.1727L144.159 94.2152C151.454 95.6609 153.972 89.3219 149.788 84.651L126.608 58.5163C125.053 56.7739 122.831 55.5506 120.573 55.1428V55.1058Z" fill="#FFCB8E"/>
<path opacity="0.62" d="M120.499 54.7722L85.4333 49.6194C79.2867 48.5443 77.5093 53.8083 81.6565 58.4792L104.725 84.5027C106.243 86.2451 108.465 87.4684 110.76 87.8762L143.863 93.8445C151.38 95.3644 153.75 88.84 149.603 84.1691L126.534 58.1456C125.016 56.4033 122.794 55.18 120.499 54.7722Z" fill="#FFD098"/>
<path opacity="0.56" d="M120.462 54.4756L85.4333 49.4711C79.3237 48.396 77.7315 53.623 81.8416 58.2568L104.799 84.132C106.317 85.8373 108.539 87.0977 110.797 87.4684L143.53 93.3996C151.232 94.9937 153.527 88.2839 149.417 83.6501L126.46 57.7749C124.942 56.0696 122.72 54.8092 120.462 54.4385V54.4756Z" fill="#FFD4A2"/>
<path opacity="0.5" d="M120.425 54.142L85.4332 49.3228C79.3606 48.2477 77.9906 53.4747 82.0637 58.0714L104.873 83.7984C106.391 85.5036 108.576 86.7269 110.834 87.1347L143.197 93.0289C151.084 94.6971 153.268 87.7649 149.195 83.1682L126.386 57.4412C124.868 55.736 122.683 54.5127 120.425 54.1049V54.142Z" fill="#FFD9AD"/>
<path opacity="0.44" d="M120.351 53.8454L85.3963 49.2116C79.3607 48.1366 78.1758 53.3635 82.2489 57.9232L104.947 83.5389C106.465 85.2441 108.65 86.4675 110.871 86.8382L142.863 92.6953C150.973 94.4376 153.046 87.3201 148.973 82.7234L126.275 57.1076C124.757 55.4024 122.572 54.1791 120.351 53.8083V53.8454Z" fill="#FFDEB7"/>
<path opacity="0.38" d="M120.313 53.5117L85.3962 49.0633C79.3977 47.9882 78.3979 53.1781 82.434 57.7378L105.021 83.2052C106.502 84.9105 108.687 86.0967 110.908 86.5045L142.53 92.3246C150.824 94.104 152.787 86.8381 148.751 82.2785L126.164 56.811C124.683 55.1058 122.498 53.9195 120.276 53.5117H120.313Z" fill="#FFE3C1"/>
<path opacity="0.31" d="M120.239 53.2152L85.3591 48.915C79.3977 47.877 78.583 53.0298 82.6191 57.5524L105.095 82.8716C106.576 84.5398 108.761 85.7631 110.945 86.1338L142.197 91.9168C150.676 93.7703 152.565 86.2821 148.529 81.7595L126.053 56.4403C124.572 54.7721 122.387 53.5488 120.202 53.1781L120.239 53.2152Z" fill="#FFE7CB"/>
<path opacity="0.25" d="M120.202 52.8815L85.3592 48.7667C79.4348 47.7287 78.8423 52.8445 82.8413 57.3671L105.169 82.538C106.65 84.2061 108.798 85.4295 110.982 85.8002L141.901 91.5461C150.602 93.4738 152.343 85.8002 148.344 81.2776L126.016 56.1067C124.535 54.4385 122.387 53.2152 120.202 52.8445V52.8815Z" fill="#FFECD6"/>
<path opacity="0.19" d="M120.165 52.585L85.3592 48.6555C79.4718 47.6176 79.0645 52.7333 83.0635 57.2188L105.28 82.2785C106.761 83.9467 108.909 85.1329 111.094 85.5036L141.642 91.2125C150.528 93.2143 152.194 85.3554 148.195 80.8698L125.979 55.8101C124.498 54.142 122.35 52.9557 120.165 52.585Z" fill="#FFF1E0"/>
<path opacity="0.12" d="M120.091 52.2514L85.3592 48.5072C79.4718 47.4693 79.2867 52.585 83.2486 57.0335L105.354 81.9449C106.835 83.613 108.946 84.7993 111.131 85.17L141.308 90.8418C150.38 92.9177 151.935 84.8734 147.973 80.3879L125.868 55.4765C124.387 53.8083 122.276 52.6221 120.091 52.2514Z" fill="#FFF6EA"/>
<path opacity="0.06" d="M120.054 51.9548L85.3592 48.359C79.5088 47.321 79.5459 52.3996 83.4708 56.8481L105.428 81.6112C106.872 83.2423 109.02 84.4286 111.168 84.8364L140.975 90.4711C150.269 92.6212 151.713 84.3544 147.751 79.943L125.794 55.1799C124.35 53.5488 122.202 52.3626 120.054 51.9548Z" fill="#FFFAF5"/>
</g>
</g>
<mask id="mask2_2005_24607" style="mask-type:luminance" maskUnits="userSpaceOnUse" x="47" y="20" width="137" height="107">
<path d="M180.224 115.012C168.301 133.547 129.755 129.988 94.2088 107.005C58.625 84.0579 39.4816 50.3978 51.4046 31.8626C63.3275 13.3273 101.874 16.9231 137.42 39.8698C173.004 62.8165 192.147 96.4765 180.224 115.012Z" fill="white"/>
</mask>
<g mask="url(#mask2_2005_24607)">
<g style="mix-blend-mode:screen">
<path d="M180.224 115.012C168.301 133.547 129.755 129.988 94.2088 107.005C58.625 84.0579 39.4816 50.3978 51.4046 31.8626C63.3275 13.3273 101.874 16.9231 137.42 39.8698C173.004 62.8165 192.147 96.4765 180.224 115.012Z" fill="#FFBB30"/>
<path opacity="0.94" d="M180.558 116.013C168.635 134.548 130.089 130.989 94.542 108.005C58.9582 85.0588 39.7778 51.3987 51.7378 32.8635C63.6608 14.3282 102.207 17.9241 137.753 40.8707C173.337 63.8174 192.481 97.4774 180.558 116.013Z" fill="#EFAF2D"/>
<path opacity="0.88" d="M180.891 117.014C168.968 135.549 130.422 131.99 94.8752 109.006C59.2915 86.0597 40.1111 52.4367 52.0711 33.8644C63.994 15.3291 102.503 18.925 138.087 41.8716C173.67 64.8183 192.814 98.4783 180.891 117.014Z" fill="#DFA42A"/>
<path opacity="0.81" d="M181.224 118.052C169.301 136.587 130.755 133.028 95.2085 110.044C59.5877 87.0606 40.4443 53.4376 52.3673 34.9024C64.3273 16.33 102.836 19.9259 138.42 42.8725C174.004 65.8192 193.147 99.4792 181.224 118.014V118.052Z" fill="#CF9827"/>
<path opacity="0.75" d="M181.52 119.052C169.597 137.588 131.051 134.029 95.5046 111.045C59.9209 88.0986 40.7775 54.4386 52.7005 35.9033C64.6605 17.368 103.169 20.9268 138.753 43.9105C174.337 66.8572 193.48 100.517 181.557 119.052H181.52Z" fill="#BF8C24"/>
<path opacity="0.69" d="M181.876 120.069C193.821 101.519 174.663 67.866 139.084 44.9022C103.506 21.9383 64.9807 18.3598 53.0355 36.9094C41.0904 55.4589 60.2488 89.1122 95.827 112.076C131.405 135.04 169.931 138.618 181.876 120.069Z" fill="#AF8121"/>
<path opacity="0.62" d="M182.187 121.054C170.264 139.589 131.718 136.031 96.1711 113.047C60.5874 90.1003 41.407 56.4403 53.367 37.905C65.2899 19.3698 103.836 22.9656 139.383 45.9123C174.966 68.8589 194.11 102.519 182.187 121.054Z" fill="#9F751E"/>
<path opacity="0.56" d="M182.52 122.055C170.597 140.59 132.051 137.032 96.5044 114.048C60.9206 91.1013 41.7402 57.4783 53.7002 38.906C65.6232 20.3707 104.132 23.9665 139.716 46.9132C175.3 69.8599 194.443 103.52 182.52 122.055Z" fill="#8F691B"/>
<path opacity="0.5" d="M182.853 123.093C170.93 141.628 132.384 138.07 96.8376 115.086C61.2169 92.1022 42.0735 58.4792 53.9964 39.9439C65.9564 21.3716 104.465 24.9674 140.049 47.9141C175.633 70.8608 194.776 104.521 182.853 123.056V123.093Z" fill="#805E18"/>
<path opacity="0.44" d="M183.15 124.094C171.227 142.629 132.681 139.071 97.1339 116.087C61.5502 93.1402 42.4068 59.4801 54.3297 40.9449C66.2897 22.4096 104.799 25.9684 140.382 48.9521C175.966 71.8988 195.11 105.559 183.187 124.094H183.15Z" fill="#705215"/>
<path opacity="0.38" d="M183.483 125.095C171.56 143.63 133.014 140.071 97.4672 117.088C61.8834 94.1411 42.74 60.481 54.663 41.9458C66.623 23.4105 105.132 26.9693 140.716 49.953C176.299 72.8997 195.443 106.56 183.52 125.095H183.483Z" fill="#604612"/>
<path opacity="0.31" d="M183.816 126.096C171.893 144.631 133.347 141.072 97.8004 118.089C62.2167 95.142 43.0362 61.482 54.9962 42.9467C66.9192 24.4114 105.465 27.9702 141.012 50.9539C176.596 73.9006 195.739 107.561 183.816 126.096Z" fill="#503A0F"/>
<path opacity="0.25" d="M184.149 127.097C172.226 145.632 133.68 142.073 98.1337 119.09C62.5499 96.1429 43.3695 62.5199 55.3295 43.9475C67.2525 25.4123 105.798 28.9711 141.345 51.9548C176.929 74.9014 196.072 108.561 184.149 127.097Z" fill="#402F0C"/>
<path opacity="0.19" d="M184.483 128.098C172.56 146.633 134.014 143.074 98.4669 120.09C62.8461 97.1438 43.7027 63.5208 55.6257 44.9856C67.5487 26.4503 106.095 30.0091 141.641 52.9928C177.225 75.9395 196.368 109.6 184.446 128.135L184.483 128.098Z" fill="#302309"/>
<path opacity="0.12" d="M184.779 129.136C172.856 147.671 134.31 144.112 98.7632 121.128C63.1794 98.1817 44.0361 64.5217 55.959 45.9864C67.882 27.4512 106.428 31.0099 141.975 53.9937C177.558 76.9403 196.702 110.6 184.779 129.136Z" fill="#201706"/>
<path opacity="0.06" d="M185.112 130.137C173.189 148.672 134.643 145.113 99.0964 122.129C63.5127 99.1826 44.3693 65.5226 56.2923 46.9873C68.2152 28.4521 106.761 32.0109 142.308 54.9946C177.892 77.9412 197.035 111.601 185.112 130.137Z" fill="#100C03"/>
</g>
<g style="mix-blend-mode:multiply">
<path d="M180.224 115.012C168.301 133.547 129.755 129.988 94.2088 107.005C58.625 84.0579 39.4816 50.3978 51.4046 31.8626C63.3275 13.3273 101.874 16.9231 137.42 39.8698C173.004 62.8165 192.147 96.4765 180.224 115.012Z" fill="#FFC258"/>
<path opacity="0.95" d="M180.113 114.752C168.227 133.25 129.829 129.655 94.3568 106.782C58.9211 83.9096 39.8148 50.3608 51.7007 31.8626C63.6237 13.4015 101.985 16.9602 137.457 39.8328C172.93 62.7053 191.999 96.2541 180.113 114.752Z" fill="#FFC662"/>
<path opacity="0.9" d="M180.002 114.493C168.153 132.917 129.867 129.358 94.505 106.56C59.1804 83.7242 40.1481 50.3237 51.997 31.8996C63.883 13.4756 102.133 17.0343 137.494 39.8327C172.856 62.6311 191.888 96.0687 180.002 114.493Z" fill="#FFCA6D"/>
<path opacity="0.85" d="M179.891 114.233C168.079 132.583 129.904 129.061 94.6901 106.3C59.4767 83.5759 40.4814 50.2495 52.2933 31.8996C64.1422 13.5497 102.281 17.0714 137.531 39.8327C172.745 62.5569 191.74 95.8833 179.928 114.27L179.891 114.233Z" fill="#FFCD77"/>
<path opacity="0.8" d="M179.78 113.974C168.005 132.287 129.978 128.728 94.8382 106.078C59.7358 83.4276 40.8146 50.2125 52.6264 31.8996C64.4013 13.6238 102.429 17.1455 137.531 39.7956C172.634 62.4457 191.555 95.6609 179.78 113.974Z" fill="#FFD182"/>
<path opacity="0.75" d="M179.669 113.714C167.931 131.953 130.015 128.431 95.0233 105.855C60.032 83.2794 41.1848 50.1754 52.9226 31.9367C64.6605 13.6609 102.577 17.1826 137.568 39.7956C172.56 62.3716 191.407 95.4756 179.669 113.751V113.714Z" fill="#FFD58C"/>
<path opacity="0.7" d="M179.558 113.455C167.857 131.656 130.089 128.135 95.1714 105.596C60.2912 83.094 41.5181 50.1012 53.2189 31.9367C64.9197 13.7351 102.688 17.2568 137.605 39.7586C172.485 62.2604 191.296 95.2532 179.558 113.455Z" fill="#FFD997"/>
<path opacity="0.65" d="M179.447 113.232C167.783 131.36 130.126 127.875 95.3566 105.41C60.5875 82.9458 41.8514 50.0642 53.5152 31.9367C65.179 13.8092 102.836 17.3309 137.605 39.7586C172.375 62.1863 191.111 95.1049 179.447 113.232Z" fill="#FFDDA1"/>
<path opacity="0.6" d="M179.336 112.973C167.709 131.026 130.163 127.542 95.5047 105.188C60.8467 82.7975 42.1847 50.0271 53.8114 31.9367C65.4381 13.8834 102.984 17.368 137.642 39.7586C172.3 62.1121 190.962 94.9195 179.336 112.973Z" fill="#FFE1AC"/>
<path opacity="0.55" d="M179.225 112.713C167.635 130.73 130.237 127.245 95.6899 104.929C61.1429 82.6492 42.5179 49.953 54.1076 31.9738C65.7343 13.9575 103.132 17.4421 137.679 39.7215C172.226 62.0009 190.814 94.6971 179.225 112.676V112.713Z" fill="#FFE4B6"/>
<path opacity="0.5" d="M179.114 112.454C167.561 130.396 130.274 126.948 95.8379 104.706C61.402 82.5009 42.8511 49.9159 54.4408 31.9738C65.9935 14.0316 103.243 17.4792 137.679 39.7215C172.115 61.9268 190.666 94.5117 179.114 112.454Z" fill="#FFE8C0"/>
<path opacity="0.45" d="M179.002 112.194C167.487 130.099 130.348 126.615 96.023 104.484C61.6982 82.3155 43.2213 49.8788 54.737 31.9738C66.2527 14.1058 103.392 17.5533 137.716 39.6844C172.041 61.8155 190.518 94.2893 179.002 112.157V112.194Z" fill="#FFECCB"/>
<path opacity="0.4" d="M178.886 111.952C190.366 94.1255 171.945 61.7775 137.742 39.7012C103.538 17.6248 66.5048 14.1799 55.025 32.0067C43.5452 49.8336 61.9662 82.1815 96.1695 104.258C130.373 126.334 167.406 129.779 178.886 111.952Z" fill="#FFF0D5"/>
<path opacity="0.35" d="M178.783 111.695C190.23 93.9199 171.879 61.6767 137.796 39.678C103.713 17.6792 66.8043 14.2554 55.3578 32.0307C43.9112 49.8059 62.2617 82.0491 96.3446 104.048C130.428 126.047 167.337 129.47 178.783 111.695Z" fill="#FFF4E0"/>
<path opacity="0.3" d="M178.66 111.432C190.062 93.7255 171.76 61.5921 137.78 39.6599C103.8 17.7277 67.0106 14.3021 55.6083 32.0085C44.2061 49.7149 62.5089 81.8483 96.4887 103.78C130.469 125.713 167.258 129.138 178.66 111.432Z" fill="#FFF7EA"/>
<path opacity="0.25" d="M178.557 111.175C189.926 93.5198 171.694 61.4912 137.835 39.6367C103.975 17.7822 67.3101 14.3777 55.9411 32.0325C44.5721 49.6872 62.8043 81.7158 96.6638 103.57C130.523 125.425 167.188 128.829 178.557 111.175Z" fill="#FFFBF5"/>
<path opacity="0.2" d="M178.454 110.917C189.779 93.3314 171.608 61.4216 137.869 39.6447C104.13 17.8679 67.5986 14.4705 56.2739 32.0564C44.9493 49.6424 63.1198 81.5522 96.859 103.329C130.598 125.106 167.13 128.503 178.454 110.917Z" fill="white"/>
</g>
</g>
<g clip-path="url(#clip0_2005_24607)">
<g opacity="0.85">
<path d="M77.4087 60.02C73.035 76.351 57.0325 86.2263 41.6202 82.0738C26.2078 77.9212 17.252 61.3111 21.6258 44.9801C25.9996 28.6491 42.002 18.7737 57.4144 22.9262C72.8267 27.0788 81.7825 43.6889 77.4087 60.02Z" fill="url(#paint8_radial_2005_24607)" style="mix-blend-mode:screen"/>
<path d="M98.9999 65.8475C98.3057 68.4297 75.6037 64.5563 48.2503 57.1585C20.9316 49.7956 -0.659591 41.7348 -5.41722e-05 39.1525C0.694195 36.5703 23.3962 40.4437 50.7496 47.8415C78.103 55.2393 99.6942 63.2652 98.9999 65.8475Z" fill="url(#paint9_radial_2005_24607)" style="mix-blend-mode:screen"/>
<path d="M72.8615 38.1057C73.4863 39.2921 63.5586 46.6899 50.6802 54.6461C37.8019 62.6022 26.8327 68.0808 26.1732 66.8943C25.5484 65.7079 35.4762 58.3101 48.3545 50.354C61.2328 42.3978 72.202 36.9193 72.8615 38.1057Z" fill="url(#paint10_radial_2005_24607)" style="mix-blend-mode:screen"/>
<path d="M63.5238 1.23046e-05C65.9537 0.663023 61.6494 24.671 53.9085 53.669C46.1676 82.667 37.9407 105.628 35.5109 104.965C33.081 104.302 37.3853 80.2941 45.1262 51.2961C52.8324 22.333 61.0592 -0.628103 63.5238 1.23046e-05Z" fill="url(#paint11_radial_2005_24607)" style="mix-blend-mode:screen"/>
<path d="M36.448 28.3001C37.5935 27.6022 44.3624 37.8615 51.5826 51.2264C58.8028 64.5913 63.6973 76.002 62.5518 76.6999C61.4063 77.3978 54.6373 67.1386 47.4171 53.7737C40.1969 40.4088 35.3025 28.998 36.448 28.3001Z" fill="url(#paint12_radial_2005_24607)" style="mix-blend-mode:screen"/>
<path d="M94.7651 64.6959C94.1403 67.1037 73.3475 63.5793 48.3198 56.8096C23.3268 50.0748 3.57538 42.677 4.23492 40.2692C4.85975 37.8614 25.6525 41.3859 50.6802 48.1555C75.6732 54.8903 95.4246 62.2882 94.7998 64.6959H94.7651Z" fill="url(#paint13_radial_2005_24607)" style="mix-blend-mode:screen"/>
</g>
<path d="M92.9947 66.1615C91.0855 73.2802 71.5076 74.1875 49.2222 68.1855C26.9368 62.1835 10.4137 51.5404 12.3229 44.4218C14.232 37.3031 33.8099 36.3958 56.0953 42.3978C78.3807 48.3998 94.9039 59.0429 92.9947 66.1615Z" fill="url(#paint14_radial_2005_24607)" style="mix-blend-mode:screen"/>
</g>
<defs>
<linearGradient id="paint0_linear_2005_24607" x1="64.9938" y1="107.264" x2="150.76" y2="59.2308" gradientUnits="userSpaceOnUse">
<stop stop-color="#FDAA2C"/>
<stop offset="0.37" stop-color="#FD6E00"/>
<stop offset="0.46" stop-color="#E65F24"/>
<stop offset="0.65" stop-color="#B43D77"/>
<stop offset="0.82" stop-color="#9025B4"/>
<stop offset="0.94" stop-color="#7915D9"/>
<stop offset="1" stop-color="#7110E8"/>
</linearGradient>
<linearGradient id="paint1_linear_2005_24607" x1="182.473" y1="121.279" x2="44.9278" y2="22.7638" gradientUnits="userSpaceOnUse">
<stop stop-color="#FF7621"/>
<stop offset="0.47" stop-color="#FFE259"/>
<stop offset="0.64" stop-color="#FFE15C"/>
<stop offset="0.82" stop-color="#FFE068"/>
<stop offset="0.99" stop-color="#FFDE7C"/>
<stop offset="1" stop-color="#FFDE7E"/>
</linearGradient>
<linearGradient id="paint2_linear_2005_24607" x1="61.921" y1="35.1481" x2="168.346" y2="110.558" gradientUnits="userSpaceOnUse">
<stop stop-color="#FFCC37"/>
<stop offset="0.54" stop-color="#FFBD29"/>
<stop offset="1" stop-color="#FF5208"/>
</linearGradient>
<linearGradient id="paint3_linear_2005_24607" x1="173.964" y1="108.932" x2="79.1658" y2="31.3971" gradientUnits="userSpaceOnUse">
<stop stop-color="#BF2C00"/>
<stop offset="0.45" stop-color="#FD7900"/>
<stop offset="0.51" stop-color="#FD7E00"/>
<stop offset="0.8" stop-color="#FE9100"/>
<stop offset="1" stop-color="#FF9900"/>
</linearGradient>
<linearGradient id="paint4_linear_2005_24607" x1="131.253" y1="90.4137" x2="59.9476" y2="38.8059" gradientUnits="userSpaceOnUse">
<stop stop-color="#E64300"/>
<stop offset="0.42" stop-color="#FD7900"/>
<stop offset="0.48" stop-color="#FD7E00"/>
<stop offset="0.79" stop-color="#FE9100"/>
<stop offset="1" stop-color="#FF9900"/>
</linearGradient>
<linearGradient id="paint5_linear_2005_24607" x1="155.292" y1="97.9212" x2="72.9112" y2="46.7689" gradientUnits="userSpaceOnUse">
<stop stop-color="#FF6B21"/>
<stop offset="0.47" stop-color="#FFE259"/>
<stop offset="0.64" stop-color="#FFE15C"/>
<stop offset="0.82" stop-color="#FFE068"/>
<stop offset="0.99" stop-color="#FFDE7C"/>
<stop offset="1" stop-color="#FFDE7E"/>
</linearGradient>
<linearGradient id="paint6_linear_2005_24607" x1="105.659" y1="91.9502" x2="125.046" y2="56.0383" gradientUnits="userSpaceOnUse">
<stop stop-color="#FFEE8D"/>
<stop offset="0.17" stop-color="#FFFBD5"/>
<stop offset="0.65" stop-color="#FFE258"/>
<stop offset="1" stop-color="#FFCD46"/>
</linearGradient>
<linearGradient id="paint7_linear_2005_24607" x1="132.02" y1="89.4044" x2="96.8368" y2="55.0145" gradientUnits="userSpaceOnUse">
<stop stop-color="#E64300"/>
<stop offset="0.42" stop-color="#FD7900"/>
<stop offset="0.48" stop-color="#FD7E00"/>
<stop offset="0.79" stop-color="#FE9100"/>
<stop offset="1" stop-color="#FF9900"/>
</linearGradient>
<radialGradient id="paint8_radial_2005_24607" cx="0" cy="0" r="1" gradientTransform="matrix(27.9645 7.54305 -7.89845 29.5913 49.766 52.5582)" gradientUnits="userSpaceOnUse">
<stop stop-color="#F5F5F5"/>
<stop offset="0.18" stop-color="#B18345"/>
<stop offset="0.25" stop-color="#9B723C"/>
<stop offset="0.44" stop-color="#644A27"/>
<stop offset="0.61" stop-color="#392A16"/>
<stop offset="0.77" stop-color="#1A130A"/>
<stop offset="0.91" stop-color="#070503"/>
<stop offset="1" stop-color="#010101"/>
</radialGradient>
<radialGradient id="paint9_radial_2005_24607" cx="0" cy="0" r="1" gradientTransform="matrix(49.453 13.3393 -1.26375 4.73462 49.6951 51.9285)" gradientUnits="userSpaceOnUse">
<stop stop-color="#F5F5F5"/>
<stop offset="0.18" stop-color="#B18345"/>
<stop offset="0.25" stop-color="#9B723C"/>
<stop offset="0.44" stop-color="#644A27"/>
<stop offset="0.61" stop-color="#392A16"/>
<stop offset="0.77" stop-color="#1A130A"/>
<stop offset="0.91" stop-color="#070503"/>
<stop offset="1" stop-color="#010101"/>
</radialGradient>
<radialGradient id="paint10_radial_2005_24607" cx="0" cy="0" r="1" gradientTransform="matrix(23.3437 -14.3916 1.24129 2.03468 57.0764 41.3297)" gradientUnits="userSpaceOnUse">
<stop stop-color="#F5F5F5"/>
<stop offset="0.18" stop-color="#B18345"/>
<stop offset="0.25" stop-color="#9B723C"/>
<stop offset="0.44" stop-color="#644A27"/>
<stop offset="0.61" stop-color="#392A16"/>
<stop offset="0.77" stop-color="#1A130A"/>
<stop offset="0.91" stop-color="#070503"/>
<stop offset="1" stop-color="#010101"/>
</radialGradient>
<radialGradient id="paint11_radial_2005_24607" cx="0" cy="0" r="1" gradientTransform="matrix(13.9803 -52.3767 4.41545 1.19101 50.3796 51.7406)" gradientUnits="userSpaceOnUse">
<stop stop-color="#F5F5F5"/>
<stop offset="0.18" stop-color="#B18345"/>
<stop offset="0.25" stop-color="#9B723C"/>
<stop offset="0.44" stop-color="#644A27"/>
<stop offset="0.61" stop-color="#392A16"/>
<stop offset="0.77" stop-color="#1A130A"/>
<stop offset="0.91" stop-color="#070503"/>
<stop offset="1" stop-color="#010101"/>
</radialGradient>
<radialGradient id="paint12_radial_2005_24607" cx="0" cy="0" r="1" gradientTransform="matrix(-13.0455 -24.2037 2.08759 -1.13707 51.0611 70.1286)" gradientUnits="userSpaceOnUse">
<stop stop-color="#F5F5F5"/>
<stop offset="0.18" stop-color="#B18345"/>
<stop offset="0.25" stop-color="#9B723C"/>
<stop offset="0.44" stop-color="#644A27"/>
<stop offset="0.61" stop-color="#392A16"/>
<stop offset="0.77" stop-color="#1A130A"/>
<stop offset="0.91" stop-color="#070503"/>
<stop offset="1" stop-color="#010101"/>
</radialGradient>
<radialGradient id="paint13_radial_2005_24607" cx="0" cy="0" r="1" gradientTransform="matrix(45.3319 12.2277 -1.18477 4.4387 49.4343 52.7174)" gradientUnits="userSpaceOnUse">
<stop stop-color="#F5F5F5"/>
<stop offset="0.18" stop-color="#AB7E42"/>
<stop offset="0.26" stop-color="#7E5D31"/>
<stop offset="0.33" stop-color="#574022"/>
<stop offset="0.41" stop-color="#372915"/>
<stop offset="0.49" stop-color="#1F170C"/>
<stop offset="0.58" stop-color="#0D0A05"/>
<stop offset="0.67" stop-color="#030201"/>
<stop offset="0.78"/>
</radialGradient>
<radialGradient id="paint14_radial_2005_24607" cx="0" cy="0" r="1" gradientTransform="matrix(40.3277 10.8779 -3.47532 13.0202 52.5027 55.262)" gradientUnits="userSpaceOnUse">
<stop stop-color="#F5F5F5"/>
<stop offset="0.18" stop-color="#B18345"/>
<stop offset="0.25" stop-color="#9B723C"/>
<stop offset="0.44" stop-color="#644A27"/>
<stop offset="0.61" stop-color="#392A16"/>
<stop offset="0.77" stop-color="#1A130A"/>
<stop offset="0.91" stop-color="#070503"/>
<stop offset="1" stop-color="#010101"/>
</radialGradient>
<clipPath id="clip0_2005_24607">
<rect width="99" height="105" fill="white"/>
</clipPath>
</defs>
</svg>
