<svg width="194" height="146" viewBox="0 0 194 146" fill="none" xmlns="http://www.w3.org/2000/svg">
<g clip-path="url(#clip0_2005_24608)">
<path d="M135.894 36.0769C117.039 35.0199 92.0435 42.6673 68.3504 58.3351C44.6573 74.0029 27.7867 93.9606 21.2742 111.742L8.55933 120.136L17.1186 133.379C30.3918 153.523 72.444 149.233 111.085 123.68C149.726 98.1884 170.318 61.1329 157.045 40.9264L148.485 27.6834L135.77 36.0769H135.894Z" fill="url(#paint0_linear_2005_24608)"/>
<mask id="mask0_2005_24608" style="mask-type:luminance" maskUnits="userSpaceOnUse" x="8" y="27" width="154" height="120">
<path d="M135.894 36.0769C117.039 35.0199 92.0435 42.6673 68.3504 58.3351C44.6573 74.0029 27.7867 93.9606 21.2742 111.742L8.55933 120.136L17.1186 133.379C30.3918 153.523 72.444 149.233 111.085 123.68C149.726 98.1884 170.318 61.1329 157.045 40.9264L148.485 27.6834L135.77 36.0769H135.894Z" fill="white"/>
</mask>
<g mask="url(#mask0_2005_24608)">
<g style="mix-blend-mode:multiply">
<path d="M135.894 36.0769C117.039 35.0199 92.0435 42.6673 68.3504 58.3351C44.6573 74.0029 27.7867 93.9606 21.2742 111.742L8.55933 120.136L17.1186 133.379C30.3918 153.523 72.444 149.233 111.085 123.68C149.726 98.1884 170.318 61.1329 157.045 40.9264L148.485 27.6834L135.77 36.0769H135.894Z" fill="#EE6345"/>
<path opacity="0.95" d="M135.336 35.766C116.481 34.7091 91.4853 42.3564 67.7922 58.0242C44.099 73.692 27.2285 93.6497 20.716 111.431L8.0011 119.825L16.5604 133.068C29.8335 153.212 71.8857 148.922 110.527 123.369C149.168 97.8775 169.76 60.822 156.486 40.6156L147.927 27.3726L135.212 35.766H135.336Z" fill="#EF6D51"/>
<path opacity="0.9" d="M134.84 35.5173C115.985 34.4604 90.9891 42.1077 67.296 57.7755C43.6028 73.4433 26.7323 93.401 20.2198 111.183L7.50488 119.576L16.0642 132.819C29.3373 152.963 71.3895 148.673 110.03 123.12C148.671 97.6289 169.263 60.5733 155.99 40.3669L147.431 27.1239L134.716 35.5173H134.84Z" fill="#F0775C"/>
<path opacity="0.85" d="M134.282 35.2686C115.427 34.2117 90.4309 41.859 66.7378 57.5268C43.0447 73.1946 26.1741 93.1524 19.6616 110.934L6.94672 119.327L15.506 132.57C28.7791 152.715 70.8314 148.425 109.472 122.871C148.113 97.3802 168.705 60.3246 155.432 40.1182L146.873 26.8752L134.158 35.2686H134.282Z" fill="#F18068"/>
<path opacity="0.8" d="M133.724 34.9578C114.868 33.9008 89.8727 41.5482 66.1796 57.2159C42.4864 72.8837 25.6159 92.8415 19.1034 110.623L6.38849 119.017L14.9478 132.26C28.2209 152.404 70.2731 148.114 108.914 122.561C147.555 97.0693 168.147 60.0138 154.874 39.8073L146.314 26.5643L133.6 34.9578H133.724Z" fill="#F28A74"/>
<path opacity="0.75" d="M133.227 34.7091C114.372 33.6521 89.3765 41.2995 65.6834 56.9673C41.9902 72.635 25.1197 92.5928 18.6072 110.374L5.89227 118.768L14.4516 132.011C27.7247 152.155 69.7769 147.865 108.418 122.312C147.059 96.8206 167.651 59.7651 154.378 39.5586L145.818 26.3156L133.103 34.7091H133.227Z" fill="#F3947F"/>
<path opacity="0.7" d="M132.669 34.3982C113.814 33.3413 88.8183 40.9886 65.1251 56.6564C41.432 72.3242 24.5615 92.2819 18.049 110.064L5.33405 118.457L13.8933 131.7C27.1665 151.844 69.2187 147.554 107.86 122.001C146.501 96.5097 167.092 59.4542 153.819 39.2478L145.26 26.0048L132.545 34.3982H132.669Z" fill="#F49E8B"/>
<path opacity="0.65" d="M132.111 34.1495C113.256 33.0925 88.2601 40.7399 64.567 56.4077C40.8738 72.0755 24.0033 92.0332 17.4908 109.815L4.77588 118.208L13.3352 131.451C26.6083 151.596 68.6605 147.306 107.301 121.752C145.942 96.261 166.534 59.2055 153.261 38.999L144.702 25.756L131.987 34.1495H132.111Z" fill="#F5A796"/>
<path opacity="0.6" d="M131.553 33.9008C112.698 32.8439 87.7019 40.4912 64.0087 56.159C40.3156 71.8268 23.4451 91.7845 16.9326 109.566L4.21765 117.96L12.777 131.203C26.0501 151.347 68.1023 147.057 106.743 121.504C145.384 96.0123 165.976 58.9568 152.703 38.7504L144.144 25.5074L131.429 33.9008H131.553Z" fill="#F7B1A2"/>
<path opacity="0.55" d="M131.057 33.59C112.201 32.533 87.2057 40.1804 63.5125 55.8481C39.8194 71.5159 22.9489 91.4737 16.4363 109.255L3.72144 117.649L12.2807 130.892C25.5539 151.036 67.6061 146.746 106.247 121.193C144.888 95.7015 165.48 58.646 152.207 38.4395L143.647 25.1965L130.933 33.59H131.057Z" fill="#F8BBAE"/>
<path opacity="0.5" d="M130.498 33.3412C111.643 32.2843 86.6474 39.9317 62.9543 55.5994C39.2611 71.2672 22.3906 91.225 15.8781 109.007L3.16321 117.4L11.7225 130.643C24.9956 150.787 67.0479 146.497 105.689 120.944C144.33 95.4528 164.922 58.3972 151.649 38.1908L143.089 24.9478L130.374 33.3412H130.498Z" fill="#F9C5B9"/>
<path opacity="0.45" d="M129.94 33.0304C111.085 31.9734 86.0893 39.6208 62.3961 55.2886C38.703 70.9563 21.8325 90.9141 15.3199 108.696L2.60504 117.089L11.1643 130.332C24.4375 150.477 66.4897 146.187 105.131 120.633C143.772 95.1419 164.363 58.0864 151.09 37.8799L142.531 24.6369L129.816 33.0304H129.94Z" fill="#FACEC5"/>
<path opacity="0.4" d="M129.444 32.7817C110.589 31.7247 85.593 39.3721 61.8999 55.0399C38.2068 70.7077 21.3362 90.6654 14.8237 108.447L2.10883 116.841L10.6681 130.084C23.9413 150.228 65.9935 145.938 104.634 120.384C143.275 94.8932 163.867 57.8377 150.594 37.6312L142.035 24.3882L129.32 32.7817H129.444Z" fill="#FBD8D1"/>
<path opacity="0.35" d="M128.886 32.533C110.03 31.476 85.0348 39.1234 61.3417 54.7912C37.6485 70.4589 20.778 90.4167 14.2655 108.198L1.5506 116.592L10.1099 129.835C23.383 149.979 65.4353 145.689 104.076 120.136C142.717 94.6445 163.309 57.589 150.036 37.3825L141.477 24.1395L128.762 32.533H128.886Z" fill="#FCE2DC"/>
<path opacity="0.3" d="M128.328 32.2221C109.472 31.1652 84.4766 38.8125 60.7835 54.4803C37.0903 70.1481 20.2198 90.1059 13.7073 107.888L0.992371 116.281L9.55167 129.524C22.8248 149.668 64.877 145.378 103.518 119.825C142.159 94.3337 162.751 57.2781 149.478 37.0717L140.918 23.8287L128.203 32.2221H128.328Z" fill="#FDECE8"/>
<path opacity="0.25" d="M127.831 31.9734C108.976 30.9165 83.9804 38.5638 60.2873 54.2316C36.5941 69.8994 19.7236 89.8571 13.2111 107.639L0.558228 115.97L9.11753 129.213C22.3907 149.357 64.4429 145.067 103.084 119.514C141.725 94.0228 162.317 56.9672 149.044 36.7608L140.484 23.5178L127.769 31.9112L127.831 31.9734Z" fill="#FEF5F3"/>
<path opacity="0.2" d="M127.273 31.6626C108.418 30.6056 83.4842 38.253 59.7291 53.9207C36.0359 69.5885 19.1654 89.5463 12.6529 107.328L-0.0620117 115.721L8.49729 128.964C21.7704 149.109 63.8227 144.819 102.464 119.265C141.104 93.7741 161.696 56.7186 148.423 36.5121L139.864 23.2691L127.149 31.6626H127.273Z" fill="white"/>
</g>
</g>
<path d="M148.609 27.6834C161.882 47.8277 141.291 84.8833 102.65 110.437C64.0087 135.99 21.9565 140.28 8.68338 120.136C-4.65177 99.9293 15.9402 62.8738 54.5811 37.3825C93.284 11.8292 135.336 7.53917 148.609 27.6834Z" fill="url(#paint1_linear_2005_24608)"/>
<path d="M63.0164 115.659C42.6105 122.25 24.6235 121.193 19.2895 113.048C15.7541 107.639 17.2427 97.8776 23.321 86.9972C30.888 73.3189 44.9054 59.1433 61.6518 48.0764C72.1339 41.113 83.4222 35.6417 94.2144 32.1599C114.62 25.5695 132.607 26.6265 137.941 34.7712C141.477 40.1804 139.988 49.9416 133.91 60.822C126.343 74.5002 112.325 88.6758 95.5789 99.7428C85.0969 106.706 73.8085 112.178 63.0164 115.659Z" fill="url(#paint2_linear_2005_24608)"/>
<path d="M26.2982 91.0385C33.8651 77.3602 47.8825 63.1846 64.629 52.1177C75.111 45.1543 86.3994 39.683 97.1916 36.2013C115.613 30.2326 131.925 30.6056 138.872 36.6365C138.624 35.9526 138.313 35.2686 137.941 34.7091C132.607 26.5643 114.62 25.5074 94.2144 32.0978C83.4222 35.5795 72.1959 41.113 61.6518 48.0143C44.9054 59.0812 30.95 73.2568 23.321 86.935C17.2427 97.8776 15.7541 107.577 19.2895 112.986C19.8477 113.794 20.592 114.478 21.3363 115.162C19.1654 109.504 20.9021 100.738 26.2982 91.0385Z" fill="url(#paint3_linear_2005_24608)"/>
<path d="M67.296 65.4851L45.5256 98.1263C41.6181 103.971 45.6497 109.38 52.3483 107.204L89.6867 95.2041C92.1676 94.3958 94.4625 92.655 95.8891 90.5411L117.659 57.8999C121.567 52.0556 117.535 46.6464 110.837 48.8225L73.4984 60.822C71.0175 61.6303 68.7226 63.3712 67.296 65.4851Z" fill="url(#paint4_linear_2005_24608)"/>
<path d="M64.0707 61.4438L42.3003 94.085C38.3928 99.9293 42.4244 105.338 49.123 103.162L86.4614 91.1628C88.9423 90.3546 91.2372 88.6137 92.6638 86.4998L114.434 53.8586C118.342 48.0143 114.31 42.6052 107.612 44.7812L70.2731 56.7808C67.7922 57.589 65.4973 59.3299 64.0707 61.4438Z" fill="url(#paint5_linear_2005_24608)"/>
<path d="M55.9456 90.9141L72.0718 66.7907C72.3199 66.4177 72.8161 66.0446 73.2503 65.9203L100.851 57.0294L84.7247 81.1528C84.4766 81.5259 83.9804 81.8989 83.5463 82.0233L56.0076 90.8519L55.9456 90.9141Z" fill="url(#paint6_linear_2005_24608)"/>
<path d="M55.9456 90.9141L72.0718 66.7907C72.3199 66.4177 72.8161 66.0446 73.2503 65.9203L100.851 57.0294L84.7247 81.1528C84.4766 81.5259 83.9804 81.8989 83.5463 82.0233L56.0076 90.8519L55.9456 90.9141Z" fill="url(#paint7_linear_2005_24608)"/>
<mask id="mask1_2005_24608" style="mask-type:luminance" maskUnits="userSpaceOnUse" x="40" y="44" width="76" height="60">
<path d="M64.0707 61.4438L42.3003 94.085C38.3928 99.9293 42.4244 105.338 49.123 103.162L86.4614 91.1628C88.9423 90.3546 91.2372 88.6137 92.6638 86.4998L114.434 53.8586C118.342 48.0143 114.31 42.6052 107.612 44.7812L70.2731 56.7808C67.7922 57.589 65.4973 59.3299 64.0707 61.4438Z" fill="white"/>
</mask>
<g mask="url(#mask1_2005_24608)">
<g style="mix-blend-mode:screen">
<path d="M64.0707 61.4438L42.3003 94.085C38.3928 99.9293 42.4244 105.338 49.123 103.162L86.4614 91.1628C88.9423 90.3546 91.2372 88.6137 92.6638 86.4998L114.434 53.8586C118.342 48.0143 114.31 42.6052 107.612 44.7812L70.2731 56.7808C67.7922 57.589 65.4973 59.3299 64.0707 61.4438Z" fill="#F47F1A"/>
<path opacity="0.94" d="M64.3188 61.6303L42.6725 94.0228C38.827 99.805 42.7965 105.214 49.4331 103.038L86.4614 91.1007C88.9423 90.2924 91.1752 88.6137 92.6018 86.4376L114.248 54.0451C118.094 48.263 114.124 42.8539 107.488 45.0299L70.4592 56.9673C67.9783 57.7755 65.7454 59.4542 64.3188 61.6303Z" fill="#E67819"/>
<path opacity="0.88" d="M64.6289 61.8168L43.1686 93.9606C39.3232 99.7428 43.2927 105.028 49.9293 102.914L86.7094 91.1007C89.1284 90.2924 91.4233 88.6137 92.8498 86.4998L114.31 54.356C118.156 48.5738 114.186 43.2891 107.549 45.403L70.7693 57.216C68.3504 58.0242 66.0555 59.7029 64.6289 61.8168Z" fill="#D77119"/>
<path opacity="0.81" d="M64.8771 62.0033L43.5408 93.8984C39.6954 99.6184 43.6649 104.903 50.2394 102.789L86.7095 91.0385C89.1284 90.2302 91.3613 88.5515 92.7878 86.4376L114.062 54.5425C117.908 48.8225 113.938 43.5377 107.363 45.6517L70.8934 57.4025C68.4745 58.2107 66.2416 59.8894 64.8151 62.0033H64.8771Z" fill="#C96A18"/>
<path opacity="0.75" d="M65.1252 62.1277L43.975 93.7741C40.1915 99.4319 44.0991 104.655 50.6116 102.603L86.8335 90.9763C89.2525 90.2302 91.4853 88.5515 92.8499 86.4376L114 54.7912C117.783 49.1334 113.876 43.9108 107.363 45.9625L71.1415 57.589C68.7226 58.3351 66.4897 60.0138 65.1252 62.1277Z" fill="#BB6317"/>
<path opacity="0.69" d="M65.3732 62.3142L44.4092 93.7119C40.6257 99.3698 44.5332 104.53 50.9837 102.478L86.8955 90.9141C89.2525 90.168 91.4853 88.4893 92.8498 86.3754L113.814 54.9777C117.597 49.3199 113.69 44.1595 107.239 46.2112L71.3275 57.7755C68.9706 58.5216 66.7378 60.2003 65.3732 62.3142Z" fill="#AC5C17"/>
<path opacity="0.62" d="M65.6213 62.5007L44.7813 93.6497C41.0599 99.2454 44.9054 104.406 51.2938 102.354L86.9576 90.9141C89.3145 90.168 91.4853 88.4893 92.9119 86.4376L113.752 55.2886C117.473 49.6929 113.628 44.5325 107.239 46.5843L71.5756 58.0242C69.2187 58.7703 67.0479 60.449 65.6213 62.5007Z" fill="#9E5516"/>
<path opacity="0.56" d="M65.8694 62.6873L45.2154 93.5876C41.494 99.121 45.3395 104.219 51.6659 102.23L87.0196 90.8519C89.3765 90.1059 91.5473 88.4272 92.9119 86.4376L113.566 55.5373C117.287 50.0038 113.442 44.9056 107.115 46.8951L71.7617 58.2729C69.4048 59.019 67.2339 60.6977 65.8694 62.6873Z" fill="#904E15"/>
<path opacity="0.5" d="M66.1796 62.8116L45.7117 93.5254C42.0523 98.9967 45.8357 104.095 52.1622 102.105L87.2677 90.8519C89.5626 90.1059 91.7334 88.4893 93.098 86.4376L113.566 55.7238C117.225 50.2525 113.442 45.1543 107.115 47.1438L72.0098 58.3973C69.6529 59.1433 67.5441 60.7599 66.1796 62.8116Z" fill="#824714"/>
<path opacity="0.44" d="M66.4277 62.9981L46.0838 93.4632C42.4244 98.9345 46.2079 103.971 52.4723 101.919L87.2677 90.7276C89.5626 89.9815 91.7334 88.365 93.0359 86.3754L113.38 55.9103C117.039 50.439 113.256 45.403 106.991 47.4547L72.1959 58.646C69.901 59.392 67.7302 61.0086 66.4277 62.9981Z" fill="#734014"/>
<path opacity="0.38" d="M66.6758 63.1846L46.518 93.4011C42.9206 98.8102 46.642 103.784 52.8444 101.795L87.3918 90.6654C89.6866 89.9193 91.7955 88.3028 93.16 86.3133L113.318 56.0968C116.915 50.6877 113.194 45.7138 106.991 47.7034L72.444 58.8325C70.1491 59.5786 68.0403 61.1951 66.6758 63.1846Z" fill="#653913"/>
<path opacity="0.31" d="M66.9238 63.3712L46.9521 93.3389C43.3547 98.6858 47.0762 103.66 53.2165 101.67L87.4538 90.6654C89.7486 89.9193 91.8575 88.365 93.16 86.3754L113.132 56.4077C116.729 51.0608 113.008 46.0869 106.867 48.0764L72.63 59.0812C70.3351 59.8273 68.2263 61.3816 66.9238 63.3712Z" fill="#573212"/>
<path opacity="0.25" d="M67.1719 63.5577L47.3243 93.2767C43.7889 98.6237 47.4483 103.535 53.5267 101.546L87.5158 90.6033C89.7486 89.8572 91.8575 88.3028 93.16 86.3133L113.008 56.5942C116.543 51.2473 112.884 46.3356 106.805 48.3251L72.8161 59.2677C70.5833 60.0138 68.4744 61.5681 67.1719 63.5577Z" fill="#482B12"/>
<path opacity="0.19" d="M67.42 63.682L47.7584 93.1524C44.2231 98.4371 47.8825 103.287 53.9608 101.359L87.6398 90.5411C89.8727 89.795 91.9195 88.2406 93.222 86.3133L112.884 56.8429C116.419 51.5582 112.76 46.7086 106.681 48.636L73.0022 59.4542C70.7693 60.2003 68.7225 61.7546 67.42 63.682Z" fill="#3A2411"/>
<path opacity="0.12" d="M67.7301 63.8686L48.1926 93.0902C44.7192 98.3128 48.3166 103.162 54.333 101.235L87.7639 90.4789C89.9967 89.795 92.0435 88.2406 93.346 86.2511L112.884 57.0294C116.357 51.8069 112.76 46.9573 106.743 48.8847L73.3123 59.6407C71.0794 60.3246 69.0326 61.879 67.7301 63.8686Z" fill="#2C1D10"/>
<path opacity="0.06" d="M67.9783 64.0551L48.6268 93.028C45.1534 98.2506 48.7508 103.038 54.7051 101.111L87.8259 90.4789C89.9968 89.795 92.0435 88.2407 93.3461 86.3133L112.698 57.3403C116.171 52.1177 112.573 47.3304 106.619 49.2577L73.4984 59.8894C71.3276 60.5733 69.2808 62.1277 67.9783 64.0551Z" fill="#1D1610"/>
</g>
<g style="mix-blend-mode:multiply">
<path d="M64.0707 61.4438L42.3003 94.085C38.3928 99.9293 42.4244 105.338 49.123 103.162L86.4614 91.1628C88.9423 90.3546 91.2372 88.6137 92.6638 86.4998L114.434 53.8586C118.342 48.0143 114.31 42.6052 107.612 44.7812L70.2731 56.7808C67.7922 57.589 65.4973 59.3299 64.0707 61.4438Z" fill="#F89A75"/>
<path opacity="0.94" d="M63.7606 61.3816L42.1763 94.085C38.2688 99.9293 42.4244 105.09 49.0609 102.976L86.1513 91.0385C88.6322 90.2302 90.8651 88.5515 92.3536 86.3755L113.938 54.1073C117.97 48.0764 113.69 42.7295 107.053 44.8434L69.963 56.7808C67.482 57.589 65.2492 59.2677 63.7606 61.4438V61.3816Z" fill="#F8A07E"/>
<path opacity="0.88" d="M63.3885 61.3194L41.9902 94.0228C38.1447 99.805 42.3003 104.779 48.9369 102.665L85.8411 90.7898C88.2601 89.9815 90.5549 88.3028 91.9815 86.1268L113.38 54.1695C117.597 48.0143 113.07 42.6052 106.433 44.7812L69.5288 56.6564C67.1099 57.4647 64.815 59.1434 63.3885 61.3194Z" fill="#F9A786"/>
<path opacity="0.81" d="M63.0784 61.1951L41.8662 93.9606C38.0207 99.7428 42.3004 104.468 48.8749 102.354L85.5931 90.5411C88.012 89.7328 90.3069 88.0541 91.7334 85.9402L112.946 54.356C117.287 48.0143 112.573 42.6673 105.999 44.7812L69.2808 56.5942C66.8618 57.4025 64.5669 59.0812 63.1404 61.1951H63.0784Z" fill="#F9AD8F"/>
<path opacity="0.75" d="M62.7062 61.1329L41.6801 93.8985C37.8346 99.6184 42.1763 104.157 48.7508 102.043L85.2829 90.2924C87.7019 89.4841 89.9347 87.8054 91.3613 85.6915L112.325 54.4803C116.853 47.9521 111.829 42.6673 105.317 44.7191L68.7846 56.4699C66.3656 57.2782 64.1328 58.9568 62.7062 61.0707V61.1329Z" fill="#FAB398"/>
<path opacity="0.69" d="M62.3961 61.0086L41.556 93.8363C37.7726 99.5563 42.1763 103.846 48.6888 101.795L85.0348 90.1059C87.4538 89.3598 89.6866 87.6189 91.1132 85.505L111.891 54.6047C116.543 47.8899 111.333 42.6052 104.82 44.7191L68.4744 56.4077C66.0555 57.1538 63.8226 58.8947 62.3961 61.0086Z" fill="#FABAA0"/>
<path opacity="0.62" d="M62.024 60.9464L41.37 93.8363C37.5865 99.4941 42.0523 103.66 48.5028 101.546L84.6627 89.9194C87.0816 89.1733 89.2525 87.4946 90.679 85.3807L111.271 54.8534C116.109 48.0143 110.651 42.7295 104.138 44.7812L67.9783 56.4077C65.5593 57.1538 63.3885 58.8325 61.9619 60.9464H62.024Z" fill="#FBC0A9"/>
<path opacity="0.56" d="M61.7138 60.8842L41.2459 93.7741C37.4624 99.4319 41.9902 103.349 48.4407 101.235L84.4146 89.6706C86.7715 88.9245 89.0043 87.2459 90.4309 85.132L110.837 54.9155C115.861 47.8899 110.092 42.6673 103.704 44.719L67.7301 56.2834C65.3732 57.0294 63.1404 58.7081 61.7138 60.822V60.8842Z" fill="#FBC6B1"/>
<path opacity="0.5" d="M61.3417 60.7599L41.0598 93.7119C37.3384 99.3076 41.9282 103.038 48.3166 100.986L84.1045 89.4841C86.4614 88.738 88.6942 87.0594 90.0588 85.0076L110.279 55.1642C115.427 47.9521 109.472 42.7295 103.084 44.7812L67.296 56.2834C64.9391 57.0295 62.7062 58.7081 61.3417 60.7599Z" fill="#FCCDBA"/>
<path opacity="0.44" d="M61.0315 60.6977L40.9978 93.7119C37.2764 99.3076 41.9282 102.789 48.3166 100.738L83.9184 89.2976C86.2753 88.5515 88.4461 86.8728 89.8727 84.8211L109.844 55.3508C115.178 48.0143 108.976 42.7917 102.588 44.8434L66.9858 56.2834C64.6289 57.0295 62.4581 58.7081 61.0315 60.7599V60.6977Z" fill="#FCD3C3"/>
<path opacity="0.38" d="M60.7215 60.5734L40.8738 93.5876C37.1524 99.1211 41.9282 102.416 48.2547 100.365L83.6703 88.9867C86.0272 88.2407 88.1981 86.562 89.5626 84.5102L109.348 55.3508C114.806 47.8277 108.418 42.6052 102.029 44.6569L66.6137 56.0347C64.2568 56.7808 62.086 58.4594 60.7215 60.5112V60.5734Z" fill="#FCD9CB"/>
<path opacity="0.31" d="M60.3493 60.5112L40.6877 93.5876C37.0283 99.1211 41.8041 102.168 48.1306 100.178L83.3602 88.8624C85.7171 88.1163 87.8879 86.4998 89.2524 84.4481L108.852 55.6616C114.496 47.9521 107.798 42.7917 101.471 44.8434L66.2416 56.159C63.8846 56.9051 61.7138 58.5216 60.3493 60.5734V60.5112Z" fill="#FDDFD4"/>
<path opacity="0.25" d="M60.0392 60.449L40.5637 93.5254C36.9042 98.9967 41.7421 101.857 48.0686 99.8671L83.1121 88.6137C85.407 87.8676 87.5778 86.2511 88.9423 84.1993L108.356 55.786C114.124 47.9521 107.239 42.7917 100.975 44.7812L65.9314 56.0347C63.6366 56.7807 61.4657 58.3973 60.1012 60.449H60.0392Z" fill="#FDE6DD"/>
<path opacity="0.19" d="M59.667 60.3246L40.3776 93.4632C36.7182 98.9345 41.6801 101.546 47.9445 99.5563L82.802 88.365C85.0968 87.6189 87.2677 86.0024 88.6322 84.0128L107.86 55.9103C113.814 47.8899 106.681 42.7295 100.417 44.7812L65.5593 55.9725C63.2644 56.7186 61.0936 58.3351 59.7291 60.3246H59.667Z" fill="#FEECE5"/>
<path opacity="0.12" d="M59.3569 60.2625L40.2535 93.4632C36.6561 98.8724 41.6181 101.359 47.8205 99.3076L82.4918 88.1785C84.7867 87.4324 86.8955 85.8159 88.2601 83.8263L107.239 56.0969C113.318 47.8899 105.937 42.7917 99.7345 44.7812L65.0631 55.9103C62.7682 56.6564 60.6594 58.2729 59.2949 60.2625H59.3569Z" fill="#FEF2EE"/>
<path opacity="0.06" d="M58.9848 60.1381L40.0675 93.3389C36.4701 98.748 41.556 100.986 47.6964 98.9967L82.1817 87.9298C84.4766 87.1837 86.5854 85.5672 87.8879 83.5776L106.681 56.2212C112.946 47.8277 105.317 42.7917 99.1143 44.7191L64.6289 55.786C62.3341 56.5321 60.2252 58.1486 58.9227 60.1381H58.9848Z" fill="#FFF9F6"/>
</g>
</g>
<mask id="mask2_2005_24608" style="mask-type:luminance" maskUnits="userSpaceOnUse" x="4" y="14" width="149" height="119">
<path d="M148.609 27.6834C161.882 47.8277 141.291 84.8833 102.65 110.437C64.0087 135.99 21.9565 140.28 8.68338 120.136C-4.65177 99.9293 15.9402 62.8738 54.5811 37.3825C93.284 11.8292 135.336 7.53917 148.609 27.6834Z" fill="white"/>
</mask>
<g mask="url(#mask2_2005_24608)">
<g style="mix-blend-mode:screen">
<path d="M148.609 27.6834C161.882 47.8277 141.291 84.8833 102.65 110.437C64.0087 135.99 21.9565 140.28 8.68338 120.136C-4.65177 99.9293 15.9402 62.8738 54.5811 37.3825C93.284 11.8292 135.336 7.53917 148.609 27.6834Z" fill="#F79653"/>
<path opacity="0.94" d="M149.726 27.8078C162.999 47.9521 142.407 85.0076 103.766 110.561C65.1251 136.052 23.0729 140.404 9.79978 120.26C-3.47335 100.054 17.1186 62.9981 55.7595 37.5069C94.4004 11.9535 136.453 7.66353 149.726 27.8078Z" fill="#E98E4F"/>
<path opacity="0.88" d="M150.904 27.9321C164.177 48.0764 143.585 85.132 104.945 110.685C66.3036 136.177 24.2514 140.529 10.9783 120.384C-2.29483 100.178 18.2351 63.1225 56.938 37.6312C95.5789 12.0778 137.631 7.78785 150.904 27.9321Z" fill="#DA854A"/>
<path opacity="0.81" d="M152.021 28.0565C165.294 48.2008 144.702 85.2563 106.061 110.81C67.4201 136.301 25.3678 140.653 12.0947 120.509C-1.17842 100.302 19.4135 63.2468 58.0544 37.7556C96.6954 12.2022 138.81 7.85004 152.021 28.0565Z" fill="#CB7D46"/>
<path opacity="0.75" d="M153.199 28.1808C166.472 48.3251 145.88 85.3806 107.239 110.934C68.5985 136.425 26.5463 140.777 13.2732 120.633C4.29153e-05 100.427 20.592 63.3711 59.2329 37.8799C97.8738 12.3265 139.926 7.97437 153.199 28.1808Z" fill="#BD7442"/>
<path opacity="0.69" d="M154.316 28.3052C167.589 48.4495 146.997 85.505 108.356 111.058C69.7149 136.55 27.6627 140.902 14.3896 120.757C1.11644 100.551 21.7084 63.4955 60.3493 37.9421C98.9902 12.4509 141.104 8.09873 154.316 28.3052Z" fill="#AF6C3E"/>
<path opacity="0.62" d="M155.494 28.4295C168.767 48.5738 148.175 85.6294 109.534 111.183C70.8934 136.674 28.8412 141.026 15.568 120.882C2.2949 100.675 22.8869 63.6199 61.5278 38.0665C100.169 12.5752 142.221 8.22309 155.494 28.4295Z" fill="#A0633A"/>
<path opacity="0.56" d="M156.673 28.5539C169.946 48.6982 149.354 85.7537 110.713 111.307C72.0718 136.798 30.0196 141.15 16.7465 121.006C3.41134 100.738 24.0033 63.7442 62.6442 38.1908C101.285 12.6996 143.399 8.34742 156.673 28.5539Z" fill="#925B35"/>
<path opacity="0.5" d="M157.789 28.6161C171.062 48.7603 150.47 85.8159 111.829 111.369C73.1883 136.86 31.1361 141.213 17.863 121.068C4.58983 100.924 25.1818 63.8686 63.8227 38.3152C102.464 12.7618 144.516 8.47179 157.789 28.6161Z" fill="#835331"/>
<path opacity="0.44" d="M158.967 28.7404C172.24 48.8847 151.649 85.9402 113.008 111.494C74.3667 136.985 32.3145 141.337 19.0414 121.193C5.76823 101.048 26.3602 63.9929 65.0011 38.4395C103.642 12.9483 145.694 8.59614 158.967 28.7404Z" fill="#754A2D"/>
<path opacity="0.38" d="M160.084 28.8647C173.357 49.009 152.765 86.0646 114.124 111.618C75.4832 137.109 33.4309 141.461 20.1578 121.317C6.88469 101.173 27.4766 64.1172 66.1176 38.5638C104.758 13.0726 146.873 8.72046 160.084 28.8647Z" fill="#664229"/>
<path opacity="0.31" d="M161.262 28.9891C174.535 49.1334 153.943 86.1889 115.303 111.742C76.6616 137.234 34.6094 141.586 21.3363 121.441C8.06315 101.297 28.6551 64.2416 67.296 38.6882C105.937 13.1348 147.989 8.8448 161.262 28.9891Z" fill="#583924"/>
<path opacity="0.25" d="M162.379 29.1134C175.652 49.2577 155.06 86.3132 116.419 111.867C77.778 137.358 35.7258 141.71 22.4527 121.566C9.17955 101.421 29.7715 64.3659 68.4124 38.8125C107.053 13.2591 149.168 8.96916 162.379 29.1134Z" fill="#493120"/>
<path opacity="0.19" d="M163.557 29.2378C176.83 49.3821 156.238 86.4376 117.597 111.991C78.9565 137.482 36.9043 141.834 23.6311 121.69C10.358 101.546 30.95 64.4903 69.5909 38.9369C108.232 13.3835 150.284 9.09352 163.557 29.2378Z" fill="#3B281C"/>
<path opacity="0.12" d="M164.674 29.3621C177.947 49.5064 157.355 86.5619 118.714 112.115C80.0729 137.607 38.0207 141.959 24.7476 121.814C11.4745 101.67 32.0664 64.6146 70.7073 39.0612C109.348 13.5078 151.462 9.15567 164.674 29.3621Z" fill="#2C2018"/>
<path opacity="0.06" d="M165.852 29.4865C179.125 49.6308 158.533 86.6863 119.892 112.24C81.2514 137.731 39.1992 142.083 25.9261 121.939C12.6529 101.795 33.2449 64.739 71.8858 39.1856C110.527 13.6322 152.579 9.28003 165.852 29.4865Z" fill="#1E1713"/>
</g>
<g style="mix-blend-mode:multiply">
<path d="M148.609 27.6834C161.882 47.8277 141.291 84.8833 102.65 110.437C64.0087 135.99 21.9565 140.28 8.68338 120.136C-4.65177 99.9293 15.9402 62.8738 54.5811 37.3825C93.284 11.8292 135.336 7.53917 148.609 27.6834Z" fill="#F8A573"/>
<path opacity="0.95" d="M148.299 27.6834C161.51 47.7655 140.98 84.6967 102.464 110.126C63.9467 135.555 22.0185 139.907 8.80744 119.763C-4.46569 99.6806 16.0642 62.8116 54.5811 37.3204C93.16 11.8913 135.088 7.60133 148.299 27.6834Z" fill="#F8AB7C"/>
<path opacity="0.9" d="M147.989 27.6834C161.138 47.7034 140.732 84.5102 102.278 109.877C63.8227 135.244 22.0806 139.534 8.9315 119.514C-4.2796 99.4941 16.1883 62.6872 54.5811 37.3203C92.974 11.9535 134.778 7.66349 147.989 27.6834Z" fill="#F9B084"/>
<path opacity="0.85" d="M147.679 27.6834C160.828 47.6412 140.422 84.3237 102.153 109.628C63.8847 134.933 22.2046 139.223 9.05552 119.203C-4.09355 99.2454 16.3123 62.5629 54.5811 37.2582C92.8499 12.0157 134.53 7.72568 147.679 27.6834Z" fill="#F9B68D"/>
<path opacity="0.8" d="M147.369 27.6834C160.456 47.579 140.112 84.1372 101.967 109.318C63.8227 134.498 22.2666 138.788 9.17958 118.892C-3.84545 98.9967 16.4364 62.4385 54.5811 37.2582C92.7258 12.0778 134.282 7.78784 147.369 27.6834Z" fill="#FABC96"/>
<path opacity="0.75" d="M147.059 27.6834C160.084 47.5169 139.864 83.9507 101.843 109.069C63.8227 134.187 22.3907 138.415 9.36566 118.581C-3.65937 98.748 16.5604 62.3142 54.5811 37.196C92.6018 12.14 134.034 7.85003 147.059 27.6834Z" fill="#FAC19F"/>
<path opacity="0.7" d="M146.749 27.6834C159.774 47.4547 139.554 83.7641 101.657 108.82C63.7606 133.876 22.5147 138.104 9.48969 118.333C-3.47331 98.5615 16.6845 62.1899 54.5811 37.196C92.4777 12.14 133.724 7.9122 146.749 27.6834Z" fill="#FBC7A8"/>
<path opacity="0.65" d="M146.439 27.6834C159.402 47.3925 139.244 83.5776 101.471 108.571C63.6986 133.565 22.5767 137.731 9.61373 118.022C-3.28725 98.3128 16.8085 62.1277 54.5811 37.1338C92.3537 12.2022 133.476 7.97436 146.439 27.6834Z" fill="#FBCCB0"/>
<path opacity="0.6" d="M146.128 27.6834C159.029 47.3303 138.996 83.3911 101.347 108.261C63.6986 133.13 22.7008 137.358 9.79981 117.711C-3.10117 98.0641 16.9326 62.0033 54.5811 37.1339C92.2296 12.2644 133.227 8.03656 146.128 27.6834Z" fill="#FCD2B9"/>
<path opacity="0.55" d="M145.818 27.6834C158.657 47.2682 138.686 83.2046 101.161 108.012C63.6366 132.819 22.7628 136.985 9.92384 117.4C-2.91511 97.8154 17.0566 61.879 54.5811 37.0717C92.1056 12.3265 132.979 8.09872 145.818 27.6834Z" fill="#FCD8C2"/>
<path opacity="0.5" d="M145.508 27.6834C158.347 47.206 138.437 83.0802 101.037 107.763C63.6366 132.446 22.8869 136.674 10.1099 117.151C-2.72902 97.6289 17.1807 61.7546 54.5811 37.0717C91.9815 12.3887 132.669 8.16088 145.508 27.6834Z" fill="#FCDDCB"/>
<path opacity="0.45" d="M145.198 27.6834C157.975 47.1438 138.127 82.8937 100.851 107.452C63.5745 132.073 23.0109 136.239 10.1719 116.778C-2.54298 97.3801 17.3047 61.6303 54.5811 37.0095C91.8575 12.3887 132.421 8.22305 145.198 27.6834Z" fill="#FDE3D3"/>
<path opacity="0.4" d="M144.888 27.6834C157.603 47.0816 137.817 82.7072 100.665 107.204C63.5125 131.7 23.0729 135.928 10.296 116.53C-2.35689 97.1315 17.4287 61.5059 54.5811 37.0095C91.7334 12.4509 132.173 8.28524 144.888 27.6834Z" fill="#FDE9DC"/>
<path opacity="0.35" d="M144.64 27.6834C157.355 47.0194 137.631 82.5206 100.603 106.955C63.5746 131.389 23.259 135.555 10.5441 116.219C-2.17083 96.8828 17.5528 61.4437 54.5811 36.9473C91.6094 12.513 131.925 8.3474 144.64 27.6834Z" fill="#FEEEE5"/>
<path opacity="0.3" d="M144.33 27.6834C156.983 46.9573 137.321 82.3341 100.417 106.706C63.5126 131.078 23.3211 135.244 10.6682 115.97C-1.98471 96.6963 17.6769 61.3194 54.5811 36.9473C91.4854 12.5752 131.677 8.4096 144.33 27.6834Z" fill="#FEF4EE"/>
<path opacity="0.25" d="M144.02 27.6834C156.61 46.8951 137.011 82.1476 100.231 106.395C63.4505 130.705 23.3831 134.809 10.7922 115.597C-1.79866 96.4475 17.8009 61.1951 54.5811 36.8851C91.3613 12.6374 131.367 8.47175 144.02 27.6834Z" fill="#FFF9F6"/>
<path opacity="0.2" d="M100.124 106.163C136.77 81.969 156.29 46.8498 143.723 27.7225C131.155 8.59525 91.2599 12.703 54.6137 36.8975C17.9675 61.092 -1.55222 96.2112 11.0152 115.338C23.5826 134.466 63.4781 130.358 100.124 106.163Z" fill="white"/>
</g>
</g>
</g>
<g clip-path="url(#clip1_2005_24608)">
<g opacity="0.85">
<path d="M172.409 60.02C168.035 76.351 152.033 86.2263 136.62 82.0738C121.208 77.9212 112.252 61.3111 116.626 44.9801C121 28.6491 137.002 18.7737 152.414 22.9262C167.827 27.0788 176.783 43.6889 172.409 60.02Z" fill="url(#paint8_radial_2005_24608)" style="mix-blend-mode:screen"/>
<path d="M194 65.8475C193.306 68.4297 170.604 64.5563 143.25 57.1585C115.932 49.7956 94.3405 41.7348 95 39.1525C95.6943 36.5703 118.396 40.4437 145.75 47.8415C173.103 55.2393 194.694 63.2652 194 65.8475Z" fill="url(#paint9_radial_2005_24608)" style="mix-blend-mode:screen"/>
<path d="M167.861 38.1057C168.486 39.2921 158.559 46.6899 145.68 54.6461C132.802 62.6022 121.833 68.0808 121.173 66.8943C120.548 65.7079 130.476 58.3101 143.354 50.354C156.233 42.3978 167.202 36.9193 167.861 38.1057Z" fill="url(#paint10_radial_2005_24608)" style="mix-blend-mode:screen"/>
<path d="M158.524 1.23046e-05C160.954 0.663023 156.649 24.671 148.908 53.669C141.168 82.667 132.941 105.628 130.511 104.965C128.081 104.302 132.385 80.2941 140.126 51.2961C147.832 22.333 156.059 -0.628103 158.524 1.23046e-05Z" fill="url(#paint11_radial_2005_24608)" style="mix-blend-mode:screen"/>
<path d="M131.448 28.3001C132.594 27.6022 139.363 37.8614 146.583 51.2263C153.803 64.5912 158.697 76.002 157.552 76.6999C156.406 77.3978 149.637 67.1386 142.417 53.7737C135.197 40.4088 130.303 28.998 131.448 28.3001Z" fill="url(#paint12_radial_2005_24608)" style="mix-blend-mode:screen"/>
<path d="M189.765 64.6959C189.14 67.1037 168.347 63.5793 143.32 56.8096C118.327 50.0748 98.5754 42.677 99.2349 40.2692C99.8597 37.8614 120.653 41.3859 145.68 48.1555C170.673 54.8903 190.425 62.2882 189.8 64.6959H189.765Z" fill="url(#paint13_radial_2005_24608)" style="mix-blend-mode:screen"/>
</g>
<path d="M187.995 66.1615C186.086 73.2802 166.508 74.1875 144.222 68.1855C121.937 62.1835 105.414 51.5404 107.323 44.4218C109.232 37.3031 128.81 36.3958 151.095 42.3978C173.381 48.3998 189.904 59.0429 187.995 66.1615Z" fill="url(#paint14_radial_2005_24608)" style="mix-blend-mode:screen"/>
</g>
<defs>
<linearGradient id="paint0_linear_2005_24608" x1="46.1458" y1="129.089" x2="167.344" y2="23.683" gradientUnits="userSpaceOnUse">
<stop stop-color="#9317FF"/>
<stop offset="0.39" stop-color="#FF5D17"/>
<stop offset="0.68" stop-color="#FF9317"/>
<stop offset="1" stop-color="#FFC840"/>
</linearGradient>
<linearGradient id="paint1_linear_2005_24608" x1="149.354" y1="22.8961" x2="44.5474" y2="98.0732" gradientUnits="userSpaceOnUse">
<stop offset="0.19" stop-color="#F8BE74"/>
<stop offset="0.36" stop-color="#F7BA71"/>
<stop offset="0.52" stop-color="#F5AE6B"/>
<stop offset="0.68" stop-color="#F29A5F"/>
<stop offset="0.84" stop-color="#ED7E50"/>
<stop offset="1" stop-color="#E85B3C"/>
</linearGradient>
<linearGradient id="paint2_linear_2005_24608" x1="133.352" y1="27.4969" x2="24.9643" y2="118.945" gradientUnits="userSpaceOnUse">
<stop stop-color="#F7A659"/>
<stop offset="0.46" stop-color="#F68B4F"/>
<stop offset="1" stop-color="#F66842"/>
</linearGradient>
<linearGradient id="paint3_linear_2005_24608" x1="139.668" y1="31.2149" x2="20.1806" y2="91.5796" gradientUnits="userSpaceOnUse">
<stop stop-color="#ED561A"/>
<stop offset="0.55" stop-color="#F1651A"/>
<stop offset="1" stop-color="#F46D1A"/>
</linearGradient>
<linearGradient id="paint4_linear_2005_24608" x1="102.326" y1="65.8367" x2="19.1614" y2="114.259" gradientUnits="userSpaceOnUse">
<stop stop-color="#ED561A"/>
<stop offset="0.55" stop-color="#F1651A"/>
<stop offset="1" stop-color="#F46D1A"/>
</linearGradient>
<linearGradient id="paint5_linear_2005_24608" x1="118.59" y1="41.6104" x2="37.247" y2="106.763" gradientUnits="userSpaceOnUse">
<stop offset="0.19" stop-color="#F8BE74"/>
<stop offset="0.41" stop-color="#F8BA72"/>
<stop offset="0.63" stop-color="#F8AE6F"/>
<stop offset="0.84" stop-color="#F89A69"/>
<stop offset="1" stop-color="#F88664"/>
</linearGradient>
<linearGradient id="paint6_linear_2005_24608" x1="92.5077" y1="92.2899" x2="65.1096" y2="57.0904" gradientUnits="userSpaceOnUse">
<stop stop-color="#FAD39D"/>
<stop offset="0.17" stop-color="#FDECD8"/>
<stop offset="0.65" stop-color="#F8BE73"/>
<stop offset="1" stop-color="#F8AA65"/>
</linearGradient>
<linearGradient id="paint7_linear_2005_24608" x1="108.133" y1="62.0407" x2="58.176" y2="81.974" gradientUnits="userSpaceOnUse">
<stop stop-color="#ED561A"/>
<stop offset="0.55" stop-color="#F1651A"/>
<stop offset="1" stop-color="#F46D1A"/>
</linearGradient>
<radialGradient id="paint8_radial_2005_24608" cx="0" cy="0" r="1" gradientTransform="matrix(27.9645 7.54305 -7.89845 29.5913 144.766 52.5582)" gradientUnits="userSpaceOnUse">
<stop stop-color="#F5F5F5"/>
<stop offset="0.18" stop-color="#B18345"/>
<stop offset="0.25" stop-color="#9B723C"/>
<stop offset="0.44" stop-color="#644A27"/>
<stop offset="0.61" stop-color="#392A16"/>
<stop offset="0.77" stop-color="#1A130A"/>
<stop offset="0.91" stop-color="#070503"/>
<stop offset="1" stop-color="#010101"/>
</radialGradient>
<radialGradient id="paint9_radial_2005_24608" cx="0" cy="0" r="1" gradientTransform="matrix(49.453 13.3393 -1.26375 4.73462 144.695 51.9285)" gradientUnits="userSpaceOnUse">
<stop stop-color="#F5F5F5"/>
<stop offset="0.18" stop-color="#B18345"/>
<stop offset="0.25" stop-color="#9B723C"/>
<stop offset="0.44" stop-color="#644A27"/>
<stop offset="0.61" stop-color="#392A16"/>
<stop offset="0.77" stop-color="#1A130A"/>
<stop offset="0.91" stop-color="#070503"/>
<stop offset="1" stop-color="#010101"/>
</radialGradient>
<radialGradient id="paint10_radial_2005_24608" cx="0" cy="0" r="1" gradientTransform="matrix(23.3437 -14.3916 1.24129 2.03468 152.076 41.3297)" gradientUnits="userSpaceOnUse">
<stop stop-color="#F5F5F5"/>
<stop offset="0.18" stop-color="#B18345"/>
<stop offset="0.25" stop-color="#9B723C"/>
<stop offset="0.44" stop-color="#644A27"/>
<stop offset="0.61" stop-color="#392A16"/>
<stop offset="0.77" stop-color="#1A130A"/>
<stop offset="0.91" stop-color="#070503"/>
<stop offset="1" stop-color="#010101"/>
</radialGradient>
<radialGradient id="paint11_radial_2005_24608" cx="0" cy="0" r="1" gradientTransform="matrix(13.9803 -52.3767 4.41545 1.19101 145.38 51.7406)" gradientUnits="userSpaceOnUse">
<stop stop-color="#F5F5F5"/>
<stop offset="0.18" stop-color="#B18345"/>
<stop offset="0.25" stop-color="#9B723C"/>
<stop offset="0.44" stop-color="#644A27"/>
<stop offset="0.61" stop-color="#392A16"/>
<stop offset="0.77" stop-color="#1A130A"/>
<stop offset="0.91" stop-color="#070503"/>
<stop offset="1" stop-color="#010101"/>
</radialGradient>
<radialGradient id="paint12_radial_2005_24608" cx="0" cy="0" r="1" gradientTransform="matrix(-13.0455 -24.2037 2.08759 -1.13707 146.061 70.1286)" gradientUnits="userSpaceOnUse">
<stop stop-color="#F5F5F5"/>
<stop offset="0.18" stop-color="#B18345"/>
<stop offset="0.25" stop-color="#9B723C"/>
<stop offset="0.44" stop-color="#644A27"/>
<stop offset="0.61" stop-color="#392A16"/>
<stop offset="0.77" stop-color="#1A130A"/>
<stop offset="0.91" stop-color="#070503"/>
<stop offset="1" stop-color="#010101"/>
</radialGradient>
<radialGradient id="paint13_radial_2005_24608" cx="0" cy="0" r="1" gradientTransform="matrix(45.3319 12.2277 -1.18477 4.4387 144.434 52.7174)" gradientUnits="userSpaceOnUse">
<stop stop-color="#F5F5F5"/>
<stop offset="0.18" stop-color="#AB7E42"/>
<stop offset="0.26" stop-color="#7E5D31"/>
<stop offset="0.33" stop-color="#574022"/>
<stop offset="0.41" stop-color="#372915"/>
<stop offset="0.49" stop-color="#1F170C"/>
<stop offset="0.58" stop-color="#0D0A05"/>
<stop offset="0.67" stop-color="#030201"/>
<stop offset="0.78"/>
</radialGradient>
<radialGradient id="paint14_radial_2005_24608" cx="0" cy="0" r="1" gradientTransform="matrix(40.3277 10.8779 -3.47532 13.0202 147.503 55.262)" gradientUnits="userSpaceOnUse">
<stop stop-color="#F5F5F5"/>
<stop offset="0.18" stop-color="#B18345"/>
<stop offset="0.25" stop-color="#9B723C"/>
<stop offset="0.44" stop-color="#644A27"/>
<stop offset="0.61" stop-color="#392A16"/>
<stop offset="0.77" stop-color="#1A130A"/>
<stop offset="0.91" stop-color="#070503"/>
<stop offset="1" stop-color="#010101"/>
</radialGradient>
<clipPath id="clip0_2005_24608">
<rect width="171" height="131" fill="white" transform="translate(0 15)"/>
</clipPath>
<clipPath id="clip1_2005_24608">
<rect width="99" height="105" fill="white" transform="translate(95)"/>
</clipPath>
</defs>
</svg>
